%FSLAX45Y45*%
G04 Gerber Fmt 4.5, Leading zero omitted, Abs format (unit mm)*
G04 Created by KiCad (PCBNEW (6.0.5)) date 2024-06-21 19:10:24*
%MOMM*%
%LPD*%
G01*
G04 APERTURE LIST*
%TA.AperFunction,Profile*%
%ADD10C,0.100000*%
%TD*%
%ADD11C,0.200000*%
G04 APERTURE END LIST*
D10*
X14025000Y-9475000D02*
X16875000Y-9475000D01*
X16875000Y-9475000D02*
X16875000Y-11100000D01*
X16875000Y-11100000D02*
X14025000Y-11100000D01*
X14025000Y-11100000D02*
X14025000Y-9475000D01*
D11*
X14277619Y-11415476D02*
X14277619Y-11215476D01*
X14325238Y-11215476D01*
X14353809Y-11225000D01*
X14372857Y-11244048D01*
X14382381Y-11263095D01*
X14391905Y-11301190D01*
X14391905Y-11329762D01*
X14382381Y-11367857D01*
X14372857Y-11386905D01*
X14353809Y-11405952D01*
X14325238Y-11415476D01*
X14277619Y-11415476D01*
X14477619Y-11415476D02*
X14477619Y-11282143D01*
X14477619Y-11320238D02*
X14487143Y-11301190D01*
X14496667Y-11291667D01*
X14515714Y-11282143D01*
X14534762Y-11282143D01*
X14601428Y-11415476D02*
X14601428Y-11282143D01*
X14601428Y-11215476D02*
X14591905Y-11225000D01*
X14601428Y-11234524D01*
X14610952Y-11225000D01*
X14601428Y-11215476D01*
X14601428Y-11234524D01*
X14725238Y-11415476D02*
X14706190Y-11405952D01*
X14696667Y-11386905D01*
X14696667Y-11215476D01*
X14830000Y-11415476D02*
X14810952Y-11405952D01*
X14801428Y-11386905D01*
X14801428Y-11215476D01*
X15058571Y-11415476D02*
X15058571Y-11215476D01*
X15125238Y-11358333D01*
X15191905Y-11215476D01*
X15191905Y-11415476D01*
X15372857Y-11415476D02*
X15372857Y-11310714D01*
X15363333Y-11291667D01*
X15344286Y-11282143D01*
X15306190Y-11282143D01*
X15287143Y-11291667D01*
X15372857Y-11405952D02*
X15353809Y-11415476D01*
X15306190Y-11415476D01*
X15287143Y-11405952D01*
X15277619Y-11386905D01*
X15277619Y-11367857D01*
X15287143Y-11348809D01*
X15306190Y-11339286D01*
X15353809Y-11339286D01*
X15372857Y-11329762D01*
X15468095Y-11282143D02*
X15468095Y-11482143D01*
X15468095Y-11291667D02*
X15487143Y-11282143D01*
X15525238Y-11282143D01*
X15544286Y-11291667D01*
X15553809Y-11301190D01*
X15563333Y-11320238D01*
X15563333Y-11377381D01*
X15553809Y-11396428D01*
X15544286Y-11405952D01*
X15525238Y-11415476D01*
X15487143Y-11415476D01*
X15468095Y-11405952D01*
X15649048Y-11396428D02*
X15658571Y-11405952D01*
X15649048Y-11415476D01*
X15639524Y-11405952D01*
X15649048Y-11396428D01*
X15649048Y-11415476D01*
X15649048Y-11291667D02*
X15658571Y-11301190D01*
X15649048Y-11310714D01*
X15639524Y-11301190D01*
X15649048Y-11291667D01*
X15649048Y-11310714D01*
M02*
