%TF.GenerationSoftware,KiCad,Pcbnew,(6.0.5)*%
%TF.CreationDate,2024-06-21T19:09:36+02:00*%
%TF.ProjectId,pmod_level_shifter_4p,706d6f64-5f6c-4657-9665-6c5f73686966,rev?*%
%TF.SameCoordinates,Original*%
%TF.FileFunction,Copper,L1,Top*%
%TF.FilePolarity,Positive*%
%FSLAX46Y46*%
G04 Gerber Fmt 4.6, Leading zero omitted, Abs format (unit mm)*
G04 Created by KiCad (PCBNEW (6.0.5)) date 2024-06-21 19:09:36*
%MOMM*%
%LPD*%
G01*
G04 APERTURE LIST*
G04 Aperture macros list*
%AMRoundRect*
0 Rectangle with rounded corners*
0 $1 Rounding radius*
0 $2 $3 $4 $5 $6 $7 $8 $9 X,Y pos of 4 corners*
0 Add a 4 corners polygon primitive as box body*
4,1,4,$2,$3,$4,$5,$6,$7,$8,$9,$2,$3,0*
0 Add four circle primitives for the rounded corners*
1,1,$1+$1,$2,$3*
1,1,$1+$1,$4,$5*
1,1,$1+$1,$6,$7*
1,1,$1+$1,$8,$9*
0 Add four rect primitives between the rounded corners*
20,1,$1+$1,$2,$3,$4,$5,0*
20,1,$1+$1,$4,$5,$6,$7,0*
20,1,$1+$1,$6,$7,$8,$9,0*
20,1,$1+$1,$8,$9,$2,$3,0*%
G04 Aperture macros list end*
%TA.AperFunction,SMDPad,CuDef*%
%ADD10RoundRect,0.243750X-0.243750X-0.456250X0.243750X-0.456250X0.243750X0.456250X-0.243750X0.456250X0*%
%TD*%
%TA.AperFunction,SMDPad,CuDef*%
%ADD11RoundRect,0.243750X0.243750X0.456250X-0.243750X0.456250X-0.243750X-0.456250X0.243750X-0.456250X0*%
%TD*%
%TA.AperFunction,ComponentPad*%
%ADD12R,1.700000X1.700000*%
%TD*%
%TA.AperFunction,ComponentPad*%
%ADD13O,1.700000X1.700000*%
%TD*%
%TA.AperFunction,SMDPad,CuDef*%
%ADD14RoundRect,0.250000X0.262500X0.450000X-0.262500X0.450000X-0.262500X-0.450000X0.262500X-0.450000X0*%
%TD*%
%TA.AperFunction,SMDPad,CuDef*%
%ADD15RoundRect,0.250000X-0.250000X-0.475000X0.250000X-0.475000X0.250000X0.475000X-0.250000X0.475000X0*%
%TD*%
%TA.AperFunction,SMDPad,CuDef*%
%ADD16RoundRect,0.250000X0.250000X0.475000X-0.250000X0.475000X-0.250000X-0.475000X0.250000X-0.475000X0*%
%TD*%
%TA.AperFunction,SMDPad,CuDef*%
%ADD17R,1.475000X0.450000*%
%TD*%
%TA.AperFunction,ViaPad*%
%ADD18C,0.800000*%
%TD*%
%TA.AperFunction,Conductor*%
%ADD19C,0.400000*%
%TD*%
G04 APERTURE END LIST*
D10*
%TO.P,D1,1,K*%
%TO.N,GND*%
X147062500Y-106500000D03*
%TO.P,D1,2,A*%
%TO.N,Net-(D1-Pad2)*%
X148937500Y-106500000D03*
%TD*%
D11*
%TO.P,D2,1,K*%
%TO.N,GND*%
X156937500Y-106500000D03*
%TO.P,D2,2,A*%
%TO.N,Net-(D2-Pad2)*%
X155062500Y-106500000D03*
%TD*%
D12*
%TO.P,J1,1,Pin_1*%
%TO.N,+5V*%
X152000000Y-105725000D03*
D13*
%TO.P,J1,2,Pin_2*%
%TO.N,GND*%
X152000000Y-108265000D03*
%TD*%
D12*
%TO.P,PMOD1,1,IO0*%
%TO.N,Net-(IC1-Pad2)*%
X144270000Y-96520000D03*
D13*
%TO.P,PMOD1,2,IO1*%
%TO.N,Net-(IC1-Pad3)*%
X144270000Y-99060000D03*
%TO.P,PMOD1,3,IO2*%
%TO.N,Net-(IC1-Pad4)*%
X144270000Y-101600000D03*
%TO.P,PMOD1,4,IO3*%
%TO.N,Net-(IC1-Pad5)*%
X144270000Y-104140000D03*
%TO.P,PMOD1,5,GND*%
%TO.N,GND*%
X144270000Y-106680000D03*
%TO.P,PMOD1,6,VCC*%
%TO.N,+3V3*%
X144270000Y-109220000D03*
%TD*%
D14*
%TO.P,R1,1*%
%TO.N,Net-(D1-Pad2)*%
X148912500Y-108500000D03*
%TO.P,R1,2*%
%TO.N,+3V3*%
X147087500Y-108500000D03*
%TD*%
D15*
%TO.P,C1,1*%
%TO.N,+3V3*%
X149050000Y-97000000D03*
%TO.P,C1,2*%
%TO.N,GND*%
X150950000Y-97000000D03*
%TD*%
D16*
%TO.P,C2,1*%
%TO.N,+5V*%
X154950000Y-97000000D03*
%TO.P,C2,2*%
%TO.N,GND*%
X153050000Y-97000000D03*
%TD*%
D17*
%TO.P,IC1,1,VCC(A)*%
%TO.N,+3V3*%
X149062000Y-99050000D03*
%TO.P,IC1,2,A1*%
%TO.N,Net-(IC1-Pad2)*%
X149062000Y-99700000D03*
%TO.P,IC1,3,A2*%
%TO.N,Net-(IC1-Pad3)*%
X149062000Y-100350000D03*
%TO.P,IC1,4,A3*%
%TO.N,Net-(IC1-Pad4)*%
X149062000Y-101000000D03*
%TO.P,IC1,5,A4*%
%TO.N,Net-(IC1-Pad5)*%
X149062000Y-101650000D03*
%TO.P,IC1,6,n.c._1*%
%TO.N,unconnected-(IC1-Pad6)*%
X149062000Y-102300000D03*
%TO.P,IC1,7,GND*%
%TO.N,GND*%
X149062000Y-102950000D03*
%TO.P,IC1,8,OE*%
%TO.N,+3V3*%
X154938000Y-102950000D03*
%TO.P,IC1,9,n.c._2*%
%TO.N,unconnected-(IC1-Pad9)*%
X154938000Y-102300000D03*
%TO.P,IC1,10,B4*%
%TO.N,Net-(IC1-Pad10)*%
X154938000Y-101650000D03*
%TO.P,IC1,11,B3*%
%TO.N,Net-(IC1-Pad11)*%
X154938000Y-101000000D03*
%TO.P,IC1,12,B2*%
%TO.N,Net-(IC1-Pad12)*%
X154938000Y-100350000D03*
%TO.P,IC1,13,B1*%
%TO.N,Net-(IC1-Pad13)*%
X154938000Y-99700000D03*
%TO.P,IC1,14,VCC(B)*%
%TO.N,+5V*%
X154938000Y-99050000D03*
%TD*%
D14*
%TO.P,R2,1*%
%TO.N,+5V*%
X156912500Y-108500000D03*
%TO.P,R2,2*%
%TO.N,Net-(D2-Pad2)*%
X155087500Y-108500000D03*
%TD*%
D12*
%TO.P,PMOD2,1,IO0*%
%TO.N,Net-(IC1-Pad13)*%
X159600000Y-96520000D03*
D13*
%TO.P,PMOD2,2,IO1*%
%TO.N,Net-(IC1-Pad12)*%
X159600000Y-99060000D03*
%TO.P,PMOD2,3,IO2*%
%TO.N,Net-(IC1-Pad11)*%
X159600000Y-101600000D03*
%TO.P,PMOD2,4,IO3*%
%TO.N,Net-(IC1-Pad10)*%
X159600000Y-104140000D03*
%TO.P,PMOD2,5,GND*%
%TO.N,GND*%
X159600000Y-106680000D03*
%TO.P,PMOD2,6,VCC*%
%TO.N,+5V*%
X159600000Y-109220000D03*
%TD*%
D18*
%TO.N,GND*%
X152000000Y-98250000D03*
X147750000Y-104000000D03*
%TD*%
D19*
%TO.N,+3V3*%
X150250000Y-109000000D02*
X150250000Y-107000000D01*
X153750000Y-106500000D02*
X153250000Y-107000000D01*
X153750000Y-104750000D02*
X153750000Y-106500000D01*
X154938000Y-103562000D02*
X153750000Y-104750000D01*
X153250000Y-107000000D02*
X150250000Y-107000000D01*
X154938000Y-102950000D02*
X154938000Y-103562000D01*
X150250000Y-107000000D02*
X150250000Y-99250000D01*
%TO.N,+5V*%
X153826478Y-99050000D02*
X154938000Y-99050000D01*
X152000000Y-100876478D02*
X153826478Y-99050000D01*
X152000000Y-105725000D02*
X152000000Y-100876478D01*
%TO.N,+3V3*%
X150000000Y-99000000D02*
X149112000Y-99000000D01*
X150250000Y-99250000D02*
X150000000Y-99000000D01*
X149650480Y-109599520D02*
X150250000Y-109000000D01*
X149112000Y-99000000D02*
X149062000Y-99050000D01*
X147849520Y-109599520D02*
X149650480Y-109599520D01*
X147087500Y-108837500D02*
X147849520Y-109599520D01*
X147087500Y-108500000D02*
X147087500Y-108837500D01*
X149050000Y-99038000D02*
X149062000Y-99050000D01*
X149050000Y-97000000D02*
X149050000Y-99038000D01*
%TO.N,GND*%
X147062500Y-106500000D02*
X147062500Y-104687500D01*
X147062500Y-104687500D02*
X147750000Y-104000000D01*
%TO.N,+5V*%
X154950000Y-99038000D02*
X154938000Y-99050000D01*
X154950000Y-97000000D02*
X154950000Y-99038000D01*
%TO.N,GND*%
X153050000Y-97200000D02*
X152000000Y-98250000D01*
X153050000Y-97000000D02*
X153050000Y-97200000D01*
X150950000Y-97200000D02*
X152000000Y-98250000D01*
X150950000Y-97000000D02*
X150950000Y-97200000D01*
X148800000Y-102950000D02*
X147750000Y-104000000D01*
X149062000Y-102950000D02*
X148800000Y-102950000D01*
%TO.N,Net-(D1-Pad2)*%
X148937500Y-106500000D02*
X148937500Y-108475000D01*
X148937500Y-108475000D02*
X148912500Y-108500000D01*
%TO.N,Net-(D2-Pad2)*%
X155087500Y-108500000D02*
X155087500Y-106525000D01*
X155087500Y-106525000D02*
X155062500Y-106500000D01*
%TO.N,GND*%
X159600000Y-106680000D02*
X157117500Y-106680000D01*
X157117500Y-106680000D02*
X156937500Y-106500000D01*
%TO.N,+5V*%
X159600000Y-109220000D02*
X157632500Y-109220000D01*
X157632500Y-109220000D02*
X156912500Y-108500000D01*
%TO.N,GND*%
X146882500Y-106680000D02*
X147062500Y-106500000D01*
X144270000Y-106680000D02*
X146882500Y-106680000D01*
%TO.N,+3V3*%
X146367500Y-109220000D02*
X147087500Y-108500000D01*
X144270000Y-109220000D02*
X146367500Y-109220000D01*
%TO.N,Net-(IC1-Pad10)*%
X157110000Y-101650000D02*
X159600000Y-104140000D01*
X154938000Y-101650000D02*
X157110000Y-101650000D01*
%TO.N,Net-(IC1-Pad11)*%
X159000000Y-101000000D02*
X159600000Y-101600000D01*
X154938000Y-101000000D02*
X159000000Y-101000000D01*
%TO.N,Net-(IC1-Pad12)*%
X154938000Y-100350000D02*
X158310000Y-100350000D01*
X158310000Y-100350000D02*
X159600000Y-99060000D01*
%TO.N,Net-(IC1-Pad13)*%
X159255500Y-96520000D02*
X159600000Y-96520000D01*
X156075500Y-99700000D02*
X159255500Y-96520000D01*
X154938000Y-99700000D02*
X156075500Y-99700000D01*
%TO.N,Net-(IC1-Pad5)*%
X146760000Y-101650000D02*
X144270000Y-104140000D01*
X149062000Y-101650000D02*
X146760000Y-101650000D01*
%TO.N,Net-(IC1-Pad4)*%
X144870000Y-101000000D02*
X144270000Y-101600000D01*
X149062000Y-101000000D02*
X144870000Y-101000000D01*
%TO.N,Net-(IC1-Pad3)*%
X149062000Y-100350000D02*
X145560000Y-100350000D01*
X145560000Y-100350000D02*
X144270000Y-99060000D01*
%TO.N,Net-(IC1-Pad2)*%
X147924500Y-99700000D02*
X144744500Y-96520000D01*
X144744500Y-96520000D02*
X144270000Y-96520000D01*
X149062000Y-99700000D02*
X147924500Y-99700000D01*
%TD*%
%TA.AperFunction,Conductor*%
%TO.N,GND*%
G36*
X154092943Y-107263193D02*
G01*
X154149779Y-107305740D01*
X154156044Y-107314929D01*
X154225033Y-107426414D01*
X154225204Y-107426690D01*
X154225157Y-107426719D01*
X154250589Y-107489561D01*
X154237414Y-107559325D01*
X154227304Y-107575085D01*
X154225695Y-107576697D01*
X154221857Y-107582924D01*
X154221855Y-107582926D01*
X154153379Y-107694014D01*
X154132885Y-107727262D01*
X154130581Y-107734209D01*
X154083801Y-107875248D01*
X154077203Y-107895139D01*
X154066500Y-107999600D01*
X154066500Y-109000400D01*
X154077474Y-109106166D01*
X154133450Y-109273946D01*
X154226522Y-109424348D01*
X154351697Y-109549305D01*
X154357927Y-109553145D01*
X154357928Y-109553146D01*
X154495090Y-109637694D01*
X154502262Y-109642115D01*
X154582005Y-109668564D01*
X154663611Y-109695632D01*
X154663613Y-109695632D01*
X154670139Y-109697797D01*
X154676975Y-109698497D01*
X154676978Y-109698498D01*
X154720031Y-109702909D01*
X154774600Y-109708500D01*
X155400400Y-109708500D01*
X155403646Y-109708163D01*
X155403650Y-109708163D01*
X155499308Y-109698238D01*
X155499312Y-109698237D01*
X155506166Y-109697526D01*
X155512702Y-109695345D01*
X155512704Y-109695345D01*
X155644806Y-109651272D01*
X155673946Y-109641550D01*
X155824348Y-109548478D01*
X155910784Y-109461891D01*
X155973066Y-109427812D01*
X156043886Y-109432815D01*
X156088975Y-109461736D01*
X156130250Y-109502939D01*
X156176697Y-109549305D01*
X156182927Y-109553145D01*
X156182928Y-109553146D01*
X156320090Y-109637694D01*
X156327262Y-109642115D01*
X156407005Y-109668564D01*
X156488611Y-109695632D01*
X156488613Y-109695632D01*
X156495139Y-109697797D01*
X156501975Y-109698497D01*
X156501978Y-109698498D01*
X156545031Y-109702909D01*
X156599600Y-109708500D01*
X157061417Y-109708500D01*
X157129538Y-109728502D01*
X157145724Y-109740861D01*
X157149950Y-109744666D01*
X157154939Y-109750385D01*
X157161150Y-109754750D01*
X157161152Y-109754752D01*
X157207197Y-109787112D01*
X157212493Y-109791045D01*
X157262782Y-109830477D01*
X157269704Y-109833602D01*
X157271952Y-109834964D01*
X157286685Y-109843368D01*
X157289024Y-109844622D01*
X157295239Y-109848990D01*
X157302315Y-109851749D01*
X157302319Y-109851751D01*
X157354769Y-109872200D01*
X157360834Y-109874749D01*
X157419073Y-109901045D01*
X157426538Y-109902429D01*
X157429082Y-109903226D01*
X157445348Y-109907859D01*
X157447928Y-109908521D01*
X157455009Y-109911282D01*
X157462542Y-109912274D01*
X157462543Y-109912274D01*
X157475761Y-109914014D01*
X157518357Y-109919622D01*
X157524855Y-109920650D01*
X157587687Y-109932296D01*
X157595267Y-109931859D01*
X157595268Y-109931859D01*
X157649893Y-109928709D01*
X157657147Y-109928500D01*
X158370234Y-109928500D01*
X158438355Y-109948502D01*
X158477667Y-109988665D01*
X158499987Y-110025088D01*
X158646250Y-110193938D01*
X158722846Y-110257529D01*
X158736128Y-110268556D01*
X158775763Y-110327458D01*
X158777261Y-110398439D01*
X158740147Y-110458962D01*
X158676202Y-110489811D01*
X158655643Y-110491500D01*
X149984317Y-110491500D01*
X149916196Y-110471498D01*
X149869703Y-110417842D01*
X149859599Y-110347568D01*
X149889093Y-110282988D01*
X149939778Y-110247635D01*
X149981136Y-110232007D01*
X149987399Y-110227703D01*
X149989765Y-110226466D01*
X150004577Y-110218221D01*
X150006831Y-110216888D01*
X150013785Y-110213835D01*
X150064482Y-110174933D01*
X150069812Y-110171061D01*
X150116200Y-110139181D01*
X150116205Y-110139176D01*
X150122461Y-110134877D01*
X150147177Y-110107137D01*
X150163907Y-110088359D01*
X150168888Y-110083082D01*
X150730536Y-109521435D01*
X150736801Y-109515582D01*
X150774664Y-109482552D01*
X150774665Y-109482551D01*
X150780385Y-109477561D01*
X150817136Y-109425271D01*
X150821028Y-109420029D01*
X150860476Y-109369718D01*
X150863600Y-109362799D01*
X150864988Y-109360507D01*
X150873357Y-109345835D01*
X150874622Y-109343475D01*
X150878990Y-109337261D01*
X150885582Y-109320353D01*
X150928964Y-109264152D01*
X150995843Y-109240326D01*
X151064987Y-109256440D01*
X151083460Y-109269180D01*
X151214434Y-109377916D01*
X151222881Y-109383831D01*
X151406756Y-109491279D01*
X151416042Y-109495729D01*
X151615001Y-109571703D01*
X151624899Y-109574579D01*
X151728250Y-109595606D01*
X151742299Y-109594410D01*
X151746000Y-109584065D01*
X151746000Y-109583517D01*
X152254000Y-109583517D01*
X152258064Y-109597359D01*
X152271478Y-109599393D01*
X152278184Y-109598534D01*
X152288262Y-109596392D01*
X152492255Y-109535191D01*
X152501842Y-109531433D01*
X152693095Y-109437739D01*
X152701945Y-109432464D01*
X152875328Y-109308792D01*
X152883200Y-109302139D01*
X153034052Y-109151812D01*
X153040730Y-109143965D01*
X153165003Y-108971020D01*
X153170313Y-108962183D01*
X153264670Y-108771267D01*
X153268469Y-108761672D01*
X153330377Y-108557910D01*
X153332555Y-108547837D01*
X153333986Y-108536962D01*
X153331775Y-108522778D01*
X153318617Y-108519000D01*
X152272115Y-108519000D01*
X152256876Y-108523475D01*
X152255671Y-108524865D01*
X152254000Y-108532548D01*
X152254000Y-109583517D01*
X151746000Y-109583517D01*
X151746000Y-108137000D01*
X151766002Y-108068879D01*
X151819658Y-108022386D01*
X151872000Y-108011000D01*
X153318344Y-108011000D01*
X153331875Y-108007027D01*
X153333180Y-107997947D01*
X153296252Y-107850933D01*
X153299056Y-107779992D01*
X153339769Y-107721828D01*
X153403318Y-107695150D01*
X153403900Y-107695080D01*
X153420242Y-107693102D01*
X153427343Y-107690419D01*
X153429952Y-107689778D01*
X153446262Y-107685315D01*
X153448798Y-107684550D01*
X153456284Y-107683243D01*
X153514800Y-107657556D01*
X153520904Y-107655065D01*
X153573548Y-107635173D01*
X153573549Y-107635172D01*
X153580656Y-107632487D01*
X153586919Y-107628183D01*
X153589285Y-107626946D01*
X153604097Y-107618701D01*
X153606351Y-107617368D01*
X153613305Y-107614315D01*
X153664002Y-107575413D01*
X153669332Y-107571541D01*
X153715720Y-107539661D01*
X153715725Y-107539656D01*
X153721981Y-107535357D01*
X153763436Y-107488829D01*
X153768416Y-107483554D01*
X153959816Y-107292154D01*
X154022128Y-107258128D01*
X154092943Y-107263193D01*
G37*
%TD.AperFunction*%
%TA.AperFunction,Conductor*%
G36*
X142917487Y-95278502D02*
G01*
X142963980Y-95332158D01*
X142974084Y-95402432D01*
X142967349Y-95428726D01*
X142918255Y-95559684D01*
X142911500Y-95621866D01*
X142911500Y-97418134D01*
X142918255Y-97480316D01*
X142969385Y-97616705D01*
X143056739Y-97733261D01*
X143173295Y-97820615D01*
X143181704Y-97823767D01*
X143181705Y-97823768D01*
X143290451Y-97864535D01*
X143347216Y-97907176D01*
X143371916Y-97973738D01*
X143356709Y-98043087D01*
X143337316Y-98069568D01*
X143210629Y-98202138D01*
X143207715Y-98206410D01*
X143207714Y-98206411D01*
X143141912Y-98302873D01*
X143084743Y-98386680D01*
X143043009Y-98476589D01*
X142995799Y-98578295D01*
X142990688Y-98589305D01*
X142930989Y-98804570D01*
X142907251Y-99026695D01*
X142907548Y-99031848D01*
X142907548Y-99031851D01*
X142913011Y-99126590D01*
X142920110Y-99249715D01*
X142921247Y-99254761D01*
X142921248Y-99254767D01*
X142926690Y-99278912D01*
X142969222Y-99467639D01*
X143053266Y-99674616D01*
X143169987Y-99865088D01*
X143316250Y-100033938D01*
X143488126Y-100176632D01*
X143558595Y-100217811D01*
X143561445Y-100219476D01*
X143610169Y-100271114D01*
X143623240Y-100340897D01*
X143596509Y-100406669D01*
X143556055Y-100440027D01*
X143543607Y-100446507D01*
X143539474Y-100449610D01*
X143539471Y-100449612D01*
X143369100Y-100577530D01*
X143364965Y-100580635D01*
X143210629Y-100742138D01*
X143207715Y-100746410D01*
X143207714Y-100746411D01*
X143144387Y-100839245D01*
X143084743Y-100926680D01*
X142990688Y-101129305D01*
X142930989Y-101344570D01*
X142907251Y-101566695D01*
X142907548Y-101571848D01*
X142907548Y-101571851D01*
X142913011Y-101666590D01*
X142920110Y-101789715D01*
X142921247Y-101794761D01*
X142921248Y-101794767D01*
X142941119Y-101882939D01*
X142969222Y-102007639D01*
X143053266Y-102214616D01*
X143169987Y-102405088D01*
X143316250Y-102573938D01*
X143488126Y-102716632D01*
X143535627Y-102744389D01*
X143561445Y-102759476D01*
X143610169Y-102811114D01*
X143623240Y-102880897D01*
X143596509Y-102946669D01*
X143556055Y-102980027D01*
X143543607Y-102986507D01*
X143539474Y-102989610D01*
X143539471Y-102989612D01*
X143369100Y-103117530D01*
X143364965Y-103120635D01*
X143361393Y-103124373D01*
X143215203Y-103277352D01*
X143210629Y-103282138D01*
X143207715Y-103286410D01*
X143207714Y-103286411D01*
X143203414Y-103292715D01*
X143084743Y-103466680D01*
X143069003Y-103500590D01*
X142996505Y-103656774D01*
X142990688Y-103669305D01*
X142930989Y-103884570D01*
X142907251Y-104106695D01*
X142907548Y-104111848D01*
X142907548Y-104111851D01*
X142917166Y-104278653D01*
X142920110Y-104329715D01*
X142921247Y-104334761D01*
X142921248Y-104334767D01*
X142941119Y-104422939D01*
X142969222Y-104547639D01*
X143053266Y-104754616D01*
X143169987Y-104945088D01*
X143316250Y-105113938D01*
X143488126Y-105256632D01*
X143531468Y-105281959D01*
X143561955Y-105299774D01*
X143610679Y-105351412D01*
X143623750Y-105421195D01*
X143597019Y-105486967D01*
X143556562Y-105520327D01*
X143548457Y-105524546D01*
X143539738Y-105530036D01*
X143369433Y-105657905D01*
X143361726Y-105664748D01*
X143214590Y-105818717D01*
X143208104Y-105826727D01*
X143088098Y-106002649D01*
X143083000Y-106011623D01*
X142993338Y-106204783D01*
X142989775Y-106214470D01*
X142934389Y-106414183D01*
X142935912Y-106422607D01*
X142948292Y-106426000D01*
X145588344Y-106426000D01*
X145601875Y-106422027D01*
X145603180Y-106412947D01*
X145561214Y-106245875D01*
X145557894Y-106236124D01*
X145554312Y-106227885D01*
X146067000Y-106227885D01*
X146071475Y-106243124D01*
X146072865Y-106244329D01*
X146080548Y-106246000D01*
X146790385Y-106246000D01*
X146805624Y-106241525D01*
X146806829Y-106240135D01*
X146808500Y-106232452D01*
X146808500Y-105310116D01*
X146804025Y-105294877D01*
X146802635Y-105293672D01*
X146794952Y-105292001D01*
X146772067Y-105292001D01*
X146765548Y-105292338D01*
X146670830Y-105302166D01*
X146657436Y-105305058D01*
X146504635Y-105356036D01*
X146491457Y-105362210D01*
X146354851Y-105446744D01*
X146343450Y-105455780D01*
X146229949Y-105569479D01*
X146220937Y-105580890D01*
X146136635Y-105717654D01*
X146130491Y-105730832D01*
X146079773Y-105883740D01*
X146076907Y-105897106D01*
X146067328Y-105990601D01*
X146067000Y-105997016D01*
X146067000Y-106227885D01*
X145554312Y-106227885D01*
X145472972Y-106040814D01*
X145468105Y-106031739D01*
X145352426Y-105852926D01*
X145346136Y-105844757D01*
X145202806Y-105687240D01*
X145195273Y-105680215D01*
X145028139Y-105548222D01*
X145019556Y-105542520D01*
X144982602Y-105522120D01*
X144932631Y-105471687D01*
X144917859Y-105402245D01*
X144942975Y-105335839D01*
X144970327Y-105309232D01*
X145033402Y-105264241D01*
X145149860Y-105181173D01*
X145308096Y-105023489D01*
X145367594Y-104940689D01*
X145435435Y-104846277D01*
X145438453Y-104842077D01*
X145537430Y-104641811D01*
X145602370Y-104428069D01*
X145631529Y-104206590D01*
X145633156Y-104140000D01*
X145614852Y-103917361D01*
X145613593Y-103912348D01*
X145613591Y-103912337D01*
X145608115Y-103890540D01*
X145610918Y-103819598D01*
X145641223Y-103770747D01*
X147016565Y-102395405D01*
X147078877Y-102361379D01*
X147105660Y-102358500D01*
X147690000Y-102358500D01*
X147758121Y-102378502D01*
X147804614Y-102432158D01*
X147816000Y-102484500D01*
X147816000Y-102573134D01*
X147820409Y-102613720D01*
X147820409Y-102640933D01*
X147816869Y-102673517D01*
X147816500Y-102680328D01*
X147816500Y-102706885D01*
X147820975Y-102722124D01*
X147846670Y-102744389D01*
X147846212Y-102744918D01*
X147858600Y-102751682D01*
X147873707Y-102771839D01*
X147873885Y-102771705D01*
X147961239Y-102888261D01*
X148039173Y-102946669D01*
X148041181Y-102948174D01*
X148083696Y-103005033D01*
X148088722Y-103075851D01*
X148054662Y-103138145D01*
X147992331Y-103172135D01*
X147965616Y-103175000D01*
X147834616Y-103175000D01*
X147819377Y-103179475D01*
X147818172Y-103180865D01*
X147816501Y-103188548D01*
X147816501Y-103219669D01*
X147816871Y-103226490D01*
X147822395Y-103277352D01*
X147826021Y-103292604D01*
X147871176Y-103413054D01*
X147879714Y-103428649D01*
X147956215Y-103530724D01*
X147968776Y-103543285D01*
X148070851Y-103619786D01*
X148086446Y-103628324D01*
X148206894Y-103673478D01*
X148222149Y-103677105D01*
X148273014Y-103682631D01*
X148279828Y-103683000D01*
X148818885Y-103683000D01*
X148834124Y-103678525D01*
X148835329Y-103677135D01*
X148837000Y-103669452D01*
X148837000Y-103175000D01*
X148837552Y-103175000D01*
X148837553Y-103124000D01*
X148875938Y-103064275D01*
X148940519Y-103034782D01*
X148958449Y-103033500D01*
X149161000Y-103033500D01*
X149229121Y-103053502D01*
X149275614Y-103107158D01*
X149287000Y-103159500D01*
X149287000Y-103664884D01*
X149291475Y-103680123D01*
X149292865Y-103681328D01*
X149300548Y-103682999D01*
X149415500Y-103682999D01*
X149483621Y-103703001D01*
X149530114Y-103756657D01*
X149541500Y-103808999D01*
X149541500Y-105196120D01*
X149521498Y-105264241D01*
X149467842Y-105310734D01*
X149397568Y-105320838D01*
X149375833Y-105315713D01*
X149341369Y-105304282D01*
X149341367Y-105304282D01*
X149334835Y-105302115D01*
X149231231Y-105291500D01*
X148939766Y-105291500D01*
X148643770Y-105291501D01*
X148538871Y-105302384D01*
X148532340Y-105304563D01*
X148532335Y-105304564D01*
X148438593Y-105335839D01*
X148372474Y-105357898D01*
X148223311Y-105450203D01*
X148099383Y-105574347D01*
X148097386Y-105577587D01*
X148040648Y-105617814D01*
X147969725Y-105621047D01*
X147908313Y-105585422D01*
X147900934Y-105576922D01*
X147894218Y-105568448D01*
X147780521Y-105454949D01*
X147769110Y-105445937D01*
X147632346Y-105361635D01*
X147619168Y-105355491D01*
X147466260Y-105304773D01*
X147452894Y-105301907D01*
X147359399Y-105292328D01*
X147352984Y-105292000D01*
X147334615Y-105292000D01*
X147319376Y-105296475D01*
X147318171Y-105297865D01*
X147316500Y-105305548D01*
X147316500Y-106628000D01*
X147296498Y-106696121D01*
X147242842Y-106742614D01*
X147190500Y-106754000D01*
X146085116Y-106754000D01*
X146069877Y-106758475D01*
X146068672Y-106759865D01*
X146067001Y-106767548D01*
X146067001Y-107002933D01*
X146067338Y-107009452D01*
X146077166Y-107104170D01*
X146080058Y-107117564D01*
X146131036Y-107270365D01*
X146137210Y-107283543D01*
X146221742Y-107420146D01*
X146224269Y-107423334D01*
X146225317Y-107425923D01*
X146225598Y-107426377D01*
X146225520Y-107426425D01*
X146250909Y-107489143D01*
X146237740Y-107558908D01*
X146227473Y-107574916D01*
X146225695Y-107576697D01*
X146221855Y-107582927D01*
X146221854Y-107582928D01*
X146153942Y-107693102D01*
X146132885Y-107727262D01*
X146130581Y-107734209D01*
X146083801Y-107875248D01*
X146077203Y-107895139D01*
X146066500Y-107999600D01*
X146066500Y-108385500D01*
X146046498Y-108453621D01*
X145992842Y-108500114D01*
X145940500Y-108511500D01*
X145498286Y-108511500D01*
X145430165Y-108491498D01*
X145392494Y-108453941D01*
X145382079Y-108437842D01*
X145350014Y-108388277D01*
X145199670Y-108223051D01*
X145195619Y-108219852D01*
X145195615Y-108219848D01*
X145028414Y-108087800D01*
X145028410Y-108087798D01*
X145024359Y-108084598D01*
X144982569Y-108061529D01*
X144932598Y-108011097D01*
X144917826Y-107941654D01*
X144942942Y-107875248D01*
X144970294Y-107848641D01*
X145145328Y-107723792D01*
X145153200Y-107717139D01*
X145304052Y-107566812D01*
X145310730Y-107558965D01*
X145435003Y-107386020D01*
X145440313Y-107377183D01*
X145534670Y-107186267D01*
X145538469Y-107176672D01*
X145600377Y-106972910D01*
X145602555Y-106962837D01*
X145603986Y-106951962D01*
X145601775Y-106937778D01*
X145588617Y-106934000D01*
X142953225Y-106934000D01*
X142939694Y-106937973D01*
X142938257Y-106947966D01*
X142968565Y-107082446D01*
X142971645Y-107092275D01*
X143051770Y-107289603D01*
X143056413Y-107298794D01*
X143167694Y-107480388D01*
X143173777Y-107488699D01*
X143313213Y-107649667D01*
X143320580Y-107656883D01*
X143484434Y-107792916D01*
X143492881Y-107798831D01*
X143561969Y-107839203D01*
X143610693Y-107890842D01*
X143623764Y-107960625D01*
X143597033Y-108026396D01*
X143556584Y-108059752D01*
X143543607Y-108066507D01*
X143539474Y-108069610D01*
X143539471Y-108069612D01*
X143369100Y-108197530D01*
X143364965Y-108200635D01*
X143210629Y-108362138D01*
X143207715Y-108366410D01*
X143207714Y-108366411D01*
X143148005Y-108453941D01*
X143084743Y-108546680D01*
X142990688Y-108749305D01*
X142930989Y-108964570D01*
X142907251Y-109186695D01*
X142907548Y-109191848D01*
X142907548Y-109191851D01*
X142918618Y-109383831D01*
X142920110Y-109409715D01*
X142921247Y-109414761D01*
X142921248Y-109414767D01*
X142944603Y-109518398D01*
X142969222Y-109627639D01*
X143007461Y-109721811D01*
X143049683Y-109825791D01*
X143053266Y-109834616D01*
X143077031Y-109873397D01*
X143167291Y-110020688D01*
X143169987Y-110025088D01*
X143316250Y-110193938D01*
X143392846Y-110257529D01*
X143406128Y-110268556D01*
X143445763Y-110327458D01*
X143447261Y-110398439D01*
X143410147Y-110458962D01*
X143346202Y-110489811D01*
X143325643Y-110491500D01*
X140884500Y-110491500D01*
X140816379Y-110471498D01*
X140769886Y-110417842D01*
X140758500Y-110365500D01*
X140758500Y-95384500D01*
X140778502Y-95316379D01*
X140832158Y-95269886D01*
X140884500Y-95258500D01*
X142849366Y-95258500D01*
X142917487Y-95278502D01*
G37*
%TD.AperFunction*%
%TA.AperFunction,Conductor*%
G36*
X168183621Y-95278502D02*
G01*
X168230114Y-95332158D01*
X168241500Y-95384500D01*
X168241500Y-110365500D01*
X168221498Y-110433621D01*
X168167842Y-110480114D01*
X168115500Y-110491500D01*
X160550577Y-110491500D01*
X160482456Y-110471498D01*
X160435963Y-110417842D01*
X160425859Y-110347568D01*
X160455353Y-110282988D01*
X160471989Y-110267853D01*
X160471702Y-110267513D01*
X160475657Y-110264171D01*
X160479860Y-110261173D01*
X160493447Y-110247634D01*
X160607205Y-110134272D01*
X160638096Y-110103489D01*
X160697594Y-110020689D01*
X160765435Y-109926277D01*
X160768453Y-109922077D01*
X160776167Y-109906470D01*
X160865136Y-109726453D01*
X160865137Y-109726451D01*
X160867430Y-109721811D01*
X160912163Y-109574579D01*
X160930865Y-109513023D01*
X160930865Y-109513021D01*
X160932370Y-109508069D01*
X160961529Y-109286590D01*
X160961838Y-109273946D01*
X160963074Y-109223365D01*
X160963074Y-109223361D01*
X160963156Y-109220000D01*
X160944852Y-108997361D01*
X160890431Y-108780702D01*
X160801354Y-108575840D01*
X160680014Y-108388277D01*
X160529670Y-108223051D01*
X160525619Y-108219852D01*
X160525615Y-108219848D01*
X160358414Y-108087800D01*
X160358410Y-108087798D01*
X160354359Y-108084598D01*
X160312569Y-108061529D01*
X160262598Y-108011097D01*
X160247826Y-107941654D01*
X160272942Y-107875248D01*
X160300294Y-107848641D01*
X160475328Y-107723792D01*
X160483200Y-107717139D01*
X160634052Y-107566812D01*
X160640730Y-107558965D01*
X160765003Y-107386020D01*
X160770313Y-107377183D01*
X160864670Y-107186267D01*
X160868469Y-107176672D01*
X160930377Y-106972910D01*
X160932555Y-106962837D01*
X160933986Y-106951962D01*
X160931775Y-106937778D01*
X160918617Y-106934000D01*
X158283225Y-106934000D01*
X158269694Y-106937973D01*
X158268257Y-106947966D01*
X158298565Y-107082446D01*
X158301645Y-107092275D01*
X158381770Y-107289603D01*
X158386413Y-107298794D01*
X158497694Y-107480388D01*
X158503777Y-107488699D01*
X158643213Y-107649667D01*
X158650580Y-107656883D01*
X158814434Y-107792916D01*
X158822881Y-107798831D01*
X158891969Y-107839203D01*
X158940693Y-107890842D01*
X158953764Y-107960625D01*
X158927033Y-108026396D01*
X158886584Y-108059752D01*
X158873607Y-108066507D01*
X158869474Y-108069610D01*
X158869471Y-108069612D01*
X158699100Y-108197530D01*
X158694965Y-108200635D01*
X158540629Y-108362138D01*
X158537715Y-108366410D01*
X158537714Y-108366411D01*
X158522798Y-108388277D01*
X158478224Y-108453621D01*
X158476257Y-108456504D01*
X158421346Y-108501507D01*
X158372169Y-108511500D01*
X158059500Y-108511500D01*
X157991379Y-108491498D01*
X157944886Y-108437842D01*
X157933500Y-108385500D01*
X157933500Y-107999600D01*
X157927488Y-107941654D01*
X157923238Y-107900692D01*
X157923237Y-107900688D01*
X157922526Y-107893834D01*
X157907449Y-107848641D01*
X157868868Y-107733002D01*
X157866550Y-107726054D01*
X157800118Y-107618701D01*
X157777330Y-107581876D01*
X157777328Y-107581873D01*
X157773478Y-107575652D01*
X157773917Y-107575381D01*
X157749093Y-107514043D01*
X157762266Y-107444280D01*
X157775596Y-107423500D01*
X157779062Y-107419112D01*
X157863365Y-107282346D01*
X157869509Y-107269168D01*
X157920227Y-107116260D01*
X157923093Y-107102894D01*
X157932672Y-107009399D01*
X157933000Y-107002984D01*
X157933000Y-106772115D01*
X157928525Y-106756876D01*
X157927135Y-106755671D01*
X157919452Y-106754000D01*
X156809500Y-106754000D01*
X156741379Y-106733998D01*
X156694886Y-106680342D01*
X156683500Y-106628000D01*
X156683500Y-106227885D01*
X157191500Y-106227885D01*
X157195975Y-106243124D01*
X157197365Y-106244329D01*
X157205048Y-106246000D01*
X157914884Y-106246000D01*
X157930123Y-106241525D01*
X157931328Y-106240135D01*
X157932999Y-106232452D01*
X157932999Y-105997067D01*
X157932662Y-105990548D01*
X157922834Y-105895830D01*
X157919942Y-105882436D01*
X157868964Y-105729635D01*
X157862790Y-105716457D01*
X157778256Y-105579851D01*
X157769220Y-105568450D01*
X157655521Y-105454949D01*
X157644110Y-105445937D01*
X157507346Y-105361635D01*
X157494168Y-105355491D01*
X157341260Y-105304773D01*
X157327894Y-105301907D01*
X157234399Y-105292328D01*
X157227984Y-105292000D01*
X157209615Y-105292000D01*
X157194376Y-105296475D01*
X157193171Y-105297865D01*
X157191500Y-105305548D01*
X157191500Y-106227885D01*
X156683500Y-106227885D01*
X156683500Y-105310116D01*
X156679025Y-105294877D01*
X156677635Y-105293672D01*
X156669952Y-105292001D01*
X156647067Y-105292001D01*
X156640548Y-105292338D01*
X156545830Y-105302166D01*
X156532436Y-105305058D01*
X156379635Y-105356036D01*
X156366457Y-105362210D01*
X156229851Y-105446744D01*
X156218450Y-105455780D01*
X156104949Y-105569479D01*
X156099206Y-105576751D01*
X156041289Y-105617814D01*
X155970366Y-105621046D01*
X155908954Y-105585421D01*
X155903160Y-105578746D01*
X155899797Y-105573311D01*
X155775653Y-105449383D01*
X155626329Y-105357339D01*
X155508161Y-105318144D01*
X155466366Y-105304281D01*
X155466364Y-105304281D01*
X155459835Y-105302115D01*
X155356231Y-105291500D01*
X155064766Y-105291500D01*
X154768770Y-105291501D01*
X154663871Y-105302384D01*
X154657337Y-105304564D01*
X154657332Y-105304565D01*
X154624375Y-105315560D01*
X154553425Y-105318144D01*
X154492342Y-105281959D01*
X154460518Y-105218495D01*
X154458500Y-105196036D01*
X154458500Y-105095660D01*
X154478502Y-105027539D01*
X154495405Y-105006565D01*
X155418520Y-104083450D01*
X155424785Y-104077596D01*
X155462660Y-104044555D01*
X155468385Y-104039561D01*
X155505114Y-103987300D01*
X155509046Y-103982005D01*
X155543791Y-103937694D01*
X155548477Y-103931718D01*
X155551602Y-103924796D01*
X155552964Y-103922548D01*
X155561368Y-103907815D01*
X155562622Y-103905476D01*
X155566990Y-103899261D01*
X155569749Y-103892185D01*
X155569751Y-103892181D01*
X155590200Y-103839731D01*
X155592749Y-103833666D01*
X155619045Y-103775427D01*
X155620042Y-103770051D01*
X155658999Y-103711783D01*
X155726163Y-103683225D01*
X155737300Y-103682015D01*
X155777960Y-103677599D01*
X155777964Y-103677598D01*
X155785816Y-103676745D01*
X155922205Y-103625615D01*
X156038761Y-103538261D01*
X156126115Y-103421705D01*
X156177245Y-103285316D01*
X156184000Y-103223134D01*
X156184000Y-102676866D01*
X156179844Y-102638606D01*
X156179844Y-102611393D01*
X156183631Y-102576533D01*
X156183631Y-102576528D01*
X156184000Y-102573134D01*
X156184000Y-102484500D01*
X156204002Y-102416379D01*
X156257658Y-102369886D01*
X156310000Y-102358500D01*
X156764340Y-102358500D01*
X156832461Y-102378502D01*
X156853435Y-102395405D01*
X158227252Y-103769222D01*
X158261278Y-103831534D01*
X158261914Y-103881235D01*
X158260989Y-103884570D01*
X158237251Y-104106695D01*
X158237548Y-104111848D01*
X158237548Y-104111851D01*
X158247166Y-104278653D01*
X158250110Y-104329715D01*
X158251247Y-104334761D01*
X158251248Y-104334767D01*
X158271119Y-104422939D01*
X158299222Y-104547639D01*
X158383266Y-104754616D01*
X158499987Y-104945088D01*
X158646250Y-105113938D01*
X158818126Y-105256632D01*
X158861468Y-105281959D01*
X158891955Y-105299774D01*
X158940679Y-105351412D01*
X158953750Y-105421195D01*
X158927019Y-105486967D01*
X158886562Y-105520327D01*
X158878457Y-105524546D01*
X158869738Y-105530036D01*
X158699433Y-105657905D01*
X158691726Y-105664748D01*
X158544590Y-105818717D01*
X158538104Y-105826727D01*
X158418098Y-106002649D01*
X158413000Y-106011623D01*
X158323338Y-106204783D01*
X158319775Y-106214470D01*
X158264389Y-106414183D01*
X158265912Y-106422607D01*
X158278292Y-106426000D01*
X160918344Y-106426000D01*
X160931875Y-106422027D01*
X160933180Y-106412947D01*
X160891214Y-106245875D01*
X160887894Y-106236124D01*
X160802972Y-106040814D01*
X160798105Y-106031739D01*
X160682426Y-105852926D01*
X160676136Y-105844757D01*
X160532806Y-105687240D01*
X160525273Y-105680215D01*
X160358139Y-105548222D01*
X160349556Y-105542520D01*
X160312602Y-105522120D01*
X160262631Y-105471687D01*
X160247859Y-105402245D01*
X160272975Y-105335839D01*
X160300327Y-105309232D01*
X160363402Y-105264241D01*
X160479860Y-105181173D01*
X160638096Y-105023489D01*
X160697594Y-104940689D01*
X160765435Y-104846277D01*
X160768453Y-104842077D01*
X160867430Y-104641811D01*
X160932370Y-104428069D01*
X160961529Y-104206590D01*
X160963156Y-104140000D01*
X160944852Y-103917361D01*
X160890431Y-103700702D01*
X160801354Y-103495840D01*
X160680014Y-103308277D01*
X160529670Y-103143051D01*
X160525619Y-103139852D01*
X160525615Y-103139848D01*
X160358414Y-103007800D01*
X160358410Y-103007798D01*
X160354359Y-103004598D01*
X160313053Y-102981796D01*
X160263084Y-102931364D01*
X160248312Y-102861921D01*
X160273428Y-102795516D01*
X160300780Y-102768909D01*
X160366370Y-102722124D01*
X160479860Y-102641173D01*
X160638096Y-102483489D01*
X160697594Y-102400689D01*
X160765435Y-102306277D01*
X160768453Y-102302077D01*
X160867430Y-102101811D01*
X160920684Y-101926533D01*
X160930865Y-101893023D01*
X160930865Y-101893021D01*
X160932370Y-101888069D01*
X160961529Y-101666590D01*
X160963156Y-101600000D01*
X160944852Y-101377361D01*
X160890431Y-101160702D01*
X160801354Y-100955840D01*
X160680014Y-100768277D01*
X160529670Y-100603051D01*
X160525619Y-100599852D01*
X160525615Y-100599848D01*
X160358414Y-100467800D01*
X160358410Y-100467798D01*
X160354359Y-100464598D01*
X160313053Y-100441796D01*
X160263084Y-100391364D01*
X160248312Y-100321921D01*
X160273428Y-100255516D01*
X160300780Y-100228909D01*
X160360308Y-100186448D01*
X160479860Y-100101173D01*
X160638096Y-99943489D01*
X160697594Y-99860689D01*
X160765435Y-99766277D01*
X160768453Y-99762077D01*
X160828046Y-99641500D01*
X160865136Y-99566453D01*
X160865137Y-99566451D01*
X160867430Y-99561811D01*
X160908570Y-99426404D01*
X160930865Y-99353023D01*
X160930865Y-99353021D01*
X160932370Y-99348069D01*
X160961529Y-99126590D01*
X160962673Y-99079758D01*
X160963074Y-99063365D01*
X160963074Y-99063361D01*
X160963156Y-99060000D01*
X160944852Y-98837361D01*
X160890431Y-98620702D01*
X160801354Y-98415840D01*
X160750862Y-98337791D01*
X160682822Y-98232617D01*
X160682820Y-98232614D01*
X160680014Y-98228277D01*
X160676536Y-98224454D01*
X160676530Y-98224447D01*
X160532798Y-98066488D01*
X160501746Y-98002642D01*
X160510141Y-97932143D01*
X160555317Y-97877375D01*
X160581761Y-97863706D01*
X160688297Y-97823767D01*
X160696705Y-97820615D01*
X160813261Y-97733261D01*
X160900615Y-97616705D01*
X160951745Y-97480316D01*
X160958500Y-97418134D01*
X160958500Y-95621866D01*
X160951745Y-95559684D01*
X160902652Y-95428728D01*
X160897469Y-95357923D01*
X160931390Y-95295554D01*
X160993645Y-95261424D01*
X161020634Y-95258500D01*
X168115500Y-95258500D01*
X168183621Y-95278502D01*
G37*
%TD.AperFunction*%
%TA.AperFunction,Conductor*%
G36*
X158247487Y-95278502D02*
G01*
X158293980Y-95332158D01*
X158304084Y-95402432D01*
X158297349Y-95428726D01*
X158248255Y-95559684D01*
X158241500Y-95621866D01*
X158241500Y-96479840D01*
X158221498Y-96547961D01*
X158204595Y-96568935D01*
X156258489Y-98515041D01*
X156196177Y-98549067D01*
X156125362Y-98544002D01*
X156068569Y-98501511D01*
X156038761Y-98461739D01*
X155922205Y-98374385D01*
X155785816Y-98323255D01*
X155777964Y-98322402D01*
X155777960Y-98322401D01*
X155770894Y-98321634D01*
X155705332Y-98294393D01*
X155664905Y-98236031D01*
X155658500Y-98196371D01*
X155658500Y-98141480D01*
X155678502Y-98073359D01*
X155695327Y-98052462D01*
X155695624Y-98052165D01*
X155799305Y-97948303D01*
X155829113Y-97899946D01*
X155888275Y-97803968D01*
X155888276Y-97803966D01*
X155892115Y-97797738D01*
X155947797Y-97629861D01*
X155950007Y-97608297D01*
X155958172Y-97528598D01*
X155958500Y-97525400D01*
X155958500Y-96474600D01*
X155958163Y-96471350D01*
X155948238Y-96375692D01*
X155948237Y-96375688D01*
X155947526Y-96368834D01*
X155891550Y-96201054D01*
X155798478Y-96050652D01*
X155673303Y-95925695D01*
X155667072Y-95921854D01*
X155528968Y-95836725D01*
X155528966Y-95836724D01*
X155522738Y-95832885D01*
X155442995Y-95806436D01*
X155361389Y-95779368D01*
X155361387Y-95779368D01*
X155354861Y-95777203D01*
X155348025Y-95776503D01*
X155348022Y-95776502D01*
X155304969Y-95772091D01*
X155250400Y-95766500D01*
X154649600Y-95766500D01*
X154646354Y-95766837D01*
X154646350Y-95766837D01*
X154550692Y-95776762D01*
X154550688Y-95776763D01*
X154543834Y-95777474D01*
X154537298Y-95779655D01*
X154537296Y-95779655D01*
X154520928Y-95785116D01*
X154376054Y-95833450D01*
X154225652Y-95926522D01*
X154100695Y-96051697D01*
X154097898Y-96056235D01*
X154040647Y-96096824D01*
X153969724Y-96100054D01*
X153908313Y-96064428D01*
X153900938Y-96055932D01*
X153892902Y-96045793D01*
X153778171Y-95931261D01*
X153766760Y-95922249D01*
X153628757Y-95837184D01*
X153615576Y-95831037D01*
X153461290Y-95779862D01*
X153447914Y-95776995D01*
X153353562Y-95767328D01*
X153347145Y-95767000D01*
X153322115Y-95767000D01*
X153306876Y-95771475D01*
X153305671Y-95772865D01*
X153304000Y-95780548D01*
X153304000Y-98214884D01*
X153308475Y-98230123D01*
X153309865Y-98231328D01*
X153317548Y-98232999D01*
X153347107Y-98232999D01*
X153350047Y-98232847D01*
X153419110Y-98249306D01*
X153468310Y-98300489D01*
X153482029Y-98370148D01*
X153455909Y-98436165D01*
X153433262Y-98458637D01*
X153412459Y-98474600D01*
X153407146Y-98478459D01*
X153360758Y-98510339D01*
X153360753Y-98510344D01*
X153354497Y-98514643D01*
X153349446Y-98520313D01*
X153349444Y-98520314D01*
X153313043Y-98561170D01*
X153308062Y-98566446D01*
X151519480Y-100355028D01*
X151513215Y-100360882D01*
X151469615Y-100398917D01*
X151465248Y-100405131D01*
X151432872Y-100451197D01*
X151428939Y-100456492D01*
X151389524Y-100506760D01*
X151386401Y-100513676D01*
X151385017Y-100515962D01*
X151376643Y-100530643D01*
X151375378Y-100533003D01*
X151371010Y-100539217D01*
X151368250Y-100546296D01*
X151368249Y-100546298D01*
X151347798Y-100598753D01*
X151345247Y-100604822D01*
X151318955Y-100663051D01*
X151317571Y-100670518D01*
X151316770Y-100673073D01*
X151312141Y-100689326D01*
X151311478Y-100691906D01*
X151308718Y-100698987D01*
X151307727Y-100706518D01*
X151307726Y-100706520D01*
X151300379Y-100762330D01*
X151299348Y-100768837D01*
X151287704Y-100831664D01*
X151288141Y-100839244D01*
X151288141Y-100839245D01*
X151291291Y-100893870D01*
X151291500Y-100901124D01*
X151291500Y-104240500D01*
X151271498Y-104308621D01*
X151217842Y-104355114D01*
X151165500Y-104366500D01*
X151101866Y-104366500D01*
X151098471Y-104366869D01*
X151098467Y-104366869D01*
X151098100Y-104366909D01*
X151098014Y-104366894D01*
X151095072Y-104367053D01*
X151095034Y-104366359D01*
X151028218Y-104354376D01*
X150976205Y-104306052D01*
X150958500Y-104241645D01*
X150958500Y-99278912D01*
X150958792Y-99270342D01*
X150962209Y-99220224D01*
X150962209Y-99220220D01*
X150962725Y-99212648D01*
X150951739Y-99149703D01*
X150950777Y-99143182D01*
X150944015Y-99087304D01*
X150943102Y-99079758D01*
X150940416Y-99072650D01*
X150939779Y-99070056D01*
X150935318Y-99053750D01*
X150934548Y-99051199D01*
X150933242Y-99043716D01*
X150928034Y-99031851D01*
X150907561Y-98985212D01*
X150905069Y-98979105D01*
X150885173Y-98926452D01*
X150885173Y-98926451D01*
X150882487Y-98919344D01*
X150878184Y-98913083D01*
X150876947Y-98910717D01*
X150868720Y-98895937D01*
X150867369Y-98893652D01*
X150864315Y-98886695D01*
X150859695Y-98880675D01*
X150859692Y-98880669D01*
X150830419Y-98842522D01*
X150825413Y-98835998D01*
X150821541Y-98830668D01*
X150789661Y-98784280D01*
X150789656Y-98784275D01*
X150785357Y-98778019D01*
X150738829Y-98736564D01*
X150733554Y-98731584D01*
X150521450Y-98519480D01*
X150515596Y-98513215D01*
X150485276Y-98478459D01*
X150477561Y-98469615D01*
X150471348Y-98465249D01*
X150471342Y-98465243D01*
X150446637Y-98447880D01*
X150402405Y-98392346D01*
X150395220Y-98321714D01*
X150427362Y-98258409D01*
X150488626Y-98222532D01*
X150545503Y-98221594D01*
X150552085Y-98223005D01*
X150646438Y-98232672D01*
X150652854Y-98233000D01*
X150677885Y-98233000D01*
X150693124Y-98228525D01*
X150694329Y-98227135D01*
X150696000Y-98219452D01*
X150696000Y-98214884D01*
X151204000Y-98214884D01*
X151208475Y-98230123D01*
X151209865Y-98231328D01*
X151217548Y-98232999D01*
X151247095Y-98232999D01*
X151253614Y-98232662D01*
X151349206Y-98222743D01*
X151362600Y-98219851D01*
X151516784Y-98168412D01*
X151529962Y-98162239D01*
X151667807Y-98076937D01*
X151679208Y-98067901D01*
X151793739Y-97953171D01*
X151802751Y-97941760D01*
X151891658Y-97797525D01*
X151893877Y-97798893D01*
X151932732Y-97754763D01*
X152001009Y-97735301D01*
X152068970Y-97755842D01*
X152107146Y-97799821D01*
X152108906Y-97798732D01*
X152198063Y-97942807D01*
X152207099Y-97954208D01*
X152321829Y-98068739D01*
X152333240Y-98077751D01*
X152471243Y-98162816D01*
X152484424Y-98168963D01*
X152638710Y-98220138D01*
X152652086Y-98223005D01*
X152746438Y-98232672D01*
X152752854Y-98233000D01*
X152777885Y-98233000D01*
X152793124Y-98228525D01*
X152794329Y-98227135D01*
X152796000Y-98219452D01*
X152796000Y-95785116D01*
X152791525Y-95769877D01*
X152790135Y-95768672D01*
X152782452Y-95767001D01*
X152752905Y-95767001D01*
X152746386Y-95767338D01*
X152650794Y-95777257D01*
X152637400Y-95780149D01*
X152483216Y-95831588D01*
X152470038Y-95837761D01*
X152332193Y-95923063D01*
X152320792Y-95932099D01*
X152206261Y-96046829D01*
X152197249Y-96058240D01*
X152108342Y-96202475D01*
X152106123Y-96201107D01*
X152067268Y-96245237D01*
X151998991Y-96264699D01*
X151931030Y-96244158D01*
X151892854Y-96200179D01*
X151891094Y-96201268D01*
X151801937Y-96057193D01*
X151792901Y-96045792D01*
X151678171Y-95931261D01*
X151666760Y-95922249D01*
X151528757Y-95837184D01*
X151515576Y-95831037D01*
X151361290Y-95779862D01*
X151347914Y-95776995D01*
X151253562Y-95767328D01*
X151247145Y-95767000D01*
X151222115Y-95767000D01*
X151206876Y-95771475D01*
X151205671Y-95772865D01*
X151204000Y-95780548D01*
X151204000Y-98214884D01*
X150696000Y-98214884D01*
X150696000Y-95785116D01*
X150691525Y-95769877D01*
X150690135Y-95768672D01*
X150682452Y-95767001D01*
X150652905Y-95767001D01*
X150646386Y-95767338D01*
X150550794Y-95777257D01*
X150537400Y-95780149D01*
X150383216Y-95831588D01*
X150370038Y-95837761D01*
X150232193Y-95923063D01*
X150220792Y-95932099D01*
X150106262Y-96046828D01*
X150099206Y-96055762D01*
X150041288Y-96096823D01*
X149970365Y-96100053D01*
X149908954Y-96064426D01*
X149902154Y-96056593D01*
X149898478Y-96050652D01*
X149773303Y-95925695D01*
X149767072Y-95921854D01*
X149628968Y-95836725D01*
X149628966Y-95836724D01*
X149622738Y-95832885D01*
X149542995Y-95806436D01*
X149461389Y-95779368D01*
X149461387Y-95779368D01*
X149454861Y-95777203D01*
X149448025Y-95776503D01*
X149448022Y-95776502D01*
X149404969Y-95772091D01*
X149350400Y-95766500D01*
X148749600Y-95766500D01*
X148746354Y-95766837D01*
X148746350Y-95766837D01*
X148650692Y-95776762D01*
X148650688Y-95776763D01*
X148643834Y-95777474D01*
X148637298Y-95779655D01*
X148637296Y-95779655D01*
X148620928Y-95785116D01*
X148476054Y-95833450D01*
X148325652Y-95926522D01*
X148200695Y-96051697D01*
X148107885Y-96202262D01*
X148052203Y-96370139D01*
X148041500Y-96474600D01*
X148041500Y-97525400D01*
X148041837Y-97528646D01*
X148041837Y-97528650D01*
X148050974Y-97616705D01*
X148052474Y-97631166D01*
X148108450Y-97798946D01*
X148201522Y-97949348D01*
X148206704Y-97954521D01*
X148304518Y-98052165D01*
X148338597Y-98114448D01*
X148341500Y-98141338D01*
X148341500Y-98196371D01*
X148321498Y-98264492D01*
X148267842Y-98310985D01*
X148229106Y-98321634D01*
X148222040Y-98322401D01*
X148222036Y-98322402D01*
X148214184Y-98323255D01*
X148077795Y-98374385D01*
X147961239Y-98461739D01*
X147931431Y-98501511D01*
X147874574Y-98544026D01*
X147803755Y-98549052D01*
X147741511Y-98515041D01*
X145665405Y-96438935D01*
X145631379Y-96376623D01*
X145628500Y-96349840D01*
X145628500Y-95621866D01*
X145621745Y-95559684D01*
X145572652Y-95428728D01*
X145567469Y-95357923D01*
X145601390Y-95295554D01*
X145663645Y-95261424D01*
X145690634Y-95258500D01*
X158179366Y-95258500D01*
X158247487Y-95278502D01*
G37*
%TD.AperFunction*%
%TD*%
M02*
