%FSLAX45Y45*%
G04 Gerber Fmt 4.5, Leading zero omitted, Abs format (unit mm)*
G04 Created by KiCad (PCBNEW (6.0.5)) date 2022-06-04 23:49:28*
%MOMM*%
%LPD*%
G01*
G04 APERTURE LIST*
%TA.AperFunction,Profile*%
%ADD10C,0.100000*%
%TD*%
%ADD11C,0.200000*%
G04 APERTURE END LIST*
D10*
X7366000Y-9271000D02*
X12770546Y-9271000D01*
X12770546Y-9271000D02*
X12770546Y-11560690D01*
X12770546Y-11560690D02*
X7366000Y-11560690D01*
X7366000Y-11560690D02*
X7366000Y-9271000D01*
D11*
X7618619Y-11876166D02*
X7618619Y-11676166D01*
X7666238Y-11676166D01*
X7694809Y-11685690D01*
X7713857Y-11704738D01*
X7723381Y-11723785D01*
X7732905Y-11761881D01*
X7732905Y-11790452D01*
X7723381Y-11828547D01*
X7713857Y-11847595D01*
X7694809Y-11866643D01*
X7666238Y-11876166D01*
X7618619Y-11876166D01*
X7818619Y-11876166D02*
X7818619Y-11742833D01*
X7818619Y-11780928D02*
X7828143Y-11761881D01*
X7837667Y-11752357D01*
X7856714Y-11742833D01*
X7875762Y-11742833D01*
X7942428Y-11876166D02*
X7942428Y-11742833D01*
X7942428Y-11676166D02*
X7932905Y-11685690D01*
X7942428Y-11695214D01*
X7951952Y-11685690D01*
X7942428Y-11676166D01*
X7942428Y-11695214D01*
X8066238Y-11876166D02*
X8047190Y-11866643D01*
X8037667Y-11847595D01*
X8037667Y-11676166D01*
X8171000Y-11876166D02*
X8151952Y-11866643D01*
X8142428Y-11847595D01*
X8142428Y-11676166D01*
X8399571Y-11876166D02*
X8399571Y-11676166D01*
X8466238Y-11819024D01*
X8532905Y-11676166D01*
X8532905Y-11876166D01*
X8713857Y-11876166D02*
X8713857Y-11771404D01*
X8704333Y-11752357D01*
X8685286Y-11742833D01*
X8647190Y-11742833D01*
X8628143Y-11752357D01*
X8713857Y-11866643D02*
X8694810Y-11876166D01*
X8647190Y-11876166D01*
X8628143Y-11866643D01*
X8618619Y-11847595D01*
X8618619Y-11828547D01*
X8628143Y-11809500D01*
X8647190Y-11799976D01*
X8694810Y-11799976D01*
X8713857Y-11790452D01*
X8809095Y-11742833D02*
X8809095Y-11942833D01*
X8809095Y-11752357D02*
X8828143Y-11742833D01*
X8866238Y-11742833D01*
X8885286Y-11752357D01*
X8894810Y-11761881D01*
X8904333Y-11780928D01*
X8904333Y-11838071D01*
X8894810Y-11857119D01*
X8885286Y-11866643D01*
X8866238Y-11876166D01*
X8828143Y-11876166D01*
X8809095Y-11866643D01*
X8990048Y-11857119D02*
X8999571Y-11866643D01*
X8990048Y-11876166D01*
X8980524Y-11866643D01*
X8990048Y-11857119D01*
X8990048Y-11876166D01*
X8990048Y-11752357D02*
X8999571Y-11761881D01*
X8990048Y-11771404D01*
X8980524Y-11761881D01*
X8990048Y-11752357D01*
X8990048Y-11771404D01*
M02*
