%FSLAX45Y45*%
G04 Gerber Fmt 4.5, Leading zero omitted, Abs format (unit mm)*
G04 Created by KiCad (PCBNEW (6.0.5)) date 2022-06-04 23:49:28*
%MOMM*%
%LPD*%
G01*
G04 APERTURE LIST*
%TA.AperFunction,Profile*%
%ADD10C,0.100000*%
%TD*%
%ADD11C,0.200000*%
%ADD12C,0.040000*%
%ADD13C,0.101600*%
%ADD14C,0.192000*%
%ADD15C,0.266000*%
G04 APERTURE END LIST*
D10*
X7366000Y-9271000D02*
X12770546Y-9271000D01*
X12770546Y-9271000D02*
X12770546Y-11560690D01*
X12770546Y-11560690D02*
X7366000Y-11560690D01*
X7366000Y-11560690D02*
X7366000Y-9271000D01*
D11*
D12*
X8214680Y-10058720D02*
X8254680Y-10098720D01*
X8254680Y-10058720D02*
X8214680Y-10098720D01*
X9108760Y-9804720D02*
X9148760Y-9844720D01*
X9148760Y-9804720D02*
X9108760Y-9844720D01*
X9515160Y-9505000D02*
X9555160Y-9545000D01*
X9555160Y-9505000D02*
X9515160Y-9545000D01*
X9520240Y-9759000D02*
X9560240Y-9799000D01*
X9560240Y-9759000D02*
X9520240Y-9799000D01*
X9530400Y-10018080D02*
X9570400Y-10058080D01*
X9570400Y-10018080D02*
X9530400Y-10058080D01*
X9530400Y-10267000D02*
X9570400Y-10307000D01*
X9570400Y-10267000D02*
X9530400Y-10307000D01*
X9530400Y-10521000D02*
X9570400Y-10561000D01*
X9570400Y-10521000D02*
X9530400Y-10561000D01*
X9530400Y-10775000D02*
X9570400Y-10815000D01*
X9570400Y-10775000D02*
X9530400Y-10815000D01*
X9530400Y-11029000D02*
X9570400Y-11069000D01*
X9570400Y-11029000D02*
X9530400Y-11069000D01*
X9530400Y-11283000D02*
X9570400Y-11323000D01*
X9570400Y-11283000D02*
X9530400Y-11323000D01*
X10023160Y-11283000D02*
X10063160Y-11323000D01*
X10063160Y-11283000D02*
X10023160Y-11323000D01*
X10028240Y-11029000D02*
X10068240Y-11069000D01*
X10068240Y-11029000D02*
X10028240Y-11069000D01*
X10312720Y-10744520D02*
X10352720Y-10784520D01*
X10352720Y-10744520D02*
X10312720Y-10784520D01*
X10500680Y-10114600D02*
X10540680Y-10154600D01*
X10540680Y-10114600D02*
X10500680Y-10154600D01*
X10505469Y-10233890D02*
X10545469Y-10273890D01*
X10545469Y-10233890D02*
X10505469Y-10273890D01*
X10712533Y-10166907D02*
X10752533Y-10206907D01*
X10752533Y-10166907D02*
X10712533Y-10206907D01*
X10714040Y-10460040D02*
X10754040Y-10500040D01*
X10754040Y-10460040D02*
X10714040Y-10500040D01*
X10754680Y-10581960D02*
X10794680Y-10621960D01*
X10794680Y-10581960D02*
X10754680Y-10621960D01*
X10856280Y-9672640D02*
X10896280Y-9712640D01*
X10896280Y-9672640D02*
X10856280Y-9712640D01*
X11135680Y-10607360D02*
X11175680Y-10647360D01*
X11175680Y-10607360D02*
X11135680Y-10647360D01*
X11216960Y-10518902D02*
X11256960Y-10558902D01*
X11256960Y-10518902D02*
X11216960Y-10558902D01*
X11237280Y-10876600D02*
X11277280Y-10916600D01*
X11277280Y-10876600D02*
X11237280Y-10916600D01*
D13*
X7797800Y-9779000D02*
G75*
G03*
X7797800Y-9779000I-50800J0D01*
G01*
X7797800Y-10033000D02*
G75*
G03*
X7797800Y-10033000I-50800J0D01*
G01*
X7797800Y-10287000D02*
G75*
G03*
X7797800Y-10287000I-50800J0D01*
G01*
X7797800Y-10541000D02*
G75*
G03*
X7797800Y-10541000I-50800J0D01*
G01*
X7797800Y-10795000D02*
G75*
G03*
X7797800Y-10795000I-50800J0D01*
G01*
X7797800Y-11049000D02*
G75*
G03*
X7797800Y-11049000I-50800J0D01*
G01*
X8051800Y-9779000D02*
G75*
G03*
X8051800Y-9779000I-50800J0D01*
G01*
X8051800Y-10033000D02*
G75*
G03*
X8051800Y-10033000I-50800J0D01*
G01*
X8051800Y-10287000D02*
G75*
G03*
X8051800Y-10287000I-50800J0D01*
G01*
X8051800Y-10541000D02*
G75*
G03*
X8051800Y-10541000I-50800J0D01*
G01*
X8051800Y-10795000D02*
G75*
G03*
X8051800Y-10795000I-50800J0D01*
G01*
X8051800Y-11049000D02*
G75*
G03*
X8051800Y-11049000I-50800J0D01*
G01*
D14*
X12212000Y-9593000D02*
X12212000Y-9785000D01*
X12116000Y-9689000D02*
X12308000Y-9689000D01*
X12212000Y-11043000D02*
X12212000Y-11235000D01*
X12116000Y-11139000D02*
X12308000Y-11139000D01*
D15*
X11710046Y-9783046D02*
X11710046Y-9594954D01*
X11521954Y-9594954D01*
X11521954Y-9783046D01*
X11710046Y-9783046D01*
X11710046Y-11233046D02*
X11710046Y-11044954D01*
X11521954Y-11044954D01*
X11521954Y-11233046D01*
X11710046Y-11233046D01*
D11*
X7618619Y-11876166D02*
X7618619Y-11676166D01*
X7666238Y-11676166D01*
X7694809Y-11685690D01*
X7713857Y-11704738D01*
X7723381Y-11723785D01*
X7732905Y-11761881D01*
X7732905Y-11790452D01*
X7723381Y-11828547D01*
X7713857Y-11847595D01*
X7694809Y-11866643D01*
X7666238Y-11876166D01*
X7618619Y-11876166D01*
X7818619Y-11876166D02*
X7818619Y-11742833D01*
X7818619Y-11780928D02*
X7828143Y-11761881D01*
X7837667Y-11752357D01*
X7856714Y-11742833D01*
X7875762Y-11742833D01*
X7942428Y-11876166D02*
X7942428Y-11742833D01*
X7942428Y-11676166D02*
X7932905Y-11685690D01*
X7942428Y-11695214D01*
X7951952Y-11685690D01*
X7942428Y-11676166D01*
X7942428Y-11695214D01*
X8066238Y-11876166D02*
X8047190Y-11866643D01*
X8037667Y-11847595D01*
X8037667Y-11676166D01*
X8171000Y-11876166D02*
X8151952Y-11866643D01*
X8142428Y-11847595D01*
X8142428Y-11676166D01*
X8399571Y-11876166D02*
X8399571Y-11676166D01*
X8466238Y-11819024D01*
X8532905Y-11676166D01*
X8532905Y-11876166D01*
X8713857Y-11876166D02*
X8713857Y-11771404D01*
X8704333Y-11752357D01*
X8685286Y-11742833D01*
X8647190Y-11742833D01*
X8628143Y-11752357D01*
X8713857Y-11866643D02*
X8694810Y-11876166D01*
X8647190Y-11876166D01*
X8628143Y-11866643D01*
X8618619Y-11847595D01*
X8618619Y-11828547D01*
X8628143Y-11809500D01*
X8647190Y-11799976D01*
X8694810Y-11799976D01*
X8713857Y-11790452D01*
X8809095Y-11742833D02*
X8809095Y-11942833D01*
X8809095Y-11752357D02*
X8828143Y-11742833D01*
X8866238Y-11742833D01*
X8885286Y-11752357D01*
X8894810Y-11761881D01*
X8904333Y-11780928D01*
X8904333Y-11838071D01*
X8894810Y-11857119D01*
X8885286Y-11866643D01*
X8866238Y-11876166D01*
X8828143Y-11876166D01*
X8809095Y-11866643D01*
X8990048Y-11857119D02*
X8999571Y-11866643D01*
X8990048Y-11876166D01*
X8980524Y-11866643D01*
X8990048Y-11857119D01*
X8990048Y-11876166D01*
X8990048Y-11752357D02*
X8999571Y-11761881D01*
X8990048Y-11771404D01*
X8980524Y-11761881D01*
X8990048Y-11752357D01*
X8990048Y-11771404D01*
D12*
X7321000Y-12185690D02*
X7361000Y-12225690D01*
X7361000Y-12185690D02*
X7321000Y-12225690D01*
D11*
X7656714Y-12096166D02*
X7675762Y-12096166D01*
X7694809Y-12105690D01*
X7704333Y-12115214D01*
X7713857Y-12134262D01*
X7723381Y-12172357D01*
X7723381Y-12219976D01*
X7713857Y-12258071D01*
X7704333Y-12277119D01*
X7694809Y-12286643D01*
X7675762Y-12296166D01*
X7656714Y-12296166D01*
X7637667Y-12286643D01*
X7628143Y-12277119D01*
X7618619Y-12258071D01*
X7609095Y-12219976D01*
X7609095Y-12172357D01*
X7618619Y-12134262D01*
X7628143Y-12115214D01*
X7637667Y-12105690D01*
X7656714Y-12096166D01*
X7809095Y-12277119D02*
X7818619Y-12286643D01*
X7809095Y-12296166D01*
X7799571Y-12286643D01*
X7809095Y-12277119D01*
X7809095Y-12296166D01*
X7990048Y-12162833D02*
X7990048Y-12296166D01*
X7942428Y-12086643D02*
X7894809Y-12229500D01*
X8018619Y-12229500D01*
X8132905Y-12096166D02*
X8151952Y-12096166D01*
X8171000Y-12105690D01*
X8180524Y-12115214D01*
X8190048Y-12134262D01*
X8199571Y-12172357D01*
X8199571Y-12219976D01*
X8190048Y-12258071D01*
X8180524Y-12277119D01*
X8171000Y-12286643D01*
X8151952Y-12296166D01*
X8132905Y-12296166D01*
X8113857Y-12286643D01*
X8104333Y-12277119D01*
X8094809Y-12258071D01*
X8085286Y-12219976D01*
X8085286Y-12172357D01*
X8094809Y-12134262D01*
X8104333Y-12115214D01*
X8113857Y-12105690D01*
X8132905Y-12096166D01*
X8323381Y-12096166D02*
X8342428Y-12096166D01*
X8361476Y-12105690D01*
X8371000Y-12115214D01*
X8380524Y-12134262D01*
X8390048Y-12172357D01*
X8390048Y-12219976D01*
X8380524Y-12258071D01*
X8371000Y-12277119D01*
X8361476Y-12286643D01*
X8342428Y-12296166D01*
X8323381Y-12296166D01*
X8304333Y-12286643D01*
X8294809Y-12277119D01*
X8285286Y-12258071D01*
X8275762Y-12219976D01*
X8275762Y-12172357D01*
X8285286Y-12134262D01*
X8294809Y-12115214D01*
X8304333Y-12105690D01*
X8323381Y-12096166D01*
X8475762Y-12296166D02*
X8475762Y-12162833D01*
X8475762Y-12181881D02*
X8485286Y-12172357D01*
X8504333Y-12162833D01*
X8532905Y-12162833D01*
X8551952Y-12172357D01*
X8561476Y-12191404D01*
X8561476Y-12296166D01*
X8561476Y-12191404D02*
X8571000Y-12172357D01*
X8590048Y-12162833D01*
X8618619Y-12162833D01*
X8637667Y-12172357D01*
X8647190Y-12191404D01*
X8647190Y-12296166D01*
X8742429Y-12296166D02*
X8742429Y-12162833D01*
X8742429Y-12181881D02*
X8751952Y-12172357D01*
X8771000Y-12162833D01*
X8799571Y-12162833D01*
X8818619Y-12172357D01*
X8828143Y-12191404D01*
X8828143Y-12296166D01*
X8828143Y-12191404D02*
X8837667Y-12172357D01*
X8856714Y-12162833D01*
X8885286Y-12162833D01*
X8904333Y-12172357D01*
X8913857Y-12191404D01*
X8913857Y-12296166D01*
X9304333Y-12086643D02*
X9132905Y-12343785D01*
X9561476Y-12096166D02*
X9580524Y-12096166D01*
X9599571Y-12105690D01*
X9609095Y-12115214D01*
X9618619Y-12134262D01*
X9628143Y-12172357D01*
X9628143Y-12219976D01*
X9618619Y-12258071D01*
X9609095Y-12277119D01*
X9599571Y-12286643D01*
X9580524Y-12296166D01*
X9561476Y-12296166D01*
X9542429Y-12286643D01*
X9532905Y-12277119D01*
X9523381Y-12258071D01*
X9513857Y-12219976D01*
X9513857Y-12172357D01*
X9523381Y-12134262D01*
X9532905Y-12115214D01*
X9542429Y-12105690D01*
X9561476Y-12096166D01*
X9713857Y-12277119D02*
X9723381Y-12286643D01*
X9713857Y-12296166D01*
X9704333Y-12286643D01*
X9713857Y-12277119D01*
X9713857Y-12296166D01*
X9847190Y-12096166D02*
X9866238Y-12096166D01*
X9885286Y-12105690D01*
X9894810Y-12115214D01*
X9904333Y-12134262D01*
X9913857Y-12172357D01*
X9913857Y-12219976D01*
X9904333Y-12258071D01*
X9894810Y-12277119D01*
X9885286Y-12286643D01*
X9866238Y-12296166D01*
X9847190Y-12296166D01*
X9828143Y-12286643D01*
X9818619Y-12277119D01*
X9809095Y-12258071D01*
X9799571Y-12219976D01*
X9799571Y-12172357D01*
X9809095Y-12134262D01*
X9818619Y-12115214D01*
X9828143Y-12105690D01*
X9847190Y-12096166D01*
X10104333Y-12296166D02*
X9990048Y-12296166D01*
X10047190Y-12296166D02*
X10047190Y-12096166D01*
X10028143Y-12124738D01*
X10009095Y-12143785D01*
X9990048Y-12153309D01*
X10285286Y-12096166D02*
X10190048Y-12096166D01*
X10180524Y-12191404D01*
X10190048Y-12181881D01*
X10209095Y-12172357D01*
X10256714Y-12172357D01*
X10275762Y-12181881D01*
X10285286Y-12191404D01*
X10294810Y-12210452D01*
X10294810Y-12258071D01*
X10285286Y-12277119D01*
X10275762Y-12286643D01*
X10256714Y-12296166D01*
X10209095Y-12296166D01*
X10190048Y-12286643D01*
X10180524Y-12277119D01*
X10361476Y-12096166D02*
X10494810Y-12096166D01*
X10409095Y-12296166D01*
X10561476Y-12096166D02*
X10561476Y-12134262D01*
X10637667Y-12096166D02*
X10637667Y-12134262D01*
X10932905Y-12372357D02*
X10923381Y-12362833D01*
X10904333Y-12334262D01*
X10894810Y-12315214D01*
X10885286Y-12286643D01*
X10875762Y-12239024D01*
X10875762Y-12200928D01*
X10885286Y-12153309D01*
X10894810Y-12124738D01*
X10904333Y-12105690D01*
X10923381Y-12077119D01*
X10932905Y-12067595D01*
X10999571Y-12115214D02*
X11009095Y-12105690D01*
X11028143Y-12096166D01*
X11075762Y-12096166D01*
X11094810Y-12105690D01*
X11104333Y-12115214D01*
X11113857Y-12134262D01*
X11113857Y-12153309D01*
X11104333Y-12181881D01*
X10990048Y-12296166D01*
X11113857Y-12296166D01*
X11190048Y-12115214D02*
X11199571Y-12105690D01*
X11218619Y-12096166D01*
X11266238Y-12096166D01*
X11285286Y-12105690D01*
X11294809Y-12115214D01*
X11304333Y-12134262D01*
X11304333Y-12153309D01*
X11294809Y-12181881D01*
X11180524Y-12296166D01*
X11304333Y-12296166D01*
X11542428Y-12296166D02*
X11542428Y-12096166D01*
X11628143Y-12296166D02*
X11628143Y-12191404D01*
X11618619Y-12172357D01*
X11599571Y-12162833D01*
X11571000Y-12162833D01*
X11551952Y-12172357D01*
X11542428Y-12181881D01*
X11751952Y-12296166D02*
X11732905Y-12286643D01*
X11723381Y-12277119D01*
X11713857Y-12258071D01*
X11713857Y-12200928D01*
X11723381Y-12181881D01*
X11732905Y-12172357D01*
X11751952Y-12162833D01*
X11780524Y-12162833D01*
X11799571Y-12172357D01*
X11809095Y-12181881D01*
X11818619Y-12200928D01*
X11818619Y-12258071D01*
X11809095Y-12277119D01*
X11799571Y-12286643D01*
X11780524Y-12296166D01*
X11751952Y-12296166D01*
X11932905Y-12296166D02*
X11913857Y-12286643D01*
X11904333Y-12267595D01*
X11904333Y-12096166D01*
X12085286Y-12286643D02*
X12066238Y-12296166D01*
X12028143Y-12296166D01*
X12009095Y-12286643D01*
X11999571Y-12267595D01*
X11999571Y-12191404D01*
X12009095Y-12172357D01*
X12028143Y-12162833D01*
X12066238Y-12162833D01*
X12085286Y-12172357D01*
X12094809Y-12191404D01*
X12094809Y-12210452D01*
X11999571Y-12229500D01*
X12171000Y-12286643D02*
X12190048Y-12296166D01*
X12228143Y-12296166D01*
X12247190Y-12286643D01*
X12256714Y-12267595D01*
X12256714Y-12258071D01*
X12247190Y-12239024D01*
X12228143Y-12229500D01*
X12199571Y-12229500D01*
X12180524Y-12219976D01*
X12171000Y-12200928D01*
X12171000Y-12191404D01*
X12180524Y-12172357D01*
X12199571Y-12162833D01*
X12228143Y-12162833D01*
X12247190Y-12172357D01*
X12323381Y-12372357D02*
X12332905Y-12362833D01*
X12351952Y-12334262D01*
X12361476Y-12315214D01*
X12371000Y-12286643D01*
X12380524Y-12239024D01*
X12380524Y-12200928D01*
X12371000Y-12153309D01*
X12361476Y-12124738D01*
X12351952Y-12105690D01*
X12332905Y-12077119D01*
X12323381Y-12067595D01*
D13*
X7361000Y-12469690D02*
G75*
G03*
X7361000Y-12469690I-50800J0D01*
G01*
D11*
X7723381Y-12560166D02*
X7609095Y-12560166D01*
X7666238Y-12560166D02*
X7666238Y-12360166D01*
X7647190Y-12388738D01*
X7628143Y-12407785D01*
X7609095Y-12417309D01*
X7809095Y-12541119D02*
X7818619Y-12550643D01*
X7809095Y-12560166D01*
X7799571Y-12550643D01*
X7809095Y-12541119D01*
X7809095Y-12560166D01*
X7942428Y-12360166D02*
X7961476Y-12360166D01*
X7980524Y-12369690D01*
X7990048Y-12379214D01*
X7999571Y-12398262D01*
X8009095Y-12436357D01*
X8009095Y-12483976D01*
X7999571Y-12522071D01*
X7990048Y-12541119D01*
X7980524Y-12550643D01*
X7961476Y-12560166D01*
X7942428Y-12560166D01*
X7923381Y-12550643D01*
X7913857Y-12541119D01*
X7904333Y-12522071D01*
X7894809Y-12483976D01*
X7894809Y-12436357D01*
X7904333Y-12398262D01*
X7913857Y-12379214D01*
X7923381Y-12369690D01*
X7942428Y-12360166D01*
X8199571Y-12560166D02*
X8085286Y-12560166D01*
X8142428Y-12560166D02*
X8142428Y-12360166D01*
X8123381Y-12388738D01*
X8104333Y-12407785D01*
X8085286Y-12417309D01*
X8371000Y-12360166D02*
X8332905Y-12360166D01*
X8313857Y-12369690D01*
X8304333Y-12379214D01*
X8285286Y-12407785D01*
X8275762Y-12445881D01*
X8275762Y-12522071D01*
X8285286Y-12541119D01*
X8294809Y-12550643D01*
X8313857Y-12560166D01*
X8351952Y-12560166D01*
X8371000Y-12550643D01*
X8380524Y-12541119D01*
X8390048Y-12522071D01*
X8390048Y-12474452D01*
X8380524Y-12455404D01*
X8371000Y-12445881D01*
X8351952Y-12436357D01*
X8313857Y-12436357D01*
X8294809Y-12445881D01*
X8285286Y-12455404D01*
X8275762Y-12474452D01*
X8475762Y-12560166D02*
X8475762Y-12426833D01*
X8475762Y-12445881D02*
X8485286Y-12436357D01*
X8504333Y-12426833D01*
X8532905Y-12426833D01*
X8551952Y-12436357D01*
X8561476Y-12455404D01*
X8561476Y-12560166D01*
X8561476Y-12455404D02*
X8571000Y-12436357D01*
X8590048Y-12426833D01*
X8618619Y-12426833D01*
X8637667Y-12436357D01*
X8647190Y-12455404D01*
X8647190Y-12560166D01*
X8742429Y-12560166D02*
X8742429Y-12426833D01*
X8742429Y-12445881D02*
X8751952Y-12436357D01*
X8771000Y-12426833D01*
X8799571Y-12426833D01*
X8818619Y-12436357D01*
X8828143Y-12455404D01*
X8828143Y-12560166D01*
X8828143Y-12455404D02*
X8837667Y-12436357D01*
X8856714Y-12426833D01*
X8885286Y-12426833D01*
X8904333Y-12436357D01*
X8913857Y-12455404D01*
X8913857Y-12560166D01*
X9304333Y-12350643D02*
X9132905Y-12607785D01*
X9561476Y-12360166D02*
X9580524Y-12360166D01*
X9599571Y-12369690D01*
X9609095Y-12379214D01*
X9618619Y-12398262D01*
X9628143Y-12436357D01*
X9628143Y-12483976D01*
X9618619Y-12522071D01*
X9609095Y-12541119D01*
X9599571Y-12550643D01*
X9580524Y-12560166D01*
X9561476Y-12560166D01*
X9542429Y-12550643D01*
X9532905Y-12541119D01*
X9523381Y-12522071D01*
X9513857Y-12483976D01*
X9513857Y-12436357D01*
X9523381Y-12398262D01*
X9532905Y-12379214D01*
X9542429Y-12369690D01*
X9561476Y-12360166D01*
X9713857Y-12541119D02*
X9723381Y-12550643D01*
X9713857Y-12560166D01*
X9704333Y-12550643D01*
X9713857Y-12541119D01*
X9713857Y-12560166D01*
X9847190Y-12360166D02*
X9866238Y-12360166D01*
X9885286Y-12369690D01*
X9894810Y-12379214D01*
X9904333Y-12398262D01*
X9913857Y-12436357D01*
X9913857Y-12483976D01*
X9904333Y-12522071D01*
X9894810Y-12541119D01*
X9885286Y-12550643D01*
X9866238Y-12560166D01*
X9847190Y-12560166D01*
X9828143Y-12550643D01*
X9818619Y-12541119D01*
X9809095Y-12522071D01*
X9799571Y-12483976D01*
X9799571Y-12436357D01*
X9809095Y-12398262D01*
X9818619Y-12379214D01*
X9828143Y-12369690D01*
X9847190Y-12360166D01*
X10085286Y-12426833D02*
X10085286Y-12560166D01*
X10037667Y-12350643D02*
X9990048Y-12493500D01*
X10113857Y-12493500D01*
X10228143Y-12360166D02*
X10247190Y-12360166D01*
X10266238Y-12369690D01*
X10275762Y-12379214D01*
X10285286Y-12398262D01*
X10294810Y-12436357D01*
X10294810Y-12483976D01*
X10285286Y-12522071D01*
X10275762Y-12541119D01*
X10266238Y-12550643D01*
X10247190Y-12560166D01*
X10228143Y-12560166D01*
X10209095Y-12550643D01*
X10199571Y-12541119D01*
X10190048Y-12522071D01*
X10180524Y-12483976D01*
X10180524Y-12436357D01*
X10190048Y-12398262D01*
X10199571Y-12379214D01*
X10209095Y-12369690D01*
X10228143Y-12360166D01*
X10418619Y-12360166D02*
X10437667Y-12360166D01*
X10456714Y-12369690D01*
X10466238Y-12379214D01*
X10475762Y-12398262D01*
X10485286Y-12436357D01*
X10485286Y-12483976D01*
X10475762Y-12522071D01*
X10466238Y-12541119D01*
X10456714Y-12550643D01*
X10437667Y-12560166D01*
X10418619Y-12560166D01*
X10399571Y-12550643D01*
X10390048Y-12541119D01*
X10380524Y-12522071D01*
X10371000Y-12483976D01*
X10371000Y-12436357D01*
X10380524Y-12398262D01*
X10390048Y-12379214D01*
X10399571Y-12369690D01*
X10418619Y-12360166D01*
X10561476Y-12360166D02*
X10561476Y-12398262D01*
X10637667Y-12360166D02*
X10637667Y-12398262D01*
X10932905Y-12636357D02*
X10923381Y-12626833D01*
X10904333Y-12598262D01*
X10894810Y-12579214D01*
X10885286Y-12550643D01*
X10875762Y-12503024D01*
X10875762Y-12464928D01*
X10885286Y-12417309D01*
X10894810Y-12388738D01*
X10904333Y-12369690D01*
X10923381Y-12341119D01*
X10932905Y-12331595D01*
X11113857Y-12560166D02*
X10999571Y-12560166D01*
X11056714Y-12560166D02*
X11056714Y-12360166D01*
X11037667Y-12388738D01*
X11018619Y-12407785D01*
X10999571Y-12417309D01*
X11190048Y-12379214D02*
X11199571Y-12369690D01*
X11218619Y-12360166D01*
X11266238Y-12360166D01*
X11285286Y-12369690D01*
X11294809Y-12379214D01*
X11304333Y-12398262D01*
X11304333Y-12417309D01*
X11294809Y-12445881D01*
X11180524Y-12560166D01*
X11304333Y-12560166D01*
X11542428Y-12560166D02*
X11542428Y-12360166D01*
X11628143Y-12560166D02*
X11628143Y-12455404D01*
X11618619Y-12436357D01*
X11599571Y-12426833D01*
X11571000Y-12426833D01*
X11551952Y-12436357D01*
X11542428Y-12445881D01*
X11751952Y-12560166D02*
X11732905Y-12550643D01*
X11723381Y-12541119D01*
X11713857Y-12522071D01*
X11713857Y-12464928D01*
X11723381Y-12445881D01*
X11732905Y-12436357D01*
X11751952Y-12426833D01*
X11780524Y-12426833D01*
X11799571Y-12436357D01*
X11809095Y-12445881D01*
X11818619Y-12464928D01*
X11818619Y-12522071D01*
X11809095Y-12541119D01*
X11799571Y-12550643D01*
X11780524Y-12560166D01*
X11751952Y-12560166D01*
X11932905Y-12560166D02*
X11913857Y-12550643D01*
X11904333Y-12531595D01*
X11904333Y-12360166D01*
X12085286Y-12550643D02*
X12066238Y-12560166D01*
X12028143Y-12560166D01*
X12009095Y-12550643D01*
X11999571Y-12531595D01*
X11999571Y-12455404D01*
X12009095Y-12436357D01*
X12028143Y-12426833D01*
X12066238Y-12426833D01*
X12085286Y-12436357D01*
X12094809Y-12455404D01*
X12094809Y-12474452D01*
X11999571Y-12493500D01*
X12171000Y-12550643D02*
X12190048Y-12560166D01*
X12228143Y-12560166D01*
X12247190Y-12550643D01*
X12256714Y-12531595D01*
X12256714Y-12522071D01*
X12247190Y-12503024D01*
X12228143Y-12493500D01*
X12199571Y-12493500D01*
X12180524Y-12483976D01*
X12171000Y-12464928D01*
X12171000Y-12455404D01*
X12180524Y-12436357D01*
X12199571Y-12426833D01*
X12228143Y-12426833D01*
X12247190Y-12436357D01*
X12323381Y-12636357D02*
X12332905Y-12626833D01*
X12351952Y-12598262D01*
X12361476Y-12579214D01*
X12371000Y-12550643D01*
X12380524Y-12503024D01*
X12380524Y-12464928D01*
X12371000Y-12417309D01*
X12361476Y-12388738D01*
X12351952Y-12369690D01*
X12332905Y-12341119D01*
X12323381Y-12331595D01*
D14*
X7265000Y-12637690D02*
X7265000Y-12829690D01*
X7169000Y-12733690D02*
X7361000Y-12733690D01*
D11*
X7723381Y-12824166D02*
X7609095Y-12824166D01*
X7666238Y-12824166D02*
X7666238Y-12624166D01*
X7647190Y-12652738D01*
X7628143Y-12671785D01*
X7609095Y-12681309D01*
X7809095Y-12805119D02*
X7818619Y-12814643D01*
X7809095Y-12824166D01*
X7799571Y-12814643D01*
X7809095Y-12805119D01*
X7809095Y-12824166D01*
X7913857Y-12824166D02*
X7951952Y-12824166D01*
X7971000Y-12814643D01*
X7980524Y-12805119D01*
X7999571Y-12776547D01*
X8009095Y-12738452D01*
X8009095Y-12662262D01*
X7999571Y-12643214D01*
X7990048Y-12633690D01*
X7971000Y-12624166D01*
X7932905Y-12624166D01*
X7913857Y-12633690D01*
X7904333Y-12643214D01*
X7894809Y-12662262D01*
X7894809Y-12709881D01*
X7904333Y-12728928D01*
X7913857Y-12738452D01*
X7932905Y-12747976D01*
X7971000Y-12747976D01*
X7990048Y-12738452D01*
X7999571Y-12728928D01*
X8009095Y-12709881D01*
X8085286Y-12643214D02*
X8094809Y-12633690D01*
X8113857Y-12624166D01*
X8161476Y-12624166D01*
X8180524Y-12633690D01*
X8190048Y-12643214D01*
X8199571Y-12662262D01*
X8199571Y-12681309D01*
X8190048Y-12709881D01*
X8075762Y-12824166D01*
X8199571Y-12824166D01*
X8323381Y-12624166D02*
X8342428Y-12624166D01*
X8361476Y-12633690D01*
X8371000Y-12643214D01*
X8380524Y-12662262D01*
X8390048Y-12700357D01*
X8390048Y-12747976D01*
X8380524Y-12786071D01*
X8371000Y-12805119D01*
X8361476Y-12814643D01*
X8342428Y-12824166D01*
X8323381Y-12824166D01*
X8304333Y-12814643D01*
X8294809Y-12805119D01*
X8285286Y-12786071D01*
X8275762Y-12747976D01*
X8275762Y-12700357D01*
X8285286Y-12662262D01*
X8294809Y-12643214D01*
X8304333Y-12633690D01*
X8323381Y-12624166D01*
X8475762Y-12824166D02*
X8475762Y-12690833D01*
X8475762Y-12709881D02*
X8485286Y-12700357D01*
X8504333Y-12690833D01*
X8532905Y-12690833D01*
X8551952Y-12700357D01*
X8561476Y-12719404D01*
X8561476Y-12824166D01*
X8561476Y-12719404D02*
X8571000Y-12700357D01*
X8590048Y-12690833D01*
X8618619Y-12690833D01*
X8637667Y-12700357D01*
X8647190Y-12719404D01*
X8647190Y-12824166D01*
X8742429Y-12824166D02*
X8742429Y-12690833D01*
X8742429Y-12709881D02*
X8751952Y-12700357D01*
X8771000Y-12690833D01*
X8799571Y-12690833D01*
X8818619Y-12700357D01*
X8828143Y-12719404D01*
X8828143Y-12824166D01*
X8828143Y-12719404D02*
X8837667Y-12700357D01*
X8856714Y-12690833D01*
X8885286Y-12690833D01*
X8904333Y-12700357D01*
X8913857Y-12719404D01*
X8913857Y-12824166D01*
X9304333Y-12614643D02*
X9132905Y-12871785D01*
X9561476Y-12624166D02*
X9580524Y-12624166D01*
X9599571Y-12633690D01*
X9609095Y-12643214D01*
X9618619Y-12662262D01*
X9628143Y-12700357D01*
X9628143Y-12747976D01*
X9618619Y-12786071D01*
X9609095Y-12805119D01*
X9599571Y-12814643D01*
X9580524Y-12824166D01*
X9561476Y-12824166D01*
X9542429Y-12814643D01*
X9532905Y-12805119D01*
X9523381Y-12786071D01*
X9513857Y-12747976D01*
X9513857Y-12700357D01*
X9523381Y-12662262D01*
X9532905Y-12643214D01*
X9542429Y-12633690D01*
X9561476Y-12624166D01*
X9713857Y-12805119D02*
X9723381Y-12814643D01*
X9713857Y-12824166D01*
X9704333Y-12814643D01*
X9713857Y-12805119D01*
X9713857Y-12824166D01*
X9847190Y-12624166D02*
X9866238Y-12624166D01*
X9885286Y-12633690D01*
X9894810Y-12643214D01*
X9904333Y-12662262D01*
X9913857Y-12700357D01*
X9913857Y-12747976D01*
X9904333Y-12786071D01*
X9894810Y-12805119D01*
X9885286Y-12814643D01*
X9866238Y-12824166D01*
X9847190Y-12824166D01*
X9828143Y-12814643D01*
X9818619Y-12805119D01*
X9809095Y-12786071D01*
X9799571Y-12747976D01*
X9799571Y-12700357D01*
X9809095Y-12662262D01*
X9818619Y-12643214D01*
X9828143Y-12633690D01*
X9847190Y-12624166D01*
X9980524Y-12624166D02*
X10113857Y-12624166D01*
X10028143Y-12824166D01*
X10285286Y-12624166D02*
X10190048Y-12624166D01*
X10180524Y-12719404D01*
X10190048Y-12709881D01*
X10209095Y-12700357D01*
X10256714Y-12700357D01*
X10275762Y-12709881D01*
X10285286Y-12719404D01*
X10294810Y-12738452D01*
X10294810Y-12786071D01*
X10285286Y-12805119D01*
X10275762Y-12814643D01*
X10256714Y-12824166D01*
X10209095Y-12824166D01*
X10190048Y-12814643D01*
X10180524Y-12805119D01*
X10466238Y-12624166D02*
X10428143Y-12624166D01*
X10409095Y-12633690D01*
X10399571Y-12643214D01*
X10380524Y-12671785D01*
X10371000Y-12709881D01*
X10371000Y-12786071D01*
X10380524Y-12805119D01*
X10390048Y-12814643D01*
X10409095Y-12824166D01*
X10447190Y-12824166D01*
X10466238Y-12814643D01*
X10475762Y-12805119D01*
X10485286Y-12786071D01*
X10485286Y-12738452D01*
X10475762Y-12719404D01*
X10466238Y-12709881D01*
X10447190Y-12700357D01*
X10409095Y-12700357D01*
X10390048Y-12709881D01*
X10380524Y-12719404D01*
X10371000Y-12738452D01*
X10561476Y-12624166D02*
X10561476Y-12662262D01*
X10637667Y-12624166D02*
X10637667Y-12662262D01*
X10932905Y-12900357D02*
X10923381Y-12890833D01*
X10904333Y-12862262D01*
X10894810Y-12843214D01*
X10885286Y-12814643D01*
X10875762Y-12767024D01*
X10875762Y-12728928D01*
X10885286Y-12681309D01*
X10894810Y-12652738D01*
X10904333Y-12633690D01*
X10923381Y-12605119D01*
X10932905Y-12595595D01*
X10999571Y-12643214D02*
X11009095Y-12633690D01*
X11028143Y-12624166D01*
X11075762Y-12624166D01*
X11094810Y-12633690D01*
X11104333Y-12643214D01*
X11113857Y-12662262D01*
X11113857Y-12681309D01*
X11104333Y-12709881D01*
X10990048Y-12824166D01*
X11113857Y-12824166D01*
X11351952Y-12824166D02*
X11351952Y-12624166D01*
X11437667Y-12824166D02*
X11437667Y-12719404D01*
X11428143Y-12700357D01*
X11409095Y-12690833D01*
X11380524Y-12690833D01*
X11361476Y-12700357D01*
X11351952Y-12709881D01*
X11561476Y-12824166D02*
X11542428Y-12814643D01*
X11532905Y-12805119D01*
X11523381Y-12786071D01*
X11523381Y-12728928D01*
X11532905Y-12709881D01*
X11542428Y-12700357D01*
X11561476Y-12690833D01*
X11590048Y-12690833D01*
X11609095Y-12700357D01*
X11618619Y-12709881D01*
X11628143Y-12728928D01*
X11628143Y-12786071D01*
X11618619Y-12805119D01*
X11609095Y-12814643D01*
X11590048Y-12824166D01*
X11561476Y-12824166D01*
X11742428Y-12824166D02*
X11723381Y-12814643D01*
X11713857Y-12795595D01*
X11713857Y-12624166D01*
X11894809Y-12814643D02*
X11875762Y-12824166D01*
X11837667Y-12824166D01*
X11818619Y-12814643D01*
X11809095Y-12795595D01*
X11809095Y-12719404D01*
X11818619Y-12700357D01*
X11837667Y-12690833D01*
X11875762Y-12690833D01*
X11894809Y-12700357D01*
X11904333Y-12719404D01*
X11904333Y-12738452D01*
X11809095Y-12757500D01*
X11980524Y-12814643D02*
X11999571Y-12824166D01*
X12037667Y-12824166D01*
X12056714Y-12814643D01*
X12066238Y-12795595D01*
X12066238Y-12786071D01*
X12056714Y-12767024D01*
X12037667Y-12757500D01*
X12009095Y-12757500D01*
X11990048Y-12747976D01*
X11980524Y-12728928D01*
X11980524Y-12719404D01*
X11990048Y-12700357D01*
X12009095Y-12690833D01*
X12037667Y-12690833D01*
X12056714Y-12700357D01*
X12132905Y-12900357D02*
X12142428Y-12890833D01*
X12161476Y-12862262D01*
X12171000Y-12843214D01*
X12180524Y-12814643D01*
X12190048Y-12767024D01*
X12190048Y-12728928D01*
X12180524Y-12681309D01*
X12171000Y-12652738D01*
X12161476Y-12633690D01*
X12142428Y-12605119D01*
X12132905Y-12595595D01*
X7331711Y-13116402D02*
X7331711Y-12974979D01*
X7190289Y-12974979D01*
X7190289Y-13116402D01*
X7331711Y-13116402D01*
X7609095Y-12955214D02*
X7618619Y-12945690D01*
X7637667Y-12936166D01*
X7685286Y-12936166D01*
X7704333Y-12945690D01*
X7713857Y-12955214D01*
X7723381Y-12974262D01*
X7723381Y-12993309D01*
X7713857Y-13021881D01*
X7599571Y-13136166D01*
X7723381Y-13136166D01*
X7809095Y-13117119D02*
X7818619Y-13126643D01*
X7809095Y-13136166D01*
X7799571Y-13126643D01*
X7809095Y-13117119D01*
X7809095Y-13136166D01*
X7990048Y-12936166D02*
X7951952Y-12936166D01*
X7932905Y-12945690D01*
X7923381Y-12955214D01*
X7904333Y-12983785D01*
X7894809Y-13021881D01*
X7894809Y-13098071D01*
X7904333Y-13117119D01*
X7913857Y-13126643D01*
X7932905Y-13136166D01*
X7971000Y-13136166D01*
X7990048Y-13126643D01*
X7999571Y-13117119D01*
X8009095Y-13098071D01*
X8009095Y-13050452D01*
X7999571Y-13031404D01*
X7990048Y-13021881D01*
X7971000Y-13012357D01*
X7932905Y-13012357D01*
X7913857Y-13021881D01*
X7904333Y-13031404D01*
X7894809Y-13050452D01*
X8180524Y-12936166D02*
X8142428Y-12936166D01*
X8123381Y-12945690D01*
X8113857Y-12955214D01*
X8094809Y-12983785D01*
X8085286Y-13021881D01*
X8085286Y-13098071D01*
X8094809Y-13117119D01*
X8104333Y-13126643D01*
X8123381Y-13136166D01*
X8161476Y-13136166D01*
X8180524Y-13126643D01*
X8190048Y-13117119D01*
X8199571Y-13098071D01*
X8199571Y-13050452D01*
X8190048Y-13031404D01*
X8180524Y-13021881D01*
X8161476Y-13012357D01*
X8123381Y-13012357D01*
X8104333Y-13021881D01*
X8094809Y-13031404D01*
X8085286Y-13050452D01*
X8323381Y-12936166D02*
X8342428Y-12936166D01*
X8361476Y-12945690D01*
X8371000Y-12955214D01*
X8380524Y-12974262D01*
X8390048Y-13012357D01*
X8390048Y-13059976D01*
X8380524Y-13098071D01*
X8371000Y-13117119D01*
X8361476Y-13126643D01*
X8342428Y-13136166D01*
X8323381Y-13136166D01*
X8304333Y-13126643D01*
X8294809Y-13117119D01*
X8285286Y-13098071D01*
X8275762Y-13059976D01*
X8275762Y-13012357D01*
X8285286Y-12974262D01*
X8294809Y-12955214D01*
X8304333Y-12945690D01*
X8323381Y-12936166D01*
X8475762Y-13136166D02*
X8475762Y-13002833D01*
X8475762Y-13021881D02*
X8485286Y-13012357D01*
X8504333Y-13002833D01*
X8532905Y-13002833D01*
X8551952Y-13012357D01*
X8561476Y-13031404D01*
X8561476Y-13136166D01*
X8561476Y-13031404D02*
X8571000Y-13012357D01*
X8590048Y-13002833D01*
X8618619Y-13002833D01*
X8637667Y-13012357D01*
X8647190Y-13031404D01*
X8647190Y-13136166D01*
X8742429Y-13136166D02*
X8742429Y-13002833D01*
X8742429Y-13021881D02*
X8751952Y-13012357D01*
X8771000Y-13002833D01*
X8799571Y-13002833D01*
X8818619Y-13012357D01*
X8828143Y-13031404D01*
X8828143Y-13136166D01*
X8828143Y-13031404D02*
X8837667Y-13012357D01*
X8856714Y-13002833D01*
X8885286Y-13002833D01*
X8904333Y-13012357D01*
X8913857Y-13031404D01*
X8913857Y-13136166D01*
X9304333Y-12926643D02*
X9132905Y-13183785D01*
X9561476Y-12936166D02*
X9580524Y-12936166D01*
X9599571Y-12945690D01*
X9609095Y-12955214D01*
X9618619Y-12974262D01*
X9628143Y-13012357D01*
X9628143Y-13059976D01*
X9618619Y-13098071D01*
X9609095Y-13117119D01*
X9599571Y-13126643D01*
X9580524Y-13136166D01*
X9561476Y-13136166D01*
X9542429Y-13126643D01*
X9532905Y-13117119D01*
X9523381Y-13098071D01*
X9513857Y-13059976D01*
X9513857Y-13012357D01*
X9523381Y-12974262D01*
X9532905Y-12955214D01*
X9542429Y-12945690D01*
X9561476Y-12936166D01*
X9713857Y-13117119D02*
X9723381Y-13126643D01*
X9713857Y-13136166D01*
X9704333Y-13126643D01*
X9713857Y-13117119D01*
X9713857Y-13136166D01*
X9913857Y-13136166D02*
X9799571Y-13136166D01*
X9856714Y-13136166D02*
X9856714Y-12936166D01*
X9837667Y-12964738D01*
X9818619Y-12983785D01*
X9799571Y-12993309D01*
X10037667Y-12936166D02*
X10056714Y-12936166D01*
X10075762Y-12945690D01*
X10085286Y-12955214D01*
X10094810Y-12974262D01*
X10104333Y-13012357D01*
X10104333Y-13059976D01*
X10094810Y-13098071D01*
X10085286Y-13117119D01*
X10075762Y-13126643D01*
X10056714Y-13136166D01*
X10037667Y-13136166D01*
X10018619Y-13126643D01*
X10009095Y-13117119D01*
X9999571Y-13098071D01*
X9990048Y-13059976D01*
X9990048Y-13012357D01*
X9999571Y-12974262D01*
X10009095Y-12955214D01*
X10018619Y-12945690D01*
X10037667Y-12936166D01*
X10275762Y-13002833D02*
X10275762Y-13136166D01*
X10228143Y-12926643D02*
X10180524Y-13069500D01*
X10304333Y-13069500D01*
X10361476Y-12936166D02*
X10494810Y-12936166D01*
X10409095Y-13136166D01*
X10561476Y-12936166D02*
X10561476Y-12974262D01*
X10637667Y-12936166D02*
X10637667Y-12974262D01*
X10932905Y-13212357D02*
X10923381Y-13202833D01*
X10904333Y-13174262D01*
X10894810Y-13155214D01*
X10885286Y-13126643D01*
X10875762Y-13079024D01*
X10875762Y-13040928D01*
X10885286Y-12993309D01*
X10894810Y-12964738D01*
X10904333Y-12945690D01*
X10923381Y-12917119D01*
X10932905Y-12907595D01*
X10999571Y-12955214D02*
X11009095Y-12945690D01*
X11028143Y-12936166D01*
X11075762Y-12936166D01*
X11094810Y-12945690D01*
X11104333Y-12955214D01*
X11113857Y-12974262D01*
X11113857Y-12993309D01*
X11104333Y-13021881D01*
X10990048Y-13136166D01*
X11113857Y-13136166D01*
X11351952Y-13136166D02*
X11351952Y-12936166D01*
X11437667Y-13136166D02*
X11437667Y-13031404D01*
X11428143Y-13012357D01*
X11409095Y-13002833D01*
X11380524Y-13002833D01*
X11361476Y-13012357D01*
X11351952Y-13021881D01*
X11561476Y-13136166D02*
X11542428Y-13126643D01*
X11532905Y-13117119D01*
X11523381Y-13098071D01*
X11523381Y-13040928D01*
X11532905Y-13021881D01*
X11542428Y-13012357D01*
X11561476Y-13002833D01*
X11590048Y-13002833D01*
X11609095Y-13012357D01*
X11618619Y-13021881D01*
X11628143Y-13040928D01*
X11628143Y-13098071D01*
X11618619Y-13117119D01*
X11609095Y-13126643D01*
X11590048Y-13136166D01*
X11561476Y-13136166D01*
X11742428Y-13136166D02*
X11723381Y-13126643D01*
X11713857Y-13107595D01*
X11713857Y-12936166D01*
X11894809Y-13126643D02*
X11875762Y-13136166D01*
X11837667Y-13136166D01*
X11818619Y-13126643D01*
X11809095Y-13107595D01*
X11809095Y-13031404D01*
X11818619Y-13012357D01*
X11837667Y-13002833D01*
X11875762Y-13002833D01*
X11894809Y-13012357D01*
X11904333Y-13031404D01*
X11904333Y-13050452D01*
X11809095Y-13069500D01*
X11980524Y-13126643D02*
X11999571Y-13136166D01*
X12037667Y-13136166D01*
X12056714Y-13126643D01*
X12066238Y-13107595D01*
X12066238Y-13098071D01*
X12056714Y-13079024D01*
X12037667Y-13069500D01*
X12009095Y-13069500D01*
X11990048Y-13059976D01*
X11980524Y-13040928D01*
X11980524Y-13031404D01*
X11990048Y-13012357D01*
X12009095Y-13002833D01*
X12037667Y-13002833D01*
X12056714Y-13012357D01*
X12132905Y-13212357D02*
X12142428Y-13202833D01*
X12161476Y-13174262D01*
X12171000Y-13155214D01*
X12180524Y-13126643D01*
X12190048Y-13079024D01*
X12190048Y-13040928D01*
X12180524Y-12993309D01*
X12171000Y-12964738D01*
X12161476Y-12945690D01*
X12142428Y-12917119D01*
X12132905Y-12907595D01*
M02*
