%TF.GenerationSoftware,KiCad,Pcbnew,(6.0.5)*%
%TF.CreationDate,2022-06-04T23:49:02-06:00*%
%TF.ProjectId,PMOD_HDMI,504d4f44-5f48-4444-9d49-2e6b69636164,rev?*%
%TF.SameCoordinates,Original*%
%TF.FileFunction,Paste,Top*%
%TF.FilePolarity,Positive*%
%FSLAX46Y46*%
G04 Gerber Fmt 4.6, Leading zero omitted, Abs format (unit mm)*
G04 Created by KiCad (PCBNEW (6.0.5)) date 2022-06-04 23:49:02*
%MOMM*%
%LPD*%
G01*
G04 APERTURE LIST*
G04 Aperture macros list*
%AMRoundRect*
0 Rectangle with rounded corners*
0 $1 Rounding radius*
0 $2 $3 $4 $5 $6 $7 $8 $9 X,Y pos of 4 corners*
0 Add a 4 corners polygon primitive as box body*
4,1,4,$2,$3,$4,$5,$6,$7,$8,$9,$2,$3,0*
0 Add four circle primitives for the rounded corners*
1,1,$1+$1,$2,$3*
1,1,$1+$1,$4,$5*
1,1,$1+$1,$6,$7*
1,1,$1+$1,$8,$9*
0 Add four rect primitives between the rounded corners*
20,1,$1+$1,$2,$3,$4,$5,0*
20,1,$1+$1,$4,$5,$6,$7,0*
20,1,$1+$1,$6,$7,$8,$9,0*
20,1,$1+$1,$8,$9,$2,$3,0*%
G04 Aperture macros list end*
%ADD10C,0.010000*%
%ADD11C,1.300000*%
%ADD12R,0.800000X1.400000*%
%ADD13R,1.500000X4.000000*%
%ADD14R,2.600000X0.280000*%
%ADD15R,1.475000X0.450000*%
%ADD16R,2.150000X2.150000*%
%ADD17RoundRect,0.250000X-0.262500X-0.450000X0.262500X-0.450000X0.262500X0.450000X-0.262500X0.450000X0*%
%ADD18RoundRect,0.250000X-0.650000X0.325000X-0.650000X-0.325000X0.650000X-0.325000X0.650000X0.325000X0*%
%ADD19RoundRect,0.250000X-0.475000X0.250000X-0.475000X-0.250000X0.475000X-0.250000X0.475000X0.250000X0*%
G04 APERTURE END LIST*
%TO.C,U1*%
G36*
X88030000Y-110630000D02*
G01*
X87230000Y-110630000D01*
X87230000Y-109230000D01*
X88030000Y-109230000D01*
X88030000Y-110630000D01*
G37*
D10*
X88030000Y-110630000D02*
X87230000Y-110630000D01*
X87230000Y-109230000D01*
X88030000Y-109230000D01*
X88030000Y-110630000D01*
G36*
X87905000Y-108075000D02*
G01*
X87380000Y-108075000D01*
X87380000Y-105900000D01*
X87905000Y-105900000D01*
X87905000Y-108075000D01*
G37*
D11*
X87905000Y-108075000D02*
X87380000Y-108075000D01*
X87380000Y-105900000D01*
X87905000Y-105900000D01*
X87905000Y-108075000D01*
%TD*%
D12*
%TO.C,U1*%
X86131000Y-109931000D03*
X89129000Y-109931000D03*
%TD*%
D13*
%TO.C,L1*%
X84560000Y-100330000D03*
X88160000Y-100330000D03*
%TD*%
D14*
%TO.C,J1*%
X115400000Y-99640000D03*
X115400000Y-100140000D03*
X115400000Y-100640000D03*
X115400000Y-101140000D03*
X115400000Y-101640000D03*
X115400000Y-102140000D03*
X115400000Y-102640000D03*
X115400000Y-103140000D03*
X115400000Y-103640000D03*
X115400000Y-104140000D03*
X115400000Y-104640000D03*
X115400000Y-105140000D03*
X115400000Y-105640000D03*
X115400000Y-106140000D03*
X115400000Y-106640000D03*
X115400000Y-107140000D03*
X115400000Y-107640000D03*
X115400000Y-108140000D03*
X115400000Y-108640000D03*
%TD*%
D15*
%TO.C,IC1*%
X103742000Y-99295000D03*
X103742000Y-99945000D03*
X103742000Y-100595000D03*
X103742000Y-101245000D03*
X103742000Y-101895000D03*
X103742000Y-102545000D03*
X103742000Y-103195000D03*
X103742000Y-103845000D03*
X103742000Y-104495000D03*
X103742000Y-105145000D03*
X103742000Y-105795000D03*
X103742000Y-106445000D03*
X109618000Y-106445000D03*
X109618000Y-105795000D03*
X109618000Y-105145000D03*
X109618000Y-104495000D03*
X109618000Y-103845000D03*
X109618000Y-103195000D03*
X109618000Y-102545000D03*
X109618000Y-101895000D03*
X109618000Y-101245000D03*
X109618000Y-100595000D03*
X109618000Y-99945000D03*
X109618000Y-99295000D03*
%TD*%
D16*
%TO.C,D1*%
X92710000Y-105170000D03*
X92710000Y-100570000D03*
%TD*%
D17*
%TO.C,R8*%
X96877500Y-113030000D03*
X98702500Y-113030000D03*
%TD*%
%TO.C,R7*%
X96877500Y-110490000D03*
X98702500Y-110490000D03*
%TD*%
%TO.C,R6*%
X96877500Y-97790000D03*
X98702500Y-97790000D03*
%TD*%
%TO.C,R5*%
X96877500Y-95250000D03*
X98702500Y-95250000D03*
%TD*%
%TO.C,R4*%
X96877500Y-102870000D03*
X98702500Y-102870000D03*
%TD*%
%TO.C,R3*%
X96877500Y-100330000D03*
X98702500Y-100330000D03*
%TD*%
%TO.C,R2*%
X96877500Y-107950000D03*
X98702500Y-107950000D03*
%TD*%
%TO.C,R1*%
X96877500Y-105410000D03*
X98702500Y-105410000D03*
%TD*%
D18*
%TO.C,C2*%
X92710000Y-107745000D03*
X92710000Y-110695000D03*
%TD*%
D19*
%TO.C,C1*%
X83820000Y-108270000D03*
X83820000Y-110170000D03*
%TD*%
M02*
