M48
; DRILL file {KiCad (6.0.5)} date Sat Jun  4 23:49:27 2022
; FORMAT={-:-/ absolute / metric / decimal}
; #@! TF.CreationDate,2022-06-04T23:49:27-06:00
; #@! TF.GenerationSoftware,Kicad,Pcbnew,(6.0.5)
; #@! TF.FileFunction,Plated,1,2,PTH
FMAT,2
METRIC
; #@! TA.AperFunction,Plated,PTH,ViaDrill
T1C0.400
; #@! TA.AperFunction,Plated,PTH,ComponentDrill
T2C1.016
; #@! TA.AperFunction,Plated,PTH,ComponentDrill
T3C1.920
; #@! TA.AperFunction,Plated,PTH,ComponentDrill
T4C2.660
%
G90
G05
T1
X82.347Y-100.787
X91.288Y-98.247
X95.352Y-95.25
X95.402Y-97.79
X95.504Y-100.381
X95.504Y-102.87
X95.504Y-105.41
X95.504Y-107.95
X95.504Y-110.49
X95.504Y-113.03
X100.432Y-113.03
X100.482Y-110.49
X103.327Y-107.645
X105.207Y-101.346
X105.255Y-102.539
X107.325Y-101.869
X107.34Y-104.8
X107.747Y-106.02
X108.763Y-96.926
X111.557Y-106.274
X112.37Y-105.389
X112.573Y-108.966
T2
X77.47Y-97.79
X77.47Y-100.33
X77.47Y-102.87
X77.47Y-105.41
X77.47Y-107.95
X77.47Y-110.49
X80.01Y-97.79
X80.01Y-100.33
X80.01Y-102.87
X80.01Y-105.41
X80.01Y-107.95
X80.01Y-110.49
T3
X122.12Y-96.89
X122.12Y-111.39
T4
X116.16Y-96.89
X116.16Y-111.39
T0
M30
