%TF.GenerationSoftware,KiCad,Pcbnew,(6.0.5)*%
%TF.CreationDate,2022-05-30T11:24:41-06:00*%
%TF.ProjectId,PMOD_MEM,504d4f44-5f4d-4454-9d2e-6b696361645f,rev?*%
%TF.SameCoordinates,Original*%
%TF.FileFunction,Copper,L1,Top*%
%TF.FilePolarity,Positive*%
%FSLAX46Y46*%
G04 Gerber Fmt 4.6, Leading zero omitted, Abs format (unit mm)*
G04 Created by KiCad (PCBNEW (6.0.5)) date 2022-05-30 11:24:41*
%MOMM*%
%LPD*%
G01*
G04 APERTURE LIST*
G04 Aperture macros list*
%AMRoundRect*
0 Rectangle with rounded corners*
0 $1 Rounding radius*
0 $2 $3 $4 $5 $6 $7 $8 $9 X,Y pos of 4 corners*
0 Add a 4 corners polygon primitive as box body*
4,1,4,$2,$3,$4,$5,$6,$7,$8,$9,$2,$3,0*
0 Add four circle primitives for the rounded corners*
1,1,$1+$1,$2,$3*
1,1,$1+$1,$4,$5*
1,1,$1+$1,$6,$7*
1,1,$1+$1,$8,$9*
0 Add four rect primitives between the rounded corners*
20,1,$1+$1,$2,$3,$4,$5,0*
20,1,$1+$1,$4,$5,$6,$7,0*
20,1,$1+$1,$6,$7,$8,$9,0*
20,1,$1+$1,$8,$9,$2,$3,0*%
G04 Aperture macros list end*
%TA.AperFunction,ComponentPad*%
%ADD10R,1.524000X1.524000*%
%TD*%
%TA.AperFunction,ComponentPad*%
%ADD11C,1.524000*%
%TD*%
%TA.AperFunction,SMDPad,CuDef*%
%ADD12RoundRect,0.250000X0.262500X0.450000X-0.262500X0.450000X-0.262500X-0.450000X0.262500X-0.450000X0*%
%TD*%
%TA.AperFunction,SMDPad,CuDef*%
%ADD13RoundRect,0.250000X0.250000X0.475000X-0.250000X0.475000X-0.250000X-0.475000X0.250000X-0.475000X0*%
%TD*%
%TA.AperFunction,SMDPad,CuDef*%
%ADD14RoundRect,0.150000X-0.825000X-0.150000X0.825000X-0.150000X0.825000X0.150000X-0.825000X0.150000X0*%
%TD*%
%TA.AperFunction,SMDPad,CuDef*%
%ADD15R,1.525000X0.700000*%
%TD*%
%TA.AperFunction,ViaPad*%
%ADD16C,0.800000*%
%TD*%
%TA.AperFunction,Conductor*%
%ADD17C,0.600000*%
%TD*%
%TA.AperFunction,Conductor*%
%ADD18C,0.400000*%
%TD*%
G04 APERTURE END LIST*
D10*
%TO.P,PMOD1,1,IOA0*%
%TO.N,/SDA*%
X102870000Y-100330000D03*
D11*
%TO.P,PMOD1,2,IOA1*%
%TO.N,unconnected-(PMOD1-Pad2)*%
X102870000Y-102870000D03*
%TO.P,PMOD1,3,IOA2*%
%TO.N,/MOSI*%
X102870000Y-105410000D03*
%TO.P,PMOD1,4,IOA3*%
%TO.N,/MISO*%
X102870000Y-107950000D03*
%TO.P,PMOD1,5,GND*%
%TO.N,GND*%
X102870000Y-110490000D03*
%TO.P,PMOD1,6,VCC*%
%TO.N,+3V3*%
X102870000Y-113030000D03*
%TO.P,PMOD1,7,IOB0*%
%TO.N,/SCL*%
X100330000Y-100330000D03*
%TO.P,PMOD1,8,IOB1*%
%TO.N,unconnected-(PMOD1-Pad8)*%
X100330000Y-102870000D03*
%TO.P,PMOD1,9,IOB2*%
%TO.N,/SCLK*%
X100330000Y-105410000D03*
%TO.P,PMOD1,10,IOB3*%
%TO.N,/~{CS}*%
X100330000Y-107950000D03*
%TO.P,PMOD1,11,GND*%
%TO.N,GND*%
X100330000Y-110490000D03*
%TO.P,PMOD1,12,VCC*%
%TO.N,+3V3*%
X100330000Y-113030000D03*
%TD*%
D12*
%TO.P,R2,1*%
%TO.N,+3V3*%
X117752500Y-102870000D03*
%TO.P,R2,2*%
%TO.N,/SCL*%
X115927500Y-102870000D03*
%TD*%
D13*
%TO.P,C1,1*%
%TO.N,+3V3*%
X117790000Y-107950000D03*
%TO.P,C1,2*%
%TO.N,GND*%
X115890000Y-107950000D03*
%TD*%
D12*
%TO.P,R1,1*%
%TO.N,+3V3*%
X117752500Y-105410000D03*
%TO.P,R1,2*%
%TO.N,/SDA*%
X115927500Y-105410000D03*
%TD*%
D14*
%TO.P,U1,1,NC*%
%TO.N,unconnected-(U1-Pad1)*%
X108015000Y-99695000D03*
%TO.P,U1,2,A1*%
%TO.N,GND*%
X108015000Y-100965000D03*
%TO.P,U1,3,A2*%
%TO.N,+3V3*%
X108015000Y-102235000D03*
%TO.P,U1,4,GND*%
%TO.N,GND*%
X108015000Y-103505000D03*
%TO.P,U1,5,SDA*%
%TO.N,/SDA*%
X112965000Y-103505000D03*
%TO.P,U1,6,SCL*%
%TO.N,/SCL*%
X112965000Y-102235000D03*
%TO.P,U1,7,WP*%
%TO.N,GND*%
X112965000Y-100965000D03*
%TO.P,U1,8,VCC*%
%TO.N,+3V3*%
X112965000Y-99695000D03*
%TD*%
D15*
%TO.P,IC1,1,~{CS}*%
%TO.N,/~{CS}*%
X107778000Y-109855000D03*
%TO.P,IC1,2,DO_(IO1)*%
%TO.N,/MISO*%
X107778000Y-111125000D03*
%TO.P,IC1,3,~{WP_(IO2})*%
%TO.N,+3V3*%
X107778000Y-112395000D03*
%TO.P,IC1,4,GND*%
%TO.N,GND*%
X107778000Y-113665000D03*
%TO.P,IC1,5,DI_(IO0)*%
%TO.N,/MOSI*%
X113202000Y-113665000D03*
%TO.P,IC1,6,CLK*%
%TO.N,/SCLK*%
X113202000Y-112395000D03*
%TO.P,IC1,7,~{HOLD_OR_}RESET_(IO3)*%
%TO.N,+3V3*%
X113202000Y-111125000D03*
%TO.P,IC1,8,VCC*%
X113202000Y-109855000D03*
%TD*%
D16*
%TO.N,GND*%
X109220000Y-114300000D03*
X105410000Y-101600000D03*
X114814398Y-100983713D03*
X114404366Y-107954250D03*
%TD*%
D17*
%TO.N,GND*%
X107778000Y-113665000D02*
X108585000Y-113665000D01*
D18*
X106045000Y-100965000D02*
X108015000Y-100965000D01*
D17*
X114795685Y-100965000D02*
X112965000Y-100965000D01*
D18*
X105410000Y-102870000D02*
X106045000Y-103505000D01*
X105410000Y-101600000D02*
X106045000Y-100965000D01*
D17*
X108585000Y-113665000D02*
X109220000Y-114300000D01*
D18*
X106045000Y-103505000D02*
X108015000Y-103505000D01*
D17*
X114814398Y-100983713D02*
X114795685Y-100965000D01*
X115890000Y-107950000D02*
X114408616Y-107950000D01*
D18*
X105410000Y-101600000D02*
X105410000Y-102870000D01*
D17*
X114408616Y-107950000D02*
X114404366Y-107954250D01*
%TO.N,+3V3*%
X117475000Y-111125000D02*
X113202000Y-111125000D01*
X115570000Y-115570000D02*
X117752500Y-113387500D01*
X102870000Y-113030000D02*
X105410000Y-115570000D01*
X116698972Y-99695000D02*
X117738101Y-100734129D01*
X117752500Y-107987500D02*
X117790000Y-107950000D01*
X105410000Y-115570000D02*
X115570000Y-115570000D01*
X103505000Y-112395000D02*
X107778000Y-112395000D01*
D18*
X113217601Y-106106096D02*
X113217601Y-109839399D01*
X109346505Y-102235000D02*
X113217601Y-106106096D01*
D17*
X117752500Y-110847500D02*
X117752500Y-107987500D01*
X117752500Y-105410000D02*
X117752500Y-102870000D01*
D18*
X113217601Y-109839399D02*
X113202000Y-109855000D01*
D17*
X113202000Y-111125000D02*
X113202000Y-109855000D01*
D18*
X108015000Y-102235000D02*
X109346505Y-102235000D01*
D17*
X117752500Y-113387500D02*
X117752500Y-110847500D01*
X117738101Y-102855601D02*
X117752500Y-102870000D01*
X102870000Y-113030000D02*
X103505000Y-112395000D01*
X117738101Y-100734129D02*
X117738101Y-102855601D01*
X117790000Y-107950000D02*
X117790000Y-105447500D01*
X117790000Y-105447500D02*
X117752500Y-105410000D01*
X112965000Y-99695000D02*
X116698972Y-99695000D01*
X100330000Y-113030000D02*
X102870000Y-113030000D01*
X117752500Y-110847500D02*
X117475000Y-111125000D01*
D18*
%TO.N,/~{CS}*%
X107778000Y-109855000D02*
X107315000Y-109855000D01*
X107315000Y-109855000D02*
X104140000Y-106680000D01*
X104140000Y-106680000D02*
X101600000Y-106680000D01*
X101600000Y-106680000D02*
X100330000Y-107950000D01*
%TO.N,/MISO*%
X106045000Y-111125000D02*
X105410000Y-110490000D01*
X102870000Y-107950000D02*
X104140000Y-107950000D01*
X105410000Y-110490000D02*
X105410000Y-109220000D01*
X107778000Y-111125000D02*
X106045000Y-111125000D01*
X104140000Y-107950000D02*
X105410000Y-109220000D01*
%TO.N,/MOSI*%
X111116874Y-113665000D02*
X113202000Y-113665000D01*
X108246591Y-107300536D02*
X109227102Y-108281047D01*
X109227102Y-108281047D02*
X109227102Y-111775228D01*
X102870000Y-105410000D02*
X104341553Y-105410000D01*
X104341553Y-105410000D02*
X106232089Y-107300536D01*
X106232089Y-107300536D02*
X108246591Y-107300536D01*
X109227102Y-111775228D02*
X111116874Y-113665000D01*
%TO.N,/SCLK*%
X104355130Y-104140000D02*
X106606466Y-106391336D01*
X100330000Y-105410000D02*
X101600000Y-104140000D01*
X111433517Y-112395000D02*
X110064993Y-111026476D01*
X110064993Y-107960152D02*
X110064993Y-111026476D01*
X113202000Y-112395000D02*
X111433517Y-112395000D01*
X106606466Y-106391336D02*
X108496177Y-106391336D01*
X101600000Y-104140000D02*
X104355130Y-104140000D01*
X108496177Y-106391336D02*
X110064993Y-107960152D01*
%TO.N,/SDA*%
X110490000Y-99131943D02*
X109747577Y-98389520D01*
X112965000Y-103505000D02*
X114022500Y-103505000D01*
X110490000Y-101512138D02*
X110490000Y-99131943D01*
X104140000Y-98389520D02*
X102870000Y-99659520D01*
X112482862Y-103505000D02*
X110490000Y-101512138D01*
X109747577Y-98389520D02*
X104140000Y-98389520D01*
X114022500Y-103505000D02*
X115927500Y-105410000D01*
X102870000Y-99659520D02*
X102870000Y-100330000D01*
X112965000Y-103505000D02*
X112482862Y-103505000D01*
D17*
X112965000Y-103505000D02*
X112341441Y-103505000D01*
D18*
%TO.N,/SCL*%
X111193771Y-101033771D02*
X112395000Y-102235000D01*
D17*
X112965000Y-102235000D02*
X112341441Y-102235000D01*
D18*
X111193771Y-98987864D02*
X111193771Y-101033771D01*
X100330000Y-99060000D02*
X101600000Y-97790000D01*
X109995907Y-97790000D02*
X111193771Y-98987864D01*
X115292500Y-102235000D02*
X112965000Y-102235000D01*
X112395000Y-102235000D02*
X112965000Y-102235000D01*
X115292500Y-102235000D02*
X115927500Y-102870000D01*
X101600000Y-97790000D02*
X109995907Y-97790000D01*
X100330000Y-100330000D02*
X100330000Y-99060000D01*
%TD*%
M02*
