%TF.GenerationSoftware,KiCad,Pcbnew,(6.0.5)*%
%TF.CreationDate,2022-05-30T11:24:42-06:00*%
%TF.ProjectId,PMOD_MEM,504d4f44-5f4d-4454-9d2e-6b696361645f,rev?*%
%TF.SameCoordinates,Original*%
%TF.FileFunction,Copper,L2,Bot*%
%TF.FilePolarity,Positive*%
%FSLAX46Y46*%
G04 Gerber Fmt 4.6, Leading zero omitted, Abs format (unit mm)*
G04 Created by KiCad (PCBNEW (6.0.5)) date 2022-05-30 11:24:42*
%MOMM*%
%LPD*%
G01*
G04 APERTURE LIST*
%TA.AperFunction,ComponentPad*%
%ADD10R,1.524000X1.524000*%
%TD*%
%TA.AperFunction,ComponentPad*%
%ADD11C,1.524000*%
%TD*%
%TA.AperFunction,ViaPad*%
%ADD12C,0.800000*%
%TD*%
%TA.AperFunction,Conductor*%
%ADD13C,0.600000*%
%TD*%
G04 APERTURE END LIST*
D10*
%TO.P,PMOD1,1,IOA0*%
%TO.N,/SDA*%
X102870000Y-100330000D03*
D11*
%TO.P,PMOD1,2,IOA1*%
%TO.N,unconnected-(PMOD1-Pad2)*%
X102870000Y-102870000D03*
%TO.P,PMOD1,3,IOA2*%
%TO.N,/MOSI*%
X102870000Y-105410000D03*
%TO.P,PMOD1,4,IOA3*%
%TO.N,/MISO*%
X102870000Y-107950000D03*
%TO.P,PMOD1,5,GND*%
%TO.N,GND*%
X102870000Y-110490000D03*
%TO.P,PMOD1,6,VCC*%
%TO.N,+3V3*%
X102870000Y-113030000D03*
%TO.P,PMOD1,7,IOB0*%
%TO.N,/SCL*%
X100330000Y-100330000D03*
%TO.P,PMOD1,8,IOB1*%
%TO.N,unconnected-(PMOD1-Pad8)*%
X100330000Y-102870000D03*
%TO.P,PMOD1,9,IOB2*%
%TO.N,/SCLK*%
X100330000Y-105410000D03*
%TO.P,PMOD1,10,IOB3*%
%TO.N,/~{CS}*%
X100330000Y-107950000D03*
%TO.P,PMOD1,11,GND*%
%TO.N,GND*%
X100330000Y-110490000D03*
%TO.P,PMOD1,12,VCC*%
%TO.N,+3V3*%
X100330000Y-113030000D03*
%TD*%
D12*
%TO.N,GND*%
X109220000Y-114300000D03*
X105410000Y-101600000D03*
X114814398Y-100983713D03*
X114404366Y-107954250D03*
%TD*%
D13*
%TO.N,GND*%
X100330000Y-110490000D02*
X102870000Y-110490000D01*
X109836287Y-100983713D02*
X105410000Y-105410000D01*
X102870000Y-110490000D02*
X105410000Y-110490000D01*
X114814398Y-100983713D02*
X109836287Y-100983713D01*
X105410000Y-105410000D02*
X105410000Y-101600000D01*
X110485750Y-107954250D02*
X106680000Y-111760000D01*
X114404366Y-107954250D02*
X110485750Y-107954250D01*
X105410000Y-110490000D02*
X105410000Y-105410000D01*
X105410000Y-110490000D02*
X106680000Y-111760000D01*
X106680000Y-111760000D02*
X109220000Y-114300000D01*
%TD*%
%TA.AperFunction,Conductor*%
%TO.N,GND*%
G36*
X118813621Y-97048502D02*
G01*
X118860114Y-97102158D01*
X118871500Y-97154500D01*
X118871500Y-116205500D01*
X118851498Y-116273621D01*
X118797842Y-116320114D01*
X118745500Y-116331500D01*
X97154500Y-116331500D01*
X97086379Y-116311498D01*
X97039886Y-116257842D01*
X97028500Y-116205500D01*
X97028500Y-113030000D01*
X99054647Y-113030000D01*
X99074022Y-113251463D01*
X99131560Y-113466196D01*
X99133882Y-113471177D01*
X99133883Y-113471178D01*
X99223186Y-113662689D01*
X99223189Y-113662694D01*
X99225512Y-113667676D01*
X99353023Y-113849781D01*
X99510219Y-114006977D01*
X99514727Y-114010134D01*
X99514730Y-114010136D01*
X99590495Y-114063187D01*
X99692323Y-114134488D01*
X99697305Y-114136811D01*
X99697310Y-114136814D01*
X99888822Y-114226117D01*
X99893804Y-114228440D01*
X99899112Y-114229862D01*
X99899114Y-114229863D01*
X99964949Y-114247503D01*
X100108537Y-114285978D01*
X100330000Y-114305353D01*
X100551463Y-114285978D01*
X100695051Y-114247503D01*
X100760886Y-114229863D01*
X100760888Y-114229862D01*
X100766196Y-114228440D01*
X100771178Y-114226117D01*
X100962690Y-114136814D01*
X100962695Y-114136811D01*
X100967677Y-114134488D01*
X101069505Y-114063187D01*
X101145270Y-114010136D01*
X101145273Y-114010134D01*
X101149781Y-114006977D01*
X101306977Y-113849781D01*
X101434488Y-113667676D01*
X101436811Y-113662694D01*
X101436814Y-113662689D01*
X101485805Y-113557627D01*
X101532723Y-113504342D01*
X101601000Y-113484881D01*
X101668960Y-113505423D01*
X101714195Y-113557627D01*
X101763186Y-113662689D01*
X101763189Y-113662694D01*
X101765512Y-113667676D01*
X101893023Y-113849781D01*
X102050219Y-114006977D01*
X102054727Y-114010134D01*
X102054730Y-114010136D01*
X102130495Y-114063187D01*
X102232323Y-114134488D01*
X102237305Y-114136811D01*
X102237310Y-114136814D01*
X102428822Y-114226117D01*
X102433804Y-114228440D01*
X102439112Y-114229862D01*
X102439114Y-114229863D01*
X102504949Y-114247503D01*
X102648537Y-114285978D01*
X102870000Y-114305353D01*
X103091463Y-114285978D01*
X103235051Y-114247503D01*
X103300886Y-114229863D01*
X103300888Y-114229862D01*
X103306196Y-114228440D01*
X103311178Y-114226117D01*
X103502690Y-114136814D01*
X103502695Y-114136811D01*
X103507677Y-114134488D01*
X103609505Y-114063187D01*
X103685270Y-114010136D01*
X103685273Y-114010134D01*
X103689781Y-114006977D01*
X103846977Y-113849781D01*
X103974488Y-113667676D01*
X103976811Y-113662694D01*
X103976814Y-113662689D01*
X104066117Y-113471178D01*
X104066118Y-113471177D01*
X104068440Y-113466196D01*
X104125978Y-113251463D01*
X104145353Y-113030000D01*
X104125978Y-112808537D01*
X104068440Y-112593804D01*
X104025805Y-112502373D01*
X103976814Y-112397311D01*
X103976811Y-112397306D01*
X103974488Y-112392324D01*
X103846977Y-112210219D01*
X103689781Y-112053023D01*
X103685273Y-112049866D01*
X103685270Y-112049864D01*
X103609505Y-111996813D01*
X103507677Y-111925512D01*
X103502695Y-111923189D01*
X103502690Y-111923186D01*
X103397035Y-111873919D01*
X103343750Y-111827002D01*
X103324289Y-111758725D01*
X103344831Y-111690765D01*
X103397035Y-111645529D01*
X103502445Y-111596376D01*
X103511931Y-111590898D01*
X103555764Y-111560207D01*
X103564139Y-111549729D01*
X103557071Y-111536281D01*
X102882812Y-110862022D01*
X102868868Y-110854408D01*
X102867035Y-110854539D01*
X102860420Y-110858790D01*
X102182207Y-111537003D01*
X102175777Y-111548777D01*
X102185074Y-111560793D01*
X102228069Y-111590898D01*
X102237555Y-111596376D01*
X102342965Y-111645529D01*
X102396250Y-111692446D01*
X102415711Y-111760723D01*
X102395169Y-111828683D01*
X102342965Y-111873919D01*
X102237311Y-111923186D01*
X102237306Y-111923189D01*
X102232324Y-111925512D01*
X102227817Y-111928668D01*
X102227815Y-111928669D01*
X102054730Y-112049864D01*
X102054727Y-112049866D01*
X102050219Y-112053023D01*
X101893023Y-112210219D01*
X101765512Y-112392324D01*
X101763189Y-112397306D01*
X101763186Y-112397311D01*
X101714195Y-112502373D01*
X101667277Y-112555658D01*
X101599000Y-112575119D01*
X101531040Y-112554577D01*
X101485805Y-112502373D01*
X101436814Y-112397311D01*
X101436811Y-112397306D01*
X101434488Y-112392324D01*
X101306977Y-112210219D01*
X101149781Y-112053023D01*
X101145273Y-112049866D01*
X101145270Y-112049864D01*
X101069505Y-111996813D01*
X100967677Y-111925512D01*
X100962695Y-111923189D01*
X100962690Y-111923186D01*
X100857035Y-111873919D01*
X100803750Y-111827002D01*
X100784289Y-111758725D01*
X100804831Y-111690765D01*
X100857035Y-111645529D01*
X100962445Y-111596376D01*
X100971931Y-111590898D01*
X101015764Y-111560207D01*
X101024139Y-111549729D01*
X101017071Y-111536281D01*
X100342812Y-110862022D01*
X100328868Y-110854408D01*
X100327035Y-110854539D01*
X100320420Y-110858790D01*
X99642207Y-111537003D01*
X99635777Y-111548777D01*
X99645074Y-111560793D01*
X99688069Y-111590898D01*
X99697555Y-111596376D01*
X99802965Y-111645529D01*
X99856250Y-111692446D01*
X99875711Y-111760723D01*
X99855169Y-111828683D01*
X99802965Y-111873919D01*
X99697311Y-111923186D01*
X99697306Y-111923189D01*
X99692324Y-111925512D01*
X99687817Y-111928668D01*
X99687815Y-111928669D01*
X99514730Y-112049864D01*
X99514727Y-112049866D01*
X99510219Y-112053023D01*
X99353023Y-112210219D01*
X99225512Y-112392324D01*
X99223189Y-112397306D01*
X99223186Y-112397311D01*
X99174195Y-112502373D01*
X99131560Y-112593804D01*
X99074022Y-112808537D01*
X99054647Y-113030000D01*
X97028500Y-113030000D01*
X97028500Y-110495475D01*
X99055628Y-110495475D01*
X99074038Y-110705896D01*
X99075941Y-110716691D01*
X99130609Y-110920715D01*
X99134355Y-110931007D01*
X99223623Y-111122441D01*
X99229103Y-111131932D01*
X99259794Y-111175765D01*
X99270271Y-111184140D01*
X99283718Y-111177072D01*
X99957978Y-110502812D01*
X99964356Y-110491132D01*
X100694408Y-110491132D01*
X100694539Y-110492965D01*
X100698790Y-110499580D01*
X101377003Y-111177793D01*
X101388777Y-111184223D01*
X101400793Y-111174926D01*
X101430897Y-111131932D01*
X101436377Y-111122441D01*
X101485805Y-111016443D01*
X101532722Y-110963158D01*
X101601000Y-110943697D01*
X101668960Y-110964239D01*
X101714195Y-111016443D01*
X101763623Y-111122441D01*
X101769103Y-111131932D01*
X101799794Y-111175765D01*
X101810271Y-111184140D01*
X101823718Y-111177072D01*
X102497978Y-110502812D01*
X102504356Y-110491132D01*
X103234408Y-110491132D01*
X103234539Y-110492965D01*
X103238790Y-110499580D01*
X103917003Y-111177793D01*
X103928777Y-111184223D01*
X103940793Y-111174926D01*
X103970897Y-111131932D01*
X103976377Y-111122441D01*
X104065645Y-110931007D01*
X104069391Y-110920715D01*
X104124059Y-110716691D01*
X104125962Y-110705896D01*
X104144372Y-110495475D01*
X104144372Y-110484525D01*
X104125962Y-110274104D01*
X104124059Y-110263309D01*
X104069391Y-110059285D01*
X104065645Y-110048993D01*
X103976377Y-109857559D01*
X103970897Y-109848068D01*
X103940206Y-109804235D01*
X103929729Y-109795860D01*
X103916282Y-109802928D01*
X103242022Y-110477188D01*
X103234408Y-110491132D01*
X102504356Y-110491132D01*
X102505592Y-110488868D01*
X102505461Y-110487035D01*
X102501210Y-110480420D01*
X101822997Y-109802207D01*
X101811223Y-109795777D01*
X101799207Y-109805074D01*
X101769103Y-109848068D01*
X101763623Y-109857559D01*
X101714195Y-109963557D01*
X101667278Y-110016842D01*
X101599000Y-110036303D01*
X101531040Y-110015761D01*
X101485805Y-109963557D01*
X101436377Y-109857559D01*
X101430897Y-109848068D01*
X101400206Y-109804235D01*
X101389729Y-109795860D01*
X101376282Y-109802928D01*
X100702022Y-110477188D01*
X100694408Y-110491132D01*
X99964356Y-110491132D01*
X99965592Y-110488868D01*
X99965461Y-110487035D01*
X99961210Y-110480420D01*
X99282997Y-109802207D01*
X99271223Y-109795777D01*
X99259207Y-109805074D01*
X99229103Y-109848068D01*
X99223623Y-109857559D01*
X99134355Y-110048993D01*
X99130609Y-110059285D01*
X99075941Y-110263309D01*
X99074038Y-110274104D01*
X99055628Y-110484525D01*
X99055628Y-110495475D01*
X97028500Y-110495475D01*
X97028500Y-107950000D01*
X99054647Y-107950000D01*
X99074022Y-108171463D01*
X99131560Y-108386196D01*
X99133882Y-108391177D01*
X99133883Y-108391178D01*
X99223186Y-108582689D01*
X99223189Y-108582694D01*
X99225512Y-108587676D01*
X99353023Y-108769781D01*
X99510219Y-108926977D01*
X99514727Y-108930134D01*
X99514730Y-108930136D01*
X99590495Y-108983187D01*
X99692323Y-109054488D01*
X99697305Y-109056811D01*
X99697310Y-109056814D01*
X99802965Y-109106081D01*
X99856250Y-109152998D01*
X99875711Y-109221275D01*
X99855169Y-109289235D01*
X99802965Y-109334471D01*
X99697559Y-109383623D01*
X99688068Y-109389103D01*
X99644235Y-109419794D01*
X99635860Y-109430271D01*
X99642928Y-109443718D01*
X100317188Y-110117978D01*
X100331132Y-110125592D01*
X100332965Y-110125461D01*
X100339580Y-110121210D01*
X101017793Y-109442997D01*
X101024223Y-109431223D01*
X101014926Y-109419207D01*
X100971931Y-109389102D01*
X100962445Y-109383624D01*
X100857035Y-109334471D01*
X100803750Y-109287554D01*
X100784289Y-109219277D01*
X100804831Y-109151317D01*
X100857035Y-109106081D01*
X100962690Y-109056814D01*
X100962695Y-109056811D01*
X100967677Y-109054488D01*
X101069505Y-108983187D01*
X101145270Y-108930136D01*
X101145273Y-108930134D01*
X101149781Y-108926977D01*
X101306977Y-108769781D01*
X101434488Y-108587676D01*
X101436811Y-108582694D01*
X101436814Y-108582689D01*
X101485805Y-108477627D01*
X101532723Y-108424342D01*
X101601000Y-108404881D01*
X101668960Y-108425423D01*
X101714195Y-108477627D01*
X101763186Y-108582689D01*
X101763189Y-108582694D01*
X101765512Y-108587676D01*
X101893023Y-108769781D01*
X102050219Y-108926977D01*
X102054727Y-108930134D01*
X102054730Y-108930136D01*
X102130495Y-108983187D01*
X102232323Y-109054488D01*
X102237305Y-109056811D01*
X102237310Y-109056814D01*
X102342965Y-109106081D01*
X102396250Y-109152998D01*
X102415711Y-109221275D01*
X102395169Y-109289235D01*
X102342965Y-109334471D01*
X102237559Y-109383623D01*
X102228068Y-109389103D01*
X102184235Y-109419794D01*
X102175860Y-109430271D01*
X102182928Y-109443718D01*
X102857188Y-110117978D01*
X102871132Y-110125592D01*
X102872965Y-110125461D01*
X102879580Y-110121210D01*
X103557793Y-109442997D01*
X103564223Y-109431223D01*
X103554926Y-109419207D01*
X103511931Y-109389102D01*
X103502445Y-109383624D01*
X103397035Y-109334471D01*
X103343750Y-109287554D01*
X103324289Y-109219277D01*
X103344831Y-109151317D01*
X103397035Y-109106081D01*
X103502690Y-109056814D01*
X103502695Y-109056811D01*
X103507677Y-109054488D01*
X103609505Y-108983187D01*
X103685270Y-108930136D01*
X103685273Y-108930134D01*
X103689781Y-108926977D01*
X103846977Y-108769781D01*
X103974488Y-108587676D01*
X103976811Y-108582694D01*
X103976814Y-108582689D01*
X104066117Y-108391178D01*
X104066118Y-108391177D01*
X104068440Y-108386196D01*
X104125978Y-108171463D01*
X104145353Y-107950000D01*
X104125978Y-107728537D01*
X104068440Y-107513804D01*
X104025805Y-107422373D01*
X103976814Y-107317311D01*
X103976811Y-107317306D01*
X103974488Y-107312324D01*
X103846977Y-107130219D01*
X103689781Y-106973023D01*
X103685273Y-106969866D01*
X103685270Y-106969864D01*
X103609505Y-106916813D01*
X103507677Y-106845512D01*
X103502695Y-106843189D01*
X103502690Y-106843186D01*
X103397627Y-106794195D01*
X103344342Y-106747278D01*
X103324881Y-106679001D01*
X103345423Y-106611041D01*
X103397627Y-106565805D01*
X103502690Y-106516814D01*
X103502695Y-106516811D01*
X103507677Y-106514488D01*
X103609505Y-106443187D01*
X103685270Y-106390136D01*
X103685273Y-106390134D01*
X103689781Y-106386977D01*
X103846977Y-106229781D01*
X103974488Y-106047676D01*
X103976811Y-106042694D01*
X103976814Y-106042689D01*
X104066117Y-105851178D01*
X104066118Y-105851177D01*
X104068440Y-105846196D01*
X104125978Y-105631463D01*
X104145353Y-105410000D01*
X104125978Y-105188537D01*
X104068440Y-104973804D01*
X104025805Y-104882373D01*
X103976814Y-104777311D01*
X103976811Y-104777306D01*
X103974488Y-104772324D01*
X103846977Y-104590219D01*
X103689781Y-104433023D01*
X103685273Y-104429866D01*
X103685270Y-104429864D01*
X103609505Y-104376813D01*
X103507677Y-104305512D01*
X103502695Y-104303189D01*
X103502690Y-104303186D01*
X103397627Y-104254195D01*
X103344342Y-104207278D01*
X103324881Y-104139001D01*
X103345423Y-104071041D01*
X103397627Y-104025805D01*
X103502690Y-103976814D01*
X103502695Y-103976811D01*
X103507677Y-103974488D01*
X103609505Y-103903187D01*
X103685270Y-103850136D01*
X103685273Y-103850134D01*
X103689781Y-103846977D01*
X103846977Y-103689781D01*
X103974488Y-103507676D01*
X103976811Y-103502694D01*
X103976814Y-103502689D01*
X104066117Y-103311178D01*
X104066118Y-103311177D01*
X104068440Y-103306196D01*
X104125978Y-103091463D01*
X104145353Y-102870000D01*
X104125978Y-102648537D01*
X104068440Y-102433804D01*
X104025805Y-102342373D01*
X103976814Y-102237311D01*
X103976811Y-102237306D01*
X103974488Y-102232324D01*
X103846977Y-102050219D01*
X103689781Y-101893023D01*
X103685273Y-101889866D01*
X103685270Y-101889864D01*
X103599365Y-101829713D01*
X103555037Y-101774256D01*
X103547728Y-101703637D01*
X103579759Y-101640276D01*
X103640960Y-101604291D01*
X103671636Y-101600500D01*
X103680134Y-101600500D01*
X103742316Y-101593745D01*
X103878705Y-101542615D01*
X103995261Y-101455261D01*
X104082615Y-101338705D01*
X104133745Y-101202316D01*
X104140500Y-101140134D01*
X104140500Y-99519866D01*
X104133745Y-99457684D01*
X104082615Y-99321295D01*
X103995261Y-99204739D01*
X103878705Y-99117385D01*
X103742316Y-99066255D01*
X103680134Y-99059500D01*
X102059866Y-99059500D01*
X101997684Y-99066255D01*
X101861295Y-99117385D01*
X101744739Y-99204739D01*
X101657385Y-99321295D01*
X101606255Y-99457684D01*
X101599500Y-99519866D01*
X101599500Y-99528364D01*
X101579498Y-99596485D01*
X101525842Y-99642978D01*
X101455568Y-99653082D01*
X101390988Y-99623588D01*
X101370287Y-99600635D01*
X101310136Y-99514730D01*
X101310134Y-99514727D01*
X101306977Y-99510219D01*
X101149781Y-99353023D01*
X101145273Y-99349866D01*
X101145270Y-99349864D01*
X101069505Y-99296813D01*
X100967677Y-99225512D01*
X100962695Y-99223189D01*
X100962690Y-99223186D01*
X100771178Y-99133883D01*
X100771177Y-99133882D01*
X100766196Y-99131560D01*
X100760888Y-99130138D01*
X100760886Y-99130137D01*
X100695051Y-99112497D01*
X100551463Y-99074022D01*
X100330000Y-99054647D01*
X100108537Y-99074022D01*
X99964949Y-99112497D01*
X99899114Y-99130137D01*
X99899112Y-99130138D01*
X99893804Y-99131560D01*
X99888823Y-99133882D01*
X99888822Y-99133883D01*
X99697311Y-99223186D01*
X99697306Y-99223189D01*
X99692324Y-99225512D01*
X99687817Y-99228668D01*
X99687815Y-99228669D01*
X99514730Y-99349864D01*
X99514727Y-99349866D01*
X99510219Y-99353023D01*
X99353023Y-99510219D01*
X99349866Y-99514727D01*
X99349864Y-99514730D01*
X99292619Y-99596485D01*
X99225512Y-99692324D01*
X99223189Y-99697306D01*
X99223186Y-99697311D01*
X99133883Y-99888822D01*
X99131560Y-99893804D01*
X99074022Y-100108537D01*
X99054647Y-100330000D01*
X99074022Y-100551463D01*
X99131560Y-100766196D01*
X99133882Y-100771177D01*
X99133883Y-100771178D01*
X99223186Y-100962689D01*
X99223189Y-100962694D01*
X99225512Y-100967676D01*
X99228668Y-100972183D01*
X99228669Y-100972185D01*
X99348647Y-101143531D01*
X99353023Y-101149781D01*
X99510219Y-101306977D01*
X99514727Y-101310134D01*
X99514730Y-101310136D01*
X99543523Y-101330297D01*
X99692323Y-101434488D01*
X99697305Y-101436811D01*
X99697310Y-101436814D01*
X99802373Y-101485805D01*
X99855658Y-101532722D01*
X99875119Y-101600999D01*
X99854577Y-101668959D01*
X99802373Y-101714195D01*
X99697311Y-101763186D01*
X99697306Y-101763189D01*
X99692324Y-101765512D01*
X99687817Y-101768668D01*
X99687815Y-101768669D01*
X99514730Y-101889864D01*
X99514727Y-101889866D01*
X99510219Y-101893023D01*
X99353023Y-102050219D01*
X99225512Y-102232324D01*
X99223189Y-102237306D01*
X99223186Y-102237311D01*
X99174195Y-102342373D01*
X99131560Y-102433804D01*
X99074022Y-102648537D01*
X99054647Y-102870000D01*
X99074022Y-103091463D01*
X99131560Y-103306196D01*
X99133882Y-103311177D01*
X99133883Y-103311178D01*
X99223186Y-103502689D01*
X99223189Y-103502694D01*
X99225512Y-103507676D01*
X99353023Y-103689781D01*
X99510219Y-103846977D01*
X99514727Y-103850134D01*
X99514730Y-103850136D01*
X99590495Y-103903187D01*
X99692323Y-103974488D01*
X99697305Y-103976811D01*
X99697310Y-103976814D01*
X99802373Y-104025805D01*
X99855658Y-104072722D01*
X99875119Y-104140999D01*
X99854577Y-104208959D01*
X99802373Y-104254195D01*
X99697311Y-104303186D01*
X99697306Y-104303189D01*
X99692324Y-104305512D01*
X99687817Y-104308668D01*
X99687815Y-104308669D01*
X99514730Y-104429864D01*
X99514727Y-104429866D01*
X99510219Y-104433023D01*
X99353023Y-104590219D01*
X99225512Y-104772324D01*
X99223189Y-104777306D01*
X99223186Y-104777311D01*
X99174195Y-104882373D01*
X99131560Y-104973804D01*
X99074022Y-105188537D01*
X99054647Y-105410000D01*
X99074022Y-105631463D01*
X99131560Y-105846196D01*
X99133882Y-105851177D01*
X99133883Y-105851178D01*
X99223186Y-106042689D01*
X99223189Y-106042694D01*
X99225512Y-106047676D01*
X99353023Y-106229781D01*
X99510219Y-106386977D01*
X99514727Y-106390134D01*
X99514730Y-106390136D01*
X99590495Y-106443187D01*
X99692323Y-106514488D01*
X99697305Y-106516811D01*
X99697310Y-106516814D01*
X99802373Y-106565805D01*
X99855658Y-106612722D01*
X99875119Y-106680999D01*
X99854577Y-106748959D01*
X99802373Y-106794195D01*
X99697311Y-106843186D01*
X99697306Y-106843189D01*
X99692324Y-106845512D01*
X99687817Y-106848668D01*
X99687815Y-106848669D01*
X99514730Y-106969864D01*
X99514727Y-106969866D01*
X99510219Y-106973023D01*
X99353023Y-107130219D01*
X99225512Y-107312324D01*
X99223189Y-107317306D01*
X99223186Y-107317311D01*
X99174195Y-107422373D01*
X99131560Y-107513804D01*
X99074022Y-107728537D01*
X99054647Y-107950000D01*
X97028500Y-107950000D01*
X97028500Y-97154500D01*
X97048502Y-97086379D01*
X97102158Y-97039886D01*
X97154500Y-97028500D01*
X118745500Y-97028500D01*
X118813621Y-97048502D01*
G37*
%TD.AperFunction*%
%TD*%
M02*
