%TF.GenerationSoftware,KiCad,Pcbnew,(6.0.5)*%
%TF.CreationDate,2022-05-30T11:24:42-06:00*%
%TF.ProjectId,PMOD_MEM,504d4f44-5f4d-4454-9d2e-6b696361645f,rev?*%
%TF.SameCoordinates,Original*%
%TF.FileFunction,Legend,Bot*%
%TF.FilePolarity,Positive*%
%FSLAX46Y46*%
G04 Gerber Fmt 4.6, Leading zero omitted, Abs format (unit mm)*
G04 Created by KiCad (PCBNEW (6.0.5)) date 2022-05-30 11:24:42*
%MOMM*%
%LPD*%
G01*
G04 APERTURE LIST*
%ADD10C,0.150000*%
%ADD11C,0.304800*%
%ADD12R,1.524000X1.524000*%
%ADD13C,1.524000*%
G04 APERTURE END LIST*
D10*
%TO.C,PMOD1*%
X107251333Y-112482380D02*
X106918000Y-113482380D01*
X106584666Y-112482380D01*
X105679904Y-113387142D02*
X105727523Y-113434761D01*
X105870380Y-113482380D01*
X105965619Y-113482380D01*
X106108476Y-113434761D01*
X106203714Y-113339523D01*
X106251333Y-113244285D01*
X106298952Y-113053809D01*
X106298952Y-112910952D01*
X106251333Y-112720476D01*
X106203714Y-112625238D01*
X106108476Y-112530000D01*
X105965619Y-112482380D01*
X105870380Y-112482380D01*
X105727523Y-112530000D01*
X105679904Y-112577619D01*
X104679904Y-113387142D02*
X104727523Y-113434761D01*
X104870380Y-113482380D01*
X104965619Y-113482380D01*
X105108476Y-113434761D01*
X105203714Y-113339523D01*
X105251333Y-113244285D01*
X105298952Y-113053809D01*
X105298952Y-112910952D01*
X105251333Y-112720476D01*
X105203714Y-112625238D01*
X105108476Y-112530000D01*
X104965619Y-112482380D01*
X104870380Y-112482380D01*
X104727523Y-112530000D01*
X104679904Y-112577619D01*
X104870285Y-100782380D02*
X105441714Y-100782380D01*
X105156000Y-100782380D02*
X105156000Y-99782380D01*
X105251238Y-99925238D01*
X105346476Y-100020476D01*
X105441714Y-100068095D01*
X106679904Y-109990000D02*
X106775142Y-109942380D01*
X106918000Y-109942380D01*
X107060857Y-109990000D01*
X107156095Y-110085238D01*
X107203714Y-110180476D01*
X107251333Y-110370952D01*
X107251333Y-110513809D01*
X107203714Y-110704285D01*
X107156095Y-110799523D01*
X107060857Y-110894761D01*
X106918000Y-110942380D01*
X106822761Y-110942380D01*
X106679904Y-110894761D01*
X106632285Y-110847142D01*
X106632285Y-110513809D01*
X106822761Y-110513809D01*
X106203714Y-110942380D02*
X106203714Y-109942380D01*
X105632285Y-110942380D01*
X105632285Y-109942380D01*
X105156095Y-110942380D02*
X105156095Y-109942380D01*
X104918000Y-109942380D01*
X104775142Y-109990000D01*
X104679904Y-110085238D01*
X104632285Y-110180476D01*
X104584666Y-110370952D01*
X104584666Y-110513809D01*
X104632285Y-110704285D01*
X104679904Y-110799523D01*
X104775142Y-110894761D01*
X104918000Y-110942380D01*
X105156095Y-110942380D01*
D11*
X99060000Y-99060000D02*
X99060000Y-114300000D01*
X104140000Y-109220000D02*
X99060000Y-109220000D01*
X104140000Y-99060000D02*
X99060000Y-99060000D01*
X99060000Y-114300000D02*
X104140000Y-114300000D01*
X104140000Y-114300000D02*
X104140000Y-99060000D01*
%TD*%
%LPC*%
D12*
%TO.C,PMOD1*%
X102870000Y-100330000D03*
D13*
X102870000Y-102870000D03*
X102870000Y-105410000D03*
X102870000Y-107950000D03*
X102870000Y-110490000D03*
X102870000Y-113030000D03*
X100330000Y-100330000D03*
X100330000Y-102870000D03*
X100330000Y-105410000D03*
X100330000Y-107950000D03*
X100330000Y-110490000D03*
X100330000Y-113030000D03*
%TD*%
M02*
