%FSLAX45Y45*%
G04 Gerber Fmt 4.5, Leading zero omitted, Abs format (unit mm)*
G04 Created by KiCad (PCBNEW (6.0.5)) date 2022-05-30 11:26:54*
%MOMM*%
%LPD*%
G01*
G04 APERTURE LIST*
%TA.AperFunction,Profile*%
%ADD10C,0.100000*%
%TD*%
%ADD11C,0.200000*%
G04 APERTURE END LIST*
D10*
X9652000Y-9652000D02*
X11938000Y-9652000D01*
X11938000Y-9652000D02*
X11938000Y-11684000D01*
X11938000Y-11684000D02*
X9652000Y-11684000D01*
X9652000Y-11684000D02*
X9652000Y-9652000D01*
D11*
X9904619Y-11999476D02*
X9904619Y-11799476D01*
X9952238Y-11799476D01*
X9980810Y-11809000D01*
X9999857Y-11828048D01*
X10009381Y-11847095D01*
X10018905Y-11885190D01*
X10018905Y-11913762D01*
X10009381Y-11951857D01*
X9999857Y-11970905D01*
X9980810Y-11989952D01*
X9952238Y-11999476D01*
X9904619Y-11999476D01*
X10104619Y-11999476D02*
X10104619Y-11866143D01*
X10104619Y-11904238D02*
X10114143Y-11885190D01*
X10123667Y-11875667D01*
X10142714Y-11866143D01*
X10161762Y-11866143D01*
X10228429Y-11999476D02*
X10228429Y-11866143D01*
X10228429Y-11799476D02*
X10218905Y-11809000D01*
X10228429Y-11818524D01*
X10237952Y-11809000D01*
X10228429Y-11799476D01*
X10228429Y-11818524D01*
X10352238Y-11999476D02*
X10333190Y-11989952D01*
X10323667Y-11970905D01*
X10323667Y-11799476D01*
X10457000Y-11999476D02*
X10437952Y-11989952D01*
X10428429Y-11970905D01*
X10428429Y-11799476D01*
X10685571Y-11999476D02*
X10685571Y-11799476D01*
X10752238Y-11942333D01*
X10818905Y-11799476D01*
X10818905Y-11999476D01*
X10999857Y-11999476D02*
X10999857Y-11894714D01*
X10990333Y-11875667D01*
X10971286Y-11866143D01*
X10933190Y-11866143D01*
X10914143Y-11875667D01*
X10999857Y-11989952D02*
X10980810Y-11999476D01*
X10933190Y-11999476D01*
X10914143Y-11989952D01*
X10904619Y-11970905D01*
X10904619Y-11951857D01*
X10914143Y-11932809D01*
X10933190Y-11923286D01*
X10980810Y-11923286D01*
X10999857Y-11913762D01*
X11095095Y-11866143D02*
X11095095Y-12066143D01*
X11095095Y-11875667D02*
X11114143Y-11866143D01*
X11152238Y-11866143D01*
X11171286Y-11875667D01*
X11180810Y-11885190D01*
X11190333Y-11904238D01*
X11190333Y-11961381D01*
X11180810Y-11980428D01*
X11171286Y-11989952D01*
X11152238Y-11999476D01*
X11114143Y-11999476D01*
X11095095Y-11989952D01*
X11276048Y-11980428D02*
X11285571Y-11989952D01*
X11276048Y-11999476D01*
X11266524Y-11989952D01*
X11276048Y-11980428D01*
X11276048Y-11999476D01*
X11276048Y-11875667D02*
X11285571Y-11885190D01*
X11276048Y-11894714D01*
X11266524Y-11885190D01*
X11276048Y-11875667D01*
X11276048Y-11894714D01*
M02*
