%TF.GenerationSoftware,KiCad,Pcbnew,(6.0.5)*%
%TF.CreationDate,2024-01-21T09:56:38+01:00*%
%TF.ProjectId,pmod_audio_mono,706d6f64-5f61-4756-9469-6f5f6d6f6e6f,rev?*%
%TF.SameCoordinates,Original*%
%TF.FileFunction,Legend,Top*%
%TF.FilePolarity,Positive*%
%FSLAX46Y46*%
G04 Gerber Fmt 4.6, Leading zero omitted, Abs format (unit mm)*
G04 Created by KiCad (PCBNEW (6.0.5)) date 2024-01-21 09:56:38*
%MOMM*%
%LPD*%
G01*
G04 APERTURE LIST*
G04 Aperture macros list*
%AMRoundRect*
0 Rectangle with rounded corners*
0 $1 Rounding radius*
0 $2 $3 $4 $5 $6 $7 $8 $9 X,Y pos of 4 corners*
0 Add a 4 corners polygon primitive as box body*
4,1,4,$2,$3,$4,$5,$6,$7,$8,$9,$2,$3,0*
0 Add four circle primitives for the rounded corners*
1,1,$1+$1,$2,$3*
1,1,$1+$1,$4,$5*
1,1,$1+$1,$6,$7*
1,1,$1+$1,$8,$9*
0 Add four rect primitives between the rounded corners*
20,1,$1+$1,$2,$3,$4,$5,0*
20,1,$1+$1,$4,$5,$6,$7,0*
20,1,$1+$1,$6,$7,$8,$9,0*
20,1,$1+$1,$8,$9,$2,$3,0*%
G04 Aperture macros list end*
%ADD10C,0.150000*%
%ADD11C,0.120000*%
%ADD12RoundRect,0.250000X-0.450000X0.262500X-0.450000X-0.262500X0.450000X-0.262500X0.450000X0.262500X0*%
%ADD13R,1.700000X1.700000*%
%ADD14O,1.700000X1.700000*%
%ADD15RoundRect,0.250000X-0.262500X-0.450000X0.262500X-0.450000X0.262500X0.450000X-0.262500X0.450000X0*%
%ADD16RoundRect,0.250000X-0.475000X0.250000X-0.475000X-0.250000X0.475000X-0.250000X0.475000X0.250000X0*%
%ADD17O,2.200000X1.200000*%
%ADD18O,1.200000X2.200000*%
%ADD19RoundRect,0.250000X0.450000X-0.262500X0.450000X0.262500X-0.450000X0.262500X-0.450000X-0.262500X0*%
%ADD20RoundRect,0.250000X-0.650000X0.325000X-0.650000X-0.325000X0.650000X-0.325000X0.650000X0.325000X0*%
G04 APERTURE END LIST*
D10*
%TO.C,R12*%
X154607142Y-91952380D02*
X154273809Y-91476190D01*
X154035714Y-91952380D02*
X154035714Y-90952380D01*
X154416666Y-90952380D01*
X154511904Y-91000000D01*
X154559523Y-91047619D01*
X154607142Y-91142857D01*
X154607142Y-91285714D01*
X154559523Y-91380952D01*
X154511904Y-91428571D01*
X154416666Y-91476190D01*
X154035714Y-91476190D01*
X155559523Y-91952380D02*
X154988095Y-91952380D01*
X155273809Y-91952380D02*
X155273809Y-90952380D01*
X155178571Y-91095238D01*
X155083333Y-91190476D01*
X154988095Y-91238095D01*
X155940476Y-91047619D02*
X155988095Y-91000000D01*
X156083333Y-90952380D01*
X156321428Y-90952380D01*
X156416666Y-91000000D01*
X156464285Y-91047619D01*
X156511904Y-91142857D01*
X156511904Y-91238095D01*
X156464285Y-91380952D01*
X155892857Y-91952380D01*
X156511904Y-91952380D01*
%TO.C,PMOD1*%
X136166666Y-91202380D02*
X136166666Y-90202380D01*
X136547619Y-90202380D01*
X136642857Y-90250000D01*
X136690476Y-90297619D01*
X136738095Y-90392857D01*
X136738095Y-90535714D01*
X136690476Y-90630952D01*
X136642857Y-90678571D01*
X136547619Y-90726190D01*
X136166666Y-90726190D01*
X137166666Y-91202380D02*
X137166666Y-90202380D01*
X137500000Y-90916666D01*
X137833333Y-90202380D01*
X137833333Y-91202380D01*
X138500000Y-90202380D02*
X138690476Y-90202380D01*
X138785714Y-90250000D01*
X138880952Y-90345238D01*
X138928571Y-90535714D01*
X138928571Y-90869047D01*
X138880952Y-91059523D01*
X138785714Y-91154761D01*
X138690476Y-91202380D01*
X138500000Y-91202380D01*
X138404761Y-91154761D01*
X138309523Y-91059523D01*
X138261904Y-90869047D01*
X138261904Y-90535714D01*
X138309523Y-90345238D01*
X138404761Y-90250000D01*
X138500000Y-90202380D01*
X139357142Y-91202380D02*
X139357142Y-90202380D01*
X139595238Y-90202380D01*
X139738095Y-90250000D01*
X139833333Y-90345238D01*
X139880952Y-90440476D01*
X139928571Y-90630952D01*
X139928571Y-90773809D01*
X139880952Y-90964285D01*
X139833333Y-91059523D01*
X139738095Y-91154761D01*
X139595238Y-91202380D01*
X139357142Y-91202380D01*
X140880952Y-91202380D02*
X140309523Y-91202380D01*
X140595238Y-91202380D02*
X140595238Y-90202380D01*
X140500000Y-90345238D01*
X140404761Y-90440476D01*
X140309523Y-90488095D01*
%TO.C,R5*%
X144833333Y-91139880D02*
X144500000Y-90663690D01*
X144261904Y-91139880D02*
X144261904Y-90139880D01*
X144642857Y-90139880D01*
X144738095Y-90187500D01*
X144785714Y-90235119D01*
X144833333Y-90330357D01*
X144833333Y-90473214D01*
X144785714Y-90568452D01*
X144738095Y-90616071D01*
X144642857Y-90663690D01*
X144261904Y-90663690D01*
X145738095Y-90139880D02*
X145261904Y-90139880D01*
X145214285Y-90616071D01*
X145261904Y-90568452D01*
X145357142Y-90520833D01*
X145595238Y-90520833D01*
X145690476Y-90568452D01*
X145738095Y-90616071D01*
X145785714Y-90711309D01*
X145785714Y-90949404D01*
X145738095Y-91044642D01*
X145690476Y-91092261D01*
X145595238Y-91139880D01*
X145357142Y-91139880D01*
X145261904Y-91092261D01*
X145214285Y-91044642D01*
%TO.C,R10*%
X152352380Y-99480357D02*
X151876190Y-99813690D01*
X152352380Y-100051785D02*
X151352380Y-100051785D01*
X151352380Y-99670833D01*
X151400000Y-99575595D01*
X151447619Y-99527976D01*
X151542857Y-99480357D01*
X151685714Y-99480357D01*
X151780952Y-99527976D01*
X151828571Y-99575595D01*
X151876190Y-99670833D01*
X151876190Y-100051785D01*
X152352380Y-98527976D02*
X152352380Y-99099404D01*
X152352380Y-98813690D02*
X151352380Y-98813690D01*
X151495238Y-98908928D01*
X151590476Y-99004166D01*
X151638095Y-99099404D01*
X151352380Y-97908928D02*
X151352380Y-97813690D01*
X151400000Y-97718452D01*
X151447619Y-97670833D01*
X151542857Y-97623214D01*
X151733333Y-97575595D01*
X151971428Y-97575595D01*
X152161904Y-97623214D01*
X152257142Y-97670833D01*
X152304761Y-97718452D01*
X152352380Y-97813690D01*
X152352380Y-97908928D01*
X152304761Y-98004166D01*
X152257142Y-98051785D01*
X152161904Y-98099404D01*
X151971428Y-98147023D01*
X151733333Y-98147023D01*
X151542857Y-98099404D01*
X151447619Y-98051785D01*
X151400000Y-98004166D01*
X151352380Y-97908928D01*
%TO.C,R9*%
X152352380Y-95254166D02*
X151876190Y-95587500D01*
X152352380Y-95825595D02*
X151352380Y-95825595D01*
X151352380Y-95444642D01*
X151400000Y-95349404D01*
X151447619Y-95301785D01*
X151542857Y-95254166D01*
X151685714Y-95254166D01*
X151780952Y-95301785D01*
X151828571Y-95349404D01*
X151876190Y-95444642D01*
X151876190Y-95825595D01*
X152352380Y-94777976D02*
X152352380Y-94587500D01*
X152304761Y-94492261D01*
X152257142Y-94444642D01*
X152114285Y-94349404D01*
X151923809Y-94301785D01*
X151542857Y-94301785D01*
X151447619Y-94349404D01*
X151400000Y-94397023D01*
X151352380Y-94492261D01*
X151352380Y-94682738D01*
X151400000Y-94777976D01*
X151447619Y-94825595D01*
X151542857Y-94873214D01*
X151780952Y-94873214D01*
X151876190Y-94825595D01*
X151923809Y-94777976D01*
X151971428Y-94682738D01*
X151971428Y-94492261D01*
X151923809Y-94397023D01*
X151876190Y-94349404D01*
X151780952Y-94301785D01*
%TO.C,R3*%
X145352380Y-95254166D02*
X144876190Y-95587500D01*
X145352380Y-95825595D02*
X144352380Y-95825595D01*
X144352380Y-95444642D01*
X144400000Y-95349404D01*
X144447619Y-95301785D01*
X144542857Y-95254166D01*
X144685714Y-95254166D01*
X144780952Y-95301785D01*
X144828571Y-95349404D01*
X144876190Y-95444642D01*
X144876190Y-95825595D01*
X144352380Y-94920833D02*
X144352380Y-94301785D01*
X144733333Y-94635119D01*
X144733333Y-94492261D01*
X144780952Y-94397023D01*
X144828571Y-94349404D01*
X144923809Y-94301785D01*
X145161904Y-94301785D01*
X145257142Y-94349404D01*
X145304761Y-94397023D01*
X145352380Y-94492261D01*
X145352380Y-94777976D01*
X145304761Y-94873214D01*
X145257142Y-94920833D01*
%TO.C,R14*%
X158202380Y-97642857D02*
X157726190Y-97976190D01*
X158202380Y-98214285D02*
X157202380Y-98214285D01*
X157202380Y-97833333D01*
X157250000Y-97738095D01*
X157297619Y-97690476D01*
X157392857Y-97642857D01*
X157535714Y-97642857D01*
X157630952Y-97690476D01*
X157678571Y-97738095D01*
X157726190Y-97833333D01*
X157726190Y-98214285D01*
X158202380Y-96690476D02*
X158202380Y-97261904D01*
X158202380Y-96976190D02*
X157202380Y-96976190D01*
X157345238Y-97071428D01*
X157440476Y-97166666D01*
X157488095Y-97261904D01*
X157535714Y-95833333D02*
X158202380Y-95833333D01*
X157154761Y-96071428D02*
X157869047Y-96309523D01*
X157869047Y-95690476D01*
%TO.C,R7*%
X148852380Y-99004166D02*
X148376190Y-99337500D01*
X148852380Y-99575595D02*
X147852380Y-99575595D01*
X147852380Y-99194642D01*
X147900000Y-99099404D01*
X147947619Y-99051785D01*
X148042857Y-99004166D01*
X148185714Y-99004166D01*
X148280952Y-99051785D01*
X148328571Y-99099404D01*
X148376190Y-99194642D01*
X148376190Y-99575595D01*
X147852380Y-98670833D02*
X147852380Y-98004166D01*
X148852380Y-98432738D01*
%TO.C,R2*%
X139952380Y-101666666D02*
X139476190Y-102000000D01*
X139952380Y-102238095D02*
X138952380Y-102238095D01*
X138952380Y-101857142D01*
X139000000Y-101761904D01*
X139047619Y-101714285D01*
X139142857Y-101666666D01*
X139285714Y-101666666D01*
X139380952Y-101714285D01*
X139428571Y-101761904D01*
X139476190Y-101857142D01*
X139476190Y-102238095D01*
X139047619Y-101285714D02*
X139000000Y-101238095D01*
X138952380Y-101142857D01*
X138952380Y-100904761D01*
X139000000Y-100809523D01*
X139047619Y-100761904D01*
X139142857Y-100714285D01*
X139238095Y-100714285D01*
X139380952Y-100761904D01*
X139952380Y-101333333D01*
X139952380Y-100714285D01*
%TO.C,R16*%
X161452380Y-99642857D02*
X160976190Y-99976190D01*
X161452380Y-100214285D02*
X160452380Y-100214285D01*
X160452380Y-99833333D01*
X160500000Y-99738095D01*
X160547619Y-99690476D01*
X160642857Y-99642857D01*
X160785714Y-99642857D01*
X160880952Y-99690476D01*
X160928571Y-99738095D01*
X160976190Y-99833333D01*
X160976190Y-100214285D01*
X161452380Y-98690476D02*
X161452380Y-99261904D01*
X161452380Y-98976190D02*
X160452380Y-98976190D01*
X160595238Y-99071428D01*
X160690476Y-99166666D01*
X160738095Y-99261904D01*
X160452380Y-97833333D02*
X160452380Y-98023809D01*
X160500000Y-98119047D01*
X160547619Y-98166666D01*
X160690476Y-98261904D01*
X160880952Y-98309523D01*
X161261904Y-98309523D01*
X161357142Y-98261904D01*
X161404761Y-98214285D01*
X161452380Y-98119047D01*
X161452380Y-97928571D01*
X161404761Y-97833333D01*
X161357142Y-97785714D01*
X161261904Y-97738095D01*
X161023809Y-97738095D01*
X160928571Y-97785714D01*
X160880952Y-97833333D01*
X160833333Y-97928571D01*
X160833333Y-98119047D01*
X160880952Y-98214285D01*
X160928571Y-98261904D01*
X161023809Y-98309523D01*
%TO.C,R1*%
X140952380Y-92416666D02*
X140476190Y-92750000D01*
X140952380Y-92988095D02*
X139952380Y-92988095D01*
X139952380Y-92607142D01*
X140000000Y-92511904D01*
X140047619Y-92464285D01*
X140142857Y-92416666D01*
X140285714Y-92416666D01*
X140380952Y-92464285D01*
X140428571Y-92511904D01*
X140476190Y-92607142D01*
X140476190Y-92988095D01*
X140952380Y-91464285D02*
X140952380Y-92035714D01*
X140952380Y-91750000D02*
X139952380Y-91750000D01*
X140095238Y-91845238D01*
X140190476Y-91940476D01*
X140238095Y-92035714D01*
%TO.C,R17*%
X161107142Y-101552380D02*
X160773809Y-101076190D01*
X160535714Y-101552380D02*
X160535714Y-100552380D01*
X160916666Y-100552380D01*
X161011904Y-100600000D01*
X161059523Y-100647619D01*
X161107142Y-100742857D01*
X161107142Y-100885714D01*
X161059523Y-100980952D01*
X161011904Y-101028571D01*
X160916666Y-101076190D01*
X160535714Y-101076190D01*
X162059523Y-101552380D02*
X161488095Y-101552380D01*
X161773809Y-101552380D02*
X161773809Y-100552380D01*
X161678571Y-100695238D01*
X161583333Y-100790476D01*
X161488095Y-100838095D01*
X162392857Y-100552380D02*
X163059523Y-100552380D01*
X162630952Y-101552380D01*
%TO.C,R4*%
X145352380Y-99004166D02*
X144876190Y-99337500D01*
X145352380Y-99575595D02*
X144352380Y-99575595D01*
X144352380Y-99194642D01*
X144400000Y-99099404D01*
X144447619Y-99051785D01*
X144542857Y-99004166D01*
X144685714Y-99004166D01*
X144780952Y-99051785D01*
X144828571Y-99099404D01*
X144876190Y-99194642D01*
X144876190Y-99575595D01*
X144685714Y-98147023D02*
X145352380Y-98147023D01*
X144304761Y-98385119D02*
X145019047Y-98623214D01*
X145019047Y-98004166D01*
%TO.C,R8*%
X148333333Y-91139880D02*
X148000000Y-90663690D01*
X147761904Y-91139880D02*
X147761904Y-90139880D01*
X148142857Y-90139880D01*
X148238095Y-90187500D01*
X148285714Y-90235119D01*
X148333333Y-90330357D01*
X148333333Y-90473214D01*
X148285714Y-90568452D01*
X148238095Y-90616071D01*
X148142857Y-90663690D01*
X147761904Y-90663690D01*
X148904761Y-90568452D02*
X148809523Y-90520833D01*
X148761904Y-90473214D01*
X148714285Y-90377976D01*
X148714285Y-90330357D01*
X148761904Y-90235119D01*
X148809523Y-90187500D01*
X148904761Y-90139880D01*
X149095238Y-90139880D01*
X149190476Y-90187500D01*
X149238095Y-90235119D01*
X149285714Y-90330357D01*
X149285714Y-90377976D01*
X149238095Y-90473214D01*
X149190476Y-90520833D01*
X149095238Y-90568452D01*
X148904761Y-90568452D01*
X148809523Y-90616071D01*
X148761904Y-90663690D01*
X148714285Y-90758928D01*
X148714285Y-90949404D01*
X148761904Y-91044642D01*
X148809523Y-91092261D01*
X148904761Y-91139880D01*
X149095238Y-91139880D01*
X149190476Y-91092261D01*
X149238095Y-91044642D01*
X149285714Y-90949404D01*
X149285714Y-90758928D01*
X149238095Y-90663690D01*
X149190476Y-90616071D01*
X149095238Y-90568452D01*
%TO.C,C1*%
X158537142Y-100254166D02*
X158584761Y-100301785D01*
X158632380Y-100444642D01*
X158632380Y-100539880D01*
X158584761Y-100682738D01*
X158489523Y-100777976D01*
X158394285Y-100825595D01*
X158203809Y-100873214D01*
X158060952Y-100873214D01*
X157870476Y-100825595D01*
X157775238Y-100777976D01*
X157680000Y-100682738D01*
X157632380Y-100539880D01*
X157632380Y-100444642D01*
X157680000Y-100301785D01*
X157727619Y-100254166D01*
X158632380Y-99301785D02*
X158632380Y-99873214D01*
X158632380Y-99587500D02*
X157632380Y-99587500D01*
X157775238Y-99682738D01*
X157870476Y-99777976D01*
X157918095Y-99873214D01*
%TO.C,R13*%
X154202380Y-102642857D02*
X153726190Y-102976190D01*
X154202380Y-103214285D02*
X153202380Y-103214285D01*
X153202380Y-102833333D01*
X153250000Y-102738095D01*
X153297619Y-102690476D01*
X153392857Y-102642857D01*
X153535714Y-102642857D01*
X153630952Y-102690476D01*
X153678571Y-102738095D01*
X153726190Y-102833333D01*
X153726190Y-103214285D01*
X154202380Y-101690476D02*
X154202380Y-102261904D01*
X154202380Y-101976190D02*
X153202380Y-101976190D01*
X153345238Y-102071428D01*
X153440476Y-102166666D01*
X153488095Y-102261904D01*
X153202380Y-101357142D02*
X153202380Y-100738095D01*
X153583333Y-101071428D01*
X153583333Y-100928571D01*
X153630952Y-100833333D01*
X153678571Y-100785714D01*
X153773809Y-100738095D01*
X154011904Y-100738095D01*
X154107142Y-100785714D01*
X154154761Y-100833333D01*
X154202380Y-100928571D01*
X154202380Y-101214285D01*
X154154761Y-101309523D01*
X154107142Y-101357142D01*
%TO.C,R18*%
X161107142Y-107202380D02*
X160773809Y-106726190D01*
X160535714Y-107202380D02*
X160535714Y-106202380D01*
X160916666Y-106202380D01*
X161011904Y-106250000D01*
X161059523Y-106297619D01*
X161107142Y-106392857D01*
X161107142Y-106535714D01*
X161059523Y-106630952D01*
X161011904Y-106678571D01*
X160916666Y-106726190D01*
X160535714Y-106726190D01*
X162059523Y-107202380D02*
X161488095Y-107202380D01*
X161773809Y-107202380D02*
X161773809Y-106202380D01*
X161678571Y-106345238D01*
X161583333Y-106440476D01*
X161488095Y-106488095D01*
X162630952Y-106630952D02*
X162535714Y-106583333D01*
X162488095Y-106535714D01*
X162440476Y-106440476D01*
X162440476Y-106392857D01*
X162488095Y-106297619D01*
X162535714Y-106250000D01*
X162630952Y-106202380D01*
X162821428Y-106202380D01*
X162916666Y-106250000D01*
X162964285Y-106297619D01*
X163011904Y-106392857D01*
X163011904Y-106440476D01*
X162964285Y-106535714D01*
X162916666Y-106583333D01*
X162821428Y-106630952D01*
X162630952Y-106630952D01*
X162535714Y-106678571D01*
X162488095Y-106726190D01*
X162440476Y-106821428D01*
X162440476Y-107011904D01*
X162488095Y-107107142D01*
X162535714Y-107154761D01*
X162630952Y-107202380D01*
X162821428Y-107202380D01*
X162916666Y-107154761D01*
X162964285Y-107107142D01*
X163011904Y-107011904D01*
X163011904Y-106821428D01*
X162964285Y-106726190D01*
X162916666Y-106678571D01*
X162821428Y-106630952D01*
%TO.C,J1*%
X170416666Y-91452380D02*
X170416666Y-92166666D01*
X170369047Y-92309523D01*
X170273809Y-92404761D01*
X170130952Y-92452380D01*
X170035714Y-92452380D01*
X171416666Y-92452380D02*
X170845238Y-92452380D01*
X171130952Y-92452380D02*
X171130952Y-91452380D01*
X171035714Y-91595238D01*
X170940476Y-91690476D01*
X170845238Y-91738095D01*
%TO.C,R15*%
X162357142Y-92702380D02*
X162023809Y-92226190D01*
X161785714Y-92702380D02*
X161785714Y-91702380D01*
X162166666Y-91702380D01*
X162261904Y-91750000D01*
X162309523Y-91797619D01*
X162357142Y-91892857D01*
X162357142Y-92035714D01*
X162309523Y-92130952D01*
X162261904Y-92178571D01*
X162166666Y-92226190D01*
X161785714Y-92226190D01*
X163309523Y-92702380D02*
X162738095Y-92702380D01*
X163023809Y-92702380D02*
X163023809Y-91702380D01*
X162928571Y-91845238D01*
X162833333Y-91940476D01*
X162738095Y-91988095D01*
X164214285Y-91702380D02*
X163738095Y-91702380D01*
X163690476Y-92178571D01*
X163738095Y-92130952D01*
X163833333Y-92083333D01*
X164071428Y-92083333D01*
X164166666Y-92130952D01*
X164214285Y-92178571D01*
X164261904Y-92273809D01*
X164261904Y-92511904D01*
X164214285Y-92607142D01*
X164166666Y-92654761D01*
X164071428Y-92702380D01*
X163833333Y-92702380D01*
X163738095Y-92654761D01*
X163690476Y-92607142D01*
%TO.C,C2*%
X159857142Y-97916666D02*
X159904761Y-97964285D01*
X159952380Y-98107142D01*
X159952380Y-98202380D01*
X159904761Y-98345238D01*
X159809523Y-98440476D01*
X159714285Y-98488095D01*
X159523809Y-98535714D01*
X159380952Y-98535714D01*
X159190476Y-98488095D01*
X159095238Y-98440476D01*
X159000000Y-98345238D01*
X158952380Y-98202380D01*
X158952380Y-98107142D01*
X159000000Y-97964285D01*
X159047619Y-97916666D01*
X159047619Y-97535714D02*
X159000000Y-97488095D01*
X158952380Y-97392857D01*
X158952380Y-97154761D01*
X159000000Y-97059523D01*
X159047619Y-97011904D01*
X159142857Y-96964285D01*
X159238095Y-96964285D01*
X159380952Y-97011904D01*
X159952380Y-97583333D01*
X159952380Y-96964285D01*
%TO.C,R6*%
X148852380Y-95254166D02*
X148376190Y-95587500D01*
X148852380Y-95825595D02*
X147852380Y-95825595D01*
X147852380Y-95444642D01*
X147900000Y-95349404D01*
X147947619Y-95301785D01*
X148042857Y-95254166D01*
X148185714Y-95254166D01*
X148280952Y-95301785D01*
X148328571Y-95349404D01*
X148376190Y-95444642D01*
X148376190Y-95825595D01*
X147852380Y-94397023D02*
X147852380Y-94587500D01*
X147900000Y-94682738D01*
X147947619Y-94730357D01*
X148090476Y-94825595D01*
X148280952Y-94873214D01*
X148661904Y-94873214D01*
X148757142Y-94825595D01*
X148804761Y-94777976D01*
X148852380Y-94682738D01*
X148852380Y-94492261D01*
X148804761Y-94397023D01*
X148757142Y-94349404D01*
X148661904Y-94301785D01*
X148423809Y-94301785D01*
X148328571Y-94349404D01*
X148280952Y-94397023D01*
X148233333Y-94492261D01*
X148233333Y-94682738D01*
X148280952Y-94777976D01*
X148328571Y-94825595D01*
X148423809Y-94873214D01*
%TO.C,R11*%
X151357142Y-91139880D02*
X151023809Y-90663690D01*
X150785714Y-91139880D02*
X150785714Y-90139880D01*
X151166666Y-90139880D01*
X151261904Y-90187500D01*
X151309523Y-90235119D01*
X151357142Y-90330357D01*
X151357142Y-90473214D01*
X151309523Y-90568452D01*
X151261904Y-90616071D01*
X151166666Y-90663690D01*
X150785714Y-90663690D01*
X152309523Y-91139880D02*
X151738095Y-91139880D01*
X152023809Y-91139880D02*
X152023809Y-90139880D01*
X151928571Y-90282738D01*
X151833333Y-90377976D01*
X151738095Y-90425595D01*
X153261904Y-91139880D02*
X152690476Y-91139880D01*
X152976190Y-91139880D02*
X152976190Y-90139880D01*
X152880952Y-90282738D01*
X152785714Y-90377976D01*
X152690476Y-90425595D01*
D11*
%TO.C,R12*%
X154485000Y-94860436D02*
X154485000Y-95314564D01*
X153015000Y-94860436D02*
X153015000Y-95314564D01*
%TO.C,PMOD1*%
X130750000Y-97410000D02*
X124750000Y-97410000D01*
X124750000Y-94870000D02*
X124750000Y-95630000D01*
X124750000Y-105030000D02*
X124750000Y-105790000D01*
X130750000Y-99950000D02*
X124750000Y-99950000D01*
X133807071Y-95630000D02*
X133410000Y-95630000D01*
X133410000Y-93980000D02*
X130750000Y-93980000D01*
X130750000Y-92630000D02*
X124750000Y-92630000D01*
X130750000Y-94870000D02*
X124750000Y-94870000D01*
X133807071Y-103250000D02*
X133410000Y-103250000D01*
X133410000Y-101600000D02*
X130750000Y-101600000D01*
X133807071Y-97410000D02*
X133410000Y-97410000D01*
X133807071Y-102490000D02*
X133410000Y-102490000D01*
X133807071Y-100710000D02*
X133410000Y-100710000D01*
X124750000Y-102490000D02*
X124750000Y-103250000D01*
X124750000Y-97410000D02*
X124750000Y-98170000D01*
X133807071Y-99950000D02*
X133410000Y-99950000D01*
X130750000Y-92870000D02*
X124750000Y-92870000D01*
X130750000Y-92510000D02*
X124750000Y-92510000D01*
X130750000Y-106740000D02*
X130750000Y-91380000D01*
X133410000Y-99060000D02*
X130750000Y-99060000D01*
X124750000Y-98170000D02*
X130750000Y-98170000D01*
X124750000Y-103250000D02*
X130750000Y-103250000D01*
X133807071Y-98170000D02*
X133410000Y-98170000D01*
X133740000Y-92330000D02*
X133410000Y-92330000D01*
X130750000Y-91380000D02*
X133410000Y-91380000D01*
X136120000Y-91440000D02*
X134850000Y-91440000D01*
X124750000Y-100710000D02*
X130750000Y-100710000D01*
X130750000Y-102490000D02*
X124750000Y-102490000D01*
X124750000Y-99950000D02*
X124750000Y-100710000D01*
X124750000Y-93090000D02*
X130750000Y-93090000D01*
X133410000Y-104140000D02*
X130750000Y-104140000D01*
X133410000Y-96520000D02*
X130750000Y-96520000D01*
X133807071Y-105030000D02*
X133410000Y-105030000D01*
X124750000Y-92330000D02*
X124750000Y-93090000D01*
X133807071Y-94870000D02*
X133410000Y-94870000D01*
X133410000Y-106740000D02*
X130750000Y-106740000D01*
X133740000Y-93090000D02*
X133410000Y-93090000D01*
X130750000Y-92330000D02*
X124750000Y-92330000D01*
X136120000Y-92710000D02*
X136120000Y-91440000D01*
X130750000Y-92390000D02*
X124750000Y-92390000D01*
X124750000Y-95630000D02*
X130750000Y-95630000D01*
X133410000Y-91380000D02*
X133410000Y-106740000D01*
X130750000Y-92750000D02*
X124750000Y-92750000D01*
X124750000Y-105790000D02*
X130750000Y-105790000D01*
X133807071Y-105790000D02*
X133410000Y-105790000D01*
X130750000Y-92990000D02*
X124750000Y-92990000D01*
X130750000Y-105030000D02*
X124750000Y-105030000D01*
%TO.C,R5*%
X144772936Y-93072500D02*
X145227064Y-93072500D01*
X144772936Y-91602500D02*
X145227064Y-91602500D01*
%TO.C,R10*%
X150985000Y-98610436D02*
X150985000Y-99064564D01*
X149515000Y-98610436D02*
X149515000Y-99064564D01*
%TO.C,R9*%
X149515000Y-94860436D02*
X149515000Y-95314564D01*
X150985000Y-94860436D02*
X150985000Y-95314564D01*
%TO.C,R3*%
X142515000Y-94860436D02*
X142515000Y-95314564D01*
X143985000Y-94860436D02*
X143985000Y-95314564D01*
%TO.C,R14*%
X155765000Y-93610436D02*
X155765000Y-94064564D01*
X157235000Y-93610436D02*
X157235000Y-94064564D01*
%TO.C,R7*%
X146015000Y-98610436D02*
X146015000Y-99064564D01*
X147485000Y-98610436D02*
X147485000Y-99064564D01*
%TO.C,R2*%
X141235000Y-98610436D02*
X141235000Y-99064564D01*
X139765000Y-98610436D02*
X139765000Y-99064564D01*
%TO.C,R16*%
X163235000Y-98772936D02*
X163235000Y-99227064D01*
X161765000Y-98772936D02*
X161765000Y-99227064D01*
%TO.C,R1*%
X141235000Y-94860436D02*
X141235000Y-95314564D01*
X139765000Y-94860436D02*
X139765000Y-95314564D01*
%TO.C,R17*%
X161522936Y-103485000D02*
X161977064Y-103485000D01*
X161522936Y-102015000D02*
X161977064Y-102015000D01*
%TO.C,R4*%
X142515000Y-98610436D02*
X142515000Y-99064564D01*
X143985000Y-98610436D02*
X143985000Y-99064564D01*
%TO.C,R8*%
X148272936Y-91602500D02*
X148727064Y-91602500D01*
X148272936Y-93072500D02*
X148727064Y-93072500D01*
%TO.C,C1*%
X155765000Y-99826248D02*
X155765000Y-100348752D01*
X157235000Y-99826248D02*
X157235000Y-100348752D01*
%TO.C,R13*%
X153015000Y-98610436D02*
X153015000Y-99064564D01*
X154485000Y-98610436D02*
X154485000Y-99064564D01*
%TO.C,R18*%
X161522936Y-105735000D02*
X161977064Y-105735000D01*
X161522936Y-104265000D02*
X161977064Y-104265000D01*
%TO.C,J1*%
X175300000Y-101000000D02*
X178300000Y-101000000D01*
X164300000Y-105000000D02*
X164300000Y-93000000D01*
X175300000Y-94500000D02*
X176500000Y-94500000D01*
X164300000Y-93000000D02*
X175300000Y-93000000D01*
X175300000Y-93000000D02*
X175300000Y-94500000D01*
X176500000Y-102000000D02*
X176500000Y-103500000D01*
X175300000Y-105000000D02*
X164300000Y-105000000D01*
X176500000Y-103500000D02*
X175300000Y-103500000D01*
X176500000Y-96000000D02*
X178300000Y-96000000D01*
X178300000Y-96000000D02*
X178300000Y-102000000D01*
X175300000Y-97000000D02*
X175300000Y-101000000D01*
X176500000Y-94500000D02*
X176500000Y-96000000D01*
X175300000Y-103500000D02*
X175300000Y-105000000D01*
X178300000Y-102000000D02*
X176500000Y-102000000D01*
X178300000Y-97000000D02*
X175300000Y-97000000D01*
%TO.C,R15*%
X163235000Y-95227064D02*
X163235000Y-94772936D01*
X161765000Y-95227064D02*
X161765000Y-94772936D01*
%TO.C,C2*%
X160410000Y-93788748D02*
X160410000Y-95211252D01*
X158590000Y-93788748D02*
X158590000Y-95211252D01*
%TO.C,R6*%
X147485000Y-94860436D02*
X147485000Y-95314564D01*
X146015000Y-94860436D02*
X146015000Y-95314564D01*
%TO.C,R11*%
X151772936Y-91602500D02*
X152227064Y-91602500D01*
X151772936Y-93072500D02*
X152227064Y-93072500D01*
%TD*%
%LPC*%
D12*
%TO.C,R12*%
X153750000Y-94175000D03*
X153750000Y-96000000D03*
%TD*%
D13*
%TO.C,PMOD1*%
X134850000Y-92710000D03*
D14*
X134850000Y-95250000D03*
X134850000Y-97790000D03*
X134850000Y-100330000D03*
X134850000Y-102870000D03*
X134850000Y-105410000D03*
%TD*%
D15*
%TO.C,R5*%
X144087500Y-92337500D03*
X145912500Y-92337500D03*
%TD*%
D12*
%TO.C,R10*%
X150250000Y-97925000D03*
X150250000Y-99750000D03*
%TD*%
%TO.C,R9*%
X150250000Y-94175000D03*
X150250000Y-96000000D03*
%TD*%
%TO.C,R3*%
X143250000Y-94175000D03*
X143250000Y-96000000D03*
%TD*%
%TO.C,R14*%
X156500000Y-92925000D03*
X156500000Y-94750000D03*
%TD*%
%TO.C,R7*%
X146750000Y-97925000D03*
X146750000Y-99750000D03*
%TD*%
%TO.C,R2*%
X140500000Y-97925000D03*
X140500000Y-99750000D03*
%TD*%
%TO.C,R16*%
X162500000Y-98087500D03*
X162500000Y-99912500D03*
%TD*%
%TO.C,R1*%
X140500000Y-94175000D03*
X140500000Y-96000000D03*
%TD*%
D15*
%TO.C,R17*%
X160837500Y-102750000D03*
X162662500Y-102750000D03*
%TD*%
D12*
%TO.C,R4*%
X143250000Y-97925000D03*
X143250000Y-99750000D03*
%TD*%
D15*
%TO.C,R8*%
X147587500Y-92337500D03*
X149412500Y-92337500D03*
%TD*%
D16*
%TO.C,C1*%
X156500000Y-99137500D03*
X156500000Y-101037500D03*
%TD*%
D12*
%TO.C,R13*%
X153750000Y-97925000D03*
X153750000Y-99750000D03*
%TD*%
D15*
%TO.C,R18*%
X160837500Y-105000000D03*
X162662500Y-105000000D03*
%TD*%
D17*
%TO.C,J1*%
X167000000Y-104000000D03*
X167000000Y-101500000D03*
D18*
X172000000Y-99000000D03*
D17*
X167000000Y-94000000D03*
X167000000Y-96500000D03*
%TD*%
D19*
%TO.C,R15*%
X162500000Y-95912500D03*
X162500000Y-94087500D03*
%TD*%
D20*
%TO.C,C2*%
X159500000Y-93025000D03*
X159500000Y-95975000D03*
%TD*%
D12*
%TO.C,R6*%
X146750000Y-94175000D03*
X146750000Y-96000000D03*
%TD*%
D15*
%TO.C,R11*%
X151087500Y-92337500D03*
X152912500Y-92337500D03*
%TD*%
M02*
