%FSLAX45Y45*%
G04 Gerber Fmt 4.5, Leading zero omitted, Abs format (unit mm)*
G04 Created by KiCad (PCBNEW (6.0.5)) date 2024-01-21 09:57:32*
%MOMM*%
%LPD*%
G01*
G04 APERTURE LIST*
%TA.AperFunction,Profile*%
%ADD10C,0.100000*%
%TD*%
%ADD11C,0.200000*%
%ADD12C,0.040000*%
%ADD13C,0.100000*%
G04 APERTURE END LIST*
D10*
X13550000Y-10825000D02*
X13225000Y-10825000D01*
X17650000Y-10825000D02*
X17650000Y-10550000D01*
X16825000Y-9000000D02*
X17650000Y-9000000D01*
X13225000Y-9000000D02*
X13225000Y-9025000D01*
X17650000Y-9000000D02*
X17650000Y-9250000D01*
X16825000Y-9000000D02*
X13550000Y-9000000D01*
X13550000Y-9000000D02*
X13225000Y-9000000D01*
X16825000Y-10825000D02*
X17650000Y-10825000D01*
X13225000Y-9025000D02*
X13225000Y-10825000D01*
X13550000Y-10825000D02*
X16825000Y-10825000D01*
D11*
D12*
X14055000Y-10105000D02*
X14095000Y-10145000D01*
X14095000Y-10105000D02*
X14055000Y-10145000D01*
X15630000Y-9630000D02*
X15670000Y-9670000D01*
X15670000Y-9630000D02*
X15630000Y-9670000D01*
X15630000Y-10255000D02*
X15670000Y-10295000D01*
X15670000Y-10255000D02*
X15630000Y-10295000D01*
X15905000Y-10355000D02*
X15945000Y-10395000D01*
X15945000Y-10355000D02*
X15905000Y-10395000D01*
X16720000Y-9400000D02*
G75*
G03*
X16720000Y-9400000I-20000J0D01*
G01*
D11*
X16750000Y-9390000D02*
X16650000Y-9390000D01*
X16750000Y-9410000D02*
X16650000Y-9410000D01*
X16650000Y-9390000D02*
G75*
G03*
X16650000Y-9410000I0J-10000D01*
G01*
X16750000Y-9410000D02*
G75*
G03*
X16750000Y-9390000I0J10000D01*
G01*
D12*
X16720000Y-9650000D02*
G75*
G03*
X16720000Y-9650000I-20000J0D01*
G01*
D11*
X16750000Y-9640000D02*
X16650000Y-9640000D01*
X16750000Y-9660000D02*
X16650000Y-9660000D01*
X16650000Y-9640000D02*
G75*
G03*
X16650000Y-9660000I0J-10000D01*
G01*
X16750000Y-9660000D02*
G75*
G03*
X16750000Y-9640000I0J10000D01*
G01*
D12*
X16720000Y-10150000D02*
G75*
G03*
X16720000Y-10150000I-20000J0D01*
G01*
D11*
X16650000Y-10160000D02*
X16750000Y-10160000D01*
X16650000Y-10140000D02*
X16750000Y-10140000D01*
X16750000Y-10160000D02*
G75*
G03*
X16750000Y-10140000I0J10000D01*
G01*
X16650000Y-10140000D02*
G75*
G03*
X16650000Y-10160000I0J-10000D01*
G01*
D12*
X16720000Y-10400000D02*
G75*
G03*
X16720000Y-10400000I-20000J0D01*
G01*
D11*
X16650000Y-10410000D02*
X16750000Y-10410000D01*
X16650000Y-10390000D02*
X16750000Y-10390000D01*
X16750000Y-10410000D02*
G75*
G03*
X16750000Y-10390000I0J10000D01*
G01*
X16650000Y-10390000D02*
G75*
G03*
X16650000Y-10410000I0J-10000D01*
G01*
D12*
X17220000Y-9900000D02*
G75*
G03*
X17220000Y-9900000I-20000J0D01*
G01*
D11*
X17210000Y-9950000D02*
X17210000Y-9850000D01*
X17190000Y-9950000D02*
X17190000Y-9850000D01*
X17210000Y-9850000D02*
G75*
G03*
X17190000Y-9850000I-10000J0D01*
G01*
X17190000Y-9950000D02*
G75*
G03*
X17210000Y-9950000I10000J0D01*
G01*
D13*
X13485000Y-9221000D02*
X13485000Y-9321000D01*
X13435000Y-9271000D02*
X13535000Y-9271000D01*
X13485000Y-9475000D02*
X13485000Y-9575000D01*
X13435000Y-9525000D02*
X13535000Y-9525000D01*
X13485000Y-9729000D02*
X13485000Y-9829000D01*
X13435000Y-9779000D02*
X13535000Y-9779000D01*
X13485000Y-9983000D02*
X13485000Y-10083000D01*
X13435000Y-10033000D02*
X13535000Y-10033000D01*
X13485000Y-10237000D02*
X13485000Y-10337000D01*
X13435000Y-10287000D02*
X13535000Y-10287000D01*
X13485000Y-10491000D02*
X13485000Y-10591000D01*
X13435000Y-10541000D02*
X13535000Y-10541000D01*
D11*
X13477619Y-11140476D02*
X13477619Y-10940476D01*
X13525238Y-10940476D01*
X13553809Y-10950000D01*
X13572857Y-10969048D01*
X13582381Y-10988095D01*
X13591905Y-11026190D01*
X13591905Y-11054762D01*
X13582381Y-11092857D01*
X13572857Y-11111905D01*
X13553809Y-11130952D01*
X13525238Y-11140476D01*
X13477619Y-11140476D01*
X13677619Y-11140476D02*
X13677619Y-11007143D01*
X13677619Y-11045238D02*
X13687143Y-11026190D01*
X13696667Y-11016667D01*
X13715714Y-11007143D01*
X13734762Y-11007143D01*
X13801428Y-11140476D02*
X13801428Y-11007143D01*
X13801428Y-10940476D02*
X13791905Y-10950000D01*
X13801428Y-10959524D01*
X13810952Y-10950000D01*
X13801428Y-10940476D01*
X13801428Y-10959524D01*
X13925238Y-11140476D02*
X13906190Y-11130952D01*
X13896667Y-11111905D01*
X13896667Y-10940476D01*
X14030000Y-11140476D02*
X14010952Y-11130952D01*
X14001428Y-11111905D01*
X14001428Y-10940476D01*
X14258571Y-11140476D02*
X14258571Y-10940476D01*
X14325238Y-11083333D01*
X14391905Y-10940476D01*
X14391905Y-11140476D01*
X14572857Y-11140476D02*
X14572857Y-11035714D01*
X14563333Y-11016667D01*
X14544286Y-11007143D01*
X14506190Y-11007143D01*
X14487143Y-11016667D01*
X14572857Y-11130952D02*
X14553809Y-11140476D01*
X14506190Y-11140476D01*
X14487143Y-11130952D01*
X14477619Y-11111905D01*
X14477619Y-11092857D01*
X14487143Y-11073810D01*
X14506190Y-11064286D01*
X14553809Y-11064286D01*
X14572857Y-11054762D01*
X14668095Y-11007143D02*
X14668095Y-11207143D01*
X14668095Y-11016667D02*
X14687143Y-11007143D01*
X14725238Y-11007143D01*
X14744286Y-11016667D01*
X14753809Y-11026190D01*
X14763333Y-11045238D01*
X14763333Y-11102381D01*
X14753809Y-11121429D01*
X14744286Y-11130952D01*
X14725238Y-11140476D01*
X14687143Y-11140476D01*
X14668095Y-11130952D01*
X14849048Y-11121429D02*
X14858571Y-11130952D01*
X14849048Y-11140476D01*
X14839524Y-11130952D01*
X14849048Y-11121429D01*
X14849048Y-11140476D01*
X14849048Y-11016667D02*
X14858571Y-11026190D01*
X14849048Y-11035714D01*
X14839524Y-11026190D01*
X14849048Y-11016667D01*
X14849048Y-11035714D01*
D12*
X13180000Y-11450000D02*
X13220000Y-11490000D01*
X13220000Y-11450000D02*
X13180000Y-11490000D01*
D11*
X13515714Y-11360476D02*
X13534762Y-11360476D01*
X13553809Y-11370000D01*
X13563333Y-11379524D01*
X13572857Y-11398571D01*
X13582381Y-11436667D01*
X13582381Y-11484286D01*
X13572857Y-11522381D01*
X13563333Y-11541428D01*
X13553809Y-11550952D01*
X13534762Y-11560476D01*
X13515714Y-11560476D01*
X13496667Y-11550952D01*
X13487143Y-11541428D01*
X13477619Y-11522381D01*
X13468095Y-11484286D01*
X13468095Y-11436667D01*
X13477619Y-11398571D01*
X13487143Y-11379524D01*
X13496667Y-11370000D01*
X13515714Y-11360476D01*
X13668095Y-11541428D02*
X13677619Y-11550952D01*
X13668095Y-11560476D01*
X13658571Y-11550952D01*
X13668095Y-11541428D01*
X13668095Y-11560476D01*
X13849048Y-11427143D02*
X13849048Y-11560476D01*
X13801428Y-11350952D02*
X13753809Y-11493809D01*
X13877619Y-11493809D01*
X13991905Y-11360476D02*
X14010952Y-11360476D01*
X14030000Y-11370000D01*
X14039524Y-11379524D01*
X14049048Y-11398571D01*
X14058571Y-11436667D01*
X14058571Y-11484286D01*
X14049048Y-11522381D01*
X14039524Y-11541428D01*
X14030000Y-11550952D01*
X14010952Y-11560476D01*
X13991905Y-11560476D01*
X13972857Y-11550952D01*
X13963333Y-11541428D01*
X13953809Y-11522381D01*
X13944286Y-11484286D01*
X13944286Y-11436667D01*
X13953809Y-11398571D01*
X13963333Y-11379524D01*
X13972857Y-11370000D01*
X13991905Y-11360476D01*
X14182381Y-11360476D02*
X14201428Y-11360476D01*
X14220476Y-11370000D01*
X14230000Y-11379524D01*
X14239524Y-11398571D01*
X14249048Y-11436667D01*
X14249048Y-11484286D01*
X14239524Y-11522381D01*
X14230000Y-11541428D01*
X14220476Y-11550952D01*
X14201428Y-11560476D01*
X14182381Y-11560476D01*
X14163333Y-11550952D01*
X14153809Y-11541428D01*
X14144286Y-11522381D01*
X14134762Y-11484286D01*
X14134762Y-11436667D01*
X14144286Y-11398571D01*
X14153809Y-11379524D01*
X14163333Y-11370000D01*
X14182381Y-11360476D01*
X14334762Y-11560476D02*
X14334762Y-11427143D01*
X14334762Y-11446190D02*
X14344286Y-11436667D01*
X14363333Y-11427143D01*
X14391905Y-11427143D01*
X14410952Y-11436667D01*
X14420476Y-11455714D01*
X14420476Y-11560476D01*
X14420476Y-11455714D02*
X14430000Y-11436667D01*
X14449048Y-11427143D01*
X14477619Y-11427143D01*
X14496667Y-11436667D01*
X14506190Y-11455714D01*
X14506190Y-11560476D01*
X14601428Y-11560476D02*
X14601428Y-11427143D01*
X14601428Y-11446190D02*
X14610952Y-11436667D01*
X14630000Y-11427143D01*
X14658571Y-11427143D01*
X14677619Y-11436667D01*
X14687143Y-11455714D01*
X14687143Y-11560476D01*
X14687143Y-11455714D02*
X14696667Y-11436667D01*
X14715714Y-11427143D01*
X14744286Y-11427143D01*
X14763333Y-11436667D01*
X14772857Y-11455714D01*
X14772857Y-11560476D01*
X15163333Y-11350952D02*
X14991905Y-11608095D01*
X15420476Y-11360476D02*
X15439524Y-11360476D01*
X15458571Y-11370000D01*
X15468095Y-11379524D01*
X15477619Y-11398571D01*
X15487143Y-11436667D01*
X15487143Y-11484286D01*
X15477619Y-11522381D01*
X15468095Y-11541428D01*
X15458571Y-11550952D01*
X15439524Y-11560476D01*
X15420476Y-11560476D01*
X15401428Y-11550952D01*
X15391905Y-11541428D01*
X15382381Y-11522381D01*
X15372857Y-11484286D01*
X15372857Y-11436667D01*
X15382381Y-11398571D01*
X15391905Y-11379524D01*
X15401428Y-11370000D01*
X15420476Y-11360476D01*
X15572857Y-11541428D02*
X15582381Y-11550952D01*
X15572857Y-11560476D01*
X15563333Y-11550952D01*
X15572857Y-11541428D01*
X15572857Y-11560476D01*
X15706190Y-11360476D02*
X15725238Y-11360476D01*
X15744286Y-11370000D01*
X15753809Y-11379524D01*
X15763333Y-11398571D01*
X15772857Y-11436667D01*
X15772857Y-11484286D01*
X15763333Y-11522381D01*
X15753809Y-11541428D01*
X15744286Y-11550952D01*
X15725238Y-11560476D01*
X15706190Y-11560476D01*
X15687143Y-11550952D01*
X15677619Y-11541428D01*
X15668095Y-11522381D01*
X15658571Y-11484286D01*
X15658571Y-11436667D01*
X15668095Y-11398571D01*
X15677619Y-11379524D01*
X15687143Y-11370000D01*
X15706190Y-11360476D01*
X15963333Y-11560476D02*
X15849048Y-11560476D01*
X15906190Y-11560476D02*
X15906190Y-11360476D01*
X15887143Y-11389048D01*
X15868095Y-11408095D01*
X15849048Y-11417619D01*
X16144286Y-11360476D02*
X16049048Y-11360476D01*
X16039524Y-11455714D01*
X16049048Y-11446190D01*
X16068095Y-11436667D01*
X16115714Y-11436667D01*
X16134762Y-11446190D01*
X16144286Y-11455714D01*
X16153809Y-11474762D01*
X16153809Y-11522381D01*
X16144286Y-11541428D01*
X16134762Y-11550952D01*
X16115714Y-11560476D01*
X16068095Y-11560476D01*
X16049048Y-11550952D01*
X16039524Y-11541428D01*
X16220476Y-11360476D02*
X16353809Y-11360476D01*
X16268095Y-11560476D01*
X16420476Y-11360476D02*
X16420476Y-11398571D01*
X16496667Y-11360476D02*
X16496667Y-11398571D01*
X16791905Y-11636667D02*
X16782381Y-11627143D01*
X16763333Y-11598571D01*
X16753809Y-11579524D01*
X16744286Y-11550952D01*
X16734762Y-11503333D01*
X16734762Y-11465238D01*
X16744286Y-11417619D01*
X16753809Y-11389048D01*
X16763333Y-11370000D01*
X16782381Y-11341428D01*
X16791905Y-11331905D01*
X16953810Y-11427143D02*
X16953810Y-11560476D01*
X16906190Y-11350952D02*
X16858571Y-11493809D01*
X16982381Y-11493809D01*
X17210952Y-11560476D02*
X17210952Y-11360476D01*
X17296667Y-11560476D02*
X17296667Y-11455714D01*
X17287143Y-11436667D01*
X17268095Y-11427143D01*
X17239524Y-11427143D01*
X17220476Y-11436667D01*
X17210952Y-11446190D01*
X17420476Y-11560476D02*
X17401429Y-11550952D01*
X17391905Y-11541428D01*
X17382381Y-11522381D01*
X17382381Y-11465238D01*
X17391905Y-11446190D01*
X17401429Y-11436667D01*
X17420476Y-11427143D01*
X17449048Y-11427143D01*
X17468095Y-11436667D01*
X17477619Y-11446190D01*
X17487143Y-11465238D01*
X17487143Y-11522381D01*
X17477619Y-11541428D01*
X17468095Y-11550952D01*
X17449048Y-11560476D01*
X17420476Y-11560476D01*
X17601429Y-11560476D02*
X17582381Y-11550952D01*
X17572857Y-11531905D01*
X17572857Y-11360476D01*
X17753810Y-11550952D02*
X17734762Y-11560476D01*
X17696667Y-11560476D01*
X17677619Y-11550952D01*
X17668095Y-11531905D01*
X17668095Y-11455714D01*
X17677619Y-11436667D01*
X17696667Y-11427143D01*
X17734762Y-11427143D01*
X17753810Y-11436667D01*
X17763333Y-11455714D01*
X17763333Y-11474762D01*
X17668095Y-11493809D01*
X17839524Y-11550952D02*
X17858571Y-11560476D01*
X17896667Y-11560476D01*
X17915714Y-11550952D01*
X17925238Y-11531905D01*
X17925238Y-11522381D01*
X17915714Y-11503333D01*
X17896667Y-11493809D01*
X17868095Y-11493809D01*
X17849048Y-11484286D01*
X17839524Y-11465238D01*
X17839524Y-11455714D01*
X17849048Y-11436667D01*
X17868095Y-11427143D01*
X17896667Y-11427143D01*
X17915714Y-11436667D01*
X17991905Y-11636667D02*
X18001429Y-11627143D01*
X18020476Y-11598571D01*
X18030000Y-11579524D01*
X18039524Y-11550952D01*
X18049048Y-11503333D01*
X18049048Y-11465238D01*
X18039524Y-11417619D01*
X18030000Y-11389048D01*
X18020476Y-11370000D01*
X18001429Y-11341428D01*
X17991905Y-11331905D01*
D12*
X13220000Y-11734000D02*
G75*
G03*
X13220000Y-11734000I-20000J0D01*
G01*
D11*
X13515714Y-11624476D02*
X13534762Y-11624476D01*
X13553809Y-11634000D01*
X13563333Y-11643524D01*
X13572857Y-11662571D01*
X13582381Y-11700667D01*
X13582381Y-11748286D01*
X13572857Y-11786381D01*
X13563333Y-11805428D01*
X13553809Y-11814952D01*
X13534762Y-11824476D01*
X13515714Y-11824476D01*
X13496667Y-11814952D01*
X13487143Y-11805428D01*
X13477619Y-11786381D01*
X13468095Y-11748286D01*
X13468095Y-11700667D01*
X13477619Y-11662571D01*
X13487143Y-11643524D01*
X13496667Y-11634000D01*
X13515714Y-11624476D01*
X13668095Y-11805428D02*
X13677619Y-11814952D01*
X13668095Y-11824476D01*
X13658571Y-11814952D01*
X13668095Y-11805428D01*
X13668095Y-11824476D01*
X13849048Y-11691143D02*
X13849048Y-11824476D01*
X13801428Y-11614952D02*
X13753809Y-11757809D01*
X13877619Y-11757809D01*
X13991905Y-11624476D02*
X14010952Y-11624476D01*
X14030000Y-11634000D01*
X14039524Y-11643524D01*
X14049048Y-11662571D01*
X14058571Y-11700667D01*
X14058571Y-11748286D01*
X14049048Y-11786381D01*
X14039524Y-11805428D01*
X14030000Y-11814952D01*
X14010952Y-11824476D01*
X13991905Y-11824476D01*
X13972857Y-11814952D01*
X13963333Y-11805428D01*
X13953809Y-11786381D01*
X13944286Y-11748286D01*
X13944286Y-11700667D01*
X13953809Y-11662571D01*
X13963333Y-11643524D01*
X13972857Y-11634000D01*
X13991905Y-11624476D01*
X14182381Y-11624476D02*
X14201428Y-11624476D01*
X14220476Y-11634000D01*
X14230000Y-11643524D01*
X14239524Y-11662571D01*
X14249048Y-11700667D01*
X14249048Y-11748286D01*
X14239524Y-11786381D01*
X14230000Y-11805428D01*
X14220476Y-11814952D01*
X14201428Y-11824476D01*
X14182381Y-11824476D01*
X14163333Y-11814952D01*
X14153809Y-11805428D01*
X14144286Y-11786381D01*
X14134762Y-11748286D01*
X14134762Y-11700667D01*
X14144286Y-11662571D01*
X14153809Y-11643524D01*
X14163333Y-11634000D01*
X14182381Y-11624476D01*
X14334762Y-11824476D02*
X14334762Y-11691143D01*
X14334762Y-11710190D02*
X14344286Y-11700667D01*
X14363333Y-11691143D01*
X14391905Y-11691143D01*
X14410952Y-11700667D01*
X14420476Y-11719714D01*
X14420476Y-11824476D01*
X14420476Y-11719714D02*
X14430000Y-11700667D01*
X14449048Y-11691143D01*
X14477619Y-11691143D01*
X14496667Y-11700667D01*
X14506190Y-11719714D01*
X14506190Y-11824476D01*
X14601428Y-11824476D02*
X14601428Y-11691143D01*
X14601428Y-11710190D02*
X14610952Y-11700667D01*
X14630000Y-11691143D01*
X14658571Y-11691143D01*
X14677619Y-11700667D01*
X14687143Y-11719714D01*
X14687143Y-11824476D01*
X14687143Y-11719714D02*
X14696667Y-11700667D01*
X14715714Y-11691143D01*
X14744286Y-11691143D01*
X14763333Y-11700667D01*
X14772857Y-11719714D01*
X14772857Y-11824476D01*
X15163333Y-11614952D02*
X14991905Y-11872095D01*
X15420476Y-11624476D02*
X15439524Y-11624476D01*
X15458571Y-11634000D01*
X15468095Y-11643524D01*
X15477619Y-11662571D01*
X15487143Y-11700667D01*
X15487143Y-11748286D01*
X15477619Y-11786381D01*
X15468095Y-11805428D01*
X15458571Y-11814952D01*
X15439524Y-11824476D01*
X15420476Y-11824476D01*
X15401428Y-11814952D01*
X15391905Y-11805428D01*
X15382381Y-11786381D01*
X15372857Y-11748286D01*
X15372857Y-11700667D01*
X15382381Y-11662571D01*
X15391905Y-11643524D01*
X15401428Y-11634000D01*
X15420476Y-11624476D01*
X15572857Y-11805428D02*
X15582381Y-11814952D01*
X15572857Y-11824476D01*
X15563333Y-11814952D01*
X15572857Y-11805428D01*
X15572857Y-11824476D01*
X15706190Y-11624476D02*
X15725238Y-11624476D01*
X15744286Y-11634000D01*
X15753809Y-11643524D01*
X15763333Y-11662571D01*
X15772857Y-11700667D01*
X15772857Y-11748286D01*
X15763333Y-11786381D01*
X15753809Y-11805428D01*
X15744286Y-11814952D01*
X15725238Y-11824476D01*
X15706190Y-11824476D01*
X15687143Y-11814952D01*
X15677619Y-11805428D01*
X15668095Y-11786381D01*
X15658571Y-11748286D01*
X15658571Y-11700667D01*
X15668095Y-11662571D01*
X15677619Y-11643524D01*
X15687143Y-11634000D01*
X15706190Y-11624476D01*
X15963333Y-11824476D02*
X15849048Y-11824476D01*
X15906190Y-11824476D02*
X15906190Y-11624476D01*
X15887143Y-11653048D01*
X15868095Y-11672095D01*
X15849048Y-11681619D01*
X16144286Y-11624476D02*
X16049048Y-11624476D01*
X16039524Y-11719714D01*
X16049048Y-11710190D01*
X16068095Y-11700667D01*
X16115714Y-11700667D01*
X16134762Y-11710190D01*
X16144286Y-11719714D01*
X16153809Y-11738762D01*
X16153809Y-11786381D01*
X16144286Y-11805428D01*
X16134762Y-11814952D01*
X16115714Y-11824476D01*
X16068095Y-11824476D01*
X16049048Y-11814952D01*
X16039524Y-11805428D01*
X16220476Y-11624476D02*
X16353809Y-11624476D01*
X16268095Y-11824476D01*
X16420476Y-11624476D02*
X16420476Y-11662571D01*
X16496667Y-11624476D02*
X16496667Y-11662571D01*
X16791905Y-11900667D02*
X16782381Y-11891143D01*
X16763333Y-11862571D01*
X16753809Y-11843524D01*
X16744286Y-11814952D01*
X16734762Y-11767333D01*
X16734762Y-11729238D01*
X16744286Y-11681619D01*
X16753809Y-11653048D01*
X16763333Y-11634000D01*
X16782381Y-11605428D01*
X16791905Y-11595905D01*
X16906190Y-11624476D02*
X16925238Y-11624476D01*
X16944286Y-11634000D01*
X16953810Y-11643524D01*
X16963333Y-11662571D01*
X16972857Y-11700667D01*
X16972857Y-11748286D01*
X16963333Y-11786381D01*
X16953810Y-11805428D01*
X16944286Y-11814952D01*
X16925238Y-11824476D01*
X16906190Y-11824476D01*
X16887143Y-11814952D01*
X16877619Y-11805428D01*
X16868095Y-11786381D01*
X16858571Y-11748286D01*
X16858571Y-11700667D01*
X16868095Y-11662571D01*
X16877619Y-11643524D01*
X16887143Y-11634000D01*
X16906190Y-11624476D01*
X17210952Y-11824476D02*
X17210952Y-11624476D01*
X17296667Y-11824476D02*
X17296667Y-11719714D01*
X17287143Y-11700667D01*
X17268095Y-11691143D01*
X17239524Y-11691143D01*
X17220476Y-11700667D01*
X17210952Y-11710190D01*
X17420476Y-11824476D02*
X17401429Y-11814952D01*
X17391905Y-11805428D01*
X17382381Y-11786381D01*
X17382381Y-11729238D01*
X17391905Y-11710190D01*
X17401429Y-11700667D01*
X17420476Y-11691143D01*
X17449048Y-11691143D01*
X17468095Y-11700667D01*
X17477619Y-11710190D01*
X17487143Y-11729238D01*
X17487143Y-11786381D01*
X17477619Y-11805428D01*
X17468095Y-11814952D01*
X17449048Y-11824476D01*
X17420476Y-11824476D01*
X17601429Y-11824476D02*
X17582381Y-11814952D01*
X17572857Y-11795905D01*
X17572857Y-11624476D01*
X17753810Y-11814952D02*
X17734762Y-11824476D01*
X17696667Y-11824476D01*
X17677619Y-11814952D01*
X17668095Y-11795905D01*
X17668095Y-11719714D01*
X17677619Y-11700667D01*
X17696667Y-11691143D01*
X17734762Y-11691143D01*
X17753810Y-11700667D01*
X17763333Y-11719714D01*
X17763333Y-11738762D01*
X17668095Y-11757809D01*
X17839524Y-11814952D02*
X17858571Y-11824476D01*
X17896667Y-11824476D01*
X17915714Y-11814952D01*
X17925238Y-11795905D01*
X17925238Y-11786381D01*
X17915714Y-11767333D01*
X17896667Y-11757809D01*
X17868095Y-11757809D01*
X17849048Y-11748286D01*
X17839524Y-11729238D01*
X17839524Y-11719714D01*
X17849048Y-11700667D01*
X17868095Y-11691143D01*
X17896667Y-11691143D01*
X17915714Y-11700667D01*
X18163333Y-11748286D02*
X18315714Y-11748286D01*
X18239524Y-11824476D02*
X18239524Y-11672095D01*
X18658571Y-11624476D02*
X18563333Y-11624476D01*
X18553810Y-11719714D01*
X18563333Y-11710190D01*
X18582381Y-11700667D01*
X18630000Y-11700667D01*
X18649048Y-11710190D01*
X18658571Y-11719714D01*
X18668095Y-11738762D01*
X18668095Y-11786381D01*
X18658571Y-11805428D01*
X18649048Y-11814952D01*
X18630000Y-11824476D01*
X18582381Y-11824476D01*
X18563333Y-11814952D01*
X18553810Y-11805428D01*
X18896667Y-11814952D02*
X18915714Y-11824476D01*
X18953810Y-11824476D01*
X18972857Y-11814952D01*
X18982381Y-11795905D01*
X18982381Y-11786381D01*
X18972857Y-11767333D01*
X18953810Y-11757809D01*
X18925238Y-11757809D01*
X18906190Y-11748286D01*
X18896667Y-11729238D01*
X18896667Y-11719714D01*
X18906190Y-11700667D01*
X18925238Y-11691143D01*
X18953810Y-11691143D01*
X18972857Y-11700667D01*
X19096667Y-11824476D02*
X19077619Y-11814952D01*
X19068095Y-11795905D01*
X19068095Y-11624476D01*
X19201429Y-11824476D02*
X19182381Y-11814952D01*
X19172857Y-11805428D01*
X19163333Y-11786381D01*
X19163333Y-11729238D01*
X19172857Y-11710190D01*
X19182381Y-11700667D01*
X19201429Y-11691143D01*
X19230000Y-11691143D01*
X19249048Y-11700667D01*
X19258571Y-11710190D01*
X19268095Y-11729238D01*
X19268095Y-11786381D01*
X19258571Y-11805428D01*
X19249048Y-11814952D01*
X19230000Y-11824476D01*
X19201429Y-11824476D01*
X19325238Y-11691143D02*
X19401429Y-11691143D01*
X19353810Y-11624476D02*
X19353810Y-11795905D01*
X19363333Y-11814952D01*
X19382381Y-11824476D01*
X19401429Y-11824476D01*
X19458571Y-11814952D02*
X19477619Y-11824476D01*
X19515714Y-11824476D01*
X19534762Y-11814952D01*
X19544286Y-11795905D01*
X19544286Y-11786381D01*
X19534762Y-11767333D01*
X19515714Y-11757809D01*
X19487143Y-11757809D01*
X19468095Y-11748286D01*
X19458571Y-11729238D01*
X19458571Y-11719714D01*
X19468095Y-11700667D01*
X19487143Y-11691143D01*
X19515714Y-11691143D01*
X19534762Y-11700667D01*
X19610952Y-11900667D02*
X19620476Y-11891143D01*
X19639524Y-11862571D01*
X19649048Y-11843524D01*
X19658571Y-11814952D01*
X19668095Y-11767333D01*
X19668095Y-11729238D01*
X19658571Y-11681619D01*
X19649048Y-11653048D01*
X19639524Y-11634000D01*
X19620476Y-11605428D01*
X19610952Y-11595905D01*
D13*
X13170000Y-11948000D02*
X13170000Y-12048000D01*
X13120000Y-11998000D02*
X13220000Y-11998000D01*
D11*
X13582381Y-12088476D02*
X13468095Y-12088476D01*
X13525238Y-12088476D02*
X13525238Y-11888476D01*
X13506190Y-11917048D01*
X13487143Y-11936095D01*
X13468095Y-11945619D01*
X13668095Y-12069428D02*
X13677619Y-12078952D01*
X13668095Y-12088476D01*
X13658571Y-12078952D01*
X13668095Y-12069428D01*
X13668095Y-12088476D01*
X13801428Y-11888476D02*
X13820476Y-11888476D01*
X13839524Y-11898000D01*
X13849048Y-11907524D01*
X13858571Y-11926571D01*
X13868095Y-11964667D01*
X13868095Y-12012286D01*
X13858571Y-12050381D01*
X13849048Y-12069428D01*
X13839524Y-12078952D01*
X13820476Y-12088476D01*
X13801428Y-12088476D01*
X13782381Y-12078952D01*
X13772857Y-12069428D01*
X13763333Y-12050381D01*
X13753809Y-12012286D01*
X13753809Y-11964667D01*
X13763333Y-11926571D01*
X13772857Y-11907524D01*
X13782381Y-11898000D01*
X13801428Y-11888476D01*
X13991905Y-11888476D02*
X14010952Y-11888476D01*
X14030000Y-11898000D01*
X14039524Y-11907524D01*
X14049048Y-11926571D01*
X14058571Y-11964667D01*
X14058571Y-12012286D01*
X14049048Y-12050381D01*
X14039524Y-12069428D01*
X14030000Y-12078952D01*
X14010952Y-12088476D01*
X13991905Y-12088476D01*
X13972857Y-12078952D01*
X13963333Y-12069428D01*
X13953809Y-12050381D01*
X13944286Y-12012286D01*
X13944286Y-11964667D01*
X13953809Y-11926571D01*
X13963333Y-11907524D01*
X13972857Y-11898000D01*
X13991905Y-11888476D01*
X14182381Y-11888476D02*
X14201428Y-11888476D01*
X14220476Y-11898000D01*
X14230000Y-11907524D01*
X14239524Y-11926571D01*
X14249048Y-11964667D01*
X14249048Y-12012286D01*
X14239524Y-12050381D01*
X14230000Y-12069428D01*
X14220476Y-12078952D01*
X14201428Y-12088476D01*
X14182381Y-12088476D01*
X14163333Y-12078952D01*
X14153809Y-12069428D01*
X14144286Y-12050381D01*
X14134762Y-12012286D01*
X14134762Y-11964667D01*
X14144286Y-11926571D01*
X14153809Y-11907524D01*
X14163333Y-11898000D01*
X14182381Y-11888476D01*
X14334762Y-12088476D02*
X14334762Y-11955143D01*
X14334762Y-11974190D02*
X14344286Y-11964667D01*
X14363333Y-11955143D01*
X14391905Y-11955143D01*
X14410952Y-11964667D01*
X14420476Y-11983714D01*
X14420476Y-12088476D01*
X14420476Y-11983714D02*
X14430000Y-11964667D01*
X14449048Y-11955143D01*
X14477619Y-11955143D01*
X14496667Y-11964667D01*
X14506190Y-11983714D01*
X14506190Y-12088476D01*
X14601428Y-12088476D02*
X14601428Y-11955143D01*
X14601428Y-11974190D02*
X14610952Y-11964667D01*
X14630000Y-11955143D01*
X14658571Y-11955143D01*
X14677619Y-11964667D01*
X14687143Y-11983714D01*
X14687143Y-12088476D01*
X14687143Y-11983714D02*
X14696667Y-11964667D01*
X14715714Y-11955143D01*
X14744286Y-11955143D01*
X14763333Y-11964667D01*
X14772857Y-11983714D01*
X14772857Y-12088476D01*
X15163333Y-11878952D02*
X14991905Y-12136095D01*
X15420476Y-11888476D02*
X15439524Y-11888476D01*
X15458571Y-11898000D01*
X15468095Y-11907524D01*
X15477619Y-11926571D01*
X15487143Y-11964667D01*
X15487143Y-12012286D01*
X15477619Y-12050381D01*
X15468095Y-12069428D01*
X15458571Y-12078952D01*
X15439524Y-12088476D01*
X15420476Y-12088476D01*
X15401428Y-12078952D01*
X15391905Y-12069428D01*
X15382381Y-12050381D01*
X15372857Y-12012286D01*
X15372857Y-11964667D01*
X15382381Y-11926571D01*
X15391905Y-11907524D01*
X15401428Y-11898000D01*
X15420476Y-11888476D01*
X15572857Y-12069428D02*
X15582381Y-12078952D01*
X15572857Y-12088476D01*
X15563333Y-12078952D01*
X15572857Y-12069428D01*
X15572857Y-12088476D01*
X15706190Y-11888476D02*
X15725238Y-11888476D01*
X15744286Y-11898000D01*
X15753809Y-11907524D01*
X15763333Y-11926571D01*
X15772857Y-11964667D01*
X15772857Y-12012286D01*
X15763333Y-12050381D01*
X15753809Y-12069428D01*
X15744286Y-12078952D01*
X15725238Y-12088476D01*
X15706190Y-12088476D01*
X15687143Y-12078952D01*
X15677619Y-12069428D01*
X15668095Y-12050381D01*
X15658571Y-12012286D01*
X15658571Y-11964667D01*
X15668095Y-11926571D01*
X15677619Y-11907524D01*
X15687143Y-11898000D01*
X15706190Y-11888476D01*
X15839524Y-11888476D02*
X15963333Y-11888476D01*
X15896667Y-11964667D01*
X15925238Y-11964667D01*
X15944286Y-11974190D01*
X15953809Y-11983714D01*
X15963333Y-12002762D01*
X15963333Y-12050381D01*
X15953809Y-12069428D01*
X15944286Y-12078952D01*
X15925238Y-12088476D01*
X15868095Y-12088476D01*
X15849048Y-12078952D01*
X15839524Y-12069428D01*
X16058571Y-12088476D02*
X16096667Y-12088476D01*
X16115714Y-12078952D01*
X16125238Y-12069428D01*
X16144286Y-12040857D01*
X16153809Y-12002762D01*
X16153809Y-11926571D01*
X16144286Y-11907524D01*
X16134762Y-11898000D01*
X16115714Y-11888476D01*
X16077619Y-11888476D01*
X16058571Y-11898000D01*
X16049048Y-11907524D01*
X16039524Y-11926571D01*
X16039524Y-11974190D01*
X16049048Y-11993238D01*
X16058571Y-12002762D01*
X16077619Y-12012286D01*
X16115714Y-12012286D01*
X16134762Y-12002762D01*
X16144286Y-11993238D01*
X16153809Y-11974190D01*
X16325238Y-11955143D02*
X16325238Y-12088476D01*
X16277619Y-11878952D02*
X16230000Y-12021809D01*
X16353809Y-12021809D01*
X16420476Y-11888476D02*
X16420476Y-11926571D01*
X16496667Y-11888476D02*
X16496667Y-11926571D01*
X16791905Y-12164667D02*
X16782381Y-12155143D01*
X16763333Y-12126571D01*
X16753809Y-12107524D01*
X16744286Y-12078952D01*
X16734762Y-12031333D01*
X16734762Y-11993238D01*
X16744286Y-11945619D01*
X16753809Y-11917048D01*
X16763333Y-11898000D01*
X16782381Y-11869428D01*
X16791905Y-11859905D01*
X16953810Y-11888476D02*
X16915714Y-11888476D01*
X16896667Y-11898000D01*
X16887143Y-11907524D01*
X16868095Y-11936095D01*
X16858571Y-11974190D01*
X16858571Y-12050381D01*
X16868095Y-12069428D01*
X16877619Y-12078952D01*
X16896667Y-12088476D01*
X16934762Y-12088476D01*
X16953810Y-12078952D01*
X16963333Y-12069428D01*
X16972857Y-12050381D01*
X16972857Y-12002762D01*
X16963333Y-11983714D01*
X16953810Y-11974190D01*
X16934762Y-11964667D01*
X16896667Y-11964667D01*
X16877619Y-11974190D01*
X16868095Y-11983714D01*
X16858571Y-12002762D01*
X17210952Y-12088476D02*
X17210952Y-11888476D01*
X17296667Y-12088476D02*
X17296667Y-11983714D01*
X17287143Y-11964667D01*
X17268095Y-11955143D01*
X17239524Y-11955143D01*
X17220476Y-11964667D01*
X17210952Y-11974190D01*
X17420476Y-12088476D02*
X17401429Y-12078952D01*
X17391905Y-12069428D01*
X17382381Y-12050381D01*
X17382381Y-11993238D01*
X17391905Y-11974190D01*
X17401429Y-11964667D01*
X17420476Y-11955143D01*
X17449048Y-11955143D01*
X17468095Y-11964667D01*
X17477619Y-11974190D01*
X17487143Y-11993238D01*
X17487143Y-12050381D01*
X17477619Y-12069428D01*
X17468095Y-12078952D01*
X17449048Y-12088476D01*
X17420476Y-12088476D01*
X17601429Y-12088476D02*
X17582381Y-12078952D01*
X17572857Y-12059905D01*
X17572857Y-11888476D01*
X17753810Y-12078952D02*
X17734762Y-12088476D01*
X17696667Y-12088476D01*
X17677619Y-12078952D01*
X17668095Y-12059905D01*
X17668095Y-11983714D01*
X17677619Y-11964667D01*
X17696667Y-11955143D01*
X17734762Y-11955143D01*
X17753810Y-11964667D01*
X17763333Y-11983714D01*
X17763333Y-12002762D01*
X17668095Y-12021809D01*
X17839524Y-12078952D02*
X17858571Y-12088476D01*
X17896667Y-12088476D01*
X17915714Y-12078952D01*
X17925238Y-12059905D01*
X17925238Y-12050381D01*
X17915714Y-12031333D01*
X17896667Y-12021809D01*
X17868095Y-12021809D01*
X17849048Y-12012286D01*
X17839524Y-11993238D01*
X17839524Y-11983714D01*
X17849048Y-11964667D01*
X17868095Y-11955143D01*
X17896667Y-11955143D01*
X17915714Y-11964667D01*
X17991905Y-12164667D02*
X18001429Y-12155143D01*
X18020476Y-12126571D01*
X18030000Y-12107524D01*
X18039524Y-12078952D01*
X18049048Y-12031333D01*
X18049048Y-11993238D01*
X18039524Y-11945619D01*
X18030000Y-11917048D01*
X18020476Y-11898000D01*
X18001429Y-11869428D01*
X17991905Y-11859905D01*
M02*
