%TF.GenerationSoftware,KiCad,Pcbnew,(6.0.5)*%
%TF.CreationDate,2024-01-21T09:56:38+01:00*%
%TF.ProjectId,pmod_audio_mono,706d6f64-5f61-4756-9469-6f5f6d6f6e6f,rev?*%
%TF.SameCoordinates,Original*%
%TF.FileFunction,Copper,L1,Top*%
%TF.FilePolarity,Positive*%
%FSLAX46Y46*%
G04 Gerber Fmt 4.6, Leading zero omitted, Abs format (unit mm)*
G04 Created by KiCad (PCBNEW (6.0.5)) date 2024-01-21 09:56:38*
%MOMM*%
%LPD*%
G01*
G04 APERTURE LIST*
G04 Aperture macros list*
%AMRoundRect*
0 Rectangle with rounded corners*
0 $1 Rounding radius*
0 $2 $3 $4 $5 $6 $7 $8 $9 X,Y pos of 4 corners*
0 Add a 4 corners polygon primitive as box body*
4,1,4,$2,$3,$4,$5,$6,$7,$8,$9,$2,$3,0*
0 Add four circle primitives for the rounded corners*
1,1,$1+$1,$2,$3*
1,1,$1+$1,$4,$5*
1,1,$1+$1,$6,$7*
1,1,$1+$1,$8,$9*
0 Add four rect primitives between the rounded corners*
20,1,$1+$1,$2,$3,$4,$5,0*
20,1,$1+$1,$4,$5,$6,$7,0*
20,1,$1+$1,$6,$7,$8,$9,0*
20,1,$1+$1,$8,$9,$2,$3,0*%
G04 Aperture macros list end*
%TA.AperFunction,SMDPad,CuDef*%
%ADD10RoundRect,0.250000X-0.450000X0.262500X-0.450000X-0.262500X0.450000X-0.262500X0.450000X0.262500X0*%
%TD*%
%TA.AperFunction,ComponentPad*%
%ADD11R,1.700000X1.700000*%
%TD*%
%TA.AperFunction,ComponentPad*%
%ADD12O,1.700000X1.700000*%
%TD*%
%TA.AperFunction,SMDPad,CuDef*%
%ADD13RoundRect,0.250000X-0.262500X-0.450000X0.262500X-0.450000X0.262500X0.450000X-0.262500X0.450000X0*%
%TD*%
%TA.AperFunction,SMDPad,CuDef*%
%ADD14RoundRect,0.250000X-0.475000X0.250000X-0.475000X-0.250000X0.475000X-0.250000X0.475000X0.250000X0*%
%TD*%
%TA.AperFunction,ComponentPad*%
%ADD15O,2.200000X1.200000*%
%TD*%
%TA.AperFunction,ComponentPad*%
%ADD16O,1.200000X2.200000*%
%TD*%
%TA.AperFunction,SMDPad,CuDef*%
%ADD17RoundRect,0.250000X0.450000X-0.262500X0.450000X0.262500X-0.450000X0.262500X-0.450000X-0.262500X0*%
%TD*%
%TA.AperFunction,SMDPad,CuDef*%
%ADD18RoundRect,0.250000X-0.650000X0.325000X-0.650000X-0.325000X0.650000X-0.325000X0.650000X0.325000X0*%
%TD*%
%TA.AperFunction,ViaPad*%
%ADD19C,0.800000*%
%TD*%
%TA.AperFunction,Conductor*%
%ADD20C,0.600000*%
%TD*%
G04 APERTURE END LIST*
D10*
%TO.P,R12,1*%
%TO.N,Net-(C1-Pad1)*%
X153750000Y-94175000D03*
%TO.P,R12,2*%
%TO.N,Net-(R12-Pad2)*%
X153750000Y-96000000D03*
%TD*%
D11*
%TO.P,PMOD1,1,IO0*%
%TO.N,Net-(PMOD1-Pad1)*%
X134850000Y-92710000D03*
D12*
%TO.P,PMOD1,2,IO1*%
%TO.N,Net-(PMOD1-Pad2)*%
X134850000Y-95250000D03*
%TO.P,PMOD1,3,IO2*%
%TO.N,Net-(PMOD1-Pad3)*%
X134850000Y-97790000D03*
%TO.P,PMOD1,4,IO3*%
%TO.N,Net-(PMOD1-Pad4)*%
X134850000Y-100330000D03*
%TO.P,PMOD1,5,GND*%
%TO.N,GND*%
X134850000Y-102870000D03*
%TO.P,PMOD1,6,VCC*%
%TO.N,unconnected-(PMOD1-Pad6)*%
X134850000Y-105410000D03*
%TD*%
D13*
%TO.P,R5,1*%
%TO.N,Net-(R1-Pad1)*%
X144087500Y-92337500D03*
%TO.P,R5,2*%
%TO.N,Net-(R5-Pad2)*%
X145912500Y-92337500D03*
%TD*%
D10*
%TO.P,R10,1*%
%TO.N,Net-(R10-Pad1)*%
X150250000Y-97925000D03*
%TO.P,R10,2*%
%TO.N,Net-(PMOD1-Pad3)*%
X150250000Y-99750000D03*
%TD*%
%TO.P,R9,1*%
%TO.N,Net-(R11-Pad1)*%
X150250000Y-94175000D03*
%TO.P,R9,2*%
%TO.N,Net-(R10-Pad1)*%
X150250000Y-96000000D03*
%TD*%
%TO.P,R3,1*%
%TO.N,Net-(R1-Pad1)*%
X143250000Y-94175000D03*
%TO.P,R3,2*%
%TO.N,Net-(R3-Pad2)*%
X143250000Y-96000000D03*
%TD*%
%TO.P,R14,1*%
%TO.N,Net-(C1-Pad1)*%
X156500000Y-92925000D03*
%TO.P,R14,2*%
%TO.N,GND*%
X156500000Y-94750000D03*
%TD*%
%TO.P,R7,1*%
%TO.N,Net-(R6-Pad2)*%
X146750000Y-97925000D03*
%TO.P,R7,2*%
%TO.N,Net-(PMOD1-Pad2)*%
X146750000Y-99750000D03*
%TD*%
%TO.P,R2,1*%
%TO.N,Net-(R1-Pad2)*%
X140500000Y-97925000D03*
%TO.P,R2,2*%
%TO.N,GND*%
X140500000Y-99750000D03*
%TD*%
%TO.P,R16,1*%
%TO.N,Net-(C2-Pad2)*%
X162500000Y-98087500D03*
%TO.P,R16,2*%
%TO.N,Net-(J1-PadR)*%
X162500000Y-99912500D03*
%TD*%
%TO.P,R1,1*%
%TO.N,Net-(R1-Pad1)*%
X140500000Y-94175000D03*
%TO.P,R1,2*%
%TO.N,Net-(R1-Pad2)*%
X140500000Y-96000000D03*
%TD*%
D13*
%TO.P,R17,1*%
%TO.N,GND*%
X160837500Y-102750000D03*
%TO.P,R17,2*%
%TO.N,Net-(J1-PadR)*%
X162662500Y-102750000D03*
%TD*%
D10*
%TO.P,R4,1*%
%TO.N,Net-(R3-Pad2)*%
X143250000Y-97925000D03*
%TO.P,R4,2*%
%TO.N,Net-(PMOD1-Pad1)*%
X143250000Y-99750000D03*
%TD*%
D13*
%TO.P,R8,1*%
%TO.N,Net-(R5-Pad2)*%
X147587500Y-92337500D03*
%TO.P,R8,2*%
%TO.N,Net-(R11-Pad1)*%
X149412500Y-92337500D03*
%TD*%
D14*
%TO.P,C1,1*%
%TO.N,Net-(C1-Pad1)*%
X156500000Y-99137500D03*
%TO.P,C1,2*%
%TO.N,GND*%
X156500000Y-101037500D03*
%TD*%
D10*
%TO.P,R13,1*%
%TO.N,Net-(R12-Pad2)*%
X153750000Y-97925000D03*
%TO.P,R13,2*%
%TO.N,Net-(PMOD1-Pad4)*%
X153750000Y-99750000D03*
%TD*%
D13*
%TO.P,R18,1*%
%TO.N,GND*%
X160837500Y-105000000D03*
%TO.P,R18,2*%
%TO.N,Net-(J1-PadS)*%
X162662500Y-105000000D03*
%TD*%
D15*
%TO.P,J1,R*%
%TO.N,Net-(J1-PadR)*%
X167000000Y-104000000D03*
%TO.P,J1,RN*%
%TO.N,unconnected-(J1-PadRN)*%
X167000000Y-101500000D03*
D16*
%TO.P,J1,S*%
%TO.N,Net-(J1-PadS)*%
X172000000Y-99000000D03*
D15*
%TO.P,J1,T*%
%TO.N,Net-(J1-PadT)*%
X167000000Y-94000000D03*
%TO.P,J1,TN*%
%TO.N,unconnected-(J1-PadTN)*%
X167000000Y-96500000D03*
%TD*%
D17*
%TO.P,R15,1*%
%TO.N,Net-(C2-Pad2)*%
X162500000Y-95912500D03*
%TO.P,R15,2*%
%TO.N,Net-(J1-PadT)*%
X162500000Y-94087500D03*
%TD*%
D18*
%TO.P,C2,1*%
%TO.N,Net-(C1-Pad1)*%
X159500000Y-93025000D03*
%TO.P,C2,2*%
%TO.N,Net-(C2-Pad2)*%
X159500000Y-95975000D03*
%TD*%
D10*
%TO.P,R6,1*%
%TO.N,Net-(R5-Pad2)*%
X146750000Y-94175000D03*
%TO.P,R6,2*%
%TO.N,Net-(R6-Pad2)*%
X146750000Y-96000000D03*
%TD*%
D13*
%TO.P,R11,1*%
%TO.N,Net-(R11-Pad1)*%
X151087500Y-92337500D03*
%TO.P,R11,2*%
%TO.N,Net-(C1-Pad1)*%
X152912500Y-92337500D03*
%TD*%
D19*
%TO.N,GND*%
X156500000Y-96500000D03*
X156500000Y-102750000D03*
X159250000Y-103750000D03*
X140750000Y-101250000D03*
%TD*%
D20*
%TO.N,Net-(C1-Pad1)*%
X153750000Y-93175000D02*
X152912500Y-92337500D01*
X157750000Y-93750000D02*
X157750000Y-97887500D01*
X156500000Y-92925000D02*
X154000000Y-92925000D01*
X156925000Y-92925000D02*
X157750000Y-93750000D01*
X153750000Y-94175000D02*
X153750000Y-93175000D01*
X159500000Y-93025000D02*
X158475000Y-93025000D01*
X154000000Y-92925000D02*
X153750000Y-93175000D01*
X158475000Y-93025000D02*
X157750000Y-93750000D01*
X156500000Y-92925000D02*
X156925000Y-92925000D01*
X157750000Y-97887500D02*
X156500000Y-99137500D01*
%TO.N,GND*%
X160837500Y-105000000D02*
X160000000Y-105000000D01*
X156500000Y-101037500D02*
X156500000Y-102750000D01*
X159250000Y-104250000D02*
X159250000Y-103750000D01*
X140500000Y-99750000D02*
X140500000Y-101000000D01*
X160837500Y-102750000D02*
X160250000Y-102750000D01*
X156500000Y-94750000D02*
X156500000Y-96500000D01*
X160250000Y-102750000D02*
X159250000Y-103750000D01*
X160000000Y-105000000D02*
X159250000Y-104250000D01*
X140500000Y-101000000D02*
X140750000Y-101250000D01*
%TO.N,Net-(C2-Pad2)*%
X159500000Y-95975000D02*
X162437500Y-95975000D01*
X162437500Y-95975000D02*
X162500000Y-95912500D01*
X162500000Y-98087500D02*
X162500000Y-95912500D01*
%TO.N,Net-(J1-PadR)*%
X167000000Y-104000000D02*
X165500000Y-104000000D01*
X162500000Y-102587500D02*
X162662500Y-102750000D01*
X165500000Y-104000000D02*
X164250000Y-102750000D01*
X164250000Y-102750000D02*
X162662500Y-102750000D01*
X162500000Y-99912500D02*
X162500000Y-102587500D01*
%TO.N,Net-(J1-PadS)*%
X162762020Y-105099520D02*
X162662500Y-105000000D01*
X172000000Y-101250000D02*
X168150480Y-105099520D01*
X168150480Y-105099520D02*
X162762020Y-105099520D01*
X172000000Y-99000000D02*
X172000000Y-101250000D01*
%TO.N,Net-(J1-PadT)*%
X162587500Y-94000000D02*
X162500000Y-94087500D01*
X167000000Y-94000000D02*
X162587500Y-94000000D01*
%TO.N,Net-(PMOD1-Pad1)*%
X142250000Y-103250000D02*
X143250000Y-102250000D01*
X134850000Y-92710000D02*
X137460000Y-92710000D01*
X139000000Y-94250000D02*
X139000000Y-102750000D01*
X139500000Y-103250000D02*
X142250000Y-103250000D01*
X143250000Y-102250000D02*
X143250000Y-99750000D01*
X139000000Y-102750000D02*
X139500000Y-103250000D01*
X137460000Y-92710000D02*
X139000000Y-94250000D01*
%TO.N,Net-(PMOD1-Pad2)*%
X137200480Y-95250000D02*
X138200480Y-96250000D01*
X145450480Y-104049520D02*
X146750000Y-102750000D01*
X138200480Y-96250000D02*
X138200480Y-103081172D01*
X134850000Y-95250000D02*
X137200480Y-95250000D01*
X146750000Y-102750000D02*
X146750000Y-99750000D01*
X139168828Y-104049520D02*
X145450480Y-104049520D01*
X138200480Y-103081172D02*
X139168828Y-104049520D01*
%TO.N,Net-(PMOD1-Pad3)*%
X138837656Y-104849040D02*
X149150960Y-104849040D01*
X136440960Y-97790000D02*
X137400960Y-98750000D01*
X149150960Y-104849040D02*
X150250000Y-103750000D01*
X137400960Y-103412344D02*
X138837656Y-104849040D01*
X134850000Y-97790000D02*
X136440960Y-97790000D01*
X150250000Y-103750000D02*
X150250000Y-99750000D01*
X137400960Y-98750000D02*
X137400960Y-103412344D01*
%TO.N,Net-(PMOD1-Pad4)*%
X136080000Y-100330000D02*
X136601440Y-100851440D01*
X153750000Y-103000000D02*
X153750000Y-99750000D01*
X138506484Y-105648560D02*
X151101440Y-105648560D01*
X136601440Y-100851440D02*
X136601440Y-103743516D01*
X151101440Y-105648560D02*
X153750000Y-103000000D01*
X134850000Y-100330000D02*
X136080000Y-100330000D01*
X136601440Y-103743516D02*
X138506484Y-105648560D01*
%TO.N,Net-(R1-Pad1)*%
X140500000Y-94175000D02*
X143250000Y-94175000D01*
X143250000Y-93175000D02*
X144087500Y-92337500D01*
X143250000Y-94175000D02*
X143250000Y-93175000D01*
%TO.N,Net-(R1-Pad2)*%
X140500000Y-97925000D02*
X140500000Y-96000000D01*
%TO.N,Net-(R3-Pad2)*%
X143250000Y-96000000D02*
X143250000Y-97925000D01*
%TO.N,Net-(R5-Pad2)*%
X146837500Y-92337500D02*
X147587500Y-92337500D01*
X146750000Y-94175000D02*
X146750000Y-92425000D01*
X145912500Y-92337500D02*
X146837500Y-92337500D01*
X146750000Y-92425000D02*
X146837500Y-92337500D01*
%TO.N,Net-(R6-Pad2)*%
X146750000Y-96000000D02*
X146750000Y-97925000D01*
%TO.N,Net-(R11-Pad1)*%
X149412500Y-92337500D02*
X150337500Y-92337500D01*
X150250000Y-94175000D02*
X150250000Y-92425000D01*
X150250000Y-92425000D02*
X150337500Y-92337500D01*
X150337500Y-92337500D02*
X151087500Y-92337500D01*
%TO.N,Net-(R10-Pad1)*%
X150250000Y-96000000D02*
X150250000Y-97925000D01*
%TO.N,Net-(R12-Pad2)*%
X153750000Y-96000000D02*
X153750000Y-97925000D01*
%TD*%
M02*
