%TF.GenerationSoftware,KiCad,Pcbnew,(6.0.5)*%
%TF.CreationDate,2024-07-06T21:03:59+02:00*%
%TF.ProjectId,pmod_mem_2v0,706d6f64-5f6d-4656-9d5f-3276302e6b69,rev?*%
%TF.SameCoordinates,Original*%
%TF.FileFunction,Copper,L1,Top*%
%TF.FilePolarity,Positive*%
%FSLAX46Y46*%
G04 Gerber Fmt 4.6, Leading zero omitted, Abs format (unit mm)*
G04 Created by KiCad (PCBNEW (6.0.5)) date 2024-07-06 21:03:59*
%MOMM*%
%LPD*%
G01*
G04 APERTURE LIST*
G04 Aperture macros list*
%AMRoundRect*
0 Rectangle with rounded corners*
0 $1 Rounding radius*
0 $2 $3 $4 $5 $6 $7 $8 $9 X,Y pos of 4 corners*
0 Add a 4 corners polygon primitive as box body*
4,1,4,$2,$3,$4,$5,$6,$7,$8,$9,$2,$3,0*
0 Add four circle primitives for the rounded corners*
1,1,$1+$1,$2,$3*
1,1,$1+$1,$4,$5*
1,1,$1+$1,$6,$7*
1,1,$1+$1,$8,$9*
0 Add four rect primitives between the rounded corners*
20,1,$1+$1,$2,$3,$4,$5,0*
20,1,$1+$1,$4,$5,$6,$7,0*
20,1,$1+$1,$6,$7,$8,$9,0*
20,1,$1+$1,$8,$9,$2,$3,0*%
G04 Aperture macros list end*
%TA.AperFunction,SMDPad,CuDef*%
%ADD10RoundRect,0.250000X-0.475000X0.250000X-0.475000X-0.250000X0.475000X-0.250000X0.475000X0.250000X0*%
%TD*%
%TA.AperFunction,SMDPad,CuDef*%
%ADD11RoundRect,0.150000X0.150000X-0.875000X0.150000X0.875000X-0.150000X0.875000X-0.150000X-0.875000X0*%
%TD*%
%TA.AperFunction,SMDPad,CuDef*%
%ADD12RoundRect,0.250000X-0.450000X0.262500X-0.450000X-0.262500X0.450000X-0.262500X0.450000X0.262500X0*%
%TD*%
%TA.AperFunction,SMDPad,CuDef*%
%ADD13RoundRect,0.250000X0.475000X-0.250000X0.475000X0.250000X-0.475000X0.250000X-0.475000X-0.250000X0*%
%TD*%
%TA.AperFunction,ComponentPad*%
%ADD14R,1.700000X1.700000*%
%TD*%
%TA.AperFunction,ComponentPad*%
%ADD15O,1.700000X1.700000*%
%TD*%
%TA.AperFunction,SMDPad,CuDef*%
%ADD16RoundRect,0.150000X-0.825000X-0.150000X0.825000X-0.150000X0.825000X0.150000X-0.825000X0.150000X0*%
%TD*%
%TA.AperFunction,ViaPad*%
%ADD17C,0.800000*%
%TD*%
%TA.AperFunction,Conductor*%
%ADD18C,0.400000*%
%TD*%
%TA.AperFunction,Conductor*%
%ADD19C,0.600000*%
%TD*%
G04 APERTURE END LIST*
D10*
%TO.P,C2,1*%
%TO.N,+3V3*%
X158000000Y-93050000D03*
%TO.P,C2,2*%
%TO.N,GND*%
X158000000Y-94950000D03*
%TD*%
D11*
%TO.P,U2,1,~HOLD*%
%TO.N,+3V3*%
X150555000Y-108650000D03*
%TO.P,U2,2,VCC*%
X151825000Y-108650000D03*
%TO.P,U2,3,NC1*%
%TO.N,unconnected-(U2-Pad3)*%
X153095000Y-108650000D03*
%TO.P,U2,4,NC2*%
%TO.N,unconnected-(U2-Pad4)*%
X154365000Y-108650000D03*
%TO.P,U2,5,NC3*%
%TO.N,unconnected-(U2-Pad5)*%
X155635000Y-108650000D03*
%TO.P,U2,6,NC4*%
%TO.N,unconnected-(U2-Pad6)*%
X156905000Y-108650000D03*
%TO.P,U2,7,~CS*%
%TO.N,/AT_NCS*%
X158175000Y-108650000D03*
%TO.P,U2,8,SO(SOI)*%
%TO.N,/AT_MISO*%
X159445000Y-108650000D03*
%TO.P,U2,9,~WP*%
%TO.N,+3V3*%
X159445000Y-99350000D03*
%TO.P,U2,10,GND*%
%TO.N,GND*%
X158175000Y-99350000D03*
%TO.P,U2,11,NC5*%
%TO.N,unconnected-(U2-Pad11)*%
X156905000Y-99350000D03*
%TO.P,U2,12,NC6*%
%TO.N,unconnected-(U2-Pad12)*%
X155635000Y-99350000D03*
%TO.P,U2,13,NC7*%
%TO.N,unconnected-(U2-Pad13)*%
X154365000Y-99350000D03*
%TO.P,U2,14,NC8*%
%TO.N,unconnected-(U2-Pad14)*%
X153095000Y-99350000D03*
%TO.P,U2,15,SI(SIO)*%
%TO.N,/AT_MOSI*%
X151825000Y-99350000D03*
%TO.P,U2,16,SCK*%
%TO.N,/AT_SCK*%
X150555000Y-99350000D03*
%TD*%
D12*
%TO.P,R2,1*%
%TO.N,Net-(R2-Pad1)*%
X160000000Y-94087500D03*
%TO.P,R2,2*%
%TO.N,GND*%
X160000000Y-95912500D03*
%TD*%
D13*
%TO.P,C1,1*%
%TO.N,+3V3*%
X148000000Y-107950000D03*
%TO.P,C1,2*%
%TO.N,GND*%
X148000000Y-106050000D03*
%TD*%
D14*
%TO.P,PMOD1,1,IOA0*%
%TO.N,/PM_MISO*%
X144650000Y-94650000D03*
D15*
%TO.P,PMOD1,2,IOA1*%
%TO.N,/PM_MOSI*%
X144650000Y-97190000D03*
%TO.P,PMOD1,3,IOA2*%
%TO.N,/AT_SCK*%
X144650000Y-99730000D03*
%TO.P,PMOD1,4,IOA3*%
%TO.N,/AT_MISO*%
X144650000Y-102270000D03*
%TO.P,PMOD1,5,GND*%
%TO.N,GND*%
X144650000Y-104810000D03*
%TO.P,PMOD1,6,VCC*%
%TO.N,+3V3*%
X144650000Y-107350000D03*
%TO.P,PMOD1,7,IOB0*%
%TO.N,/PM_NCS*%
X142110000Y-94650000D03*
%TO.P,PMOD1,8,IOB1*%
%TO.N,/PM_SCK*%
X142110000Y-97190000D03*
%TO.P,PMOD1,9,IOB2*%
%TO.N,/AT_MOSI*%
X142110000Y-99730000D03*
%TO.P,PMOD1,10,IOB3*%
%TO.N,/AT_NCS*%
X142110000Y-102270000D03*
%TO.P,PMOD1,11,GND*%
%TO.N,GND*%
X142110000Y-104810000D03*
%TO.P,PMOD1,12,VCC*%
%TO.N,+3V3*%
X142110000Y-107350000D03*
%TD*%
D12*
%TO.P,R1,1*%
%TO.N,Net-(R1-Pad1)*%
X148000000Y-95087500D03*
%TO.P,R1,2*%
%TO.N,GND*%
X148000000Y-96912500D03*
%TD*%
D16*
%TO.P,U1,1,~CE*%
%TO.N,/PM_NCS*%
X150525000Y-93095000D03*
%TO.P,U1,2,SO/SIO[1]*%
%TO.N,/PM_MISO*%
X150525000Y-94365000D03*
%TO.P,U1,3,SIO[2]*%
%TO.N,Net-(R1-Pad1)*%
X150525000Y-95635000D03*
%TO.P,U1,4,VSS*%
%TO.N,GND*%
X150525000Y-96905000D03*
%TO.P,U1,5,SI/SIO[0]*%
%TO.N,/PM_MOSI*%
X155475000Y-96905000D03*
%TO.P,U1,6,CLK*%
%TO.N,/PM_SCK*%
X155475000Y-95635000D03*
%TO.P,U1,7,SIO[3]*%
%TO.N,Net-(R2-Pad1)*%
X155475000Y-94365000D03*
%TO.P,U1,8,VCC*%
%TO.N,+3V3*%
X155475000Y-93095000D03*
%TD*%
D17*
%TO.N,GND*%
X148000000Y-98500000D03*
X159000000Y-102000000D03*
X158000000Y-96500000D03*
X156750000Y-106250000D03*
%TO.N,/PM_MOSI*%
X153250000Y-97250000D03*
%TO.N,/PM_SCK*%
X153500000Y-95500000D03*
%TO.N,+3V3*%
X161500000Y-99500000D03*
%TD*%
D18*
%TO.N,GND*%
X150525000Y-96905000D02*
X148007500Y-96905000D01*
X158175000Y-99350000D02*
X158175000Y-101175000D01*
X158175000Y-101175000D02*
X159000000Y-102000000D01*
D19*
X142110000Y-104810000D02*
X144650000Y-104810000D01*
X158000000Y-94950000D02*
X158000000Y-96500000D01*
D18*
X148000000Y-96912500D02*
X148000000Y-98500000D01*
X148007500Y-96905000D02*
X148000000Y-96912500D01*
%TO.N,Net-(R1-Pad1)*%
X148547500Y-95635000D02*
X148000000Y-95087500D01*
X150525000Y-95635000D02*
X148547500Y-95635000D01*
%TO.N,Net-(R2-Pad1)*%
X159912500Y-94000000D02*
X160000000Y-94087500D01*
X157000000Y-94000000D02*
X159912500Y-94000000D01*
X156635000Y-94365000D02*
X157000000Y-94000000D01*
X155475000Y-94365000D02*
X156635000Y-94365000D01*
%TO.N,/PM_NCS*%
X143665000Y-93095000D02*
X142110000Y-94650000D01*
X150525000Y-93095000D02*
X143665000Y-93095000D01*
%TO.N,/PM_MISO*%
X149000000Y-94000000D02*
X145300000Y-94000000D01*
X145300000Y-94000000D02*
X144650000Y-94650000D01*
X149365000Y-94365000D02*
X149000000Y-94000000D01*
X150525000Y-94365000D02*
X149365000Y-94365000D01*
%TO.N,/PM_MOSI*%
X153250000Y-97250000D02*
X153595000Y-96905000D01*
X153595000Y-96905000D02*
X155475000Y-96905000D01*
%TO.N,/PM_SCK*%
X155475000Y-95635000D02*
X153635000Y-95635000D01*
X153635000Y-95635000D02*
X153500000Y-95500000D01*
%TO.N,+3V3*%
X155475000Y-93095000D02*
X157955000Y-93095000D01*
D19*
X145250000Y-107950000D02*
X144650000Y-107350000D01*
D18*
X150555000Y-108650000D02*
X148700000Y-108650000D01*
D19*
X160734981Y-93050000D02*
X161500000Y-93815019D01*
D18*
X151825000Y-108650000D02*
X150555000Y-108650000D01*
D19*
X148000000Y-107950000D02*
X145250000Y-107950000D01*
D18*
X157955000Y-93095000D02*
X158000000Y-93050000D01*
D19*
X161500000Y-93815019D02*
X161500000Y-99500000D01*
D18*
X148700000Y-108650000D02*
X148000000Y-107950000D01*
D19*
X142110000Y-107350000D02*
X144650000Y-107350000D01*
D18*
X159445000Y-99350000D02*
X161350000Y-99350000D01*
X161350000Y-99350000D02*
X161500000Y-99500000D01*
D19*
X158000000Y-93050000D02*
X160734981Y-93050000D01*
D18*
%TO.N,/AT_NCS*%
X143359511Y-103519511D02*
X156269511Y-103519511D01*
X142110000Y-102270000D02*
X143359511Y-103519511D01*
X158250000Y-108575000D02*
X158175000Y-108650000D01*
X158250000Y-105500000D02*
X158250000Y-108575000D01*
X156269511Y-103519511D02*
X158250000Y-105500000D01*
%TO.N,/AT_MISO*%
X159500000Y-104750000D02*
X159500000Y-108595000D01*
X144650000Y-102270000D02*
X157020000Y-102270000D01*
X159500000Y-108595000D02*
X159445000Y-108650000D01*
X157020000Y-102270000D02*
X159500000Y-104750000D01*
%TO.N,/AT_MOSI*%
X151825000Y-100175000D02*
X151020489Y-100979511D01*
X151020489Y-100979511D02*
X143359511Y-100979511D01*
X143359511Y-100979511D02*
X142110000Y-99730000D01*
X151825000Y-99350000D02*
X151825000Y-100175000D01*
%TO.N,/AT_SCK*%
X144650000Y-99730000D02*
X150175000Y-99730000D01*
X150175000Y-99730000D02*
X150555000Y-99350000D01*
%TD*%
%TA.AperFunction,Conductor*%
%TO.N,GND*%
G36*
X158196121Y-94728502D02*
G01*
X158242614Y-94782158D01*
X158254000Y-94834500D01*
X158254000Y-95939884D01*
X158258475Y-95955123D01*
X158259865Y-95956328D01*
X158267548Y-95957999D01*
X158522095Y-95957999D01*
X158528614Y-95957662D01*
X158624203Y-95947744D01*
X158639404Y-95944461D01*
X158710212Y-95949633D01*
X158766983Y-95992265D01*
X158791693Y-96058823D01*
X158792001Y-96067622D01*
X158792001Y-96222095D01*
X158792338Y-96228614D01*
X158802257Y-96324206D01*
X158805149Y-96337600D01*
X158856588Y-96491784D01*
X158862761Y-96504962D01*
X158948063Y-96642807D01*
X158957099Y-96654208D01*
X159071829Y-96768739D01*
X159083240Y-96777751D01*
X159221243Y-96862816D01*
X159234424Y-96868963D01*
X159388710Y-96920138D01*
X159402086Y-96923005D01*
X159496438Y-96932672D01*
X159502854Y-96933000D01*
X159727885Y-96933000D01*
X159743124Y-96928525D01*
X159744329Y-96927135D01*
X159746000Y-96919452D01*
X159746000Y-95784500D01*
X159766002Y-95716379D01*
X159819658Y-95669886D01*
X159872000Y-95658500D01*
X160128000Y-95658500D01*
X160196121Y-95678502D01*
X160242614Y-95732158D01*
X160254000Y-95784500D01*
X160254000Y-96914884D01*
X160258475Y-96930123D01*
X160259865Y-96931328D01*
X160267548Y-96932999D01*
X160497095Y-96932999D01*
X160503614Y-96932662D01*
X160552497Y-96927590D01*
X160622318Y-96940455D01*
X160674100Y-96989026D01*
X160691500Y-97052917D01*
X160691500Y-98515500D01*
X160671498Y-98583621D01*
X160617842Y-98630114D01*
X160565500Y-98641500D01*
X160379500Y-98641500D01*
X160311379Y-98621498D01*
X160264886Y-98567842D01*
X160253500Y-98515500D01*
X160253500Y-98408498D01*
X160252919Y-98401114D01*
X160251067Y-98377579D01*
X160251066Y-98377574D01*
X160250562Y-98371169D01*
X160204145Y-98211399D01*
X160173766Y-98160031D01*
X160123491Y-98075020D01*
X160123489Y-98075017D01*
X160119453Y-98068193D01*
X160001807Y-97950547D01*
X159994983Y-97946511D01*
X159994980Y-97946509D01*
X159865427Y-97869892D01*
X159865425Y-97869891D01*
X159858601Y-97865855D01*
X159850990Y-97863644D01*
X159850988Y-97863643D01*
X159763142Y-97838122D01*
X159698831Y-97819438D01*
X159692426Y-97818934D01*
X159692421Y-97818933D01*
X159663958Y-97816693D01*
X159663950Y-97816693D01*
X159661502Y-97816500D01*
X159228498Y-97816500D01*
X159226050Y-97816693D01*
X159226042Y-97816693D01*
X159197579Y-97818933D01*
X159197574Y-97818934D01*
X159191169Y-97819438D01*
X159126858Y-97838122D01*
X159039012Y-97863643D01*
X159039010Y-97863644D01*
X159031399Y-97865855D01*
X158888193Y-97950547D01*
X158885253Y-97953487D01*
X158820729Y-97978821D01*
X158751106Y-97964920D01*
X158732360Y-97952871D01*
X158724677Y-97946911D01*
X158595221Y-97870352D01*
X158580790Y-97864107D01*
X158446395Y-97825061D01*
X158432294Y-97825101D01*
X158429000Y-97832370D01*
X158429000Y-100861878D01*
X158432973Y-100875409D01*
X158440871Y-100876544D01*
X158580790Y-100835893D01*
X158595221Y-100829648D01*
X158724676Y-100753090D01*
X158732364Y-100747126D01*
X158798449Y-100721179D01*
X158868072Y-100735080D01*
X158884158Y-100745418D01*
X158888193Y-100749453D01*
X159031399Y-100834145D01*
X159039010Y-100836356D01*
X159039012Y-100836357D01*
X159063004Y-100843327D01*
X159191169Y-100880562D01*
X159197574Y-100881066D01*
X159197579Y-100881067D01*
X159226042Y-100883307D01*
X159226050Y-100883307D01*
X159228498Y-100883500D01*
X159661502Y-100883500D01*
X159663950Y-100883307D01*
X159663958Y-100883307D01*
X159692421Y-100881067D01*
X159692426Y-100881066D01*
X159698831Y-100880562D01*
X159826996Y-100843327D01*
X159850988Y-100836357D01*
X159850990Y-100836356D01*
X159858601Y-100834145D01*
X159887411Y-100817107D01*
X159994980Y-100753491D01*
X159994984Y-100753488D01*
X160001807Y-100749453D01*
X160119453Y-100631807D01*
X160123489Y-100624983D01*
X160123491Y-100624980D01*
X160200108Y-100495427D01*
X160204145Y-100488601D01*
X160250562Y-100328831D01*
X160253500Y-100291502D01*
X160253500Y-100184500D01*
X160273502Y-100116379D01*
X160327158Y-100069886D01*
X160379500Y-100058500D01*
X160724271Y-100058500D01*
X160792392Y-100078502D01*
X160817906Y-100100189D01*
X160888747Y-100178866D01*
X161043248Y-100291118D01*
X161049276Y-100293802D01*
X161049278Y-100293803D01*
X161211681Y-100366109D01*
X161217712Y-100368794D01*
X161311113Y-100388647D01*
X161398056Y-100407128D01*
X161398061Y-100407128D01*
X161404513Y-100408500D01*
X161595487Y-100408500D01*
X161601939Y-100407128D01*
X161601944Y-100407128D01*
X161688887Y-100388647D01*
X161782288Y-100368794D01*
X161788319Y-100366109D01*
X161950722Y-100293803D01*
X161950724Y-100293802D01*
X161956752Y-100291118D01*
X162111253Y-100178866D01*
X162152915Y-100132596D01*
X162234621Y-100041852D01*
X162234622Y-100041851D01*
X162239040Y-100036944D01*
X162256382Y-100006907D01*
X162307764Y-99957915D01*
X162377478Y-99944480D01*
X162443389Y-99970867D01*
X162484570Y-100028699D01*
X162491500Y-100069909D01*
X162491500Y-109865500D01*
X162471498Y-109933621D01*
X162417842Y-109980114D01*
X162365500Y-109991500D01*
X160305052Y-109991500D01*
X160236931Y-109971498D01*
X160190438Y-109917842D01*
X160180334Y-109847568D01*
X160196598Y-109801362D01*
X160200109Y-109795425D01*
X160204145Y-109788601D01*
X160250562Y-109628831D01*
X160253500Y-109591502D01*
X160253500Y-107708498D01*
X160250562Y-107671169D01*
X160213503Y-107543609D01*
X160208500Y-107508457D01*
X160208500Y-104778927D01*
X160208792Y-104770358D01*
X160212210Y-104720225D01*
X160212210Y-104720221D01*
X160212726Y-104712648D01*
X160201736Y-104649681D01*
X160200775Y-104643165D01*
X160194014Y-104587298D01*
X160193102Y-104579758D01*
X160190419Y-104572657D01*
X160189778Y-104570048D01*
X160185313Y-104553728D01*
X160184548Y-104551195D01*
X160183243Y-104543717D01*
X160157552Y-104485190D01*
X160155067Y-104479102D01*
X160135172Y-104426449D01*
X160135171Y-104426447D01*
X160132487Y-104419344D01*
X160128186Y-104413085D01*
X160126949Y-104410720D01*
X160118727Y-104395948D01*
X160117372Y-104393656D01*
X160114316Y-104386695D01*
X160109691Y-104380668D01*
X160109689Y-104380664D01*
X160075407Y-104335987D01*
X160071529Y-104330650D01*
X160039659Y-104284278D01*
X160039658Y-104284277D01*
X160035357Y-104278019D01*
X159988838Y-104236572D01*
X159983563Y-104231592D01*
X157541442Y-101789472D01*
X157535588Y-101783206D01*
X157502556Y-101745340D01*
X157502553Y-101745337D01*
X157497561Y-101739615D01*
X157445280Y-101702871D01*
X157439986Y-101698939D01*
X157395693Y-101664209D01*
X157389718Y-101659524D01*
X157382802Y-101656401D01*
X157380516Y-101655017D01*
X157365835Y-101646643D01*
X157363475Y-101645378D01*
X157357261Y-101641010D01*
X157350182Y-101638250D01*
X157350180Y-101638249D01*
X157297725Y-101617798D01*
X157291656Y-101615247D01*
X157233427Y-101588955D01*
X157225960Y-101587571D01*
X157223405Y-101586770D01*
X157207152Y-101582141D01*
X157204572Y-101581478D01*
X157197491Y-101578718D01*
X157189960Y-101577727D01*
X157189958Y-101577726D01*
X157160339Y-101573827D01*
X157134139Y-101570378D01*
X157127641Y-101569348D01*
X157064814Y-101557704D01*
X157057234Y-101558141D01*
X157057233Y-101558141D01*
X157002608Y-101561291D01*
X156995354Y-101561500D01*
X151744661Y-101561500D01*
X151676540Y-101541498D01*
X151630047Y-101487842D01*
X151619943Y-101417568D01*
X151649437Y-101352988D01*
X151655566Y-101346404D01*
X151882359Y-101119612D01*
X152115969Y-100886002D01*
X152169912Y-100854101D01*
X152230986Y-100836358D01*
X152230991Y-100836356D01*
X152238601Y-100834145D01*
X152381807Y-100749453D01*
X152384489Y-100746771D01*
X152448861Y-100721498D01*
X152518484Y-100735400D01*
X152534312Y-100745572D01*
X152538193Y-100749453D01*
X152681399Y-100834145D01*
X152689010Y-100836356D01*
X152689012Y-100836357D01*
X152713004Y-100843327D01*
X152841169Y-100880562D01*
X152847574Y-100881066D01*
X152847579Y-100881067D01*
X152876042Y-100883307D01*
X152876050Y-100883307D01*
X152878498Y-100883500D01*
X153311502Y-100883500D01*
X153313950Y-100883307D01*
X153313958Y-100883307D01*
X153342421Y-100881067D01*
X153342426Y-100881066D01*
X153348831Y-100880562D01*
X153476996Y-100843327D01*
X153500988Y-100836357D01*
X153500990Y-100836356D01*
X153508601Y-100834145D01*
X153651807Y-100749453D01*
X153654489Y-100746771D01*
X153718861Y-100721498D01*
X153788484Y-100735400D01*
X153804312Y-100745572D01*
X153808193Y-100749453D01*
X153951399Y-100834145D01*
X153959010Y-100836356D01*
X153959012Y-100836357D01*
X153983004Y-100843327D01*
X154111169Y-100880562D01*
X154117574Y-100881066D01*
X154117579Y-100881067D01*
X154146042Y-100883307D01*
X154146050Y-100883307D01*
X154148498Y-100883500D01*
X154581502Y-100883500D01*
X154583950Y-100883307D01*
X154583958Y-100883307D01*
X154612421Y-100881067D01*
X154612426Y-100881066D01*
X154618831Y-100880562D01*
X154746996Y-100843327D01*
X154770988Y-100836357D01*
X154770990Y-100836356D01*
X154778601Y-100834145D01*
X154921807Y-100749453D01*
X154924489Y-100746771D01*
X154988861Y-100721498D01*
X155058484Y-100735400D01*
X155074312Y-100745572D01*
X155078193Y-100749453D01*
X155221399Y-100834145D01*
X155229010Y-100836356D01*
X155229012Y-100836357D01*
X155253004Y-100843327D01*
X155381169Y-100880562D01*
X155387574Y-100881066D01*
X155387579Y-100881067D01*
X155416042Y-100883307D01*
X155416050Y-100883307D01*
X155418498Y-100883500D01*
X155851502Y-100883500D01*
X155853950Y-100883307D01*
X155853958Y-100883307D01*
X155882421Y-100881067D01*
X155882426Y-100881066D01*
X155888831Y-100880562D01*
X156016996Y-100843327D01*
X156040988Y-100836357D01*
X156040990Y-100836356D01*
X156048601Y-100834145D01*
X156191807Y-100749453D01*
X156194489Y-100746771D01*
X156258861Y-100721498D01*
X156328484Y-100735400D01*
X156344312Y-100745572D01*
X156348193Y-100749453D01*
X156491399Y-100834145D01*
X156499010Y-100836356D01*
X156499012Y-100836357D01*
X156523004Y-100843327D01*
X156651169Y-100880562D01*
X156657574Y-100881066D01*
X156657579Y-100881067D01*
X156686042Y-100883307D01*
X156686050Y-100883307D01*
X156688498Y-100883500D01*
X157121502Y-100883500D01*
X157123950Y-100883307D01*
X157123958Y-100883307D01*
X157152421Y-100881067D01*
X157152426Y-100881066D01*
X157158831Y-100880562D01*
X157286996Y-100843327D01*
X157310988Y-100836357D01*
X157310990Y-100836356D01*
X157318601Y-100834145D01*
X157461807Y-100749453D01*
X157464747Y-100746513D01*
X157529271Y-100721179D01*
X157598894Y-100735080D01*
X157617640Y-100747129D01*
X157625323Y-100753089D01*
X157754779Y-100829648D01*
X157769210Y-100835893D01*
X157903605Y-100874939D01*
X157917706Y-100874899D01*
X157921000Y-100867630D01*
X157921000Y-97838122D01*
X157917027Y-97824591D01*
X157909129Y-97823456D01*
X157769210Y-97864107D01*
X157754779Y-97870352D01*
X157625324Y-97946910D01*
X157617636Y-97952874D01*
X157551551Y-97978821D01*
X157481928Y-97964920D01*
X157465842Y-97954582D01*
X157461807Y-97950547D01*
X157318601Y-97865855D01*
X157310990Y-97863644D01*
X157310988Y-97863643D01*
X157223142Y-97838122D01*
X157158831Y-97819438D01*
X157152426Y-97818934D01*
X157152421Y-97818933D01*
X157123958Y-97816693D01*
X157123950Y-97816693D01*
X157121502Y-97816500D01*
X156766560Y-97816500D01*
X156698439Y-97796498D01*
X156651946Y-97742842D01*
X156641842Y-97672568D01*
X156671336Y-97607988D01*
X156694171Y-97588930D01*
X156693719Y-97588347D01*
X156699980Y-97583491D01*
X156706807Y-97579453D01*
X156824453Y-97461807D01*
X156828489Y-97454983D01*
X156828491Y-97454980D01*
X156905108Y-97325427D01*
X156909145Y-97318601D01*
X156911415Y-97310790D01*
X156929075Y-97250000D01*
X156955562Y-97158831D01*
X156956135Y-97151562D01*
X156958307Y-97123958D01*
X156958307Y-97123950D01*
X156958500Y-97121502D01*
X156958500Y-96688498D01*
X156955562Y-96651169D01*
X156914996Y-96511538D01*
X156911357Y-96499012D01*
X156911356Y-96499010D01*
X156909145Y-96491399D01*
X156824453Y-96348193D01*
X156821771Y-96345511D01*
X156796498Y-96281139D01*
X156810400Y-96211516D01*
X156820572Y-96195688D01*
X156824453Y-96191807D01*
X156909145Y-96048601D01*
X156924233Y-95996669D01*
X156946181Y-95921121D01*
X156984394Y-95861286D01*
X157048890Y-95831608D01*
X157119192Y-95841511D01*
X157133294Y-95849014D01*
X157196243Y-95887816D01*
X157209424Y-95893963D01*
X157363710Y-95945138D01*
X157377086Y-95948005D01*
X157471438Y-95957672D01*
X157477854Y-95958000D01*
X157727885Y-95958000D01*
X157743124Y-95953525D01*
X157744329Y-95952135D01*
X157746000Y-95944452D01*
X157746000Y-94834500D01*
X157766002Y-94766379D01*
X157819658Y-94719886D01*
X157872000Y-94708500D01*
X158128000Y-94708500D01*
X158196121Y-94728502D01*
G37*
%TD.AperFunction*%
%TA.AperFunction,Conductor*%
G36*
X157007642Y-92028502D02*
G01*
X157054135Y-92082158D01*
X157064239Y-92152432D01*
X157034745Y-92217012D01*
X157028694Y-92223518D01*
X156965822Y-92286500D01*
X156925695Y-92326697D01*
X156921854Y-92332928D01*
X156917381Y-92338592D01*
X156859464Y-92379655D01*
X156818499Y-92386500D01*
X156683706Y-92386500D01*
X156619569Y-92368955D01*
X156563601Y-92335855D01*
X156555990Y-92333644D01*
X156555988Y-92333643D01*
X156503769Y-92318472D01*
X156403831Y-92289438D01*
X156397426Y-92288934D01*
X156397421Y-92288933D01*
X156368958Y-92286693D01*
X156368950Y-92286693D01*
X156366502Y-92286500D01*
X154583498Y-92286500D01*
X154581050Y-92286693D01*
X154581042Y-92286693D01*
X154552579Y-92288933D01*
X154552574Y-92288934D01*
X154546169Y-92289438D01*
X154446231Y-92318472D01*
X154394012Y-92333643D01*
X154394010Y-92333644D01*
X154386399Y-92335855D01*
X154379572Y-92339892D01*
X154379573Y-92339892D01*
X154250020Y-92416509D01*
X154250017Y-92416511D01*
X154243193Y-92420547D01*
X154125547Y-92538193D01*
X154121511Y-92545017D01*
X154121509Y-92545020D01*
X154085345Y-92606170D01*
X154040855Y-92681399D01*
X153994438Y-92841169D01*
X153991500Y-92878498D01*
X153991500Y-93311502D01*
X153991693Y-93313950D01*
X153991693Y-93313958D01*
X153992607Y-93325562D01*
X153994438Y-93348831D01*
X154040855Y-93508601D01*
X154125547Y-93651807D01*
X154128229Y-93654489D01*
X154153502Y-93718861D01*
X154139600Y-93788484D01*
X154129428Y-93804312D01*
X154125547Y-93808193D01*
X154040855Y-93951399D01*
X153994438Y-94111169D01*
X153991500Y-94148498D01*
X153991500Y-94530330D01*
X153971498Y-94598451D01*
X153917842Y-94644944D01*
X153847568Y-94655048D01*
X153814252Y-94645437D01*
X153782288Y-94631206D01*
X153688888Y-94611353D01*
X153601944Y-94592872D01*
X153601939Y-94592872D01*
X153595487Y-94591500D01*
X153404513Y-94591500D01*
X153398061Y-94592872D01*
X153398056Y-94592872D01*
X153311113Y-94611353D01*
X153217712Y-94631206D01*
X153211682Y-94633891D01*
X153211681Y-94633891D01*
X153049278Y-94706197D01*
X153049276Y-94706198D01*
X153043248Y-94708882D01*
X152888747Y-94821134D01*
X152884326Y-94826044D01*
X152884325Y-94826045D01*
X152804250Y-94914978D01*
X152760960Y-94963056D01*
X152733199Y-95011139D01*
X152683324Y-95097526D01*
X152665473Y-95128444D01*
X152606458Y-95310072D01*
X152605768Y-95316633D01*
X152605768Y-95316635D01*
X152596964Y-95400400D01*
X152586496Y-95500000D01*
X152587186Y-95506565D01*
X152604352Y-95669886D01*
X152606458Y-95689928D01*
X152665473Y-95871556D01*
X152760960Y-96036944D01*
X152765378Y-96041851D01*
X152765379Y-96041852D01*
X152884325Y-96173955D01*
X152888747Y-96178866D01*
X152914871Y-96197846D01*
X152958225Y-96254068D01*
X152964301Y-96324804D01*
X152931169Y-96387596D01*
X152892058Y-96414889D01*
X152799281Y-96456195D01*
X152799274Y-96456199D01*
X152793248Y-96458882D01*
X152787907Y-96462762D01*
X152787906Y-96462763D01*
X152757604Y-96484779D01*
X152638747Y-96571134D01*
X152510960Y-96713056D01*
X152415473Y-96878444D01*
X152356458Y-97060072D01*
X152355768Y-97066633D01*
X152355768Y-97066635D01*
X152339429Y-97222095D01*
X152336496Y-97250000D01*
X152356458Y-97439928D01*
X152415473Y-97621556D01*
X152481212Y-97735419D01*
X152497949Y-97804411D01*
X152474729Y-97871503D01*
X152418922Y-97915390D01*
X152348247Y-97922139D01*
X152307954Y-97906870D01*
X152282940Y-97892077D01*
X152238601Y-97865855D01*
X152230990Y-97863644D01*
X152230988Y-97863643D01*
X152143142Y-97838122D01*
X152078831Y-97819438D01*
X152072426Y-97818934D01*
X152072421Y-97818933D01*
X152043958Y-97816693D01*
X152043950Y-97816693D01*
X152041502Y-97816500D01*
X151815579Y-97816500D01*
X151747458Y-97796498D01*
X151700965Y-97742842D01*
X151690861Y-97672568D01*
X151720355Y-97607988D01*
X151743784Y-97588436D01*
X151743408Y-97587952D01*
X151762104Y-97573449D01*
X151868449Y-97467104D01*
X151878089Y-97454678D01*
X151954648Y-97325221D01*
X151960893Y-97310790D01*
X151999939Y-97176395D01*
X151999899Y-97162294D01*
X151992630Y-97159000D01*
X149266115Y-97159000D01*
X149257955Y-97161396D01*
X149222457Y-97166500D01*
X148272115Y-97166500D01*
X148256876Y-97170975D01*
X148255671Y-97172365D01*
X148254000Y-97180048D01*
X148254000Y-97914884D01*
X148258475Y-97930123D01*
X148259865Y-97931328D01*
X148267548Y-97932999D01*
X148497095Y-97932999D01*
X148503614Y-97932662D01*
X148599206Y-97922743D01*
X148612600Y-97919851D01*
X148766784Y-97868412D01*
X148779962Y-97862239D01*
X148917807Y-97776937D01*
X148929208Y-97767901D01*
X149043739Y-97653171D01*
X149052753Y-97641757D01*
X149084830Y-97589718D01*
X149137601Y-97542224D01*
X149207673Y-97530800D01*
X149272797Y-97559074D01*
X149281185Y-97566738D01*
X149287896Y-97573449D01*
X149300322Y-97583089D01*
X149429779Y-97659648D01*
X149444210Y-97665893D01*
X149590065Y-97708269D01*
X149602667Y-97710570D01*
X149631084Y-97712807D01*
X149636014Y-97713000D01*
X149939286Y-97713000D01*
X150007407Y-97733002D01*
X150053900Y-97786658D01*
X150064004Y-97856932D01*
X150034510Y-97921512D01*
X150010925Y-97941194D01*
X150011281Y-97941653D01*
X150005020Y-97946509D01*
X149998193Y-97950547D01*
X149880547Y-98068193D01*
X149876511Y-98075017D01*
X149876509Y-98075020D01*
X149826234Y-98160031D01*
X149795855Y-98211399D01*
X149749438Y-98371169D01*
X149748934Y-98377574D01*
X149748933Y-98377579D01*
X149747081Y-98401114D01*
X149746500Y-98408498D01*
X149746500Y-98895500D01*
X149726498Y-98963621D01*
X149672842Y-99010114D01*
X149620500Y-99021500D01*
X145878286Y-99021500D01*
X145810165Y-99001498D01*
X145772494Y-98963941D01*
X145772287Y-98963621D01*
X145730014Y-98898277D01*
X145579670Y-98733051D01*
X145575619Y-98729852D01*
X145575615Y-98729848D01*
X145408414Y-98597800D01*
X145408410Y-98597798D01*
X145404359Y-98594598D01*
X145363053Y-98571796D01*
X145313084Y-98521364D01*
X145298312Y-98451921D01*
X145323428Y-98385516D01*
X145350780Y-98358909D01*
X145394603Y-98327650D01*
X145529860Y-98231173D01*
X145688096Y-98073489D01*
X145747594Y-97990689D01*
X145815435Y-97896277D01*
X145818453Y-97892077D01*
X145828622Y-97871503D01*
X145915136Y-97696453D01*
X145915137Y-97696451D01*
X145917430Y-97691811D01*
X145982370Y-97478069D01*
X146011529Y-97256590D01*
X146011690Y-97250000D01*
X146012372Y-97222095D01*
X146792001Y-97222095D01*
X146792338Y-97228614D01*
X146802257Y-97324206D01*
X146805149Y-97337600D01*
X146856588Y-97491784D01*
X146862761Y-97504962D01*
X146948063Y-97642807D01*
X146957099Y-97654208D01*
X147071829Y-97768739D01*
X147083240Y-97777751D01*
X147221243Y-97862816D01*
X147234424Y-97868963D01*
X147388710Y-97920138D01*
X147402086Y-97923005D01*
X147496438Y-97932672D01*
X147502854Y-97933000D01*
X147727885Y-97933000D01*
X147743124Y-97928525D01*
X147744329Y-97927135D01*
X147746000Y-97919452D01*
X147746000Y-97184615D01*
X147741525Y-97169376D01*
X147740135Y-97168171D01*
X147732452Y-97166500D01*
X146810116Y-97166500D01*
X146794877Y-97170975D01*
X146793672Y-97172365D01*
X146792001Y-97180048D01*
X146792001Y-97222095D01*
X146012372Y-97222095D01*
X146013074Y-97193365D01*
X146013074Y-97193361D01*
X146013156Y-97190000D01*
X145994852Y-96967361D01*
X145940431Y-96750702D01*
X145851354Y-96545840D01*
X145753218Y-96394145D01*
X145732822Y-96362617D01*
X145732820Y-96362614D01*
X145730014Y-96358277D01*
X145726532Y-96354450D01*
X145582798Y-96196488D01*
X145551746Y-96132642D01*
X145560141Y-96062143D01*
X145605317Y-96007375D01*
X145631761Y-95993706D01*
X145738297Y-95953767D01*
X145746705Y-95950615D01*
X145863261Y-95863261D01*
X145950615Y-95746705D01*
X146001745Y-95610316D01*
X146008500Y-95548134D01*
X146008500Y-94834500D01*
X146028502Y-94766379D01*
X146082158Y-94719886D01*
X146134500Y-94708500D01*
X146665500Y-94708500D01*
X146733621Y-94728502D01*
X146780114Y-94782158D01*
X146791500Y-94834500D01*
X146791500Y-95400400D01*
X146802474Y-95506166D01*
X146804655Y-95512702D01*
X146804655Y-95512704D01*
X146816899Y-95549404D01*
X146858450Y-95673946D01*
X146951522Y-95824348D01*
X146956704Y-95829521D01*
X147038463Y-95911138D01*
X147072542Y-95973421D01*
X147067539Y-96044241D01*
X147038618Y-96089329D01*
X146956261Y-96171829D01*
X146947249Y-96183240D01*
X146862184Y-96321243D01*
X146856037Y-96334424D01*
X146804862Y-96488710D01*
X146801995Y-96502086D01*
X146792328Y-96596438D01*
X146792000Y-96602855D01*
X146792000Y-96640385D01*
X146796475Y-96655624D01*
X146797865Y-96656829D01*
X146805548Y-96658500D01*
X148983885Y-96658500D01*
X148992045Y-96656104D01*
X149027543Y-96651000D01*
X151986878Y-96651000D01*
X152000409Y-96647027D01*
X152001544Y-96639129D01*
X151960893Y-96499210D01*
X151954648Y-96484779D01*
X151878089Y-96355323D01*
X151872129Y-96347640D01*
X151846180Y-96281556D01*
X151860078Y-96211933D01*
X151870421Y-96195839D01*
X151874453Y-96191807D01*
X151959145Y-96048601D01*
X151974233Y-95996669D01*
X151985565Y-95957662D01*
X152005562Y-95888831D01*
X152006310Y-95879338D01*
X152008307Y-95853958D01*
X152008307Y-95853950D01*
X152008500Y-95851502D01*
X152008500Y-95418498D01*
X152008307Y-95416042D01*
X152006067Y-95387579D01*
X152006066Y-95387574D01*
X152005562Y-95381169D01*
X151959145Y-95221399D01*
X151874453Y-95078193D01*
X151871771Y-95075511D01*
X151846498Y-95011139D01*
X151860400Y-94941516D01*
X151870572Y-94925688D01*
X151874453Y-94921807D01*
X151959145Y-94778601D01*
X152005562Y-94618831D01*
X152006135Y-94611562D01*
X152008307Y-94583958D01*
X152008307Y-94583950D01*
X152008500Y-94581502D01*
X152008500Y-94148498D01*
X152005562Y-94111169D01*
X151959145Y-93951399D01*
X151874453Y-93808193D01*
X151871771Y-93805511D01*
X151846498Y-93741139D01*
X151860400Y-93671516D01*
X151870572Y-93655688D01*
X151874453Y-93651807D01*
X151959145Y-93508601D01*
X152005562Y-93348831D01*
X152007394Y-93325562D01*
X152008307Y-93313958D01*
X152008307Y-93313950D01*
X152008500Y-93311502D01*
X152008500Y-92878498D01*
X152005562Y-92841169D01*
X151959145Y-92681399D01*
X151914655Y-92606170D01*
X151878491Y-92545020D01*
X151878489Y-92545017D01*
X151874453Y-92538193D01*
X151756807Y-92420547D01*
X151749983Y-92416511D01*
X151749980Y-92416509D01*
X151620427Y-92339892D01*
X151620428Y-92339892D01*
X151613601Y-92335855D01*
X151605990Y-92333644D01*
X151605988Y-92333643D01*
X151553769Y-92318472D01*
X151453831Y-92289438D01*
X151447426Y-92288934D01*
X151447421Y-92288933D01*
X151418958Y-92286693D01*
X151418950Y-92286693D01*
X151416502Y-92286500D01*
X149633498Y-92286500D01*
X149631050Y-92286693D01*
X149631042Y-92286693D01*
X149602579Y-92288933D01*
X149602574Y-92288934D01*
X149596169Y-92289438D01*
X149496231Y-92318472D01*
X149444012Y-92333643D01*
X149444010Y-92333644D01*
X149436399Y-92335855D01*
X149380431Y-92368955D01*
X149316294Y-92386500D01*
X143693912Y-92386500D01*
X143685342Y-92386208D01*
X143635224Y-92382791D01*
X143635220Y-92382791D01*
X143627648Y-92382275D01*
X143620171Y-92383580D01*
X143620170Y-92383580D01*
X143593692Y-92388201D01*
X143564697Y-92393262D01*
X143558179Y-92394223D01*
X143494758Y-92401898D01*
X143487657Y-92404581D01*
X143485048Y-92405222D01*
X143468738Y-92409685D01*
X143466202Y-92410450D01*
X143458716Y-92411757D01*
X143451759Y-92414811D01*
X143400205Y-92437442D01*
X143394101Y-92439933D01*
X143334344Y-92462513D01*
X143328081Y-92466817D01*
X143325715Y-92468054D01*
X143310903Y-92476299D01*
X143308649Y-92477632D01*
X143301695Y-92480685D01*
X143250998Y-92519587D01*
X143245668Y-92523459D01*
X143199280Y-92555339D01*
X143199275Y-92555344D01*
X143193019Y-92559643D01*
X143187968Y-92565313D01*
X143187966Y-92565314D01*
X143151565Y-92606170D01*
X143146584Y-92611446D01*
X142477316Y-93280714D01*
X142415004Y-93314740D01*
X142366125Y-93315666D01*
X142243373Y-93293800D01*
X142243367Y-93293799D01*
X142238284Y-93292894D01*
X142164452Y-93291992D01*
X142020081Y-93290228D01*
X142020079Y-93290228D01*
X142014911Y-93290165D01*
X141794091Y-93323955D01*
X141581756Y-93393357D01*
X141383607Y-93496507D01*
X141379474Y-93499610D01*
X141379471Y-93499612D01*
X141281333Y-93573296D01*
X141204965Y-93630635D01*
X141184733Y-93651807D01*
X141110010Y-93730000D01*
X141050629Y-93792138D01*
X141047715Y-93796410D01*
X141047714Y-93796411D01*
X141029212Y-93823534D01*
X140924743Y-93976680D01*
X140922564Y-93981375D01*
X140843842Y-94150968D01*
X140830688Y-94179305D01*
X140770989Y-94394570D01*
X140747251Y-94616695D01*
X140747548Y-94621848D01*
X140747548Y-94621851D01*
X140756586Y-94778601D01*
X140760110Y-94839715D01*
X140761247Y-94844761D01*
X140761248Y-94844767D01*
X140762681Y-94851124D01*
X140809222Y-95057639D01*
X140835649Y-95122721D01*
X140875718Y-95221399D01*
X140893266Y-95264616D01*
X140895965Y-95269020D01*
X140987565Y-95418498D01*
X141009987Y-95455088D01*
X141156250Y-95623938D01*
X141328126Y-95766632D01*
X141358704Y-95784500D01*
X141401445Y-95809476D01*
X141450169Y-95861114D01*
X141463240Y-95930897D01*
X141436509Y-95996669D01*
X141396055Y-96030027D01*
X141383607Y-96036507D01*
X141379474Y-96039610D01*
X141379471Y-96039612D01*
X141255567Y-96132642D01*
X141204965Y-96170635D01*
X141177316Y-96199568D01*
X141057638Y-96324804D01*
X141050629Y-96332138D01*
X141047720Y-96336403D01*
X141047714Y-96336411D01*
X141034813Y-96355323D01*
X140924743Y-96516680D01*
X140897187Y-96576045D01*
X140833589Y-96713056D01*
X140830688Y-96719305D01*
X140770989Y-96934570D01*
X140747251Y-97156695D01*
X140747548Y-97161848D01*
X140747548Y-97161851D01*
X140753009Y-97256565D01*
X140760110Y-97379715D01*
X140761247Y-97384761D01*
X140761248Y-97384767D01*
X140781119Y-97472939D01*
X140809222Y-97597639D01*
X140847461Y-97691811D01*
X140889970Y-97796498D01*
X140893266Y-97804616D01*
X140930793Y-97865855D01*
X141007291Y-97990688D01*
X141009987Y-97995088D01*
X141156250Y-98163938D01*
X141328126Y-98306632D01*
X141398595Y-98347811D01*
X141401445Y-98349476D01*
X141450169Y-98401114D01*
X141463240Y-98470897D01*
X141436509Y-98536669D01*
X141396055Y-98570027D01*
X141383607Y-98576507D01*
X141379474Y-98579610D01*
X141379471Y-98579612D01*
X141312209Y-98630114D01*
X141204965Y-98710635D01*
X141050629Y-98872138D01*
X141047720Y-98876403D01*
X141047714Y-98876411D01*
X140988005Y-98963941D01*
X140924743Y-99056680D01*
X140830688Y-99259305D01*
X140770989Y-99474570D01*
X140747251Y-99696695D01*
X140760110Y-99919715D01*
X140761247Y-99924761D01*
X140761248Y-99924767D01*
X140779760Y-100006908D01*
X140809222Y-100137639D01*
X140869967Y-100287237D01*
X140889365Y-100335008D01*
X140893266Y-100344616D01*
X140895965Y-100349020D01*
X140976835Y-100480988D01*
X141009987Y-100535088D01*
X141156250Y-100703938D01*
X141328126Y-100846632D01*
X141387055Y-100881067D01*
X141401445Y-100889476D01*
X141450169Y-100941114D01*
X141463240Y-101010897D01*
X141436509Y-101076669D01*
X141396055Y-101110027D01*
X141383607Y-101116507D01*
X141379474Y-101119610D01*
X141379471Y-101119612D01*
X141209100Y-101247530D01*
X141204965Y-101250635D01*
X141050629Y-101412138D01*
X140924743Y-101596680D01*
X140904166Y-101641010D01*
X140855738Y-101745340D01*
X140830688Y-101799305D01*
X140770989Y-102014570D01*
X140747251Y-102236695D01*
X140760110Y-102459715D01*
X140761247Y-102464761D01*
X140761248Y-102464767D01*
X140785304Y-102571508D01*
X140809222Y-102677639D01*
X140893266Y-102884616D01*
X141009987Y-103075088D01*
X141156250Y-103243938D01*
X141328126Y-103386632D01*
X141401955Y-103429774D01*
X141450679Y-103481412D01*
X141463750Y-103551195D01*
X141437019Y-103616967D01*
X141396562Y-103650327D01*
X141388457Y-103654546D01*
X141379738Y-103660036D01*
X141209433Y-103787905D01*
X141201726Y-103794748D01*
X141054590Y-103948717D01*
X141048104Y-103956727D01*
X140928098Y-104132649D01*
X140923000Y-104141623D01*
X140833338Y-104334783D01*
X140829775Y-104344470D01*
X140774389Y-104544183D01*
X140775912Y-104552607D01*
X140788292Y-104556000D01*
X145968344Y-104556000D01*
X145981875Y-104552027D01*
X145983180Y-104542947D01*
X145943432Y-104384707D01*
X145946236Y-104313766D01*
X145986948Y-104255602D01*
X146052644Y-104228683D01*
X146065636Y-104228011D01*
X155923851Y-104228011D01*
X155991972Y-104248013D01*
X156012946Y-104264916D01*
X157504595Y-105756566D01*
X157538621Y-105818878D01*
X157541500Y-105845661D01*
X157541500Y-107076776D01*
X157521498Y-107144897D01*
X157467842Y-107191390D01*
X157397568Y-107201494D01*
X157351364Y-107185231D01*
X157318601Y-107165855D01*
X157310990Y-107163644D01*
X157310988Y-107163643D01*
X157246462Y-107144897D01*
X157158831Y-107119438D01*
X157152426Y-107118934D01*
X157152421Y-107118933D01*
X157123958Y-107116693D01*
X157123950Y-107116693D01*
X157121502Y-107116500D01*
X156688498Y-107116500D01*
X156686050Y-107116693D01*
X156686042Y-107116693D01*
X156657579Y-107118933D01*
X156657574Y-107118934D01*
X156651169Y-107119438D01*
X156563538Y-107144897D01*
X156499012Y-107163643D01*
X156499010Y-107163644D01*
X156491399Y-107165855D01*
X156348193Y-107250547D01*
X156345511Y-107253229D01*
X156281139Y-107278502D01*
X156211516Y-107264600D01*
X156195688Y-107254428D01*
X156191807Y-107250547D01*
X156048601Y-107165855D01*
X156040990Y-107163644D01*
X156040988Y-107163643D01*
X155976462Y-107144897D01*
X155888831Y-107119438D01*
X155882426Y-107118934D01*
X155882421Y-107118933D01*
X155853958Y-107116693D01*
X155853950Y-107116693D01*
X155851502Y-107116500D01*
X155418498Y-107116500D01*
X155416050Y-107116693D01*
X155416042Y-107116693D01*
X155387579Y-107118933D01*
X155387574Y-107118934D01*
X155381169Y-107119438D01*
X155293538Y-107144897D01*
X155229012Y-107163643D01*
X155229010Y-107163644D01*
X155221399Y-107165855D01*
X155078193Y-107250547D01*
X155075511Y-107253229D01*
X155011139Y-107278502D01*
X154941516Y-107264600D01*
X154925688Y-107254428D01*
X154921807Y-107250547D01*
X154778601Y-107165855D01*
X154770990Y-107163644D01*
X154770988Y-107163643D01*
X154706462Y-107144897D01*
X154618831Y-107119438D01*
X154612426Y-107118934D01*
X154612421Y-107118933D01*
X154583958Y-107116693D01*
X154583950Y-107116693D01*
X154581502Y-107116500D01*
X154148498Y-107116500D01*
X154146050Y-107116693D01*
X154146042Y-107116693D01*
X154117579Y-107118933D01*
X154117574Y-107118934D01*
X154111169Y-107119438D01*
X154023538Y-107144897D01*
X153959012Y-107163643D01*
X153959010Y-107163644D01*
X153951399Y-107165855D01*
X153808193Y-107250547D01*
X153805511Y-107253229D01*
X153741139Y-107278502D01*
X153671516Y-107264600D01*
X153655688Y-107254428D01*
X153651807Y-107250547D01*
X153508601Y-107165855D01*
X153500990Y-107163644D01*
X153500988Y-107163643D01*
X153436462Y-107144897D01*
X153348831Y-107119438D01*
X153342426Y-107118934D01*
X153342421Y-107118933D01*
X153313958Y-107116693D01*
X153313950Y-107116693D01*
X153311502Y-107116500D01*
X152878498Y-107116500D01*
X152876050Y-107116693D01*
X152876042Y-107116693D01*
X152847579Y-107118933D01*
X152847574Y-107118934D01*
X152841169Y-107119438D01*
X152753538Y-107144897D01*
X152689012Y-107163643D01*
X152689010Y-107163644D01*
X152681399Y-107165855D01*
X152538193Y-107250547D01*
X152535511Y-107253229D01*
X152471139Y-107278502D01*
X152401516Y-107264600D01*
X152385688Y-107254428D01*
X152381807Y-107250547D01*
X152238601Y-107165855D01*
X152230990Y-107163644D01*
X152230988Y-107163643D01*
X152166462Y-107144897D01*
X152078831Y-107119438D01*
X152072426Y-107118934D01*
X152072421Y-107118933D01*
X152043958Y-107116693D01*
X152043950Y-107116693D01*
X152041502Y-107116500D01*
X151608498Y-107116500D01*
X151606050Y-107116693D01*
X151606042Y-107116693D01*
X151577579Y-107118933D01*
X151577574Y-107118934D01*
X151571169Y-107119438D01*
X151483538Y-107144897D01*
X151419012Y-107163643D01*
X151419010Y-107163644D01*
X151411399Y-107165855D01*
X151268193Y-107250547D01*
X151265511Y-107253229D01*
X151201139Y-107278502D01*
X151131516Y-107264600D01*
X151115688Y-107254428D01*
X151111807Y-107250547D01*
X150968601Y-107165855D01*
X150960990Y-107163644D01*
X150960988Y-107163643D01*
X150896462Y-107144897D01*
X150808831Y-107119438D01*
X150802426Y-107118934D01*
X150802421Y-107118933D01*
X150773958Y-107116693D01*
X150773950Y-107116693D01*
X150771502Y-107116500D01*
X150338498Y-107116500D01*
X150336050Y-107116693D01*
X150336042Y-107116693D01*
X150307579Y-107118933D01*
X150307574Y-107118934D01*
X150301169Y-107119438D01*
X150213538Y-107144897D01*
X150149012Y-107163643D01*
X150149010Y-107163644D01*
X150141399Y-107165855D01*
X150134572Y-107169892D01*
X150134573Y-107169892D01*
X150005020Y-107246509D01*
X150005017Y-107246511D01*
X149998193Y-107250547D01*
X149880547Y-107368193D01*
X149876511Y-107375017D01*
X149876509Y-107375020D01*
X149812893Y-107482589D01*
X149795855Y-107511399D01*
X149793644Y-107519010D01*
X149793643Y-107519012D01*
X149786497Y-107543610D01*
X149749438Y-107671169D01*
X149746500Y-107708498D01*
X149746500Y-107815500D01*
X149726498Y-107883621D01*
X149672842Y-107930114D01*
X149620500Y-107941500D01*
X149359500Y-107941500D01*
X149291379Y-107921498D01*
X149244886Y-107867842D01*
X149233500Y-107815500D01*
X149233500Y-107649600D01*
X149222526Y-107543834D01*
X149209428Y-107504573D01*
X149168868Y-107383002D01*
X149166550Y-107376054D01*
X149073478Y-107225652D01*
X148948303Y-107100695D01*
X148943765Y-107097898D01*
X148903176Y-107040647D01*
X148899946Y-106969724D01*
X148935572Y-106908313D01*
X148944068Y-106900938D01*
X148954207Y-106892902D01*
X149068739Y-106778171D01*
X149077751Y-106766760D01*
X149162816Y-106628757D01*
X149168963Y-106615576D01*
X149220138Y-106461290D01*
X149223005Y-106447914D01*
X149232672Y-106353562D01*
X149233000Y-106347146D01*
X149233000Y-106322115D01*
X149228525Y-106306876D01*
X149227135Y-106305671D01*
X149219452Y-106304000D01*
X146785116Y-106304000D01*
X146769877Y-106308475D01*
X146768672Y-106309865D01*
X146767001Y-106317548D01*
X146767001Y-106347095D01*
X146767338Y-106353614D01*
X146777257Y-106449206D01*
X146780149Y-106462600D01*
X146831588Y-106616784D01*
X146837761Y-106629962D01*
X146923063Y-106767807D01*
X146932099Y-106779208D01*
X147046828Y-106893738D01*
X147055762Y-106900794D01*
X147096823Y-106958712D01*
X147100053Y-107029635D01*
X147064426Y-107091046D01*
X147056594Y-107097845D01*
X147050652Y-107101522D01*
X147045475Y-107106708D01*
X147039746Y-107111249D01*
X147038420Y-107109576D01*
X146985375Y-107138598D01*
X146958489Y-107141500D01*
X146096669Y-107141500D01*
X146028548Y-107121498D01*
X145982055Y-107067842D01*
X145974465Y-107046196D01*
X145941691Y-106915720D01*
X145940431Y-106910702D01*
X145851354Y-106705840D01*
X145745038Y-106541500D01*
X145732822Y-106522617D01*
X145732820Y-106522614D01*
X145730014Y-106518277D01*
X145579670Y-106353051D01*
X145575619Y-106349852D01*
X145575615Y-106349848D01*
X145408414Y-106217800D01*
X145408410Y-106217798D01*
X145404359Y-106214598D01*
X145362569Y-106191529D01*
X145312598Y-106141097D01*
X145297826Y-106071654D01*
X145322942Y-106005248D01*
X145350294Y-105978641D01*
X145525328Y-105853792D01*
X145533200Y-105847139D01*
X145602696Y-105777885D01*
X146767000Y-105777885D01*
X146771475Y-105793124D01*
X146772865Y-105794329D01*
X146780548Y-105796000D01*
X147727885Y-105796000D01*
X147743124Y-105791525D01*
X147744329Y-105790135D01*
X147746000Y-105782452D01*
X147746000Y-105777885D01*
X148254000Y-105777885D01*
X148258475Y-105793124D01*
X148259865Y-105794329D01*
X148267548Y-105796000D01*
X149214884Y-105796000D01*
X149230123Y-105791525D01*
X149231328Y-105790135D01*
X149232999Y-105782452D01*
X149232999Y-105752905D01*
X149232662Y-105746386D01*
X149222743Y-105650794D01*
X149219851Y-105637400D01*
X149168412Y-105483216D01*
X149162239Y-105470038D01*
X149076937Y-105332193D01*
X149067901Y-105320792D01*
X148953171Y-105206261D01*
X148941760Y-105197249D01*
X148803757Y-105112184D01*
X148790576Y-105106037D01*
X148636290Y-105054862D01*
X148622914Y-105051995D01*
X148528562Y-105042328D01*
X148522145Y-105042000D01*
X148272115Y-105042000D01*
X148256876Y-105046475D01*
X148255671Y-105047865D01*
X148254000Y-105055548D01*
X148254000Y-105777885D01*
X147746000Y-105777885D01*
X147746000Y-105060116D01*
X147741525Y-105044877D01*
X147740135Y-105043672D01*
X147732452Y-105042001D01*
X147477905Y-105042001D01*
X147471386Y-105042338D01*
X147375794Y-105052257D01*
X147362400Y-105055149D01*
X147208216Y-105106588D01*
X147195038Y-105112761D01*
X147057193Y-105198063D01*
X147045792Y-105207099D01*
X146931261Y-105321829D01*
X146922249Y-105333240D01*
X146837184Y-105471243D01*
X146831037Y-105484424D01*
X146779862Y-105638710D01*
X146776995Y-105652086D01*
X146767328Y-105746438D01*
X146767000Y-105752855D01*
X146767000Y-105777885D01*
X145602696Y-105777885D01*
X145684052Y-105696812D01*
X145690730Y-105688965D01*
X145815003Y-105516020D01*
X145820313Y-105507183D01*
X145914670Y-105316267D01*
X145918469Y-105306672D01*
X145980377Y-105102910D01*
X145982555Y-105092837D01*
X145983986Y-105081962D01*
X145981775Y-105067778D01*
X145968617Y-105064000D01*
X140793225Y-105064000D01*
X140779694Y-105067973D01*
X140778257Y-105077966D01*
X140808565Y-105212446D01*
X140811645Y-105222275D01*
X140891770Y-105419603D01*
X140896413Y-105428794D01*
X141007694Y-105610388D01*
X141013777Y-105618699D01*
X141153213Y-105779667D01*
X141160580Y-105786883D01*
X141324434Y-105922916D01*
X141332881Y-105928831D01*
X141401969Y-105969203D01*
X141450693Y-106020842D01*
X141463764Y-106090625D01*
X141437033Y-106156396D01*
X141396584Y-106189752D01*
X141383607Y-106196507D01*
X141379474Y-106199610D01*
X141379471Y-106199612D01*
X141209100Y-106327530D01*
X141204965Y-106330635D01*
X141050629Y-106492138D01*
X141047715Y-106496410D01*
X141047714Y-106496411D01*
X140966425Y-106615576D01*
X140924743Y-106676680D01*
X140830688Y-106879305D01*
X140770989Y-107094570D01*
X140770440Y-107099707D01*
X140769456Y-107108913D01*
X140747251Y-107316695D01*
X140747548Y-107321848D01*
X140747548Y-107321851D01*
X140751074Y-107383002D01*
X140760110Y-107539715D01*
X140761247Y-107544761D01*
X140761248Y-107544767D01*
X140784142Y-107646350D01*
X140809222Y-107757639D01*
X140860378Y-107883621D01*
X140883880Y-107941500D01*
X140893266Y-107964616D01*
X141009987Y-108155088D01*
X141156250Y-108323938D01*
X141328126Y-108466632D01*
X141521000Y-108579338D01*
X141729692Y-108659030D01*
X141734760Y-108660061D01*
X141734763Y-108660062D01*
X141842017Y-108681883D01*
X141948597Y-108703567D01*
X141953772Y-108703757D01*
X141953774Y-108703757D01*
X142166673Y-108711564D01*
X142166677Y-108711564D01*
X142171837Y-108711753D01*
X142176957Y-108711097D01*
X142176959Y-108711097D01*
X142388288Y-108684025D01*
X142388289Y-108684025D01*
X142393416Y-108683368D01*
X142398366Y-108681883D01*
X142602429Y-108620661D01*
X142602434Y-108620659D01*
X142607384Y-108619174D01*
X142807994Y-108520896D01*
X142989860Y-108391173D01*
X143148096Y-108233489D01*
X143151169Y-108229213D01*
X143164276Y-108210973D01*
X143220271Y-108167326D01*
X143266598Y-108158500D01*
X143495389Y-108158500D01*
X143563510Y-108178502D01*
X143590625Y-108202001D01*
X143696250Y-108323938D01*
X143868126Y-108466632D01*
X144061000Y-108579338D01*
X144269692Y-108659030D01*
X144274760Y-108660061D01*
X144274763Y-108660062D01*
X144382017Y-108681883D01*
X144488597Y-108703567D01*
X144493772Y-108703757D01*
X144493774Y-108703757D01*
X144706673Y-108711564D01*
X144706677Y-108711564D01*
X144711837Y-108711753D01*
X144716957Y-108711097D01*
X144716959Y-108711097D01*
X144877217Y-108690567D01*
X144948064Y-108702105D01*
X144973407Y-108714356D01*
X144973413Y-108714358D01*
X144979749Y-108717421D01*
X144986607Y-108719004D01*
X144986609Y-108719005D01*
X145012426Y-108724965D01*
X145027169Y-108729332D01*
X145058685Y-108740803D01*
X145065675Y-108741686D01*
X145065683Y-108741688D01*
X145101701Y-108746238D01*
X145114253Y-108748474D01*
X145149614Y-108756638D01*
X145149617Y-108756638D01*
X145156485Y-108758224D01*
X145163531Y-108758249D01*
X145163534Y-108758249D01*
X145197056Y-108758366D01*
X145197938Y-108758395D01*
X145198769Y-108758500D01*
X145235419Y-108758500D01*
X145235859Y-108758501D01*
X145334343Y-108758845D01*
X145334348Y-108758845D01*
X145337870Y-108758857D01*
X145339070Y-108758589D01*
X145340707Y-108758500D01*
X146958694Y-108758500D01*
X147026815Y-108778502D01*
X147040702Y-108789683D01*
X147040771Y-108789596D01*
X147046517Y-108794134D01*
X147051697Y-108799305D01*
X147202262Y-108892115D01*
X147282005Y-108918564D01*
X147363611Y-108945632D01*
X147363613Y-108945632D01*
X147370139Y-108947797D01*
X147376975Y-108948497D01*
X147376978Y-108948498D01*
X147420031Y-108952909D01*
X147474600Y-108958500D01*
X147954339Y-108958500D01*
X148022460Y-108978502D01*
X148043434Y-108995405D01*
X148178557Y-109130528D01*
X148184411Y-109136793D01*
X148222439Y-109180385D01*
X148274729Y-109217136D01*
X148279971Y-109221028D01*
X148330282Y-109260476D01*
X148337201Y-109263600D01*
X148339493Y-109264988D01*
X148354165Y-109273357D01*
X148356525Y-109274622D01*
X148362739Y-109278990D01*
X148369818Y-109281750D01*
X148369820Y-109281751D01*
X148422275Y-109302202D01*
X148428344Y-109304753D01*
X148486573Y-109331045D01*
X148494046Y-109332430D01*
X148496612Y-109333234D01*
X148512835Y-109337855D01*
X148515427Y-109338520D01*
X148522509Y-109341282D01*
X148530044Y-109342274D01*
X148585861Y-109349622D01*
X148592377Y-109350654D01*
X148630770Y-109357770D01*
X148655186Y-109362295D01*
X148662766Y-109361858D01*
X148662767Y-109361858D01*
X148717380Y-109358709D01*
X148724633Y-109358500D01*
X149620500Y-109358500D01*
X149688621Y-109378502D01*
X149735114Y-109432158D01*
X149746500Y-109484500D01*
X149746500Y-109591502D01*
X149749438Y-109628831D01*
X149795855Y-109788601D01*
X149799891Y-109795425D01*
X149803402Y-109801362D01*
X149820861Y-109870179D01*
X149798343Y-109937510D01*
X149742998Y-109981978D01*
X149694948Y-109991500D01*
X138634500Y-109991500D01*
X138566379Y-109971498D01*
X138519886Y-109917842D01*
X138508500Y-109865500D01*
X138508500Y-92134500D01*
X138528502Y-92066379D01*
X138582158Y-92019886D01*
X138634500Y-92008500D01*
X156939521Y-92008500D01*
X157007642Y-92028502D01*
G37*
%TD.AperFunction*%
%TD*%
M02*
