%TF.GenerationSoftware,KiCad,Pcbnew,(6.0.5)*%
%TF.CreationDate,2024-07-06T21:03:59+02:00*%
%TF.ProjectId,pmod_mem_2v0,706d6f64-5f6d-4656-9d5f-3276302e6b69,rev?*%
%TF.SameCoordinates,Original*%
%TF.FileFunction,Soldermask,Top*%
%TF.FilePolarity,Negative*%
%FSLAX46Y46*%
G04 Gerber Fmt 4.6, Leading zero omitted, Abs format (unit mm)*
G04 Created by KiCad (PCBNEW (6.0.5)) date 2024-07-06 21:03:59*
%MOMM*%
%LPD*%
G01*
G04 APERTURE LIST*
G04 Aperture macros list*
%AMRoundRect*
0 Rectangle with rounded corners*
0 $1 Rounding radius*
0 $2 $3 $4 $5 $6 $7 $8 $9 X,Y pos of 4 corners*
0 Add a 4 corners polygon primitive as box body*
4,1,4,$2,$3,$4,$5,$6,$7,$8,$9,$2,$3,0*
0 Add four circle primitives for the rounded corners*
1,1,$1+$1,$2,$3*
1,1,$1+$1,$4,$5*
1,1,$1+$1,$6,$7*
1,1,$1+$1,$8,$9*
0 Add four rect primitives between the rounded corners*
20,1,$1+$1,$2,$3,$4,$5,0*
20,1,$1+$1,$4,$5,$6,$7,0*
20,1,$1+$1,$6,$7,$8,$9,0*
20,1,$1+$1,$8,$9,$2,$3,0*%
G04 Aperture macros list end*
%ADD10RoundRect,0.250000X-0.475000X0.250000X-0.475000X-0.250000X0.475000X-0.250000X0.475000X0.250000X0*%
%ADD11RoundRect,0.150000X0.150000X-0.875000X0.150000X0.875000X-0.150000X0.875000X-0.150000X-0.875000X0*%
%ADD12RoundRect,0.250000X-0.450000X0.262500X-0.450000X-0.262500X0.450000X-0.262500X0.450000X0.262500X0*%
%ADD13RoundRect,0.250000X0.475000X-0.250000X0.475000X0.250000X-0.475000X0.250000X-0.475000X-0.250000X0*%
%ADD14R,1.700000X1.700000*%
%ADD15O,1.700000X1.700000*%
%ADD16RoundRect,0.150000X-0.825000X-0.150000X0.825000X-0.150000X0.825000X0.150000X-0.825000X0.150000X0*%
G04 APERTURE END LIST*
D10*
%TO.C,C2*%
X158000000Y-93050000D03*
X158000000Y-94950000D03*
%TD*%
D11*
%TO.C,U2*%
X150555000Y-108650000D03*
X151825000Y-108650000D03*
X153095000Y-108650000D03*
X154365000Y-108650000D03*
X155635000Y-108650000D03*
X156905000Y-108650000D03*
X158175000Y-108650000D03*
X159445000Y-108650000D03*
X159445000Y-99350000D03*
X158175000Y-99350000D03*
X156905000Y-99350000D03*
X155635000Y-99350000D03*
X154365000Y-99350000D03*
X153095000Y-99350000D03*
X151825000Y-99350000D03*
X150555000Y-99350000D03*
%TD*%
D12*
%TO.C,R2*%
X160000000Y-94087500D03*
X160000000Y-95912500D03*
%TD*%
D13*
%TO.C,C1*%
X148000000Y-107950000D03*
X148000000Y-106050000D03*
%TD*%
D14*
%TO.C,PMOD1*%
X144650000Y-94650000D03*
D15*
X144650000Y-97190000D03*
X144650000Y-99730000D03*
X144650000Y-102270000D03*
X144650000Y-104810000D03*
X144650000Y-107350000D03*
X142110000Y-94650000D03*
X142110000Y-97190000D03*
X142110000Y-99730000D03*
X142110000Y-102270000D03*
X142110000Y-104810000D03*
X142110000Y-107350000D03*
%TD*%
D12*
%TO.C,R1*%
X148000000Y-95087500D03*
X148000000Y-96912500D03*
%TD*%
D16*
%TO.C,U1*%
X150525000Y-93095000D03*
X150525000Y-94365000D03*
X150525000Y-95635000D03*
X150525000Y-96905000D03*
X155475000Y-96905000D03*
X155475000Y-95635000D03*
X155475000Y-94365000D03*
X155475000Y-93095000D03*
%TD*%
M02*
