M48
; DRILL file {KiCad 6.0.2+dfsg-1} date Wed 17 Dec 2025 10:44:20 PM CET
; FORMAT={-:-/ absolute / metric / decimal}
; #@! TF.CreationDate,2025-12-17T22:44:20+01:00
; #@! TF.GenerationSoftware,Kicad,Pcbnew,6.0.2+dfsg-1
; #@! TF.FileFunction,Plated,1,2,PTH
FMAT,2
METRIC
; #@! TA.AperFunction,Plated,PTH,ViaDrill
T1C0.400
; #@! TA.AperFunction,Plated,PTH,ComponentDrill
T2C1.000
%
G90
G05
T1
X171.0Y-104.5
X179.25Y-89.75
X179.25Y-92.0
X179.25Y-94.25
X179.25Y-96.5
X179.25Y-99.0
X183.5Y-96.75
X183.5Y-99.25
X184.75Y-89.25
X184.75Y-104.0
X194.0Y-88.25
X194.0Y-104.0
T2
X172.71Y-89.75
X172.71Y-92.29
X172.71Y-94.83
X172.71Y-97.37
X172.71Y-99.91
X172.71Y-102.45
X175.25Y-89.75
X175.25Y-92.29
X175.25Y-94.83
X175.25Y-97.37
X175.25Y-99.91
X175.25Y-102.45
T0
M30
