%FSLAX45Y45*%
G04 Gerber Fmt 4.5, Leading zero omitted, Abs format (unit mm)*
G04 Created by KiCad (PCBNEW 6.0.2+dfsg-1) date 2025-12-17 22:44:21*
%MOMM*%
%LPD*%
G01*
G04 APERTURE LIST*
%TA.AperFunction,Profile*%
%ADD10C,0.100000*%
%TD*%
%ADD11C,0.200000*%
%ADD12C,0.040000*%
%ADD13C,0.100000*%
G04 APERTURE END LIST*
D10*
X20075000Y-8600000D02*
X16867000Y-8600000D01*
X16867000Y-8600000D02*
X16867000Y-10600000D01*
X16867000Y-10600000D02*
X20075000Y-10600000D01*
X20075000Y-10600000D02*
X20075000Y-8600000D01*
D11*
D12*
X17080000Y-10430000D02*
X17120000Y-10470000D01*
X17120000Y-10430000D02*
X17080000Y-10470000D01*
X17905000Y-8955000D02*
X17945000Y-8995000D01*
X17945000Y-8955000D02*
X17905000Y-8995000D01*
X17905000Y-9180000D02*
X17945000Y-9220000D01*
X17945000Y-9180000D02*
X17905000Y-9220000D01*
X17905000Y-9405000D02*
X17945000Y-9445000D01*
X17945000Y-9405000D02*
X17905000Y-9445000D01*
X17905000Y-9630000D02*
X17945000Y-9670000D01*
X17945000Y-9630000D02*
X17905000Y-9670000D01*
X17905000Y-9880000D02*
X17945000Y-9920000D01*
X17945000Y-9880000D02*
X17905000Y-9920000D01*
X18330000Y-9655000D02*
X18370000Y-9695000D01*
X18370000Y-9655000D02*
X18330000Y-9695000D01*
X18330000Y-9905000D02*
X18370000Y-9945000D01*
X18370000Y-9905000D02*
X18330000Y-9945000D01*
X18455000Y-8905000D02*
X18495000Y-8945000D01*
X18495000Y-8905000D02*
X18455000Y-8945000D01*
X18455000Y-10380000D02*
X18495000Y-10420000D01*
X18495000Y-10380000D02*
X18455000Y-10420000D01*
X19380000Y-8805000D02*
X19420000Y-8845000D01*
X19420000Y-8805000D02*
X19380000Y-8845000D01*
X19380000Y-10380000D02*
X19420000Y-10420000D01*
X19420000Y-10380000D02*
X19380000Y-10420000D01*
D13*
X17321000Y-8975000D02*
G75*
G03*
X17321000Y-8975000I-50000J0D01*
G01*
X17321000Y-9229000D02*
G75*
G03*
X17321000Y-9229000I-50000J0D01*
G01*
X17321000Y-9483000D02*
G75*
G03*
X17321000Y-9483000I-50000J0D01*
G01*
X17321000Y-9737000D02*
G75*
G03*
X17321000Y-9737000I-50000J0D01*
G01*
X17321000Y-9991000D02*
G75*
G03*
X17321000Y-9991000I-50000J0D01*
G01*
X17321000Y-10245000D02*
G75*
G03*
X17321000Y-10245000I-50000J0D01*
G01*
X17575000Y-8975000D02*
G75*
G03*
X17575000Y-8975000I-50000J0D01*
G01*
X17575000Y-9229000D02*
G75*
G03*
X17575000Y-9229000I-50000J0D01*
G01*
X17575000Y-9483000D02*
G75*
G03*
X17575000Y-9483000I-50000J0D01*
G01*
X17575000Y-9737000D02*
G75*
G03*
X17575000Y-9737000I-50000J0D01*
G01*
X17575000Y-9991000D02*
G75*
G03*
X17575000Y-9991000I-50000J0D01*
G01*
X17575000Y-10245000D02*
G75*
G03*
X17575000Y-10245000I-50000J0D01*
G01*
D11*
X17119619Y-10915476D02*
X17119619Y-10715476D01*
X17167238Y-10715476D01*
X17195810Y-10725000D01*
X17214857Y-10744048D01*
X17224381Y-10763095D01*
X17233905Y-10801190D01*
X17233905Y-10829762D01*
X17224381Y-10867857D01*
X17214857Y-10886905D01*
X17195810Y-10905952D01*
X17167238Y-10915476D01*
X17119619Y-10915476D01*
X17319619Y-10915476D02*
X17319619Y-10782143D01*
X17319619Y-10820238D02*
X17329143Y-10801190D01*
X17338667Y-10791667D01*
X17357714Y-10782143D01*
X17376762Y-10782143D01*
X17443429Y-10915476D02*
X17443429Y-10782143D01*
X17443429Y-10715476D02*
X17433905Y-10725000D01*
X17443429Y-10734524D01*
X17452952Y-10725000D01*
X17443429Y-10715476D01*
X17443429Y-10734524D01*
X17567238Y-10915476D02*
X17548190Y-10905952D01*
X17538667Y-10886905D01*
X17538667Y-10715476D01*
X17672000Y-10915476D02*
X17652952Y-10905952D01*
X17643429Y-10886905D01*
X17643429Y-10715476D01*
X17900571Y-10915476D02*
X17900571Y-10715476D01*
X17967238Y-10858333D01*
X18033905Y-10715476D01*
X18033905Y-10915476D01*
X18214857Y-10915476D02*
X18214857Y-10810714D01*
X18205333Y-10791667D01*
X18186286Y-10782143D01*
X18148190Y-10782143D01*
X18129143Y-10791667D01*
X18214857Y-10905952D02*
X18195810Y-10915476D01*
X18148190Y-10915476D01*
X18129143Y-10905952D01*
X18119619Y-10886905D01*
X18119619Y-10867857D01*
X18129143Y-10848810D01*
X18148190Y-10839286D01*
X18195810Y-10839286D01*
X18214857Y-10829762D01*
X18310095Y-10782143D02*
X18310095Y-10982143D01*
X18310095Y-10791667D02*
X18329143Y-10782143D01*
X18367238Y-10782143D01*
X18386286Y-10791667D01*
X18395810Y-10801190D01*
X18405333Y-10820238D01*
X18405333Y-10877381D01*
X18395810Y-10896429D01*
X18386286Y-10905952D01*
X18367238Y-10915476D01*
X18329143Y-10915476D01*
X18310095Y-10905952D01*
X18491048Y-10896429D02*
X18500571Y-10905952D01*
X18491048Y-10915476D01*
X18481524Y-10905952D01*
X18491048Y-10896429D01*
X18491048Y-10915476D01*
X18491048Y-10791667D02*
X18500571Y-10801190D01*
X18491048Y-10810714D01*
X18481524Y-10801190D01*
X18491048Y-10791667D01*
X18491048Y-10810714D01*
D12*
X16822000Y-11225000D02*
X16862000Y-11265000D01*
X16862000Y-11225000D02*
X16822000Y-11265000D01*
D11*
X17157714Y-11135476D02*
X17176762Y-11135476D01*
X17195810Y-11145000D01*
X17205333Y-11154524D01*
X17214857Y-11173571D01*
X17224381Y-11211667D01*
X17224381Y-11259286D01*
X17214857Y-11297381D01*
X17205333Y-11316428D01*
X17195810Y-11325952D01*
X17176762Y-11335476D01*
X17157714Y-11335476D01*
X17138667Y-11325952D01*
X17129143Y-11316428D01*
X17119619Y-11297381D01*
X17110095Y-11259286D01*
X17110095Y-11211667D01*
X17119619Y-11173571D01*
X17129143Y-11154524D01*
X17138667Y-11145000D01*
X17157714Y-11135476D01*
X17310095Y-11316428D02*
X17319619Y-11325952D01*
X17310095Y-11335476D01*
X17300571Y-11325952D01*
X17310095Y-11316428D01*
X17310095Y-11335476D01*
X17491048Y-11202143D02*
X17491048Y-11335476D01*
X17443429Y-11125952D02*
X17395810Y-11268809D01*
X17519619Y-11268809D01*
X17633905Y-11135476D02*
X17652952Y-11135476D01*
X17672000Y-11145000D01*
X17681524Y-11154524D01*
X17691048Y-11173571D01*
X17700571Y-11211667D01*
X17700571Y-11259286D01*
X17691048Y-11297381D01*
X17681524Y-11316428D01*
X17672000Y-11325952D01*
X17652952Y-11335476D01*
X17633905Y-11335476D01*
X17614857Y-11325952D01*
X17605333Y-11316428D01*
X17595810Y-11297381D01*
X17586286Y-11259286D01*
X17586286Y-11211667D01*
X17595810Y-11173571D01*
X17605333Y-11154524D01*
X17614857Y-11145000D01*
X17633905Y-11135476D01*
X17824381Y-11135476D02*
X17843429Y-11135476D01*
X17862476Y-11145000D01*
X17872000Y-11154524D01*
X17881524Y-11173571D01*
X17891048Y-11211667D01*
X17891048Y-11259286D01*
X17881524Y-11297381D01*
X17872000Y-11316428D01*
X17862476Y-11325952D01*
X17843429Y-11335476D01*
X17824381Y-11335476D01*
X17805333Y-11325952D01*
X17795810Y-11316428D01*
X17786286Y-11297381D01*
X17776762Y-11259286D01*
X17776762Y-11211667D01*
X17786286Y-11173571D01*
X17795810Y-11154524D01*
X17805333Y-11145000D01*
X17824381Y-11135476D01*
X17976762Y-11335476D02*
X17976762Y-11202143D01*
X17976762Y-11221190D02*
X17986286Y-11211667D01*
X18005333Y-11202143D01*
X18033905Y-11202143D01*
X18052952Y-11211667D01*
X18062476Y-11230714D01*
X18062476Y-11335476D01*
X18062476Y-11230714D02*
X18072000Y-11211667D01*
X18091048Y-11202143D01*
X18119619Y-11202143D01*
X18138667Y-11211667D01*
X18148190Y-11230714D01*
X18148190Y-11335476D01*
X18243429Y-11335476D02*
X18243429Y-11202143D01*
X18243429Y-11221190D02*
X18252952Y-11211667D01*
X18272000Y-11202143D01*
X18300571Y-11202143D01*
X18319619Y-11211667D01*
X18329143Y-11230714D01*
X18329143Y-11335476D01*
X18329143Y-11230714D02*
X18338667Y-11211667D01*
X18357714Y-11202143D01*
X18386286Y-11202143D01*
X18405333Y-11211667D01*
X18414857Y-11230714D01*
X18414857Y-11335476D01*
X18805333Y-11125952D02*
X18633905Y-11383095D01*
X19062476Y-11135476D02*
X19081524Y-11135476D01*
X19100571Y-11145000D01*
X19110095Y-11154524D01*
X19119619Y-11173571D01*
X19129143Y-11211667D01*
X19129143Y-11259286D01*
X19119619Y-11297381D01*
X19110095Y-11316428D01*
X19100571Y-11325952D01*
X19081524Y-11335476D01*
X19062476Y-11335476D01*
X19043429Y-11325952D01*
X19033905Y-11316428D01*
X19024381Y-11297381D01*
X19014857Y-11259286D01*
X19014857Y-11211667D01*
X19024381Y-11173571D01*
X19033905Y-11154524D01*
X19043429Y-11145000D01*
X19062476Y-11135476D01*
X19214857Y-11316428D02*
X19224381Y-11325952D01*
X19214857Y-11335476D01*
X19205333Y-11325952D01*
X19214857Y-11316428D01*
X19214857Y-11335476D01*
X19348190Y-11135476D02*
X19367238Y-11135476D01*
X19386286Y-11145000D01*
X19395810Y-11154524D01*
X19405333Y-11173571D01*
X19414857Y-11211667D01*
X19414857Y-11259286D01*
X19405333Y-11297381D01*
X19395810Y-11316428D01*
X19386286Y-11325952D01*
X19367238Y-11335476D01*
X19348190Y-11335476D01*
X19329143Y-11325952D01*
X19319619Y-11316428D01*
X19310095Y-11297381D01*
X19300571Y-11259286D01*
X19300571Y-11211667D01*
X19310095Y-11173571D01*
X19319619Y-11154524D01*
X19329143Y-11145000D01*
X19348190Y-11135476D01*
X19605333Y-11335476D02*
X19491048Y-11335476D01*
X19548190Y-11335476D02*
X19548190Y-11135476D01*
X19529143Y-11164048D01*
X19510095Y-11183095D01*
X19491048Y-11192619D01*
X19786286Y-11135476D02*
X19691048Y-11135476D01*
X19681524Y-11230714D01*
X19691048Y-11221190D01*
X19710095Y-11211667D01*
X19757714Y-11211667D01*
X19776762Y-11221190D01*
X19786286Y-11230714D01*
X19795810Y-11249762D01*
X19795810Y-11297381D01*
X19786286Y-11316428D01*
X19776762Y-11325952D01*
X19757714Y-11335476D01*
X19710095Y-11335476D01*
X19691048Y-11325952D01*
X19681524Y-11316428D01*
X19862476Y-11135476D02*
X19995810Y-11135476D01*
X19910095Y-11335476D01*
X20062476Y-11135476D02*
X20062476Y-11173571D01*
X20138667Y-11135476D02*
X20138667Y-11173571D01*
X20433905Y-11411667D02*
X20424381Y-11402143D01*
X20405333Y-11373571D01*
X20395810Y-11354524D01*
X20386286Y-11325952D01*
X20376762Y-11278333D01*
X20376762Y-11240238D01*
X20386286Y-11192619D01*
X20395810Y-11164048D01*
X20405333Y-11145000D01*
X20424381Y-11116429D01*
X20433905Y-11106905D01*
X20614857Y-11335476D02*
X20500571Y-11335476D01*
X20557714Y-11335476D02*
X20557714Y-11135476D01*
X20538667Y-11164048D01*
X20519619Y-11183095D01*
X20500571Y-11192619D01*
X20691048Y-11154524D02*
X20700571Y-11145000D01*
X20719619Y-11135476D01*
X20767238Y-11135476D01*
X20786286Y-11145000D01*
X20795810Y-11154524D01*
X20805333Y-11173571D01*
X20805333Y-11192619D01*
X20795810Y-11221190D01*
X20681524Y-11335476D01*
X20805333Y-11335476D01*
X21043429Y-11335476D02*
X21043429Y-11135476D01*
X21129143Y-11335476D02*
X21129143Y-11230714D01*
X21119619Y-11211667D01*
X21100571Y-11202143D01*
X21072000Y-11202143D01*
X21052952Y-11211667D01*
X21043429Y-11221190D01*
X21252952Y-11335476D02*
X21233905Y-11325952D01*
X21224381Y-11316428D01*
X21214857Y-11297381D01*
X21214857Y-11240238D01*
X21224381Y-11221190D01*
X21233905Y-11211667D01*
X21252952Y-11202143D01*
X21281524Y-11202143D01*
X21300571Y-11211667D01*
X21310095Y-11221190D01*
X21319619Y-11240238D01*
X21319619Y-11297381D01*
X21310095Y-11316428D01*
X21300571Y-11325952D01*
X21281524Y-11335476D01*
X21252952Y-11335476D01*
X21433905Y-11335476D02*
X21414857Y-11325952D01*
X21405333Y-11306905D01*
X21405333Y-11135476D01*
X21586286Y-11325952D02*
X21567238Y-11335476D01*
X21529143Y-11335476D01*
X21510095Y-11325952D01*
X21500571Y-11306905D01*
X21500571Y-11230714D01*
X21510095Y-11211667D01*
X21529143Y-11202143D01*
X21567238Y-11202143D01*
X21586286Y-11211667D01*
X21595810Y-11230714D01*
X21595810Y-11249762D01*
X21500571Y-11268809D01*
X21672000Y-11325952D02*
X21691048Y-11335476D01*
X21729143Y-11335476D01*
X21748190Y-11325952D01*
X21757714Y-11306905D01*
X21757714Y-11297381D01*
X21748190Y-11278333D01*
X21729143Y-11268809D01*
X21700571Y-11268809D01*
X21681524Y-11259286D01*
X21672000Y-11240238D01*
X21672000Y-11230714D01*
X21681524Y-11211667D01*
X21700571Y-11202143D01*
X21729143Y-11202143D01*
X21748190Y-11211667D01*
X21824381Y-11411667D02*
X21833905Y-11402143D01*
X21852952Y-11373571D01*
X21862476Y-11354524D01*
X21872000Y-11325952D01*
X21881524Y-11278333D01*
X21881524Y-11240238D01*
X21872000Y-11192619D01*
X21862476Y-11164048D01*
X21852952Y-11145000D01*
X21833905Y-11116429D01*
X21824381Y-11106905D01*
D13*
X16862000Y-11509000D02*
G75*
G03*
X16862000Y-11509000I-50000J0D01*
G01*
D11*
X17224381Y-11599476D02*
X17110095Y-11599476D01*
X17167238Y-11599476D02*
X17167238Y-11399476D01*
X17148190Y-11428048D01*
X17129143Y-11447095D01*
X17110095Y-11456619D01*
X17310095Y-11580428D02*
X17319619Y-11589952D01*
X17310095Y-11599476D01*
X17300571Y-11589952D01*
X17310095Y-11580428D01*
X17310095Y-11599476D01*
X17443429Y-11399476D02*
X17462476Y-11399476D01*
X17481524Y-11409000D01*
X17491048Y-11418524D01*
X17500571Y-11437571D01*
X17510095Y-11475667D01*
X17510095Y-11523286D01*
X17500571Y-11561381D01*
X17491048Y-11580428D01*
X17481524Y-11589952D01*
X17462476Y-11599476D01*
X17443429Y-11599476D01*
X17424381Y-11589952D01*
X17414857Y-11580428D01*
X17405333Y-11561381D01*
X17395810Y-11523286D01*
X17395810Y-11475667D01*
X17405333Y-11437571D01*
X17414857Y-11418524D01*
X17424381Y-11409000D01*
X17443429Y-11399476D01*
X17633905Y-11399476D02*
X17652952Y-11399476D01*
X17672000Y-11409000D01*
X17681524Y-11418524D01*
X17691048Y-11437571D01*
X17700571Y-11475667D01*
X17700571Y-11523286D01*
X17691048Y-11561381D01*
X17681524Y-11580428D01*
X17672000Y-11589952D01*
X17652952Y-11599476D01*
X17633905Y-11599476D01*
X17614857Y-11589952D01*
X17605333Y-11580428D01*
X17595810Y-11561381D01*
X17586286Y-11523286D01*
X17586286Y-11475667D01*
X17595810Y-11437571D01*
X17605333Y-11418524D01*
X17614857Y-11409000D01*
X17633905Y-11399476D01*
X17824381Y-11399476D02*
X17843429Y-11399476D01*
X17862476Y-11409000D01*
X17872000Y-11418524D01*
X17881524Y-11437571D01*
X17891048Y-11475667D01*
X17891048Y-11523286D01*
X17881524Y-11561381D01*
X17872000Y-11580428D01*
X17862476Y-11589952D01*
X17843429Y-11599476D01*
X17824381Y-11599476D01*
X17805333Y-11589952D01*
X17795810Y-11580428D01*
X17786286Y-11561381D01*
X17776762Y-11523286D01*
X17776762Y-11475667D01*
X17786286Y-11437571D01*
X17795810Y-11418524D01*
X17805333Y-11409000D01*
X17824381Y-11399476D01*
X17976762Y-11599476D02*
X17976762Y-11466143D01*
X17976762Y-11485190D02*
X17986286Y-11475667D01*
X18005333Y-11466143D01*
X18033905Y-11466143D01*
X18052952Y-11475667D01*
X18062476Y-11494714D01*
X18062476Y-11599476D01*
X18062476Y-11494714D02*
X18072000Y-11475667D01*
X18091048Y-11466143D01*
X18119619Y-11466143D01*
X18138667Y-11475667D01*
X18148190Y-11494714D01*
X18148190Y-11599476D01*
X18243429Y-11599476D02*
X18243429Y-11466143D01*
X18243429Y-11485190D02*
X18252952Y-11475667D01*
X18272000Y-11466143D01*
X18300571Y-11466143D01*
X18319619Y-11475667D01*
X18329143Y-11494714D01*
X18329143Y-11599476D01*
X18329143Y-11494714D02*
X18338667Y-11475667D01*
X18357714Y-11466143D01*
X18386286Y-11466143D01*
X18405333Y-11475667D01*
X18414857Y-11494714D01*
X18414857Y-11599476D01*
X18805333Y-11389952D02*
X18633905Y-11647095D01*
X19062476Y-11399476D02*
X19081524Y-11399476D01*
X19100571Y-11409000D01*
X19110095Y-11418524D01*
X19119619Y-11437571D01*
X19129143Y-11475667D01*
X19129143Y-11523286D01*
X19119619Y-11561381D01*
X19110095Y-11580428D01*
X19100571Y-11589952D01*
X19081524Y-11599476D01*
X19062476Y-11599476D01*
X19043429Y-11589952D01*
X19033905Y-11580428D01*
X19024381Y-11561381D01*
X19014857Y-11523286D01*
X19014857Y-11475667D01*
X19024381Y-11437571D01*
X19033905Y-11418524D01*
X19043429Y-11409000D01*
X19062476Y-11399476D01*
X19214857Y-11580428D02*
X19224381Y-11589952D01*
X19214857Y-11599476D01*
X19205333Y-11589952D01*
X19214857Y-11580428D01*
X19214857Y-11599476D01*
X19348190Y-11399476D02*
X19367238Y-11399476D01*
X19386286Y-11409000D01*
X19395810Y-11418524D01*
X19405333Y-11437571D01*
X19414857Y-11475667D01*
X19414857Y-11523286D01*
X19405333Y-11561381D01*
X19395810Y-11580428D01*
X19386286Y-11589952D01*
X19367238Y-11599476D01*
X19348190Y-11599476D01*
X19329143Y-11589952D01*
X19319619Y-11580428D01*
X19310095Y-11561381D01*
X19300571Y-11523286D01*
X19300571Y-11475667D01*
X19310095Y-11437571D01*
X19319619Y-11418524D01*
X19329143Y-11409000D01*
X19348190Y-11399476D01*
X19481524Y-11399476D02*
X19605333Y-11399476D01*
X19538667Y-11475667D01*
X19567238Y-11475667D01*
X19586286Y-11485190D01*
X19595810Y-11494714D01*
X19605333Y-11513762D01*
X19605333Y-11561381D01*
X19595810Y-11580428D01*
X19586286Y-11589952D01*
X19567238Y-11599476D01*
X19510095Y-11599476D01*
X19491048Y-11589952D01*
X19481524Y-11580428D01*
X19700571Y-11599476D02*
X19738667Y-11599476D01*
X19757714Y-11589952D01*
X19767238Y-11580428D01*
X19786286Y-11551857D01*
X19795810Y-11513762D01*
X19795810Y-11437571D01*
X19786286Y-11418524D01*
X19776762Y-11409000D01*
X19757714Y-11399476D01*
X19719619Y-11399476D01*
X19700571Y-11409000D01*
X19691048Y-11418524D01*
X19681524Y-11437571D01*
X19681524Y-11485190D01*
X19691048Y-11504238D01*
X19700571Y-11513762D01*
X19719619Y-11523286D01*
X19757714Y-11523286D01*
X19776762Y-11513762D01*
X19786286Y-11504238D01*
X19795810Y-11485190D01*
X19967238Y-11466143D02*
X19967238Y-11599476D01*
X19919619Y-11389952D02*
X19872000Y-11532809D01*
X19995810Y-11532809D01*
X20062476Y-11399476D02*
X20062476Y-11437571D01*
X20138667Y-11399476D02*
X20138667Y-11437571D01*
X20433905Y-11675667D02*
X20424381Y-11666143D01*
X20405333Y-11637571D01*
X20395810Y-11618524D01*
X20386286Y-11589952D01*
X20376762Y-11542333D01*
X20376762Y-11504238D01*
X20386286Y-11456619D01*
X20395810Y-11428048D01*
X20405333Y-11409000D01*
X20424381Y-11380428D01*
X20433905Y-11370905D01*
X20614857Y-11599476D02*
X20500571Y-11599476D01*
X20557714Y-11599476D02*
X20557714Y-11399476D01*
X20538667Y-11428048D01*
X20519619Y-11447095D01*
X20500571Y-11456619D01*
X20691048Y-11418524D02*
X20700571Y-11409000D01*
X20719619Y-11399476D01*
X20767238Y-11399476D01*
X20786286Y-11409000D01*
X20795810Y-11418524D01*
X20805333Y-11437571D01*
X20805333Y-11456619D01*
X20795810Y-11485190D01*
X20681524Y-11599476D01*
X20805333Y-11599476D01*
X21043429Y-11599476D02*
X21043429Y-11399476D01*
X21129143Y-11599476D02*
X21129143Y-11494714D01*
X21119619Y-11475667D01*
X21100571Y-11466143D01*
X21072000Y-11466143D01*
X21052952Y-11475667D01*
X21043429Y-11485190D01*
X21252952Y-11599476D02*
X21233905Y-11589952D01*
X21224381Y-11580428D01*
X21214857Y-11561381D01*
X21214857Y-11504238D01*
X21224381Y-11485190D01*
X21233905Y-11475667D01*
X21252952Y-11466143D01*
X21281524Y-11466143D01*
X21300571Y-11475667D01*
X21310095Y-11485190D01*
X21319619Y-11504238D01*
X21319619Y-11561381D01*
X21310095Y-11580428D01*
X21300571Y-11589952D01*
X21281524Y-11599476D01*
X21252952Y-11599476D01*
X21433905Y-11599476D02*
X21414857Y-11589952D01*
X21405333Y-11570905D01*
X21405333Y-11399476D01*
X21586286Y-11589952D02*
X21567238Y-11599476D01*
X21529143Y-11599476D01*
X21510095Y-11589952D01*
X21500571Y-11570905D01*
X21500571Y-11494714D01*
X21510095Y-11475667D01*
X21529143Y-11466143D01*
X21567238Y-11466143D01*
X21586286Y-11475667D01*
X21595810Y-11494714D01*
X21595810Y-11513762D01*
X21500571Y-11532809D01*
X21672000Y-11589952D02*
X21691048Y-11599476D01*
X21729143Y-11599476D01*
X21748190Y-11589952D01*
X21757714Y-11570905D01*
X21757714Y-11561381D01*
X21748190Y-11542333D01*
X21729143Y-11532809D01*
X21700571Y-11532809D01*
X21681524Y-11523286D01*
X21672000Y-11504238D01*
X21672000Y-11494714D01*
X21681524Y-11475667D01*
X21700571Y-11466143D01*
X21729143Y-11466143D01*
X21748190Y-11475667D01*
X21824381Y-11675667D02*
X21833905Y-11666143D01*
X21852952Y-11637571D01*
X21862476Y-11618524D01*
X21872000Y-11589952D01*
X21881524Y-11542333D01*
X21881524Y-11504238D01*
X21872000Y-11456619D01*
X21862476Y-11428048D01*
X21852952Y-11409000D01*
X21833905Y-11380428D01*
X21824381Y-11370905D01*
M02*
