%FSLAX45Y45*%
G04 Gerber Fmt 4.5, Leading zero omitted, Abs format (unit mm)*
G04 Created by KiCad (PCBNEW (6.0.5)) date 2024-12-30 18:06:59*
%MOMM*%
%LPD*%
G01*
G04 APERTURE LIST*
%TA.AperFunction,Profile*%
%ADD10C,0.100000*%
%TD*%
%ADD11C,0.200000*%
%ADD12C,0.040000*%
%ADD13C,0.100000*%
G04 APERTURE END LIST*
D10*
X13562000Y-5334000D02*
X16732000Y-5334000D01*
X16732000Y-5334000D02*
X16732000Y-13970000D01*
X16732000Y-13970000D02*
X13562000Y-13970000D01*
X13562000Y-13970000D02*
X13562000Y-5334000D01*
D11*
D12*
X15702600Y-13569000D02*
X15742600Y-13609000D01*
X15742600Y-13569000D02*
X15702600Y-13609000D01*
D13*
X14020000Y-5588000D02*
G75*
G03*
X14020000Y-5588000I-50000J0D01*
G01*
X14020000Y-5842000D02*
G75*
G03*
X14020000Y-5842000I-50000J0D01*
G01*
X14020000Y-6096000D02*
G75*
G03*
X14020000Y-6096000I-50000J0D01*
G01*
X14020000Y-6350000D02*
G75*
G03*
X14020000Y-6350000I-50000J0D01*
G01*
X14020000Y-6604000D02*
G75*
G03*
X14020000Y-6604000I-50000J0D01*
G01*
X14020000Y-6858000D02*
G75*
G03*
X14020000Y-6858000I-50000J0D01*
G01*
X14020000Y-7874000D02*
G75*
G03*
X14020000Y-7874000I-50000J0D01*
G01*
X14020000Y-8128000D02*
G75*
G03*
X14020000Y-8128000I-50000J0D01*
G01*
X14020000Y-8382000D02*
G75*
G03*
X14020000Y-8382000I-50000J0D01*
G01*
X14020000Y-8636000D02*
G75*
G03*
X14020000Y-8636000I-50000J0D01*
G01*
X14020000Y-8890000D02*
G75*
G03*
X14020000Y-8890000I-50000J0D01*
G01*
X14020000Y-9144000D02*
G75*
G03*
X14020000Y-9144000I-50000J0D01*
G01*
X14020000Y-10160000D02*
G75*
G03*
X14020000Y-10160000I-50000J0D01*
G01*
X14020000Y-10414000D02*
G75*
G03*
X14020000Y-10414000I-50000J0D01*
G01*
X14020000Y-10668000D02*
G75*
G03*
X14020000Y-10668000I-50000J0D01*
G01*
X14020000Y-10922000D02*
G75*
G03*
X14020000Y-10922000I-50000J0D01*
G01*
X14020000Y-11176000D02*
G75*
G03*
X14020000Y-11176000I-50000J0D01*
G01*
X14020000Y-11430000D02*
G75*
G03*
X14020000Y-11430000I-50000J0D01*
G01*
X14020000Y-12446000D02*
G75*
G03*
X14020000Y-12446000I-50000J0D01*
G01*
X14020000Y-12700000D02*
G75*
G03*
X14020000Y-12700000I-50000J0D01*
G01*
X14020000Y-12954000D02*
G75*
G03*
X14020000Y-12954000I-50000J0D01*
G01*
X14020000Y-13208000D02*
G75*
G03*
X14020000Y-13208000I-50000J0D01*
G01*
X14020000Y-13462000D02*
G75*
G03*
X14020000Y-13462000I-50000J0D01*
G01*
X14020000Y-13716000D02*
G75*
G03*
X14020000Y-13716000I-50000J0D01*
G01*
X15544000Y-7874000D02*
G75*
G03*
X15544000Y-7874000I-50000J0D01*
G01*
X15544000Y-8128000D02*
G75*
G03*
X15544000Y-8128000I-50000J0D01*
G01*
X15544000Y-8382000D02*
G75*
G03*
X15544000Y-8382000I-50000J0D01*
G01*
X15544000Y-8636000D02*
G75*
G03*
X15544000Y-8636000I-50000J0D01*
G01*
X15544000Y-8890000D02*
G75*
G03*
X15544000Y-8890000I-50000J0D01*
G01*
X15544000Y-9144000D02*
G75*
G03*
X15544000Y-9144000I-50000J0D01*
G01*
X15544000Y-10160000D02*
G75*
G03*
X15544000Y-10160000I-50000J0D01*
G01*
X15544000Y-10414000D02*
G75*
G03*
X15544000Y-10414000I-50000J0D01*
G01*
X15544000Y-10668000D02*
G75*
G03*
X15544000Y-10668000I-50000J0D01*
G01*
X15544000Y-10922000D02*
G75*
G03*
X15544000Y-10922000I-50000J0D01*
G01*
X15544000Y-11176000D02*
G75*
G03*
X15544000Y-11176000I-50000J0D01*
G01*
X15544000Y-11430000D02*
G75*
G03*
X15544000Y-11430000I-50000J0D01*
G01*
X15798000Y-7874000D02*
G75*
G03*
X15798000Y-7874000I-50000J0D01*
G01*
X15798000Y-8128000D02*
G75*
G03*
X15798000Y-8128000I-50000J0D01*
G01*
X15798000Y-8382000D02*
G75*
G03*
X15798000Y-8382000I-50000J0D01*
G01*
X15798000Y-8636000D02*
G75*
G03*
X15798000Y-8636000I-50000J0D01*
G01*
X15798000Y-8890000D02*
G75*
G03*
X15798000Y-8890000I-50000J0D01*
G01*
X15798000Y-9144000D02*
G75*
G03*
X15798000Y-9144000I-50000J0D01*
G01*
X15798000Y-10160000D02*
G75*
G03*
X15798000Y-10160000I-50000J0D01*
G01*
X15798000Y-10414000D02*
G75*
G03*
X15798000Y-10414000I-50000J0D01*
G01*
X15798000Y-10668000D02*
G75*
G03*
X15798000Y-10668000I-50000J0D01*
G01*
X15798000Y-10922000D02*
G75*
G03*
X15798000Y-10922000I-50000J0D01*
G01*
X15798000Y-11176000D02*
G75*
G03*
X15798000Y-11176000I-50000J0D01*
G01*
X15798000Y-11430000D02*
G75*
G03*
X15798000Y-11430000I-50000J0D01*
G01*
D11*
X13814619Y-14285476D02*
X13814619Y-14085476D01*
X13862238Y-14085476D01*
X13890809Y-14095000D01*
X13909857Y-14114048D01*
X13919381Y-14133095D01*
X13928905Y-14171190D01*
X13928905Y-14199762D01*
X13919381Y-14237857D01*
X13909857Y-14256905D01*
X13890809Y-14275952D01*
X13862238Y-14285476D01*
X13814619Y-14285476D01*
X14014619Y-14285476D02*
X14014619Y-14152143D01*
X14014619Y-14190238D02*
X14024143Y-14171190D01*
X14033667Y-14161667D01*
X14052714Y-14152143D01*
X14071762Y-14152143D01*
X14138428Y-14285476D02*
X14138428Y-14152143D01*
X14138428Y-14085476D02*
X14128905Y-14095000D01*
X14138428Y-14104524D01*
X14147952Y-14095000D01*
X14138428Y-14085476D01*
X14138428Y-14104524D01*
X14262238Y-14285476D02*
X14243190Y-14275952D01*
X14233667Y-14256905D01*
X14233667Y-14085476D01*
X14367000Y-14285476D02*
X14347952Y-14275952D01*
X14338428Y-14256905D01*
X14338428Y-14085476D01*
X14595571Y-14285476D02*
X14595571Y-14085476D01*
X14662238Y-14228333D01*
X14728905Y-14085476D01*
X14728905Y-14285476D01*
X14909857Y-14285476D02*
X14909857Y-14180714D01*
X14900333Y-14161667D01*
X14881286Y-14152143D01*
X14843190Y-14152143D01*
X14824143Y-14161667D01*
X14909857Y-14275952D02*
X14890809Y-14285476D01*
X14843190Y-14285476D01*
X14824143Y-14275952D01*
X14814619Y-14256905D01*
X14814619Y-14237857D01*
X14824143Y-14218809D01*
X14843190Y-14209286D01*
X14890809Y-14209286D01*
X14909857Y-14199762D01*
X15005095Y-14152143D02*
X15005095Y-14352143D01*
X15005095Y-14161667D02*
X15024143Y-14152143D01*
X15062238Y-14152143D01*
X15081286Y-14161667D01*
X15090809Y-14171190D01*
X15100333Y-14190238D01*
X15100333Y-14247381D01*
X15090809Y-14266428D01*
X15081286Y-14275952D01*
X15062238Y-14285476D01*
X15024143Y-14285476D01*
X15005095Y-14275952D01*
X15186048Y-14266428D02*
X15195571Y-14275952D01*
X15186048Y-14285476D01*
X15176524Y-14275952D01*
X15186048Y-14266428D01*
X15186048Y-14285476D01*
X15186048Y-14161667D02*
X15195571Y-14171190D01*
X15186048Y-14180714D01*
X15176524Y-14171190D01*
X15186048Y-14161667D01*
X15186048Y-14180714D01*
D12*
X13517000Y-14595000D02*
X13557000Y-14635000D01*
X13557000Y-14595000D02*
X13517000Y-14635000D01*
D11*
X13852714Y-14505476D02*
X13871762Y-14505476D01*
X13890809Y-14515000D01*
X13900333Y-14524524D01*
X13909857Y-14543571D01*
X13919381Y-14581667D01*
X13919381Y-14629286D01*
X13909857Y-14667381D01*
X13900333Y-14686428D01*
X13890809Y-14695952D01*
X13871762Y-14705476D01*
X13852714Y-14705476D01*
X13833667Y-14695952D01*
X13824143Y-14686428D01*
X13814619Y-14667381D01*
X13805095Y-14629286D01*
X13805095Y-14581667D01*
X13814619Y-14543571D01*
X13824143Y-14524524D01*
X13833667Y-14515000D01*
X13852714Y-14505476D01*
X14005095Y-14686428D02*
X14014619Y-14695952D01*
X14005095Y-14705476D01*
X13995571Y-14695952D01*
X14005095Y-14686428D01*
X14005095Y-14705476D01*
X14186048Y-14572143D02*
X14186048Y-14705476D01*
X14138428Y-14495952D02*
X14090809Y-14638809D01*
X14214619Y-14638809D01*
X14328905Y-14505476D02*
X14347952Y-14505476D01*
X14367000Y-14515000D01*
X14376524Y-14524524D01*
X14386048Y-14543571D01*
X14395571Y-14581667D01*
X14395571Y-14629286D01*
X14386048Y-14667381D01*
X14376524Y-14686428D01*
X14367000Y-14695952D01*
X14347952Y-14705476D01*
X14328905Y-14705476D01*
X14309857Y-14695952D01*
X14300333Y-14686428D01*
X14290809Y-14667381D01*
X14281286Y-14629286D01*
X14281286Y-14581667D01*
X14290809Y-14543571D01*
X14300333Y-14524524D01*
X14309857Y-14515000D01*
X14328905Y-14505476D01*
X14519381Y-14505476D02*
X14538428Y-14505476D01*
X14557476Y-14515000D01*
X14567000Y-14524524D01*
X14576524Y-14543571D01*
X14586048Y-14581667D01*
X14586048Y-14629286D01*
X14576524Y-14667381D01*
X14567000Y-14686428D01*
X14557476Y-14695952D01*
X14538428Y-14705476D01*
X14519381Y-14705476D01*
X14500333Y-14695952D01*
X14490809Y-14686428D01*
X14481286Y-14667381D01*
X14471762Y-14629286D01*
X14471762Y-14581667D01*
X14481286Y-14543571D01*
X14490809Y-14524524D01*
X14500333Y-14515000D01*
X14519381Y-14505476D01*
X14671762Y-14705476D02*
X14671762Y-14572143D01*
X14671762Y-14591190D02*
X14681286Y-14581667D01*
X14700333Y-14572143D01*
X14728905Y-14572143D01*
X14747952Y-14581667D01*
X14757476Y-14600714D01*
X14757476Y-14705476D01*
X14757476Y-14600714D02*
X14767000Y-14581667D01*
X14786048Y-14572143D01*
X14814619Y-14572143D01*
X14833667Y-14581667D01*
X14843190Y-14600714D01*
X14843190Y-14705476D01*
X14938428Y-14705476D02*
X14938428Y-14572143D01*
X14938428Y-14591190D02*
X14947952Y-14581667D01*
X14967000Y-14572143D01*
X14995571Y-14572143D01*
X15014619Y-14581667D01*
X15024143Y-14600714D01*
X15024143Y-14705476D01*
X15024143Y-14600714D02*
X15033667Y-14581667D01*
X15052714Y-14572143D01*
X15081286Y-14572143D01*
X15100333Y-14581667D01*
X15109857Y-14600714D01*
X15109857Y-14705476D01*
X15500333Y-14495952D02*
X15328905Y-14753095D01*
X15757476Y-14505476D02*
X15776524Y-14505476D01*
X15795571Y-14515000D01*
X15805095Y-14524524D01*
X15814619Y-14543571D01*
X15824143Y-14581667D01*
X15824143Y-14629286D01*
X15814619Y-14667381D01*
X15805095Y-14686428D01*
X15795571Y-14695952D01*
X15776524Y-14705476D01*
X15757476Y-14705476D01*
X15738428Y-14695952D01*
X15728905Y-14686428D01*
X15719381Y-14667381D01*
X15709857Y-14629286D01*
X15709857Y-14581667D01*
X15719381Y-14543571D01*
X15728905Y-14524524D01*
X15738428Y-14515000D01*
X15757476Y-14505476D01*
X15909857Y-14686428D02*
X15919381Y-14695952D01*
X15909857Y-14705476D01*
X15900333Y-14695952D01*
X15909857Y-14686428D01*
X15909857Y-14705476D01*
X16043190Y-14505476D02*
X16062238Y-14505476D01*
X16081286Y-14515000D01*
X16090809Y-14524524D01*
X16100333Y-14543571D01*
X16109857Y-14581667D01*
X16109857Y-14629286D01*
X16100333Y-14667381D01*
X16090809Y-14686428D01*
X16081286Y-14695952D01*
X16062238Y-14705476D01*
X16043190Y-14705476D01*
X16024143Y-14695952D01*
X16014619Y-14686428D01*
X16005095Y-14667381D01*
X15995571Y-14629286D01*
X15995571Y-14581667D01*
X16005095Y-14543571D01*
X16014619Y-14524524D01*
X16024143Y-14515000D01*
X16043190Y-14505476D01*
X16300333Y-14705476D02*
X16186048Y-14705476D01*
X16243190Y-14705476D02*
X16243190Y-14505476D01*
X16224143Y-14534048D01*
X16205095Y-14553095D01*
X16186048Y-14562619D01*
X16481286Y-14505476D02*
X16386048Y-14505476D01*
X16376524Y-14600714D01*
X16386048Y-14591190D01*
X16405095Y-14581667D01*
X16452714Y-14581667D01*
X16471762Y-14591190D01*
X16481286Y-14600714D01*
X16490809Y-14619762D01*
X16490809Y-14667381D01*
X16481286Y-14686428D01*
X16471762Y-14695952D01*
X16452714Y-14705476D01*
X16405095Y-14705476D01*
X16386048Y-14695952D01*
X16376524Y-14686428D01*
X16557476Y-14505476D02*
X16690809Y-14505476D01*
X16605095Y-14705476D01*
X16757476Y-14505476D02*
X16757476Y-14543571D01*
X16833667Y-14505476D02*
X16833667Y-14543571D01*
X17128905Y-14781667D02*
X17119381Y-14772143D01*
X17100333Y-14743571D01*
X17090810Y-14724524D01*
X17081286Y-14695952D01*
X17071762Y-14648333D01*
X17071762Y-14610238D01*
X17081286Y-14562619D01*
X17090810Y-14534048D01*
X17100333Y-14515000D01*
X17119381Y-14486428D01*
X17128905Y-14476905D01*
X17309857Y-14705476D02*
X17195571Y-14705476D01*
X17252714Y-14705476D02*
X17252714Y-14505476D01*
X17233667Y-14534048D01*
X17214619Y-14553095D01*
X17195571Y-14562619D01*
X17547952Y-14705476D02*
X17547952Y-14505476D01*
X17633667Y-14705476D02*
X17633667Y-14600714D01*
X17624143Y-14581667D01*
X17605095Y-14572143D01*
X17576524Y-14572143D01*
X17557476Y-14581667D01*
X17547952Y-14591190D01*
X17757476Y-14705476D02*
X17738429Y-14695952D01*
X17728905Y-14686428D01*
X17719381Y-14667381D01*
X17719381Y-14610238D01*
X17728905Y-14591190D01*
X17738429Y-14581667D01*
X17757476Y-14572143D01*
X17786048Y-14572143D01*
X17805095Y-14581667D01*
X17814619Y-14591190D01*
X17824143Y-14610238D01*
X17824143Y-14667381D01*
X17814619Y-14686428D01*
X17805095Y-14695952D01*
X17786048Y-14705476D01*
X17757476Y-14705476D01*
X17938429Y-14705476D02*
X17919381Y-14695952D01*
X17909857Y-14676905D01*
X17909857Y-14505476D01*
X18090810Y-14695952D02*
X18071762Y-14705476D01*
X18033667Y-14705476D01*
X18014619Y-14695952D01*
X18005095Y-14676905D01*
X18005095Y-14600714D01*
X18014619Y-14581667D01*
X18033667Y-14572143D01*
X18071762Y-14572143D01*
X18090810Y-14581667D01*
X18100333Y-14600714D01*
X18100333Y-14619762D01*
X18005095Y-14638809D01*
X18167000Y-14781667D02*
X18176524Y-14772143D01*
X18195571Y-14743571D01*
X18205095Y-14724524D01*
X18214619Y-14695952D01*
X18224143Y-14648333D01*
X18224143Y-14610238D01*
X18214619Y-14562619D01*
X18205095Y-14534048D01*
X18195571Y-14515000D01*
X18176524Y-14486428D01*
X18167000Y-14476905D01*
D13*
X13557000Y-14879000D02*
G75*
G03*
X13557000Y-14879000I-50000J0D01*
G01*
D11*
X13919381Y-14969476D02*
X13805095Y-14969476D01*
X13862238Y-14969476D02*
X13862238Y-14769476D01*
X13843190Y-14798048D01*
X13824143Y-14817095D01*
X13805095Y-14826619D01*
X14005095Y-14950428D02*
X14014619Y-14959952D01*
X14005095Y-14969476D01*
X13995571Y-14959952D01*
X14005095Y-14950428D01*
X14005095Y-14969476D01*
X14138428Y-14769476D02*
X14157476Y-14769476D01*
X14176524Y-14779000D01*
X14186048Y-14788524D01*
X14195571Y-14807571D01*
X14205095Y-14845667D01*
X14205095Y-14893286D01*
X14195571Y-14931381D01*
X14186048Y-14950428D01*
X14176524Y-14959952D01*
X14157476Y-14969476D01*
X14138428Y-14969476D01*
X14119381Y-14959952D01*
X14109857Y-14950428D01*
X14100333Y-14931381D01*
X14090809Y-14893286D01*
X14090809Y-14845667D01*
X14100333Y-14807571D01*
X14109857Y-14788524D01*
X14119381Y-14779000D01*
X14138428Y-14769476D01*
X14328905Y-14769476D02*
X14347952Y-14769476D01*
X14367000Y-14779000D01*
X14376524Y-14788524D01*
X14386048Y-14807571D01*
X14395571Y-14845667D01*
X14395571Y-14893286D01*
X14386048Y-14931381D01*
X14376524Y-14950428D01*
X14367000Y-14959952D01*
X14347952Y-14969476D01*
X14328905Y-14969476D01*
X14309857Y-14959952D01*
X14300333Y-14950428D01*
X14290809Y-14931381D01*
X14281286Y-14893286D01*
X14281286Y-14845667D01*
X14290809Y-14807571D01*
X14300333Y-14788524D01*
X14309857Y-14779000D01*
X14328905Y-14769476D01*
X14519381Y-14769476D02*
X14538428Y-14769476D01*
X14557476Y-14779000D01*
X14567000Y-14788524D01*
X14576524Y-14807571D01*
X14586048Y-14845667D01*
X14586048Y-14893286D01*
X14576524Y-14931381D01*
X14567000Y-14950428D01*
X14557476Y-14959952D01*
X14538428Y-14969476D01*
X14519381Y-14969476D01*
X14500333Y-14959952D01*
X14490809Y-14950428D01*
X14481286Y-14931381D01*
X14471762Y-14893286D01*
X14471762Y-14845667D01*
X14481286Y-14807571D01*
X14490809Y-14788524D01*
X14500333Y-14779000D01*
X14519381Y-14769476D01*
X14671762Y-14969476D02*
X14671762Y-14836143D01*
X14671762Y-14855190D02*
X14681286Y-14845667D01*
X14700333Y-14836143D01*
X14728905Y-14836143D01*
X14747952Y-14845667D01*
X14757476Y-14864714D01*
X14757476Y-14969476D01*
X14757476Y-14864714D02*
X14767000Y-14845667D01*
X14786048Y-14836143D01*
X14814619Y-14836143D01*
X14833667Y-14845667D01*
X14843190Y-14864714D01*
X14843190Y-14969476D01*
X14938428Y-14969476D02*
X14938428Y-14836143D01*
X14938428Y-14855190D02*
X14947952Y-14845667D01*
X14967000Y-14836143D01*
X14995571Y-14836143D01*
X15014619Y-14845667D01*
X15024143Y-14864714D01*
X15024143Y-14969476D01*
X15024143Y-14864714D02*
X15033667Y-14845667D01*
X15052714Y-14836143D01*
X15081286Y-14836143D01*
X15100333Y-14845667D01*
X15109857Y-14864714D01*
X15109857Y-14969476D01*
X15500333Y-14759952D02*
X15328905Y-15017095D01*
X15757476Y-14769476D02*
X15776524Y-14769476D01*
X15795571Y-14779000D01*
X15805095Y-14788524D01*
X15814619Y-14807571D01*
X15824143Y-14845667D01*
X15824143Y-14893286D01*
X15814619Y-14931381D01*
X15805095Y-14950428D01*
X15795571Y-14959952D01*
X15776524Y-14969476D01*
X15757476Y-14969476D01*
X15738428Y-14959952D01*
X15728905Y-14950428D01*
X15719381Y-14931381D01*
X15709857Y-14893286D01*
X15709857Y-14845667D01*
X15719381Y-14807571D01*
X15728905Y-14788524D01*
X15738428Y-14779000D01*
X15757476Y-14769476D01*
X15909857Y-14950428D02*
X15919381Y-14959952D01*
X15909857Y-14969476D01*
X15900333Y-14959952D01*
X15909857Y-14950428D01*
X15909857Y-14969476D01*
X16043190Y-14769476D02*
X16062238Y-14769476D01*
X16081286Y-14779000D01*
X16090809Y-14788524D01*
X16100333Y-14807571D01*
X16109857Y-14845667D01*
X16109857Y-14893286D01*
X16100333Y-14931381D01*
X16090809Y-14950428D01*
X16081286Y-14959952D01*
X16062238Y-14969476D01*
X16043190Y-14969476D01*
X16024143Y-14959952D01*
X16014619Y-14950428D01*
X16005095Y-14931381D01*
X15995571Y-14893286D01*
X15995571Y-14845667D01*
X16005095Y-14807571D01*
X16014619Y-14788524D01*
X16024143Y-14779000D01*
X16043190Y-14769476D01*
X16176524Y-14769476D02*
X16300333Y-14769476D01*
X16233667Y-14845667D01*
X16262238Y-14845667D01*
X16281286Y-14855190D01*
X16290809Y-14864714D01*
X16300333Y-14883762D01*
X16300333Y-14931381D01*
X16290809Y-14950428D01*
X16281286Y-14959952D01*
X16262238Y-14969476D01*
X16205095Y-14969476D01*
X16186048Y-14959952D01*
X16176524Y-14950428D01*
X16395571Y-14969476D02*
X16433667Y-14969476D01*
X16452714Y-14959952D01*
X16462238Y-14950428D01*
X16481286Y-14921857D01*
X16490809Y-14883762D01*
X16490809Y-14807571D01*
X16481286Y-14788524D01*
X16471762Y-14779000D01*
X16452714Y-14769476D01*
X16414619Y-14769476D01*
X16395571Y-14779000D01*
X16386048Y-14788524D01*
X16376524Y-14807571D01*
X16376524Y-14855190D01*
X16386048Y-14874238D01*
X16395571Y-14883762D01*
X16414619Y-14893286D01*
X16452714Y-14893286D01*
X16471762Y-14883762D01*
X16481286Y-14874238D01*
X16490809Y-14855190D01*
X16662238Y-14836143D02*
X16662238Y-14969476D01*
X16614619Y-14759952D02*
X16567000Y-14902809D01*
X16690809Y-14902809D01*
X16757476Y-14769476D02*
X16757476Y-14807571D01*
X16833667Y-14769476D02*
X16833667Y-14807571D01*
X17128905Y-15045667D02*
X17119381Y-15036143D01*
X17100333Y-15007571D01*
X17090810Y-14988524D01*
X17081286Y-14959952D01*
X17071762Y-14912333D01*
X17071762Y-14874238D01*
X17081286Y-14826619D01*
X17090810Y-14798048D01*
X17100333Y-14779000D01*
X17119381Y-14750428D01*
X17128905Y-14740905D01*
X17290810Y-14836143D02*
X17290810Y-14969476D01*
X17243190Y-14759952D02*
X17195571Y-14902809D01*
X17319381Y-14902809D01*
X17424143Y-14855190D02*
X17405095Y-14845667D01*
X17395571Y-14836143D01*
X17386048Y-14817095D01*
X17386048Y-14807571D01*
X17395571Y-14788524D01*
X17405095Y-14779000D01*
X17424143Y-14769476D01*
X17462238Y-14769476D01*
X17481286Y-14779000D01*
X17490810Y-14788524D01*
X17500333Y-14807571D01*
X17500333Y-14817095D01*
X17490810Y-14836143D01*
X17481286Y-14845667D01*
X17462238Y-14855190D01*
X17424143Y-14855190D01*
X17405095Y-14864714D01*
X17395571Y-14874238D01*
X17386048Y-14893286D01*
X17386048Y-14931381D01*
X17395571Y-14950428D01*
X17405095Y-14959952D01*
X17424143Y-14969476D01*
X17462238Y-14969476D01*
X17481286Y-14959952D01*
X17490810Y-14950428D01*
X17500333Y-14931381D01*
X17500333Y-14893286D01*
X17490810Y-14874238D01*
X17481286Y-14864714D01*
X17462238Y-14855190D01*
X17738429Y-14969476D02*
X17738429Y-14769476D01*
X17824143Y-14969476D02*
X17824143Y-14864714D01*
X17814619Y-14845667D01*
X17795571Y-14836143D01*
X17767000Y-14836143D01*
X17747952Y-14845667D01*
X17738429Y-14855190D01*
X17947952Y-14969476D02*
X17928905Y-14959952D01*
X17919381Y-14950428D01*
X17909857Y-14931381D01*
X17909857Y-14874238D01*
X17919381Y-14855190D01*
X17928905Y-14845667D01*
X17947952Y-14836143D01*
X17976524Y-14836143D01*
X17995571Y-14845667D01*
X18005095Y-14855190D01*
X18014619Y-14874238D01*
X18014619Y-14931381D01*
X18005095Y-14950428D01*
X17995571Y-14959952D01*
X17976524Y-14969476D01*
X17947952Y-14969476D01*
X18128905Y-14969476D02*
X18109857Y-14959952D01*
X18100333Y-14940905D01*
X18100333Y-14769476D01*
X18281286Y-14959952D02*
X18262238Y-14969476D01*
X18224143Y-14969476D01*
X18205095Y-14959952D01*
X18195571Y-14940905D01*
X18195571Y-14864714D01*
X18205095Y-14845667D01*
X18224143Y-14836143D01*
X18262238Y-14836143D01*
X18281286Y-14845667D01*
X18290810Y-14864714D01*
X18290810Y-14883762D01*
X18195571Y-14902809D01*
X18367000Y-14959952D02*
X18386048Y-14969476D01*
X18424143Y-14969476D01*
X18443190Y-14959952D01*
X18452714Y-14940905D01*
X18452714Y-14931381D01*
X18443190Y-14912333D01*
X18424143Y-14902809D01*
X18395571Y-14902809D01*
X18376524Y-14893286D01*
X18367000Y-14874238D01*
X18367000Y-14864714D01*
X18376524Y-14845667D01*
X18395571Y-14836143D01*
X18424143Y-14836143D01*
X18443190Y-14845667D01*
X18519381Y-15045667D02*
X18528905Y-15036143D01*
X18547952Y-15007571D01*
X18557476Y-14988524D01*
X18567000Y-14959952D01*
X18576524Y-14912333D01*
X18576524Y-14874238D01*
X18567000Y-14826619D01*
X18557476Y-14798048D01*
X18547952Y-14779000D01*
X18528905Y-14750428D01*
X18519381Y-14740905D01*
M02*
