%TF.GenerationSoftware,KiCad,Pcbnew,(6.0.5)*%
%TF.CreationDate,2024-12-30T18:06:44+01:00*%
%TF.ProjectId,basys_pmod_converter,62617379-735f-4706-9d6f-645f636f6e76,rev?*%
%TF.SameCoordinates,Original*%
%TF.FileFunction,Copper,L1,Top*%
%TF.FilePolarity,Positive*%
%FSLAX46Y46*%
G04 Gerber Fmt 4.6, Leading zero omitted, Abs format (unit mm)*
G04 Created by KiCad (PCBNEW (6.0.5)) date 2024-12-30 18:06:44*
%MOMM*%
%LPD*%
G01*
G04 APERTURE LIST*
G04 Aperture macros list*
%AMRoundRect*
0 Rectangle with rounded corners*
0 $1 Rounding radius*
0 $2 $3 $4 $5 $6 $7 $8 $9 X,Y pos of 4 corners*
0 Add a 4 corners polygon primitive as box body*
4,1,4,$2,$3,$4,$5,$6,$7,$8,$9,$2,$3,0*
0 Add four circle primitives for the rounded corners*
1,1,$1+$1,$2,$3*
1,1,$1+$1,$4,$5*
1,1,$1+$1,$6,$7*
1,1,$1+$1,$8,$9*
0 Add four rect primitives between the rounded corners*
20,1,$1+$1,$2,$3,$4,$5,0*
20,1,$1+$1,$4,$5,$6,$7,0*
20,1,$1+$1,$6,$7,$8,$9,0*
20,1,$1+$1,$8,$9,$2,$3,0*%
G04 Aperture macros list end*
%TA.AperFunction,SMDPad,CuDef*%
%ADD10RoundRect,0.250000X0.475000X-0.250000X0.475000X0.250000X-0.475000X0.250000X-0.475000X-0.250000X0*%
%TD*%
%TA.AperFunction,ComponentPad*%
%ADD11R,1.700000X1.700000*%
%TD*%
%TA.AperFunction,ComponentPad*%
%ADD12O,1.700000X1.700000*%
%TD*%
%TA.AperFunction,SMDPad,CuDef*%
%ADD13RoundRect,0.243750X0.243750X0.456250X-0.243750X0.456250X-0.243750X-0.456250X0.243750X-0.456250X0*%
%TD*%
%TA.AperFunction,SMDPad,CuDef*%
%ADD14RoundRect,0.250000X0.262500X0.450000X-0.262500X0.450000X-0.262500X-0.450000X0.262500X-0.450000X0*%
%TD*%
%TA.AperFunction,ViaPad*%
%ADD15C,0.800000*%
%TD*%
%TA.AperFunction,Conductor*%
%ADD16C,0.400000*%
%TD*%
G04 APERTURE END LIST*
D10*
%TO.P,C2,1*%
%TO.N,+3V3*%
X151130000Y-113980000D03*
%TO.P,C2,2*%
%TO.N,GND*%
X151130000Y-112080000D03*
%TD*%
D11*
%TO.P,J1,1,IOA0*%
%TO.N,/JA1*%
X154940000Y-78740000D03*
D12*
%TO.P,J1,2,IOA1*%
%TO.N,/JA2*%
X154940000Y-81280000D03*
%TO.P,J1,3,IOA2*%
%TO.N,/JA3*%
X154940000Y-83820000D03*
%TO.P,J1,4,IOA3*%
%TO.N,/JA4*%
X154940000Y-86360000D03*
%TO.P,J1,5,GND*%
%TO.N,GND*%
X154940000Y-88900000D03*
%TO.P,J1,6,VCC*%
%TO.N,+3V3*%
X154940000Y-91440000D03*
%TO.P,J1,7,IOB0*%
%TO.N,/JB1*%
X157480000Y-78740000D03*
%TO.P,J1,8,IOB1*%
%TO.N,/JB2*%
X157480000Y-81280000D03*
%TO.P,J1,9,IOB2*%
%TO.N,/JB3*%
X157480000Y-83820000D03*
%TO.P,J1,10,IOB3*%
%TO.N,/JB4*%
X157480000Y-86360000D03*
%TO.P,J1,11,GND*%
%TO.N,GND*%
X157480000Y-88900000D03*
%TO.P,J1,12,VCC*%
%TO.N,+3V3*%
X157480000Y-91440000D03*
%TD*%
D10*
%TO.P,C1,1*%
%TO.N,+3V3*%
X151130000Y-91120000D03*
%TO.P,C1,2*%
%TO.N,GND*%
X151130000Y-89220000D03*
%TD*%
D11*
%TO.P,PMOD4,1,IO0*%
%TO.N,/JD1*%
X139700000Y-124460000D03*
D12*
%TO.P,PMOD4,2,IO1*%
%TO.N,/JD2*%
X139700000Y-127000000D03*
%TO.P,PMOD4,3,IO2*%
%TO.N,/JD3*%
X139700000Y-129540000D03*
%TO.P,PMOD4,4,IO3*%
%TO.N,/JD4*%
X139700000Y-132080000D03*
%TO.P,PMOD4,5,GND*%
%TO.N,GND*%
X139700000Y-134620000D03*
%TO.P,PMOD4,6,VCC*%
%TO.N,+3V3*%
X139700000Y-137160000D03*
%TD*%
D13*
%TO.P,D1,1,K*%
%TO.N,GND*%
X155623500Y-135890000D03*
%TO.P,D1,2,A*%
%TO.N,Net-(D1-Pad2)*%
X153748500Y-135890000D03*
%TD*%
D11*
%TO.P,PMOD2,1,IO0*%
%TO.N,/JB1*%
X139700000Y-78740000D03*
D12*
%TO.P,PMOD2,2,IO1*%
%TO.N,/JB2*%
X139700000Y-81280000D03*
%TO.P,PMOD2,3,IO2*%
%TO.N,/JB3*%
X139700000Y-83820000D03*
%TO.P,PMOD2,4,IO3*%
%TO.N,/JB4*%
X139700000Y-86360000D03*
%TO.P,PMOD2,5,GND*%
%TO.N,GND*%
X139700000Y-88900000D03*
%TO.P,PMOD2,6,VCC*%
%TO.N,+3V3*%
X139700000Y-91440000D03*
%TD*%
D11*
%TO.P,PMOD1,1,IO0*%
%TO.N,/JA1*%
X139700000Y-55880000D03*
D12*
%TO.P,PMOD1,2,IO1*%
%TO.N,/JA2*%
X139700000Y-58420000D03*
%TO.P,PMOD1,3,IO2*%
%TO.N,/JA3*%
X139700000Y-60960000D03*
%TO.P,PMOD1,4,IO3*%
%TO.N,/JA4*%
X139700000Y-63500000D03*
%TO.P,PMOD1,5,GND*%
%TO.N,GND*%
X139700000Y-66040000D03*
%TO.P,PMOD1,6,VCC*%
%TO.N,+3V3*%
X139700000Y-68580000D03*
%TD*%
D14*
%TO.P,R1,1*%
%TO.N,Net-(D1-Pad2)*%
X150772500Y-135890000D03*
%TO.P,R1,2*%
%TO.N,+3V3*%
X148947500Y-135890000D03*
%TD*%
D11*
%TO.P,PMOD3,1,IO0*%
%TO.N,/JC1*%
X139700000Y-101600000D03*
D12*
%TO.P,PMOD3,2,IO1*%
%TO.N,/JC2*%
X139700000Y-104140000D03*
%TO.P,PMOD3,3,IO2*%
%TO.N,/JC3*%
X139700000Y-106680000D03*
%TO.P,PMOD3,4,IO3*%
%TO.N,/JC4*%
X139700000Y-109220000D03*
%TO.P,PMOD3,5,GND*%
%TO.N,GND*%
X139700000Y-111760000D03*
%TO.P,PMOD3,6,VCC*%
%TO.N,+3V3*%
X139700000Y-114300000D03*
%TD*%
D11*
%TO.P,J2,1,IOA0*%
%TO.N,/JC1*%
X154940000Y-101600000D03*
D12*
%TO.P,J2,2,IOA1*%
%TO.N,/JC2*%
X154940000Y-104140000D03*
%TO.P,J2,3,IOA2*%
%TO.N,/JC3*%
X154940000Y-106680000D03*
%TO.P,J2,4,IOA3*%
%TO.N,/JC4*%
X154940000Y-109220000D03*
%TO.P,J2,5,GND*%
%TO.N,GND*%
X154940000Y-111760000D03*
%TO.P,J2,6,VCC*%
%TO.N,+3V3*%
X154940000Y-114300000D03*
%TO.P,J2,7,IOB0*%
%TO.N,/JD1*%
X157480000Y-101600000D03*
%TO.P,J2,8,IOB1*%
%TO.N,/JD2*%
X157480000Y-104140000D03*
%TO.P,J2,9,IOB2*%
%TO.N,/JD3*%
X157480000Y-106680000D03*
%TO.P,J2,10,IOB3*%
%TO.N,/JD4*%
X157480000Y-109220000D03*
%TO.P,J2,11,GND*%
%TO.N,GND*%
X157480000Y-111760000D03*
%TO.P,J2,12,VCC*%
%TO.N,+3V3*%
X157480000Y-114300000D03*
%TD*%
D15*
%TO.N,GND*%
X157226000Y-135890000D03*
%TD*%
D16*
%TO.N,GND*%
X151130000Y-112080000D02*
X154620000Y-112080000D01*
X155623500Y-135890000D02*
X157226000Y-135890000D01*
X154620000Y-112080000D02*
X154940000Y-111760000D01*
X154620000Y-89220000D02*
X154940000Y-88900000D01*
X151130000Y-89220000D02*
X154620000Y-89220000D01*
%TO.N,Net-(D1-Pad2)*%
X150772500Y-135890000D02*
X153748500Y-135890000D01*
%TO.N,/JA1*%
X154940000Y-78740000D02*
X151130000Y-78740000D01*
X145796000Y-73406000D02*
X145796000Y-61976000D01*
X145796000Y-61976000D02*
X139700000Y-55880000D01*
X151130000Y-78740000D02*
X145796000Y-73406000D01*
%TO.N,/JA2*%
X152400000Y-81280000D02*
X154940000Y-81280000D01*
X144780000Y-63500000D02*
X144780000Y-73660000D01*
X144780000Y-73660000D02*
X152400000Y-81280000D01*
X139700000Y-58420000D02*
X144780000Y-63500000D01*
%TO.N,/JA3*%
X154940000Y-83820000D02*
X153670000Y-83820000D01*
X153670000Y-83820000D02*
X143764000Y-73914000D01*
X143764000Y-73914000D02*
X143764000Y-65024000D01*
X143764000Y-65024000D02*
X139700000Y-60960000D01*
%TO.N,/JA4*%
X142875000Y-66675000D02*
X139700000Y-63500000D01*
X154940000Y-86360000D02*
X142875000Y-74295000D01*
X142875000Y-74295000D02*
X142875000Y-66675000D01*
%TO.N,/JB1*%
X156189511Y-91957565D02*
X155457565Y-92689511D01*
X141224000Y-86614000D02*
X141224000Y-80264000D01*
X156189511Y-80030489D02*
X156189511Y-91957565D01*
X155457565Y-92689511D02*
X147299511Y-92689511D01*
X141224000Y-80264000D02*
X139700000Y-78740000D01*
X157480000Y-78740000D02*
X156189511Y-80030489D01*
X147299511Y-92689511D02*
X141224000Y-86614000D01*
%TO.N,/JB2*%
X139202924Y-90170000D02*
X137850969Y-88818045D01*
X160274000Y-92795850D02*
X158073850Y-94996000D01*
X137850969Y-83129031D02*
X139700000Y-81280000D01*
X158073850Y-94996000D02*
X146558000Y-94996000D01*
X146558000Y-94996000D02*
X141732000Y-90170000D01*
X141732000Y-90170000D02*
X139202924Y-90170000D01*
X137850969Y-88818045D02*
X137850969Y-83129031D01*
X160274000Y-84074000D02*
X160274000Y-92795850D01*
X157480000Y-81280000D02*
X160274000Y-84074000D01*
%TO.N,/JB3*%
X139202924Y-87630000D02*
X138450489Y-86877565D01*
X138450489Y-86877565D02*
X138450489Y-85069511D01*
X157480000Y-83820000D02*
X159512000Y-85852000D01*
X138450489Y-85069511D02*
X139700000Y-83820000D01*
X146801076Y-94234000D02*
X140197076Y-87630000D01*
X140197076Y-87630000D02*
X139202924Y-87630000D01*
X159512000Y-92710000D02*
X157988000Y-94234000D01*
X159512000Y-85852000D02*
X159512000Y-92710000D01*
X157988000Y-94234000D02*
X146801076Y-94234000D01*
%TO.N,/JB4*%
X157480000Y-86360000D02*
X158729511Y-87609511D01*
X139954000Y-86360000D02*
X139700000Y-86360000D01*
X158729511Y-87609511D02*
X158729511Y-92476489D01*
X158729511Y-92476489D02*
X157734000Y-93472000D01*
X147066000Y-93472000D02*
X139954000Y-86360000D01*
X157734000Y-93472000D02*
X147066000Y-93472000D01*
%TO.N,/JC1*%
X141986000Y-103886000D02*
X152654000Y-103886000D01*
X152654000Y-103886000D02*
X154940000Y-101600000D01*
X139700000Y-101600000D02*
X141986000Y-103886000D01*
%TO.N,/JC2*%
X139700000Y-104140000D02*
X140462000Y-104902000D01*
X154178000Y-104902000D02*
X154940000Y-104140000D01*
X140462000Y-104902000D02*
X154178000Y-104902000D01*
%TO.N,/JC3*%
X154178000Y-105918000D02*
X154940000Y-106680000D01*
X140462000Y-105918000D02*
X154178000Y-105918000D01*
X139700000Y-106680000D02*
X140462000Y-105918000D01*
%TO.N,/JC4*%
X141986000Y-106934000D02*
X152654000Y-106934000D01*
X152654000Y-106934000D02*
X154940000Y-109220000D01*
X139700000Y-109220000D02*
X141986000Y-106934000D01*
%TO.N,/JD1*%
X139700000Y-124460000D02*
X147828000Y-124460000D01*
X156230489Y-116057511D02*
X156230489Y-102849511D01*
X156230489Y-102849511D02*
X157480000Y-101600000D01*
X147828000Y-124460000D02*
X156230489Y-116057511D01*
%TO.N,/JD2*%
X157480000Y-104140000D02*
X159928551Y-106588551D01*
X139202924Y-135890000D02*
X137830480Y-134517556D01*
X159928551Y-106588551D02*
X159928551Y-115915449D01*
X137830480Y-134517556D02*
X137830480Y-128869520D01*
X140949511Y-134894489D02*
X140949511Y-135137565D01*
X137830480Y-128869520D02*
X139700000Y-127000000D01*
X159928551Y-115915449D02*
X140949511Y-134894489D01*
X140949511Y-135137565D02*
X140197076Y-135890000D01*
X140197076Y-135890000D02*
X139202924Y-135890000D01*
%TO.N,/JD3*%
X157480000Y-106680000D02*
X159329031Y-108529031D01*
X159329031Y-108529031D02*
X159329031Y-115414894D01*
X138430000Y-130810000D02*
X139700000Y-129540000D01*
X139202924Y-133350000D02*
X138430000Y-132577076D01*
X138430000Y-132577076D02*
X138430000Y-130810000D01*
X159329031Y-115414894D02*
X141393925Y-133350000D01*
X141393925Y-133350000D02*
X139202924Y-133350000D01*
%TO.N,/JD4*%
X158729511Y-110469511D02*
X158729511Y-114828489D01*
X158729511Y-114828489D02*
X141478000Y-132080000D01*
X157480000Y-109220000D02*
X158729511Y-110469511D01*
X141478000Y-132080000D02*
X139700000Y-132080000D01*
%TD*%
%TA.AperFunction,Conductor*%
%TO.N,+3V3*%
G36*
X166820121Y-53868002D02*
G01*
X166866614Y-53921658D01*
X166878000Y-53974000D01*
X166878000Y-139066000D01*
X166857998Y-139134121D01*
X166804342Y-139180614D01*
X166752000Y-139192000D01*
X136270000Y-139192000D01*
X136201879Y-139171998D01*
X136155386Y-139118342D01*
X136144000Y-139066000D01*
X136144000Y-137427966D01*
X138368257Y-137427966D01*
X138398565Y-137562446D01*
X138401645Y-137572275D01*
X138481770Y-137769603D01*
X138486413Y-137778794D01*
X138597694Y-137960388D01*
X138603777Y-137968699D01*
X138743213Y-138129667D01*
X138750580Y-138136883D01*
X138914434Y-138272916D01*
X138922881Y-138278831D01*
X139106756Y-138386279D01*
X139116042Y-138390729D01*
X139315001Y-138466703D01*
X139324899Y-138469579D01*
X139428250Y-138490606D01*
X139442299Y-138489410D01*
X139446000Y-138479065D01*
X139446000Y-138478517D01*
X139954000Y-138478517D01*
X139958064Y-138492359D01*
X139971478Y-138494393D01*
X139978184Y-138493534D01*
X139988262Y-138491392D01*
X140192255Y-138430191D01*
X140201842Y-138426433D01*
X140393095Y-138332739D01*
X140401945Y-138327464D01*
X140575328Y-138203792D01*
X140583200Y-138197139D01*
X140734052Y-138046812D01*
X140740730Y-138038965D01*
X140865003Y-137866020D01*
X140870313Y-137857183D01*
X140964670Y-137666267D01*
X140968469Y-137656672D01*
X141030377Y-137452910D01*
X141032555Y-137442837D01*
X141033986Y-137431962D01*
X141031775Y-137417778D01*
X141018617Y-137414000D01*
X139972115Y-137414000D01*
X139956876Y-137418475D01*
X139955671Y-137419865D01*
X139954000Y-137427548D01*
X139954000Y-138478517D01*
X139446000Y-138478517D01*
X139446000Y-137432115D01*
X139441525Y-137416876D01*
X139440135Y-137415671D01*
X139432452Y-137414000D01*
X138383225Y-137414000D01*
X138369694Y-137417973D01*
X138368257Y-137427966D01*
X136144000Y-137427966D01*
X136144000Y-134531994D01*
X137371073Y-134531994D01*
X137372765Y-134541258D01*
X137372765Y-134541261D01*
X137381709Y-134590236D01*
X137382358Y-134594138D01*
X137389764Y-134643392D01*
X137391165Y-134652707D01*
X137394318Y-134659274D01*
X137395627Y-134666439D01*
X137422942Y-134719023D01*
X137424685Y-134722513D01*
X137450326Y-134775909D01*
X137455221Y-134781204D01*
X137455314Y-134781343D01*
X137458628Y-134787722D01*
X137462974Y-134792810D01*
X137500556Y-134830392D01*
X137503986Y-134833957D01*
X137543097Y-134876268D01*
X137549497Y-134879986D01*
X137555757Y-134885593D01*
X138715959Y-136045795D01*
X138749985Y-136108107D01*
X138744920Y-136178922D01*
X138717958Y-136221941D01*
X138644591Y-136298716D01*
X138638104Y-136306727D01*
X138518098Y-136482649D01*
X138513000Y-136491623D01*
X138423338Y-136684783D01*
X138419775Y-136694470D01*
X138364389Y-136894183D01*
X138365912Y-136902607D01*
X138378292Y-136906000D01*
X141018344Y-136906000D01*
X141031875Y-136902027D01*
X141033180Y-136892947D01*
X140991214Y-136725875D01*
X140987894Y-136716124D01*
X140902972Y-136520814D01*
X140898105Y-136511739D01*
X140817469Y-136387095D01*
X147927001Y-136387095D01*
X147927338Y-136393614D01*
X147937257Y-136489206D01*
X147940149Y-136502600D01*
X147991588Y-136656784D01*
X147997761Y-136669962D01*
X148083063Y-136807807D01*
X148092099Y-136819208D01*
X148206829Y-136933739D01*
X148218240Y-136942751D01*
X148356243Y-137027816D01*
X148369424Y-137033963D01*
X148523710Y-137085138D01*
X148537086Y-137088005D01*
X148631438Y-137097672D01*
X148637854Y-137098000D01*
X148675385Y-137098000D01*
X148690624Y-137093525D01*
X148691829Y-137092135D01*
X148693500Y-137084452D01*
X148693500Y-137079884D01*
X149201500Y-137079884D01*
X149205975Y-137095123D01*
X149207365Y-137096328D01*
X149215048Y-137097999D01*
X149257095Y-137097999D01*
X149263614Y-137097662D01*
X149359206Y-137087743D01*
X149372600Y-137084851D01*
X149526784Y-137033412D01*
X149539962Y-137027239D01*
X149677807Y-136941937D01*
X149689208Y-136932901D01*
X149803739Y-136818171D01*
X149812751Y-136806760D01*
X149901658Y-136662525D01*
X149903536Y-136663683D01*
X149943332Y-136618495D01*
X150011611Y-136599041D01*
X150079569Y-136619590D01*
X150111422Y-136649468D01*
X150149596Y-136700404D01*
X150156776Y-136705785D01*
X150258054Y-136781689D01*
X150258057Y-136781691D01*
X150265236Y-136787071D01*
X150348196Y-136818171D01*
X150393157Y-136835026D01*
X150393159Y-136835026D01*
X150400552Y-136837798D01*
X150408402Y-136838651D01*
X150408403Y-136838651D01*
X150458838Y-136844130D01*
X150462244Y-136844500D01*
X151082756Y-136844500D01*
X151086162Y-136844130D01*
X151136597Y-136838651D01*
X151136598Y-136838651D01*
X151144448Y-136837798D01*
X151151841Y-136835026D01*
X151151843Y-136835026D01*
X151196804Y-136818171D01*
X151279764Y-136787071D01*
X151286943Y-136781691D01*
X151286946Y-136781689D01*
X151388224Y-136705785D01*
X151395404Y-136700404D01*
X151433575Y-136649472D01*
X151476689Y-136591946D01*
X151476691Y-136591943D01*
X151482071Y-136584764D01*
X151532798Y-136449448D01*
X151533651Y-136441598D01*
X151533709Y-136441353D01*
X151568927Y-136379707D01*
X151631882Y-136346887D01*
X151656291Y-136344500D01*
X152888463Y-136344500D01*
X152956584Y-136364502D01*
X153003077Y-136418158D01*
X153011046Y-136441354D01*
X153012265Y-136446482D01*
X153013119Y-136454342D01*
X153015894Y-136461744D01*
X153015894Y-136461745D01*
X153045709Y-136541279D01*
X153063217Y-136587982D01*
X153068601Y-136595165D01*
X153068601Y-136595166D01*
X153119084Y-136662525D01*
X153148811Y-136702189D01*
X153263018Y-136787783D01*
X153271426Y-136790935D01*
X153389260Y-136835108D01*
X153389262Y-136835109D01*
X153396658Y-136837881D01*
X153457585Y-136844500D01*
X153748457Y-136844500D01*
X154039414Y-136844499D01*
X154042808Y-136844130D01*
X154042814Y-136844130D01*
X154092483Y-136838735D01*
X154092486Y-136838734D01*
X154100342Y-136837881D01*
X154183360Y-136806760D01*
X154225574Y-136790935D01*
X154233982Y-136787783D01*
X154348189Y-136702189D01*
X154377916Y-136662525D01*
X154428399Y-136595166D01*
X154428399Y-136595165D01*
X154433783Y-136587982D01*
X154451291Y-136541279D01*
X154481108Y-136461740D01*
X154481109Y-136461738D01*
X154483881Y-136454342D01*
X154490500Y-136393415D01*
X154490499Y-135386586D01*
X154490499Y-135386585D01*
X154881500Y-135386585D01*
X154881501Y-136393414D01*
X154881870Y-136396808D01*
X154881870Y-136396814D01*
X154886840Y-136442563D01*
X154888119Y-136454342D01*
X154890894Y-136461744D01*
X154890894Y-136461745D01*
X154920709Y-136541279D01*
X154938217Y-136587982D01*
X154943601Y-136595165D01*
X154943601Y-136595166D01*
X154994084Y-136662525D01*
X155023811Y-136702189D01*
X155138018Y-136787783D01*
X155146426Y-136790935D01*
X155264260Y-136835108D01*
X155264262Y-136835109D01*
X155271658Y-136837881D01*
X155332585Y-136844500D01*
X155623457Y-136844500D01*
X155914414Y-136844499D01*
X155917808Y-136844130D01*
X155917814Y-136844130D01*
X155967483Y-136838735D01*
X155967486Y-136838734D01*
X155975342Y-136837881D01*
X156058360Y-136806760D01*
X156100574Y-136790935D01*
X156108982Y-136787783D01*
X156223189Y-136702189D01*
X156252916Y-136662525D01*
X156303399Y-136595166D01*
X156303399Y-136595165D01*
X156308783Y-136587982D01*
X156325271Y-136543999D01*
X156356107Y-136461743D01*
X156356108Y-136461740D01*
X156358881Y-136454342D01*
X156359735Y-136446483D01*
X156360956Y-136441350D01*
X156396175Y-136379705D01*
X156459131Y-136346886D01*
X156483538Y-136344500D01*
X156704203Y-136344500D01*
X156772324Y-136364502D01*
X156789002Y-136377306D01*
X156810439Y-136396812D01*
X156844076Y-136427419D01*
X156983293Y-136503008D01*
X157136522Y-136543207D01*
X157220477Y-136544526D01*
X157287319Y-136545576D01*
X157287322Y-136545576D01*
X157294916Y-136545695D01*
X157449332Y-136510329D01*
X157519742Y-136474917D01*
X157584072Y-136442563D01*
X157584075Y-136442561D01*
X157590855Y-136439151D01*
X157596626Y-136434222D01*
X157596629Y-136434220D01*
X157705536Y-136341204D01*
X157705536Y-136341203D01*
X157711314Y-136336269D01*
X157803755Y-136207624D01*
X157862842Y-136060641D01*
X157885162Y-135903807D01*
X157885307Y-135890000D01*
X157866276Y-135732733D01*
X157810280Y-135584546D01*
X157803748Y-135575042D01*
X157724855Y-135460251D01*
X157724854Y-135460249D01*
X157720553Y-135453992D01*
X157602275Y-135348611D01*
X157594889Y-135344700D01*
X157468988Y-135278039D01*
X157468989Y-135278039D01*
X157462274Y-135274484D01*
X157308633Y-135235892D01*
X157301034Y-135235852D01*
X157301033Y-135235852D01*
X157235181Y-135235507D01*
X157150221Y-135235062D01*
X157142841Y-135236834D01*
X157142839Y-135236834D01*
X157003563Y-135270271D01*
X157003560Y-135270272D01*
X156996184Y-135272043D01*
X156855414Y-135344700D01*
X156849695Y-135349689D01*
X156786923Y-135404449D01*
X156722441Y-135434157D01*
X156704093Y-135435500D01*
X156483537Y-135435500D01*
X156415416Y-135415498D01*
X156368923Y-135361842D01*
X156360954Y-135338646D01*
X156359735Y-135333517D01*
X156358881Y-135325658D01*
X156341282Y-135278710D01*
X156311935Y-135200426D01*
X156308783Y-135192018D01*
X156277013Y-135149627D01*
X156228571Y-135084992D01*
X156223189Y-135077811D01*
X156108982Y-134992217D01*
X156100574Y-134989065D01*
X155982740Y-134944892D01*
X155982738Y-134944891D01*
X155975342Y-134942119D01*
X155914415Y-134935500D01*
X155623543Y-134935500D01*
X155332586Y-134935501D01*
X155329192Y-134935870D01*
X155329186Y-134935870D01*
X155279517Y-134941265D01*
X155279514Y-134941266D01*
X155271658Y-134942119D01*
X155264256Y-134944894D01*
X155264255Y-134944894D01*
X155146426Y-134989065D01*
X155138018Y-134992217D01*
X155023811Y-135077811D01*
X155018429Y-135084992D01*
X154969988Y-135149627D01*
X154938217Y-135192018D01*
X154935065Y-135200426D01*
X154904000Y-135283295D01*
X154888119Y-135325658D01*
X154881500Y-135386585D01*
X154490499Y-135386585D01*
X154490130Y-135383186D01*
X154484735Y-135333517D01*
X154484734Y-135333511D01*
X154483881Y-135325658D01*
X154466282Y-135278710D01*
X154436935Y-135200426D01*
X154433783Y-135192018D01*
X154402013Y-135149627D01*
X154353571Y-135084992D01*
X154348189Y-135077811D01*
X154233982Y-134992217D01*
X154225574Y-134989065D01*
X154107740Y-134944892D01*
X154107738Y-134944891D01*
X154100342Y-134942119D01*
X154039415Y-134935500D01*
X153748543Y-134935500D01*
X153457586Y-134935501D01*
X153454192Y-134935870D01*
X153454186Y-134935870D01*
X153404517Y-134941265D01*
X153404514Y-134941266D01*
X153396658Y-134942119D01*
X153389256Y-134944894D01*
X153389255Y-134944894D01*
X153271426Y-134989065D01*
X153263018Y-134992217D01*
X153148811Y-135077811D01*
X153143429Y-135084992D01*
X153094988Y-135149627D01*
X153063217Y-135192018D01*
X153060065Y-135200426D01*
X153029000Y-135283295D01*
X153013119Y-135325658D01*
X153012266Y-135333511D01*
X153011044Y-135338650D01*
X152975825Y-135400295D01*
X152912869Y-135433114D01*
X152888462Y-135435500D01*
X151656291Y-135435500D01*
X151588170Y-135415498D01*
X151541677Y-135361842D01*
X151533709Y-135338647D01*
X151533651Y-135338402D01*
X151532798Y-135330552D01*
X151482071Y-135195236D01*
X151476691Y-135188057D01*
X151476689Y-135188054D01*
X151400785Y-135086776D01*
X151395404Y-135079596D01*
X151349567Y-135045243D01*
X151286946Y-134998311D01*
X151286943Y-134998309D01*
X151279764Y-134992929D01*
X151190046Y-134959296D01*
X151151843Y-134944974D01*
X151151841Y-134944974D01*
X151144448Y-134942202D01*
X151136598Y-134941349D01*
X151136597Y-134941349D01*
X151086153Y-134935869D01*
X151086152Y-134935869D01*
X151082756Y-134935500D01*
X150462244Y-134935500D01*
X150458848Y-134935869D01*
X150458847Y-134935869D01*
X150408403Y-134941349D01*
X150408402Y-134941349D01*
X150400552Y-134942202D01*
X150393159Y-134944974D01*
X150393157Y-134944974D01*
X150354954Y-134959296D01*
X150265236Y-134992929D01*
X150258057Y-134998309D01*
X150258054Y-134998311D01*
X150195433Y-135045243D01*
X150149596Y-135079596D01*
X150111411Y-135130546D01*
X150054554Y-135173059D01*
X149983736Y-135178085D01*
X149921442Y-135144025D01*
X149901713Y-135115885D01*
X149901094Y-135116268D01*
X149811937Y-134972193D01*
X149802901Y-134960792D01*
X149688171Y-134846261D01*
X149676760Y-134837249D01*
X149538757Y-134752184D01*
X149525576Y-134746037D01*
X149371290Y-134694862D01*
X149357914Y-134691995D01*
X149263562Y-134682328D01*
X149257145Y-134682000D01*
X149219615Y-134682000D01*
X149204376Y-134686475D01*
X149203171Y-134687865D01*
X149201500Y-134695548D01*
X149201500Y-137079884D01*
X148693500Y-137079884D01*
X148693500Y-136162115D01*
X148689025Y-136146876D01*
X148687635Y-136145671D01*
X148679952Y-136144000D01*
X147945116Y-136144000D01*
X147929877Y-136148475D01*
X147928672Y-136149865D01*
X147927001Y-136157548D01*
X147927001Y-136387095D01*
X140817469Y-136387095D01*
X140782426Y-136332926D01*
X140776136Y-136324757D01*
X140680251Y-136219382D01*
X140649199Y-136155536D01*
X140657593Y-136085038D01*
X140684349Y-136045487D01*
X141111951Y-135617885D01*
X147927000Y-135617885D01*
X147931475Y-135633124D01*
X147932865Y-135634329D01*
X147940548Y-135636000D01*
X148675385Y-135636000D01*
X148690624Y-135631525D01*
X148691829Y-135630135D01*
X148693500Y-135622452D01*
X148693500Y-134700116D01*
X148689025Y-134684877D01*
X148687635Y-134683672D01*
X148679952Y-134682001D01*
X148637905Y-134682001D01*
X148631386Y-134682338D01*
X148535794Y-134692257D01*
X148522400Y-134695149D01*
X148368216Y-134746588D01*
X148355038Y-134752761D01*
X148217193Y-134838063D01*
X148205792Y-134847099D01*
X148091261Y-134961829D01*
X148082249Y-134973240D01*
X147997184Y-135111243D01*
X147991037Y-135124424D01*
X147939862Y-135278710D01*
X147936995Y-135292086D01*
X147927328Y-135386438D01*
X147927000Y-135392855D01*
X147927000Y-135617885D01*
X141111951Y-135617885D01*
X141246522Y-135483314D01*
X141257611Y-135473459D01*
X141258955Y-135472400D01*
X141284570Y-135452206D01*
X141318253Y-135403471D01*
X141320535Y-135400278D01*
X141355720Y-135352641D01*
X141358134Y-135345768D01*
X141362275Y-135339776D01*
X141380140Y-135283287D01*
X141381391Y-135279538D01*
X141381682Y-135278710D01*
X141401004Y-135223691D01*
X141401287Y-135216487D01*
X141401320Y-135216316D01*
X141403486Y-135209468D01*
X141404011Y-135202797D01*
X141404011Y-135149627D01*
X141404108Y-135144678D01*
X141404709Y-135129389D01*
X141427372Y-135062106D01*
X141441517Y-135045243D01*
X160225562Y-116261198D01*
X160236651Y-116251343D01*
X160237995Y-116250284D01*
X160263610Y-116230090D01*
X160297293Y-116181355D01*
X160299575Y-116178162D01*
X160334760Y-116130525D01*
X160337174Y-116123652D01*
X160341315Y-116117660D01*
X160359180Y-116061171D01*
X160360431Y-116057422D01*
X160363325Y-116049182D01*
X160380044Y-116001575D01*
X160380327Y-115994371D01*
X160380360Y-115994200D01*
X160382526Y-115987352D01*
X160383051Y-115980681D01*
X160383051Y-115927511D01*
X160383148Y-115922565D01*
X160383793Y-115906156D01*
X160385409Y-115865012D01*
X160383512Y-115857857D01*
X160383051Y-115849479D01*
X160383051Y-106623007D01*
X160383924Y-106608198D01*
X160386851Y-106583466D01*
X160387958Y-106574113D01*
X160384257Y-106553846D01*
X160377322Y-106515871D01*
X160376673Y-106511969D01*
X160369267Y-106462715D01*
X160369266Y-106462712D01*
X160367866Y-106453400D01*
X160364713Y-106446833D01*
X160363404Y-106439668D01*
X160336089Y-106387084D01*
X160334339Y-106383581D01*
X160308705Y-106330198D01*
X160303810Y-106324903D01*
X160303717Y-106324764D01*
X160300403Y-106318385D01*
X160296057Y-106313297D01*
X160258475Y-106275715D01*
X160255045Y-106272149D01*
X160222325Y-106236753D01*
X160215934Y-106229839D01*
X160209534Y-106226121D01*
X160203274Y-106220514D01*
X158569161Y-104586401D01*
X158535135Y-104524089D01*
X158538943Y-104456804D01*
X158542102Y-104447500D01*
X158558584Y-104398945D01*
X158559412Y-104393236D01*
X158559413Y-104393231D01*
X158578555Y-104261210D01*
X158587712Y-104198053D01*
X158589232Y-104140000D01*
X158570658Y-103937859D01*
X158569090Y-103932299D01*
X158517125Y-103748046D01*
X158517124Y-103748044D01*
X158515557Y-103742487D01*
X158504978Y-103721033D01*
X158428331Y-103565609D01*
X158425776Y-103560428D01*
X158304320Y-103397779D01*
X158155258Y-103259987D01*
X158150375Y-103256906D01*
X158150371Y-103256903D01*
X157988464Y-103154748D01*
X157983581Y-103151667D01*
X157795039Y-103076446D01*
X157789379Y-103075320D01*
X157789375Y-103075319D01*
X157601613Y-103037971D01*
X157601610Y-103037971D01*
X157595946Y-103036844D01*
X157590171Y-103036768D01*
X157590167Y-103036768D01*
X157488793Y-103035441D01*
X157392971Y-103034187D01*
X157387274Y-103035166D01*
X157387273Y-103035166D01*
X157198607Y-103067585D01*
X157192910Y-103068564D01*
X157002463Y-103138824D01*
X156997502Y-103141776D01*
X156997501Y-103141776D01*
X156875412Y-103214411D01*
X156806641Y-103232051D01*
X156739251Y-103209710D01*
X156694638Y-103154482D01*
X156684989Y-103106126D01*
X156684989Y-103089961D01*
X156704991Y-103021840D01*
X156721894Y-103000866D01*
X157031493Y-102691267D01*
X157093805Y-102657241D01*
X157148396Y-102657469D01*
X157329579Y-102698467D01*
X157329584Y-102698468D01*
X157335216Y-102699742D01*
X157340987Y-102699969D01*
X157340989Y-102699969D01*
X157400756Y-102702317D01*
X157538053Y-102707712D01*
X157651472Y-102691267D01*
X157733231Y-102679413D01*
X157733236Y-102679412D01*
X157738945Y-102678584D01*
X157744409Y-102676729D01*
X157744414Y-102676728D01*
X157925693Y-102615192D01*
X157925698Y-102615190D01*
X157931165Y-102613334D01*
X158108276Y-102514147D01*
X158264345Y-102384345D01*
X158394147Y-102228276D01*
X158466744Y-102098645D01*
X158490510Y-102056208D01*
X158490511Y-102056206D01*
X158493334Y-102051165D01*
X158495190Y-102045698D01*
X158495192Y-102045693D01*
X158556728Y-101864414D01*
X158556729Y-101864409D01*
X158558584Y-101858945D01*
X158559412Y-101853236D01*
X158559413Y-101853231D01*
X158587179Y-101661727D01*
X158587712Y-101658053D01*
X158589232Y-101600000D01*
X158570658Y-101397859D01*
X158569090Y-101392299D01*
X158517125Y-101208046D01*
X158517124Y-101208044D01*
X158515557Y-101202487D01*
X158504978Y-101181033D01*
X158428331Y-101025609D01*
X158425776Y-101020428D01*
X158304320Y-100857779D01*
X158155258Y-100719987D01*
X158150375Y-100716906D01*
X158150371Y-100716903D01*
X157988464Y-100614748D01*
X157983581Y-100611667D01*
X157795039Y-100536446D01*
X157789379Y-100535320D01*
X157789375Y-100535319D01*
X157601613Y-100497971D01*
X157601610Y-100497971D01*
X157595946Y-100496844D01*
X157590171Y-100496768D01*
X157590167Y-100496768D01*
X157488793Y-100495441D01*
X157392971Y-100494187D01*
X157387274Y-100495166D01*
X157387273Y-100495166D01*
X157299397Y-100510266D01*
X157192910Y-100528564D01*
X157002463Y-100598824D01*
X156828010Y-100702612D01*
X156823670Y-100706418D01*
X156823666Y-100706421D01*
X156679733Y-100832648D01*
X156675392Y-100836455D01*
X156549720Y-100995869D01*
X156547031Y-101000980D01*
X156547029Y-101000983D01*
X156534073Y-101025609D01*
X156455203Y-101175515D01*
X156395007Y-101369378D01*
X156371148Y-101570964D01*
X156384424Y-101773522D01*
X156385845Y-101779118D01*
X156385846Y-101779123D01*
X156423353Y-101926804D01*
X156420735Y-101997753D01*
X156390325Y-102046915D01*
X156259595Y-102177645D01*
X156197283Y-102211671D01*
X156126468Y-102206606D01*
X156069632Y-102164059D01*
X156044821Y-102097539D01*
X156044500Y-102088550D01*
X156044499Y-100731123D01*
X156044499Y-100724934D01*
X156029734Y-100650699D01*
X156003654Y-100611667D01*
X155980377Y-100576832D01*
X155973484Y-100566516D01*
X155889301Y-100510266D01*
X155815067Y-100495500D01*
X154940142Y-100495500D01*
X154064934Y-100495501D01*
X154029182Y-100502612D01*
X154002874Y-100507844D01*
X154002872Y-100507845D01*
X153990699Y-100510266D01*
X153980379Y-100517161D01*
X153980378Y-100517162D01*
X153919985Y-100557516D01*
X153906516Y-100566516D01*
X153850266Y-100650699D01*
X153835500Y-100724933D01*
X153835501Y-101392299D01*
X153835501Y-102009549D01*
X153815499Y-102077670D01*
X153798596Y-102098644D01*
X152502645Y-103394595D01*
X152440333Y-103428621D01*
X152413550Y-103431500D01*
X142226450Y-103431500D01*
X142158329Y-103411498D01*
X142137355Y-103394595D01*
X140841405Y-102098645D01*
X140807379Y-102036333D01*
X140804500Y-102009550D01*
X140804499Y-100731123D01*
X140804499Y-100724934D01*
X140789734Y-100650699D01*
X140763654Y-100611667D01*
X140740377Y-100576832D01*
X140733484Y-100566516D01*
X140649301Y-100510266D01*
X140575067Y-100495500D01*
X139700142Y-100495500D01*
X138824934Y-100495501D01*
X138789182Y-100502612D01*
X138762874Y-100507844D01*
X138762872Y-100507845D01*
X138750699Y-100510266D01*
X138740379Y-100517161D01*
X138740378Y-100517162D01*
X138679985Y-100557516D01*
X138666516Y-100566516D01*
X138610266Y-100650699D01*
X138595500Y-100724933D01*
X138595501Y-102475066D01*
X138610266Y-102549301D01*
X138617161Y-102559621D01*
X138617162Y-102559622D01*
X138657516Y-102620015D01*
X138666516Y-102633484D01*
X138750699Y-102689734D01*
X138824933Y-102704500D01*
X138966612Y-102704500D01*
X140109549Y-102704499D01*
X140177670Y-102724501D01*
X140198644Y-102741404D01*
X140504442Y-103047202D01*
X140538468Y-103109514D01*
X140533403Y-103180329D01*
X140490856Y-103237165D01*
X140424336Y-103261976D01*
X140354962Y-103246885D01*
X140348112Y-103242859D01*
X140208464Y-103154748D01*
X140203581Y-103151667D01*
X140015039Y-103076446D01*
X140009379Y-103075320D01*
X140009375Y-103075319D01*
X139821613Y-103037971D01*
X139821610Y-103037971D01*
X139815946Y-103036844D01*
X139810171Y-103036768D01*
X139810167Y-103036768D01*
X139708793Y-103035441D01*
X139612971Y-103034187D01*
X139607274Y-103035166D01*
X139607273Y-103035166D01*
X139418607Y-103067585D01*
X139412910Y-103068564D01*
X139222463Y-103138824D01*
X139048010Y-103242612D01*
X139043670Y-103246418D01*
X139043666Y-103246421D01*
X138945547Y-103332470D01*
X138895392Y-103376455D01*
X138891817Y-103380990D01*
X138891816Y-103380991D01*
X138878581Y-103397779D01*
X138769720Y-103535869D01*
X138767031Y-103540980D01*
X138767029Y-103540983D01*
X138754073Y-103565609D01*
X138675203Y-103715515D01*
X138615007Y-103909378D01*
X138591148Y-104110964D01*
X138604424Y-104313522D01*
X138605845Y-104319118D01*
X138605846Y-104319123D01*
X138640813Y-104456804D01*
X138654392Y-104510269D01*
X138739377Y-104694616D01*
X138856533Y-104860389D01*
X139001938Y-105002035D01*
X139170720Y-105114812D01*
X139176023Y-105117090D01*
X139176026Y-105117092D01*
X139344289Y-105189383D01*
X139357228Y-105194942D01*
X139430244Y-105211464D01*
X139549579Y-105238467D01*
X139549584Y-105238468D01*
X139555216Y-105239742D01*
X139560987Y-105239969D01*
X139560989Y-105239969D01*
X139620756Y-105242317D01*
X139758053Y-105247712D01*
X139879128Y-105230157D01*
X139953231Y-105219413D01*
X139953236Y-105219412D01*
X139958945Y-105218584D01*
X140012767Y-105200314D01*
X140083700Y-105197358D01*
X140139520Y-105227777D01*
X140141528Y-105229663D01*
X140147359Y-105237059D01*
X140155106Y-105242413D01*
X140196094Y-105270742D01*
X140199287Y-105273024D01*
X140246924Y-105308209D01*
X140245262Y-105310458D01*
X140285518Y-105349703D01*
X140301490Y-105418880D01*
X140277527Y-105485710D01*
X140230252Y-105525070D01*
X140203647Y-105537846D01*
X140198352Y-105542741D01*
X140198213Y-105542834D01*
X140191834Y-105546148D01*
X140186746Y-105550494D01*
X140149208Y-105588032D01*
X140086896Y-105622058D01*
X140024329Y-105619749D01*
X140020404Y-105618587D01*
X140015039Y-105616446D01*
X139915492Y-105596645D01*
X139821613Y-105577971D01*
X139821610Y-105577971D01*
X139815946Y-105576844D01*
X139810171Y-105576768D01*
X139810167Y-105576768D01*
X139708793Y-105575441D01*
X139612971Y-105574187D01*
X139607274Y-105575166D01*
X139607273Y-105575166D01*
X139418607Y-105607585D01*
X139412910Y-105608564D01*
X139222463Y-105678824D01*
X139048010Y-105782612D01*
X139043670Y-105786418D01*
X139043666Y-105786421D01*
X138918721Y-105895996D01*
X138895392Y-105916455D01*
X138769720Y-106075869D01*
X138767031Y-106080980D01*
X138767029Y-106080983D01*
X138754073Y-106105609D01*
X138675203Y-106255515D01*
X138615007Y-106449378D01*
X138591148Y-106650964D01*
X138604424Y-106853522D01*
X138605845Y-106859118D01*
X138605846Y-106859123D01*
X138626119Y-106938945D01*
X138654392Y-107050269D01*
X138656809Y-107055512D01*
X138694010Y-107136208D01*
X138739377Y-107234616D01*
X138856533Y-107400389D01*
X139001938Y-107542035D01*
X139006742Y-107545245D01*
X139049597Y-107573880D01*
X139170720Y-107654812D01*
X139176023Y-107657090D01*
X139176026Y-107657092D01*
X139351921Y-107732662D01*
X139357228Y-107734942D01*
X139430244Y-107751464D01*
X139549579Y-107778467D01*
X139549584Y-107778468D01*
X139555216Y-107779742D01*
X139560987Y-107779969D01*
X139560989Y-107779969D01*
X139620756Y-107782317D01*
X139758053Y-107787712D01*
X139858499Y-107773148D01*
X139953231Y-107759413D01*
X139953236Y-107759412D01*
X139958945Y-107758584D01*
X139964409Y-107756729D01*
X139964414Y-107756728D01*
X140145693Y-107695192D01*
X140145698Y-107695190D01*
X140151165Y-107693334D01*
X140156994Y-107690070D01*
X140274816Y-107624086D01*
X140328276Y-107594147D01*
X140332718Y-107590452D01*
X140334871Y-107588973D01*
X140402341Y-107566876D01*
X140471047Y-107584764D01*
X140519176Y-107636957D01*
X140531446Y-107706886D01*
X140503962Y-107772347D01*
X140495329Y-107781911D01*
X140149208Y-108128032D01*
X140086896Y-108162058D01*
X140024329Y-108159749D01*
X140020404Y-108158587D01*
X140015039Y-108156446D01*
X139915493Y-108136645D01*
X139821613Y-108117971D01*
X139821610Y-108117971D01*
X139815946Y-108116844D01*
X139810171Y-108116768D01*
X139810167Y-108116768D01*
X139708793Y-108115441D01*
X139612971Y-108114187D01*
X139607274Y-108115166D01*
X139607273Y-108115166D01*
X139418607Y-108147585D01*
X139412910Y-108148564D01*
X139222463Y-108218824D01*
X139048010Y-108322612D01*
X139043670Y-108326418D01*
X139043666Y-108326421D01*
X138918721Y-108435996D01*
X138895392Y-108456455D01*
X138769720Y-108615869D01*
X138767031Y-108620980D01*
X138767029Y-108620983D01*
X138754073Y-108645609D01*
X138675203Y-108795515D01*
X138615007Y-108989378D01*
X138591148Y-109190964D01*
X138604424Y-109393522D01*
X138605845Y-109399118D01*
X138605846Y-109399123D01*
X138626119Y-109478945D01*
X138654392Y-109590269D01*
X138656809Y-109595512D01*
X138694010Y-109676208D01*
X138739377Y-109774616D01*
X138856533Y-109940389D01*
X139001938Y-110082035D01*
X139170720Y-110194812D01*
X139176023Y-110197090D01*
X139176026Y-110197092D01*
X139351921Y-110272662D01*
X139357228Y-110274942D01*
X139430244Y-110291464D01*
X139549579Y-110318467D01*
X139549584Y-110318468D01*
X139555216Y-110319742D01*
X139560987Y-110319969D01*
X139560989Y-110319969D01*
X139620756Y-110322317D01*
X139758053Y-110327712D01*
X139858499Y-110313148D01*
X139953231Y-110299413D01*
X139953236Y-110299412D01*
X139958945Y-110298584D01*
X139964409Y-110296729D01*
X139964414Y-110296728D01*
X140145693Y-110235192D01*
X140145698Y-110235190D01*
X140151165Y-110233334D01*
X140156994Y-110230070D01*
X140274816Y-110164086D01*
X140328276Y-110134147D01*
X140336656Y-110127178D01*
X140479913Y-110008031D01*
X140484345Y-110004345D01*
X140614147Y-109848276D01*
X140713334Y-109671165D01*
X140715190Y-109665698D01*
X140715192Y-109665693D01*
X140776728Y-109484414D01*
X140776729Y-109484409D01*
X140778584Y-109478945D01*
X140779412Y-109473236D01*
X140779413Y-109473231D01*
X140807179Y-109281727D01*
X140807712Y-109278053D01*
X140809232Y-109220000D01*
X140790658Y-109017859D01*
X140756640Y-108897242D01*
X140757400Y-108826251D01*
X140788814Y-108773946D01*
X142137355Y-107425405D01*
X142199667Y-107391379D01*
X142226450Y-107388500D01*
X152413550Y-107388500D01*
X152481671Y-107408502D01*
X152502645Y-107425405D01*
X153851346Y-108774106D01*
X153885372Y-108836418D01*
X153882584Y-108900564D01*
X153855007Y-108989378D01*
X153831148Y-109190964D01*
X153844424Y-109393522D01*
X153845845Y-109399118D01*
X153845846Y-109399123D01*
X153866119Y-109478945D01*
X153894392Y-109590269D01*
X153896809Y-109595512D01*
X153934010Y-109676208D01*
X153979377Y-109774616D01*
X154096533Y-109940389D01*
X154241938Y-110082035D01*
X154410720Y-110194812D01*
X154416023Y-110197090D01*
X154416026Y-110197092D01*
X154591921Y-110272662D01*
X154597228Y-110274942D01*
X154670244Y-110291464D01*
X154789579Y-110318467D01*
X154789584Y-110318468D01*
X154795216Y-110319742D01*
X154800987Y-110319969D01*
X154800989Y-110319969D01*
X154860756Y-110322317D01*
X154998053Y-110327712D01*
X155098499Y-110313148D01*
X155193231Y-110299413D01*
X155193236Y-110299412D01*
X155198945Y-110298584D01*
X155204409Y-110296729D01*
X155204414Y-110296728D01*
X155385693Y-110235192D01*
X155385698Y-110235190D01*
X155391165Y-110233334D01*
X155396994Y-110230070D01*
X155514816Y-110164086D01*
X155568276Y-110134147D01*
X155572719Y-110130452D01*
X155577483Y-110127178D01*
X155578827Y-110129133D01*
X155634559Y-110105018D01*
X155704617Y-110116528D01*
X155757330Y-110164086D01*
X155775989Y-110230070D01*
X155775989Y-110752917D01*
X155755987Y-110821038D01*
X155702331Y-110867531D01*
X155632057Y-110877635D01*
X155582757Y-110859481D01*
X155443581Y-110771667D01*
X155255039Y-110696446D01*
X155249379Y-110695320D01*
X155249375Y-110695319D01*
X155061613Y-110657971D01*
X155061610Y-110657971D01*
X155055946Y-110656844D01*
X155050171Y-110656768D01*
X155050167Y-110656768D01*
X154948793Y-110655441D01*
X154852971Y-110654187D01*
X154847274Y-110655166D01*
X154847273Y-110655166D01*
X154684254Y-110683178D01*
X154652910Y-110688564D01*
X154462463Y-110758824D01*
X154288010Y-110862612D01*
X154283670Y-110866418D01*
X154283666Y-110866421D01*
X154263723Y-110883911D01*
X154135392Y-110996455D01*
X154009720Y-111155869D01*
X154007031Y-111160980D01*
X154007029Y-111160983D01*
X153994073Y-111185609D01*
X153915203Y-111335515D01*
X153889411Y-111418578D01*
X153856718Y-111523866D01*
X153856717Y-111523871D01*
X153855007Y-111529378D01*
X153854437Y-111529201D01*
X153822604Y-111588168D01*
X153760455Y-111622491D01*
X153733083Y-111625500D01*
X152145274Y-111625500D01*
X152077153Y-111605498D01*
X152044448Y-111575065D01*
X152035866Y-111563613D01*
X151965404Y-111469596D01*
X151944977Y-111454287D01*
X151856946Y-111388311D01*
X151856943Y-111388309D01*
X151849764Y-111382929D01*
X151723286Y-111335515D01*
X151721843Y-111334974D01*
X151721841Y-111334974D01*
X151714448Y-111332202D01*
X151706598Y-111331349D01*
X151706597Y-111331349D01*
X151656153Y-111325869D01*
X151656152Y-111325869D01*
X151652756Y-111325500D01*
X150607244Y-111325500D01*
X150603848Y-111325869D01*
X150603847Y-111325869D01*
X150553403Y-111331349D01*
X150553402Y-111331349D01*
X150545552Y-111332202D01*
X150538159Y-111334974D01*
X150538157Y-111334974D01*
X150536714Y-111335515D01*
X150410236Y-111382929D01*
X150403057Y-111388309D01*
X150403054Y-111388311D01*
X150315023Y-111454287D01*
X150294596Y-111469596D01*
X150289215Y-111476776D01*
X150213311Y-111578054D01*
X150213309Y-111578057D01*
X150207929Y-111585236D01*
X150157202Y-111720552D01*
X150156349Y-111728402D01*
X150156349Y-111728403D01*
X150152514Y-111763704D01*
X150150500Y-111782244D01*
X150150500Y-112377756D01*
X150157202Y-112439448D01*
X150207929Y-112574764D01*
X150213309Y-112581943D01*
X150213311Y-112581946D01*
X150243356Y-112622035D01*
X150294596Y-112690404D01*
X150410236Y-112777071D01*
X150418645Y-112780223D01*
X150425874Y-112784181D01*
X150476021Y-112834438D01*
X150491036Y-112903829D01*
X150466152Y-112970322D01*
X150405243Y-113014226D01*
X150338216Y-113036588D01*
X150325038Y-113042761D01*
X150187193Y-113128063D01*
X150175792Y-113137099D01*
X150061261Y-113251829D01*
X150052249Y-113263240D01*
X149967184Y-113401243D01*
X149961037Y-113414424D01*
X149909862Y-113568710D01*
X149906995Y-113582086D01*
X149897328Y-113676438D01*
X149897000Y-113682855D01*
X149897000Y-113707885D01*
X149901475Y-113723124D01*
X149902865Y-113724329D01*
X149910548Y-113726000D01*
X152344884Y-113726000D01*
X152360123Y-113721525D01*
X152361328Y-113720135D01*
X152362999Y-113712452D01*
X152362999Y-113682905D01*
X152362662Y-113676386D01*
X152352743Y-113580794D01*
X152349851Y-113567400D01*
X152298412Y-113413216D01*
X152292239Y-113400038D01*
X152206937Y-113262193D01*
X152197901Y-113250792D01*
X152083171Y-113136261D01*
X152071760Y-113127249D01*
X151933757Y-113042184D01*
X151920574Y-113036036D01*
X151854990Y-113014283D01*
X151796630Y-112973853D01*
X151769393Y-112908288D01*
X151781926Y-112838407D01*
X151834147Y-112784170D01*
X151841357Y-112780223D01*
X151849764Y-112777071D01*
X151858519Y-112770510D01*
X151958224Y-112695785D01*
X151965404Y-112690404D01*
X152044449Y-112584935D01*
X152101307Y-112542420D01*
X152145274Y-112534500D01*
X154100854Y-112534500D01*
X154168975Y-112554502D01*
X154188769Y-112570240D01*
X154241938Y-112622035D01*
X154410720Y-112734812D01*
X154416023Y-112737090D01*
X154416026Y-112737092D01*
X154512954Y-112778735D01*
X154567647Y-112824003D01*
X154589184Y-112891654D01*
X154570727Y-112960210D01*
X154518136Y-113007904D01*
X154502361Y-113014268D01*
X154416868Y-113042212D01*
X154407359Y-113046209D01*
X154218463Y-113144542D01*
X154209738Y-113150036D01*
X154039433Y-113277905D01*
X154031726Y-113284748D01*
X153884590Y-113438717D01*
X153878104Y-113446727D01*
X153758098Y-113622649D01*
X153753000Y-113631623D01*
X153663338Y-113824783D01*
X153659775Y-113834470D01*
X153604389Y-114034183D01*
X153605912Y-114042607D01*
X153618292Y-114046000D01*
X155649989Y-114046000D01*
X155718110Y-114066002D01*
X155764603Y-114119658D01*
X155775989Y-114172000D01*
X155775989Y-114428000D01*
X155755987Y-114496121D01*
X155702331Y-114542614D01*
X155649989Y-114554000D01*
X155212115Y-114554000D01*
X155196876Y-114558475D01*
X155195671Y-114559865D01*
X155194000Y-114567548D01*
X155194000Y-115618517D01*
X155198064Y-115632359D01*
X155211478Y-115634393D01*
X155218184Y-115633534D01*
X155228262Y-115631392D01*
X155432255Y-115570191D01*
X155441842Y-115566433D01*
X155594556Y-115491619D01*
X155664530Y-115479612D01*
X155729887Y-115507342D01*
X155769877Y-115566005D01*
X155775989Y-115604770D01*
X155775989Y-115817061D01*
X155755987Y-115885182D01*
X155739084Y-115906156D01*
X147676645Y-123968595D01*
X147614333Y-124002621D01*
X147587550Y-124005500D01*
X140930499Y-124005500D01*
X140862378Y-123985498D01*
X140815885Y-123931842D01*
X140804499Y-123879500D01*
X140804499Y-123584934D01*
X140789734Y-123510699D01*
X140733484Y-123426516D01*
X140649301Y-123370266D01*
X140575067Y-123355500D01*
X139700142Y-123355500D01*
X138824934Y-123355501D01*
X138789182Y-123362612D01*
X138762874Y-123367844D01*
X138762872Y-123367845D01*
X138750699Y-123370266D01*
X138740379Y-123377161D01*
X138740378Y-123377162D01*
X138679985Y-123417516D01*
X138666516Y-123426516D01*
X138610266Y-123510699D01*
X138595500Y-123584933D01*
X138595501Y-125335066D01*
X138610266Y-125409301D01*
X138666516Y-125493484D01*
X138750699Y-125549734D01*
X138824933Y-125564500D01*
X139699858Y-125564500D01*
X140575066Y-125564499D01*
X140610818Y-125557388D01*
X140637126Y-125552156D01*
X140637128Y-125552155D01*
X140649301Y-125549734D01*
X140659621Y-125542839D01*
X140659622Y-125542838D01*
X140723168Y-125500377D01*
X140733484Y-125493484D01*
X140789734Y-125409301D01*
X140804500Y-125335067D01*
X140804500Y-125040500D01*
X140824502Y-124972379D01*
X140878158Y-124925886D01*
X140930500Y-124914500D01*
X147696550Y-124914500D01*
X147764671Y-124934502D01*
X147811164Y-124988158D01*
X147821268Y-125058432D01*
X147791774Y-125123012D01*
X147785645Y-125129595D01*
X141326645Y-131588595D01*
X141264333Y-131622621D01*
X141237550Y-131625500D01*
X140785806Y-131625500D01*
X140717685Y-131605498D01*
X140672800Y-131555228D01*
X140648331Y-131505608D01*
X140648328Y-131505604D01*
X140645776Y-131500428D01*
X140524320Y-131337779D01*
X140375258Y-131199987D01*
X140370375Y-131196906D01*
X140370371Y-131196903D01*
X140208464Y-131094748D01*
X140203581Y-131091667D01*
X140015039Y-131016446D01*
X140009379Y-131015320D01*
X140009375Y-131015319D01*
X139821613Y-130977971D01*
X139821610Y-130977971D01*
X139815946Y-130976844D01*
X139810171Y-130976768D01*
X139810167Y-130976768D01*
X139708793Y-130975441D01*
X139612971Y-130974187D01*
X139607274Y-130975166D01*
X139607273Y-130975166D01*
X139472875Y-130998260D01*
X139412910Y-131008564D01*
X139222463Y-131078824D01*
X139074922Y-131166601D01*
X139006153Y-131184241D01*
X138938763Y-131161900D01*
X138894149Y-131106673D01*
X138884500Y-131058316D01*
X138884500Y-131050450D01*
X138904502Y-130982329D01*
X138921405Y-130961355D01*
X139251493Y-130631267D01*
X139313805Y-130597241D01*
X139368396Y-130597469D01*
X139549579Y-130638467D01*
X139549584Y-130638468D01*
X139555216Y-130639742D01*
X139560987Y-130639969D01*
X139560989Y-130639969D01*
X139620756Y-130642317D01*
X139758053Y-130647712D01*
X139871472Y-130631267D01*
X139953231Y-130619413D01*
X139953236Y-130619412D01*
X139958945Y-130618584D01*
X139964409Y-130616729D01*
X139964414Y-130616728D01*
X140145693Y-130555192D01*
X140145698Y-130555190D01*
X140151165Y-130553334D01*
X140328276Y-130454147D01*
X140484345Y-130324345D01*
X140614147Y-130168276D01*
X140713334Y-129991165D01*
X140715190Y-129985698D01*
X140715192Y-129985693D01*
X140776728Y-129804414D01*
X140776729Y-129804409D01*
X140778584Y-129798945D01*
X140779412Y-129793236D01*
X140779413Y-129793231D01*
X140807179Y-129601727D01*
X140807712Y-129598053D01*
X140809232Y-129540000D01*
X140790658Y-129337859D01*
X140789090Y-129332299D01*
X140737125Y-129148046D01*
X140737124Y-129148044D01*
X140735557Y-129142487D01*
X140724978Y-129121033D01*
X140648331Y-128965609D01*
X140645776Y-128960428D01*
X140524320Y-128797779D01*
X140375258Y-128659987D01*
X140370375Y-128656906D01*
X140370371Y-128656903D01*
X140208464Y-128554748D01*
X140203581Y-128551667D01*
X140015039Y-128476446D01*
X140009379Y-128475320D01*
X140009375Y-128475319D01*
X139821613Y-128437971D01*
X139821610Y-128437971D01*
X139815946Y-128436844D01*
X139810171Y-128436768D01*
X139810167Y-128436768D01*
X139708793Y-128435441D01*
X139612971Y-128434187D01*
X139607274Y-128435166D01*
X139607273Y-128435166D01*
X139418607Y-128467585D01*
X139412910Y-128468564D01*
X139222463Y-128538824D01*
X139217502Y-128541776D01*
X139217501Y-128541776D01*
X139055505Y-128638153D01*
X138986734Y-128655793D01*
X138919344Y-128633452D01*
X138874731Y-128578224D01*
X138867058Y-128507644D01*
X138901987Y-128440773D01*
X139251493Y-128091267D01*
X139313805Y-128057241D01*
X139368396Y-128057469D01*
X139549579Y-128098467D01*
X139549584Y-128098468D01*
X139555216Y-128099742D01*
X139560987Y-128099969D01*
X139560989Y-128099969D01*
X139620756Y-128102317D01*
X139758053Y-128107712D01*
X139871472Y-128091267D01*
X139953231Y-128079413D01*
X139953236Y-128079412D01*
X139958945Y-128078584D01*
X139964409Y-128076729D01*
X139964414Y-128076728D01*
X140145693Y-128015192D01*
X140145698Y-128015190D01*
X140151165Y-128013334D01*
X140328276Y-127914147D01*
X140484345Y-127784345D01*
X140614147Y-127628276D01*
X140713334Y-127451165D01*
X140715190Y-127445698D01*
X140715192Y-127445693D01*
X140776728Y-127264414D01*
X140776729Y-127264409D01*
X140778584Y-127258945D01*
X140779412Y-127253236D01*
X140779413Y-127253231D01*
X140807179Y-127061727D01*
X140807712Y-127058053D01*
X140809232Y-127000000D01*
X140790658Y-126797859D01*
X140789090Y-126792299D01*
X140737125Y-126608046D01*
X140737124Y-126608044D01*
X140735557Y-126602487D01*
X140724978Y-126581033D01*
X140648331Y-126425609D01*
X140645776Y-126420428D01*
X140524320Y-126257779D01*
X140375258Y-126119987D01*
X140370375Y-126116906D01*
X140370371Y-126116903D01*
X140208464Y-126014748D01*
X140203581Y-126011667D01*
X140015039Y-125936446D01*
X140009379Y-125935320D01*
X140009375Y-125935319D01*
X139821613Y-125897971D01*
X139821610Y-125897971D01*
X139815946Y-125896844D01*
X139810171Y-125896768D01*
X139810167Y-125896768D01*
X139708793Y-125895441D01*
X139612971Y-125894187D01*
X139607274Y-125895166D01*
X139607273Y-125895166D01*
X139418607Y-125927585D01*
X139412910Y-125928564D01*
X139222463Y-125998824D01*
X139048010Y-126102612D01*
X139043670Y-126106418D01*
X139043666Y-126106421D01*
X139023723Y-126123911D01*
X138895392Y-126236455D01*
X138769720Y-126395869D01*
X138767031Y-126400980D01*
X138767029Y-126400983D01*
X138754073Y-126425609D01*
X138675203Y-126575515D01*
X138615007Y-126769378D01*
X138591148Y-126970964D01*
X138604424Y-127173522D01*
X138605845Y-127179118D01*
X138605846Y-127179123D01*
X138643353Y-127326804D01*
X138640735Y-127397753D01*
X138610325Y-127446915D01*
X137533469Y-128523771D01*
X137522380Y-128533626D01*
X137495421Y-128554879D01*
X137490067Y-128562626D01*
X137461738Y-128603614D01*
X137459456Y-128606807D01*
X137424271Y-128654444D01*
X137421857Y-128661317D01*
X137417716Y-128667309D01*
X137414876Y-128676290D01*
X137399854Y-128723790D01*
X137398609Y-128727519D01*
X137378987Y-128783394D01*
X137378704Y-128790598D01*
X137378671Y-128790769D01*
X137376505Y-128797617D01*
X137375980Y-128804288D01*
X137375980Y-128857458D01*
X137375883Y-128862404D01*
X137373622Y-128919957D01*
X137375519Y-128927112D01*
X137375980Y-128935487D01*
X137375980Y-134483100D01*
X137375107Y-134497909D01*
X137371073Y-134531994D01*
X136144000Y-134531994D01*
X136144000Y-114567966D01*
X138368257Y-114567966D01*
X138398565Y-114702446D01*
X138401645Y-114712275D01*
X138481770Y-114909603D01*
X138486413Y-114918794D01*
X138597694Y-115100388D01*
X138603777Y-115108699D01*
X138743213Y-115269667D01*
X138750580Y-115276883D01*
X138914434Y-115412916D01*
X138922881Y-115418831D01*
X139106756Y-115526279D01*
X139116042Y-115530729D01*
X139315001Y-115606703D01*
X139324899Y-115609579D01*
X139428250Y-115630606D01*
X139442299Y-115629410D01*
X139446000Y-115619065D01*
X139446000Y-115618517D01*
X139954000Y-115618517D01*
X139958064Y-115632359D01*
X139971478Y-115634393D01*
X139978184Y-115633534D01*
X139988262Y-115631392D01*
X140192255Y-115570191D01*
X140201842Y-115566433D01*
X140393095Y-115472739D01*
X140401945Y-115467464D01*
X140575328Y-115343792D01*
X140583200Y-115337139D01*
X140734052Y-115186812D01*
X140740730Y-115178965D01*
X140865003Y-115006020D01*
X140870313Y-114997183D01*
X140964670Y-114806267D01*
X140968469Y-114796672D01*
X141030377Y-114592910D01*
X141032555Y-114582837D01*
X141033986Y-114571962D01*
X141031775Y-114557778D01*
X141018617Y-114554000D01*
X139972115Y-114554000D01*
X139956876Y-114558475D01*
X139955671Y-114559865D01*
X139954000Y-114567548D01*
X139954000Y-115618517D01*
X139446000Y-115618517D01*
X139446000Y-114572115D01*
X139441525Y-114556876D01*
X139440135Y-114555671D01*
X139432452Y-114554000D01*
X138383225Y-114554000D01*
X138369694Y-114557973D01*
X138368257Y-114567966D01*
X136144000Y-114567966D01*
X136144000Y-114277095D01*
X149897001Y-114277095D01*
X149897338Y-114283614D01*
X149907257Y-114379206D01*
X149910149Y-114392600D01*
X149961588Y-114546784D01*
X149967761Y-114559962D01*
X150053063Y-114697807D01*
X150062099Y-114709208D01*
X150176829Y-114823739D01*
X150188240Y-114832751D01*
X150326243Y-114917816D01*
X150339424Y-114923963D01*
X150493710Y-114975138D01*
X150507086Y-114978005D01*
X150601438Y-114987672D01*
X150607854Y-114988000D01*
X150857885Y-114988000D01*
X150873124Y-114983525D01*
X150874329Y-114982135D01*
X150876000Y-114974452D01*
X150876000Y-114969884D01*
X151384000Y-114969884D01*
X151388475Y-114985123D01*
X151389865Y-114986328D01*
X151397548Y-114987999D01*
X151652095Y-114987999D01*
X151658614Y-114987662D01*
X151754206Y-114977743D01*
X151767600Y-114974851D01*
X151921784Y-114923412D01*
X151934962Y-114917239D01*
X152072807Y-114831937D01*
X152084208Y-114822901D01*
X152198739Y-114708171D01*
X152207751Y-114696760D01*
X152287140Y-114567966D01*
X153608257Y-114567966D01*
X153638565Y-114702446D01*
X153641645Y-114712275D01*
X153721770Y-114909603D01*
X153726413Y-114918794D01*
X153837694Y-115100388D01*
X153843777Y-115108699D01*
X153983213Y-115269667D01*
X153990580Y-115276883D01*
X154154434Y-115412916D01*
X154162881Y-115418831D01*
X154346756Y-115526279D01*
X154356042Y-115530729D01*
X154555001Y-115606703D01*
X154564899Y-115609579D01*
X154668250Y-115630606D01*
X154682299Y-115629410D01*
X154686000Y-115619065D01*
X154686000Y-114572115D01*
X154681525Y-114556876D01*
X154680135Y-114555671D01*
X154672452Y-114554000D01*
X153623225Y-114554000D01*
X153609694Y-114557973D01*
X153608257Y-114567966D01*
X152287140Y-114567966D01*
X152292816Y-114558757D01*
X152298963Y-114545576D01*
X152350138Y-114391290D01*
X152353005Y-114377914D01*
X152362672Y-114283562D01*
X152363000Y-114277146D01*
X152363000Y-114252115D01*
X152358525Y-114236876D01*
X152357135Y-114235671D01*
X152349452Y-114234000D01*
X151402115Y-114234000D01*
X151386876Y-114238475D01*
X151385671Y-114239865D01*
X151384000Y-114247548D01*
X151384000Y-114969884D01*
X150876000Y-114969884D01*
X150876000Y-114252115D01*
X150871525Y-114236876D01*
X150870135Y-114235671D01*
X150862452Y-114234000D01*
X149915116Y-114234000D01*
X149899877Y-114238475D01*
X149898672Y-114239865D01*
X149897001Y-114247548D01*
X149897001Y-114277095D01*
X136144000Y-114277095D01*
X136144000Y-114034183D01*
X138364389Y-114034183D01*
X138365912Y-114042607D01*
X138378292Y-114046000D01*
X141018344Y-114046000D01*
X141031875Y-114042027D01*
X141033180Y-114032947D01*
X140991214Y-113865875D01*
X140987894Y-113856124D01*
X140902972Y-113660814D01*
X140898105Y-113651739D01*
X140782426Y-113472926D01*
X140776136Y-113464757D01*
X140632806Y-113307240D01*
X140625273Y-113300215D01*
X140458139Y-113168222D01*
X140449552Y-113162517D01*
X140263117Y-113059599D01*
X140253705Y-113055369D01*
X140139391Y-113014888D01*
X140081855Y-112973294D01*
X140055939Y-112907196D01*
X140069873Y-112837580D01*
X140119232Y-112786549D01*
X140140943Y-112776804D01*
X140151165Y-112773334D01*
X140156994Y-112770070D01*
X140274816Y-112704086D01*
X140328276Y-112674147D01*
X140333288Y-112669979D01*
X140479913Y-112548031D01*
X140484345Y-112544345D01*
X140565437Y-112446843D01*
X140610453Y-112392718D01*
X140610455Y-112392715D01*
X140614147Y-112388276D01*
X140713334Y-112211165D01*
X140715190Y-112205698D01*
X140715192Y-112205693D01*
X140776728Y-112024414D01*
X140776729Y-112024409D01*
X140778584Y-112018945D01*
X140779412Y-112013236D01*
X140779413Y-112013231D01*
X140807179Y-111821727D01*
X140807712Y-111818053D01*
X140809232Y-111760000D01*
X140790658Y-111557859D01*
X140789090Y-111552299D01*
X140737125Y-111368046D01*
X140737124Y-111368044D01*
X140735557Y-111362487D01*
X140724978Y-111341033D01*
X140648331Y-111185609D01*
X140645776Y-111180428D01*
X140524320Y-111017779D01*
X140375258Y-110879987D01*
X140370375Y-110876906D01*
X140370371Y-110876903D01*
X140208464Y-110774748D01*
X140203581Y-110771667D01*
X140015039Y-110696446D01*
X140009379Y-110695320D01*
X140009375Y-110695319D01*
X139821613Y-110657971D01*
X139821610Y-110657971D01*
X139815946Y-110656844D01*
X139810171Y-110656768D01*
X139810167Y-110656768D01*
X139708793Y-110655441D01*
X139612971Y-110654187D01*
X139607274Y-110655166D01*
X139607273Y-110655166D01*
X139444254Y-110683178D01*
X139412910Y-110688564D01*
X139222463Y-110758824D01*
X139048010Y-110862612D01*
X139043670Y-110866418D01*
X139043666Y-110866421D01*
X139023723Y-110883911D01*
X138895392Y-110996455D01*
X138769720Y-111155869D01*
X138767031Y-111160980D01*
X138767029Y-111160983D01*
X138754073Y-111185609D01*
X138675203Y-111335515D01*
X138615007Y-111529378D01*
X138591148Y-111730964D01*
X138604424Y-111933522D01*
X138605845Y-111939118D01*
X138605846Y-111939123D01*
X138626119Y-112018945D01*
X138654392Y-112130269D01*
X138656809Y-112135512D01*
X138694010Y-112216208D01*
X138739377Y-112314616D01*
X138856533Y-112480389D01*
X139001938Y-112622035D01*
X139170720Y-112734812D01*
X139176023Y-112737090D01*
X139176026Y-112737092D01*
X139272954Y-112778735D01*
X139327647Y-112824003D01*
X139349184Y-112891654D01*
X139330727Y-112960210D01*
X139278136Y-113007904D01*
X139262361Y-113014268D01*
X139176868Y-113042212D01*
X139167359Y-113046209D01*
X138978463Y-113144542D01*
X138969738Y-113150036D01*
X138799433Y-113277905D01*
X138791726Y-113284748D01*
X138644590Y-113438717D01*
X138638104Y-113446727D01*
X138518098Y-113622649D01*
X138513000Y-113631623D01*
X138423338Y-113824783D01*
X138419775Y-113834470D01*
X138364389Y-114034183D01*
X136144000Y-114034183D01*
X136144000Y-91707966D01*
X138368257Y-91707966D01*
X138398565Y-91842446D01*
X138401645Y-91852275D01*
X138481770Y-92049603D01*
X138486413Y-92058794D01*
X138597694Y-92240388D01*
X138603777Y-92248699D01*
X138743213Y-92409667D01*
X138750580Y-92416883D01*
X138914434Y-92552916D01*
X138922881Y-92558831D01*
X139106756Y-92666279D01*
X139116042Y-92670729D01*
X139315001Y-92746703D01*
X139324899Y-92749579D01*
X139428250Y-92770606D01*
X139442299Y-92769410D01*
X139446000Y-92759065D01*
X139446000Y-92758517D01*
X139954000Y-92758517D01*
X139958064Y-92772359D01*
X139971478Y-92774393D01*
X139978184Y-92773534D01*
X139988262Y-92771392D01*
X140192255Y-92710191D01*
X140201842Y-92706433D01*
X140393095Y-92612739D01*
X140401945Y-92607464D01*
X140575328Y-92483792D01*
X140583200Y-92477139D01*
X140734052Y-92326812D01*
X140740730Y-92318965D01*
X140865003Y-92146020D01*
X140870313Y-92137183D01*
X140964670Y-91946267D01*
X140968469Y-91936672D01*
X141030377Y-91732910D01*
X141032555Y-91722837D01*
X141033986Y-91711962D01*
X141031775Y-91697778D01*
X141018617Y-91694000D01*
X139972115Y-91694000D01*
X139956876Y-91698475D01*
X139955671Y-91699865D01*
X139954000Y-91707548D01*
X139954000Y-92758517D01*
X139446000Y-92758517D01*
X139446000Y-91712115D01*
X139441525Y-91696876D01*
X139440135Y-91695671D01*
X139432452Y-91694000D01*
X138383225Y-91694000D01*
X138369694Y-91697973D01*
X138368257Y-91707966D01*
X136144000Y-91707966D01*
X136144000Y-88832483D01*
X137391562Y-88832483D01*
X137393254Y-88841747D01*
X137393254Y-88841750D01*
X137402198Y-88890725D01*
X137402847Y-88894627D01*
X137410253Y-88943881D01*
X137411654Y-88953196D01*
X137414807Y-88959763D01*
X137416116Y-88966928D01*
X137443431Y-89019512D01*
X137445174Y-89023002D01*
X137470815Y-89076398D01*
X137475710Y-89081693D01*
X137475803Y-89081832D01*
X137479117Y-89088211D01*
X137483463Y-89093299D01*
X137521045Y-89130881D01*
X137524475Y-89134446D01*
X137563586Y-89176757D01*
X137569986Y-89180475D01*
X137576246Y-89186082D01*
X138715959Y-90325795D01*
X138749985Y-90388107D01*
X138744920Y-90458922D01*
X138717958Y-90501941D01*
X138644591Y-90578716D01*
X138638104Y-90586727D01*
X138518098Y-90762649D01*
X138513000Y-90771623D01*
X138423338Y-90964783D01*
X138419775Y-90974470D01*
X138364389Y-91174183D01*
X138365912Y-91182607D01*
X138378292Y-91186000D01*
X141018344Y-91186000D01*
X141031875Y-91182027D01*
X141033180Y-91172947D01*
X140991214Y-91005875D01*
X140987894Y-90996124D01*
X140902940Y-90800742D01*
X140894120Y-90730296D01*
X140924787Y-90666264D01*
X140985203Y-90628976D01*
X141018490Y-90624500D01*
X141491550Y-90624500D01*
X141559671Y-90644502D01*
X141580645Y-90661405D01*
X146212251Y-95293011D01*
X146222106Y-95304100D01*
X146243359Y-95331059D01*
X146251106Y-95336413D01*
X146292094Y-95364742D01*
X146295287Y-95367024D01*
X146342924Y-95402209D01*
X146349797Y-95404623D01*
X146355789Y-95408764D01*
X146412270Y-95426626D01*
X146415999Y-95427871D01*
X146471874Y-95447493D01*
X146479078Y-95447776D01*
X146479249Y-95447809D01*
X146486097Y-95449975D01*
X146492768Y-95450500D01*
X146545938Y-95450500D01*
X146550884Y-95450597D01*
X146608437Y-95452858D01*
X146615592Y-95450961D01*
X146623970Y-95450500D01*
X158039394Y-95450500D01*
X158054204Y-95451373D01*
X158088288Y-95455407D01*
X158097552Y-95453715D01*
X158097555Y-95453715D01*
X158146530Y-95444771D01*
X158150432Y-95444122D01*
X158199686Y-95436716D01*
X158199689Y-95436715D01*
X158209001Y-95435315D01*
X158215568Y-95432162D01*
X158222733Y-95430853D01*
X158275317Y-95403538D01*
X158278807Y-95401795D01*
X158332203Y-95376154D01*
X158337498Y-95371259D01*
X158337637Y-95371166D01*
X158344016Y-95367852D01*
X158349104Y-95363506D01*
X158386686Y-95325924D01*
X158390252Y-95322494D01*
X158432562Y-95283383D01*
X158436280Y-95276983D01*
X158441887Y-95270723D01*
X160571011Y-93141599D01*
X160582100Y-93131744D01*
X160583444Y-93130685D01*
X160609059Y-93110491D01*
X160642742Y-93061756D01*
X160645024Y-93058563D01*
X160680209Y-93010926D01*
X160682623Y-93004053D01*
X160686764Y-92998061D01*
X160704629Y-92941572D01*
X160705880Y-92937823D01*
X160725493Y-92881976D01*
X160725776Y-92874772D01*
X160725809Y-92874601D01*
X160727975Y-92867753D01*
X160728500Y-92861082D01*
X160728500Y-92807912D01*
X160728597Y-92802966D01*
X160728666Y-92801211D01*
X160730858Y-92745413D01*
X160728961Y-92738258D01*
X160728500Y-92729883D01*
X160728500Y-84108457D01*
X160729373Y-84093648D01*
X160732300Y-84068916D01*
X160733407Y-84059563D01*
X160722771Y-84001324D01*
X160722121Y-83997420D01*
X160714715Y-83948158D01*
X160714714Y-83948155D01*
X160713315Y-83938849D01*
X160710162Y-83932282D01*
X160708853Y-83925117D01*
X160681554Y-83872564D01*
X160679785Y-83869023D01*
X160658233Y-83824140D01*
X160658231Y-83824137D01*
X160654154Y-83815647D01*
X160649264Y-83810357D01*
X160649159Y-83810202D01*
X160645852Y-83803835D01*
X160641506Y-83798746D01*
X160603924Y-83761164D01*
X160600494Y-83757598D01*
X160567774Y-83722202D01*
X160561383Y-83715288D01*
X160554983Y-83711570D01*
X160548723Y-83705963D01*
X158569161Y-81726401D01*
X158535135Y-81664089D01*
X158538943Y-81596804D01*
X158556729Y-81544410D01*
X158556729Y-81544409D01*
X158558584Y-81538945D01*
X158559412Y-81533236D01*
X158559413Y-81533231D01*
X158587179Y-81341727D01*
X158587712Y-81338053D01*
X158589232Y-81280000D01*
X158570658Y-81077859D01*
X158569090Y-81072299D01*
X158517125Y-80888046D01*
X158517124Y-80888044D01*
X158515557Y-80882487D01*
X158504978Y-80861033D01*
X158428331Y-80705609D01*
X158425776Y-80700428D01*
X158304320Y-80537779D01*
X158155258Y-80399987D01*
X158150375Y-80396906D01*
X158150371Y-80396903D01*
X157988464Y-80294748D01*
X157983581Y-80291667D01*
X157795039Y-80216446D01*
X157789379Y-80215320D01*
X157789375Y-80215319D01*
X157601613Y-80177971D01*
X157601610Y-80177971D01*
X157595946Y-80176844D01*
X157590171Y-80176768D01*
X157590167Y-80176768D01*
X157488793Y-80175441D01*
X157392971Y-80174187D01*
X157387274Y-80175166D01*
X157387273Y-80175166D01*
X157198607Y-80207585D01*
X157192910Y-80208564D01*
X157002463Y-80278824D01*
X156997502Y-80281776D01*
X156997501Y-80281776D01*
X156835505Y-80378153D01*
X156766734Y-80395793D01*
X156699344Y-80373452D01*
X156654731Y-80318224D01*
X156647058Y-80247644D01*
X156681987Y-80180773D01*
X157031493Y-79831267D01*
X157093805Y-79797241D01*
X157148396Y-79797469D01*
X157329579Y-79838467D01*
X157329584Y-79838468D01*
X157335216Y-79839742D01*
X157340987Y-79839969D01*
X157340989Y-79839969D01*
X157400756Y-79842317D01*
X157538053Y-79847712D01*
X157651472Y-79831267D01*
X157733231Y-79819413D01*
X157733236Y-79819412D01*
X157738945Y-79818584D01*
X157744409Y-79816729D01*
X157744414Y-79816728D01*
X157925693Y-79755192D01*
X157925698Y-79755190D01*
X157931165Y-79753334D01*
X158108276Y-79654147D01*
X158264345Y-79524345D01*
X158394147Y-79368276D01*
X158493334Y-79191165D01*
X158495190Y-79185698D01*
X158495192Y-79185693D01*
X158556728Y-79004414D01*
X158556729Y-79004409D01*
X158558584Y-78998945D01*
X158559412Y-78993236D01*
X158559413Y-78993231D01*
X158587179Y-78801727D01*
X158587712Y-78798053D01*
X158589232Y-78740000D01*
X158570658Y-78537859D01*
X158569090Y-78532299D01*
X158517125Y-78348046D01*
X158517124Y-78348044D01*
X158515557Y-78342487D01*
X158504978Y-78321033D01*
X158428331Y-78165609D01*
X158425776Y-78160428D01*
X158304320Y-77997779D01*
X158155258Y-77859987D01*
X158150375Y-77856906D01*
X158150371Y-77856903D01*
X157988464Y-77754748D01*
X157983581Y-77751667D01*
X157795039Y-77676446D01*
X157789379Y-77675320D01*
X157789375Y-77675319D01*
X157601613Y-77637971D01*
X157601610Y-77637971D01*
X157595946Y-77636844D01*
X157590171Y-77636768D01*
X157590167Y-77636768D01*
X157488793Y-77635441D01*
X157392971Y-77634187D01*
X157387274Y-77635166D01*
X157387273Y-77635166D01*
X157299397Y-77650266D01*
X157192910Y-77668564D01*
X157002463Y-77738824D01*
X156828010Y-77842612D01*
X156823670Y-77846418D01*
X156823666Y-77846421D01*
X156679733Y-77972648D01*
X156675392Y-77976455D01*
X156549720Y-78135869D01*
X156547031Y-78140980D01*
X156547029Y-78140983D01*
X156534073Y-78165609D01*
X156455203Y-78315515D01*
X156395007Y-78509378D01*
X156371148Y-78710964D01*
X156384424Y-78913522D01*
X156385845Y-78919118D01*
X156385846Y-78919123D01*
X156423353Y-79066804D01*
X156420735Y-79137753D01*
X156390325Y-79186915D01*
X156259595Y-79317645D01*
X156197283Y-79351671D01*
X156126468Y-79346606D01*
X156069632Y-79304059D01*
X156044821Y-79237539D01*
X156044500Y-79228550D01*
X156044499Y-77871123D01*
X156044499Y-77864934D01*
X156029734Y-77790699D01*
X156003654Y-77751667D01*
X155980377Y-77716832D01*
X155973484Y-77706516D01*
X155889301Y-77650266D01*
X155815067Y-77635500D01*
X154940142Y-77635500D01*
X154064934Y-77635501D01*
X154029182Y-77642612D01*
X154002874Y-77647844D01*
X154002872Y-77647845D01*
X153990699Y-77650266D01*
X153980379Y-77657161D01*
X153980378Y-77657162D01*
X153919985Y-77697516D01*
X153906516Y-77706516D01*
X153850266Y-77790699D01*
X153835500Y-77864933D01*
X153835500Y-78159500D01*
X153815498Y-78227621D01*
X153761842Y-78274114D01*
X153709500Y-78285500D01*
X151370450Y-78285500D01*
X151302329Y-78265498D01*
X151281355Y-78248595D01*
X146287405Y-73254645D01*
X146253379Y-73192333D01*
X146250500Y-73165550D01*
X146250500Y-62010456D01*
X146251373Y-61995647D01*
X146254300Y-61970915D01*
X146255407Y-61961562D01*
X146253715Y-61952295D01*
X146244771Y-61903320D01*
X146244122Y-61899418D01*
X146236716Y-61850164D01*
X146236715Y-61850161D01*
X146235315Y-61840849D01*
X146232162Y-61834282D01*
X146230853Y-61827117D01*
X146203538Y-61774533D01*
X146201788Y-61771030D01*
X146180232Y-61726140D01*
X146176154Y-61717647D01*
X146171259Y-61712352D01*
X146171166Y-61712213D01*
X146167852Y-61705834D01*
X146163506Y-61700746D01*
X146125924Y-61663164D01*
X146122494Y-61659598D01*
X146089774Y-61624202D01*
X146083383Y-61617288D01*
X146076983Y-61613570D01*
X146070723Y-61607963D01*
X140841405Y-56378645D01*
X140807379Y-56316333D01*
X140804500Y-56289550D01*
X140804499Y-55011123D01*
X140804499Y-55004934D01*
X140789734Y-54930699D01*
X140733484Y-54846516D01*
X140649301Y-54790266D01*
X140575067Y-54775500D01*
X139700142Y-54775500D01*
X138824934Y-54775501D01*
X138789182Y-54782612D01*
X138762874Y-54787844D01*
X138762872Y-54787845D01*
X138750699Y-54790266D01*
X138740379Y-54797161D01*
X138740378Y-54797162D01*
X138679985Y-54837516D01*
X138666516Y-54846516D01*
X138610266Y-54930699D01*
X138595500Y-55004933D01*
X138595501Y-56755066D01*
X138610266Y-56829301D01*
X138666516Y-56913484D01*
X138750699Y-56969734D01*
X138824933Y-56984500D01*
X138966612Y-56984500D01*
X140109549Y-56984499D01*
X140177670Y-57004501D01*
X140198644Y-57021404D01*
X140504442Y-57327202D01*
X140538468Y-57389514D01*
X140533403Y-57460329D01*
X140490856Y-57517165D01*
X140424336Y-57541976D01*
X140354962Y-57526885D01*
X140348112Y-57522859D01*
X140208464Y-57434748D01*
X140203581Y-57431667D01*
X140015039Y-57356446D01*
X140009379Y-57355320D01*
X140009375Y-57355319D01*
X139821613Y-57317971D01*
X139821610Y-57317971D01*
X139815946Y-57316844D01*
X139810171Y-57316768D01*
X139810167Y-57316768D01*
X139708793Y-57315441D01*
X139612971Y-57314187D01*
X139607274Y-57315166D01*
X139607273Y-57315166D01*
X139418607Y-57347585D01*
X139412910Y-57348564D01*
X139222463Y-57418824D01*
X139048010Y-57522612D01*
X139043670Y-57526418D01*
X139043666Y-57526421D01*
X138918721Y-57635996D01*
X138895392Y-57656455D01*
X138769720Y-57815869D01*
X138767031Y-57820980D01*
X138767029Y-57820983D01*
X138754073Y-57845609D01*
X138675203Y-57995515D01*
X138615007Y-58189378D01*
X138591148Y-58390964D01*
X138604424Y-58593522D01*
X138605845Y-58599118D01*
X138605846Y-58599123D01*
X138626119Y-58678945D01*
X138654392Y-58790269D01*
X138739377Y-58974616D01*
X138856533Y-59140389D01*
X139001938Y-59282035D01*
X139170720Y-59394812D01*
X139176023Y-59397090D01*
X139176026Y-59397092D01*
X139351921Y-59472662D01*
X139357228Y-59474942D01*
X139430244Y-59491464D01*
X139549579Y-59518467D01*
X139549584Y-59518468D01*
X139555216Y-59519742D01*
X139560987Y-59519969D01*
X139560989Y-59519969D01*
X139620756Y-59522317D01*
X139758053Y-59527712D01*
X139858499Y-59513148D01*
X139953231Y-59499413D01*
X139953236Y-59499412D01*
X139958945Y-59498584D01*
X140016806Y-59478943D01*
X140087739Y-59475987D01*
X140146401Y-59509161D01*
X140504442Y-59867202D01*
X140538468Y-59929514D01*
X140533403Y-60000329D01*
X140490856Y-60057165D01*
X140424336Y-60081976D01*
X140354962Y-60066885D01*
X140348112Y-60062859D01*
X140208464Y-59974748D01*
X140203581Y-59971667D01*
X140015039Y-59896446D01*
X140009379Y-59895320D01*
X140009375Y-59895319D01*
X139821613Y-59857971D01*
X139821610Y-59857971D01*
X139815946Y-59856844D01*
X139810171Y-59856768D01*
X139810167Y-59856768D01*
X139708793Y-59855441D01*
X139612971Y-59854187D01*
X139607274Y-59855166D01*
X139607273Y-59855166D01*
X139418607Y-59887585D01*
X139412910Y-59888564D01*
X139222463Y-59958824D01*
X139048010Y-60062612D01*
X139043670Y-60066418D01*
X139043666Y-60066421D01*
X138918721Y-60175996D01*
X138895392Y-60196455D01*
X138769720Y-60355869D01*
X138767031Y-60360980D01*
X138767029Y-60360983D01*
X138754073Y-60385609D01*
X138675203Y-60535515D01*
X138615007Y-60729378D01*
X138591148Y-60930964D01*
X138604424Y-61133522D01*
X138605845Y-61139118D01*
X138605846Y-61139123D01*
X138626119Y-61218945D01*
X138654392Y-61330269D01*
X138739377Y-61514616D01*
X138742710Y-61519332D01*
X138844360Y-61663164D01*
X138856533Y-61680389D01*
X139001938Y-61822035D01*
X139170720Y-61934812D01*
X139176023Y-61937090D01*
X139176026Y-61937092D01*
X139351921Y-62012662D01*
X139357228Y-62014942D01*
X139430244Y-62031464D01*
X139549579Y-62058467D01*
X139549584Y-62058468D01*
X139555216Y-62059742D01*
X139560987Y-62059969D01*
X139560989Y-62059969D01*
X139620756Y-62062317D01*
X139758053Y-62067712D01*
X139858499Y-62053148D01*
X139953231Y-62039413D01*
X139953236Y-62039412D01*
X139958945Y-62038584D01*
X140016806Y-62018943D01*
X140087739Y-62015987D01*
X140146401Y-62049161D01*
X140504442Y-62407202D01*
X140538468Y-62469514D01*
X140533403Y-62540329D01*
X140490856Y-62597165D01*
X140424336Y-62621976D01*
X140354962Y-62606885D01*
X140348112Y-62602859D01*
X140208464Y-62514748D01*
X140203581Y-62511667D01*
X140015039Y-62436446D01*
X140009379Y-62435320D01*
X140009375Y-62435319D01*
X139821613Y-62397971D01*
X139821610Y-62397971D01*
X139815946Y-62396844D01*
X139810171Y-62396768D01*
X139810167Y-62396768D01*
X139708793Y-62395441D01*
X139612971Y-62394187D01*
X139607274Y-62395166D01*
X139607273Y-62395166D01*
X139418607Y-62427585D01*
X139412910Y-62428564D01*
X139222463Y-62498824D01*
X139048010Y-62602612D01*
X139043670Y-62606418D01*
X139043666Y-62606421D01*
X138918721Y-62715996D01*
X138895392Y-62736455D01*
X138769720Y-62895869D01*
X138767031Y-62900980D01*
X138767029Y-62900983D01*
X138754073Y-62925609D01*
X138675203Y-63075515D01*
X138615007Y-63269378D01*
X138591148Y-63470964D01*
X138604424Y-63673522D01*
X138605845Y-63679118D01*
X138605846Y-63679123D01*
X138626119Y-63758945D01*
X138654392Y-63870269D01*
X138739377Y-64054616D01*
X138856533Y-64220389D01*
X139001938Y-64362035D01*
X139170720Y-64474812D01*
X139176023Y-64477090D01*
X139176026Y-64477092D01*
X139351921Y-64552662D01*
X139357228Y-64554942D01*
X139430244Y-64571464D01*
X139549579Y-64598467D01*
X139549584Y-64598468D01*
X139555216Y-64599742D01*
X139560987Y-64599969D01*
X139560989Y-64599969D01*
X139620756Y-64602317D01*
X139758053Y-64607712D01*
X139858499Y-64593148D01*
X139953231Y-64579413D01*
X139953236Y-64579412D01*
X139958945Y-64578584D01*
X140016806Y-64558943D01*
X140087739Y-64555987D01*
X140146401Y-64589161D01*
X140504442Y-64947202D01*
X140538468Y-65009514D01*
X140533403Y-65080329D01*
X140490856Y-65137165D01*
X140424336Y-65161976D01*
X140354962Y-65146885D01*
X140348112Y-65142859D01*
X140208464Y-65054748D01*
X140203581Y-65051667D01*
X140015039Y-64976446D01*
X140009379Y-64975320D01*
X140009375Y-64975319D01*
X139821613Y-64937971D01*
X139821610Y-64937971D01*
X139815946Y-64936844D01*
X139810171Y-64936768D01*
X139810167Y-64936768D01*
X139708793Y-64935441D01*
X139612971Y-64934187D01*
X139607274Y-64935166D01*
X139607273Y-64935166D01*
X139524623Y-64949368D01*
X139412910Y-64968564D01*
X139222463Y-65038824D01*
X139048010Y-65142612D01*
X139043670Y-65146418D01*
X139043666Y-65146421D01*
X138939621Y-65237667D01*
X138895392Y-65276455D01*
X138769720Y-65435869D01*
X138767031Y-65440980D01*
X138767029Y-65440983D01*
X138754073Y-65465609D01*
X138675203Y-65615515D01*
X138615007Y-65809378D01*
X138591148Y-66010964D01*
X138604424Y-66213522D01*
X138605845Y-66219118D01*
X138605846Y-66219123D01*
X138641726Y-66360397D01*
X138654392Y-66410269D01*
X138656809Y-66415512D01*
X138694010Y-66496208D01*
X138739377Y-66594616D01*
X138856533Y-66760389D01*
X139001938Y-66902035D01*
X139170720Y-67014812D01*
X139176023Y-67017090D01*
X139176026Y-67017092D01*
X139272954Y-67058735D01*
X139327647Y-67104003D01*
X139349184Y-67171654D01*
X139330727Y-67240210D01*
X139278136Y-67287904D01*
X139262361Y-67294268D01*
X139176868Y-67322212D01*
X139167359Y-67326209D01*
X138978463Y-67424542D01*
X138969738Y-67430036D01*
X138799433Y-67557905D01*
X138791726Y-67564748D01*
X138644590Y-67718717D01*
X138638104Y-67726727D01*
X138518098Y-67902649D01*
X138513000Y-67911623D01*
X138423338Y-68104783D01*
X138419775Y-68114470D01*
X138364389Y-68314183D01*
X138365912Y-68322607D01*
X138378292Y-68326000D01*
X141018344Y-68326000D01*
X141031875Y-68322027D01*
X141033180Y-68312947D01*
X140991214Y-68145875D01*
X140987894Y-68136124D01*
X140902972Y-67940814D01*
X140898105Y-67931739D01*
X140782426Y-67752926D01*
X140776136Y-67744757D01*
X140632806Y-67587240D01*
X140625273Y-67580215D01*
X140458139Y-67448222D01*
X140449552Y-67442517D01*
X140263117Y-67339599D01*
X140253705Y-67335369D01*
X140139391Y-67294888D01*
X140081855Y-67253294D01*
X140055939Y-67187196D01*
X140069873Y-67117580D01*
X140119232Y-67066549D01*
X140140943Y-67056804D01*
X140151165Y-67053334D01*
X140328276Y-66954147D01*
X140390934Y-66902035D01*
X140479913Y-66828031D01*
X140484345Y-66824345D01*
X140614147Y-66668276D01*
X140713334Y-66491165D01*
X140715190Y-66485698D01*
X140715192Y-66485693D01*
X140776728Y-66304414D01*
X140776729Y-66304409D01*
X140778584Y-66298945D01*
X140779412Y-66293236D01*
X140779413Y-66293231D01*
X140807179Y-66101727D01*
X140807712Y-66098053D01*
X140809232Y-66040000D01*
X140790658Y-65837859D01*
X140789090Y-65832299D01*
X140737125Y-65648046D01*
X140737124Y-65648044D01*
X140735557Y-65642487D01*
X140724978Y-65621033D01*
X140648331Y-65465609D01*
X140645776Y-65460428D01*
X140594605Y-65391902D01*
X140569873Y-65325352D01*
X140585047Y-65255996D01*
X140635309Y-65205854D01*
X140704701Y-65190845D01*
X140771192Y-65215735D01*
X140784658Y-65227418D01*
X142383595Y-66826355D01*
X142417621Y-66888667D01*
X142420500Y-66915450D01*
X142420500Y-74260544D01*
X142419627Y-74275353D01*
X142415593Y-74309438D01*
X142417285Y-74318702D01*
X142417285Y-74318705D01*
X142426229Y-74367680D01*
X142426878Y-74371582D01*
X142434284Y-74420836D01*
X142435685Y-74430151D01*
X142438838Y-74436718D01*
X142440147Y-74443883D01*
X142467462Y-74496467D01*
X142469205Y-74499957D01*
X142494846Y-74553353D01*
X142499741Y-74558648D01*
X142499834Y-74558787D01*
X142503148Y-74565166D01*
X142507494Y-74570254D01*
X142545076Y-74607836D01*
X142548506Y-74611401D01*
X142587617Y-74653712D01*
X142594017Y-74657430D01*
X142600277Y-74663037D01*
X153851346Y-85914106D01*
X153885372Y-85976418D01*
X153882584Y-86040564D01*
X153855007Y-86129378D01*
X153831148Y-86330964D01*
X153844424Y-86533522D01*
X153845845Y-86539118D01*
X153845846Y-86539123D01*
X153866119Y-86618945D01*
X153894392Y-86730269D01*
X153979377Y-86914616D01*
X154096533Y-87080389D01*
X154241938Y-87222035D01*
X154246742Y-87225245D01*
X154300014Y-87260840D01*
X154410720Y-87334812D01*
X154416023Y-87337090D01*
X154416026Y-87337092D01*
X154552550Y-87395747D01*
X154597228Y-87414942D01*
X154670244Y-87431464D01*
X154789579Y-87458467D01*
X154789584Y-87458468D01*
X154795216Y-87459742D01*
X154800987Y-87459969D01*
X154800989Y-87459969D01*
X154860756Y-87462317D01*
X154998053Y-87467712D01*
X155098499Y-87453148D01*
X155193231Y-87439413D01*
X155193236Y-87439412D01*
X155198945Y-87438584D01*
X155204409Y-87436729D01*
X155204414Y-87436728D01*
X155385693Y-87375192D01*
X155385698Y-87375190D01*
X155391165Y-87373334D01*
X155547445Y-87285813D01*
X155616653Y-87269979D01*
X155683435Y-87294076D01*
X155726588Y-87350453D01*
X155735011Y-87395747D01*
X155735011Y-87867061D01*
X155715009Y-87935182D01*
X155661353Y-87981675D01*
X155591079Y-87991779D01*
X155541776Y-87973623D01*
X155448465Y-87914748D01*
X155448460Y-87914746D01*
X155443581Y-87911667D01*
X155255039Y-87836446D01*
X155249379Y-87835320D01*
X155249375Y-87835319D01*
X155061613Y-87797971D01*
X155061610Y-87797971D01*
X155055946Y-87796844D01*
X155050171Y-87796768D01*
X155050167Y-87796768D01*
X154948793Y-87795441D01*
X154852971Y-87794187D01*
X154847274Y-87795166D01*
X154847273Y-87795166D01*
X154684254Y-87823178D01*
X154652910Y-87828564D01*
X154462463Y-87898824D01*
X154288010Y-88002612D01*
X154283670Y-88006418D01*
X154283666Y-88006421D01*
X154241824Y-88043116D01*
X154135392Y-88136455D01*
X154009720Y-88295869D01*
X153915203Y-88475515D01*
X153889411Y-88558578D01*
X153856718Y-88663866D01*
X153856717Y-88663871D01*
X153855909Y-88666473D01*
X153855908Y-88666475D01*
X153855068Y-88669180D01*
X153855007Y-88669378D01*
X153854437Y-88669201D01*
X153822604Y-88728168D01*
X153760455Y-88762491D01*
X153733083Y-88765500D01*
X152145274Y-88765500D01*
X152077153Y-88745498D01*
X152044448Y-88715065D01*
X152010060Y-88669180D01*
X151965404Y-88609596D01*
X151922705Y-88577595D01*
X151856946Y-88528311D01*
X151856943Y-88528309D01*
X151849764Y-88522929D01*
X151723286Y-88475515D01*
X151721843Y-88474974D01*
X151721841Y-88474974D01*
X151714448Y-88472202D01*
X151706598Y-88471349D01*
X151706597Y-88471349D01*
X151656153Y-88465869D01*
X151656152Y-88465869D01*
X151652756Y-88465500D01*
X150607244Y-88465500D01*
X150603848Y-88465869D01*
X150603847Y-88465869D01*
X150553403Y-88471349D01*
X150553402Y-88471349D01*
X150545552Y-88472202D01*
X150538159Y-88474974D01*
X150538157Y-88474974D01*
X150536714Y-88475515D01*
X150410236Y-88522929D01*
X150403057Y-88528309D01*
X150403054Y-88528311D01*
X150337295Y-88577595D01*
X150294596Y-88609596D01*
X150289215Y-88616776D01*
X150213311Y-88718054D01*
X150213309Y-88718057D01*
X150207929Y-88725236D01*
X150157202Y-88860552D01*
X150156349Y-88868402D01*
X150156349Y-88868403D01*
X150150869Y-88918847D01*
X150150500Y-88922244D01*
X150150500Y-89517756D01*
X150157202Y-89579448D01*
X150207929Y-89714764D01*
X150213309Y-89721943D01*
X150213311Y-89721946D01*
X150243356Y-89762035D01*
X150294596Y-89830404D01*
X150410236Y-89917071D01*
X150418645Y-89920223D01*
X150425874Y-89924181D01*
X150476021Y-89974438D01*
X150491036Y-90043829D01*
X150466152Y-90110322D01*
X150405243Y-90154226D01*
X150338216Y-90176588D01*
X150325038Y-90182761D01*
X150187193Y-90268063D01*
X150175792Y-90277099D01*
X150061261Y-90391829D01*
X150052249Y-90403240D01*
X149967184Y-90541243D01*
X149961037Y-90554424D01*
X149909862Y-90708710D01*
X149906995Y-90722086D01*
X149897328Y-90816438D01*
X149897000Y-90822855D01*
X149897000Y-90847885D01*
X149901475Y-90863124D01*
X149902865Y-90864329D01*
X149910548Y-90866000D01*
X152344884Y-90866000D01*
X152360123Y-90861525D01*
X152361328Y-90860135D01*
X152362999Y-90852452D01*
X152362999Y-90822905D01*
X152362662Y-90816386D01*
X152352743Y-90720794D01*
X152349851Y-90707400D01*
X152298412Y-90553216D01*
X152292239Y-90540038D01*
X152206937Y-90402193D01*
X152197901Y-90390792D01*
X152083171Y-90276261D01*
X152071760Y-90267249D01*
X151933757Y-90182184D01*
X151920574Y-90176036D01*
X151854990Y-90154283D01*
X151796630Y-90113853D01*
X151769393Y-90048288D01*
X151781926Y-89978407D01*
X151834147Y-89924170D01*
X151841357Y-89920223D01*
X151849764Y-89917071D01*
X151858519Y-89910510D01*
X151958224Y-89835785D01*
X151965404Y-89830404D01*
X152044449Y-89724935D01*
X152101307Y-89682420D01*
X152145274Y-89674500D01*
X154100854Y-89674500D01*
X154168975Y-89694502D01*
X154188769Y-89710240D01*
X154241938Y-89762035D01*
X154246742Y-89765245D01*
X154300014Y-89800840D01*
X154410720Y-89874812D01*
X154416023Y-89877090D01*
X154416026Y-89877092D01*
X154512954Y-89918735D01*
X154567647Y-89964003D01*
X154589184Y-90031654D01*
X154570727Y-90100210D01*
X154518136Y-90147904D01*
X154502361Y-90154268D01*
X154416868Y-90182212D01*
X154407359Y-90186209D01*
X154218463Y-90284542D01*
X154209738Y-90290036D01*
X154039433Y-90417905D01*
X154031726Y-90424748D01*
X153884590Y-90578717D01*
X153878104Y-90586727D01*
X153758098Y-90762649D01*
X153753000Y-90771623D01*
X153663338Y-90964783D01*
X153659775Y-90974470D01*
X153604389Y-91174183D01*
X153605912Y-91182607D01*
X153618292Y-91186000D01*
X155609011Y-91186000D01*
X155677132Y-91206002D01*
X155723625Y-91259658D01*
X155735011Y-91312000D01*
X155735011Y-91568000D01*
X155715009Y-91636121D01*
X155661353Y-91682614D01*
X155609011Y-91694000D01*
X153623225Y-91694000D01*
X153609694Y-91697973D01*
X153608257Y-91707966D01*
X153638565Y-91842446D01*
X153641645Y-91852275D01*
X153721769Y-92049600D01*
X153723080Y-92052195D01*
X153723294Y-92053355D01*
X153723714Y-92054390D01*
X153723500Y-92054477D01*
X153735944Y-92122017D01*
X153709017Y-92187709D01*
X153650849Y-92228415D01*
X153610617Y-92235011D01*
X152090744Y-92235011D01*
X152022623Y-92215009D01*
X151976130Y-92161353D01*
X151966026Y-92091079D01*
X151995520Y-92026499D01*
X152024441Y-92001867D01*
X152072807Y-91971937D01*
X152084208Y-91962901D01*
X152198739Y-91848171D01*
X152207751Y-91836760D01*
X152292816Y-91698757D01*
X152298963Y-91685576D01*
X152350138Y-91531290D01*
X152353005Y-91517914D01*
X152362672Y-91423562D01*
X152363000Y-91417146D01*
X152363000Y-91392115D01*
X152358525Y-91376876D01*
X152357135Y-91375671D01*
X152349452Y-91374000D01*
X149915116Y-91374000D01*
X149899877Y-91378475D01*
X149898672Y-91379865D01*
X149897001Y-91387548D01*
X149897001Y-91417095D01*
X149897338Y-91423614D01*
X149907257Y-91519206D01*
X149910149Y-91532600D01*
X149961588Y-91686784D01*
X149967761Y-91699962D01*
X150053063Y-91837807D01*
X150062099Y-91849208D01*
X150176829Y-91963739D01*
X150188240Y-91972751D01*
X150235287Y-92001751D01*
X150282780Y-92054523D01*
X150294204Y-92124595D01*
X150265930Y-92189719D01*
X150206936Y-92229218D01*
X150169171Y-92235011D01*
X147539961Y-92235011D01*
X147471840Y-92215009D01*
X147450866Y-92198106D01*
X141715405Y-86462645D01*
X141681379Y-86400333D01*
X141678500Y-86373550D01*
X141678500Y-80298456D01*
X141679373Y-80283647D01*
X141682300Y-80258915D01*
X141683407Y-80249562D01*
X141672768Y-80191307D01*
X141672118Y-80187404D01*
X141664715Y-80138161D01*
X141663315Y-80128849D01*
X141660162Y-80122283D01*
X141658853Y-80115116D01*
X141631560Y-80062574D01*
X141629792Y-80059037D01*
X141610291Y-80018427D01*
X141604154Y-80005647D01*
X141599258Y-80000351D01*
X141599166Y-80000215D01*
X141595852Y-79993834D01*
X141591506Y-79988746D01*
X141553924Y-79951164D01*
X141550494Y-79947598D01*
X141517774Y-79912202D01*
X141511383Y-79905288D01*
X141504983Y-79901570D01*
X141498723Y-79895963D01*
X140841405Y-79238645D01*
X140807379Y-79176333D01*
X140804500Y-79149550D01*
X140804499Y-77871123D01*
X140804499Y-77864934D01*
X140789734Y-77790699D01*
X140763654Y-77751667D01*
X140740377Y-77716832D01*
X140733484Y-77706516D01*
X140649301Y-77650266D01*
X140575067Y-77635500D01*
X139700142Y-77635500D01*
X138824934Y-77635501D01*
X138789182Y-77642612D01*
X138762874Y-77647844D01*
X138762872Y-77647845D01*
X138750699Y-77650266D01*
X138740379Y-77657161D01*
X138740378Y-77657162D01*
X138679985Y-77697516D01*
X138666516Y-77706516D01*
X138610266Y-77790699D01*
X138595500Y-77864933D01*
X138595501Y-79615066D01*
X138610266Y-79689301D01*
X138617161Y-79699621D01*
X138617162Y-79699622D01*
X138657516Y-79760015D01*
X138666516Y-79773484D01*
X138750699Y-79829734D01*
X138824933Y-79844500D01*
X138966612Y-79844500D01*
X140109549Y-79844499D01*
X140177670Y-79864501D01*
X140198644Y-79881404D01*
X140504442Y-80187202D01*
X140538468Y-80249514D01*
X140533403Y-80320329D01*
X140490856Y-80377165D01*
X140424336Y-80401976D01*
X140354962Y-80386885D01*
X140348112Y-80382859D01*
X140208464Y-80294748D01*
X140203581Y-80291667D01*
X140015039Y-80216446D01*
X140009379Y-80215320D01*
X140009375Y-80215319D01*
X139821613Y-80177971D01*
X139821610Y-80177971D01*
X139815946Y-80176844D01*
X139810171Y-80176768D01*
X139810167Y-80176768D01*
X139708793Y-80175441D01*
X139612971Y-80174187D01*
X139607274Y-80175166D01*
X139607273Y-80175166D01*
X139418607Y-80207585D01*
X139412910Y-80208564D01*
X139222463Y-80278824D01*
X139048010Y-80382612D01*
X139043670Y-80386418D01*
X139043666Y-80386421D01*
X139023723Y-80403911D01*
X138895392Y-80516455D01*
X138769720Y-80675869D01*
X138767031Y-80680980D01*
X138767029Y-80680983D01*
X138754073Y-80705609D01*
X138675203Y-80855515D01*
X138615007Y-81049378D01*
X138591148Y-81250964D01*
X138604424Y-81453522D01*
X138605845Y-81459118D01*
X138605846Y-81459123D01*
X138643353Y-81606804D01*
X138640735Y-81677753D01*
X138610325Y-81726915D01*
X137553958Y-82783282D01*
X137542869Y-82793137D01*
X137515910Y-82814390D01*
X137510556Y-82822137D01*
X137482227Y-82863125D01*
X137479945Y-82866318D01*
X137444760Y-82913955D01*
X137442346Y-82920828D01*
X137438205Y-82926820D01*
X137435365Y-82935801D01*
X137420343Y-82983301D01*
X137419098Y-82987030D01*
X137399476Y-83042905D01*
X137399193Y-83050109D01*
X137399160Y-83050280D01*
X137396994Y-83057128D01*
X137396469Y-83063799D01*
X137396469Y-83116969D01*
X137396372Y-83121915D01*
X137394111Y-83179468D01*
X137396008Y-83186623D01*
X137396469Y-83194998D01*
X137396469Y-88783589D01*
X137395596Y-88798398D01*
X137391562Y-88832483D01*
X136144000Y-88832483D01*
X136144000Y-68847966D01*
X138368257Y-68847966D01*
X138398565Y-68982446D01*
X138401645Y-68992275D01*
X138481770Y-69189603D01*
X138486413Y-69198794D01*
X138597694Y-69380388D01*
X138603777Y-69388699D01*
X138743213Y-69549667D01*
X138750580Y-69556883D01*
X138914434Y-69692916D01*
X138922881Y-69698831D01*
X139106756Y-69806279D01*
X139116042Y-69810729D01*
X139315001Y-69886703D01*
X139324899Y-69889579D01*
X139428250Y-69910606D01*
X139442299Y-69909410D01*
X139446000Y-69899065D01*
X139446000Y-69898517D01*
X139954000Y-69898517D01*
X139958064Y-69912359D01*
X139971478Y-69914393D01*
X139978184Y-69913534D01*
X139988262Y-69911392D01*
X140192255Y-69850191D01*
X140201842Y-69846433D01*
X140393095Y-69752739D01*
X140401945Y-69747464D01*
X140575328Y-69623792D01*
X140583200Y-69617139D01*
X140734052Y-69466812D01*
X140740730Y-69458965D01*
X140865003Y-69286020D01*
X140870313Y-69277183D01*
X140964670Y-69086267D01*
X140968469Y-69076672D01*
X141030377Y-68872910D01*
X141032555Y-68862837D01*
X141033986Y-68851962D01*
X141031775Y-68837778D01*
X141018617Y-68834000D01*
X139972115Y-68834000D01*
X139956876Y-68838475D01*
X139955671Y-68839865D01*
X139954000Y-68847548D01*
X139954000Y-69898517D01*
X139446000Y-69898517D01*
X139446000Y-68852115D01*
X139441525Y-68836876D01*
X139440135Y-68835671D01*
X139432452Y-68834000D01*
X138383225Y-68834000D01*
X138369694Y-68837973D01*
X138368257Y-68847966D01*
X136144000Y-68847966D01*
X136144000Y-53974000D01*
X136164002Y-53905879D01*
X136217658Y-53859386D01*
X136270000Y-53848000D01*
X166752000Y-53848000D01*
X166820121Y-53868002D01*
G37*
%TD.AperFunction*%
%TA.AperFunction,Conductor*%
G36*
X157676121Y-114066002D02*
G01*
X157722614Y-114119658D01*
X157734000Y-114172000D01*
X157734000Y-114428000D01*
X157713998Y-114496121D01*
X157660342Y-114542614D01*
X157608000Y-114554000D01*
X156810989Y-114554000D01*
X156742868Y-114533998D01*
X156696375Y-114480342D01*
X156684989Y-114428000D01*
X156684989Y-114172000D01*
X156704991Y-114103879D01*
X156758647Y-114057386D01*
X156810989Y-114046000D01*
X157608000Y-114046000D01*
X157676121Y-114066002D01*
G37*
%TD.AperFunction*%
%TA.AperFunction,Conductor*%
G36*
X157676121Y-91206002D02*
G01*
X157722614Y-91259658D01*
X157734000Y-91312000D01*
X157734000Y-91568000D01*
X157713998Y-91636121D01*
X157660342Y-91682614D01*
X157608000Y-91694000D01*
X156770011Y-91694000D01*
X156701890Y-91673998D01*
X156655397Y-91620342D01*
X156644011Y-91568000D01*
X156644011Y-91312000D01*
X156664013Y-91243879D01*
X156717669Y-91197386D01*
X156770011Y-91186000D01*
X157608000Y-91186000D01*
X157676121Y-91206002D01*
G37*
%TD.AperFunction*%
%TD*%
M02*
