%TF.GenerationSoftware,KiCad,Pcbnew,(6.0.5)*%
%TF.CreationDate,2024-12-30T18:06:44+01:00*%
%TF.ProjectId,basys_pmod_converter,62617379-735f-4706-9d6f-645f636f6e76,rev?*%
%TF.SameCoordinates,Original*%
%TF.FileFunction,Copper,L2,Bot*%
%TF.FilePolarity,Positive*%
%FSLAX46Y46*%
G04 Gerber Fmt 4.6, Leading zero omitted, Abs format (unit mm)*
G04 Created by KiCad (PCBNEW (6.0.5)) date 2024-12-30 18:06:44*
%MOMM*%
%LPD*%
G01*
G04 APERTURE LIST*
%TA.AperFunction,ComponentPad*%
%ADD10R,1.700000X1.700000*%
%TD*%
%TA.AperFunction,ComponentPad*%
%ADD11O,1.700000X1.700000*%
%TD*%
%TA.AperFunction,ViaPad*%
%ADD12C,0.800000*%
%TD*%
%TA.AperFunction,Conductor*%
%ADD13C,0.600000*%
%TD*%
G04 APERTURE END LIST*
D10*
%TO.P,J1,1,IOA0*%
%TO.N,/JA1*%
X154940000Y-78740000D03*
D11*
%TO.P,J1,2,IOA1*%
%TO.N,/JA2*%
X154940000Y-81280000D03*
%TO.P,J1,3,IOA2*%
%TO.N,/JA3*%
X154940000Y-83820000D03*
%TO.P,J1,4,IOA3*%
%TO.N,/JA4*%
X154940000Y-86360000D03*
%TO.P,J1,5,GND*%
%TO.N,GND*%
X154940000Y-88900000D03*
%TO.P,J1,6,VCC*%
%TO.N,+3V3*%
X154940000Y-91440000D03*
%TO.P,J1,7,IOB0*%
%TO.N,/JB1*%
X157480000Y-78740000D03*
%TO.P,J1,8,IOB1*%
%TO.N,/JB2*%
X157480000Y-81280000D03*
%TO.P,J1,9,IOB2*%
%TO.N,/JB3*%
X157480000Y-83820000D03*
%TO.P,J1,10,IOB3*%
%TO.N,/JB4*%
X157480000Y-86360000D03*
%TO.P,J1,11,GND*%
%TO.N,GND*%
X157480000Y-88900000D03*
%TO.P,J1,12,VCC*%
%TO.N,+3V3*%
X157480000Y-91440000D03*
%TD*%
D10*
%TO.P,PMOD4,1,IO0*%
%TO.N,/JD1*%
X139700000Y-124460000D03*
D11*
%TO.P,PMOD4,2,IO1*%
%TO.N,/JD2*%
X139700000Y-127000000D03*
%TO.P,PMOD4,3,IO2*%
%TO.N,/JD3*%
X139700000Y-129540000D03*
%TO.P,PMOD4,4,IO3*%
%TO.N,/JD4*%
X139700000Y-132080000D03*
%TO.P,PMOD4,5,GND*%
%TO.N,GND*%
X139700000Y-134620000D03*
%TO.P,PMOD4,6,VCC*%
%TO.N,+3V3*%
X139700000Y-137160000D03*
%TD*%
D10*
%TO.P,PMOD2,1,IO0*%
%TO.N,/JB1*%
X139700000Y-78740000D03*
D11*
%TO.P,PMOD2,2,IO1*%
%TO.N,/JB2*%
X139700000Y-81280000D03*
%TO.P,PMOD2,3,IO2*%
%TO.N,/JB3*%
X139700000Y-83820000D03*
%TO.P,PMOD2,4,IO3*%
%TO.N,/JB4*%
X139700000Y-86360000D03*
%TO.P,PMOD2,5,GND*%
%TO.N,GND*%
X139700000Y-88900000D03*
%TO.P,PMOD2,6,VCC*%
%TO.N,+3V3*%
X139700000Y-91440000D03*
%TD*%
D10*
%TO.P,PMOD1,1,IO0*%
%TO.N,/JA1*%
X139700000Y-55880000D03*
D11*
%TO.P,PMOD1,2,IO1*%
%TO.N,/JA2*%
X139700000Y-58420000D03*
%TO.P,PMOD1,3,IO2*%
%TO.N,/JA3*%
X139700000Y-60960000D03*
%TO.P,PMOD1,4,IO3*%
%TO.N,/JA4*%
X139700000Y-63500000D03*
%TO.P,PMOD1,5,GND*%
%TO.N,GND*%
X139700000Y-66040000D03*
%TO.P,PMOD1,6,VCC*%
%TO.N,+3V3*%
X139700000Y-68580000D03*
%TD*%
D10*
%TO.P,PMOD3,1,IO0*%
%TO.N,/JC1*%
X139700000Y-101600000D03*
D11*
%TO.P,PMOD3,2,IO1*%
%TO.N,/JC2*%
X139700000Y-104140000D03*
%TO.P,PMOD3,3,IO2*%
%TO.N,/JC3*%
X139700000Y-106680000D03*
%TO.P,PMOD3,4,IO3*%
%TO.N,/JC4*%
X139700000Y-109220000D03*
%TO.P,PMOD3,5,GND*%
%TO.N,GND*%
X139700000Y-111760000D03*
%TO.P,PMOD3,6,VCC*%
%TO.N,+3V3*%
X139700000Y-114300000D03*
%TD*%
D10*
%TO.P,J2,1,IOA0*%
%TO.N,/JC1*%
X154940000Y-101600000D03*
D11*
%TO.P,J2,2,IOA1*%
%TO.N,/JC2*%
X154940000Y-104140000D03*
%TO.P,J2,3,IOA2*%
%TO.N,/JC3*%
X154940000Y-106680000D03*
%TO.P,J2,4,IOA3*%
%TO.N,/JC4*%
X154940000Y-109220000D03*
%TO.P,J2,5,GND*%
%TO.N,GND*%
X154940000Y-111760000D03*
%TO.P,J2,6,VCC*%
%TO.N,+3V3*%
X154940000Y-114300000D03*
%TO.P,J2,7,IOB0*%
%TO.N,/JD1*%
X157480000Y-101600000D03*
%TO.P,J2,8,IOB1*%
%TO.N,/JD2*%
X157480000Y-104140000D03*
%TO.P,J2,9,IOB2*%
%TO.N,/JD3*%
X157480000Y-106680000D03*
%TO.P,J2,10,IOB3*%
%TO.N,/JD4*%
X157480000Y-109220000D03*
%TO.P,J2,11,GND*%
%TO.N,GND*%
X157480000Y-111760000D03*
%TO.P,J2,12,VCC*%
%TO.N,+3V3*%
X157480000Y-114300000D03*
%TD*%
D12*
%TO.N,GND*%
X157226000Y-135890000D03*
%TD*%
D13*
%TO.N,+3V3*%
X157480000Y-114300000D02*
X154940000Y-114300000D01*
X157480000Y-91440000D02*
X154940000Y-91440000D01*
%TD*%
%TA.AperFunction,Conductor*%
%TO.N,GND*%
G36*
X166753621Y-53868502D02*
G01*
X166800114Y-53922158D01*
X166811500Y-53974500D01*
X166811500Y-139065500D01*
X166791498Y-139133621D01*
X166737842Y-139180114D01*
X166685500Y-139191500D01*
X136254500Y-139191500D01*
X136186379Y-139171498D01*
X136139886Y-139117842D01*
X136128500Y-139065500D01*
X136128500Y-137126695D01*
X138337251Y-137126695D01*
X138337548Y-137131848D01*
X138337548Y-137131851D01*
X138343011Y-137226590D01*
X138350110Y-137349715D01*
X138351247Y-137354761D01*
X138351248Y-137354767D01*
X138371119Y-137442939D01*
X138399222Y-137567639D01*
X138483266Y-137774616D01*
X138599987Y-137965088D01*
X138746250Y-138133938D01*
X138918126Y-138276632D01*
X139111000Y-138389338D01*
X139319692Y-138469030D01*
X139324760Y-138470061D01*
X139324763Y-138470062D01*
X139432017Y-138491883D01*
X139538597Y-138513567D01*
X139543772Y-138513757D01*
X139543774Y-138513757D01*
X139756673Y-138521564D01*
X139756677Y-138521564D01*
X139761837Y-138521753D01*
X139766957Y-138521097D01*
X139766959Y-138521097D01*
X139978288Y-138494025D01*
X139978289Y-138494025D01*
X139983416Y-138493368D01*
X139988366Y-138491883D01*
X140192429Y-138430661D01*
X140192434Y-138430659D01*
X140197384Y-138429174D01*
X140397994Y-138330896D01*
X140579860Y-138201173D01*
X140738096Y-138043489D01*
X140797594Y-137960689D01*
X140865435Y-137866277D01*
X140868453Y-137862077D01*
X140967430Y-137661811D01*
X141032370Y-137448069D01*
X141061529Y-137226590D01*
X141063156Y-137160000D01*
X141044852Y-136937361D01*
X140990431Y-136720702D01*
X140901354Y-136515840D01*
X140780014Y-136328277D01*
X140629670Y-136163051D01*
X140625619Y-136159852D01*
X140625615Y-136159848D01*
X140458414Y-136027800D01*
X140458410Y-136027798D01*
X140454359Y-136024598D01*
X140412569Y-136001529D01*
X140362598Y-135951097D01*
X140347826Y-135881654D01*
X140372942Y-135815248D01*
X140400294Y-135788641D01*
X140575328Y-135663792D01*
X140583200Y-135657139D01*
X140734052Y-135506812D01*
X140740730Y-135498965D01*
X140865003Y-135326020D01*
X140870313Y-135317183D01*
X140964670Y-135126267D01*
X140968469Y-135116672D01*
X141030377Y-134912910D01*
X141032555Y-134902837D01*
X141033986Y-134891962D01*
X141031775Y-134877778D01*
X141018617Y-134874000D01*
X138383225Y-134874000D01*
X138369694Y-134877973D01*
X138368257Y-134887966D01*
X138398565Y-135022446D01*
X138401645Y-135032275D01*
X138481770Y-135229603D01*
X138486413Y-135238794D01*
X138597694Y-135420388D01*
X138603777Y-135428699D01*
X138743213Y-135589667D01*
X138750580Y-135596883D01*
X138914434Y-135732916D01*
X138922881Y-135738831D01*
X138991969Y-135779203D01*
X139040693Y-135830842D01*
X139053764Y-135900625D01*
X139027033Y-135966396D01*
X138986584Y-135999752D01*
X138973607Y-136006507D01*
X138969474Y-136009610D01*
X138969471Y-136009612D01*
X138945247Y-136027800D01*
X138794965Y-136140635D01*
X138640629Y-136302138D01*
X138514743Y-136486680D01*
X138420688Y-136689305D01*
X138360989Y-136904570D01*
X138337251Y-137126695D01*
X136128500Y-137126695D01*
X136128500Y-132046695D01*
X138337251Y-132046695D01*
X138337548Y-132051848D01*
X138337548Y-132051851D01*
X138343011Y-132146590D01*
X138350110Y-132269715D01*
X138351247Y-132274761D01*
X138351248Y-132274767D01*
X138371119Y-132362939D01*
X138399222Y-132487639D01*
X138483266Y-132694616D01*
X138599987Y-132885088D01*
X138746250Y-133053938D01*
X138918126Y-133196632D01*
X138991955Y-133239774D01*
X139040679Y-133291412D01*
X139053750Y-133361195D01*
X139027019Y-133426967D01*
X138986562Y-133460327D01*
X138978457Y-133464546D01*
X138969738Y-133470036D01*
X138799433Y-133597905D01*
X138791726Y-133604748D01*
X138644590Y-133758717D01*
X138638104Y-133766727D01*
X138518098Y-133942649D01*
X138513000Y-133951623D01*
X138423338Y-134144783D01*
X138419775Y-134154470D01*
X138364389Y-134354183D01*
X138365912Y-134362607D01*
X138378292Y-134366000D01*
X141018344Y-134366000D01*
X141031875Y-134362027D01*
X141033180Y-134352947D01*
X140991214Y-134185875D01*
X140987894Y-134176124D01*
X140902972Y-133980814D01*
X140898105Y-133971739D01*
X140782426Y-133792926D01*
X140776136Y-133784757D01*
X140632806Y-133627240D01*
X140625273Y-133620215D01*
X140458139Y-133488222D01*
X140449556Y-133482520D01*
X140412602Y-133462120D01*
X140362631Y-133411687D01*
X140347859Y-133342245D01*
X140372975Y-133275839D01*
X140400327Y-133249232D01*
X140423797Y-133232491D01*
X140579860Y-133121173D01*
X140738096Y-132963489D01*
X140797594Y-132880689D01*
X140865435Y-132786277D01*
X140868453Y-132782077D01*
X140967430Y-132581811D01*
X141032370Y-132368069D01*
X141061529Y-132146590D01*
X141063156Y-132080000D01*
X141044852Y-131857361D01*
X140990431Y-131640702D01*
X140901354Y-131435840D01*
X140780014Y-131248277D01*
X140629670Y-131083051D01*
X140625619Y-131079852D01*
X140625615Y-131079848D01*
X140458414Y-130947800D01*
X140458410Y-130947798D01*
X140454359Y-130944598D01*
X140413053Y-130921796D01*
X140363084Y-130871364D01*
X140348312Y-130801921D01*
X140373428Y-130735516D01*
X140400780Y-130708909D01*
X140444603Y-130677650D01*
X140579860Y-130581173D01*
X140738096Y-130423489D01*
X140797594Y-130340689D01*
X140865435Y-130246277D01*
X140868453Y-130242077D01*
X140967430Y-130041811D01*
X141032370Y-129828069D01*
X141061529Y-129606590D01*
X141063156Y-129540000D01*
X141044852Y-129317361D01*
X140990431Y-129100702D01*
X140901354Y-128895840D01*
X140780014Y-128708277D01*
X140629670Y-128543051D01*
X140625619Y-128539852D01*
X140625615Y-128539848D01*
X140458414Y-128407800D01*
X140458410Y-128407798D01*
X140454359Y-128404598D01*
X140413053Y-128381796D01*
X140363084Y-128331364D01*
X140348312Y-128261921D01*
X140373428Y-128195516D01*
X140400780Y-128168909D01*
X140444603Y-128137650D01*
X140579860Y-128041173D01*
X140738096Y-127883489D01*
X140797594Y-127800689D01*
X140865435Y-127706277D01*
X140868453Y-127702077D01*
X140967430Y-127501811D01*
X141032370Y-127288069D01*
X141061529Y-127066590D01*
X141063156Y-127000000D01*
X141044852Y-126777361D01*
X140990431Y-126560702D01*
X140901354Y-126355840D01*
X140780014Y-126168277D01*
X140776532Y-126164450D01*
X140632798Y-126006488D01*
X140601746Y-125942642D01*
X140610141Y-125872143D01*
X140655317Y-125817375D01*
X140681761Y-125803706D01*
X140788297Y-125763767D01*
X140796705Y-125760615D01*
X140913261Y-125673261D01*
X141000615Y-125556705D01*
X141051745Y-125420316D01*
X141058500Y-125358134D01*
X141058500Y-123561866D01*
X141051745Y-123499684D01*
X141000615Y-123363295D01*
X140913261Y-123246739D01*
X140796705Y-123159385D01*
X140660316Y-123108255D01*
X140598134Y-123101500D01*
X138801866Y-123101500D01*
X138739684Y-123108255D01*
X138603295Y-123159385D01*
X138486739Y-123246739D01*
X138399385Y-123363295D01*
X138348255Y-123499684D01*
X138341500Y-123561866D01*
X138341500Y-125358134D01*
X138348255Y-125420316D01*
X138399385Y-125556705D01*
X138486739Y-125673261D01*
X138603295Y-125760615D01*
X138611704Y-125763767D01*
X138611705Y-125763768D01*
X138720451Y-125804535D01*
X138777216Y-125847176D01*
X138801916Y-125913738D01*
X138786709Y-125983087D01*
X138767316Y-126009568D01*
X138640629Y-126142138D01*
X138514743Y-126326680D01*
X138420688Y-126529305D01*
X138360989Y-126744570D01*
X138337251Y-126966695D01*
X138337548Y-126971848D01*
X138337548Y-126971851D01*
X138343011Y-127066590D01*
X138350110Y-127189715D01*
X138351247Y-127194761D01*
X138351248Y-127194767D01*
X138371119Y-127282939D01*
X138399222Y-127407639D01*
X138483266Y-127614616D01*
X138599987Y-127805088D01*
X138746250Y-127973938D01*
X138918126Y-128116632D01*
X138988595Y-128157811D01*
X138991445Y-128159476D01*
X139040169Y-128211114D01*
X139053240Y-128280897D01*
X139026509Y-128346669D01*
X138986055Y-128380027D01*
X138973607Y-128386507D01*
X138969474Y-128389610D01*
X138969471Y-128389612D01*
X138945247Y-128407800D01*
X138794965Y-128520635D01*
X138640629Y-128682138D01*
X138514743Y-128866680D01*
X138420688Y-129069305D01*
X138360989Y-129284570D01*
X138337251Y-129506695D01*
X138337548Y-129511848D01*
X138337548Y-129511851D01*
X138343011Y-129606590D01*
X138350110Y-129729715D01*
X138351247Y-129734761D01*
X138351248Y-129734767D01*
X138371119Y-129822939D01*
X138399222Y-129947639D01*
X138483266Y-130154616D01*
X138599987Y-130345088D01*
X138746250Y-130513938D01*
X138918126Y-130656632D01*
X138988595Y-130697811D01*
X138991445Y-130699476D01*
X139040169Y-130751114D01*
X139053240Y-130820897D01*
X139026509Y-130886669D01*
X138986055Y-130920027D01*
X138973607Y-130926507D01*
X138969474Y-130929610D01*
X138969471Y-130929612D01*
X138945247Y-130947800D01*
X138794965Y-131060635D01*
X138640629Y-131222138D01*
X138514743Y-131406680D01*
X138420688Y-131609305D01*
X138360989Y-131824570D01*
X138337251Y-132046695D01*
X136128500Y-132046695D01*
X136128500Y-114266695D01*
X138337251Y-114266695D01*
X138337548Y-114271848D01*
X138337548Y-114271851D01*
X138343011Y-114366590D01*
X138350110Y-114489715D01*
X138351247Y-114494761D01*
X138351248Y-114494767D01*
X138371119Y-114582939D01*
X138399222Y-114707639D01*
X138483266Y-114914616D01*
X138599987Y-115105088D01*
X138746250Y-115273938D01*
X138918126Y-115416632D01*
X139111000Y-115529338D01*
X139319692Y-115609030D01*
X139324760Y-115610061D01*
X139324763Y-115610062D01*
X139432017Y-115631883D01*
X139538597Y-115653567D01*
X139543772Y-115653757D01*
X139543774Y-115653757D01*
X139756673Y-115661564D01*
X139756677Y-115661564D01*
X139761837Y-115661753D01*
X139766957Y-115661097D01*
X139766959Y-115661097D01*
X139978288Y-115634025D01*
X139978289Y-115634025D01*
X139983416Y-115633368D01*
X139988366Y-115631883D01*
X140192429Y-115570661D01*
X140192434Y-115570659D01*
X140197384Y-115569174D01*
X140397994Y-115470896D01*
X140579860Y-115341173D01*
X140738096Y-115183489D01*
X140797594Y-115100689D01*
X140865435Y-115006277D01*
X140868453Y-115002077D01*
X140967430Y-114801811D01*
X141032370Y-114588069D01*
X141061529Y-114366590D01*
X141063156Y-114300000D01*
X141060418Y-114266695D01*
X153577251Y-114266695D01*
X153577548Y-114271848D01*
X153577548Y-114271851D01*
X153583011Y-114366590D01*
X153590110Y-114489715D01*
X153591247Y-114494761D01*
X153591248Y-114494767D01*
X153611119Y-114582939D01*
X153639222Y-114707639D01*
X153723266Y-114914616D01*
X153839987Y-115105088D01*
X153986250Y-115273938D01*
X154158126Y-115416632D01*
X154351000Y-115529338D01*
X154559692Y-115609030D01*
X154564760Y-115610061D01*
X154564763Y-115610062D01*
X154672017Y-115631883D01*
X154778597Y-115653567D01*
X154783772Y-115653757D01*
X154783774Y-115653757D01*
X154996673Y-115661564D01*
X154996677Y-115661564D01*
X155001837Y-115661753D01*
X155006957Y-115661097D01*
X155006959Y-115661097D01*
X155218288Y-115634025D01*
X155218289Y-115634025D01*
X155223416Y-115633368D01*
X155228366Y-115631883D01*
X155432429Y-115570661D01*
X155432434Y-115570659D01*
X155437384Y-115569174D01*
X155637994Y-115470896D01*
X155819860Y-115341173D01*
X155978096Y-115183489D01*
X155981169Y-115179213D01*
X155994276Y-115160973D01*
X156050271Y-115117326D01*
X156096598Y-115108500D01*
X156325389Y-115108500D01*
X156393510Y-115128502D01*
X156420625Y-115152001D01*
X156526250Y-115273938D01*
X156698126Y-115416632D01*
X156891000Y-115529338D01*
X157099692Y-115609030D01*
X157104760Y-115610061D01*
X157104763Y-115610062D01*
X157212017Y-115631883D01*
X157318597Y-115653567D01*
X157323772Y-115653757D01*
X157323774Y-115653757D01*
X157536673Y-115661564D01*
X157536677Y-115661564D01*
X157541837Y-115661753D01*
X157546957Y-115661097D01*
X157546959Y-115661097D01*
X157758288Y-115634025D01*
X157758289Y-115634025D01*
X157763416Y-115633368D01*
X157768366Y-115631883D01*
X157972429Y-115570661D01*
X157972434Y-115570659D01*
X157977384Y-115569174D01*
X158177994Y-115470896D01*
X158359860Y-115341173D01*
X158518096Y-115183489D01*
X158577594Y-115100689D01*
X158645435Y-115006277D01*
X158648453Y-115002077D01*
X158747430Y-114801811D01*
X158812370Y-114588069D01*
X158841529Y-114366590D01*
X158843156Y-114300000D01*
X158824852Y-114077361D01*
X158770431Y-113860702D01*
X158681354Y-113655840D01*
X158575038Y-113491500D01*
X158562822Y-113472617D01*
X158562820Y-113472614D01*
X158560014Y-113468277D01*
X158409670Y-113303051D01*
X158405619Y-113299852D01*
X158405615Y-113299848D01*
X158238414Y-113167800D01*
X158238410Y-113167798D01*
X158234359Y-113164598D01*
X158192569Y-113141529D01*
X158142598Y-113091097D01*
X158127826Y-113021654D01*
X158152942Y-112955248D01*
X158180294Y-112928641D01*
X158355328Y-112803792D01*
X158363200Y-112797139D01*
X158514052Y-112646812D01*
X158520730Y-112638965D01*
X158645003Y-112466020D01*
X158650313Y-112457183D01*
X158744670Y-112266267D01*
X158748469Y-112256672D01*
X158810377Y-112052910D01*
X158812555Y-112042837D01*
X158813986Y-112031962D01*
X158811775Y-112017778D01*
X158798617Y-112014000D01*
X153623225Y-112014000D01*
X153609694Y-112017973D01*
X153608257Y-112027966D01*
X153638565Y-112162446D01*
X153641645Y-112172275D01*
X153721770Y-112369603D01*
X153726413Y-112378794D01*
X153837694Y-112560388D01*
X153843777Y-112568699D01*
X153983213Y-112729667D01*
X153990580Y-112736883D01*
X154154434Y-112872916D01*
X154162881Y-112878831D01*
X154231969Y-112919203D01*
X154280693Y-112970842D01*
X154293764Y-113040625D01*
X154267033Y-113106396D01*
X154226584Y-113139752D01*
X154213607Y-113146507D01*
X154209474Y-113149610D01*
X154209471Y-113149612D01*
X154185247Y-113167800D01*
X154034965Y-113280635D01*
X153880629Y-113442138D01*
X153877715Y-113446410D01*
X153877714Y-113446411D01*
X153792556Y-113571249D01*
X153754743Y-113626680D01*
X153660688Y-113829305D01*
X153600989Y-114044570D01*
X153577251Y-114266695D01*
X141060418Y-114266695D01*
X141044852Y-114077361D01*
X140990431Y-113860702D01*
X140901354Y-113655840D01*
X140795038Y-113491500D01*
X140782822Y-113472617D01*
X140782820Y-113472614D01*
X140780014Y-113468277D01*
X140629670Y-113303051D01*
X140625619Y-113299852D01*
X140625615Y-113299848D01*
X140458414Y-113167800D01*
X140458410Y-113167798D01*
X140454359Y-113164598D01*
X140412569Y-113141529D01*
X140362598Y-113091097D01*
X140347826Y-113021654D01*
X140372942Y-112955248D01*
X140400294Y-112928641D01*
X140575328Y-112803792D01*
X140583200Y-112797139D01*
X140734052Y-112646812D01*
X140740730Y-112638965D01*
X140865003Y-112466020D01*
X140870313Y-112457183D01*
X140964670Y-112266267D01*
X140968469Y-112256672D01*
X141030377Y-112052910D01*
X141032555Y-112042837D01*
X141033986Y-112031962D01*
X141031775Y-112017778D01*
X141018617Y-112014000D01*
X138383225Y-112014000D01*
X138369694Y-112017973D01*
X138368257Y-112027966D01*
X138398565Y-112162446D01*
X138401645Y-112172275D01*
X138481770Y-112369603D01*
X138486413Y-112378794D01*
X138597694Y-112560388D01*
X138603777Y-112568699D01*
X138743213Y-112729667D01*
X138750580Y-112736883D01*
X138914434Y-112872916D01*
X138922881Y-112878831D01*
X138991969Y-112919203D01*
X139040693Y-112970842D01*
X139053764Y-113040625D01*
X139027033Y-113106396D01*
X138986584Y-113139752D01*
X138973607Y-113146507D01*
X138969474Y-113149610D01*
X138969471Y-113149612D01*
X138945247Y-113167800D01*
X138794965Y-113280635D01*
X138640629Y-113442138D01*
X138637715Y-113446410D01*
X138637714Y-113446411D01*
X138552556Y-113571249D01*
X138514743Y-113626680D01*
X138420688Y-113829305D01*
X138360989Y-114044570D01*
X138337251Y-114266695D01*
X136128500Y-114266695D01*
X136128500Y-109186695D01*
X138337251Y-109186695D01*
X138337548Y-109191848D01*
X138337548Y-109191851D01*
X138343011Y-109286590D01*
X138350110Y-109409715D01*
X138351247Y-109414761D01*
X138351248Y-109414767D01*
X138371119Y-109502939D01*
X138399222Y-109627639D01*
X138483266Y-109834616D01*
X138534019Y-109917438D01*
X138597291Y-110020688D01*
X138599987Y-110025088D01*
X138746250Y-110193938D01*
X138918126Y-110336632D01*
X138991955Y-110379774D01*
X139040679Y-110431412D01*
X139053750Y-110501195D01*
X139027019Y-110566967D01*
X138986562Y-110600327D01*
X138978457Y-110604546D01*
X138969738Y-110610036D01*
X138799433Y-110737905D01*
X138791726Y-110744748D01*
X138644590Y-110898717D01*
X138638104Y-110906727D01*
X138518098Y-111082649D01*
X138513000Y-111091623D01*
X138423338Y-111284783D01*
X138419775Y-111294470D01*
X138364389Y-111494183D01*
X138365912Y-111502607D01*
X138378292Y-111506000D01*
X141018344Y-111506000D01*
X141031875Y-111502027D01*
X141033180Y-111492947D01*
X140991214Y-111325875D01*
X140987894Y-111316124D01*
X140902972Y-111120814D01*
X140898105Y-111111739D01*
X140782426Y-110932926D01*
X140776136Y-110924757D01*
X140632806Y-110767240D01*
X140625273Y-110760215D01*
X140458139Y-110628222D01*
X140449556Y-110622520D01*
X140412602Y-110602120D01*
X140362631Y-110551687D01*
X140347859Y-110482245D01*
X140372975Y-110415839D01*
X140400327Y-110389232D01*
X140423797Y-110372491D01*
X140579860Y-110261173D01*
X140738096Y-110103489D01*
X140797594Y-110020689D01*
X140865435Y-109926277D01*
X140868453Y-109922077D01*
X140889320Y-109879857D01*
X140965136Y-109726453D01*
X140965137Y-109726451D01*
X140967430Y-109721811D01*
X141032370Y-109508069D01*
X141061529Y-109286590D01*
X141063156Y-109220000D01*
X141060418Y-109186695D01*
X153577251Y-109186695D01*
X153577548Y-109191848D01*
X153577548Y-109191851D01*
X153583011Y-109286590D01*
X153590110Y-109409715D01*
X153591247Y-109414761D01*
X153591248Y-109414767D01*
X153611119Y-109502939D01*
X153639222Y-109627639D01*
X153723266Y-109834616D01*
X153774019Y-109917438D01*
X153837291Y-110020688D01*
X153839987Y-110025088D01*
X153986250Y-110193938D01*
X154158126Y-110336632D01*
X154231955Y-110379774D01*
X154280679Y-110431412D01*
X154293750Y-110501195D01*
X154267019Y-110566967D01*
X154226562Y-110600327D01*
X154218457Y-110604546D01*
X154209738Y-110610036D01*
X154039433Y-110737905D01*
X154031726Y-110744748D01*
X153884590Y-110898717D01*
X153878104Y-110906727D01*
X153758098Y-111082649D01*
X153753000Y-111091623D01*
X153663338Y-111284783D01*
X153659775Y-111294470D01*
X153604389Y-111494183D01*
X153605912Y-111502607D01*
X153618292Y-111506000D01*
X158798344Y-111506000D01*
X158811875Y-111502027D01*
X158813180Y-111492947D01*
X158771214Y-111325875D01*
X158767894Y-111316124D01*
X158682972Y-111120814D01*
X158678105Y-111111739D01*
X158562426Y-110932926D01*
X158556136Y-110924757D01*
X158412806Y-110767240D01*
X158405273Y-110760215D01*
X158238139Y-110628222D01*
X158229556Y-110622520D01*
X158192602Y-110602120D01*
X158142631Y-110551687D01*
X158127859Y-110482245D01*
X158152975Y-110415839D01*
X158180327Y-110389232D01*
X158203797Y-110372491D01*
X158359860Y-110261173D01*
X158518096Y-110103489D01*
X158577594Y-110020689D01*
X158645435Y-109926277D01*
X158648453Y-109922077D01*
X158669320Y-109879857D01*
X158745136Y-109726453D01*
X158745137Y-109726451D01*
X158747430Y-109721811D01*
X158812370Y-109508069D01*
X158841529Y-109286590D01*
X158843156Y-109220000D01*
X158824852Y-108997361D01*
X158770431Y-108780702D01*
X158681354Y-108575840D01*
X158560014Y-108388277D01*
X158409670Y-108223051D01*
X158405619Y-108219852D01*
X158405615Y-108219848D01*
X158238414Y-108087800D01*
X158238410Y-108087798D01*
X158234359Y-108084598D01*
X158193053Y-108061796D01*
X158143084Y-108011364D01*
X158128312Y-107941921D01*
X158153428Y-107875516D01*
X158180780Y-107848909D01*
X158224603Y-107817650D01*
X158359860Y-107721173D01*
X158518096Y-107563489D01*
X158577594Y-107480689D01*
X158645435Y-107386277D01*
X158648453Y-107382077D01*
X158669320Y-107339857D01*
X158745136Y-107186453D01*
X158745137Y-107186451D01*
X158747430Y-107181811D01*
X158812370Y-106968069D01*
X158841529Y-106746590D01*
X158843156Y-106680000D01*
X158824852Y-106457361D01*
X158770431Y-106240702D01*
X158681354Y-106035840D01*
X158560014Y-105848277D01*
X158409670Y-105683051D01*
X158405619Y-105679852D01*
X158405615Y-105679848D01*
X158238414Y-105547800D01*
X158238410Y-105547798D01*
X158234359Y-105544598D01*
X158193053Y-105521796D01*
X158143084Y-105471364D01*
X158128312Y-105401921D01*
X158153428Y-105335516D01*
X158180780Y-105308909D01*
X158224603Y-105277650D01*
X158359860Y-105181173D01*
X158518096Y-105023489D01*
X158577594Y-104940689D01*
X158645435Y-104846277D01*
X158648453Y-104842077D01*
X158669320Y-104799857D01*
X158745136Y-104646453D01*
X158745137Y-104646451D01*
X158747430Y-104641811D01*
X158812370Y-104428069D01*
X158841529Y-104206590D01*
X158843156Y-104140000D01*
X158824852Y-103917361D01*
X158770431Y-103700702D01*
X158681354Y-103495840D01*
X158560014Y-103308277D01*
X158409670Y-103143051D01*
X158405619Y-103139852D01*
X158405615Y-103139848D01*
X158238414Y-103007800D01*
X158238410Y-103007798D01*
X158234359Y-103004598D01*
X158193053Y-102981796D01*
X158143084Y-102931364D01*
X158128312Y-102861921D01*
X158153428Y-102795516D01*
X158180780Y-102768909D01*
X158224603Y-102737650D01*
X158359860Y-102641173D01*
X158518096Y-102483489D01*
X158648453Y-102302077D01*
X158747430Y-102101811D01*
X158812370Y-101888069D01*
X158841529Y-101666590D01*
X158843156Y-101600000D01*
X158824852Y-101377361D01*
X158770431Y-101160702D01*
X158681354Y-100955840D01*
X158560014Y-100768277D01*
X158409670Y-100603051D01*
X158405619Y-100599852D01*
X158405615Y-100599848D01*
X158238414Y-100467800D01*
X158238410Y-100467798D01*
X158234359Y-100464598D01*
X158038789Y-100356638D01*
X158033920Y-100354914D01*
X158033916Y-100354912D01*
X157833087Y-100283795D01*
X157833083Y-100283794D01*
X157828212Y-100282069D01*
X157823119Y-100281162D01*
X157823116Y-100281161D01*
X157613373Y-100243800D01*
X157613367Y-100243799D01*
X157608284Y-100242894D01*
X157534452Y-100241992D01*
X157390081Y-100240228D01*
X157390079Y-100240228D01*
X157384911Y-100240165D01*
X157164091Y-100273955D01*
X156951756Y-100343357D01*
X156753607Y-100446507D01*
X156749474Y-100449610D01*
X156749471Y-100449612D01*
X156579100Y-100577530D01*
X156574965Y-100580635D01*
X156518537Y-100639684D01*
X156494283Y-100665064D01*
X156432759Y-100700494D01*
X156361846Y-100697037D01*
X156304060Y-100655791D01*
X156285207Y-100622243D01*
X156243767Y-100511703D01*
X156240615Y-100503295D01*
X156153261Y-100386739D01*
X156036705Y-100299385D01*
X155900316Y-100248255D01*
X155838134Y-100241500D01*
X154041866Y-100241500D01*
X153979684Y-100248255D01*
X153843295Y-100299385D01*
X153726739Y-100386739D01*
X153639385Y-100503295D01*
X153588255Y-100639684D01*
X153581500Y-100701866D01*
X153581500Y-102498134D01*
X153588255Y-102560316D01*
X153639385Y-102696705D01*
X153726739Y-102813261D01*
X153843295Y-102900615D01*
X153851704Y-102903767D01*
X153851705Y-102903768D01*
X153960451Y-102944535D01*
X154017216Y-102987176D01*
X154041916Y-103053738D01*
X154026709Y-103123087D01*
X154007316Y-103149568D01*
X153880629Y-103282138D01*
X153754743Y-103466680D01*
X153660688Y-103669305D01*
X153600989Y-103884570D01*
X153577251Y-104106695D01*
X153577548Y-104111848D01*
X153577548Y-104111851D01*
X153583011Y-104206590D01*
X153590110Y-104329715D01*
X153591247Y-104334761D01*
X153591248Y-104334767D01*
X153611119Y-104422939D01*
X153639222Y-104547639D01*
X153723266Y-104754616D01*
X153774019Y-104837438D01*
X153837291Y-104940688D01*
X153839987Y-104945088D01*
X153986250Y-105113938D01*
X154158126Y-105256632D01*
X154228595Y-105297811D01*
X154231445Y-105299476D01*
X154280169Y-105351114D01*
X154293240Y-105420897D01*
X154266509Y-105486669D01*
X154226055Y-105520027D01*
X154213607Y-105526507D01*
X154209474Y-105529610D01*
X154209471Y-105529612D01*
X154185247Y-105547800D01*
X154034965Y-105660635D01*
X153880629Y-105822138D01*
X153754743Y-106006680D01*
X153660688Y-106209305D01*
X153600989Y-106424570D01*
X153577251Y-106646695D01*
X153577548Y-106651848D01*
X153577548Y-106651851D01*
X153583011Y-106746590D01*
X153590110Y-106869715D01*
X153591247Y-106874761D01*
X153591248Y-106874767D01*
X153611119Y-106962939D01*
X153639222Y-107087639D01*
X153723266Y-107294616D01*
X153774019Y-107377438D01*
X153837291Y-107480688D01*
X153839987Y-107485088D01*
X153986250Y-107653938D01*
X154158126Y-107796632D01*
X154228595Y-107837811D01*
X154231445Y-107839476D01*
X154280169Y-107891114D01*
X154293240Y-107960897D01*
X154266509Y-108026669D01*
X154226055Y-108060027D01*
X154213607Y-108066507D01*
X154209474Y-108069610D01*
X154209471Y-108069612D01*
X154185247Y-108087800D01*
X154034965Y-108200635D01*
X153880629Y-108362138D01*
X153754743Y-108546680D01*
X153660688Y-108749305D01*
X153600989Y-108964570D01*
X153577251Y-109186695D01*
X141060418Y-109186695D01*
X141044852Y-108997361D01*
X140990431Y-108780702D01*
X140901354Y-108575840D01*
X140780014Y-108388277D01*
X140629670Y-108223051D01*
X140625619Y-108219852D01*
X140625615Y-108219848D01*
X140458414Y-108087800D01*
X140458410Y-108087798D01*
X140454359Y-108084598D01*
X140413053Y-108061796D01*
X140363084Y-108011364D01*
X140348312Y-107941921D01*
X140373428Y-107875516D01*
X140400780Y-107848909D01*
X140444603Y-107817650D01*
X140579860Y-107721173D01*
X140738096Y-107563489D01*
X140797594Y-107480689D01*
X140865435Y-107386277D01*
X140868453Y-107382077D01*
X140889320Y-107339857D01*
X140965136Y-107186453D01*
X140965137Y-107186451D01*
X140967430Y-107181811D01*
X141032370Y-106968069D01*
X141061529Y-106746590D01*
X141063156Y-106680000D01*
X141044852Y-106457361D01*
X140990431Y-106240702D01*
X140901354Y-106035840D01*
X140780014Y-105848277D01*
X140629670Y-105683051D01*
X140625619Y-105679852D01*
X140625615Y-105679848D01*
X140458414Y-105547800D01*
X140458410Y-105547798D01*
X140454359Y-105544598D01*
X140413053Y-105521796D01*
X140363084Y-105471364D01*
X140348312Y-105401921D01*
X140373428Y-105335516D01*
X140400780Y-105308909D01*
X140444603Y-105277650D01*
X140579860Y-105181173D01*
X140738096Y-105023489D01*
X140797594Y-104940689D01*
X140865435Y-104846277D01*
X140868453Y-104842077D01*
X140889320Y-104799857D01*
X140965136Y-104646453D01*
X140965137Y-104646451D01*
X140967430Y-104641811D01*
X141032370Y-104428069D01*
X141061529Y-104206590D01*
X141063156Y-104140000D01*
X141044852Y-103917361D01*
X140990431Y-103700702D01*
X140901354Y-103495840D01*
X140780014Y-103308277D01*
X140776532Y-103304450D01*
X140632798Y-103146488D01*
X140601746Y-103082642D01*
X140610141Y-103012143D01*
X140655317Y-102957375D01*
X140681761Y-102943706D01*
X140788297Y-102903767D01*
X140796705Y-102900615D01*
X140913261Y-102813261D01*
X141000615Y-102696705D01*
X141051745Y-102560316D01*
X141058500Y-102498134D01*
X141058500Y-100701866D01*
X141051745Y-100639684D01*
X141000615Y-100503295D01*
X140913261Y-100386739D01*
X140796705Y-100299385D01*
X140660316Y-100248255D01*
X140598134Y-100241500D01*
X138801866Y-100241500D01*
X138739684Y-100248255D01*
X138603295Y-100299385D01*
X138486739Y-100386739D01*
X138399385Y-100503295D01*
X138348255Y-100639684D01*
X138341500Y-100701866D01*
X138341500Y-102498134D01*
X138348255Y-102560316D01*
X138399385Y-102696705D01*
X138486739Y-102813261D01*
X138603295Y-102900615D01*
X138611704Y-102903767D01*
X138611705Y-102903768D01*
X138720451Y-102944535D01*
X138777216Y-102987176D01*
X138801916Y-103053738D01*
X138786709Y-103123087D01*
X138767316Y-103149568D01*
X138640629Y-103282138D01*
X138514743Y-103466680D01*
X138420688Y-103669305D01*
X138360989Y-103884570D01*
X138337251Y-104106695D01*
X138337548Y-104111848D01*
X138337548Y-104111851D01*
X138343011Y-104206590D01*
X138350110Y-104329715D01*
X138351247Y-104334761D01*
X138351248Y-104334767D01*
X138371119Y-104422939D01*
X138399222Y-104547639D01*
X138483266Y-104754616D01*
X138534019Y-104837438D01*
X138597291Y-104940688D01*
X138599987Y-104945088D01*
X138746250Y-105113938D01*
X138918126Y-105256632D01*
X138988595Y-105297811D01*
X138991445Y-105299476D01*
X139040169Y-105351114D01*
X139053240Y-105420897D01*
X139026509Y-105486669D01*
X138986055Y-105520027D01*
X138973607Y-105526507D01*
X138969474Y-105529610D01*
X138969471Y-105529612D01*
X138945247Y-105547800D01*
X138794965Y-105660635D01*
X138640629Y-105822138D01*
X138514743Y-106006680D01*
X138420688Y-106209305D01*
X138360989Y-106424570D01*
X138337251Y-106646695D01*
X138337548Y-106651848D01*
X138337548Y-106651851D01*
X138343011Y-106746590D01*
X138350110Y-106869715D01*
X138351247Y-106874761D01*
X138351248Y-106874767D01*
X138371119Y-106962939D01*
X138399222Y-107087639D01*
X138483266Y-107294616D01*
X138534019Y-107377438D01*
X138597291Y-107480688D01*
X138599987Y-107485088D01*
X138746250Y-107653938D01*
X138918126Y-107796632D01*
X138988595Y-107837811D01*
X138991445Y-107839476D01*
X139040169Y-107891114D01*
X139053240Y-107960897D01*
X139026509Y-108026669D01*
X138986055Y-108060027D01*
X138973607Y-108066507D01*
X138969474Y-108069610D01*
X138969471Y-108069612D01*
X138945247Y-108087800D01*
X138794965Y-108200635D01*
X138640629Y-108362138D01*
X138514743Y-108546680D01*
X138420688Y-108749305D01*
X138360989Y-108964570D01*
X138337251Y-109186695D01*
X136128500Y-109186695D01*
X136128500Y-91406695D01*
X138337251Y-91406695D01*
X138337548Y-91411848D01*
X138337548Y-91411851D01*
X138343011Y-91506590D01*
X138350110Y-91629715D01*
X138351247Y-91634761D01*
X138351248Y-91634767D01*
X138371119Y-91722939D01*
X138399222Y-91847639D01*
X138483266Y-92054616D01*
X138599987Y-92245088D01*
X138746250Y-92413938D01*
X138918126Y-92556632D01*
X139111000Y-92669338D01*
X139319692Y-92749030D01*
X139324760Y-92750061D01*
X139324763Y-92750062D01*
X139432017Y-92771883D01*
X139538597Y-92793567D01*
X139543772Y-92793757D01*
X139543774Y-92793757D01*
X139756673Y-92801564D01*
X139756677Y-92801564D01*
X139761837Y-92801753D01*
X139766957Y-92801097D01*
X139766959Y-92801097D01*
X139978288Y-92774025D01*
X139978289Y-92774025D01*
X139983416Y-92773368D01*
X139988366Y-92771883D01*
X140192429Y-92710661D01*
X140192434Y-92710659D01*
X140197384Y-92709174D01*
X140397994Y-92610896D01*
X140579860Y-92481173D01*
X140738096Y-92323489D01*
X140797594Y-92240689D01*
X140865435Y-92146277D01*
X140868453Y-92142077D01*
X140967430Y-91941811D01*
X141032370Y-91728069D01*
X141061529Y-91506590D01*
X141063156Y-91440000D01*
X141060418Y-91406695D01*
X153577251Y-91406695D01*
X153577548Y-91411848D01*
X153577548Y-91411851D01*
X153583011Y-91506590D01*
X153590110Y-91629715D01*
X153591247Y-91634761D01*
X153591248Y-91634767D01*
X153611119Y-91722939D01*
X153639222Y-91847639D01*
X153723266Y-92054616D01*
X153839987Y-92245088D01*
X153986250Y-92413938D01*
X154158126Y-92556632D01*
X154351000Y-92669338D01*
X154559692Y-92749030D01*
X154564760Y-92750061D01*
X154564763Y-92750062D01*
X154672017Y-92771883D01*
X154778597Y-92793567D01*
X154783772Y-92793757D01*
X154783774Y-92793757D01*
X154996673Y-92801564D01*
X154996677Y-92801564D01*
X155001837Y-92801753D01*
X155006957Y-92801097D01*
X155006959Y-92801097D01*
X155218288Y-92774025D01*
X155218289Y-92774025D01*
X155223416Y-92773368D01*
X155228366Y-92771883D01*
X155432429Y-92710661D01*
X155432434Y-92710659D01*
X155437384Y-92709174D01*
X155637994Y-92610896D01*
X155819860Y-92481173D01*
X155978096Y-92323489D01*
X155981169Y-92319213D01*
X155994276Y-92300973D01*
X156050271Y-92257326D01*
X156096598Y-92248500D01*
X156325389Y-92248500D01*
X156393510Y-92268502D01*
X156420625Y-92292001D01*
X156526250Y-92413938D01*
X156698126Y-92556632D01*
X156891000Y-92669338D01*
X157099692Y-92749030D01*
X157104760Y-92750061D01*
X157104763Y-92750062D01*
X157212017Y-92771883D01*
X157318597Y-92793567D01*
X157323772Y-92793757D01*
X157323774Y-92793757D01*
X157536673Y-92801564D01*
X157536677Y-92801564D01*
X157541837Y-92801753D01*
X157546957Y-92801097D01*
X157546959Y-92801097D01*
X157758288Y-92774025D01*
X157758289Y-92774025D01*
X157763416Y-92773368D01*
X157768366Y-92771883D01*
X157972429Y-92710661D01*
X157972434Y-92710659D01*
X157977384Y-92709174D01*
X158177994Y-92610896D01*
X158359860Y-92481173D01*
X158518096Y-92323489D01*
X158577594Y-92240689D01*
X158645435Y-92146277D01*
X158648453Y-92142077D01*
X158747430Y-91941811D01*
X158812370Y-91728069D01*
X158841529Y-91506590D01*
X158843156Y-91440000D01*
X158824852Y-91217361D01*
X158770431Y-91000702D01*
X158681354Y-90795840D01*
X158575038Y-90631500D01*
X158562822Y-90612617D01*
X158562820Y-90612614D01*
X158560014Y-90608277D01*
X158409670Y-90443051D01*
X158405619Y-90439852D01*
X158405615Y-90439848D01*
X158238414Y-90307800D01*
X158238410Y-90307798D01*
X158234359Y-90304598D01*
X158192569Y-90281529D01*
X158142598Y-90231097D01*
X158127826Y-90161654D01*
X158152942Y-90095248D01*
X158180294Y-90068641D01*
X158355328Y-89943792D01*
X158363200Y-89937139D01*
X158514052Y-89786812D01*
X158520730Y-89778965D01*
X158645003Y-89606020D01*
X158650313Y-89597183D01*
X158744670Y-89406267D01*
X158748469Y-89396672D01*
X158810377Y-89192910D01*
X158812555Y-89182837D01*
X158813986Y-89171962D01*
X158811775Y-89157778D01*
X158798617Y-89154000D01*
X153623225Y-89154000D01*
X153609694Y-89157973D01*
X153608257Y-89167966D01*
X153638565Y-89302446D01*
X153641645Y-89312275D01*
X153721770Y-89509603D01*
X153726413Y-89518794D01*
X153837694Y-89700388D01*
X153843777Y-89708699D01*
X153983213Y-89869667D01*
X153990580Y-89876883D01*
X154154434Y-90012916D01*
X154162881Y-90018831D01*
X154231969Y-90059203D01*
X154280693Y-90110842D01*
X154293764Y-90180625D01*
X154267033Y-90246396D01*
X154226584Y-90279752D01*
X154213607Y-90286507D01*
X154209474Y-90289610D01*
X154209471Y-90289612D01*
X154185247Y-90307800D01*
X154034965Y-90420635D01*
X153880629Y-90582138D01*
X153877715Y-90586410D01*
X153877714Y-90586411D01*
X153792556Y-90711249D01*
X153754743Y-90766680D01*
X153660688Y-90969305D01*
X153600989Y-91184570D01*
X153577251Y-91406695D01*
X141060418Y-91406695D01*
X141044852Y-91217361D01*
X140990431Y-91000702D01*
X140901354Y-90795840D01*
X140795038Y-90631500D01*
X140782822Y-90612617D01*
X140782820Y-90612614D01*
X140780014Y-90608277D01*
X140629670Y-90443051D01*
X140625619Y-90439852D01*
X140625615Y-90439848D01*
X140458414Y-90307800D01*
X140458410Y-90307798D01*
X140454359Y-90304598D01*
X140412569Y-90281529D01*
X140362598Y-90231097D01*
X140347826Y-90161654D01*
X140372942Y-90095248D01*
X140400294Y-90068641D01*
X140575328Y-89943792D01*
X140583200Y-89937139D01*
X140734052Y-89786812D01*
X140740730Y-89778965D01*
X140865003Y-89606020D01*
X140870313Y-89597183D01*
X140964670Y-89406267D01*
X140968469Y-89396672D01*
X141030377Y-89192910D01*
X141032555Y-89182837D01*
X141033986Y-89171962D01*
X141031775Y-89157778D01*
X141018617Y-89154000D01*
X138383225Y-89154000D01*
X138369694Y-89157973D01*
X138368257Y-89167966D01*
X138398565Y-89302446D01*
X138401645Y-89312275D01*
X138481770Y-89509603D01*
X138486413Y-89518794D01*
X138597694Y-89700388D01*
X138603777Y-89708699D01*
X138743213Y-89869667D01*
X138750580Y-89876883D01*
X138914434Y-90012916D01*
X138922881Y-90018831D01*
X138991969Y-90059203D01*
X139040693Y-90110842D01*
X139053764Y-90180625D01*
X139027033Y-90246396D01*
X138986584Y-90279752D01*
X138973607Y-90286507D01*
X138969474Y-90289610D01*
X138969471Y-90289612D01*
X138945247Y-90307800D01*
X138794965Y-90420635D01*
X138640629Y-90582138D01*
X138637715Y-90586410D01*
X138637714Y-90586411D01*
X138552556Y-90711249D01*
X138514743Y-90766680D01*
X138420688Y-90969305D01*
X138360989Y-91184570D01*
X138337251Y-91406695D01*
X136128500Y-91406695D01*
X136128500Y-86326695D01*
X138337251Y-86326695D01*
X138337548Y-86331848D01*
X138337548Y-86331851D01*
X138343011Y-86426590D01*
X138350110Y-86549715D01*
X138351247Y-86554761D01*
X138351248Y-86554767D01*
X138371119Y-86642939D01*
X138399222Y-86767639D01*
X138483266Y-86974616D01*
X138534019Y-87057438D01*
X138597291Y-87160688D01*
X138599987Y-87165088D01*
X138746250Y-87333938D01*
X138918126Y-87476632D01*
X138991955Y-87519774D01*
X139040679Y-87571412D01*
X139053750Y-87641195D01*
X139027019Y-87706967D01*
X138986562Y-87740327D01*
X138978457Y-87744546D01*
X138969738Y-87750036D01*
X138799433Y-87877905D01*
X138791726Y-87884748D01*
X138644590Y-88038717D01*
X138638104Y-88046727D01*
X138518098Y-88222649D01*
X138513000Y-88231623D01*
X138423338Y-88424783D01*
X138419775Y-88434470D01*
X138364389Y-88634183D01*
X138365912Y-88642607D01*
X138378292Y-88646000D01*
X141018344Y-88646000D01*
X141031875Y-88642027D01*
X141033180Y-88632947D01*
X140991214Y-88465875D01*
X140987894Y-88456124D01*
X140902972Y-88260814D01*
X140898105Y-88251739D01*
X140782426Y-88072926D01*
X140776136Y-88064757D01*
X140632806Y-87907240D01*
X140625273Y-87900215D01*
X140458139Y-87768222D01*
X140449556Y-87762520D01*
X140412602Y-87742120D01*
X140362631Y-87691687D01*
X140347859Y-87622245D01*
X140372975Y-87555839D01*
X140400327Y-87529232D01*
X140423797Y-87512491D01*
X140579860Y-87401173D01*
X140738096Y-87243489D01*
X140797594Y-87160689D01*
X140865435Y-87066277D01*
X140868453Y-87062077D01*
X140889320Y-87019857D01*
X140965136Y-86866453D01*
X140965137Y-86866451D01*
X140967430Y-86861811D01*
X141032370Y-86648069D01*
X141061529Y-86426590D01*
X141063156Y-86360000D01*
X141060418Y-86326695D01*
X153577251Y-86326695D01*
X153577548Y-86331848D01*
X153577548Y-86331851D01*
X153583011Y-86426590D01*
X153590110Y-86549715D01*
X153591247Y-86554761D01*
X153591248Y-86554767D01*
X153611119Y-86642939D01*
X153639222Y-86767639D01*
X153723266Y-86974616D01*
X153774019Y-87057438D01*
X153837291Y-87160688D01*
X153839987Y-87165088D01*
X153986250Y-87333938D01*
X154158126Y-87476632D01*
X154231955Y-87519774D01*
X154280679Y-87571412D01*
X154293750Y-87641195D01*
X154267019Y-87706967D01*
X154226562Y-87740327D01*
X154218457Y-87744546D01*
X154209738Y-87750036D01*
X154039433Y-87877905D01*
X154031726Y-87884748D01*
X153884590Y-88038717D01*
X153878104Y-88046727D01*
X153758098Y-88222649D01*
X153753000Y-88231623D01*
X153663338Y-88424783D01*
X153659775Y-88434470D01*
X153604389Y-88634183D01*
X153605912Y-88642607D01*
X153618292Y-88646000D01*
X158798344Y-88646000D01*
X158811875Y-88642027D01*
X158813180Y-88632947D01*
X158771214Y-88465875D01*
X158767894Y-88456124D01*
X158682972Y-88260814D01*
X158678105Y-88251739D01*
X158562426Y-88072926D01*
X158556136Y-88064757D01*
X158412806Y-87907240D01*
X158405273Y-87900215D01*
X158238139Y-87768222D01*
X158229556Y-87762520D01*
X158192602Y-87742120D01*
X158142631Y-87691687D01*
X158127859Y-87622245D01*
X158152975Y-87555839D01*
X158180327Y-87529232D01*
X158203797Y-87512491D01*
X158359860Y-87401173D01*
X158518096Y-87243489D01*
X158577594Y-87160689D01*
X158645435Y-87066277D01*
X158648453Y-87062077D01*
X158669320Y-87019857D01*
X158745136Y-86866453D01*
X158745137Y-86866451D01*
X158747430Y-86861811D01*
X158812370Y-86648069D01*
X158841529Y-86426590D01*
X158843156Y-86360000D01*
X158824852Y-86137361D01*
X158770431Y-85920702D01*
X158681354Y-85715840D01*
X158560014Y-85528277D01*
X158409670Y-85363051D01*
X158405619Y-85359852D01*
X158405615Y-85359848D01*
X158238414Y-85227800D01*
X158238410Y-85227798D01*
X158234359Y-85224598D01*
X158193053Y-85201796D01*
X158143084Y-85151364D01*
X158128312Y-85081921D01*
X158153428Y-85015516D01*
X158180780Y-84988909D01*
X158224603Y-84957650D01*
X158359860Y-84861173D01*
X158518096Y-84703489D01*
X158577594Y-84620689D01*
X158645435Y-84526277D01*
X158648453Y-84522077D01*
X158669320Y-84479857D01*
X158745136Y-84326453D01*
X158745137Y-84326451D01*
X158747430Y-84321811D01*
X158812370Y-84108069D01*
X158841529Y-83886590D01*
X158843156Y-83820000D01*
X158824852Y-83597361D01*
X158770431Y-83380702D01*
X158681354Y-83175840D01*
X158560014Y-82988277D01*
X158409670Y-82823051D01*
X158405619Y-82819852D01*
X158405615Y-82819848D01*
X158238414Y-82687800D01*
X158238410Y-82687798D01*
X158234359Y-82684598D01*
X158193053Y-82661796D01*
X158143084Y-82611364D01*
X158128312Y-82541921D01*
X158153428Y-82475516D01*
X158180780Y-82448909D01*
X158224603Y-82417650D01*
X158359860Y-82321173D01*
X158518096Y-82163489D01*
X158577594Y-82080689D01*
X158645435Y-81986277D01*
X158648453Y-81982077D01*
X158669320Y-81939857D01*
X158745136Y-81786453D01*
X158745137Y-81786451D01*
X158747430Y-81781811D01*
X158812370Y-81568069D01*
X158841529Y-81346590D01*
X158843156Y-81280000D01*
X158824852Y-81057361D01*
X158770431Y-80840702D01*
X158681354Y-80635840D01*
X158560014Y-80448277D01*
X158409670Y-80283051D01*
X158405619Y-80279852D01*
X158405615Y-80279848D01*
X158238414Y-80147800D01*
X158238410Y-80147798D01*
X158234359Y-80144598D01*
X158193053Y-80121796D01*
X158143084Y-80071364D01*
X158128312Y-80001921D01*
X158153428Y-79935516D01*
X158180780Y-79908909D01*
X158224603Y-79877650D01*
X158359860Y-79781173D01*
X158518096Y-79623489D01*
X158648453Y-79442077D01*
X158747430Y-79241811D01*
X158812370Y-79028069D01*
X158841529Y-78806590D01*
X158843156Y-78740000D01*
X158824852Y-78517361D01*
X158770431Y-78300702D01*
X158681354Y-78095840D01*
X158560014Y-77908277D01*
X158409670Y-77743051D01*
X158405619Y-77739852D01*
X158405615Y-77739848D01*
X158238414Y-77607800D01*
X158238410Y-77607798D01*
X158234359Y-77604598D01*
X158038789Y-77496638D01*
X158033920Y-77494914D01*
X158033916Y-77494912D01*
X157833087Y-77423795D01*
X157833083Y-77423794D01*
X157828212Y-77422069D01*
X157823119Y-77421162D01*
X157823116Y-77421161D01*
X157613373Y-77383800D01*
X157613367Y-77383799D01*
X157608284Y-77382894D01*
X157534452Y-77381992D01*
X157390081Y-77380228D01*
X157390079Y-77380228D01*
X157384911Y-77380165D01*
X157164091Y-77413955D01*
X156951756Y-77483357D01*
X156753607Y-77586507D01*
X156749474Y-77589610D01*
X156749471Y-77589612D01*
X156579100Y-77717530D01*
X156574965Y-77720635D01*
X156518537Y-77779684D01*
X156494283Y-77805064D01*
X156432759Y-77840494D01*
X156361846Y-77837037D01*
X156304060Y-77795791D01*
X156285207Y-77762243D01*
X156243767Y-77651703D01*
X156240615Y-77643295D01*
X156153261Y-77526739D01*
X156036705Y-77439385D01*
X155900316Y-77388255D01*
X155838134Y-77381500D01*
X154041866Y-77381500D01*
X153979684Y-77388255D01*
X153843295Y-77439385D01*
X153726739Y-77526739D01*
X153639385Y-77643295D01*
X153588255Y-77779684D01*
X153581500Y-77841866D01*
X153581500Y-79638134D01*
X153588255Y-79700316D01*
X153639385Y-79836705D01*
X153726739Y-79953261D01*
X153843295Y-80040615D01*
X153851704Y-80043767D01*
X153851705Y-80043768D01*
X153960451Y-80084535D01*
X154017216Y-80127176D01*
X154041916Y-80193738D01*
X154026709Y-80263087D01*
X154007316Y-80289568D01*
X153880629Y-80422138D01*
X153754743Y-80606680D01*
X153660688Y-80809305D01*
X153600989Y-81024570D01*
X153577251Y-81246695D01*
X153577548Y-81251848D01*
X153577548Y-81251851D01*
X153583011Y-81346590D01*
X153590110Y-81469715D01*
X153591247Y-81474761D01*
X153591248Y-81474767D01*
X153611119Y-81562939D01*
X153639222Y-81687639D01*
X153723266Y-81894616D01*
X153774019Y-81977438D01*
X153837291Y-82080688D01*
X153839987Y-82085088D01*
X153986250Y-82253938D01*
X154158126Y-82396632D01*
X154228595Y-82437811D01*
X154231445Y-82439476D01*
X154280169Y-82491114D01*
X154293240Y-82560897D01*
X154266509Y-82626669D01*
X154226055Y-82660027D01*
X154213607Y-82666507D01*
X154209474Y-82669610D01*
X154209471Y-82669612D01*
X154185247Y-82687800D01*
X154034965Y-82800635D01*
X153880629Y-82962138D01*
X153754743Y-83146680D01*
X153660688Y-83349305D01*
X153600989Y-83564570D01*
X153577251Y-83786695D01*
X153577548Y-83791848D01*
X153577548Y-83791851D01*
X153583011Y-83886590D01*
X153590110Y-84009715D01*
X153591247Y-84014761D01*
X153591248Y-84014767D01*
X153611119Y-84102939D01*
X153639222Y-84227639D01*
X153723266Y-84434616D01*
X153774019Y-84517438D01*
X153837291Y-84620688D01*
X153839987Y-84625088D01*
X153986250Y-84793938D01*
X154158126Y-84936632D01*
X154228595Y-84977811D01*
X154231445Y-84979476D01*
X154280169Y-85031114D01*
X154293240Y-85100897D01*
X154266509Y-85166669D01*
X154226055Y-85200027D01*
X154213607Y-85206507D01*
X154209474Y-85209610D01*
X154209471Y-85209612D01*
X154185247Y-85227800D01*
X154034965Y-85340635D01*
X153880629Y-85502138D01*
X153754743Y-85686680D01*
X153660688Y-85889305D01*
X153600989Y-86104570D01*
X153577251Y-86326695D01*
X141060418Y-86326695D01*
X141044852Y-86137361D01*
X140990431Y-85920702D01*
X140901354Y-85715840D01*
X140780014Y-85528277D01*
X140629670Y-85363051D01*
X140625619Y-85359852D01*
X140625615Y-85359848D01*
X140458414Y-85227800D01*
X140458410Y-85227798D01*
X140454359Y-85224598D01*
X140413053Y-85201796D01*
X140363084Y-85151364D01*
X140348312Y-85081921D01*
X140373428Y-85015516D01*
X140400780Y-84988909D01*
X140444603Y-84957650D01*
X140579860Y-84861173D01*
X140738096Y-84703489D01*
X140797594Y-84620689D01*
X140865435Y-84526277D01*
X140868453Y-84522077D01*
X140889320Y-84479857D01*
X140965136Y-84326453D01*
X140965137Y-84326451D01*
X140967430Y-84321811D01*
X141032370Y-84108069D01*
X141061529Y-83886590D01*
X141063156Y-83820000D01*
X141044852Y-83597361D01*
X140990431Y-83380702D01*
X140901354Y-83175840D01*
X140780014Y-82988277D01*
X140629670Y-82823051D01*
X140625619Y-82819852D01*
X140625615Y-82819848D01*
X140458414Y-82687800D01*
X140458410Y-82687798D01*
X140454359Y-82684598D01*
X140413053Y-82661796D01*
X140363084Y-82611364D01*
X140348312Y-82541921D01*
X140373428Y-82475516D01*
X140400780Y-82448909D01*
X140444603Y-82417650D01*
X140579860Y-82321173D01*
X140738096Y-82163489D01*
X140797594Y-82080689D01*
X140865435Y-81986277D01*
X140868453Y-81982077D01*
X140889320Y-81939857D01*
X140965136Y-81786453D01*
X140965137Y-81786451D01*
X140967430Y-81781811D01*
X141032370Y-81568069D01*
X141061529Y-81346590D01*
X141063156Y-81280000D01*
X141044852Y-81057361D01*
X140990431Y-80840702D01*
X140901354Y-80635840D01*
X140780014Y-80448277D01*
X140776532Y-80444450D01*
X140632798Y-80286488D01*
X140601746Y-80222642D01*
X140610141Y-80152143D01*
X140655317Y-80097375D01*
X140681761Y-80083706D01*
X140788297Y-80043767D01*
X140796705Y-80040615D01*
X140913261Y-79953261D01*
X141000615Y-79836705D01*
X141051745Y-79700316D01*
X141058500Y-79638134D01*
X141058500Y-77841866D01*
X141051745Y-77779684D01*
X141000615Y-77643295D01*
X140913261Y-77526739D01*
X140796705Y-77439385D01*
X140660316Y-77388255D01*
X140598134Y-77381500D01*
X138801866Y-77381500D01*
X138739684Y-77388255D01*
X138603295Y-77439385D01*
X138486739Y-77526739D01*
X138399385Y-77643295D01*
X138348255Y-77779684D01*
X138341500Y-77841866D01*
X138341500Y-79638134D01*
X138348255Y-79700316D01*
X138399385Y-79836705D01*
X138486739Y-79953261D01*
X138603295Y-80040615D01*
X138611704Y-80043767D01*
X138611705Y-80043768D01*
X138720451Y-80084535D01*
X138777216Y-80127176D01*
X138801916Y-80193738D01*
X138786709Y-80263087D01*
X138767316Y-80289568D01*
X138640629Y-80422138D01*
X138514743Y-80606680D01*
X138420688Y-80809305D01*
X138360989Y-81024570D01*
X138337251Y-81246695D01*
X138337548Y-81251848D01*
X138337548Y-81251851D01*
X138343011Y-81346590D01*
X138350110Y-81469715D01*
X138351247Y-81474761D01*
X138351248Y-81474767D01*
X138371119Y-81562939D01*
X138399222Y-81687639D01*
X138483266Y-81894616D01*
X138534019Y-81977438D01*
X138597291Y-82080688D01*
X138599987Y-82085088D01*
X138746250Y-82253938D01*
X138918126Y-82396632D01*
X138988595Y-82437811D01*
X138991445Y-82439476D01*
X139040169Y-82491114D01*
X139053240Y-82560897D01*
X139026509Y-82626669D01*
X138986055Y-82660027D01*
X138973607Y-82666507D01*
X138969474Y-82669610D01*
X138969471Y-82669612D01*
X138945247Y-82687800D01*
X138794965Y-82800635D01*
X138640629Y-82962138D01*
X138514743Y-83146680D01*
X138420688Y-83349305D01*
X138360989Y-83564570D01*
X138337251Y-83786695D01*
X138337548Y-83791848D01*
X138337548Y-83791851D01*
X138343011Y-83886590D01*
X138350110Y-84009715D01*
X138351247Y-84014761D01*
X138351248Y-84014767D01*
X138371119Y-84102939D01*
X138399222Y-84227639D01*
X138483266Y-84434616D01*
X138534019Y-84517438D01*
X138597291Y-84620688D01*
X138599987Y-84625088D01*
X138746250Y-84793938D01*
X138918126Y-84936632D01*
X138988595Y-84977811D01*
X138991445Y-84979476D01*
X139040169Y-85031114D01*
X139053240Y-85100897D01*
X139026509Y-85166669D01*
X138986055Y-85200027D01*
X138973607Y-85206507D01*
X138969474Y-85209610D01*
X138969471Y-85209612D01*
X138945247Y-85227800D01*
X138794965Y-85340635D01*
X138640629Y-85502138D01*
X138514743Y-85686680D01*
X138420688Y-85889305D01*
X138360989Y-86104570D01*
X138337251Y-86326695D01*
X136128500Y-86326695D01*
X136128500Y-68546695D01*
X138337251Y-68546695D01*
X138337548Y-68551848D01*
X138337548Y-68551851D01*
X138343011Y-68646590D01*
X138350110Y-68769715D01*
X138351247Y-68774761D01*
X138351248Y-68774767D01*
X138371119Y-68862939D01*
X138399222Y-68987639D01*
X138483266Y-69194616D01*
X138599987Y-69385088D01*
X138746250Y-69553938D01*
X138918126Y-69696632D01*
X139111000Y-69809338D01*
X139319692Y-69889030D01*
X139324760Y-69890061D01*
X139324763Y-69890062D01*
X139432017Y-69911883D01*
X139538597Y-69933567D01*
X139543772Y-69933757D01*
X139543774Y-69933757D01*
X139756673Y-69941564D01*
X139756677Y-69941564D01*
X139761837Y-69941753D01*
X139766957Y-69941097D01*
X139766959Y-69941097D01*
X139978288Y-69914025D01*
X139978289Y-69914025D01*
X139983416Y-69913368D01*
X139988366Y-69911883D01*
X140192429Y-69850661D01*
X140192434Y-69850659D01*
X140197384Y-69849174D01*
X140397994Y-69750896D01*
X140579860Y-69621173D01*
X140738096Y-69463489D01*
X140797594Y-69380689D01*
X140865435Y-69286277D01*
X140868453Y-69282077D01*
X140967430Y-69081811D01*
X141032370Y-68868069D01*
X141061529Y-68646590D01*
X141063156Y-68580000D01*
X141044852Y-68357361D01*
X140990431Y-68140702D01*
X140901354Y-67935840D01*
X140780014Y-67748277D01*
X140629670Y-67583051D01*
X140625619Y-67579852D01*
X140625615Y-67579848D01*
X140458414Y-67447800D01*
X140458410Y-67447798D01*
X140454359Y-67444598D01*
X140412569Y-67421529D01*
X140362598Y-67371097D01*
X140347826Y-67301654D01*
X140372942Y-67235248D01*
X140400294Y-67208641D01*
X140575328Y-67083792D01*
X140583200Y-67077139D01*
X140734052Y-66926812D01*
X140740730Y-66918965D01*
X140865003Y-66746020D01*
X140870313Y-66737183D01*
X140964670Y-66546267D01*
X140968469Y-66536672D01*
X141030377Y-66332910D01*
X141032555Y-66322837D01*
X141033986Y-66311962D01*
X141031775Y-66297778D01*
X141018617Y-66294000D01*
X138383225Y-66294000D01*
X138369694Y-66297973D01*
X138368257Y-66307966D01*
X138398565Y-66442446D01*
X138401645Y-66452275D01*
X138481770Y-66649603D01*
X138486413Y-66658794D01*
X138597694Y-66840388D01*
X138603777Y-66848699D01*
X138743213Y-67009667D01*
X138750580Y-67016883D01*
X138914434Y-67152916D01*
X138922881Y-67158831D01*
X138991969Y-67199203D01*
X139040693Y-67250842D01*
X139053764Y-67320625D01*
X139027033Y-67386396D01*
X138986584Y-67419752D01*
X138973607Y-67426507D01*
X138969474Y-67429610D01*
X138969471Y-67429612D01*
X138945247Y-67447800D01*
X138794965Y-67560635D01*
X138640629Y-67722138D01*
X138514743Y-67906680D01*
X138420688Y-68109305D01*
X138360989Y-68324570D01*
X138337251Y-68546695D01*
X136128500Y-68546695D01*
X136128500Y-63466695D01*
X138337251Y-63466695D01*
X138337548Y-63471848D01*
X138337548Y-63471851D01*
X138343011Y-63566590D01*
X138350110Y-63689715D01*
X138351247Y-63694761D01*
X138351248Y-63694767D01*
X138371119Y-63782939D01*
X138399222Y-63907639D01*
X138483266Y-64114616D01*
X138599987Y-64305088D01*
X138746250Y-64473938D01*
X138918126Y-64616632D01*
X138991955Y-64659774D01*
X139040679Y-64711412D01*
X139053750Y-64781195D01*
X139027019Y-64846967D01*
X138986562Y-64880327D01*
X138978457Y-64884546D01*
X138969738Y-64890036D01*
X138799433Y-65017905D01*
X138791726Y-65024748D01*
X138644590Y-65178717D01*
X138638104Y-65186727D01*
X138518098Y-65362649D01*
X138513000Y-65371623D01*
X138423338Y-65564783D01*
X138419775Y-65574470D01*
X138364389Y-65774183D01*
X138365912Y-65782607D01*
X138378292Y-65786000D01*
X141018344Y-65786000D01*
X141031875Y-65782027D01*
X141033180Y-65772947D01*
X140991214Y-65605875D01*
X140987894Y-65596124D01*
X140902972Y-65400814D01*
X140898105Y-65391739D01*
X140782426Y-65212926D01*
X140776136Y-65204757D01*
X140632806Y-65047240D01*
X140625273Y-65040215D01*
X140458139Y-64908222D01*
X140449556Y-64902520D01*
X140412602Y-64882120D01*
X140362631Y-64831687D01*
X140347859Y-64762245D01*
X140372975Y-64695839D01*
X140400327Y-64669232D01*
X140423797Y-64652491D01*
X140579860Y-64541173D01*
X140738096Y-64383489D01*
X140797594Y-64300689D01*
X140865435Y-64206277D01*
X140868453Y-64202077D01*
X140967430Y-64001811D01*
X141032370Y-63788069D01*
X141061529Y-63566590D01*
X141063156Y-63500000D01*
X141044852Y-63277361D01*
X140990431Y-63060702D01*
X140901354Y-62855840D01*
X140780014Y-62668277D01*
X140629670Y-62503051D01*
X140625619Y-62499852D01*
X140625615Y-62499848D01*
X140458414Y-62367800D01*
X140458410Y-62367798D01*
X140454359Y-62364598D01*
X140413053Y-62341796D01*
X140363084Y-62291364D01*
X140348312Y-62221921D01*
X140373428Y-62155516D01*
X140400780Y-62128909D01*
X140444603Y-62097650D01*
X140579860Y-62001173D01*
X140738096Y-61843489D01*
X140797594Y-61760689D01*
X140865435Y-61666277D01*
X140868453Y-61662077D01*
X140967430Y-61461811D01*
X141032370Y-61248069D01*
X141061529Y-61026590D01*
X141063156Y-60960000D01*
X141044852Y-60737361D01*
X140990431Y-60520702D01*
X140901354Y-60315840D01*
X140780014Y-60128277D01*
X140629670Y-59963051D01*
X140625619Y-59959852D01*
X140625615Y-59959848D01*
X140458414Y-59827800D01*
X140458410Y-59827798D01*
X140454359Y-59824598D01*
X140413053Y-59801796D01*
X140363084Y-59751364D01*
X140348312Y-59681921D01*
X140373428Y-59615516D01*
X140400780Y-59588909D01*
X140444603Y-59557650D01*
X140579860Y-59461173D01*
X140738096Y-59303489D01*
X140797594Y-59220689D01*
X140865435Y-59126277D01*
X140868453Y-59122077D01*
X140967430Y-58921811D01*
X141032370Y-58708069D01*
X141061529Y-58486590D01*
X141063156Y-58420000D01*
X141044852Y-58197361D01*
X140990431Y-57980702D01*
X140901354Y-57775840D01*
X140780014Y-57588277D01*
X140776532Y-57584450D01*
X140632798Y-57426488D01*
X140601746Y-57362642D01*
X140610141Y-57292143D01*
X140655317Y-57237375D01*
X140681761Y-57223706D01*
X140788297Y-57183767D01*
X140796705Y-57180615D01*
X140913261Y-57093261D01*
X141000615Y-56976705D01*
X141051745Y-56840316D01*
X141058500Y-56778134D01*
X141058500Y-54981866D01*
X141051745Y-54919684D01*
X141000615Y-54783295D01*
X140913261Y-54666739D01*
X140796705Y-54579385D01*
X140660316Y-54528255D01*
X140598134Y-54521500D01*
X138801866Y-54521500D01*
X138739684Y-54528255D01*
X138603295Y-54579385D01*
X138486739Y-54666739D01*
X138399385Y-54783295D01*
X138348255Y-54919684D01*
X138341500Y-54981866D01*
X138341500Y-56778134D01*
X138348255Y-56840316D01*
X138399385Y-56976705D01*
X138486739Y-57093261D01*
X138603295Y-57180615D01*
X138611704Y-57183767D01*
X138611705Y-57183768D01*
X138720451Y-57224535D01*
X138777216Y-57267176D01*
X138801916Y-57333738D01*
X138786709Y-57403087D01*
X138767316Y-57429568D01*
X138640629Y-57562138D01*
X138514743Y-57746680D01*
X138420688Y-57949305D01*
X138360989Y-58164570D01*
X138337251Y-58386695D01*
X138337548Y-58391848D01*
X138337548Y-58391851D01*
X138343011Y-58486590D01*
X138350110Y-58609715D01*
X138351247Y-58614761D01*
X138351248Y-58614767D01*
X138371119Y-58702939D01*
X138399222Y-58827639D01*
X138483266Y-59034616D01*
X138599987Y-59225088D01*
X138746250Y-59393938D01*
X138918126Y-59536632D01*
X138988595Y-59577811D01*
X138991445Y-59579476D01*
X139040169Y-59631114D01*
X139053240Y-59700897D01*
X139026509Y-59766669D01*
X138986055Y-59800027D01*
X138973607Y-59806507D01*
X138969474Y-59809610D01*
X138969471Y-59809612D01*
X138945247Y-59827800D01*
X138794965Y-59940635D01*
X138640629Y-60102138D01*
X138514743Y-60286680D01*
X138420688Y-60489305D01*
X138360989Y-60704570D01*
X138337251Y-60926695D01*
X138337548Y-60931848D01*
X138337548Y-60931851D01*
X138343011Y-61026590D01*
X138350110Y-61149715D01*
X138351247Y-61154761D01*
X138351248Y-61154767D01*
X138371119Y-61242939D01*
X138399222Y-61367639D01*
X138483266Y-61574616D01*
X138599987Y-61765088D01*
X138746250Y-61933938D01*
X138918126Y-62076632D01*
X138988595Y-62117811D01*
X138991445Y-62119476D01*
X139040169Y-62171114D01*
X139053240Y-62240897D01*
X139026509Y-62306669D01*
X138986055Y-62340027D01*
X138973607Y-62346507D01*
X138969474Y-62349610D01*
X138969471Y-62349612D01*
X138945247Y-62367800D01*
X138794965Y-62480635D01*
X138640629Y-62642138D01*
X138514743Y-62826680D01*
X138420688Y-63029305D01*
X138360989Y-63244570D01*
X138337251Y-63466695D01*
X136128500Y-63466695D01*
X136128500Y-53974500D01*
X136148502Y-53906379D01*
X136202158Y-53859886D01*
X136254500Y-53848500D01*
X166685500Y-53848500D01*
X166753621Y-53868502D01*
G37*
%TD.AperFunction*%
%TD*%
M02*
