%TF.GenerationSoftware,KiCad,Pcbnew,(6.0.5)*%
%TF.CreationDate,2024-12-30T18:06:44+01:00*%
%TF.ProjectId,basys_pmod_converter,62617379-735f-4706-9d6f-645f636f6e76,rev?*%
%TF.SameCoordinates,Original*%
%TF.FileFunction,Legend,Top*%
%TF.FilePolarity,Positive*%
%FSLAX46Y46*%
G04 Gerber Fmt 4.6, Leading zero omitted, Abs format (unit mm)*
G04 Created by KiCad (PCBNEW (6.0.5)) date 2024-12-30 18:06:44*
%MOMM*%
%LPD*%
G01*
G04 APERTURE LIST*
G04 Aperture macros list*
%AMRoundRect*
0 Rectangle with rounded corners*
0 $1 Rounding radius*
0 $2 $3 $4 $5 $6 $7 $8 $9 X,Y pos of 4 corners*
0 Add a 4 corners polygon primitive as box body*
4,1,4,$2,$3,$4,$5,$6,$7,$8,$9,$2,$3,0*
0 Add four circle primitives for the rounded corners*
1,1,$1+$1,$2,$3*
1,1,$1+$1,$4,$5*
1,1,$1+$1,$6,$7*
1,1,$1+$1,$8,$9*
0 Add four rect primitives between the rounded corners*
20,1,$1+$1,$2,$3,$4,$5,0*
20,1,$1+$1,$4,$5,$6,$7,0*
20,1,$1+$1,$6,$7,$8,$9,0*
20,1,$1+$1,$8,$9,$2,$3,0*%
G04 Aperture macros list end*
%ADD10C,0.150000*%
%ADD11C,0.120000*%
%ADD12RoundRect,0.250000X0.475000X-0.250000X0.475000X0.250000X-0.475000X0.250000X-0.475000X-0.250000X0*%
%ADD13R,1.700000X1.700000*%
%ADD14O,1.700000X1.700000*%
%ADD15RoundRect,0.243750X0.243750X0.456250X-0.243750X0.456250X-0.243750X-0.456250X0.243750X-0.456250X0*%
%ADD16RoundRect,0.250000X0.262500X0.450000X-0.262500X0.450000X-0.262500X-0.450000X0.262500X-0.450000X0*%
G04 APERTURE END LIST*
D10*
X150680952Y-63628571D02*
X151014285Y-63628571D01*
X151157142Y-64152380D02*
X150680952Y-64152380D01*
X150680952Y-63152380D01*
X151157142Y-63152380D01*
X152061904Y-64152380D02*
X151585714Y-64152380D01*
X151585714Y-63152380D01*
X152966666Y-64152380D02*
X152633333Y-63676190D01*
X152395238Y-64152380D02*
X152395238Y-63152380D01*
X152776190Y-63152380D01*
X152871428Y-63200000D01*
X152919047Y-63247619D01*
X152966666Y-63342857D01*
X152966666Y-63485714D01*
X152919047Y-63580952D01*
X152871428Y-63628571D01*
X152776190Y-63676190D01*
X152395238Y-63676190D01*
X140272857Y-96956571D02*
X140415714Y-97004190D01*
X140463333Y-97051809D01*
X140510952Y-97147047D01*
X140510952Y-97289904D01*
X140463333Y-97385142D01*
X140415714Y-97432761D01*
X140320476Y-97480380D01*
X139939523Y-97480380D01*
X139939523Y-96480380D01*
X140272857Y-96480380D01*
X140368095Y-96528000D01*
X140415714Y-96575619D01*
X140463333Y-96670857D01*
X140463333Y-96766095D01*
X140415714Y-96861333D01*
X140368095Y-96908952D01*
X140272857Y-96956571D01*
X139939523Y-96956571D01*
X140891904Y-97194666D02*
X141368095Y-97194666D01*
X140796666Y-97480380D02*
X141130000Y-96480380D01*
X141463333Y-97480380D01*
X141749047Y-97432761D02*
X141891904Y-97480380D01*
X142130000Y-97480380D01*
X142225238Y-97432761D01*
X142272857Y-97385142D01*
X142320476Y-97289904D01*
X142320476Y-97194666D01*
X142272857Y-97099428D01*
X142225238Y-97051809D01*
X142130000Y-97004190D01*
X141939523Y-96956571D01*
X141844285Y-96908952D01*
X141796666Y-96861333D01*
X141749047Y-96766095D01*
X141749047Y-96670857D01*
X141796666Y-96575619D01*
X141844285Y-96528000D01*
X141939523Y-96480380D01*
X142177619Y-96480380D01*
X142320476Y-96528000D01*
X142939523Y-97004190D02*
X142939523Y-97480380D01*
X142606190Y-96480380D02*
X142939523Y-97004190D01*
X143272857Y-96480380D01*
X143558571Y-97432761D02*
X143701428Y-97480380D01*
X143939523Y-97480380D01*
X144034761Y-97432761D01*
X144082380Y-97385142D01*
X144130000Y-97289904D01*
X144130000Y-97194666D01*
X144082380Y-97099428D01*
X144034761Y-97051809D01*
X143939523Y-97004190D01*
X143749047Y-96956571D01*
X143653809Y-96908952D01*
X143606190Y-96861333D01*
X143558571Y-96766095D01*
X143558571Y-96670857D01*
X143606190Y-96575619D01*
X143653809Y-96528000D01*
X143749047Y-96480380D01*
X143987142Y-96480380D01*
X144130000Y-96528000D01*
X145320476Y-97480380D02*
X145320476Y-96480380D01*
X145701428Y-96480380D01*
X145796666Y-96528000D01*
X145844285Y-96575619D01*
X145891904Y-96670857D01*
X145891904Y-96813714D01*
X145844285Y-96908952D01*
X145796666Y-96956571D01*
X145701428Y-97004190D01*
X145320476Y-97004190D01*
X146320476Y-97480380D02*
X146320476Y-96480380D01*
X146653809Y-97194666D01*
X146987142Y-96480380D01*
X146987142Y-97480380D01*
X147653809Y-96480380D02*
X147844285Y-96480380D01*
X147939523Y-96528000D01*
X148034761Y-96623238D01*
X148082380Y-96813714D01*
X148082380Y-97147047D01*
X148034761Y-97337523D01*
X147939523Y-97432761D01*
X147844285Y-97480380D01*
X147653809Y-97480380D01*
X147558571Y-97432761D01*
X147463333Y-97337523D01*
X147415714Y-97147047D01*
X147415714Y-96813714D01*
X147463333Y-96623238D01*
X147558571Y-96528000D01*
X147653809Y-96480380D01*
X148510952Y-97480380D02*
X148510952Y-96480380D01*
X148749047Y-96480380D01*
X148891904Y-96528000D01*
X148987142Y-96623238D01*
X149034761Y-96718476D01*
X149082380Y-96908952D01*
X149082380Y-97051809D01*
X149034761Y-97242285D01*
X148987142Y-97337523D01*
X148891904Y-97432761D01*
X148749047Y-97480380D01*
X148510952Y-97480380D01*
X150844285Y-97385142D02*
X150796666Y-97432761D01*
X150653809Y-97480380D01*
X150558571Y-97480380D01*
X150415714Y-97432761D01*
X150320476Y-97337523D01*
X150272857Y-97242285D01*
X150225238Y-97051809D01*
X150225238Y-96908952D01*
X150272857Y-96718476D01*
X150320476Y-96623238D01*
X150415714Y-96528000D01*
X150558571Y-96480380D01*
X150653809Y-96480380D01*
X150796666Y-96528000D01*
X150844285Y-96575619D01*
X151463333Y-96480380D02*
X151653809Y-96480380D01*
X151749047Y-96528000D01*
X151844285Y-96623238D01*
X151891904Y-96813714D01*
X151891904Y-97147047D01*
X151844285Y-97337523D01*
X151749047Y-97432761D01*
X151653809Y-97480380D01*
X151463333Y-97480380D01*
X151368095Y-97432761D01*
X151272857Y-97337523D01*
X151225238Y-97147047D01*
X151225238Y-96813714D01*
X151272857Y-96623238D01*
X151368095Y-96528000D01*
X151463333Y-96480380D01*
X152320476Y-97480380D02*
X152320476Y-96480380D01*
X152891904Y-97480380D01*
X152891904Y-96480380D01*
X153225238Y-96480380D02*
X153558571Y-97480380D01*
X153891904Y-96480380D01*
X154225238Y-96956571D02*
X154558571Y-96956571D01*
X154701428Y-97480380D02*
X154225238Y-97480380D01*
X154225238Y-96480380D01*
X154701428Y-96480380D01*
X155701428Y-97480380D02*
X155368095Y-97004190D01*
X155130000Y-97480380D02*
X155130000Y-96480380D01*
X155510952Y-96480380D01*
X155606190Y-96528000D01*
X155653809Y-96575619D01*
X155701428Y-96670857D01*
X155701428Y-96813714D01*
X155653809Y-96908952D01*
X155606190Y-96956571D01*
X155510952Y-97004190D01*
X155130000Y-97004190D01*
X155987142Y-96480380D02*
X156558571Y-96480380D01*
X156272857Y-97480380D02*
X156272857Y-96480380D01*
X156891904Y-96956571D02*
X157225238Y-96956571D01*
X157368095Y-97480380D02*
X156891904Y-97480380D01*
X156891904Y-96480380D01*
X157368095Y-96480380D01*
X158368095Y-97480380D02*
X158034761Y-97004190D01*
X157796666Y-97480380D02*
X157796666Y-96480380D01*
X158177619Y-96480380D01*
X158272857Y-96528000D01*
X158320476Y-96575619D01*
X158368095Y-96670857D01*
X158368095Y-96813714D01*
X158320476Y-96908952D01*
X158272857Y-96956571D01*
X158177619Y-97004190D01*
X157796666Y-97004190D01*
X159415714Y-96480380D02*
X159749047Y-97480380D01*
X160082380Y-96480380D01*
X160939523Y-97480380D02*
X160368095Y-97480380D01*
X160653809Y-97480380D02*
X160653809Y-96480380D01*
X160558571Y-96623238D01*
X160463333Y-96718476D01*
X160368095Y-96766095D01*
X161368095Y-97385142D02*
X161415714Y-97432761D01*
X161368095Y-97480380D01*
X161320476Y-97432761D01*
X161368095Y-97385142D01*
X161368095Y-97480380D01*
X162034761Y-96480380D02*
X162130000Y-96480380D01*
X162225238Y-96528000D01*
X162272857Y-96575619D01*
X162320476Y-96670857D01*
X162368095Y-96861333D01*
X162368095Y-97099428D01*
X162320476Y-97289904D01*
X162272857Y-97385142D01*
X162225238Y-97432761D01*
X162130000Y-97480380D01*
X162034761Y-97480380D01*
X161939523Y-97432761D01*
X161891904Y-97385142D01*
X161844285Y-97289904D01*
X161796666Y-97099428D01*
X161796666Y-96861333D01*
X161844285Y-96670857D01*
X161891904Y-96575619D01*
X161939523Y-96528000D01*
X162034761Y-96480380D01*
%TO.C,C2*%
X150963333Y-111101142D02*
X150915714Y-111148761D01*
X150772857Y-111196380D01*
X150677619Y-111196380D01*
X150534761Y-111148761D01*
X150439523Y-111053523D01*
X150391904Y-110958285D01*
X150344285Y-110767809D01*
X150344285Y-110624952D01*
X150391904Y-110434476D01*
X150439523Y-110339238D01*
X150534761Y-110244000D01*
X150677619Y-110196380D01*
X150772857Y-110196380D01*
X150915714Y-110244000D01*
X150963333Y-110291619D01*
X151344285Y-110291619D02*
X151391904Y-110244000D01*
X151487142Y-110196380D01*
X151725238Y-110196380D01*
X151820476Y-110244000D01*
X151868095Y-110291619D01*
X151915714Y-110386857D01*
X151915714Y-110482095D01*
X151868095Y-110624952D01*
X151296666Y-111196380D01*
X151915714Y-111196380D01*
%TO.C,J1*%
X154606666Y-75652380D02*
X154606666Y-76366666D01*
X154559047Y-76509523D01*
X154463809Y-76604761D01*
X154320952Y-76652380D01*
X154225714Y-76652380D01*
X155606666Y-76652380D02*
X155035238Y-76652380D01*
X155320952Y-76652380D02*
X155320952Y-75652380D01*
X155225714Y-75795238D01*
X155130476Y-75890476D01*
X155035238Y-75938095D01*
%TO.C,C1*%
X150963333Y-88241142D02*
X150915714Y-88288761D01*
X150772857Y-88336380D01*
X150677619Y-88336380D01*
X150534761Y-88288761D01*
X150439523Y-88193523D01*
X150391904Y-88098285D01*
X150344285Y-87907809D01*
X150344285Y-87764952D01*
X150391904Y-87574476D01*
X150439523Y-87479238D01*
X150534761Y-87384000D01*
X150677619Y-87336380D01*
X150772857Y-87336380D01*
X150915714Y-87384000D01*
X150963333Y-87431619D01*
X151915714Y-88336380D02*
X151344285Y-88336380D01*
X151630000Y-88336380D02*
X151630000Y-87336380D01*
X151534761Y-87479238D01*
X151439523Y-87574476D01*
X151344285Y-87622095D01*
%TO.C,PMOD4*%
X141684666Y-124912380D02*
X141684666Y-123912380D01*
X142065619Y-123912380D01*
X142160857Y-123960000D01*
X142208476Y-124007619D01*
X142256095Y-124102857D01*
X142256095Y-124245714D01*
X142208476Y-124340952D01*
X142160857Y-124388571D01*
X142065619Y-124436190D01*
X141684666Y-124436190D01*
X142684666Y-124912380D02*
X142684666Y-123912380D01*
X143018000Y-124626666D01*
X143351333Y-123912380D01*
X143351333Y-124912380D01*
X144018000Y-123912380D02*
X144208476Y-123912380D01*
X144303714Y-123960000D01*
X144398952Y-124055238D01*
X144446571Y-124245714D01*
X144446571Y-124579047D01*
X144398952Y-124769523D01*
X144303714Y-124864761D01*
X144208476Y-124912380D01*
X144018000Y-124912380D01*
X143922761Y-124864761D01*
X143827523Y-124769523D01*
X143779904Y-124579047D01*
X143779904Y-124245714D01*
X143827523Y-124055238D01*
X143922761Y-123960000D01*
X144018000Y-123912380D01*
X144875142Y-124912380D02*
X144875142Y-123912380D01*
X145113238Y-123912380D01*
X145256095Y-123960000D01*
X145351333Y-124055238D01*
X145398952Y-124150476D01*
X145446571Y-124340952D01*
X145446571Y-124483809D01*
X145398952Y-124674285D01*
X145351333Y-124769523D01*
X145256095Y-124864761D01*
X145113238Y-124912380D01*
X144875142Y-124912380D01*
X146303714Y-124245714D02*
X146303714Y-124912380D01*
X146065619Y-123864761D02*
X145827523Y-124579047D01*
X146446571Y-124579047D01*
%TO.C,D1*%
X153947904Y-134564380D02*
X153947904Y-133564380D01*
X154186000Y-133564380D01*
X154328857Y-133612000D01*
X154424095Y-133707238D01*
X154471714Y-133802476D01*
X154519333Y-133992952D01*
X154519333Y-134135809D01*
X154471714Y-134326285D01*
X154424095Y-134421523D01*
X154328857Y-134516761D01*
X154186000Y-134564380D01*
X153947904Y-134564380D01*
X155471714Y-134564380D02*
X154900285Y-134564380D01*
X155186000Y-134564380D02*
X155186000Y-133564380D01*
X155090761Y-133707238D01*
X154995523Y-133802476D01*
X154900285Y-133850095D01*
%TO.C,PMOD2*%
X141684666Y-79192380D02*
X141684666Y-78192380D01*
X142065619Y-78192380D01*
X142160857Y-78240000D01*
X142208476Y-78287619D01*
X142256095Y-78382857D01*
X142256095Y-78525714D01*
X142208476Y-78620952D01*
X142160857Y-78668571D01*
X142065619Y-78716190D01*
X141684666Y-78716190D01*
X142684666Y-79192380D02*
X142684666Y-78192380D01*
X143018000Y-78906666D01*
X143351333Y-78192380D01*
X143351333Y-79192380D01*
X144018000Y-78192380D02*
X144208476Y-78192380D01*
X144303714Y-78240000D01*
X144398952Y-78335238D01*
X144446571Y-78525714D01*
X144446571Y-78859047D01*
X144398952Y-79049523D01*
X144303714Y-79144761D01*
X144208476Y-79192380D01*
X144018000Y-79192380D01*
X143922761Y-79144761D01*
X143827523Y-79049523D01*
X143779904Y-78859047D01*
X143779904Y-78525714D01*
X143827523Y-78335238D01*
X143922761Y-78240000D01*
X144018000Y-78192380D01*
X144875142Y-79192380D02*
X144875142Y-78192380D01*
X145113238Y-78192380D01*
X145256095Y-78240000D01*
X145351333Y-78335238D01*
X145398952Y-78430476D01*
X145446571Y-78620952D01*
X145446571Y-78763809D01*
X145398952Y-78954285D01*
X145351333Y-79049523D01*
X145256095Y-79144761D01*
X145113238Y-79192380D01*
X144875142Y-79192380D01*
X145827523Y-78287619D02*
X145875142Y-78240000D01*
X145970380Y-78192380D01*
X146208476Y-78192380D01*
X146303714Y-78240000D01*
X146351333Y-78287619D01*
X146398952Y-78382857D01*
X146398952Y-78478095D01*
X146351333Y-78620952D01*
X145779904Y-79192380D01*
X146398952Y-79192380D01*
%TO.C,PMOD1*%
X141684666Y-56332380D02*
X141684666Y-55332380D01*
X142065619Y-55332380D01*
X142160857Y-55380000D01*
X142208476Y-55427619D01*
X142256095Y-55522857D01*
X142256095Y-55665714D01*
X142208476Y-55760952D01*
X142160857Y-55808571D01*
X142065619Y-55856190D01*
X141684666Y-55856190D01*
X142684666Y-56332380D02*
X142684666Y-55332380D01*
X143018000Y-56046666D01*
X143351333Y-55332380D01*
X143351333Y-56332380D01*
X144018000Y-55332380D02*
X144208476Y-55332380D01*
X144303714Y-55380000D01*
X144398952Y-55475238D01*
X144446571Y-55665714D01*
X144446571Y-55999047D01*
X144398952Y-56189523D01*
X144303714Y-56284761D01*
X144208476Y-56332380D01*
X144018000Y-56332380D01*
X143922761Y-56284761D01*
X143827523Y-56189523D01*
X143779904Y-55999047D01*
X143779904Y-55665714D01*
X143827523Y-55475238D01*
X143922761Y-55380000D01*
X144018000Y-55332380D01*
X144875142Y-56332380D02*
X144875142Y-55332380D01*
X145113238Y-55332380D01*
X145256095Y-55380000D01*
X145351333Y-55475238D01*
X145398952Y-55570476D01*
X145446571Y-55760952D01*
X145446571Y-55903809D01*
X145398952Y-56094285D01*
X145351333Y-56189523D01*
X145256095Y-56284761D01*
X145113238Y-56332380D01*
X144875142Y-56332380D01*
X146398952Y-56332380D02*
X145827523Y-56332380D01*
X146113238Y-56332380D02*
X146113238Y-55332380D01*
X146018000Y-55475238D01*
X145922761Y-55570476D01*
X145827523Y-55618095D01*
%TO.C,R1*%
X149693333Y-134564380D02*
X149360000Y-134088190D01*
X149121904Y-134564380D02*
X149121904Y-133564380D01*
X149502857Y-133564380D01*
X149598095Y-133612000D01*
X149645714Y-133659619D01*
X149693333Y-133754857D01*
X149693333Y-133897714D01*
X149645714Y-133992952D01*
X149598095Y-134040571D01*
X149502857Y-134088190D01*
X149121904Y-134088190D01*
X150645714Y-134564380D02*
X150074285Y-134564380D01*
X150360000Y-134564380D02*
X150360000Y-133564380D01*
X150264761Y-133707238D01*
X150169523Y-133802476D01*
X150074285Y-133850095D01*
%TO.C,PMOD3*%
X141684666Y-102052380D02*
X141684666Y-101052380D01*
X142065619Y-101052380D01*
X142160857Y-101100000D01*
X142208476Y-101147619D01*
X142256095Y-101242857D01*
X142256095Y-101385714D01*
X142208476Y-101480952D01*
X142160857Y-101528571D01*
X142065619Y-101576190D01*
X141684666Y-101576190D01*
X142684666Y-102052380D02*
X142684666Y-101052380D01*
X143018000Y-101766666D01*
X143351333Y-101052380D01*
X143351333Y-102052380D01*
X144018000Y-101052380D02*
X144208476Y-101052380D01*
X144303714Y-101100000D01*
X144398952Y-101195238D01*
X144446571Y-101385714D01*
X144446571Y-101719047D01*
X144398952Y-101909523D01*
X144303714Y-102004761D01*
X144208476Y-102052380D01*
X144018000Y-102052380D01*
X143922761Y-102004761D01*
X143827523Y-101909523D01*
X143779904Y-101719047D01*
X143779904Y-101385714D01*
X143827523Y-101195238D01*
X143922761Y-101100000D01*
X144018000Y-101052380D01*
X144875142Y-102052380D02*
X144875142Y-101052380D01*
X145113238Y-101052380D01*
X145256095Y-101100000D01*
X145351333Y-101195238D01*
X145398952Y-101290476D01*
X145446571Y-101480952D01*
X145446571Y-101623809D01*
X145398952Y-101814285D01*
X145351333Y-101909523D01*
X145256095Y-102004761D01*
X145113238Y-102052380D01*
X144875142Y-102052380D01*
X145779904Y-101052380D02*
X146398952Y-101052380D01*
X146065619Y-101433333D01*
X146208476Y-101433333D01*
X146303714Y-101480952D01*
X146351333Y-101528571D01*
X146398952Y-101623809D01*
X146398952Y-101861904D01*
X146351333Y-101957142D01*
X146303714Y-102004761D01*
X146208476Y-102052380D01*
X145922761Y-102052380D01*
X145827523Y-102004761D01*
X145779904Y-101957142D01*
%TO.C,J2*%
X154606666Y-98512380D02*
X154606666Y-99226666D01*
X154559047Y-99369523D01*
X154463809Y-99464761D01*
X154320952Y-99512380D01*
X154225714Y-99512380D01*
X155035238Y-98607619D02*
X155082857Y-98560000D01*
X155178095Y-98512380D01*
X155416190Y-98512380D01*
X155511428Y-98560000D01*
X155559047Y-98607619D01*
X155606666Y-98702857D01*
X155606666Y-98798095D01*
X155559047Y-98940952D01*
X154987619Y-99512380D01*
X155606666Y-99512380D01*
D11*
%TO.C,C2*%
X151865000Y-113291252D02*
X151865000Y-112768748D01*
X150395000Y-113291252D02*
X150395000Y-112768748D01*
%TO.C,J1*%
X167570000Y-87630000D02*
X158940000Y-87630000D01*
X156430000Y-80920000D02*
X155990000Y-80920000D01*
X156430000Y-91800000D02*
X155990000Y-91800000D01*
X158940000Y-86720000D02*
X158530000Y-86720000D01*
X167570000Y-77884285D02*
X158940000Y-77884285D01*
X156430000Y-86000000D02*
X155990000Y-86000000D01*
X158940000Y-86000000D02*
X158530000Y-86000000D01*
X167570000Y-78592855D02*
X158940000Y-78592855D01*
X167570000Y-80010000D02*
X158940000Y-80010000D01*
X156430000Y-91080000D02*
X155990000Y-91080000D01*
X158940000Y-91080000D02*
X158530000Y-91080000D01*
X167570000Y-77648095D02*
X158940000Y-77648095D01*
X158940000Y-78380000D02*
X158530000Y-78380000D01*
X158940000Y-91800000D02*
X158530000Y-91800000D01*
X153830000Y-77410000D02*
X153830000Y-78740000D01*
X167570000Y-85090000D02*
X158940000Y-85090000D01*
X167570000Y-78947140D02*
X158940000Y-78947140D01*
X158940000Y-88540000D02*
X158530000Y-88540000D01*
X156430000Y-88540000D02*
X155990000Y-88540000D01*
X167570000Y-77766190D02*
X158940000Y-77766190D01*
X167570000Y-78710950D02*
X158940000Y-78710950D01*
X167570000Y-79773805D02*
X158940000Y-79773805D01*
X167570000Y-82550000D02*
X158940000Y-82550000D01*
X167570000Y-79419520D02*
X158940000Y-79419520D01*
X158940000Y-83460000D02*
X158530000Y-83460000D01*
X167570000Y-79065235D02*
X158940000Y-79065235D01*
X158940000Y-81640000D02*
X158530000Y-81640000D01*
X156430000Y-84180000D02*
X155990000Y-84180000D01*
X156430000Y-79100000D02*
X156050000Y-79100000D01*
X167570000Y-79301425D02*
X158940000Y-79301425D01*
X156430000Y-89260000D02*
X155990000Y-89260000D01*
X167570000Y-79891900D02*
X158940000Y-79891900D01*
X167570000Y-79655710D02*
X158940000Y-79655710D01*
X167570000Y-78474760D02*
X158940000Y-78474760D01*
X167570000Y-77410000D02*
X158940000Y-77410000D01*
X158940000Y-84180000D02*
X158530000Y-84180000D01*
X156430000Y-78380000D02*
X156050000Y-78380000D01*
X167570000Y-77530000D02*
X158940000Y-77530000D01*
X167570000Y-92770000D02*
X158940000Y-92770000D01*
X167570000Y-79183330D02*
X158940000Y-79183330D01*
X167570000Y-78356665D02*
X158940000Y-78356665D01*
X156430000Y-86720000D02*
X155990000Y-86720000D01*
X158940000Y-89260000D02*
X158530000Y-89260000D01*
X158940000Y-77410000D02*
X158940000Y-92770000D01*
X167570000Y-78829045D02*
X158940000Y-78829045D01*
X167570000Y-77410000D02*
X167570000Y-92770000D01*
X156430000Y-81640000D02*
X155990000Y-81640000D01*
X167570000Y-79537615D02*
X158940000Y-79537615D01*
X167570000Y-78238570D02*
X158940000Y-78238570D01*
X167570000Y-78002380D02*
X158940000Y-78002380D01*
X156430000Y-83460000D02*
X155990000Y-83460000D01*
X158940000Y-79100000D02*
X158530000Y-79100000D01*
X167570000Y-78120475D02*
X158940000Y-78120475D01*
X167570000Y-90170000D02*
X158940000Y-90170000D01*
X158940000Y-80920000D02*
X158530000Y-80920000D01*
X154940000Y-77410000D02*
X153830000Y-77410000D01*
%TO.C,C1*%
X151865000Y-90431252D02*
X151865000Y-89908748D01*
X150395000Y-90431252D02*
X150395000Y-89908748D01*
%TO.C,PMOD4*%
X129600000Y-137540000D02*
X135600000Y-137540000D01*
X135600000Y-124140000D02*
X129600000Y-124140000D01*
X138260000Y-138490000D02*
X135600000Y-138490000D01*
X140970000Y-124460000D02*
X140970000Y-123190000D01*
X138657071Y-126620000D02*
X138260000Y-126620000D01*
X129600000Y-134240000D02*
X129600000Y-135000000D01*
X135600000Y-124080000D02*
X129600000Y-124080000D01*
X135600000Y-123130000D02*
X138260000Y-123130000D01*
X138657071Y-137540000D02*
X138260000Y-137540000D01*
X135600000Y-124380000D02*
X129600000Y-124380000D01*
X129600000Y-131700000D02*
X129600000Y-132460000D01*
X138260000Y-130810000D02*
X135600000Y-130810000D01*
X135600000Y-138490000D02*
X135600000Y-123130000D01*
X138260000Y-133350000D02*
X135600000Y-133350000D01*
X129600000Y-132460000D02*
X135600000Y-132460000D01*
X138590000Y-124840000D02*
X138260000Y-124840000D01*
X138657071Y-136780000D02*
X138260000Y-136780000D01*
X138657071Y-134240000D02*
X138260000Y-134240000D01*
X129600000Y-124840000D02*
X135600000Y-124840000D01*
X138260000Y-135890000D02*
X135600000Y-135890000D01*
X138657071Y-131700000D02*
X138260000Y-131700000D01*
X138657071Y-127380000D02*
X138260000Y-127380000D01*
X135600000Y-124260000D02*
X129600000Y-124260000D01*
X135600000Y-124620000D02*
X129600000Y-124620000D01*
X135600000Y-124740000D02*
X129600000Y-124740000D01*
X138260000Y-128270000D02*
X135600000Y-128270000D01*
X135600000Y-124500000D02*
X129600000Y-124500000D01*
X140970000Y-123190000D02*
X139700000Y-123190000D01*
X129600000Y-136780000D02*
X129600000Y-137540000D01*
X129600000Y-129920000D02*
X135600000Y-129920000D01*
X129600000Y-124080000D02*
X129600000Y-124840000D01*
X138657071Y-132460000D02*
X138260000Y-132460000D01*
X138657071Y-129160000D02*
X138260000Y-129160000D01*
X129600000Y-126620000D02*
X129600000Y-127380000D01*
X138590000Y-124080000D02*
X138260000Y-124080000D01*
X129600000Y-127380000D02*
X135600000Y-127380000D01*
X138260000Y-123130000D02*
X138260000Y-138490000D01*
X135600000Y-129160000D02*
X129600000Y-129160000D01*
X138657071Y-129920000D02*
X138260000Y-129920000D01*
X135600000Y-126620000D02*
X129600000Y-126620000D01*
X135600000Y-134240000D02*
X129600000Y-134240000D01*
X135600000Y-131700000D02*
X129600000Y-131700000D01*
X138260000Y-125730000D02*
X135600000Y-125730000D01*
X138657071Y-135000000D02*
X138260000Y-135000000D01*
X135600000Y-136780000D02*
X129600000Y-136780000D01*
X129600000Y-129160000D02*
X129600000Y-129920000D01*
X129600000Y-135000000D02*
X135600000Y-135000000D01*
%TO.C,D1*%
X156371000Y-134930000D02*
X153686000Y-134930000D01*
X156371000Y-136850000D02*
X156371000Y-134930000D01*
X153686000Y-136850000D02*
X156371000Y-136850000D01*
%TO.C,PMOD2*%
X129600000Y-80900000D02*
X129600000Y-81660000D01*
X138657071Y-84200000D02*
X138260000Y-84200000D01*
X138590000Y-79120000D02*
X138260000Y-79120000D01*
X138590000Y-78360000D02*
X138260000Y-78360000D01*
X138657071Y-83440000D02*
X138260000Y-83440000D01*
X138657071Y-88520000D02*
X138260000Y-88520000D01*
X135600000Y-80900000D02*
X129600000Y-80900000D01*
X129600000Y-78360000D02*
X129600000Y-79120000D01*
X129600000Y-79120000D02*
X135600000Y-79120000D01*
X129600000Y-85980000D02*
X129600000Y-86740000D01*
X135600000Y-78540000D02*
X129600000Y-78540000D01*
X138657071Y-85980000D02*
X138260000Y-85980000D01*
X140970000Y-77470000D02*
X139700000Y-77470000D01*
X138260000Y-85090000D02*
X135600000Y-85090000D01*
X135600000Y-77410000D02*
X138260000Y-77410000D01*
X129600000Y-91060000D02*
X129600000Y-91820000D01*
X135600000Y-88520000D02*
X129600000Y-88520000D01*
X138260000Y-80010000D02*
X135600000Y-80010000D01*
X129600000Y-89280000D02*
X135600000Y-89280000D01*
X140970000Y-78740000D02*
X140970000Y-77470000D01*
X135600000Y-78780000D02*
X129600000Y-78780000D01*
X138657071Y-81660000D02*
X138260000Y-81660000D01*
X129600000Y-83440000D02*
X129600000Y-84200000D01*
X135600000Y-91060000D02*
X129600000Y-91060000D01*
X129600000Y-88520000D02*
X129600000Y-89280000D01*
X138657071Y-89280000D02*
X138260000Y-89280000D01*
X138260000Y-90170000D02*
X135600000Y-90170000D01*
X138657071Y-91820000D02*
X138260000Y-91820000D01*
X138260000Y-87630000D02*
X135600000Y-87630000D01*
X138260000Y-77410000D02*
X138260000Y-92770000D01*
X135600000Y-83440000D02*
X129600000Y-83440000D01*
X135600000Y-78900000D02*
X129600000Y-78900000D01*
X135600000Y-79020000D02*
X129600000Y-79020000D01*
X129600000Y-91820000D02*
X135600000Y-91820000D01*
X135600000Y-78420000D02*
X129600000Y-78420000D01*
X138260000Y-82550000D02*
X135600000Y-82550000D01*
X138260000Y-92770000D02*
X135600000Y-92770000D01*
X135600000Y-78660000D02*
X129600000Y-78660000D01*
X129600000Y-84200000D02*
X135600000Y-84200000D01*
X138657071Y-91060000D02*
X138260000Y-91060000D01*
X129600000Y-81660000D02*
X135600000Y-81660000D01*
X138657071Y-86740000D02*
X138260000Y-86740000D01*
X129600000Y-86740000D02*
X135600000Y-86740000D01*
X135600000Y-85980000D02*
X129600000Y-85980000D01*
X135600000Y-78360000D02*
X129600000Y-78360000D01*
X135600000Y-92770000D02*
X135600000Y-77410000D01*
X138657071Y-80900000D02*
X138260000Y-80900000D01*
%TO.C,PMOD1*%
X135600000Y-65660000D02*
X129600000Y-65660000D01*
X135600000Y-55560000D02*
X129600000Y-55560000D01*
X129600000Y-63880000D02*
X135600000Y-63880000D01*
X135600000Y-68200000D02*
X129600000Y-68200000D01*
X138590000Y-56260000D02*
X138260000Y-56260000D01*
X138260000Y-62230000D02*
X135600000Y-62230000D01*
X135600000Y-54550000D02*
X138260000Y-54550000D01*
X129600000Y-61340000D02*
X135600000Y-61340000D01*
X129600000Y-63120000D02*
X129600000Y-63880000D01*
X138657071Y-58800000D02*
X138260000Y-58800000D01*
X135600000Y-55920000D02*
X129600000Y-55920000D01*
X129600000Y-66420000D02*
X135600000Y-66420000D01*
X138657071Y-61340000D02*
X138260000Y-61340000D01*
X129600000Y-60580000D02*
X129600000Y-61340000D01*
X135600000Y-63120000D02*
X129600000Y-63120000D01*
X138260000Y-69910000D02*
X135600000Y-69910000D01*
X138590000Y-55500000D02*
X138260000Y-55500000D01*
X138657071Y-63880000D02*
X138260000Y-63880000D01*
X129600000Y-58800000D02*
X135600000Y-58800000D01*
X135600000Y-60580000D02*
X129600000Y-60580000D01*
X138657071Y-63120000D02*
X138260000Y-63120000D01*
X129600000Y-68960000D02*
X135600000Y-68960000D01*
X135600000Y-55500000D02*
X129600000Y-55500000D01*
X138260000Y-54550000D02*
X138260000Y-69910000D01*
X135600000Y-56040000D02*
X129600000Y-56040000D01*
X138260000Y-57150000D02*
X135600000Y-57150000D01*
X138657071Y-68960000D02*
X138260000Y-68960000D01*
X129600000Y-68200000D02*
X129600000Y-68960000D01*
X135600000Y-56160000D02*
X129600000Y-56160000D01*
X135600000Y-55800000D02*
X129600000Y-55800000D01*
X140970000Y-55880000D02*
X140970000Y-54610000D01*
X135600000Y-58040000D02*
X129600000Y-58040000D01*
X135600000Y-69910000D02*
X135600000Y-54550000D01*
X129600000Y-55500000D02*
X129600000Y-56260000D01*
X135600000Y-55680000D02*
X129600000Y-55680000D01*
X138657071Y-68200000D02*
X138260000Y-68200000D01*
X138657071Y-65660000D02*
X138260000Y-65660000D01*
X129600000Y-65660000D02*
X129600000Y-66420000D01*
X138657071Y-58040000D02*
X138260000Y-58040000D01*
X129600000Y-58040000D02*
X129600000Y-58800000D01*
X138260000Y-64770000D02*
X135600000Y-64770000D01*
X129600000Y-56260000D02*
X135600000Y-56260000D01*
X138657071Y-60580000D02*
X138260000Y-60580000D01*
X138260000Y-59690000D02*
X135600000Y-59690000D01*
X138260000Y-67310000D02*
X135600000Y-67310000D01*
X138657071Y-66420000D02*
X138260000Y-66420000D01*
X140970000Y-54610000D02*
X139700000Y-54610000D01*
%TO.C,R1*%
X150087064Y-135155000D02*
X149632936Y-135155000D01*
X150087064Y-136625000D02*
X149632936Y-136625000D01*
%TO.C,PMOD3*%
X138657071Y-103760000D02*
X138260000Y-103760000D01*
X138260000Y-113030000D02*
X135600000Y-113030000D01*
X138260000Y-105410000D02*
X135600000Y-105410000D01*
X138260000Y-107950000D02*
X135600000Y-107950000D01*
X135600000Y-100270000D02*
X138260000Y-100270000D01*
X129600000Y-113920000D02*
X129600000Y-114680000D01*
X135600000Y-101760000D02*
X129600000Y-101760000D01*
X138657071Y-107060000D02*
X138260000Y-107060000D01*
X138657071Y-114680000D02*
X138260000Y-114680000D01*
X135600000Y-101400000D02*
X129600000Y-101400000D01*
X129600000Y-112140000D02*
X135600000Y-112140000D01*
X135600000Y-113920000D02*
X129600000Y-113920000D01*
X138260000Y-115630000D02*
X135600000Y-115630000D01*
X129600000Y-107060000D02*
X135600000Y-107060000D01*
X135600000Y-101880000D02*
X129600000Y-101880000D01*
X135600000Y-111380000D02*
X129600000Y-111380000D01*
X135600000Y-101520000D02*
X129600000Y-101520000D01*
X135600000Y-101640000D02*
X129600000Y-101640000D01*
X138657071Y-109600000D02*
X138260000Y-109600000D01*
X135600000Y-101280000D02*
X129600000Y-101280000D01*
X135600000Y-115630000D02*
X135600000Y-100270000D01*
X129600000Y-114680000D02*
X135600000Y-114680000D01*
X138590000Y-101220000D02*
X138260000Y-101220000D01*
X138260000Y-110490000D02*
X135600000Y-110490000D01*
X138657071Y-112140000D02*
X138260000Y-112140000D01*
X140970000Y-101600000D02*
X140970000Y-100330000D01*
X135600000Y-106300000D02*
X129600000Y-106300000D01*
X138657071Y-106300000D02*
X138260000Y-106300000D01*
X135600000Y-101220000D02*
X129600000Y-101220000D01*
X129600000Y-103760000D02*
X129600000Y-104520000D01*
X138657071Y-113920000D02*
X138260000Y-113920000D01*
X138260000Y-102870000D02*
X135600000Y-102870000D01*
X129600000Y-101980000D02*
X135600000Y-101980000D01*
X129600000Y-108840000D02*
X129600000Y-109600000D01*
X135600000Y-108840000D02*
X129600000Y-108840000D01*
X138657071Y-104520000D02*
X138260000Y-104520000D01*
X129600000Y-104520000D02*
X135600000Y-104520000D01*
X135600000Y-103760000D02*
X129600000Y-103760000D01*
X138260000Y-100270000D02*
X138260000Y-115630000D01*
X129600000Y-106300000D02*
X129600000Y-107060000D01*
X129600000Y-109600000D02*
X135600000Y-109600000D01*
X138657071Y-111380000D02*
X138260000Y-111380000D01*
X140970000Y-100330000D02*
X139700000Y-100330000D01*
X138657071Y-108840000D02*
X138260000Y-108840000D01*
X138590000Y-101980000D02*
X138260000Y-101980000D01*
X129600000Y-101220000D02*
X129600000Y-101980000D01*
X129600000Y-111380000D02*
X129600000Y-112140000D01*
%TO.C,J2*%
X154940000Y-100270000D02*
X153830000Y-100270000D01*
X158940000Y-106320000D02*
X158530000Y-106320000D01*
X156430000Y-103780000D02*
X155990000Y-103780000D01*
X167570000Y-113030000D02*
X158940000Y-113030000D01*
X156430000Y-107040000D02*
X155990000Y-107040000D01*
X167570000Y-102633805D02*
X158940000Y-102633805D01*
X158940000Y-103780000D02*
X158530000Y-103780000D01*
X158940000Y-107040000D02*
X158530000Y-107040000D01*
X158940000Y-109580000D02*
X158530000Y-109580000D01*
X167570000Y-102161425D02*
X158940000Y-102161425D01*
X156430000Y-101240000D02*
X156050000Y-101240000D01*
X156430000Y-113940000D02*
X155990000Y-113940000D01*
X167570000Y-107950000D02*
X158940000Y-107950000D01*
X156430000Y-112120000D02*
X155990000Y-112120000D01*
X167570000Y-100508095D02*
X158940000Y-100508095D01*
X167570000Y-101689045D02*
X158940000Y-101689045D01*
X158940000Y-112120000D02*
X158530000Y-112120000D01*
X167570000Y-100270000D02*
X158940000Y-100270000D01*
X167570000Y-100744285D02*
X158940000Y-100744285D01*
X167570000Y-115630000D02*
X158940000Y-115630000D01*
X156430000Y-104500000D02*
X155990000Y-104500000D01*
X167570000Y-105410000D02*
X158940000Y-105410000D01*
X156430000Y-114660000D02*
X155990000Y-114660000D01*
X167570000Y-100980475D02*
X158940000Y-100980475D01*
X167570000Y-101807140D02*
X158940000Y-101807140D01*
X167570000Y-101925235D02*
X158940000Y-101925235D01*
X167570000Y-101216665D02*
X158940000Y-101216665D01*
X167570000Y-102515710D02*
X158940000Y-102515710D01*
X167570000Y-100270000D02*
X167570000Y-115630000D01*
X153830000Y-100270000D02*
X153830000Y-101600000D01*
X158940000Y-111400000D02*
X158530000Y-111400000D01*
X158940000Y-101240000D02*
X158530000Y-101240000D01*
X156430000Y-106320000D02*
X155990000Y-106320000D01*
X167570000Y-102279520D02*
X158940000Y-102279520D01*
X158940000Y-100270000D02*
X158940000Y-115630000D01*
X156430000Y-109580000D02*
X155990000Y-109580000D01*
X167570000Y-102870000D02*
X158940000Y-102870000D01*
X167570000Y-100862380D02*
X158940000Y-100862380D01*
X156430000Y-111400000D02*
X155990000Y-111400000D01*
X167570000Y-101098570D02*
X158940000Y-101098570D01*
X158940000Y-104500000D02*
X158530000Y-104500000D01*
X167570000Y-100626190D02*
X158940000Y-100626190D01*
X158940000Y-101960000D02*
X158530000Y-101960000D01*
X167570000Y-101334760D02*
X158940000Y-101334760D01*
X156430000Y-108860000D02*
X155990000Y-108860000D01*
X156430000Y-101960000D02*
X156050000Y-101960000D01*
X158940000Y-113940000D02*
X158530000Y-113940000D01*
X167570000Y-110490000D02*
X158940000Y-110490000D01*
X167570000Y-101452855D02*
X158940000Y-101452855D01*
X167570000Y-102751900D02*
X158940000Y-102751900D01*
X158940000Y-114660000D02*
X158530000Y-114660000D01*
X158940000Y-108860000D02*
X158530000Y-108860000D01*
X167570000Y-102043330D02*
X158940000Y-102043330D01*
X167570000Y-100390000D02*
X158940000Y-100390000D01*
X167570000Y-102397615D02*
X158940000Y-102397615D01*
X167570000Y-101570950D02*
X158940000Y-101570950D01*
%TD*%
%LPC*%
D12*
%TO.C,C2*%
X151130000Y-113980000D03*
X151130000Y-112080000D03*
%TD*%
D13*
%TO.C,J1*%
X154940000Y-78740000D03*
D14*
X154940000Y-81280000D03*
X154940000Y-83820000D03*
X154940000Y-86360000D03*
X154940000Y-88900000D03*
X154940000Y-91440000D03*
X157480000Y-78740000D03*
X157480000Y-81280000D03*
X157480000Y-83820000D03*
X157480000Y-86360000D03*
X157480000Y-88900000D03*
X157480000Y-91440000D03*
%TD*%
D12*
%TO.C,C1*%
X151130000Y-91120000D03*
X151130000Y-89220000D03*
%TD*%
D13*
%TO.C,PMOD4*%
X139700000Y-124460000D03*
D14*
X139700000Y-127000000D03*
X139700000Y-129540000D03*
X139700000Y-132080000D03*
X139700000Y-134620000D03*
X139700000Y-137160000D03*
%TD*%
D15*
%TO.C,D1*%
X155623500Y-135890000D03*
X153748500Y-135890000D03*
%TD*%
D13*
%TO.C,PMOD2*%
X139700000Y-78740000D03*
D14*
X139700000Y-81280000D03*
X139700000Y-83820000D03*
X139700000Y-86360000D03*
X139700000Y-88900000D03*
X139700000Y-91440000D03*
%TD*%
D13*
%TO.C,PMOD1*%
X139700000Y-55880000D03*
D14*
X139700000Y-58420000D03*
X139700000Y-60960000D03*
X139700000Y-63500000D03*
X139700000Y-66040000D03*
X139700000Y-68580000D03*
%TD*%
D16*
%TO.C,R1*%
X150772500Y-135890000D03*
X148947500Y-135890000D03*
%TD*%
D13*
%TO.C,PMOD3*%
X139700000Y-101600000D03*
D14*
X139700000Y-104140000D03*
X139700000Y-106680000D03*
X139700000Y-109220000D03*
X139700000Y-111760000D03*
X139700000Y-114300000D03*
%TD*%
D13*
%TO.C,J2*%
X154940000Y-101600000D03*
D14*
X154940000Y-104140000D03*
X154940000Y-106680000D03*
X154940000Y-109220000D03*
X154940000Y-111760000D03*
X154940000Y-114300000D03*
X157480000Y-101600000D03*
X157480000Y-104140000D03*
X157480000Y-106680000D03*
X157480000Y-109220000D03*
X157480000Y-111760000D03*
X157480000Y-114300000D03*
%TD*%
M02*
