%FSLAX45Y45*%
G04 Gerber Fmt 4.5, Leading zero omitted, Abs format (unit mm)*
G04 Created by KiCad (PCBNEW (6.0.5)) date 2024-12-30 18:06:59*
%MOMM*%
%LPD*%
G01*
G04 APERTURE LIST*
%TA.AperFunction,Profile*%
%ADD10C,0.100000*%
%TD*%
%ADD11C,0.200000*%
G04 APERTURE END LIST*
D10*
X13562000Y-5334000D02*
X16732000Y-5334000D01*
X16732000Y-5334000D02*
X16732000Y-13970000D01*
X16732000Y-13970000D02*
X13562000Y-13970000D01*
X13562000Y-13970000D02*
X13562000Y-5334000D01*
D11*
X13814619Y-14285476D02*
X13814619Y-14085476D01*
X13862238Y-14085476D01*
X13890809Y-14095000D01*
X13909857Y-14114048D01*
X13919381Y-14133095D01*
X13928905Y-14171190D01*
X13928905Y-14199762D01*
X13919381Y-14237857D01*
X13909857Y-14256905D01*
X13890809Y-14275952D01*
X13862238Y-14285476D01*
X13814619Y-14285476D01*
X14014619Y-14285476D02*
X14014619Y-14152143D01*
X14014619Y-14190238D02*
X14024143Y-14171190D01*
X14033667Y-14161667D01*
X14052714Y-14152143D01*
X14071762Y-14152143D01*
X14138428Y-14285476D02*
X14138428Y-14152143D01*
X14138428Y-14085476D02*
X14128905Y-14095000D01*
X14138428Y-14104524D01*
X14147952Y-14095000D01*
X14138428Y-14085476D01*
X14138428Y-14104524D01*
X14262238Y-14285476D02*
X14243190Y-14275952D01*
X14233667Y-14256905D01*
X14233667Y-14085476D01*
X14367000Y-14285476D02*
X14347952Y-14275952D01*
X14338428Y-14256905D01*
X14338428Y-14085476D01*
X14595571Y-14285476D02*
X14595571Y-14085476D01*
X14662238Y-14228333D01*
X14728905Y-14085476D01*
X14728905Y-14285476D01*
X14909857Y-14285476D02*
X14909857Y-14180714D01*
X14900333Y-14161667D01*
X14881286Y-14152143D01*
X14843190Y-14152143D01*
X14824143Y-14161667D01*
X14909857Y-14275952D02*
X14890809Y-14285476D01*
X14843190Y-14285476D01*
X14824143Y-14275952D01*
X14814619Y-14256905D01*
X14814619Y-14237857D01*
X14824143Y-14218809D01*
X14843190Y-14209286D01*
X14890809Y-14209286D01*
X14909857Y-14199762D01*
X15005095Y-14152143D02*
X15005095Y-14352143D01*
X15005095Y-14161667D02*
X15024143Y-14152143D01*
X15062238Y-14152143D01*
X15081286Y-14161667D01*
X15090809Y-14171190D01*
X15100333Y-14190238D01*
X15100333Y-14247381D01*
X15090809Y-14266428D01*
X15081286Y-14275952D01*
X15062238Y-14285476D01*
X15024143Y-14285476D01*
X15005095Y-14275952D01*
X15186048Y-14266428D02*
X15195571Y-14275952D01*
X15186048Y-14285476D01*
X15176524Y-14275952D01*
X15186048Y-14266428D01*
X15186048Y-14285476D01*
X15186048Y-14161667D02*
X15195571Y-14171190D01*
X15186048Y-14180714D01*
X15176524Y-14171190D01*
X15186048Y-14161667D01*
X15186048Y-14180714D01*
M02*
