M48
; DRILL file {KiCad (6.0.5)} date Mon Dec 30 18:11:26 2024
; FORMAT={-:-/ absolute / metric / decimal}
; #@! TF.CreationDate,2024-12-30T18:11:26+01:00
; #@! TF.GenerationSoftware,Kicad,Pcbnew,(6.0.5)
; #@! TF.FileFunction,Plated,1,2,PTH
FMAT,2
METRIC
; #@! TA.AperFunction,Plated,PTH,ViaDrill
T1C0.400
; #@! TA.AperFunction,Plated,PTH,ComponentDrill
T2C0.600
; #@! TA.AperFunction,Plated,PTH,ComponentDrill
T3C0.650
; #@! TA.AperFunction,Plated,PTH,ComponentDrill
T4C1.000
%
G90
G05
T1
X123.19Y-64.516
X123.698Y-78.486
X128.27Y-89.662
X128.778Y-113.03
X129.54Y-95.25
X131.318Y-86.36
X131.826Y-78.74
X132.334Y-62.23
X133.096Y-68.58
X138.43Y-99.314
X140.208Y-108.458
X141.732Y-104.902
X142.748Y-94.996
X144.018Y-90.932
X145.542Y-81.534
X145.542Y-91.44
X146.05Y-99.06
X147.066Y-72.898
X147.828Y-90.17
X148.59Y-101.854
X149.098Y-80.01
X150.114Y-94.996
X150.876Y-88.138
X152.654Y-84.582
X152.654Y-111.76
X153.162Y-92.71
X154.432Y-91.948
X154.94Y-99.568
X155.448Y-107.95
X155.702Y-85.09
X155.956Y-94.742
X156.464Y-80.518
X156.464Y-83.82
X156.464Y-88.9
X158.242Y-67.818
T3
X128.27Y-97.79
X128.27Y-99.06
X128.27Y-100.33
X128.524Y-63.5
X129.794Y-63.5
X131.064Y-63.5
X133.492Y-63.5
X134.762Y-63.5
X139.7Y-65.674
X139.7Y-66.944
X144.78Y-104.14
X144.78Y-105.41
X144.78Y-106.68
X148.59Y-104.14
X148.59Y-105.41
X148.59Y-106.68
T4
X121.92Y-81.28
X121.92Y-83.82
X121.92Y-86.36
X121.92Y-88.9
X121.92Y-91.44
X121.92Y-93.98
X121.92Y-104.14
X121.92Y-106.68
X121.92Y-109.22
X121.92Y-111.76
X121.92Y-114.3
X121.92Y-116.84
X124.46Y-81.28
X124.46Y-83.82
X124.46Y-86.36
X124.46Y-88.9
X124.46Y-91.44
X124.46Y-93.98
X124.46Y-104.14
X124.46Y-106.68
X124.46Y-109.22
X124.46Y-111.76
X124.46Y-114.3
X124.46Y-116.84
X124.46Y-121.92
X128.265Y-116.835
X128.265Y-119.375
X130.805Y-116.835
X130.805Y-119.375
X133.35Y-100.335
X133.35Y-102.875
X133.35Y-105.415
X133.35Y-107.955
X133.35Y-110.495
X134.62Y-121.92
X136.906Y-81.28
X136.906Y-83.82
X136.906Y-86.36
X136.906Y-88.9
X136.906Y-91.44
X138.425Y-116.835
X138.425Y-119.375
X139.446Y-81.28
X139.446Y-83.82
X139.446Y-86.36
X139.446Y-88.9
X139.446Y-91.44
X140.965Y-116.835
X140.965Y-119.375
X144.78Y-121.92
X148.585Y-116.835
X148.585Y-119.375
X151.125Y-116.835
X151.125Y-119.375
X154.94Y-121.92
X158.745Y-71.12
X158.745Y-73.66
X158.745Y-76.2
X158.745Y-78.74
X158.745Y-81.28
X158.745Y-83.82
X158.745Y-86.36
X158.745Y-88.9
X158.745Y-91.44
X158.745Y-93.98
X158.745Y-96.52
X158.745Y-99.06
X158.745Y-101.6
X158.745Y-104.14
X158.745Y-106.68
X158.745Y-109.22
X158.745Y-111.76
X158.745Y-114.3
X158.745Y-116.84
X158.745Y-119.38
X158.745Y-121.92
X158.745Y-124.46
X161.285Y-71.12
X161.285Y-73.66
X161.285Y-76.2
X161.285Y-78.74
X161.285Y-81.28
X161.285Y-83.82
X161.285Y-86.36
X161.285Y-88.9
X161.285Y-91.44
X161.285Y-93.98
X161.285Y-96.52
X161.285Y-99.06
X161.285Y-101.6
X161.285Y-104.14
X161.285Y-106.68
X161.285Y-109.22
X161.285Y-111.76
X161.285Y-114.3
X161.285Y-116.84
X161.285Y-119.38
X161.285Y-121.92
X161.285Y-124.46
T2
X143.0Y-62.75G85X143.0Y-62.15
G05
X143.0Y-67.18G85X143.0Y-66.08
G05
X151.64Y-62.75G85X151.64Y-62.15
G05
X151.64Y-67.18G85X151.64Y-66.08
G05
T0
M30
