%FSLAX45Y45*%
G04 Gerber Fmt 4.5, Leading zero omitted, Abs format (unit mm)*
G04 Created by KiCad (PCBNEW (6.0.5)) date 2024-12-30 18:11:27*
%MOMM*%
%LPD*%
G01*
G04 APERTURE LIST*
%TA.AperFunction,Profile*%
%ADD10C,0.100000*%
%TD*%
%ADD11C,0.200000*%
%ADD12C,0.065000*%
G04 APERTURE END LIST*
D10*
X11788000Y-5943600D02*
X16510000Y-5943600D01*
X16510000Y-5943600D02*
X16510000Y-12852400D01*
X16510000Y-12852400D02*
X11788000Y-12852400D01*
X11788000Y-12852400D02*
X11788000Y-5943600D01*
D11*
D12*
X14410500Y-6577500D02*
X14475500Y-6642500D01*
X14475500Y-6577500D02*
X14410500Y-6642500D01*
X14988500Y-6577500D02*
X15053500Y-6642500D01*
X15053500Y-6577500D02*
X14988500Y-6642500D01*
D11*
X12040619Y-13167876D02*
X12040619Y-12967876D01*
X12088238Y-12967876D01*
X12116809Y-12977400D01*
X12135857Y-12996448D01*
X12145381Y-13015495D01*
X12154905Y-13053590D01*
X12154905Y-13082162D01*
X12145381Y-13120257D01*
X12135857Y-13139305D01*
X12116809Y-13158352D01*
X12088238Y-13167876D01*
X12040619Y-13167876D01*
X12240619Y-13167876D02*
X12240619Y-13034543D01*
X12240619Y-13072638D02*
X12250143Y-13053590D01*
X12259667Y-13044067D01*
X12278714Y-13034543D01*
X12297762Y-13034543D01*
X12364428Y-13167876D02*
X12364428Y-13034543D01*
X12364428Y-12967876D02*
X12354905Y-12977400D01*
X12364428Y-12986924D01*
X12373952Y-12977400D01*
X12364428Y-12967876D01*
X12364428Y-12986924D01*
X12488238Y-13167876D02*
X12469190Y-13158352D01*
X12459667Y-13139305D01*
X12459667Y-12967876D01*
X12593000Y-13167876D02*
X12573952Y-13158352D01*
X12564428Y-13139305D01*
X12564428Y-12967876D01*
X12821571Y-13167876D02*
X12821571Y-12967876D01*
X12888238Y-13110733D01*
X12954905Y-12967876D01*
X12954905Y-13167876D01*
X13135857Y-13167876D02*
X13135857Y-13063114D01*
X13126333Y-13044067D01*
X13107286Y-13034543D01*
X13069190Y-13034543D01*
X13050143Y-13044067D01*
X13135857Y-13158352D02*
X13116809Y-13167876D01*
X13069190Y-13167876D01*
X13050143Y-13158352D01*
X13040619Y-13139305D01*
X13040619Y-13120257D01*
X13050143Y-13101209D01*
X13069190Y-13091686D01*
X13116809Y-13091686D01*
X13135857Y-13082162D01*
X13231095Y-13034543D02*
X13231095Y-13234543D01*
X13231095Y-13044067D02*
X13250143Y-13034543D01*
X13288238Y-13034543D01*
X13307286Y-13044067D01*
X13316809Y-13053590D01*
X13326333Y-13072638D01*
X13326333Y-13129781D01*
X13316809Y-13148828D01*
X13307286Y-13158352D01*
X13288238Y-13167876D01*
X13250143Y-13167876D01*
X13231095Y-13158352D01*
X13412048Y-13148828D02*
X13421571Y-13158352D01*
X13412048Y-13167876D01*
X13402524Y-13158352D01*
X13412048Y-13148828D01*
X13412048Y-13167876D01*
X13412048Y-13044067D02*
X13421571Y-13053590D01*
X13412048Y-13063114D01*
X13402524Y-13053590D01*
X13412048Y-13044067D01*
X13412048Y-13063114D01*
D12*
X11718000Y-13464900D02*
X11783000Y-13529900D01*
X11783000Y-13464900D02*
X11718000Y-13529900D01*
D11*
X12078714Y-13387876D02*
X12097762Y-13387876D01*
X12116809Y-13397400D01*
X12126333Y-13406924D01*
X12135857Y-13425971D01*
X12145381Y-13464067D01*
X12145381Y-13511686D01*
X12135857Y-13549781D01*
X12126333Y-13568828D01*
X12116809Y-13578352D01*
X12097762Y-13587876D01*
X12078714Y-13587876D01*
X12059667Y-13578352D01*
X12050143Y-13568828D01*
X12040619Y-13549781D01*
X12031095Y-13511686D01*
X12031095Y-13464067D01*
X12040619Y-13425971D01*
X12050143Y-13406924D01*
X12059667Y-13397400D01*
X12078714Y-13387876D01*
X12231095Y-13568828D02*
X12240619Y-13578352D01*
X12231095Y-13587876D01*
X12221571Y-13578352D01*
X12231095Y-13568828D01*
X12231095Y-13587876D01*
X12412048Y-13387876D02*
X12373952Y-13387876D01*
X12354905Y-13397400D01*
X12345381Y-13406924D01*
X12326333Y-13435495D01*
X12316809Y-13473590D01*
X12316809Y-13549781D01*
X12326333Y-13568828D01*
X12335857Y-13578352D01*
X12354905Y-13587876D01*
X12393000Y-13587876D01*
X12412048Y-13578352D01*
X12421571Y-13568828D01*
X12431095Y-13549781D01*
X12431095Y-13502162D01*
X12421571Y-13483114D01*
X12412048Y-13473590D01*
X12393000Y-13464067D01*
X12354905Y-13464067D01*
X12335857Y-13473590D01*
X12326333Y-13483114D01*
X12316809Y-13502162D01*
X12612048Y-13387876D02*
X12516809Y-13387876D01*
X12507286Y-13483114D01*
X12516809Y-13473590D01*
X12535857Y-13464067D01*
X12583476Y-13464067D01*
X12602524Y-13473590D01*
X12612048Y-13483114D01*
X12621571Y-13502162D01*
X12621571Y-13549781D01*
X12612048Y-13568828D01*
X12602524Y-13578352D01*
X12583476Y-13587876D01*
X12535857Y-13587876D01*
X12516809Y-13578352D01*
X12507286Y-13568828D01*
X12745381Y-13387876D02*
X12764428Y-13387876D01*
X12783476Y-13397400D01*
X12793000Y-13406924D01*
X12802524Y-13425971D01*
X12812048Y-13464067D01*
X12812048Y-13511686D01*
X12802524Y-13549781D01*
X12793000Y-13568828D01*
X12783476Y-13578352D01*
X12764428Y-13587876D01*
X12745381Y-13587876D01*
X12726333Y-13578352D01*
X12716809Y-13568828D01*
X12707286Y-13549781D01*
X12697762Y-13511686D01*
X12697762Y-13464067D01*
X12707286Y-13425971D01*
X12716809Y-13406924D01*
X12726333Y-13397400D01*
X12745381Y-13387876D01*
X12897762Y-13587876D02*
X12897762Y-13454543D01*
X12897762Y-13473590D02*
X12907286Y-13464067D01*
X12926333Y-13454543D01*
X12954905Y-13454543D01*
X12973952Y-13464067D01*
X12983476Y-13483114D01*
X12983476Y-13587876D01*
X12983476Y-13483114D02*
X12993000Y-13464067D01*
X13012048Y-13454543D01*
X13040619Y-13454543D01*
X13059667Y-13464067D01*
X13069190Y-13483114D01*
X13069190Y-13587876D01*
X13164428Y-13587876D02*
X13164428Y-13454543D01*
X13164428Y-13473590D02*
X13173952Y-13464067D01*
X13193000Y-13454543D01*
X13221571Y-13454543D01*
X13240619Y-13464067D01*
X13250143Y-13483114D01*
X13250143Y-13587876D01*
X13250143Y-13483114D02*
X13259667Y-13464067D01*
X13278714Y-13454543D01*
X13307286Y-13454543D01*
X13326333Y-13464067D01*
X13335857Y-13483114D01*
X13335857Y-13587876D01*
X13726333Y-13378352D02*
X13554905Y-13635495D01*
X13983476Y-13387876D02*
X14002524Y-13387876D01*
X14021571Y-13397400D01*
X14031095Y-13406924D01*
X14040619Y-13425971D01*
X14050143Y-13464067D01*
X14050143Y-13511686D01*
X14040619Y-13549781D01*
X14031095Y-13568828D01*
X14021571Y-13578352D01*
X14002524Y-13587876D01*
X13983476Y-13587876D01*
X13964428Y-13578352D01*
X13954905Y-13568828D01*
X13945381Y-13549781D01*
X13935857Y-13511686D01*
X13935857Y-13464067D01*
X13945381Y-13425971D01*
X13954905Y-13406924D01*
X13964428Y-13397400D01*
X13983476Y-13387876D01*
X14135857Y-13568828D02*
X14145381Y-13578352D01*
X14135857Y-13587876D01*
X14126333Y-13578352D01*
X14135857Y-13568828D01*
X14135857Y-13587876D01*
X14269190Y-13387876D02*
X14288238Y-13387876D01*
X14307286Y-13397400D01*
X14316809Y-13406924D01*
X14326333Y-13425971D01*
X14335857Y-13464067D01*
X14335857Y-13511686D01*
X14326333Y-13549781D01*
X14316809Y-13568828D01*
X14307286Y-13578352D01*
X14288238Y-13587876D01*
X14269190Y-13587876D01*
X14250143Y-13578352D01*
X14240619Y-13568828D01*
X14231095Y-13549781D01*
X14221571Y-13511686D01*
X14221571Y-13464067D01*
X14231095Y-13425971D01*
X14240619Y-13406924D01*
X14250143Y-13397400D01*
X14269190Y-13387876D01*
X14412048Y-13406924D02*
X14421571Y-13397400D01*
X14440619Y-13387876D01*
X14488238Y-13387876D01*
X14507286Y-13397400D01*
X14516809Y-13406924D01*
X14526333Y-13425971D01*
X14526333Y-13445019D01*
X14516809Y-13473590D01*
X14402524Y-13587876D01*
X14526333Y-13587876D01*
X14707286Y-13387876D02*
X14612048Y-13387876D01*
X14602524Y-13483114D01*
X14612048Y-13473590D01*
X14631095Y-13464067D01*
X14678714Y-13464067D01*
X14697762Y-13473590D01*
X14707286Y-13483114D01*
X14716809Y-13502162D01*
X14716809Y-13549781D01*
X14707286Y-13568828D01*
X14697762Y-13578352D01*
X14678714Y-13587876D01*
X14631095Y-13587876D01*
X14612048Y-13578352D01*
X14602524Y-13568828D01*
X14888238Y-13387876D02*
X14850143Y-13387876D01*
X14831095Y-13397400D01*
X14821571Y-13406924D01*
X14802524Y-13435495D01*
X14793000Y-13473590D01*
X14793000Y-13549781D01*
X14802524Y-13568828D01*
X14812048Y-13578352D01*
X14831095Y-13587876D01*
X14869190Y-13587876D01*
X14888238Y-13578352D01*
X14897762Y-13568828D01*
X14907286Y-13549781D01*
X14907286Y-13502162D01*
X14897762Y-13483114D01*
X14888238Y-13473590D01*
X14869190Y-13464067D01*
X14831095Y-13464067D01*
X14812048Y-13473590D01*
X14802524Y-13483114D01*
X14793000Y-13502162D01*
X14983476Y-13387876D02*
X14983476Y-13425971D01*
X15059667Y-13387876D02*
X15059667Y-13425971D01*
X15354905Y-13664067D02*
X15345381Y-13654543D01*
X15326333Y-13625971D01*
X15316809Y-13606924D01*
X15307286Y-13578352D01*
X15297762Y-13530733D01*
X15297762Y-13492638D01*
X15307286Y-13445019D01*
X15316809Y-13416448D01*
X15326333Y-13397400D01*
X15345381Y-13368828D01*
X15354905Y-13359305D01*
X15421571Y-13406924D02*
X15431095Y-13397400D01*
X15450143Y-13387876D01*
X15497762Y-13387876D01*
X15516809Y-13397400D01*
X15526333Y-13406924D01*
X15535857Y-13425971D01*
X15535857Y-13445019D01*
X15526333Y-13473590D01*
X15412048Y-13587876D01*
X15535857Y-13587876D01*
X15773952Y-13587876D02*
X15773952Y-13387876D01*
X15859667Y-13587876D02*
X15859667Y-13483114D01*
X15850143Y-13464067D01*
X15831095Y-13454543D01*
X15802524Y-13454543D01*
X15783476Y-13464067D01*
X15773952Y-13473590D01*
X15983476Y-13587876D02*
X15964428Y-13578352D01*
X15954905Y-13568828D01*
X15945381Y-13549781D01*
X15945381Y-13492638D01*
X15954905Y-13473590D01*
X15964428Y-13464067D01*
X15983476Y-13454543D01*
X16012048Y-13454543D01*
X16031095Y-13464067D01*
X16040619Y-13473590D01*
X16050143Y-13492638D01*
X16050143Y-13549781D01*
X16040619Y-13568828D01*
X16031095Y-13578352D01*
X16012048Y-13587876D01*
X15983476Y-13587876D01*
X16164428Y-13587876D02*
X16145381Y-13578352D01*
X16135857Y-13559305D01*
X16135857Y-13387876D01*
X16316809Y-13578352D02*
X16297762Y-13587876D01*
X16259667Y-13587876D01*
X16240619Y-13578352D01*
X16231095Y-13559305D01*
X16231095Y-13483114D01*
X16240619Y-13464067D01*
X16259667Y-13454543D01*
X16297762Y-13454543D01*
X16316809Y-13464067D01*
X16326333Y-13483114D01*
X16326333Y-13502162D01*
X16231095Y-13521209D01*
X16402524Y-13578352D02*
X16421571Y-13587876D01*
X16459667Y-13587876D01*
X16478714Y-13578352D01*
X16488238Y-13559305D01*
X16488238Y-13549781D01*
X16478714Y-13530733D01*
X16459667Y-13521209D01*
X16431095Y-13521209D01*
X16412048Y-13511686D01*
X16402524Y-13492638D01*
X16402524Y-13483114D01*
X16412048Y-13464067D01*
X16431095Y-13454543D01*
X16459667Y-13454543D01*
X16478714Y-13464067D01*
X16554905Y-13664067D02*
X16564428Y-13654543D01*
X16583476Y-13625971D01*
X16593000Y-13606924D01*
X16602524Y-13578352D01*
X16612048Y-13530733D01*
X16612048Y-13492638D01*
X16602524Y-13445019D01*
X16593000Y-13416448D01*
X16583476Y-13397400D01*
X16564428Y-13368828D01*
X16554905Y-13359305D01*
X16916810Y-13664067D02*
X16907286Y-13654543D01*
X16888238Y-13625971D01*
X16878714Y-13606924D01*
X16869190Y-13578352D01*
X16859667Y-13530733D01*
X16859667Y-13492638D01*
X16869190Y-13445019D01*
X16878714Y-13416448D01*
X16888238Y-13397400D01*
X16907286Y-13368828D01*
X16916810Y-13359305D01*
X16993000Y-13454543D02*
X16993000Y-13587876D01*
X16993000Y-13473590D02*
X17002524Y-13464067D01*
X17021571Y-13454543D01*
X17050143Y-13454543D01*
X17069190Y-13464067D01*
X17078714Y-13483114D01*
X17078714Y-13587876D01*
X17202524Y-13587876D02*
X17183476Y-13578352D01*
X17173952Y-13568828D01*
X17164429Y-13549781D01*
X17164429Y-13492638D01*
X17173952Y-13473590D01*
X17183476Y-13464067D01*
X17202524Y-13454543D01*
X17231095Y-13454543D01*
X17250143Y-13464067D01*
X17259667Y-13473590D01*
X17269190Y-13492638D01*
X17269190Y-13549781D01*
X17259667Y-13568828D01*
X17250143Y-13578352D01*
X17231095Y-13587876D01*
X17202524Y-13587876D01*
X17326333Y-13454543D02*
X17402524Y-13454543D01*
X17354905Y-13387876D02*
X17354905Y-13559305D01*
X17364429Y-13578352D01*
X17383476Y-13587876D01*
X17402524Y-13587876D01*
X17621571Y-13454543D02*
X17621571Y-13654543D01*
X17621571Y-13464067D02*
X17640619Y-13454543D01*
X17678714Y-13454543D01*
X17697762Y-13464067D01*
X17707286Y-13473590D01*
X17716810Y-13492638D01*
X17716810Y-13549781D01*
X17707286Y-13568828D01*
X17697762Y-13578352D01*
X17678714Y-13587876D01*
X17640619Y-13587876D01*
X17621571Y-13578352D01*
X17831095Y-13587876D02*
X17812048Y-13578352D01*
X17802524Y-13559305D01*
X17802524Y-13387876D01*
X17993000Y-13587876D02*
X17993000Y-13483114D01*
X17983476Y-13464067D01*
X17964429Y-13454543D01*
X17926333Y-13454543D01*
X17907286Y-13464067D01*
X17993000Y-13578352D02*
X17973952Y-13587876D01*
X17926333Y-13587876D01*
X17907286Y-13578352D01*
X17897762Y-13559305D01*
X17897762Y-13540257D01*
X17907286Y-13521209D01*
X17926333Y-13511686D01*
X17973952Y-13511686D01*
X17993000Y-13502162D01*
X18059667Y-13454543D02*
X18135857Y-13454543D01*
X18088238Y-13387876D02*
X18088238Y-13559305D01*
X18097762Y-13578352D01*
X18116810Y-13587876D01*
X18135857Y-13587876D01*
X18278714Y-13578352D02*
X18259667Y-13587876D01*
X18221571Y-13587876D01*
X18202524Y-13578352D01*
X18193000Y-13559305D01*
X18193000Y-13483114D01*
X18202524Y-13464067D01*
X18221571Y-13454543D01*
X18259667Y-13454543D01*
X18278714Y-13464067D01*
X18288238Y-13483114D01*
X18288238Y-13502162D01*
X18193000Y-13521209D01*
X18459667Y-13587876D02*
X18459667Y-13387876D01*
X18459667Y-13578352D02*
X18440619Y-13587876D01*
X18402524Y-13587876D01*
X18383476Y-13578352D01*
X18373952Y-13568828D01*
X18364429Y-13549781D01*
X18364429Y-13492638D01*
X18373952Y-13473590D01*
X18383476Y-13464067D01*
X18402524Y-13454543D01*
X18440619Y-13454543D01*
X18459667Y-13464067D01*
X18535857Y-13664067D02*
X18545381Y-13654543D01*
X18564429Y-13625971D01*
X18573952Y-13606924D01*
X18583476Y-13578352D01*
X18593000Y-13530733D01*
X18593000Y-13492638D01*
X18583476Y-13445019D01*
X18573952Y-13416448D01*
X18564429Y-13397400D01*
X18545381Y-13368828D01*
X18535857Y-13359305D01*
M02*
