%TF.GenerationSoftware,KiCad,Pcbnew,(6.0.5)*%
%TF.CreationDate,2024-12-30T18:11:12+01:00*%
%TF.ProjectId,basys3_to_lb,62617379-7333-45f7-946f-5f6c622e6b69,rev?*%
%TF.SameCoordinates,Original*%
%TF.FileFunction,Legend,Top*%
%TF.FilePolarity,Positive*%
%FSLAX46Y46*%
G04 Gerber Fmt 4.6, Leading zero omitted, Abs format (unit mm)*
G04 Created by KiCad (PCBNEW (6.0.5)) date 2024-12-30 18:11:12*
%MOMM*%
%LPD*%
G01*
G04 APERTURE LIST*
G04 Aperture macros list*
%AMRoundRect*
0 Rectangle with rounded corners*
0 $1 Rounding radius*
0 $2 $3 $4 $5 $6 $7 $8 $9 X,Y pos of 4 corners*
0 Add a 4 corners polygon primitive as box body*
4,1,4,$2,$3,$4,$5,$6,$7,$8,$9,$2,$3,0*
0 Add four circle primitives for the rounded corners*
1,1,$1+$1,$2,$3*
1,1,$1+$1,$4,$5*
1,1,$1+$1,$6,$7*
1,1,$1+$1,$8,$9*
0 Add four rect primitives between the rounded corners*
20,1,$1+$1,$2,$3,$4,$5,0*
20,1,$1+$1,$4,$5,$6,$7,0*
20,1,$1+$1,$6,$7,$8,$9,0*
20,1,$1+$1,$8,$9,$2,$3,0*%
G04 Aperture macros list end*
%ADD10C,0.150000*%
%ADD11C,0.120000*%
%ADD12C,2.000000*%
%ADD13R,1.700000X1.700000*%
%ADD14O,1.700000X1.700000*%
%ADD15RoundRect,0.250000X0.262500X0.450000X-0.262500X0.450000X-0.262500X-0.450000X0.262500X-0.450000X0*%
%ADD16R,1.000000X1.000000*%
%ADD17O,1.000000X1.000000*%
%ADD18RoundRect,0.250000X0.250000X0.475000X-0.250000X0.475000X-0.250000X-0.475000X0.250000X-0.475000X0*%
%ADD19RoundRect,0.250000X0.475000X-0.250000X0.475000X0.250000X-0.475000X0.250000X-0.475000X-0.250000X0*%
%ADD20C,0.650000*%
%ADD21R,0.600000X1.450000*%
%ADD22R,0.300000X1.450000*%
%ADD23O,1.000000X2.100000*%
%ADD24O,1.000000X1.600000*%
%ADD25RoundRect,0.250000X-0.262500X-0.450000X0.262500X-0.450000X0.262500X0.450000X-0.262500X0.450000X0*%
%ADD26RoundRect,0.250000X-0.475000X0.250000X-0.475000X-0.250000X0.475000X-0.250000X0.475000X0.250000X0*%
%ADD27R,0.650000X1.050000*%
%ADD28RoundRect,0.150000X-0.725000X-0.150000X0.725000X-0.150000X0.725000X0.150000X-0.725000X0.150000X0*%
%ADD29RoundRect,0.250000X-0.450000X0.262500X-0.450000X-0.262500X0.450000X-0.262500X0.450000X0.262500X0*%
%ADD30RoundRect,0.243750X-0.243750X-0.456250X0.243750X-0.456250X0.243750X0.456250X-0.243750X0.456250X0*%
%ADD31RoundRect,0.150000X0.150000X-0.512500X0.150000X0.512500X-0.150000X0.512500X-0.150000X-0.512500X0*%
%ADD32RoundRect,0.250000X0.450000X-0.262500X0.450000X0.262500X-0.450000X0.262500X-0.450000X-0.262500X0*%
%ADD33RoundRect,0.250000X-0.250000X-0.475000X0.250000X-0.475000X0.250000X0.475000X-0.250000X0.475000X0*%
G04 APERTURE END LIST*
D10*
X146780952Y-85428571D02*
X147114285Y-85428571D01*
X147257142Y-85952380D02*
X146780952Y-85952380D01*
X146780952Y-84952380D01*
X147257142Y-84952380D01*
X148161904Y-85952380D02*
X147685714Y-85952380D01*
X147685714Y-84952380D01*
X149066666Y-85952380D02*
X148733333Y-85476190D01*
X148495238Y-85952380D02*
X148495238Y-84952380D01*
X148876190Y-84952380D01*
X148971428Y-85000000D01*
X149019047Y-85047619D01*
X149066666Y-85142857D01*
X149066666Y-85285714D01*
X149019047Y-85380952D01*
X148971428Y-85428571D01*
X148876190Y-85476190D01*
X148495238Y-85476190D01*
X143276190Y-125752380D02*
X143609523Y-126752380D01*
X143942857Y-125752380D01*
X144800000Y-126752380D02*
X144228571Y-126752380D01*
X144514285Y-126752380D02*
X144514285Y-125752380D01*
X144419047Y-125895238D01*
X144323809Y-125990476D01*
X144228571Y-126038095D01*
X145228571Y-126657142D02*
X145276190Y-126704761D01*
X145228571Y-126752380D01*
X145180952Y-126704761D01*
X145228571Y-126657142D01*
X145228571Y-126752380D01*
X145895238Y-125752380D02*
X145990476Y-125752380D01*
X146085714Y-125800000D01*
X146133333Y-125847619D01*
X146180952Y-125942857D01*
X146228571Y-126133333D01*
X146228571Y-126371428D01*
X146180952Y-126561904D01*
X146133333Y-126657142D01*
X146085714Y-126704761D01*
X145990476Y-126752380D01*
X145895238Y-126752380D01*
X145800000Y-126704761D01*
X145752380Y-126657142D01*
X145704761Y-126561904D01*
X145657142Y-126371428D01*
X145657142Y-126133333D01*
X145704761Y-125942857D01*
X145752380Y-125847619D01*
X145800000Y-125800000D01*
X145895238Y-125752380D01*
X130147619Y-126228571D02*
X130290476Y-126276190D01*
X130338095Y-126323809D01*
X130385714Y-126419047D01*
X130385714Y-126561904D01*
X130338095Y-126657142D01*
X130290476Y-126704761D01*
X130195238Y-126752380D01*
X129814285Y-126752380D01*
X129814285Y-125752380D01*
X130147619Y-125752380D01*
X130242857Y-125800000D01*
X130290476Y-125847619D01*
X130338095Y-125942857D01*
X130338095Y-126038095D01*
X130290476Y-126133333D01*
X130242857Y-126180952D01*
X130147619Y-126228571D01*
X129814285Y-126228571D01*
X131242857Y-126752380D02*
X131242857Y-126228571D01*
X131195238Y-126133333D01*
X131100000Y-126085714D01*
X130909523Y-126085714D01*
X130814285Y-126133333D01*
X131242857Y-126704761D02*
X131147619Y-126752380D01*
X130909523Y-126752380D01*
X130814285Y-126704761D01*
X130766666Y-126609523D01*
X130766666Y-126514285D01*
X130814285Y-126419047D01*
X130909523Y-126371428D01*
X131147619Y-126371428D01*
X131242857Y-126323809D01*
X131671428Y-126704761D02*
X131766666Y-126752380D01*
X131957142Y-126752380D01*
X132052380Y-126704761D01*
X132100000Y-126609523D01*
X132100000Y-126561904D01*
X132052380Y-126466666D01*
X131957142Y-126419047D01*
X131814285Y-126419047D01*
X131719047Y-126371428D01*
X131671428Y-126276190D01*
X131671428Y-126228571D01*
X131719047Y-126133333D01*
X131814285Y-126085714D01*
X131957142Y-126085714D01*
X132052380Y-126133333D01*
X132433333Y-126085714D02*
X132671428Y-126752380D01*
X132909523Y-126085714D02*
X132671428Y-126752380D01*
X132576190Y-126990476D01*
X132528571Y-127038095D01*
X132433333Y-127085714D01*
X133242857Y-126704761D02*
X133338095Y-126752380D01*
X133528571Y-126752380D01*
X133623809Y-126704761D01*
X133671428Y-126609523D01*
X133671428Y-126561904D01*
X133623809Y-126466666D01*
X133528571Y-126419047D01*
X133385714Y-126419047D01*
X133290476Y-126371428D01*
X133242857Y-126276190D01*
X133242857Y-126228571D01*
X133290476Y-126133333D01*
X133385714Y-126085714D01*
X133528571Y-126085714D01*
X133623809Y-126133333D01*
X134004761Y-125752380D02*
X134623809Y-125752380D01*
X134290476Y-126133333D01*
X134433333Y-126133333D01*
X134528571Y-126180952D01*
X134576190Y-126228571D01*
X134623809Y-126323809D01*
X134623809Y-126561904D01*
X134576190Y-126657142D01*
X134528571Y-126704761D01*
X134433333Y-126752380D01*
X134147619Y-126752380D01*
X134052380Y-126704761D01*
X134004761Y-126657142D01*
X134814285Y-126847619D02*
X135576190Y-126847619D01*
X135671428Y-126085714D02*
X136052380Y-126085714D01*
X135814285Y-125752380D02*
X135814285Y-126609523D01*
X135861904Y-126704761D01*
X135957142Y-126752380D01*
X136052380Y-126752380D01*
X136528571Y-126752380D02*
X136433333Y-126704761D01*
X136385714Y-126657142D01*
X136338095Y-126561904D01*
X136338095Y-126276190D01*
X136385714Y-126180952D01*
X136433333Y-126133333D01*
X136528571Y-126085714D01*
X136671428Y-126085714D01*
X136766666Y-126133333D01*
X136814285Y-126180952D01*
X136861904Y-126276190D01*
X136861904Y-126561904D01*
X136814285Y-126657142D01*
X136766666Y-126704761D01*
X136671428Y-126752380D01*
X136528571Y-126752380D01*
X137052380Y-126847619D02*
X137814285Y-126847619D01*
X138528571Y-126752380D02*
X138052380Y-126752380D01*
X138052380Y-125752380D01*
X139195238Y-126228571D02*
X139338095Y-126276190D01*
X139385714Y-126323809D01*
X139433333Y-126419047D01*
X139433333Y-126561904D01*
X139385714Y-126657142D01*
X139338095Y-126704761D01*
X139242857Y-126752380D01*
X138861904Y-126752380D01*
X138861904Y-125752380D01*
X139195238Y-125752380D01*
X139290476Y-125800000D01*
X139338095Y-125847619D01*
X139385714Y-125942857D01*
X139385714Y-126038095D01*
X139338095Y-126133333D01*
X139290476Y-126180952D01*
X139195238Y-126228571D01*
X138861904Y-126228571D01*
%TO.C,TP3*%
X144218095Y-123872380D02*
X144789523Y-123872380D01*
X144503809Y-124872380D02*
X144503809Y-123872380D01*
X145122857Y-124872380D02*
X145122857Y-123872380D01*
X145503809Y-123872380D01*
X145599047Y-123920000D01*
X145646666Y-123967619D01*
X145694285Y-124062857D01*
X145694285Y-124205714D01*
X145646666Y-124300952D01*
X145599047Y-124348571D01*
X145503809Y-124396190D01*
X145122857Y-124396190D01*
X146027619Y-123872380D02*
X146646666Y-123872380D01*
X146313333Y-124253333D01*
X146456190Y-124253333D01*
X146551428Y-124300952D01*
X146599047Y-124348571D01*
X146646666Y-124443809D01*
X146646666Y-124681904D01*
X146599047Y-124777142D01*
X146551428Y-124824761D01*
X146456190Y-124872380D01*
X146170476Y-124872380D01*
X146075238Y-124824761D01*
X146027619Y-124777142D01*
%TO.C,J11*%
X128725476Y-113957380D02*
X128725476Y-114671666D01*
X128677857Y-114814523D01*
X128582619Y-114909761D01*
X128439761Y-114957380D01*
X128344523Y-114957380D01*
X129725476Y-114957380D02*
X129154047Y-114957380D01*
X129439761Y-114957380D02*
X129439761Y-113957380D01*
X129344523Y-114100238D01*
X129249285Y-114195476D01*
X129154047Y-114243095D01*
X130677857Y-114957380D02*
X130106428Y-114957380D01*
X130392142Y-114957380D02*
X130392142Y-113957380D01*
X130296904Y-114100238D01*
X130201666Y-114195476D01*
X130106428Y-114243095D01*
%TO.C,R4*%
X129373333Y-85160380D02*
X129040000Y-84684190D01*
X128801904Y-85160380D02*
X128801904Y-84160380D01*
X129182857Y-84160380D01*
X129278095Y-84208000D01*
X129325714Y-84255619D01*
X129373333Y-84350857D01*
X129373333Y-84493714D01*
X129325714Y-84588952D01*
X129278095Y-84636571D01*
X129182857Y-84684190D01*
X128801904Y-84684190D01*
X130230476Y-84493714D02*
X130230476Y-85160380D01*
X129992380Y-84112761D02*
X129754285Y-84827047D01*
X130373333Y-84827047D01*
%TO.C,J9*%
X130666666Y-60852380D02*
X130666666Y-61566666D01*
X130619047Y-61709523D01*
X130523809Y-61804761D01*
X130380952Y-61852380D01*
X130285714Y-61852380D01*
X131190476Y-61852380D02*
X131380952Y-61852380D01*
X131476190Y-61804761D01*
X131523809Y-61757142D01*
X131619047Y-61614285D01*
X131666666Y-61423809D01*
X131666666Y-61042857D01*
X131619047Y-60947619D01*
X131571428Y-60900000D01*
X131476190Y-60852380D01*
X131285714Y-60852380D01*
X131190476Y-60900000D01*
X131142857Y-60947619D01*
X131095238Y-61042857D01*
X131095238Y-61280952D01*
X131142857Y-61376190D01*
X131190476Y-61423809D01*
X131285714Y-61471428D01*
X131476190Y-61471428D01*
X131571428Y-61423809D01*
X131619047Y-61376190D01*
X131666666Y-61280952D01*
%TO.C,C4*%
X125333333Y-63257142D02*
X125285714Y-63304761D01*
X125142857Y-63352380D01*
X125047619Y-63352380D01*
X124904761Y-63304761D01*
X124809523Y-63209523D01*
X124761904Y-63114285D01*
X124714285Y-62923809D01*
X124714285Y-62780952D01*
X124761904Y-62590476D01*
X124809523Y-62495238D01*
X124904761Y-62400000D01*
X125047619Y-62352380D01*
X125142857Y-62352380D01*
X125285714Y-62400000D01*
X125333333Y-62447619D01*
X126190476Y-62685714D02*
X126190476Y-63352380D01*
X125952380Y-62304761D02*
X125714285Y-63019047D01*
X126333333Y-63019047D01*
%TO.C,J7*%
X148256666Y-107827380D02*
X148256666Y-108541666D01*
X148209047Y-108684523D01*
X148113809Y-108779761D01*
X147970952Y-108827380D01*
X147875714Y-108827380D01*
X148637619Y-107827380D02*
X149304285Y-107827380D01*
X148875714Y-108827380D01*
%TO.C,C1*%
X153433333Y-62457142D02*
X153385714Y-62504761D01*
X153242857Y-62552380D01*
X153147619Y-62552380D01*
X153004761Y-62504761D01*
X152909523Y-62409523D01*
X152861904Y-62314285D01*
X152814285Y-62123809D01*
X152814285Y-61980952D01*
X152861904Y-61790476D01*
X152909523Y-61695238D01*
X153004761Y-61600000D01*
X153147619Y-61552380D01*
X153242857Y-61552380D01*
X153385714Y-61600000D01*
X153433333Y-61647619D01*
X154385714Y-62552380D02*
X153814285Y-62552380D01*
X154100000Y-62552380D02*
X154100000Y-61552380D01*
X154004761Y-61695238D01*
X153909523Y-61790476D01*
X153814285Y-61838095D01*
%TO.C,J1*%
X146986666Y-68597380D02*
X146986666Y-69311666D01*
X146939047Y-69454523D01*
X146843809Y-69549761D01*
X146700952Y-69597380D01*
X146605714Y-69597380D01*
X147986666Y-69597380D02*
X147415238Y-69597380D01*
X147700952Y-69597380D02*
X147700952Y-68597380D01*
X147605714Y-68740238D01*
X147510476Y-68835476D01*
X147415238Y-68883095D01*
%TO.C,R5*%
X121933333Y-69252380D02*
X121600000Y-68776190D01*
X121361904Y-69252380D02*
X121361904Y-68252380D01*
X121742857Y-68252380D01*
X121838095Y-68300000D01*
X121885714Y-68347619D01*
X121933333Y-68442857D01*
X121933333Y-68585714D01*
X121885714Y-68680952D01*
X121838095Y-68728571D01*
X121742857Y-68776190D01*
X121361904Y-68776190D01*
X122838095Y-68252380D02*
X122361904Y-68252380D01*
X122314285Y-68728571D01*
X122361904Y-68680952D01*
X122457142Y-68633333D01*
X122695238Y-68633333D01*
X122790476Y-68680952D01*
X122838095Y-68728571D01*
X122885714Y-68823809D01*
X122885714Y-69061904D01*
X122838095Y-69157142D01*
X122790476Y-69204761D01*
X122695238Y-69252380D01*
X122457142Y-69252380D01*
X122361904Y-69204761D01*
X122314285Y-69157142D01*
%TO.C,C3*%
X137257142Y-63966666D02*
X137304761Y-64014285D01*
X137352380Y-64157142D01*
X137352380Y-64252380D01*
X137304761Y-64395238D01*
X137209523Y-64490476D01*
X137114285Y-64538095D01*
X136923809Y-64585714D01*
X136780952Y-64585714D01*
X136590476Y-64538095D01*
X136495238Y-64490476D01*
X136400000Y-64395238D01*
X136352380Y-64252380D01*
X136352380Y-64157142D01*
X136400000Y-64014285D01*
X136447619Y-63966666D01*
X136352380Y-63633333D02*
X136352380Y-63014285D01*
X136733333Y-63347619D01*
X136733333Y-63204761D01*
X136780952Y-63109523D01*
X136828571Y-63061904D01*
X136923809Y-63014285D01*
X137161904Y-63014285D01*
X137257142Y-63061904D01*
X137304761Y-63109523D01*
X137352380Y-63204761D01*
X137352380Y-63490476D01*
X137304761Y-63585714D01*
X137257142Y-63633333D01*
%TO.C,J8*%
X133016666Y-97457380D02*
X133016666Y-98171666D01*
X132969047Y-98314523D01*
X132873809Y-98409761D01*
X132730952Y-98457380D01*
X132635714Y-98457380D01*
X133635714Y-97885952D02*
X133540476Y-97838333D01*
X133492857Y-97790714D01*
X133445238Y-97695476D01*
X133445238Y-97647857D01*
X133492857Y-97552619D01*
X133540476Y-97505000D01*
X133635714Y-97457380D01*
X133826190Y-97457380D01*
X133921428Y-97505000D01*
X133969047Y-97552619D01*
X134016666Y-97647857D01*
X134016666Y-97695476D01*
X133969047Y-97790714D01*
X133921428Y-97838333D01*
X133826190Y-97885952D01*
X133635714Y-97885952D01*
X133540476Y-97933571D01*
X133492857Y-97981190D01*
X133445238Y-98076428D01*
X133445238Y-98266904D01*
X133492857Y-98362142D01*
X133540476Y-98409761D01*
X133635714Y-98457380D01*
X133826190Y-98457380D01*
X133921428Y-98409761D01*
X133969047Y-98362142D01*
X134016666Y-98266904D01*
X134016666Y-98076428D01*
X133969047Y-97981190D01*
X133921428Y-97933571D01*
X133826190Y-97885952D01*
%TO.C,J4*%
X137842666Y-78402380D02*
X137842666Y-79116666D01*
X137795047Y-79259523D01*
X137699809Y-79354761D01*
X137556952Y-79402380D01*
X137461714Y-79402380D01*
X138747428Y-78735714D02*
X138747428Y-79402380D01*
X138509333Y-78354761D02*
X138271238Y-79069047D01*
X138890285Y-79069047D01*
%TO.C,J3*%
X139366666Y-68091380D02*
X139366666Y-68805666D01*
X139319047Y-68948523D01*
X139223809Y-69043761D01*
X139080952Y-69091380D01*
X138985714Y-69091380D01*
X139747619Y-68091380D02*
X140366666Y-68091380D01*
X140033333Y-68472333D01*
X140176190Y-68472333D01*
X140271428Y-68519952D01*
X140319047Y-68567571D01*
X140366666Y-68662809D01*
X140366666Y-68900904D01*
X140319047Y-68996142D01*
X140271428Y-69043761D01*
X140176190Y-69091380D01*
X139890476Y-69091380D01*
X139795238Y-69043761D01*
X139747619Y-68996142D01*
%TO.C,SW1*%
X127344761Y-80327333D02*
X127392380Y-80184476D01*
X127392380Y-79946380D01*
X127344761Y-79851142D01*
X127297142Y-79803523D01*
X127201904Y-79755904D01*
X127106666Y-79755904D01*
X127011428Y-79803523D01*
X126963809Y-79851142D01*
X126916190Y-79946380D01*
X126868571Y-80136857D01*
X126820952Y-80232095D01*
X126773333Y-80279714D01*
X126678095Y-80327333D01*
X126582857Y-80327333D01*
X126487619Y-80279714D01*
X126440000Y-80232095D01*
X126392380Y-80136857D01*
X126392380Y-79898761D01*
X126440000Y-79755904D01*
X126392380Y-79422571D02*
X127392380Y-79184476D01*
X126678095Y-78994000D01*
X127392380Y-78803523D01*
X126392380Y-78565428D01*
X127392380Y-77660666D02*
X127392380Y-78232095D01*
X127392380Y-77946380D02*
X126392380Y-77946380D01*
X126535238Y-78041619D01*
X126630476Y-78136857D01*
X126678095Y-78232095D01*
%TO.C,TP1*%
X123898095Y-123872380D02*
X124469523Y-123872380D01*
X124183809Y-124872380D02*
X124183809Y-123872380D01*
X124802857Y-124872380D02*
X124802857Y-123872380D01*
X125183809Y-123872380D01*
X125279047Y-123920000D01*
X125326666Y-123967619D01*
X125374285Y-124062857D01*
X125374285Y-124205714D01*
X125326666Y-124300952D01*
X125279047Y-124348571D01*
X125183809Y-124396190D01*
X124802857Y-124396190D01*
X126326666Y-124872380D02*
X125755238Y-124872380D01*
X126040952Y-124872380D02*
X126040952Y-123872380D01*
X125945714Y-124015238D01*
X125850476Y-124110476D01*
X125755238Y-124158095D01*
%TO.C,U2*%
X126638095Y-65452380D02*
X126638095Y-66261904D01*
X126685714Y-66357142D01*
X126733333Y-66404761D01*
X126828571Y-66452380D01*
X127019047Y-66452380D01*
X127114285Y-66404761D01*
X127161904Y-66357142D01*
X127209523Y-66261904D01*
X127209523Y-65452380D01*
X127638095Y-65547619D02*
X127685714Y-65500000D01*
X127780952Y-65452380D01*
X128019047Y-65452380D01*
X128114285Y-65500000D01*
X128161904Y-65547619D01*
X128209523Y-65642857D01*
X128209523Y-65738095D01*
X128161904Y-65880952D01*
X127590476Y-66452380D01*
X128209523Y-66452380D01*
%TO.C,R3*%
X159833333Y-64852380D02*
X159500000Y-64376190D01*
X159261904Y-64852380D02*
X159261904Y-63852380D01*
X159642857Y-63852380D01*
X159738095Y-63900000D01*
X159785714Y-63947619D01*
X159833333Y-64042857D01*
X159833333Y-64185714D01*
X159785714Y-64280952D01*
X159738095Y-64328571D01*
X159642857Y-64376190D01*
X159261904Y-64376190D01*
X160166666Y-63852380D02*
X160785714Y-63852380D01*
X160452380Y-64233333D01*
X160595238Y-64233333D01*
X160690476Y-64280952D01*
X160738095Y-64328571D01*
X160785714Y-64423809D01*
X160785714Y-64661904D01*
X160738095Y-64757142D01*
X160690476Y-64804761D01*
X160595238Y-64852380D01*
X160309523Y-64852380D01*
X160214285Y-64804761D01*
X160166666Y-64757142D01*
%TO.C,TP2*%
X134058095Y-123872380D02*
X134629523Y-123872380D01*
X134343809Y-124872380D02*
X134343809Y-123872380D01*
X134962857Y-124872380D02*
X134962857Y-123872380D01*
X135343809Y-123872380D01*
X135439047Y-123920000D01*
X135486666Y-123967619D01*
X135534285Y-124062857D01*
X135534285Y-124205714D01*
X135486666Y-124300952D01*
X135439047Y-124348571D01*
X135343809Y-124396190D01*
X134962857Y-124396190D01*
X135915238Y-123967619D02*
X135962857Y-123920000D01*
X136058095Y-123872380D01*
X136296190Y-123872380D01*
X136391428Y-123920000D01*
X136439047Y-123967619D01*
X136486666Y-124062857D01*
X136486666Y-124158095D01*
X136439047Y-124300952D01*
X135867619Y-124872380D01*
X136486666Y-124872380D01*
%TO.C,D1*%
X121261904Y-67252380D02*
X121261904Y-66252380D01*
X121500000Y-66252380D01*
X121642857Y-66300000D01*
X121738095Y-66395238D01*
X121785714Y-66490476D01*
X121833333Y-66680952D01*
X121833333Y-66823809D01*
X121785714Y-67014285D01*
X121738095Y-67109523D01*
X121642857Y-67204761D01*
X121500000Y-67252380D01*
X121261904Y-67252380D01*
X122785714Y-67252380D02*
X122214285Y-67252380D01*
X122500000Y-67252380D02*
X122500000Y-66252380D01*
X122404761Y-66395238D01*
X122309523Y-66490476D01*
X122214285Y-66538095D01*
%TO.C,U1*%
X155938095Y-61452380D02*
X155938095Y-62261904D01*
X155985714Y-62357142D01*
X156033333Y-62404761D01*
X156128571Y-62452380D01*
X156319047Y-62452380D01*
X156414285Y-62404761D01*
X156461904Y-62357142D01*
X156509523Y-62261904D01*
X156509523Y-61452380D01*
X157509523Y-62452380D02*
X156938095Y-62452380D01*
X157223809Y-62452380D02*
X157223809Y-61452380D01*
X157128571Y-61595238D01*
X157033333Y-61690476D01*
X156938095Y-61738095D01*
%TO.C,J5*%
X127936666Y-95547380D02*
X127936666Y-96261666D01*
X127889047Y-96404523D01*
X127793809Y-96499761D01*
X127650952Y-96547380D01*
X127555714Y-96547380D01*
X128889047Y-95547380D02*
X128412857Y-95547380D01*
X128365238Y-96023571D01*
X128412857Y-95975952D01*
X128508095Y-95928333D01*
X128746190Y-95928333D01*
X128841428Y-95975952D01*
X128889047Y-96023571D01*
X128936666Y-96118809D01*
X128936666Y-96356904D01*
X128889047Y-96452142D01*
X128841428Y-96499761D01*
X128746190Y-96547380D01*
X128508095Y-96547380D01*
X128412857Y-96499761D01*
X128365238Y-96452142D01*
%TO.C,J10*%
X133990476Y-60752380D02*
X133990476Y-61466666D01*
X133942857Y-61609523D01*
X133847619Y-61704761D01*
X133704761Y-61752380D01*
X133609523Y-61752380D01*
X134990476Y-61752380D02*
X134419047Y-61752380D01*
X134704761Y-61752380D02*
X134704761Y-60752380D01*
X134609523Y-60895238D01*
X134514285Y-60990476D01*
X134419047Y-61038095D01*
X135609523Y-60752380D02*
X135704761Y-60752380D01*
X135800000Y-60800000D01*
X135847619Y-60847619D01*
X135895238Y-60942857D01*
X135942857Y-61133333D01*
X135942857Y-61371428D01*
X135895238Y-61561904D01*
X135847619Y-61657142D01*
X135800000Y-61704761D01*
X135704761Y-61752380D01*
X135609523Y-61752380D01*
X135514285Y-61704761D01*
X135466666Y-61657142D01*
X135419047Y-61561904D01*
X135371428Y-61371428D01*
X135371428Y-61133333D01*
X135419047Y-60942857D01*
X135466666Y-60847619D01*
X135514285Y-60800000D01*
X135609523Y-60752380D01*
%TO.C,R6*%
X139133333Y-70552380D02*
X138800000Y-70076190D01*
X138561904Y-70552380D02*
X138561904Y-69552380D01*
X138942857Y-69552380D01*
X139038095Y-69600000D01*
X139085714Y-69647619D01*
X139133333Y-69742857D01*
X139133333Y-69885714D01*
X139085714Y-69980952D01*
X139038095Y-70028571D01*
X138942857Y-70076190D01*
X138561904Y-70076190D01*
X139990476Y-69552380D02*
X139800000Y-69552380D01*
X139704761Y-69600000D01*
X139657142Y-69647619D01*
X139561904Y-69790476D01*
X139514285Y-69980952D01*
X139514285Y-70361904D01*
X139561904Y-70457142D01*
X139609523Y-70504761D01*
X139704761Y-70552380D01*
X139895238Y-70552380D01*
X139990476Y-70504761D01*
X140038095Y-70457142D01*
X140085714Y-70361904D01*
X140085714Y-70123809D01*
X140038095Y-70028571D01*
X139990476Y-69980952D01*
X139895238Y-69933333D01*
X139704761Y-69933333D01*
X139609523Y-69980952D01*
X139561904Y-70028571D01*
X139514285Y-70123809D01*
%TO.C,J13*%
X149045476Y-113957380D02*
X149045476Y-114671666D01*
X148997857Y-114814523D01*
X148902619Y-114909761D01*
X148759761Y-114957380D01*
X148664523Y-114957380D01*
X150045476Y-114957380D02*
X149474047Y-114957380D01*
X149759761Y-114957380D02*
X149759761Y-113957380D01*
X149664523Y-114100238D01*
X149569285Y-114195476D01*
X149474047Y-114243095D01*
X150378809Y-113957380D02*
X150997857Y-113957380D01*
X150664523Y-114338333D01*
X150807380Y-114338333D01*
X150902619Y-114385952D01*
X150950238Y-114433571D01*
X150997857Y-114528809D01*
X150997857Y-114766904D01*
X150950238Y-114862142D01*
X150902619Y-114909761D01*
X150807380Y-114957380D01*
X150521666Y-114957380D01*
X150426428Y-114909761D01*
X150378809Y-114862142D01*
%TO.C,C5*%
X149733333Y-127357142D02*
X149685714Y-127404761D01*
X149542857Y-127452380D01*
X149447619Y-127452380D01*
X149304761Y-127404761D01*
X149209523Y-127309523D01*
X149161904Y-127214285D01*
X149114285Y-127023809D01*
X149114285Y-126880952D01*
X149161904Y-126690476D01*
X149209523Y-126595238D01*
X149304761Y-126500000D01*
X149447619Y-126452380D01*
X149542857Y-126452380D01*
X149685714Y-126500000D01*
X149733333Y-126547619D01*
X150638095Y-126452380D02*
X150161904Y-126452380D01*
X150114285Y-126928571D01*
X150161904Y-126880952D01*
X150257142Y-126833333D01*
X150495238Y-126833333D01*
X150590476Y-126880952D01*
X150638095Y-126928571D01*
X150685714Y-127023809D01*
X150685714Y-127261904D01*
X150638095Y-127357142D01*
X150590476Y-127404761D01*
X150495238Y-127452380D01*
X150257142Y-127452380D01*
X150161904Y-127404761D01*
X150114285Y-127357142D01*
%TO.C,C2*%
X155535333Y-70157142D02*
X155487714Y-70204761D01*
X155344857Y-70252380D01*
X155249619Y-70252380D01*
X155106761Y-70204761D01*
X155011523Y-70109523D01*
X154963904Y-70014285D01*
X154916285Y-69823809D01*
X154916285Y-69680952D01*
X154963904Y-69490476D01*
X155011523Y-69395238D01*
X155106761Y-69300000D01*
X155249619Y-69252380D01*
X155344857Y-69252380D01*
X155487714Y-69300000D01*
X155535333Y-69347619D01*
X155916285Y-69347619D02*
X155963904Y-69300000D01*
X156059142Y-69252380D01*
X156297238Y-69252380D01*
X156392476Y-69300000D01*
X156440095Y-69347619D01*
X156487714Y-69442857D01*
X156487714Y-69538095D01*
X156440095Y-69680952D01*
X155868666Y-70252380D01*
X156487714Y-70252380D01*
%TO.C,TP4*%
X154378095Y-123872380D02*
X154949523Y-123872380D01*
X154663809Y-124872380D02*
X154663809Y-123872380D01*
X155282857Y-124872380D02*
X155282857Y-123872380D01*
X155663809Y-123872380D01*
X155759047Y-123920000D01*
X155806666Y-123967619D01*
X155854285Y-124062857D01*
X155854285Y-124205714D01*
X155806666Y-124300952D01*
X155759047Y-124348571D01*
X155663809Y-124396190D01*
X155282857Y-124396190D01*
X156711428Y-124205714D02*
X156711428Y-124872380D01*
X156473333Y-123824761D02*
X156235238Y-124539047D01*
X156854285Y-124539047D01*
%TO.C,J6*%
X144446666Y-107827380D02*
X144446666Y-108541666D01*
X144399047Y-108684523D01*
X144303809Y-108779761D01*
X144160952Y-108827380D01*
X144065714Y-108827380D01*
X145351428Y-107827380D02*
X145160952Y-107827380D01*
X145065714Y-107875000D01*
X145018095Y-107922619D01*
X144922857Y-108065476D01*
X144875238Y-108255952D01*
X144875238Y-108636904D01*
X144922857Y-108732142D01*
X144970476Y-108779761D01*
X145065714Y-108827380D01*
X145256190Y-108827380D01*
X145351428Y-108779761D01*
X145399047Y-108732142D01*
X145446666Y-108636904D01*
X145446666Y-108398809D01*
X145399047Y-108303571D01*
X145351428Y-108255952D01*
X145256190Y-108208333D01*
X145065714Y-108208333D01*
X144970476Y-108255952D01*
X144922857Y-108303571D01*
X144875238Y-108398809D01*
%TO.C,C6*%
X131913333Y-93957142D02*
X131865714Y-94004761D01*
X131722857Y-94052380D01*
X131627619Y-94052380D01*
X131484761Y-94004761D01*
X131389523Y-93909523D01*
X131341904Y-93814285D01*
X131294285Y-93623809D01*
X131294285Y-93480952D01*
X131341904Y-93290476D01*
X131389523Y-93195238D01*
X131484761Y-93100000D01*
X131627619Y-93052380D01*
X131722857Y-93052380D01*
X131865714Y-93100000D01*
X131913333Y-93147619D01*
X132770476Y-93052380D02*
X132580000Y-93052380D01*
X132484761Y-93100000D01*
X132437142Y-93147619D01*
X132341904Y-93290476D01*
X132294285Y-93480952D01*
X132294285Y-93861904D01*
X132341904Y-93957142D01*
X132389523Y-94004761D01*
X132484761Y-94052380D01*
X132675238Y-94052380D01*
X132770476Y-94004761D01*
X132818095Y-93957142D01*
X132865714Y-93861904D01*
X132865714Y-93623809D01*
X132818095Y-93528571D01*
X132770476Y-93480952D01*
X132675238Y-93433333D01*
X132484761Y-93433333D01*
X132389523Y-93480952D01*
X132341904Y-93528571D01*
X132294285Y-93623809D01*
%TO.C,J12*%
X138885476Y-113957380D02*
X138885476Y-114671666D01*
X138837857Y-114814523D01*
X138742619Y-114909761D01*
X138599761Y-114957380D01*
X138504523Y-114957380D01*
X139885476Y-114957380D02*
X139314047Y-114957380D01*
X139599761Y-114957380D02*
X139599761Y-113957380D01*
X139504523Y-114100238D01*
X139409285Y-114195476D01*
X139314047Y-114243095D01*
X140266428Y-114052619D02*
X140314047Y-114005000D01*
X140409285Y-113957380D01*
X140647380Y-113957380D01*
X140742619Y-114005000D01*
X140790238Y-114052619D01*
X140837857Y-114147857D01*
X140837857Y-114243095D01*
X140790238Y-114385952D01*
X140218809Y-114957380D01*
X140837857Y-114957380D01*
%TO.C,R2*%
X145333333Y-75052380D02*
X145000000Y-74576190D01*
X144761904Y-75052380D02*
X144761904Y-74052380D01*
X145142857Y-74052380D01*
X145238095Y-74100000D01*
X145285714Y-74147619D01*
X145333333Y-74242857D01*
X145333333Y-74385714D01*
X145285714Y-74480952D01*
X145238095Y-74528571D01*
X145142857Y-74576190D01*
X144761904Y-74576190D01*
X145714285Y-74147619D02*
X145761904Y-74100000D01*
X145857142Y-74052380D01*
X146095238Y-74052380D01*
X146190476Y-74100000D01*
X146238095Y-74147619D01*
X146285714Y-74242857D01*
X146285714Y-74338095D01*
X146238095Y-74480952D01*
X145666666Y-75052380D01*
X146285714Y-75052380D01*
%TO.C,R1*%
X148433333Y-75052380D02*
X148100000Y-74576190D01*
X147861904Y-75052380D02*
X147861904Y-74052380D01*
X148242857Y-74052380D01*
X148338095Y-74100000D01*
X148385714Y-74147619D01*
X148433333Y-74242857D01*
X148433333Y-74385714D01*
X148385714Y-74480952D01*
X148338095Y-74528571D01*
X148242857Y-74576190D01*
X147861904Y-74576190D01*
X149385714Y-75052380D02*
X148814285Y-75052380D01*
X149100000Y-75052380D02*
X149100000Y-74052380D01*
X149004761Y-74195238D01*
X148909523Y-74290476D01*
X148814285Y-74338095D01*
D11*
%TO.C,TP3*%
X146280000Y-121920000D02*
G75*
G03*
X146280000Y-121920000I-1500000J0D01*
G01*
%TO.C,J11*%
X132135000Y-115505000D02*
X132135000Y-120705000D01*
X129535000Y-115505000D02*
X132135000Y-115505000D01*
X126935000Y-120705000D02*
X132135000Y-120705000D01*
X129535000Y-118105000D02*
X129535000Y-115505000D01*
X126935000Y-116835000D02*
X126935000Y-115505000D01*
X126935000Y-118105000D02*
X126935000Y-120705000D01*
X126935000Y-118105000D02*
X129535000Y-118105000D01*
X126935000Y-115505000D02*
X128265000Y-115505000D01*
%TO.C,R4*%
X129767064Y-83793000D02*
X129312936Y-83793000D01*
X129767064Y-82323000D02*
X129312936Y-82323000D01*
%TO.C,J9*%
X130304000Y-64610000D02*
X127829000Y-64610000D01*
X130304000Y-62390000D02*
X127829000Y-62390000D01*
X131824000Y-62390000D02*
X131824000Y-63500000D01*
X130304000Y-62390000D02*
X130304000Y-62936529D01*
X127829000Y-62390000D02*
X127829000Y-63192470D01*
X130304000Y-64063471D02*
X130304000Y-64610000D01*
X127829000Y-63807530D02*
X127829000Y-64610000D01*
X131064000Y-62390000D02*
X131824000Y-62390000D01*
%TO.C,C4*%
X125737252Y-65251000D02*
X125214748Y-65251000D01*
X125737252Y-63781000D02*
X125214748Y-63781000D01*
%TO.C,J7*%
X149700000Y-105920000D02*
X149153471Y-105920000D01*
X147480000Y-105920000D02*
X147480000Y-103445000D01*
X149700000Y-107440000D02*
X148590000Y-107440000D01*
X148282470Y-103445000D02*
X147480000Y-103445000D01*
X149700000Y-106680000D02*
X149700000Y-107440000D01*
X149700000Y-103445000D02*
X148897530Y-103445000D01*
X148026529Y-105920000D02*
X147480000Y-105920000D01*
X149700000Y-105920000D02*
X149700000Y-103445000D01*
%TO.C,C1*%
X154405000Y-64777252D02*
X154405000Y-64254748D01*
X152935000Y-64777252D02*
X152935000Y-64254748D01*
%TO.C,J1*%
X152020000Y-59600000D02*
X142620000Y-59600000D01*
X142620000Y-65400000D02*
X142620000Y-63400000D01*
X142620000Y-61500000D02*
X142620000Y-59600000D01*
X152020000Y-61500000D02*
X152020000Y-59600000D01*
X152020000Y-65400000D02*
X152020000Y-63400000D01*
%TO.C,R5*%
X124486936Y-68099000D02*
X124941064Y-68099000D01*
X124486936Y-69569000D02*
X124941064Y-69569000D01*
%TO.C,C3*%
X136171000Y-66286748D02*
X136171000Y-66809252D01*
X137641000Y-66286748D02*
X137641000Y-66809252D01*
%TO.C,J8*%
X132020000Y-101605000D02*
X134680000Y-101605000D01*
X132020000Y-100335000D02*
X132020000Y-99005000D01*
X132020000Y-101605000D02*
X132020000Y-111825000D01*
X132020000Y-99005000D02*
X133350000Y-99005000D01*
X132020000Y-111825000D02*
X134680000Y-111825000D01*
X134680000Y-101605000D02*
X134680000Y-111825000D01*
%TO.C,J4*%
X135576000Y-79950000D02*
X136906000Y-79950000D01*
X135576000Y-92770000D02*
X140776000Y-92770000D01*
X135576000Y-82550000D02*
X135576000Y-92770000D01*
X140776000Y-79950000D02*
X140776000Y-92770000D01*
X138176000Y-82550000D02*
X138176000Y-79950000D01*
X135576000Y-81280000D02*
X135576000Y-79950000D01*
X135576000Y-82550000D02*
X138176000Y-82550000D01*
X138176000Y-79950000D02*
X140776000Y-79950000D01*
%TO.C,J3*%
X139392470Y-64979000D02*
X138590000Y-64979000D01*
X139136529Y-66184000D02*
X138590000Y-66184000D01*
X140810000Y-66944000D02*
X140810000Y-67704000D01*
X140810000Y-66184000D02*
X140810000Y-64979000D01*
X140810000Y-64979000D02*
X140007530Y-64979000D01*
X138590000Y-66184000D02*
X138590000Y-64979000D01*
X140810000Y-66184000D02*
X140263471Y-66184000D01*
X140810000Y-67704000D02*
X139700000Y-67704000D01*
%TO.C,SW1*%
X127960000Y-76794000D02*
X127840000Y-76794000D01*
X127840000Y-81194000D02*
X127960000Y-81194000D01*
X131120000Y-81194000D02*
X131240000Y-81194000D01*
X131240000Y-81194000D02*
X131240000Y-76794000D01*
X130110000Y-76794000D02*
X128970000Y-76794000D01*
X128970000Y-81194000D02*
X130110000Y-81194000D01*
X131240000Y-76794000D02*
X131120000Y-76794000D01*
X127840000Y-76794000D02*
X127840000Y-81194000D01*
%TO.C,TP1*%
X125960000Y-121920000D02*
G75*
G03*
X125960000Y-121920000I-1500000J0D01*
G01*
%TO.C,U2*%
X132080000Y-65298000D02*
X128630000Y-65298000D01*
X132080000Y-75418000D02*
X134030000Y-75418000D01*
X132080000Y-65298000D02*
X134030000Y-65298000D01*
X132080000Y-75418000D02*
X130130000Y-75418000D01*
%TO.C,R3*%
X159285000Y-66574936D02*
X159285000Y-67029064D01*
X160755000Y-66574936D02*
X160755000Y-67029064D01*
%TO.C,TP2*%
X136120000Y-121920000D02*
G75*
G03*
X136120000Y-121920000I-1500000J0D01*
G01*
%TO.C,D1*%
X125714000Y-65842000D02*
X123029000Y-65842000D01*
X123029000Y-67762000D02*
X125714000Y-67762000D01*
X123029000Y-65842000D02*
X123029000Y-67762000D01*
%TO.C,U1*%
X158278000Y-64770000D02*
X158278000Y-65570000D01*
X155158000Y-64770000D02*
X155158000Y-63970000D01*
X155158000Y-64770000D02*
X155158000Y-66570000D01*
X158278000Y-64770000D02*
X158278000Y-63970000D01*
%TO.C,J5*%
X128833471Y-98550000D02*
X129380000Y-98550000D01*
X127160000Y-101025000D02*
X127962470Y-101025000D01*
X127160000Y-97030000D02*
X128270000Y-97030000D01*
X128577530Y-101025000D02*
X129380000Y-101025000D01*
X127160000Y-98550000D02*
X127160000Y-101025000D01*
X127160000Y-97790000D02*
X127160000Y-97030000D01*
X129380000Y-98550000D02*
X129380000Y-101025000D01*
X127160000Y-98550000D02*
X127706529Y-98550000D01*
%TO.C,J10*%
X134002000Y-62390000D02*
X132797000Y-62390000D01*
X134762000Y-62390000D02*
X135522000Y-62390000D01*
X135522000Y-62390000D02*
X135522000Y-63500000D01*
X134002000Y-62390000D02*
X134002000Y-62936529D01*
X134002000Y-64610000D02*
X132797000Y-64610000D01*
X132797000Y-62390000D02*
X132797000Y-63192470D01*
X134002000Y-64063471D02*
X134002000Y-64610000D01*
X132797000Y-63807530D02*
X132797000Y-64610000D01*
%TO.C,R6*%
X136679000Y-70331064D02*
X136679000Y-69876936D01*
X138149000Y-70331064D02*
X138149000Y-69876936D01*
%TO.C,J13*%
X149855000Y-115505000D02*
X152455000Y-115505000D01*
X147255000Y-116835000D02*
X147255000Y-115505000D01*
X147255000Y-115505000D02*
X148585000Y-115505000D01*
X152455000Y-115505000D02*
X152455000Y-120705000D01*
X149855000Y-118105000D02*
X149855000Y-115505000D01*
X147255000Y-120705000D02*
X152455000Y-120705000D01*
X147255000Y-118105000D02*
X147255000Y-120705000D01*
X147255000Y-118105000D02*
X149855000Y-118105000D01*
%TO.C,C5*%
X149125000Y-124721252D02*
X149125000Y-124198748D01*
X150595000Y-124721252D02*
X150595000Y-124198748D01*
%TO.C,C2*%
X155440748Y-67337000D02*
X155963252Y-67337000D01*
X155440748Y-68807000D02*
X155963252Y-68807000D01*
%TO.C,TP4*%
X156440000Y-121920000D02*
G75*
G03*
X156440000Y-121920000I-1500000J0D01*
G01*
%TO.C,J6*%
X145890000Y-105920000D02*
X145343471Y-105920000D01*
X145890000Y-103445000D02*
X145087530Y-103445000D01*
X145890000Y-107440000D02*
X144780000Y-107440000D01*
X145890000Y-106680000D02*
X145890000Y-107440000D01*
X145890000Y-105920000D02*
X145890000Y-103445000D01*
X144216529Y-105920000D02*
X143670000Y-105920000D01*
X143670000Y-105920000D02*
X143670000Y-103445000D01*
X144472470Y-103445000D02*
X143670000Y-103445000D01*
%TO.C,C6*%
X132341252Y-95985000D02*
X131818748Y-95985000D01*
X132341252Y-94515000D02*
X131818748Y-94515000D01*
%TO.C,J12*%
X142295000Y-115505000D02*
X142295000Y-120705000D01*
X137095000Y-118105000D02*
X139695000Y-118105000D01*
X139695000Y-115505000D02*
X142295000Y-115505000D01*
X137095000Y-115505000D02*
X138425000Y-115505000D01*
X137095000Y-120705000D02*
X142295000Y-120705000D01*
X137095000Y-116835000D02*
X137095000Y-115505000D01*
X137095000Y-118105000D02*
X137095000Y-120705000D01*
X139695000Y-118105000D02*
X139695000Y-115505000D01*
%TO.C,R2*%
X144807000Y-71908936D02*
X144807000Y-72363064D01*
X146277000Y-71908936D02*
X146277000Y-72363064D01*
%TO.C,R1*%
X149325000Y-71908936D02*
X149325000Y-72363064D01*
X147855000Y-71908936D02*
X147855000Y-72363064D01*
%TD*%
%LPC*%
D12*
%TO.C,TP3*%
X144780000Y-121920000D03*
%TD*%
D13*
%TO.C,J11*%
X128265000Y-116835000D03*
D14*
X130805000Y-116835000D03*
X128265000Y-119375000D03*
X130805000Y-119375000D03*
%TD*%
D15*
%TO.C,R4*%
X130452500Y-83058000D03*
X128627500Y-83058000D03*
%TD*%
D16*
%TO.C,J9*%
X131064000Y-63500000D03*
D17*
X129794000Y-63500000D03*
X128524000Y-63500000D03*
%TD*%
D18*
%TO.C,C4*%
X126426000Y-64516000D03*
X124526000Y-64516000D03*
%TD*%
D16*
%TO.C,J7*%
X148590000Y-106680000D03*
D17*
X148590000Y-105410000D03*
X148590000Y-104140000D03*
%TD*%
D19*
%TO.C,C1*%
X153670000Y-65466000D03*
X153670000Y-63566000D03*
%TD*%
D20*
%TO.C,J1*%
X150210000Y-66100000D03*
X144430000Y-66100000D03*
D21*
X150570000Y-67545000D03*
X149770000Y-67545000D03*
D22*
X148570000Y-67545000D03*
X147570000Y-67545000D03*
X147070000Y-67545000D03*
X146070000Y-67545000D03*
D21*
X144870000Y-67545000D03*
X144070000Y-67545000D03*
X144070000Y-67545000D03*
X144870000Y-67545000D03*
D22*
X145570000Y-67545000D03*
X146570000Y-67545000D03*
X148070000Y-67545000D03*
X149070000Y-67545000D03*
D21*
X149770000Y-67545000D03*
X150570000Y-67545000D03*
D23*
X143000000Y-66630000D03*
X151640000Y-66630000D03*
D24*
X151640000Y-62450000D03*
X143000000Y-62450000D03*
%TD*%
D25*
%TO.C,R5*%
X123801500Y-68834000D03*
X125626500Y-68834000D03*
%TD*%
D26*
%TO.C,C3*%
X136906000Y-65598000D03*
X136906000Y-67498000D03*
%TD*%
D13*
%TO.C,J8*%
X133350000Y-100335000D03*
D14*
X133350000Y-102875000D03*
X133350000Y-105415000D03*
X133350000Y-107955000D03*
X133350000Y-110495000D03*
%TD*%
D13*
%TO.C,J4*%
X136906000Y-81280000D03*
D14*
X139446000Y-81280000D03*
X136906000Y-83820000D03*
X139446000Y-83820000D03*
X136906000Y-86360000D03*
X139446000Y-86360000D03*
X136906000Y-88900000D03*
X139446000Y-88900000D03*
X136906000Y-91440000D03*
X139446000Y-91440000D03*
%TD*%
D16*
%TO.C,J3*%
X139700000Y-66944000D03*
D17*
X139700000Y-65674000D03*
%TD*%
D27*
%TO.C,SW1*%
X128465000Y-76919000D03*
X128465000Y-81069000D03*
X130615000Y-76919000D03*
X130615000Y-81069000D03*
%TD*%
D12*
%TO.C,TP1*%
X124460000Y-121920000D03*
%TD*%
D28*
%TO.C,U2*%
X129505000Y-65913000D03*
X129505000Y-67183000D03*
X129505000Y-68453000D03*
X129505000Y-69723000D03*
X129505000Y-70993000D03*
X129505000Y-72263000D03*
X129505000Y-73533000D03*
X129505000Y-74803000D03*
X134655000Y-74803000D03*
X134655000Y-73533000D03*
X134655000Y-72263000D03*
X134655000Y-70993000D03*
X134655000Y-69723000D03*
X134655000Y-68453000D03*
X134655000Y-67183000D03*
X134655000Y-65913000D03*
%TD*%
D29*
%TO.C,R3*%
X160020000Y-65889500D03*
X160020000Y-67714500D03*
%TD*%
D12*
%TO.C,TP2*%
X134620000Y-121920000D03*
%TD*%
D30*
%TO.C,D1*%
X123776500Y-66802000D03*
X125651500Y-66802000D03*
%TD*%
D31*
%TO.C,U1*%
X155768000Y-65907500D03*
X156718000Y-65907500D03*
X157668000Y-65907500D03*
X157668000Y-63632500D03*
X155768000Y-63632500D03*
%TD*%
D16*
%TO.C,J5*%
X128270000Y-97790000D03*
D17*
X128270000Y-99060000D03*
X128270000Y-100330000D03*
%TD*%
D16*
%TO.C,J10*%
X134762000Y-63500000D03*
D17*
X133492000Y-63500000D03*
%TD*%
D32*
%TO.C,R6*%
X137414000Y-71016500D03*
X137414000Y-69191500D03*
%TD*%
D13*
%TO.C,J13*%
X148585000Y-116835000D03*
D14*
X151125000Y-116835000D03*
X148585000Y-119375000D03*
X151125000Y-119375000D03*
%TD*%
D19*
%TO.C,C5*%
X149860000Y-125410000D03*
X149860000Y-123510000D03*
%TD*%
D33*
%TO.C,C2*%
X154752000Y-68072000D03*
X156652000Y-68072000D03*
%TD*%
D12*
%TO.C,TP4*%
X154940000Y-121920000D03*
%TD*%
D16*
%TO.C,J6*%
X144780000Y-106680000D03*
D17*
X144780000Y-105410000D03*
X144780000Y-104140000D03*
%TD*%
D18*
%TO.C,C6*%
X133030000Y-95250000D03*
X131130000Y-95250000D03*
%TD*%
D13*
%TO.C,J12*%
X138425000Y-116835000D03*
D14*
X140965000Y-116835000D03*
X138425000Y-119375000D03*
X140965000Y-119375000D03*
%TD*%
D29*
%TO.C,R2*%
X145542000Y-71223500D03*
X145542000Y-73048500D03*
%TD*%
%TO.C,R1*%
X148590000Y-71223500D03*
X148590000Y-73048500D03*
%TD*%
D13*
%TO.C,PMOD2*%
X121920000Y-104140000D03*
D14*
X121920000Y-106680000D03*
X121920000Y-109220000D03*
X121920000Y-111760000D03*
X121920000Y-114300000D03*
X121920000Y-116840000D03*
X124460000Y-104140000D03*
X124460000Y-106680000D03*
X124460000Y-109220000D03*
X124460000Y-111760000D03*
X124460000Y-114300000D03*
X124460000Y-116840000D03*
%TD*%
D13*
%TO.C,J2*%
X158745000Y-124460000D03*
D14*
X161285000Y-124460000D03*
X158745000Y-121920000D03*
X161285000Y-121920000D03*
X158745000Y-119380000D03*
X161285000Y-119380000D03*
X158745000Y-116840000D03*
X161285000Y-116840000D03*
X158745000Y-114300000D03*
X161285000Y-114300000D03*
X158745000Y-111760000D03*
X161285000Y-111760000D03*
X158745000Y-109220000D03*
X161285000Y-109220000D03*
X158745000Y-106680000D03*
X161285000Y-106680000D03*
X158745000Y-104140000D03*
X161285000Y-104140000D03*
X158745000Y-101600000D03*
X161285000Y-101600000D03*
X158745000Y-99060000D03*
X161285000Y-99060000D03*
X158745000Y-96520000D03*
X161285000Y-96520000D03*
X158745000Y-93980000D03*
X161285000Y-93980000D03*
X158745000Y-91440000D03*
X161285000Y-91440000D03*
X158745000Y-88900000D03*
X161285000Y-88900000D03*
X158745000Y-86360000D03*
X161285000Y-86360000D03*
X158745000Y-83820000D03*
X161285000Y-83820000D03*
X158745000Y-81280000D03*
X161285000Y-81280000D03*
X158745000Y-78740000D03*
X161285000Y-78740000D03*
X158745000Y-76200000D03*
X161285000Y-76200000D03*
X158745000Y-73660000D03*
X161285000Y-73660000D03*
X158745000Y-71120000D03*
X161285000Y-71120000D03*
%TD*%
D13*
%TO.C,PMOD1*%
X121920000Y-81280000D03*
D14*
X121920000Y-83820000D03*
X121920000Y-86360000D03*
X121920000Y-88900000D03*
X121920000Y-91440000D03*
X121920000Y-93980000D03*
X124460000Y-81280000D03*
X124460000Y-83820000D03*
X124460000Y-86360000D03*
X124460000Y-88900000D03*
X124460000Y-91440000D03*
X124460000Y-93980000D03*
%TD*%
M02*
