%FSLAX45Y45*%
G04 Gerber Fmt 4.5, Leading zero omitted, Abs format (unit mm)*
G04 Created by KiCad (PCBNEW (6.0.5)) date 2024-06-23 18:04:05*
%MOMM*%
%LPD*%
G01*
G04 APERTURE LIST*
%TA.AperFunction,Profile*%
%ADD10C,0.100000*%
%TD*%
%ADD11C,0.200000*%
G04 APERTURE END LIST*
D10*
X13000000Y-8600000D02*
X17650000Y-8600000D01*
X17650000Y-8600000D02*
X17650000Y-10450000D01*
X17650000Y-10450000D02*
X13000000Y-10450000D01*
X13000000Y-10450000D02*
X13000000Y-8600000D01*
D11*
X13252619Y-10765476D02*
X13252619Y-10565476D01*
X13300238Y-10565476D01*
X13328809Y-10575000D01*
X13347857Y-10594048D01*
X13357381Y-10613095D01*
X13366905Y-10651190D01*
X13366905Y-10679762D01*
X13357381Y-10717857D01*
X13347857Y-10736905D01*
X13328809Y-10755952D01*
X13300238Y-10765476D01*
X13252619Y-10765476D01*
X13452619Y-10765476D02*
X13452619Y-10632143D01*
X13452619Y-10670238D02*
X13462143Y-10651190D01*
X13471667Y-10641667D01*
X13490714Y-10632143D01*
X13509762Y-10632143D01*
X13576428Y-10765476D02*
X13576428Y-10632143D01*
X13576428Y-10565476D02*
X13566905Y-10575000D01*
X13576428Y-10584524D01*
X13585952Y-10575000D01*
X13576428Y-10565476D01*
X13576428Y-10584524D01*
X13700238Y-10765476D02*
X13681190Y-10755952D01*
X13671667Y-10736905D01*
X13671667Y-10565476D01*
X13805000Y-10765476D02*
X13785952Y-10755952D01*
X13776428Y-10736905D01*
X13776428Y-10565476D01*
X14033571Y-10765476D02*
X14033571Y-10565476D01*
X14100238Y-10708333D01*
X14166905Y-10565476D01*
X14166905Y-10765476D01*
X14347857Y-10765476D02*
X14347857Y-10660714D01*
X14338333Y-10641667D01*
X14319286Y-10632143D01*
X14281190Y-10632143D01*
X14262143Y-10641667D01*
X14347857Y-10755952D02*
X14328809Y-10765476D01*
X14281190Y-10765476D01*
X14262143Y-10755952D01*
X14252619Y-10736905D01*
X14252619Y-10717857D01*
X14262143Y-10698810D01*
X14281190Y-10689286D01*
X14328809Y-10689286D01*
X14347857Y-10679762D01*
X14443095Y-10632143D02*
X14443095Y-10832143D01*
X14443095Y-10641667D02*
X14462143Y-10632143D01*
X14500238Y-10632143D01*
X14519286Y-10641667D01*
X14528809Y-10651190D01*
X14538333Y-10670238D01*
X14538333Y-10727381D01*
X14528809Y-10746429D01*
X14519286Y-10755952D01*
X14500238Y-10765476D01*
X14462143Y-10765476D01*
X14443095Y-10755952D01*
X14624048Y-10746429D02*
X14633571Y-10755952D01*
X14624048Y-10765476D01*
X14614524Y-10755952D01*
X14624048Y-10746429D01*
X14624048Y-10765476D01*
X14624048Y-10641667D02*
X14633571Y-10651190D01*
X14624048Y-10660714D01*
X14614524Y-10651190D01*
X14624048Y-10641667D01*
X14624048Y-10660714D01*
M02*
