%TF.GenerationSoftware,KiCad,Pcbnew,(6.0.5)*%
%TF.CreationDate,2024-06-23T18:03:47+02:00*%
%TF.ProjectId,pmod_level_shifter_8p,706d6f64-5f6c-4657-9665-6c5f73686966,rev?*%
%TF.SameCoordinates,Original*%
%TF.FileFunction,Soldermask,Top*%
%TF.FilePolarity,Negative*%
%FSLAX46Y46*%
G04 Gerber Fmt 4.6, Leading zero omitted, Abs format (unit mm)*
G04 Created by KiCad (PCBNEW (6.0.5)) date 2024-06-23 18:03:47*
%MOMM*%
%LPD*%
G01*
G04 APERTURE LIST*
G04 Aperture macros list*
%AMRoundRect*
0 Rectangle with rounded corners*
0 $1 Rounding radius*
0 $2 $3 $4 $5 $6 $7 $8 $9 X,Y pos of 4 corners*
0 Add a 4 corners polygon primitive as box body*
4,1,4,$2,$3,$4,$5,$6,$7,$8,$9,$2,$3,0*
0 Add four circle primitives for the rounded corners*
1,1,$1+$1,$2,$3*
1,1,$1+$1,$4,$5*
1,1,$1+$1,$6,$7*
1,1,$1+$1,$8,$9*
0 Add four rect primitives between the rounded corners*
20,1,$1+$1,$2,$3,$4,$5,0*
20,1,$1+$1,$4,$5,$6,$7,0*
20,1,$1+$1,$6,$7,$8,$9,0*
20,1,$1+$1,$8,$9,$2,$3,0*%
G04 Aperture macros list end*
%ADD10C,1.700000*%
%ADD11C,0.010000*%
%ADD12R,1.500000X4.000000*%
%ADD13RoundRect,0.250000X-0.250000X-0.475000X0.250000X-0.475000X0.250000X0.475000X-0.250000X0.475000X0*%
%ADD14RoundRect,0.250000X-0.475000X0.250000X-0.475000X-0.250000X0.475000X-0.250000X0.475000X0.250000X0*%
%ADD15R,2.150000X2.150000*%
%ADD16R,0.800000X1.400000*%
%ADD17RoundRect,0.250000X0.250000X0.475000X-0.250000X0.475000X-0.250000X-0.475000X0.250000X-0.475000X0*%
%ADD18RoundRect,0.250000X-0.650000X0.325000X-0.650000X-0.325000X0.650000X-0.325000X0.650000X0.325000X0*%
%ADD19R,1.700000X1.700000*%
%ADD20O,1.700000X1.700000*%
%ADD21R,1.475000X0.450000*%
G04 APERTURE END LIST*
%TO.C,U1*%
G36*
X143250000Y-99150000D02*
G01*
X142725000Y-99150000D01*
X142725000Y-96975000D01*
X143250000Y-96975000D01*
X143250000Y-99150000D01*
G37*
D10*
X143250000Y-99150000D02*
X142725000Y-99150000D01*
X142725000Y-96975000D01*
X143250000Y-96975000D01*
X143250000Y-99150000D01*
G36*
X143500000Y-101780000D02*
G01*
X142500000Y-101780000D01*
X142500000Y-100180000D01*
X143500000Y-100180000D01*
X143500000Y-101780000D01*
G37*
D11*
X143500000Y-101780000D02*
X142500000Y-101780000D01*
X142500000Y-100180000D01*
X143500000Y-100180000D01*
X143500000Y-101780000D01*
%TD*%
D12*
%TO.C,L1*%
X141200000Y-90000000D03*
X144800000Y-90000000D03*
%TD*%
D13*
%TO.C,C4*%
X153550000Y-96500000D03*
X155450000Y-96500000D03*
%TD*%
D14*
%TO.C,C1*%
X139500000Y-99050000D03*
X139500000Y-100950000D03*
%TD*%
D13*
%TO.C,C5*%
X153550000Y-88500000D03*
X155450000Y-88500000D03*
%TD*%
D15*
%TO.C,D1*%
X148500000Y-94300000D03*
X148500000Y-89700000D03*
%TD*%
D16*
%TO.C,U1*%
X141501000Y-100981000D03*
X144499000Y-100981000D03*
%TD*%
D17*
%TO.C,C6*%
X159450000Y-96500000D03*
X157550000Y-96500000D03*
%TD*%
D18*
%TO.C,C3*%
X147000000Y-97525000D03*
X147000000Y-100475000D03*
%TD*%
D19*
%TO.C,PMOD1*%
X136650000Y-88830000D03*
D20*
X136650000Y-91370000D03*
X136650000Y-93910000D03*
X136650000Y-96450000D03*
X136650000Y-98990000D03*
X136650000Y-101530000D03*
X134110000Y-88830000D03*
X134110000Y-91370000D03*
X134110000Y-93910000D03*
X134110000Y-96450000D03*
X134110000Y-98990000D03*
X134110000Y-101530000D03*
%TD*%
D21*
%TO.C,IC1*%
X153562000Y-90550000D03*
X153562000Y-91200000D03*
X153562000Y-91850000D03*
X153562000Y-92500000D03*
X153562000Y-93150000D03*
X153562000Y-93800000D03*
X153562000Y-94450000D03*
X159438000Y-94450000D03*
X159438000Y-93800000D03*
X159438000Y-93150000D03*
X159438000Y-92500000D03*
X159438000Y-91850000D03*
X159438000Y-91200000D03*
X159438000Y-90550000D03*
%TD*%
D19*
%TO.C,J1*%
X163875000Y-88830000D03*
D20*
X163875000Y-91370000D03*
X163875000Y-93910000D03*
X163875000Y-96450000D03*
X163875000Y-98990000D03*
X163875000Y-101530000D03*
X166415000Y-88830000D03*
X166415000Y-91370000D03*
X166415000Y-93910000D03*
X166415000Y-96450000D03*
X166415000Y-98990000D03*
X166415000Y-101530000D03*
%TD*%
D21*
%TO.C,IC2*%
X153562000Y-98550000D03*
X153562000Y-99200000D03*
X153562000Y-99850000D03*
X153562000Y-100500000D03*
X153562000Y-101150000D03*
X153562000Y-101800000D03*
X153562000Y-102450000D03*
X159438000Y-102450000D03*
X159438000Y-101800000D03*
X159438000Y-101150000D03*
X159438000Y-100500000D03*
X159438000Y-99850000D03*
X159438000Y-99200000D03*
X159438000Y-98550000D03*
%TD*%
D17*
%TO.C,C7*%
X159400000Y-88500000D03*
X157500000Y-88500000D03*
%TD*%
D18*
%TO.C,C2*%
X149500000Y-97525000D03*
X149500000Y-100475000D03*
%TD*%
M02*
