%TF.GenerationSoftware,KiCad,Pcbnew,(6.0.5)*%
%TF.CreationDate,2024-06-23T18:03:47+02:00*%
%TF.ProjectId,pmod_level_shifter_8p,706d6f64-5f6c-4657-9665-6c5f73686966,rev?*%
%TF.SameCoordinates,Original*%
%TF.FileFunction,Copper,L2,Bot*%
%TF.FilePolarity,Positive*%
%FSLAX46Y46*%
G04 Gerber Fmt 4.6, Leading zero omitted, Abs format (unit mm)*
G04 Created by KiCad (PCBNEW (6.0.5)) date 2024-06-23 18:03:47*
%MOMM*%
%LPD*%
G01*
G04 APERTURE LIST*
%TA.AperFunction,ComponentPad*%
%ADD10R,1.700000X1.700000*%
%TD*%
%TA.AperFunction,ComponentPad*%
%ADD11O,1.700000X1.700000*%
%TD*%
%TA.AperFunction,ViaPad*%
%ADD12C,0.800000*%
%TD*%
%TA.AperFunction,Conductor*%
%ADD13C,0.600000*%
%TD*%
%TA.AperFunction,Conductor*%
%ADD14C,0.400000*%
%TD*%
G04 APERTURE END LIST*
D10*
%TO.P,PMOD1,1,IOA0*%
%TO.N,/LV1*%
X136650000Y-88830000D03*
D11*
%TO.P,PMOD1,2,IOA1*%
%TO.N,/LV3*%
X136650000Y-91370000D03*
%TO.P,PMOD1,3,IOA2*%
%TO.N,/LV5*%
X136650000Y-93910000D03*
%TO.P,PMOD1,4,IOA3*%
%TO.N,/LV7*%
X136650000Y-96450000D03*
%TO.P,PMOD1,5,GND*%
%TO.N,GND*%
X136650000Y-98990000D03*
%TO.P,PMOD1,6,VCC*%
%TO.N,+3V3*%
X136650000Y-101530000D03*
%TO.P,PMOD1,7,IOB0*%
%TO.N,/LV2*%
X134110000Y-88830000D03*
%TO.P,PMOD1,8,IOB1*%
%TO.N,/LV4*%
X134110000Y-91370000D03*
%TO.P,PMOD1,9,IOB2*%
%TO.N,/LV6*%
X134110000Y-93910000D03*
%TO.P,PMOD1,10,IOB3*%
%TO.N,/LV8*%
X134110000Y-96450000D03*
%TO.P,PMOD1,11,GND*%
%TO.N,GND*%
X134110000Y-98990000D03*
%TO.P,PMOD1,12,VCC*%
%TO.N,+3V3*%
X134110000Y-101530000D03*
%TD*%
D10*
%TO.P,J1,1,IOA0*%
%TO.N,/HV1*%
X163875000Y-88830000D03*
D11*
%TO.P,J1,2,IOA1*%
%TO.N,/HV3*%
X163875000Y-91370000D03*
%TO.P,J1,3,IOA2*%
%TO.N,/HV5*%
X163875000Y-93910000D03*
%TO.P,J1,4,IOA3*%
%TO.N,/HV7*%
X163875000Y-96450000D03*
%TO.P,J1,5,GND*%
%TO.N,GND*%
X163875000Y-98990000D03*
%TO.P,J1,6,VCC*%
%TO.N,+5V*%
X163875000Y-101530000D03*
%TO.P,J1,7,IOB0*%
%TO.N,/HV2*%
X166415000Y-88830000D03*
%TO.P,J1,8,IOB1*%
%TO.N,/HV4*%
X166415000Y-91370000D03*
%TO.P,J1,9,IOB2*%
%TO.N,/HV6*%
X166415000Y-93910000D03*
%TO.P,J1,10,IOB3*%
%TO.N,/HV8*%
X166415000Y-96450000D03*
%TO.P,J1,11,GND*%
%TO.N,GND*%
X166415000Y-98990000D03*
%TO.P,J1,12,VCC*%
%TO.N,+5V*%
X166415000Y-101530000D03*
%TD*%
D12*
%TO.N,GND*%
X155250000Y-102000000D03*
X172250000Y-87750000D03*
X156500000Y-97500000D03*
X149500000Y-102000000D03*
X156500000Y-89500000D03*
X147000000Y-102000000D03*
X152250000Y-95250000D03*
X172250000Y-102500000D03*
X139000000Y-87750000D03*
%TO.N,+5V*%
X161250000Y-94000000D03*
X161000000Y-89500000D03*
%TO.N,/LV1*%
X151500000Y-90250000D03*
%TO.N,/LV2*%
X151250000Y-91500000D03*
%TO.N,/LV3*%
X151250000Y-92750000D03*
%TO.N,/LV4*%
X151500000Y-94000000D03*
%TO.N,/LV5*%
X151750000Y-98250000D03*
%TO.N,/LV6*%
X151500000Y-99500000D03*
%TO.N,/LV7*%
X151500000Y-100750000D03*
%TO.N,/LV8*%
X151750000Y-102000000D03*
%TD*%
D13*
%TO.N,+5V*%
X161250000Y-94000000D02*
X161250000Y-89750000D01*
X161250000Y-89750000D02*
X161000000Y-89500000D01*
D14*
%TO.N,/LV1*%
X140750000Y-93500000D02*
X139500000Y-92250000D01*
X146500000Y-93500000D02*
X140750000Y-93500000D01*
X151500000Y-90250000D02*
X149750000Y-90250000D01*
X138330000Y-88830000D02*
X136650000Y-88830000D01*
X149750000Y-90250000D02*
X146500000Y-93500000D01*
X139500000Y-90000000D02*
X138330000Y-88830000D01*
X139500000Y-92250000D02*
X139500000Y-90000000D01*
%TO.N,/LV2*%
X138900480Y-90900480D02*
X138900480Y-92498330D01*
X135359511Y-90079511D02*
X138079511Y-90079511D01*
X149298925Y-91548925D02*
X151201075Y-91548925D01*
X140501670Y-94099520D02*
X146748329Y-94099520D01*
X146748329Y-94099520D02*
X149298925Y-91548925D01*
X151201075Y-91548925D02*
X151250000Y-91500000D01*
X138900480Y-92498330D02*
X140501670Y-94099520D01*
X138079511Y-90079511D02*
X138900480Y-90900480D01*
X134110000Y-88830000D02*
X135359511Y-90079511D01*
%TO.N,/LV3*%
X149000000Y-92750000D02*
X151250000Y-92750000D01*
X136924300Y-91370000D02*
X140253341Y-94699040D01*
X136650000Y-91370000D02*
X136924300Y-91370000D01*
X147050960Y-94699040D02*
X149000000Y-92750000D01*
X140253341Y-94699040D02*
X147050960Y-94699040D01*
%TO.N,/LV4*%
X135359511Y-92619511D02*
X137325961Y-92619511D01*
X140005012Y-95298560D02*
X147299289Y-95298560D01*
X148548925Y-94048925D02*
X151451075Y-94048925D01*
X134110000Y-91370000D02*
X135359511Y-92619511D01*
X137325961Y-92619511D02*
X140005012Y-95298560D01*
X147299289Y-95298560D02*
X148548925Y-94048925D01*
X151451075Y-94048925D02*
X151500000Y-94000000D01*
%TO.N,/LV5*%
X136650000Y-93910000D02*
X137768602Y-93910000D01*
X150800960Y-97300960D02*
X151750000Y-98250000D01*
X141159562Y-97300960D02*
X150800960Y-97300960D01*
X137768602Y-93910000D02*
X141159562Y-97300960D01*
%TO.N,/LV6*%
X134110000Y-93910000D02*
X135359511Y-95159511D01*
X135359511Y-95159511D02*
X138170263Y-95159511D01*
X149900480Y-97900480D02*
X151500000Y-99500000D01*
X138170263Y-95159511D02*
X140911232Y-97900480D01*
X140911232Y-97900480D02*
X149900480Y-97900480D01*
%TO.N,/LV7*%
X149250000Y-98500000D02*
X151500000Y-100750000D01*
X138612902Y-96450000D02*
X140662902Y-98500000D01*
X140662902Y-98500000D02*
X149250000Y-98500000D01*
X136650000Y-96450000D02*
X138612902Y-96450000D01*
%TO.N,/LV8*%
X134110000Y-96450000D02*
X135359511Y-97699511D01*
X151500000Y-102000000D02*
X151750000Y-102000000D01*
X139014563Y-97699511D02*
X140565052Y-99250000D01*
X135359511Y-97699511D02*
X139014563Y-97699511D01*
X140565052Y-99250000D02*
X148750000Y-99250000D01*
X148750000Y-99250000D02*
X151500000Y-102000000D01*
%TD*%
%TA.AperFunction,Conductor*%
%TO.N,GND*%
G36*
X176141621Y-86320502D02*
G01*
X176188114Y-86374158D01*
X176199500Y-86426500D01*
X176199500Y-104073500D01*
X176179498Y-104141621D01*
X176125842Y-104188114D01*
X176073500Y-104199500D01*
X130426500Y-104199500D01*
X130358379Y-104179498D01*
X130311886Y-104125842D01*
X130300500Y-104073500D01*
X130300500Y-101499754D01*
X132954967Y-101499754D01*
X132968796Y-101710749D01*
X132970217Y-101716345D01*
X132970218Y-101716350D01*
X132992784Y-101805200D01*
X133020845Y-101915690D01*
X133023262Y-101920933D01*
X133059692Y-101999955D01*
X133109369Y-102107714D01*
X133231405Y-102280391D01*
X133382865Y-102427937D01*
X133387661Y-102431142D01*
X133387664Y-102431144D01*
X133530936Y-102526875D01*
X133558677Y-102545411D01*
X133563985Y-102547692D01*
X133563986Y-102547692D01*
X133747650Y-102626600D01*
X133747653Y-102626601D01*
X133752953Y-102628878D01*
X133758582Y-102630152D01*
X133758583Y-102630152D01*
X133953550Y-102674269D01*
X133953553Y-102674269D01*
X133959186Y-102675544D01*
X133964957Y-102675771D01*
X133964959Y-102675771D01*
X134026989Y-102678208D01*
X134170470Y-102683846D01*
X134176179Y-102683018D01*
X134176183Y-102683018D01*
X134374015Y-102654333D01*
X134374019Y-102654332D01*
X134379730Y-102653504D01*
X134458987Y-102626600D01*
X134574483Y-102587395D01*
X134574488Y-102587393D01*
X134579955Y-102585537D01*
X134584998Y-102582713D01*
X134759395Y-102485046D01*
X134759399Y-102485043D01*
X134764442Y-102482219D01*
X134927012Y-102347012D01*
X135062219Y-102184442D01*
X135065043Y-102179399D01*
X135065046Y-102179395D01*
X135162713Y-102004998D01*
X135162714Y-102004996D01*
X135165537Y-101999955D01*
X135167393Y-101994488D01*
X135167395Y-101994483D01*
X135222658Y-101831680D01*
X135233504Y-101799730D01*
X135247242Y-101704982D01*
X135255090Y-101650860D01*
X135284660Y-101586315D01*
X135344432Y-101548003D01*
X135415429Y-101548087D01*
X135475109Y-101586542D01*
X135504525Y-101651158D01*
X135505515Y-101660695D01*
X135508796Y-101710749D01*
X135510217Y-101716345D01*
X135510218Y-101716350D01*
X135532784Y-101805200D01*
X135560845Y-101915690D01*
X135563262Y-101920933D01*
X135599692Y-101999955D01*
X135649369Y-102107714D01*
X135771405Y-102280391D01*
X135922865Y-102427937D01*
X135927661Y-102431142D01*
X135927664Y-102431144D01*
X136070936Y-102526875D01*
X136098677Y-102545411D01*
X136103985Y-102547692D01*
X136103986Y-102547692D01*
X136287650Y-102626600D01*
X136287653Y-102626601D01*
X136292953Y-102628878D01*
X136298582Y-102630152D01*
X136298583Y-102630152D01*
X136493550Y-102674269D01*
X136493553Y-102674269D01*
X136499186Y-102675544D01*
X136504957Y-102675771D01*
X136504959Y-102675771D01*
X136566989Y-102678208D01*
X136710470Y-102683846D01*
X136716179Y-102683018D01*
X136716183Y-102683018D01*
X136914015Y-102654333D01*
X136914019Y-102654332D01*
X136919730Y-102653504D01*
X136998987Y-102626600D01*
X137114483Y-102587395D01*
X137114488Y-102587393D01*
X137119955Y-102585537D01*
X137124998Y-102582713D01*
X137299395Y-102485046D01*
X137299399Y-102485043D01*
X137304442Y-102482219D01*
X137467012Y-102347012D01*
X137602219Y-102184442D01*
X137605043Y-102179399D01*
X137605046Y-102179395D01*
X137702713Y-102004998D01*
X137702714Y-102004996D01*
X137705537Y-101999955D01*
X137707393Y-101994488D01*
X137707395Y-101994483D01*
X137762658Y-101831680D01*
X137773504Y-101799730D01*
X137787243Y-101704981D01*
X137803314Y-101594140D01*
X137803314Y-101594138D01*
X137803846Y-101590470D01*
X137805429Y-101530000D01*
X137786081Y-101319440D01*
X137728686Y-101115931D01*
X137717553Y-101093354D01*
X137637719Y-100931469D01*
X137635165Y-100926290D01*
X137517608Y-100768862D01*
X137512104Y-100761491D01*
X137512103Y-100761490D01*
X137508651Y-100756867D01*
X137353381Y-100613337D01*
X137303208Y-100581680D01*
X137179434Y-100503584D01*
X137179433Y-100503584D01*
X137174554Y-100500505D01*
X136978160Y-100422152D01*
X136972500Y-100421026D01*
X136972496Y-100421025D01*
X136773764Y-100381495D01*
X136710854Y-100348587D01*
X136675722Y-100286892D01*
X136679522Y-100215998D01*
X136721048Y-100158412D01*
X136780265Y-100133220D01*
X136913898Y-100113844D01*
X136925081Y-100111160D01*
X137114283Y-100046934D01*
X137124786Y-100042258D01*
X137299124Y-99944625D01*
X137308596Y-99938115D01*
X137462219Y-99810348D01*
X137470348Y-99802219D01*
X137598115Y-99648596D01*
X137604625Y-99639124D01*
X137702258Y-99464786D01*
X137706934Y-99454283D01*
X137771160Y-99265078D01*
X137772396Y-99259933D01*
X137770694Y-99247993D01*
X137757126Y-99244000D01*
X135546030Y-99244000D01*
X135532499Y-99247973D01*
X135531207Y-99256962D01*
X135559897Y-99369928D01*
X135563735Y-99380766D01*
X135647386Y-99562218D01*
X135653137Y-99572179D01*
X135768455Y-99735350D01*
X135775921Y-99744092D01*
X135919047Y-99883520D01*
X135927981Y-99890754D01*
X136094112Y-100001760D01*
X136104225Y-100007251D01*
X136287805Y-100086123D01*
X136298738Y-100089675D01*
X136493615Y-100133771D01*
X136510753Y-100136027D01*
X136510480Y-100138100D01*
X136568986Y-100157816D01*
X136613326Y-100213264D01*
X136620650Y-100283882D01*
X136588633Y-100347249D01*
X136527439Y-100383247D01*
X136518081Y-100385224D01*
X136350953Y-100413941D01*
X136152575Y-100487127D01*
X136147614Y-100490079D01*
X136147613Y-100490079D01*
X136130089Y-100500505D01*
X135970856Y-100595238D01*
X135811881Y-100734655D01*
X135680976Y-100900708D01*
X135678287Y-100905819D01*
X135678285Y-100905822D01*
X135664792Y-100931469D01*
X135582523Y-101087836D01*
X135519820Y-101289773D01*
X135519141Y-101295510D01*
X135505088Y-101414239D01*
X135477217Y-101479537D01*
X135418469Y-101519401D01*
X135347494Y-101521174D01*
X135286828Y-101484295D01*
X135255730Y-101420471D01*
X135254490Y-101410958D01*
X135246610Y-101325197D01*
X135246081Y-101319440D01*
X135188686Y-101115931D01*
X135177553Y-101093354D01*
X135097719Y-100931469D01*
X135095165Y-100926290D01*
X134977608Y-100768862D01*
X134972104Y-100761491D01*
X134972103Y-100761490D01*
X134968651Y-100756867D01*
X134813381Y-100613337D01*
X134763208Y-100581680D01*
X134639434Y-100503584D01*
X134639433Y-100503584D01*
X134634554Y-100500505D01*
X134438160Y-100422152D01*
X134432500Y-100421026D01*
X134432496Y-100421025D01*
X134233764Y-100381495D01*
X134170854Y-100348587D01*
X134135722Y-100286892D01*
X134139522Y-100215998D01*
X134181048Y-100158412D01*
X134240265Y-100133220D01*
X134373898Y-100113844D01*
X134385081Y-100111160D01*
X134574283Y-100046934D01*
X134584786Y-100042258D01*
X134759124Y-99944625D01*
X134768596Y-99938115D01*
X134922219Y-99810348D01*
X134930348Y-99802219D01*
X135058115Y-99648596D01*
X135064625Y-99639124D01*
X135162258Y-99464786D01*
X135166934Y-99454283D01*
X135231160Y-99265081D01*
X135233845Y-99253898D01*
X135262811Y-99054118D01*
X135263441Y-99046736D01*
X135264830Y-98993704D01*
X135264587Y-98986305D01*
X135246117Y-98785285D01*
X135244020Y-98773971D01*
X135189785Y-98581670D01*
X135185663Y-98570931D01*
X135097292Y-98391733D01*
X135088262Y-98376997D01*
X135089584Y-98376187D01*
X135067413Y-98316538D01*
X135082583Y-98247181D01*
X135132841Y-98197035D01*
X135202233Y-98182022D01*
X135212479Y-98183190D01*
X135219065Y-98184215D01*
X135238835Y-98189401D01*
X135242527Y-98190213D01*
X135250930Y-98193363D01*
X135259875Y-98194028D01*
X135259885Y-98194030D01*
X135297339Y-98196813D01*
X135307366Y-98197963D01*
X135320520Y-98200011D01*
X135335714Y-98200011D01*
X135345052Y-98200357D01*
X135393902Y-98203987D01*
X135402678Y-98202114D01*
X135411635Y-98201503D01*
X135411635Y-98201509D01*
X135425828Y-98200011D01*
X135557422Y-98200011D01*
X135625543Y-98220013D01*
X135672036Y-98273669D01*
X135682140Y-98343943D01*
X135668930Y-98384678D01*
X135585679Y-98542912D01*
X135581273Y-98553549D01*
X135529993Y-98718698D01*
X135529774Y-98732799D01*
X135536506Y-98736000D01*
X137755196Y-98736000D01*
X137768727Y-98732027D01*
X137769896Y-98723893D01*
X137729785Y-98581670D01*
X137725663Y-98570931D01*
X137634737Y-98386552D01*
X137635787Y-98386034D01*
X137618823Y-98323304D01*
X137640284Y-98255629D01*
X137694926Y-98210299D01*
X137744794Y-98200011D01*
X138755059Y-98200011D01*
X138823180Y-98220013D01*
X138844154Y-98236916D01*
X140161518Y-99554280D01*
X140168984Y-99563624D01*
X140169374Y-99563292D01*
X140175192Y-99570128D01*
X140179982Y-99577720D01*
X140186710Y-99583662D01*
X140186711Y-99583663D01*
X140219652Y-99612755D01*
X140225340Y-99618102D01*
X140236559Y-99629321D01*
X140240147Y-99632010D01*
X140240148Y-99632011D01*
X140244736Y-99635450D01*
X140252575Y-99641832D01*
X140287440Y-99672623D01*
X140295558Y-99676434D01*
X140298711Y-99678506D01*
X140311732Y-99686329D01*
X140315041Y-99688141D01*
X140322228Y-99693527D01*
X140330633Y-99696678D01*
X140330635Y-99696679D01*
X140365789Y-99709857D01*
X140375109Y-99713784D01*
X140417215Y-99733553D01*
X140426087Y-99734934D01*
X140429710Y-99736042D01*
X140444369Y-99739888D01*
X140448066Y-99740701D01*
X140456472Y-99743852D01*
X140502895Y-99747302D01*
X140512908Y-99748452D01*
X140526061Y-99750500D01*
X140541256Y-99750500D01*
X140550594Y-99750846D01*
X140599444Y-99754476D01*
X140608220Y-99752603D01*
X140617177Y-99751992D01*
X140617177Y-99751998D01*
X140631370Y-99750500D01*
X148490496Y-99750500D01*
X148558617Y-99770502D01*
X148579591Y-99787405D01*
X151096466Y-102304280D01*
X151103932Y-102313624D01*
X151104322Y-102313292D01*
X151110140Y-102320128D01*
X151114930Y-102327720D01*
X151121659Y-102333663D01*
X151121660Y-102333664D01*
X151130547Y-102341513D01*
X151151720Y-102365677D01*
X151215830Y-102461083D01*
X151221442Y-102466190D01*
X151221445Y-102466193D01*
X151335612Y-102570077D01*
X151335616Y-102570080D01*
X151341233Y-102575191D01*
X151347906Y-102578814D01*
X151347910Y-102578817D01*
X151483558Y-102652467D01*
X151483560Y-102652468D01*
X151490235Y-102656092D01*
X151497584Y-102658020D01*
X151646883Y-102697188D01*
X151646885Y-102697188D01*
X151654233Y-102699116D01*
X151740609Y-102700473D01*
X151816161Y-102701660D01*
X151816164Y-102701660D01*
X151823760Y-102701779D01*
X151831165Y-102700083D01*
X151831166Y-102700083D01*
X151905676Y-102683018D01*
X151989029Y-102663928D01*
X152140498Y-102587747D01*
X152269423Y-102477634D01*
X152368361Y-102339947D01*
X152373276Y-102327720D01*
X152428766Y-102189687D01*
X152428767Y-102189685D01*
X152431601Y-102182634D01*
X152441592Y-102112430D01*
X152454909Y-102018862D01*
X152454909Y-102018859D01*
X152455490Y-102014778D01*
X152455645Y-102000000D01*
X152435276Y-101831680D01*
X152375345Y-101673077D01*
X152321093Y-101594140D01*
X152283614Y-101539608D01*
X152283613Y-101539607D01*
X152279312Y-101533349D01*
X152271406Y-101526305D01*
X152241606Y-101499754D01*
X162719967Y-101499754D01*
X162733796Y-101710749D01*
X162735217Y-101716345D01*
X162735218Y-101716350D01*
X162757784Y-101805200D01*
X162785845Y-101915690D01*
X162788262Y-101920933D01*
X162824692Y-101999955D01*
X162874369Y-102107714D01*
X162996405Y-102280391D01*
X163147865Y-102427937D01*
X163152661Y-102431142D01*
X163152664Y-102431144D01*
X163295936Y-102526875D01*
X163323677Y-102545411D01*
X163328985Y-102547692D01*
X163328986Y-102547692D01*
X163512650Y-102626600D01*
X163512653Y-102626601D01*
X163517953Y-102628878D01*
X163523582Y-102630152D01*
X163523583Y-102630152D01*
X163718550Y-102674269D01*
X163718553Y-102674269D01*
X163724186Y-102675544D01*
X163729957Y-102675771D01*
X163729959Y-102675771D01*
X163791989Y-102678208D01*
X163935470Y-102683846D01*
X163941179Y-102683018D01*
X163941183Y-102683018D01*
X164139015Y-102654333D01*
X164139019Y-102654332D01*
X164144730Y-102653504D01*
X164223987Y-102626600D01*
X164339483Y-102587395D01*
X164339488Y-102587393D01*
X164344955Y-102585537D01*
X164349998Y-102582713D01*
X164524395Y-102485046D01*
X164524399Y-102485043D01*
X164529442Y-102482219D01*
X164692012Y-102347012D01*
X164827219Y-102184442D01*
X164830043Y-102179399D01*
X164830046Y-102179395D01*
X164927713Y-102004998D01*
X164927714Y-102004996D01*
X164930537Y-101999955D01*
X164932393Y-101994488D01*
X164932395Y-101994483D01*
X164987658Y-101831680D01*
X164998504Y-101799730D01*
X165012242Y-101704982D01*
X165020090Y-101650860D01*
X165049660Y-101586315D01*
X165109432Y-101548003D01*
X165180429Y-101548087D01*
X165240109Y-101586542D01*
X165269525Y-101651158D01*
X165270515Y-101660695D01*
X165273796Y-101710749D01*
X165275217Y-101716345D01*
X165275218Y-101716350D01*
X165297784Y-101805200D01*
X165325845Y-101915690D01*
X165328262Y-101920933D01*
X165364692Y-101999955D01*
X165414369Y-102107714D01*
X165536405Y-102280391D01*
X165687865Y-102427937D01*
X165692661Y-102431142D01*
X165692664Y-102431144D01*
X165835936Y-102526875D01*
X165863677Y-102545411D01*
X165868985Y-102547692D01*
X165868986Y-102547692D01*
X166052650Y-102626600D01*
X166052653Y-102626601D01*
X166057953Y-102628878D01*
X166063582Y-102630152D01*
X166063583Y-102630152D01*
X166258550Y-102674269D01*
X166258553Y-102674269D01*
X166264186Y-102675544D01*
X166269957Y-102675771D01*
X166269959Y-102675771D01*
X166331989Y-102678208D01*
X166475470Y-102683846D01*
X166481179Y-102683018D01*
X166481183Y-102683018D01*
X166679015Y-102654333D01*
X166679019Y-102654332D01*
X166684730Y-102653504D01*
X166763987Y-102626600D01*
X166879483Y-102587395D01*
X166879488Y-102587393D01*
X166884955Y-102585537D01*
X166889998Y-102582713D01*
X167064395Y-102485046D01*
X167064399Y-102485043D01*
X167069442Y-102482219D01*
X167232012Y-102347012D01*
X167367219Y-102184442D01*
X167370043Y-102179399D01*
X167370046Y-102179395D01*
X167467713Y-102004998D01*
X167467714Y-102004996D01*
X167470537Y-101999955D01*
X167472393Y-101994488D01*
X167472395Y-101994483D01*
X167527658Y-101831680D01*
X167538504Y-101799730D01*
X167552243Y-101704981D01*
X167568314Y-101594140D01*
X167568314Y-101594138D01*
X167568846Y-101590470D01*
X167570429Y-101530000D01*
X167551081Y-101319440D01*
X167493686Y-101115931D01*
X167482553Y-101093354D01*
X167402719Y-100931469D01*
X167400165Y-100926290D01*
X167282608Y-100768862D01*
X167277104Y-100761491D01*
X167277103Y-100761490D01*
X167273651Y-100756867D01*
X167118381Y-100613337D01*
X167068208Y-100581680D01*
X166944434Y-100503584D01*
X166944433Y-100503584D01*
X166939554Y-100500505D01*
X166743160Y-100422152D01*
X166737500Y-100421026D01*
X166737496Y-100421025D01*
X166538764Y-100381495D01*
X166475854Y-100348587D01*
X166440722Y-100286892D01*
X166444522Y-100215998D01*
X166486048Y-100158412D01*
X166545265Y-100133220D01*
X166678898Y-100113844D01*
X166690081Y-100111160D01*
X166879283Y-100046934D01*
X166889786Y-100042258D01*
X167064124Y-99944625D01*
X167073596Y-99938115D01*
X167227219Y-99810348D01*
X167235348Y-99802219D01*
X167363115Y-99648596D01*
X167369625Y-99639124D01*
X167467258Y-99464786D01*
X167471934Y-99454283D01*
X167536160Y-99265078D01*
X167537396Y-99259933D01*
X167535694Y-99247993D01*
X167522126Y-99244000D01*
X165311030Y-99244000D01*
X165297499Y-99247973D01*
X165296207Y-99256962D01*
X165324897Y-99369928D01*
X165328735Y-99380766D01*
X165412386Y-99562218D01*
X165418137Y-99572179D01*
X165533455Y-99735350D01*
X165540921Y-99744092D01*
X165684047Y-99883520D01*
X165692981Y-99890754D01*
X165859112Y-100001760D01*
X165869225Y-100007251D01*
X166052805Y-100086123D01*
X166063738Y-100089675D01*
X166258615Y-100133771D01*
X166275753Y-100136027D01*
X166275480Y-100138100D01*
X166333986Y-100157816D01*
X166378326Y-100213264D01*
X166385650Y-100283882D01*
X166353633Y-100347249D01*
X166292439Y-100383247D01*
X166283081Y-100385224D01*
X166115953Y-100413941D01*
X165917575Y-100487127D01*
X165912614Y-100490079D01*
X165912613Y-100490079D01*
X165895089Y-100500505D01*
X165735856Y-100595238D01*
X165576881Y-100734655D01*
X165445976Y-100900708D01*
X165443287Y-100905819D01*
X165443285Y-100905822D01*
X165429792Y-100931469D01*
X165347523Y-101087836D01*
X165284820Y-101289773D01*
X165284141Y-101295510D01*
X165270088Y-101414239D01*
X165242217Y-101479537D01*
X165183469Y-101519401D01*
X165112494Y-101521174D01*
X165051828Y-101484295D01*
X165020730Y-101420471D01*
X165019490Y-101410958D01*
X165011610Y-101325197D01*
X165011081Y-101319440D01*
X164953686Y-101115931D01*
X164942553Y-101093354D01*
X164862719Y-100931469D01*
X164860165Y-100926290D01*
X164742608Y-100768862D01*
X164737104Y-100761491D01*
X164737103Y-100761490D01*
X164733651Y-100756867D01*
X164578381Y-100613337D01*
X164528208Y-100581680D01*
X164404434Y-100503584D01*
X164404433Y-100503584D01*
X164399554Y-100500505D01*
X164203160Y-100422152D01*
X164197500Y-100421026D01*
X164197496Y-100421025D01*
X163998764Y-100381495D01*
X163935854Y-100348587D01*
X163900722Y-100286892D01*
X163904522Y-100215998D01*
X163946048Y-100158412D01*
X164005265Y-100133220D01*
X164138898Y-100113844D01*
X164150081Y-100111160D01*
X164339283Y-100046934D01*
X164349786Y-100042258D01*
X164524124Y-99944625D01*
X164533596Y-99938115D01*
X164687219Y-99810348D01*
X164695348Y-99802219D01*
X164823115Y-99648596D01*
X164829625Y-99639124D01*
X164927258Y-99464786D01*
X164931934Y-99454283D01*
X164996160Y-99265081D01*
X164998845Y-99253898D01*
X165027811Y-99054118D01*
X165028441Y-99046736D01*
X165029830Y-98993704D01*
X165029587Y-98986305D01*
X165011117Y-98785285D01*
X165009020Y-98773971D01*
X164954785Y-98581670D01*
X164950663Y-98570931D01*
X164862292Y-98391733D01*
X164856282Y-98381925D01*
X164736731Y-98221827D01*
X164729041Y-98213287D01*
X164582315Y-98077654D01*
X164573190Y-98070653D01*
X164404209Y-97964034D01*
X164393965Y-97958814D01*
X164208385Y-97884775D01*
X164197347Y-97881505D01*
X163998753Y-97842003D01*
X163935843Y-97809096D01*
X163900711Y-97747401D01*
X163904511Y-97676506D01*
X163946036Y-97618920D01*
X164005253Y-97593728D01*
X164139015Y-97574333D01*
X164139019Y-97574332D01*
X164144730Y-97573504D01*
X164213523Y-97550152D01*
X164339483Y-97507395D01*
X164339488Y-97507393D01*
X164344955Y-97505537D01*
X164349998Y-97502713D01*
X164524395Y-97405046D01*
X164524399Y-97405043D01*
X164529442Y-97402219D01*
X164692012Y-97267012D01*
X164827219Y-97104442D01*
X164830043Y-97099399D01*
X164830046Y-97099395D01*
X164927713Y-96924998D01*
X164927714Y-96924996D01*
X164930537Y-96919955D01*
X164932393Y-96914488D01*
X164932395Y-96914483D01*
X164983627Y-96763555D01*
X164998504Y-96719730D01*
X165012242Y-96624982D01*
X165020090Y-96570860D01*
X165049660Y-96506315D01*
X165109432Y-96468003D01*
X165180429Y-96468087D01*
X165240109Y-96506542D01*
X165269525Y-96571158D01*
X165270515Y-96580695D01*
X165273796Y-96630749D01*
X165275217Y-96636345D01*
X165275218Y-96636350D01*
X165320405Y-96814269D01*
X165325845Y-96835690D01*
X165414369Y-97027714D01*
X165536405Y-97200391D01*
X165687865Y-97347937D01*
X165692661Y-97351142D01*
X165692664Y-97351144D01*
X165835936Y-97446875D01*
X165863677Y-97465411D01*
X165868985Y-97467692D01*
X165868986Y-97467692D01*
X166052650Y-97546600D01*
X166052653Y-97546601D01*
X166057953Y-97548878D01*
X166063582Y-97550152D01*
X166063583Y-97550152D01*
X166258550Y-97594269D01*
X166258553Y-97594269D01*
X166264186Y-97595544D01*
X166269958Y-97595771D01*
X166275687Y-97596525D01*
X166275417Y-97598578D01*
X166333983Y-97618295D01*
X166378341Y-97673729D01*
X166385687Y-97744344D01*
X166353690Y-97807722D01*
X166292507Y-97843739D01*
X166283105Y-97845726D01*
X166121780Y-97873447D01*
X166110660Y-97876427D01*
X165923207Y-97945582D01*
X165912829Y-97950532D01*
X165741119Y-98052688D01*
X165731807Y-98059453D01*
X165581587Y-98191194D01*
X165573670Y-98199537D01*
X165449975Y-98356443D01*
X165443704Y-98366100D01*
X165350679Y-98542912D01*
X165346273Y-98553549D01*
X165294993Y-98718698D01*
X165294774Y-98732799D01*
X165301506Y-98736000D01*
X167520196Y-98736000D01*
X167533727Y-98732027D01*
X167534896Y-98723893D01*
X167494785Y-98581670D01*
X167490663Y-98570931D01*
X167402292Y-98391733D01*
X167396282Y-98381925D01*
X167276731Y-98221827D01*
X167269041Y-98213287D01*
X167122315Y-98077654D01*
X167113190Y-98070653D01*
X166944209Y-97964034D01*
X166933965Y-97958814D01*
X166748385Y-97884775D01*
X166737347Y-97881505D01*
X166538753Y-97842003D01*
X166475843Y-97809096D01*
X166440711Y-97747401D01*
X166444511Y-97676506D01*
X166486036Y-97618920D01*
X166545253Y-97593728D01*
X166679015Y-97574333D01*
X166679019Y-97574332D01*
X166684730Y-97573504D01*
X166753523Y-97550152D01*
X166879483Y-97507395D01*
X166879488Y-97507393D01*
X166884955Y-97505537D01*
X166889998Y-97502713D01*
X167064395Y-97405046D01*
X167064399Y-97405043D01*
X167069442Y-97402219D01*
X167232012Y-97267012D01*
X167367219Y-97104442D01*
X167370043Y-97099399D01*
X167370046Y-97099395D01*
X167467713Y-96924998D01*
X167467714Y-96924996D01*
X167470537Y-96919955D01*
X167472393Y-96914488D01*
X167472395Y-96914483D01*
X167523627Y-96763555D01*
X167538504Y-96719730D01*
X167552243Y-96624981D01*
X167568314Y-96514140D01*
X167568314Y-96514138D01*
X167568846Y-96510470D01*
X167570429Y-96450000D01*
X167551081Y-96239440D01*
X167493686Y-96035931D01*
X167482948Y-96014155D01*
X167402719Y-95851469D01*
X167400165Y-95846290D01*
X167316067Y-95733669D01*
X167277104Y-95681491D01*
X167277103Y-95681490D01*
X167273651Y-95676867D01*
X167134234Y-95547991D01*
X167122622Y-95537257D01*
X167122620Y-95537255D01*
X167118381Y-95533337D01*
X167113498Y-95530256D01*
X166944434Y-95423584D01*
X166944433Y-95423584D01*
X166939554Y-95420505D01*
X166743160Y-95342152D01*
X166737503Y-95341027D01*
X166737497Y-95341025D01*
X166540234Y-95301788D01*
X166477324Y-95268881D01*
X166442192Y-95207186D01*
X166445992Y-95136291D01*
X166487517Y-95078705D01*
X166546734Y-95053513D01*
X166679015Y-95034333D01*
X166679019Y-95034332D01*
X166684730Y-95033504D01*
X166763987Y-95006600D01*
X166879483Y-94967395D01*
X166879488Y-94967393D01*
X166884955Y-94965537D01*
X166889998Y-94962713D01*
X167064395Y-94865046D01*
X167064399Y-94865043D01*
X167069442Y-94862219D01*
X167232012Y-94727012D01*
X167367219Y-94564442D01*
X167370043Y-94559399D01*
X167370046Y-94559395D01*
X167467713Y-94384998D01*
X167467714Y-94384996D01*
X167470537Y-94379955D01*
X167472393Y-94374488D01*
X167472395Y-94374483D01*
X167519173Y-94236676D01*
X167538504Y-94179730D01*
X167540167Y-94168266D01*
X167568314Y-93974140D01*
X167568314Y-93974138D01*
X167568846Y-93970470D01*
X167570429Y-93910000D01*
X167551081Y-93699440D01*
X167493686Y-93495931D01*
X167482553Y-93473354D01*
X167402719Y-93311469D01*
X167400165Y-93306290D01*
X167273651Y-93136867D01*
X167125048Y-92999500D01*
X167122622Y-92997257D01*
X167122620Y-92997255D01*
X167118381Y-92993337D01*
X167113498Y-92990256D01*
X166944434Y-92883584D01*
X166944433Y-92883584D01*
X166939554Y-92880505D01*
X166743160Y-92802152D01*
X166737503Y-92801027D01*
X166737497Y-92801025D01*
X166540234Y-92761788D01*
X166477324Y-92728881D01*
X166442192Y-92667186D01*
X166445992Y-92596291D01*
X166487517Y-92538705D01*
X166546734Y-92513513D01*
X166679015Y-92494333D01*
X166679019Y-92494332D01*
X166684730Y-92493504D01*
X166763987Y-92466600D01*
X166879483Y-92427395D01*
X166879488Y-92427393D01*
X166884955Y-92425537D01*
X166900522Y-92416819D01*
X167064395Y-92325046D01*
X167064399Y-92325043D01*
X167069442Y-92322219D01*
X167232012Y-92187012D01*
X167367219Y-92024442D01*
X167370043Y-92019399D01*
X167370046Y-92019395D01*
X167467713Y-91844998D01*
X167467714Y-91844996D01*
X167470537Y-91839955D01*
X167472393Y-91834488D01*
X167472395Y-91834483D01*
X167526495Y-91675108D01*
X167538504Y-91639730D01*
X167552243Y-91544981D01*
X167568314Y-91434140D01*
X167568314Y-91434138D01*
X167568846Y-91430470D01*
X167570429Y-91370000D01*
X167551081Y-91159440D01*
X167493686Y-90955931D01*
X167482553Y-90933354D01*
X167402719Y-90771469D01*
X167400165Y-90766290D01*
X167273651Y-90596867D01*
X167134234Y-90467991D01*
X167122622Y-90457257D01*
X167122620Y-90457255D01*
X167118381Y-90453337D01*
X167113498Y-90450256D01*
X166944434Y-90343584D01*
X166944433Y-90343584D01*
X166939554Y-90340505D01*
X166743160Y-90262152D01*
X166737503Y-90261027D01*
X166737497Y-90261025D01*
X166540234Y-90221788D01*
X166477324Y-90188881D01*
X166442192Y-90127186D01*
X166445992Y-90056291D01*
X166487517Y-89998705D01*
X166546734Y-89973513D01*
X166679015Y-89954333D01*
X166679019Y-89954332D01*
X166684730Y-89953504D01*
X166771579Y-89924023D01*
X166879483Y-89887395D01*
X166879488Y-89887393D01*
X166884955Y-89885537D01*
X166889998Y-89882713D01*
X167064395Y-89785046D01*
X167064399Y-89785043D01*
X167069442Y-89782219D01*
X167232012Y-89647012D01*
X167367219Y-89484442D01*
X167370043Y-89479399D01*
X167370046Y-89479395D01*
X167467713Y-89304998D01*
X167467714Y-89304996D01*
X167470537Y-89299955D01*
X167472393Y-89294488D01*
X167472395Y-89294483D01*
X167519173Y-89156676D01*
X167538504Y-89099730D01*
X167547222Y-89039608D01*
X167568314Y-88894140D01*
X167568314Y-88894138D01*
X167568846Y-88890470D01*
X167570429Y-88830000D01*
X167551081Y-88619440D01*
X167493686Y-88415931D01*
X167486566Y-88401492D01*
X167402719Y-88231469D01*
X167400165Y-88226290D01*
X167273651Y-88056867D01*
X167146236Y-87939086D01*
X167122622Y-87917257D01*
X167122620Y-87917255D01*
X167118381Y-87913337D01*
X167085014Y-87892284D01*
X166944434Y-87803584D01*
X166944433Y-87803584D01*
X166939554Y-87800505D01*
X166743160Y-87722152D01*
X166737503Y-87721027D01*
X166737497Y-87721025D01*
X166541442Y-87682028D01*
X166541440Y-87682028D01*
X166535775Y-87680901D01*
X166530000Y-87680825D01*
X166529996Y-87680825D01*
X166423976Y-87679437D01*
X166324346Y-87678133D01*
X166318649Y-87679112D01*
X166318648Y-87679112D01*
X166121650Y-87712962D01*
X166121649Y-87712962D01*
X166115953Y-87713941D01*
X165917575Y-87787127D01*
X165912614Y-87790079D01*
X165912613Y-87790079D01*
X165866553Y-87817482D01*
X165735856Y-87895238D01*
X165576881Y-88034655D01*
X165445976Y-88200708D01*
X165443287Y-88205819D01*
X165443285Y-88205822D01*
X165393400Y-88300638D01*
X165347523Y-88387836D01*
X165284820Y-88589773D01*
X165284141Y-88595510D01*
X165276627Y-88658995D01*
X165248756Y-88724292D01*
X165190008Y-88764156D01*
X165119034Y-88765930D01*
X165058367Y-88729051D01*
X165027269Y-88665227D01*
X165025500Y-88644185D01*
X165025500Y-87935354D01*
X165022382Y-87909154D01*
X164976939Y-87806847D01*
X164968444Y-87798366D01*
X164905945Y-87735977D01*
X164897713Y-87727759D01*
X164887076Y-87723056D01*
X164887074Y-87723055D01*
X164827538Y-87696735D01*
X164795327Y-87682494D01*
X164769646Y-87679500D01*
X162980354Y-87679500D01*
X162976650Y-87679941D01*
X162976647Y-87679941D01*
X162969254Y-87680821D01*
X162954154Y-87682618D01*
X162945514Y-87686456D01*
X162945513Y-87686456D01*
X162879131Y-87715942D01*
X162851847Y-87728061D01*
X162772759Y-87807287D01*
X162727494Y-87909673D01*
X162724500Y-87935354D01*
X162724500Y-89724646D01*
X162727618Y-89750846D01*
X162731456Y-89759486D01*
X162731456Y-89759487D01*
X162754393Y-89811125D01*
X162773061Y-89853153D01*
X162781294Y-89861372D01*
X162781295Y-89861373D01*
X162805588Y-89885623D01*
X162852287Y-89932241D01*
X162862924Y-89936944D01*
X162862926Y-89936945D01*
X162900382Y-89953504D01*
X162954673Y-89977506D01*
X162980354Y-89980500D01*
X163689988Y-89980500D01*
X163758109Y-90000502D01*
X163804602Y-90054158D01*
X163814706Y-90124432D01*
X163785212Y-90189012D01*
X163725486Y-90227396D01*
X163711326Y-90230680D01*
X163581650Y-90252962D01*
X163581649Y-90252962D01*
X163575953Y-90253941D01*
X163377575Y-90327127D01*
X163372614Y-90330079D01*
X163372613Y-90330079D01*
X163355089Y-90340505D01*
X163195856Y-90435238D01*
X163036881Y-90574655D01*
X162905976Y-90740708D01*
X162903287Y-90745819D01*
X162903285Y-90745822D01*
X162889792Y-90771469D01*
X162807523Y-90927836D01*
X162744820Y-91129773D01*
X162719967Y-91339754D01*
X162733796Y-91550749D01*
X162735217Y-91556345D01*
X162735218Y-91556350D01*
X162767291Y-91682634D01*
X162785845Y-91755690D01*
X162874369Y-91947714D01*
X162996405Y-92120391D01*
X163147865Y-92267937D01*
X163152661Y-92271142D01*
X163152664Y-92271144D01*
X163295936Y-92366875D01*
X163323677Y-92385411D01*
X163328985Y-92387692D01*
X163328986Y-92387692D01*
X163512650Y-92466600D01*
X163512653Y-92466601D01*
X163517953Y-92468878D01*
X163523582Y-92470152D01*
X163523583Y-92470152D01*
X163718550Y-92514269D01*
X163718553Y-92514269D01*
X163724186Y-92515544D01*
X163729958Y-92515771D01*
X163735687Y-92516525D01*
X163735327Y-92519257D01*
X163791604Y-92538216D01*
X163835950Y-92593659D01*
X163843282Y-92664276D01*
X163811271Y-92727647D01*
X163750081Y-92763651D01*
X163740704Y-92765632D01*
X163581650Y-92792962D01*
X163581649Y-92792962D01*
X163575953Y-92793941D01*
X163377575Y-92867127D01*
X163372614Y-92870079D01*
X163372613Y-92870079D01*
X163355089Y-92880505D01*
X163195856Y-92975238D01*
X163036881Y-93114655D01*
X162905976Y-93280708D01*
X162903287Y-93285819D01*
X162903285Y-93285822D01*
X162889792Y-93311469D01*
X162807523Y-93467836D01*
X162744820Y-93669773D01*
X162719967Y-93879754D01*
X162733796Y-94090749D01*
X162735217Y-94096345D01*
X162735218Y-94096350D01*
X162757132Y-94182634D01*
X162785845Y-94295690D01*
X162874369Y-94487714D01*
X162996405Y-94660391D01*
X163147865Y-94807937D01*
X163152661Y-94811142D01*
X163152664Y-94811144D01*
X163295936Y-94906875D01*
X163323677Y-94925411D01*
X163328985Y-94927692D01*
X163328986Y-94927692D01*
X163512650Y-95006600D01*
X163512653Y-95006601D01*
X163517953Y-95008878D01*
X163523582Y-95010152D01*
X163523583Y-95010152D01*
X163718550Y-95054269D01*
X163718553Y-95054269D01*
X163724186Y-95055544D01*
X163729958Y-95055771D01*
X163735687Y-95056525D01*
X163735327Y-95059257D01*
X163791604Y-95078216D01*
X163835950Y-95133659D01*
X163843282Y-95204276D01*
X163811271Y-95267647D01*
X163750081Y-95303651D01*
X163740704Y-95305632D01*
X163581650Y-95332962D01*
X163581649Y-95332962D01*
X163575953Y-95333941D01*
X163377575Y-95407127D01*
X163372614Y-95410079D01*
X163372613Y-95410079D01*
X163355089Y-95420505D01*
X163195856Y-95515238D01*
X163036881Y-95654655D01*
X162905976Y-95820708D01*
X162903287Y-95825819D01*
X162903285Y-95825822D01*
X162874240Y-95881028D01*
X162807523Y-96007836D01*
X162744820Y-96209773D01*
X162719967Y-96419754D01*
X162733796Y-96630749D01*
X162735217Y-96636345D01*
X162735218Y-96636350D01*
X162780405Y-96814269D01*
X162785845Y-96835690D01*
X162874369Y-97027714D01*
X162996405Y-97200391D01*
X163147865Y-97347937D01*
X163152661Y-97351142D01*
X163152664Y-97351144D01*
X163295936Y-97446875D01*
X163323677Y-97465411D01*
X163328985Y-97467692D01*
X163328986Y-97467692D01*
X163512650Y-97546600D01*
X163512653Y-97546601D01*
X163517953Y-97548878D01*
X163523582Y-97550152D01*
X163523583Y-97550152D01*
X163718550Y-97594269D01*
X163718553Y-97594269D01*
X163724186Y-97595544D01*
X163729958Y-97595771D01*
X163735687Y-97596525D01*
X163735417Y-97598578D01*
X163793983Y-97618295D01*
X163838341Y-97673729D01*
X163845687Y-97744344D01*
X163813690Y-97807722D01*
X163752507Y-97843739D01*
X163743105Y-97845726D01*
X163581780Y-97873447D01*
X163570660Y-97876427D01*
X163383207Y-97945582D01*
X163372829Y-97950532D01*
X163201119Y-98052688D01*
X163191807Y-98059453D01*
X163041587Y-98191194D01*
X163033670Y-98199537D01*
X162909975Y-98356443D01*
X162903704Y-98366100D01*
X162810679Y-98542912D01*
X162806273Y-98553549D01*
X162754993Y-98718698D01*
X162754774Y-98732799D01*
X162761506Y-98736000D01*
X164003000Y-98736000D01*
X164071121Y-98756002D01*
X164117614Y-98809658D01*
X164129000Y-98862000D01*
X164129000Y-99118000D01*
X164108998Y-99186121D01*
X164055342Y-99232614D01*
X164003000Y-99244000D01*
X162771030Y-99244000D01*
X162757499Y-99247973D01*
X162756207Y-99256962D01*
X162784897Y-99369928D01*
X162788735Y-99380766D01*
X162872386Y-99562218D01*
X162878137Y-99572179D01*
X162993455Y-99735350D01*
X163000921Y-99744092D01*
X163144047Y-99883520D01*
X163152981Y-99890754D01*
X163319112Y-100001760D01*
X163329225Y-100007251D01*
X163512805Y-100086123D01*
X163523738Y-100089675D01*
X163718615Y-100133771D01*
X163735753Y-100136027D01*
X163735480Y-100138100D01*
X163793986Y-100157816D01*
X163838326Y-100213264D01*
X163845650Y-100283882D01*
X163813633Y-100347249D01*
X163752439Y-100383247D01*
X163743081Y-100385224D01*
X163575953Y-100413941D01*
X163377575Y-100487127D01*
X163372614Y-100490079D01*
X163372613Y-100490079D01*
X163355089Y-100500505D01*
X163195856Y-100595238D01*
X163036881Y-100734655D01*
X162905976Y-100900708D01*
X162903287Y-100905819D01*
X162903285Y-100905822D01*
X162889792Y-100931469D01*
X162807523Y-101087836D01*
X162744820Y-101289773D01*
X162719967Y-101499754D01*
X152241606Y-101499754D01*
X152158392Y-101425612D01*
X152158388Y-101425610D01*
X152152721Y-101420560D01*
X152146011Y-101417007D01*
X152146005Y-101417003D01*
X152083386Y-101383848D01*
X152032543Y-101334296D01*
X152016561Y-101265121D01*
X152040022Y-101198968D01*
X152095691Y-101121496D01*
X152118361Y-101089947D01*
X152181601Y-100932634D01*
X152205490Y-100764778D01*
X152205645Y-100750000D01*
X152185276Y-100581680D01*
X152125345Y-100423077D01*
X152099330Y-100385225D01*
X152033614Y-100289608D01*
X152033613Y-100289607D01*
X152029312Y-100283349D01*
X151957122Y-100219030D01*
X151919568Y-100158782D01*
X151920548Y-100087792D01*
X151959112Y-100029145D01*
X152013651Y-99982564D01*
X152013652Y-99982563D01*
X152019423Y-99977634D01*
X152118361Y-99839947D01*
X152146278Y-99770502D01*
X152178766Y-99689687D01*
X152178767Y-99689685D01*
X152181601Y-99682634D01*
X152198586Y-99563292D01*
X152204909Y-99518862D01*
X152204909Y-99518859D01*
X152205490Y-99514778D01*
X152205645Y-99500000D01*
X152185276Y-99331680D01*
X152125345Y-99173077D01*
X152039780Y-99048580D01*
X152017681Y-98981113D01*
X152035566Y-98912406D01*
X152087007Y-98864650D01*
X152133715Y-98841159D01*
X152133718Y-98841157D01*
X152140498Y-98837747D01*
X152269423Y-98727634D01*
X152368361Y-98589947D01*
X152371688Y-98581670D01*
X152428766Y-98439687D01*
X152428767Y-98439685D01*
X152431601Y-98432634D01*
X152455490Y-98264778D01*
X152455645Y-98250000D01*
X152435276Y-98081680D01*
X152375345Y-97923077D01*
X152371044Y-97916819D01*
X152283614Y-97789608D01*
X152283613Y-97789607D01*
X152279312Y-97783349D01*
X152270229Y-97775256D01*
X152158392Y-97675612D01*
X152158388Y-97675610D01*
X152152721Y-97670560D01*
X152002881Y-97591224D01*
X151838441Y-97549919D01*
X151830843Y-97549879D01*
X151830841Y-97549879D01*
X151809109Y-97549765D01*
X151741095Y-97529406D01*
X151720676Y-97512862D01*
X151204494Y-96996680D01*
X151197028Y-96987336D01*
X151196638Y-96987668D01*
X151190820Y-96980832D01*
X151186030Y-96973240D01*
X151146359Y-96938204D01*
X151140672Y-96932858D01*
X151129454Y-96921640D01*
X151125865Y-96918950D01*
X151121276Y-96915510D01*
X151113437Y-96909128D01*
X151085299Y-96884278D01*
X151078572Y-96878337D01*
X151070449Y-96874523D01*
X151067296Y-96872452D01*
X151054284Y-96864633D01*
X151050965Y-96862816D01*
X151043784Y-96857434D01*
X151000221Y-96841103D01*
X150990907Y-96837177D01*
X150956926Y-96821223D01*
X150956923Y-96821222D01*
X150948797Y-96817407D01*
X150939923Y-96816025D01*
X150936310Y-96814921D01*
X150921653Y-96811075D01*
X150917950Y-96810261D01*
X150909540Y-96807108D01*
X150863117Y-96803658D01*
X150853104Y-96802508D01*
X150839951Y-96800460D01*
X150824756Y-96800460D01*
X150815419Y-96800114D01*
X150799996Y-96798968D01*
X150766568Y-96796484D01*
X150757792Y-96798357D01*
X150748835Y-96798968D01*
X150748835Y-96798962D01*
X150734642Y-96800460D01*
X141419066Y-96800460D01*
X141350945Y-96780458D01*
X141329971Y-96763555D01*
X140580571Y-96014155D01*
X140546545Y-95951843D01*
X140551610Y-95881028D01*
X140594157Y-95824192D01*
X140660677Y-95799381D01*
X140669666Y-95799060D01*
X147229108Y-95799060D01*
X147240993Y-95800388D01*
X147241034Y-95799878D01*
X147249980Y-95800598D01*
X147258736Y-95802579D01*
X147302269Y-95799878D01*
X147311553Y-95799302D01*
X147319356Y-95799060D01*
X147335229Y-95799060D01*
X147345341Y-95797612D01*
X147355395Y-95796582D01*
X147383386Y-95794845D01*
X147401827Y-95793701D01*
X147410271Y-95790653D01*
X147413983Y-95789884D01*
X147428688Y-95786217D01*
X147432316Y-95785156D01*
X147441207Y-95783883D01*
X147483571Y-95764621D01*
X147492926Y-95760814D01*
X147528232Y-95748069D01*
X147528236Y-95748067D01*
X147536676Y-95745020D01*
X147543924Y-95739725D01*
X147547264Y-95737949D01*
X147560378Y-95730286D01*
X147563550Y-95728257D01*
X147571717Y-95724544D01*
X147578512Y-95718689D01*
X147578515Y-95718687D01*
X147606964Y-95694173D01*
X147614885Y-95687884D01*
X147621691Y-95682912D01*
X147625625Y-95680038D01*
X147636368Y-95669295D01*
X147643215Y-95662937D01*
X147654326Y-95653363D01*
X147680326Y-95630960D01*
X147685209Y-95623426D01*
X147691108Y-95616664D01*
X147691113Y-95616668D01*
X147700089Y-95605574D01*
X148719334Y-94586330D01*
X148781646Y-94552304D01*
X148808429Y-94549425D01*
X151016341Y-94549425D01*
X151088079Y-94572321D01*
X151091233Y-94575191D01*
X151120643Y-94591159D01*
X151233558Y-94652467D01*
X151233560Y-94652468D01*
X151240235Y-94656092D01*
X151247584Y-94658020D01*
X151396883Y-94697188D01*
X151396885Y-94697188D01*
X151404233Y-94699116D01*
X151490609Y-94700473D01*
X151566161Y-94701660D01*
X151566164Y-94701660D01*
X151573760Y-94701779D01*
X151581165Y-94700083D01*
X151581166Y-94700083D01*
X151641586Y-94686245D01*
X151739029Y-94663928D01*
X151890498Y-94587747D01*
X152019423Y-94477634D01*
X152118361Y-94339947D01*
X152127223Y-94317903D01*
X152178766Y-94189687D01*
X152178767Y-94189685D01*
X152181601Y-94182634D01*
X152205490Y-94014778D01*
X152205645Y-94000000D01*
X152203840Y-93985080D01*
X152201004Y-93961653D01*
X152185276Y-93831680D01*
X152125345Y-93673077D01*
X152119282Y-93664256D01*
X152033614Y-93539608D01*
X152033613Y-93539607D01*
X152029312Y-93533349D01*
X152002309Y-93509290D01*
X151908392Y-93425612D01*
X151908388Y-93425610D01*
X151902721Y-93420560D01*
X151896011Y-93417007D01*
X151896005Y-93417003D01*
X151833386Y-93383848D01*
X151782543Y-93334296D01*
X151766561Y-93265121D01*
X151790022Y-93198968D01*
X151849056Y-93116813D01*
X151868361Y-93089947D01*
X151887582Y-93042134D01*
X151928766Y-92939687D01*
X151928767Y-92939685D01*
X151931601Y-92932634D01*
X151941208Y-92865129D01*
X151954909Y-92768862D01*
X151954909Y-92768859D01*
X151955490Y-92764778D01*
X151955645Y-92750000D01*
X151935276Y-92581680D01*
X151875345Y-92423077D01*
X151779312Y-92283349D01*
X151707122Y-92219030D01*
X151669568Y-92158782D01*
X151670548Y-92087792D01*
X151709112Y-92029145D01*
X151763651Y-91982564D01*
X151763652Y-91982563D01*
X151769423Y-91977634D01*
X151868361Y-91839947D01*
X151900127Y-91760928D01*
X151928766Y-91689687D01*
X151928767Y-91689685D01*
X151931601Y-91682634D01*
X151938877Y-91631511D01*
X151954909Y-91518862D01*
X151954909Y-91518859D01*
X151955490Y-91514778D01*
X151955645Y-91500000D01*
X151935276Y-91331680D01*
X151875345Y-91173077D01*
X151789780Y-91048580D01*
X151767681Y-90981113D01*
X151785566Y-90912406D01*
X151837007Y-90864650D01*
X151883715Y-90841159D01*
X151883718Y-90841157D01*
X151890498Y-90837747D01*
X151998128Y-90745822D01*
X152013651Y-90732564D01*
X152013652Y-90732563D01*
X152019423Y-90727634D01*
X152118361Y-90589947D01*
X152121753Y-90581509D01*
X152178766Y-90439687D01*
X152178767Y-90439685D01*
X152181601Y-90432634D01*
X152188877Y-90381511D01*
X152204909Y-90268862D01*
X152204909Y-90268859D01*
X152205490Y-90264778D01*
X152205645Y-90250000D01*
X152185276Y-90081680D01*
X152146574Y-89979257D01*
X152128029Y-89930180D01*
X152125345Y-89923077D01*
X152100821Y-89887395D01*
X152033614Y-89789608D01*
X152033613Y-89789607D01*
X152029312Y-89783349D01*
X152012525Y-89768392D01*
X151908392Y-89675612D01*
X151908388Y-89675610D01*
X151902721Y-89670560D01*
X151888294Y-89662921D01*
X151805271Y-89618963D01*
X151752881Y-89591224D01*
X151588441Y-89549919D01*
X151580843Y-89549879D01*
X151580841Y-89549879D01*
X151503668Y-89549475D01*
X151418895Y-89549031D01*
X151411508Y-89550805D01*
X151411504Y-89550805D01*
X151307913Y-89575676D01*
X151254032Y-89588612D01*
X151247288Y-89592093D01*
X151247285Y-89592094D01*
X151116478Y-89659609D01*
X151103369Y-89666375D01*
X151097647Y-89671367D01*
X151097645Y-89671368D01*
X151043675Y-89718449D01*
X150979193Y-89748157D01*
X150960846Y-89749500D01*
X149820181Y-89749500D01*
X149808296Y-89748172D01*
X149808255Y-89748682D01*
X149799309Y-89747962D01*
X149790553Y-89745981D01*
X149755482Y-89748157D01*
X149737736Y-89749258D01*
X149729933Y-89749500D01*
X149714060Y-89749500D01*
X149703948Y-89750948D01*
X149693894Y-89751978D01*
X149665903Y-89753715D01*
X149647462Y-89754859D01*
X149639018Y-89757907D01*
X149635306Y-89758676D01*
X149620601Y-89762343D01*
X149616973Y-89763404D01*
X149608082Y-89764677D01*
X149565718Y-89783939D01*
X149556363Y-89787746D01*
X149521057Y-89800491D01*
X149521053Y-89800493D01*
X149512613Y-89803540D01*
X149505365Y-89808835D01*
X149502025Y-89810611D01*
X149488911Y-89818274D01*
X149485739Y-89820303D01*
X149477572Y-89824016D01*
X149470777Y-89829871D01*
X149470774Y-89829873D01*
X149442325Y-89854387D01*
X149434405Y-89860675D01*
X149423664Y-89868522D01*
X149412921Y-89879265D01*
X149406075Y-89885623D01*
X149368963Y-89917600D01*
X149364080Y-89925134D01*
X149358181Y-89931896D01*
X149358176Y-89931892D01*
X149349200Y-89942986D01*
X146329591Y-92962595D01*
X146267279Y-92996621D01*
X146240496Y-92999500D01*
X141009504Y-92999500D01*
X140941383Y-92979498D01*
X140920409Y-92962595D01*
X140037405Y-92079591D01*
X140003379Y-92017279D01*
X140000500Y-91990496D01*
X140000500Y-90070181D01*
X140001828Y-90058296D01*
X140001318Y-90058255D01*
X140002038Y-90049309D01*
X140004019Y-90040553D01*
X140000742Y-89987736D01*
X140000500Y-89979933D01*
X140000500Y-89964060D01*
X139999052Y-89953948D01*
X139998022Y-89943894D01*
X139995697Y-89906425D01*
X139995141Y-89897462D01*
X139992093Y-89889018D01*
X139991324Y-89885306D01*
X139987657Y-89870601D01*
X139986596Y-89866973D01*
X139985323Y-89858082D01*
X139966061Y-89815718D01*
X139962254Y-89806363D01*
X139949509Y-89771057D01*
X139949507Y-89771053D01*
X139946460Y-89762613D01*
X139941165Y-89755365D01*
X139939389Y-89752025D01*
X139931726Y-89738911D01*
X139929697Y-89735739D01*
X139925984Y-89727572D01*
X139920129Y-89720777D01*
X139920127Y-89720774D01*
X139895613Y-89692325D01*
X139889324Y-89684404D01*
X139884352Y-89677598D01*
X139881478Y-89673664D01*
X139870735Y-89662921D01*
X139864377Y-89656074D01*
X139856569Y-89647012D01*
X139832400Y-89618963D01*
X139824866Y-89614080D01*
X139818104Y-89608181D01*
X139818108Y-89608176D01*
X139807014Y-89599200D01*
X139700425Y-89492611D01*
X160294394Y-89492611D01*
X160312999Y-89661135D01*
X160371266Y-89820356D01*
X160465830Y-89961083D01*
X160471442Y-89966190D01*
X160471445Y-89966193D01*
X160585612Y-90070077D01*
X160585616Y-90070080D01*
X160591233Y-90075191D01*
X160596818Y-90078223D01*
X160640430Y-90133573D01*
X160649500Y-90180513D01*
X160649500Y-93596943D01*
X160634544Y-93656486D01*
X160632485Y-93660327D01*
X160628113Y-93666547D01*
X160566524Y-93824513D01*
X160565532Y-93832046D01*
X160565532Y-93832047D01*
X160546826Y-93974140D01*
X160544394Y-93992611D01*
X160562999Y-94161135D01*
X160621266Y-94320356D01*
X160625502Y-94326659D01*
X160625502Y-94326660D01*
X160637223Y-94344102D01*
X160715830Y-94461083D01*
X160721442Y-94466190D01*
X160721445Y-94466193D01*
X160835612Y-94570077D01*
X160835616Y-94570080D01*
X160841233Y-94575191D01*
X160847906Y-94578814D01*
X160847910Y-94578817D01*
X160983558Y-94652467D01*
X160983560Y-94652468D01*
X160990235Y-94656092D01*
X160997584Y-94658020D01*
X161146883Y-94697188D01*
X161146885Y-94697188D01*
X161154233Y-94699116D01*
X161240609Y-94700473D01*
X161316161Y-94701660D01*
X161316164Y-94701660D01*
X161323760Y-94701779D01*
X161331165Y-94700083D01*
X161331166Y-94700083D01*
X161391586Y-94686245D01*
X161489029Y-94663928D01*
X161640498Y-94587747D01*
X161769423Y-94477634D01*
X161868361Y-94339947D01*
X161877223Y-94317903D01*
X161928766Y-94189687D01*
X161928767Y-94189685D01*
X161931601Y-94182634D01*
X161955490Y-94014778D01*
X161955645Y-94000000D01*
X161953840Y-93985080D01*
X161951004Y-93961653D01*
X161935276Y-93831680D01*
X161921128Y-93794239D01*
X161878031Y-93680184D01*
X161878029Y-93680180D01*
X161875345Y-93673077D01*
X161871041Y-93666815D01*
X161867523Y-93660086D01*
X161869516Y-93659044D01*
X161850500Y-93597804D01*
X161850500Y-89797619D01*
X161851578Y-89781173D01*
X161854604Y-89758188D01*
X161855682Y-89750000D01*
X161835044Y-89593238D01*
X161774536Y-89447159D01*
X161744269Y-89407714D01*
X161695971Y-89344771D01*
X161678068Y-89312605D01*
X161628029Y-89180180D01*
X161625345Y-89173077D01*
X161571007Y-89094015D01*
X161533614Y-89039608D01*
X161533613Y-89039607D01*
X161529312Y-89033349D01*
X161510233Y-89016350D01*
X161408392Y-88925612D01*
X161408388Y-88925610D01*
X161402721Y-88920560D01*
X161347559Y-88891353D01*
X161335080Y-88884746D01*
X161252881Y-88841224D01*
X161088441Y-88799919D01*
X161080843Y-88799879D01*
X161080841Y-88799879D01*
X161003668Y-88799475D01*
X160918895Y-88799031D01*
X160911508Y-88800805D01*
X160911504Y-88800805D01*
X160774475Y-88833704D01*
X160754032Y-88838612D01*
X160747288Y-88842093D01*
X160747285Y-88842094D01*
X160610117Y-88912892D01*
X160603369Y-88916375D01*
X160597647Y-88921367D01*
X160597645Y-88921368D01*
X160538972Y-88972552D01*
X160475604Y-89027831D01*
X160378113Y-89166547D01*
X160316524Y-89324513D01*
X160315532Y-89332046D01*
X160315532Y-89332047D01*
X160296134Y-89479395D01*
X160294394Y-89492611D01*
X139700425Y-89492611D01*
X138733534Y-88525720D01*
X138726068Y-88516376D01*
X138725678Y-88516708D01*
X138719860Y-88509872D01*
X138715070Y-88502280D01*
X138675399Y-88467244D01*
X138669712Y-88461898D01*
X138658494Y-88450680D01*
X138654905Y-88447990D01*
X138650316Y-88444550D01*
X138642477Y-88438168D01*
X138614339Y-88413318D01*
X138607612Y-88407377D01*
X138599489Y-88403563D01*
X138596336Y-88401492D01*
X138583324Y-88393673D01*
X138580005Y-88391856D01*
X138572824Y-88386474D01*
X138562811Y-88382720D01*
X138529264Y-88370144D01*
X138519947Y-88366217D01*
X138485966Y-88350263D01*
X138485963Y-88350262D01*
X138477837Y-88346447D01*
X138468963Y-88345065D01*
X138465350Y-88343961D01*
X138450693Y-88340115D01*
X138446990Y-88339301D01*
X138438580Y-88336148D01*
X138392157Y-88332698D01*
X138382144Y-88331548D01*
X138368991Y-88329500D01*
X138353796Y-88329500D01*
X138344459Y-88329154D01*
X138329036Y-88328008D01*
X138295608Y-88325524D01*
X138286832Y-88327397D01*
X138277875Y-88328008D01*
X138277875Y-88328002D01*
X138263682Y-88329500D01*
X137926500Y-88329500D01*
X137858379Y-88309498D01*
X137811886Y-88255842D01*
X137800500Y-88203500D01*
X137800500Y-87935354D01*
X137797382Y-87909154D01*
X137751939Y-87806847D01*
X137743444Y-87798366D01*
X137680945Y-87735977D01*
X137672713Y-87727759D01*
X137662076Y-87723056D01*
X137662074Y-87723055D01*
X137602538Y-87696735D01*
X137570327Y-87682494D01*
X137544646Y-87679500D01*
X135755354Y-87679500D01*
X135751650Y-87679941D01*
X135751647Y-87679941D01*
X135744254Y-87680821D01*
X135729154Y-87682618D01*
X135720514Y-87686456D01*
X135720513Y-87686456D01*
X135654131Y-87715942D01*
X135626847Y-87728061D01*
X135547759Y-87807287D01*
X135502494Y-87909673D01*
X135499500Y-87935354D01*
X135499500Y-88629111D01*
X135479498Y-88697232D01*
X135425842Y-88743725D01*
X135355568Y-88753829D01*
X135290988Y-88724335D01*
X135252604Y-88664609D01*
X135248029Y-88640640D01*
X135246610Y-88625197D01*
X135246081Y-88619440D01*
X135188686Y-88415931D01*
X135181566Y-88401492D01*
X135097719Y-88231469D01*
X135095165Y-88226290D01*
X134968651Y-88056867D01*
X134841236Y-87939086D01*
X134817622Y-87917257D01*
X134817620Y-87917255D01*
X134813381Y-87913337D01*
X134780014Y-87892284D01*
X134639434Y-87803584D01*
X134639433Y-87803584D01*
X134634554Y-87800505D01*
X134438160Y-87722152D01*
X134432503Y-87721027D01*
X134432497Y-87721025D01*
X134236442Y-87682028D01*
X134236440Y-87682028D01*
X134230775Y-87680901D01*
X134225000Y-87680825D01*
X134224996Y-87680825D01*
X134118976Y-87679437D01*
X134019346Y-87678133D01*
X134013649Y-87679112D01*
X134013648Y-87679112D01*
X133816650Y-87712962D01*
X133816649Y-87712962D01*
X133810953Y-87713941D01*
X133612575Y-87787127D01*
X133607614Y-87790079D01*
X133607613Y-87790079D01*
X133561553Y-87817482D01*
X133430856Y-87895238D01*
X133271881Y-88034655D01*
X133140976Y-88200708D01*
X133138287Y-88205819D01*
X133138285Y-88205822D01*
X133088400Y-88300638D01*
X133042523Y-88387836D01*
X132979820Y-88589773D01*
X132954967Y-88799754D01*
X132968796Y-89010749D01*
X132970217Y-89016345D01*
X132970218Y-89016350D01*
X133017315Y-89201790D01*
X133020845Y-89215690D01*
X133109369Y-89407714D01*
X133231405Y-89580391D01*
X133271000Y-89618963D01*
X133375727Y-89720983D01*
X133382865Y-89727937D01*
X133387661Y-89731142D01*
X133387664Y-89731144D01*
X133506595Y-89810611D01*
X133558677Y-89845411D01*
X133563985Y-89847692D01*
X133563986Y-89847692D01*
X133747650Y-89926600D01*
X133747653Y-89926601D01*
X133752953Y-89928878D01*
X133758582Y-89930152D01*
X133758583Y-89930152D01*
X133953550Y-89974269D01*
X133953553Y-89974269D01*
X133959186Y-89975544D01*
X133964958Y-89975771D01*
X133970687Y-89976525D01*
X133970327Y-89979257D01*
X134026604Y-89998216D01*
X134070950Y-90053659D01*
X134078282Y-90124276D01*
X134046271Y-90187647D01*
X133985081Y-90223651D01*
X133975705Y-90225632D01*
X133946326Y-90230680D01*
X133816650Y-90252962D01*
X133816649Y-90252962D01*
X133810953Y-90253941D01*
X133612575Y-90327127D01*
X133607614Y-90330079D01*
X133607613Y-90330079D01*
X133590089Y-90340505D01*
X133430856Y-90435238D01*
X133271881Y-90574655D01*
X133140976Y-90740708D01*
X133138287Y-90745819D01*
X133138285Y-90745822D01*
X133124792Y-90771469D01*
X133042523Y-90927836D01*
X132979820Y-91129773D01*
X132954967Y-91339754D01*
X132968796Y-91550749D01*
X132970217Y-91556345D01*
X132970218Y-91556350D01*
X133002291Y-91682634D01*
X133020845Y-91755690D01*
X133109369Y-91947714D01*
X133231405Y-92120391D01*
X133382865Y-92267937D01*
X133387661Y-92271142D01*
X133387664Y-92271144D01*
X133530936Y-92366875D01*
X133558677Y-92385411D01*
X133563985Y-92387692D01*
X133563986Y-92387692D01*
X133747650Y-92466600D01*
X133747653Y-92466601D01*
X133752953Y-92468878D01*
X133758582Y-92470152D01*
X133758583Y-92470152D01*
X133953550Y-92514269D01*
X133953553Y-92514269D01*
X133959186Y-92515544D01*
X133964958Y-92515771D01*
X133970687Y-92516525D01*
X133970327Y-92519257D01*
X134026604Y-92538216D01*
X134070950Y-92593659D01*
X134078282Y-92664276D01*
X134046271Y-92727647D01*
X133985081Y-92763651D01*
X133975704Y-92765632D01*
X133816650Y-92792962D01*
X133816649Y-92792962D01*
X133810953Y-92793941D01*
X133612575Y-92867127D01*
X133607614Y-92870079D01*
X133607613Y-92870079D01*
X133590089Y-92880505D01*
X133430856Y-92975238D01*
X133271881Y-93114655D01*
X133140976Y-93280708D01*
X133138287Y-93285819D01*
X133138285Y-93285822D01*
X133124792Y-93311469D01*
X133042523Y-93467836D01*
X132979820Y-93669773D01*
X132954967Y-93879754D01*
X132968796Y-94090749D01*
X132970217Y-94096345D01*
X132970218Y-94096350D01*
X132992132Y-94182634D01*
X133020845Y-94295690D01*
X133109369Y-94487714D01*
X133231405Y-94660391D01*
X133382865Y-94807937D01*
X133387661Y-94811142D01*
X133387664Y-94811144D01*
X133530936Y-94906875D01*
X133558677Y-94925411D01*
X133563985Y-94927692D01*
X133563986Y-94927692D01*
X133747650Y-95006600D01*
X133747653Y-95006601D01*
X133752953Y-95008878D01*
X133758582Y-95010152D01*
X133758583Y-95010152D01*
X133953550Y-95054269D01*
X133953553Y-95054269D01*
X133959186Y-95055544D01*
X133964958Y-95055771D01*
X133970687Y-95056525D01*
X133970327Y-95059257D01*
X134026604Y-95078216D01*
X134070950Y-95133659D01*
X134078282Y-95204276D01*
X134046271Y-95267647D01*
X133985081Y-95303651D01*
X133975704Y-95305632D01*
X133816650Y-95332962D01*
X133816649Y-95332962D01*
X133810953Y-95333941D01*
X133612575Y-95407127D01*
X133607614Y-95410079D01*
X133607613Y-95410079D01*
X133590089Y-95420505D01*
X133430856Y-95515238D01*
X133271881Y-95654655D01*
X133140976Y-95820708D01*
X133138287Y-95825819D01*
X133138285Y-95825822D01*
X133109240Y-95881028D01*
X133042523Y-96007836D01*
X132979820Y-96209773D01*
X132954967Y-96419754D01*
X132968796Y-96630749D01*
X132970217Y-96636345D01*
X132970218Y-96636350D01*
X133015405Y-96814269D01*
X133020845Y-96835690D01*
X133109369Y-97027714D01*
X133231405Y-97200391D01*
X133382865Y-97347937D01*
X133387661Y-97351142D01*
X133387664Y-97351144D01*
X133530936Y-97446875D01*
X133558677Y-97465411D01*
X133563985Y-97467692D01*
X133563986Y-97467692D01*
X133747650Y-97546600D01*
X133747653Y-97546601D01*
X133752953Y-97548878D01*
X133758582Y-97550152D01*
X133758583Y-97550152D01*
X133953550Y-97594269D01*
X133953553Y-97594269D01*
X133959186Y-97595544D01*
X133964958Y-97595771D01*
X133970687Y-97596525D01*
X133970417Y-97598578D01*
X134028983Y-97618295D01*
X134073341Y-97673729D01*
X134080687Y-97744344D01*
X134048690Y-97807722D01*
X133987507Y-97843739D01*
X133978105Y-97845726D01*
X133816780Y-97873447D01*
X133805660Y-97876427D01*
X133618207Y-97945582D01*
X133607829Y-97950532D01*
X133436119Y-98052688D01*
X133426807Y-98059453D01*
X133276587Y-98191194D01*
X133268670Y-98199537D01*
X133144975Y-98356443D01*
X133138704Y-98366100D01*
X133045679Y-98542912D01*
X133041273Y-98553549D01*
X132989993Y-98718698D01*
X132989774Y-98732799D01*
X132996506Y-98736000D01*
X134238000Y-98736000D01*
X134306121Y-98756002D01*
X134352614Y-98809658D01*
X134364000Y-98862000D01*
X134364000Y-99118000D01*
X134343998Y-99186121D01*
X134290342Y-99232614D01*
X134238000Y-99244000D01*
X133006030Y-99244000D01*
X132992499Y-99247973D01*
X132991207Y-99256962D01*
X133019897Y-99369928D01*
X133023735Y-99380766D01*
X133107386Y-99562218D01*
X133113137Y-99572179D01*
X133228455Y-99735350D01*
X133235921Y-99744092D01*
X133379047Y-99883520D01*
X133387981Y-99890754D01*
X133554112Y-100001760D01*
X133564225Y-100007251D01*
X133747805Y-100086123D01*
X133758738Y-100089675D01*
X133953615Y-100133771D01*
X133970753Y-100136027D01*
X133970480Y-100138100D01*
X134028986Y-100157816D01*
X134073326Y-100213264D01*
X134080650Y-100283882D01*
X134048633Y-100347249D01*
X133987439Y-100383247D01*
X133978081Y-100385224D01*
X133810953Y-100413941D01*
X133612575Y-100487127D01*
X133607614Y-100490079D01*
X133607613Y-100490079D01*
X133590089Y-100500505D01*
X133430856Y-100595238D01*
X133271881Y-100734655D01*
X133140976Y-100900708D01*
X133138287Y-100905819D01*
X133138285Y-100905822D01*
X133124792Y-100931469D01*
X133042523Y-101087836D01*
X132979820Y-101289773D01*
X132954967Y-101499754D01*
X130300500Y-101499754D01*
X130300500Y-86426500D01*
X130320502Y-86358379D01*
X130374158Y-86311886D01*
X130426500Y-86300500D01*
X176073500Y-86300500D01*
X176141621Y-86320502D01*
G37*
%TD.AperFunction*%
%TD*%
M02*
