%FSLAX45Y45*%
G04 Gerber Fmt 4.5, Leading zero omitted, Abs format (unit mm)*
G04 Created by KiCad (PCBNEW (6.0.5)) date 2024-06-23 18:04:05*
%MOMM*%
%LPD*%
G01*
G04 APERTURE LIST*
%TA.AperFunction,Profile*%
%ADD10C,0.100000*%
%TD*%
%ADD11C,0.200000*%
%ADD12C,0.040000*%
%ADD13C,0.100000*%
G04 APERTURE END LIST*
D10*
X13000000Y-8600000D02*
X17650000Y-8600000D01*
X17650000Y-8600000D02*
X17650000Y-10450000D01*
X17650000Y-10450000D02*
X13000000Y-10450000D01*
X13000000Y-10450000D02*
X13000000Y-8600000D01*
D11*
D12*
X13880000Y-8755000D02*
X13920000Y-8795000D01*
X13920000Y-8755000D02*
X13880000Y-8795000D01*
X14680000Y-10180000D02*
X14720000Y-10220000D01*
X14720000Y-10180000D02*
X14680000Y-10220000D01*
X14930000Y-10180000D02*
X14970000Y-10220000D01*
X14970000Y-10180000D02*
X14930000Y-10220000D01*
X15105000Y-9130000D02*
X15145000Y-9170000D01*
X15145000Y-9130000D02*
X15105000Y-9170000D01*
X15105000Y-9255000D02*
X15145000Y-9295000D01*
X15145000Y-9255000D02*
X15105000Y-9295000D01*
X15130000Y-9005000D02*
X15170000Y-9045000D01*
X15170000Y-9005000D02*
X15130000Y-9045000D01*
X15130000Y-9380000D02*
X15170000Y-9420000D01*
X15170000Y-9380000D02*
X15130000Y-9420000D01*
X15130000Y-9930000D02*
X15170000Y-9970000D01*
X15170000Y-9930000D02*
X15130000Y-9970000D01*
X15130000Y-10055000D02*
X15170000Y-10095000D01*
X15170000Y-10055000D02*
X15130000Y-10095000D01*
X15155000Y-9805000D02*
X15195000Y-9845000D01*
X15195000Y-9805000D02*
X15155000Y-9845000D01*
X15155000Y-10180000D02*
X15195000Y-10220000D01*
X15195000Y-10180000D02*
X15155000Y-10220000D01*
X15205000Y-9505000D02*
X15245000Y-9545000D01*
X15245000Y-9505000D02*
X15205000Y-9545000D01*
X15505000Y-10180000D02*
X15545000Y-10220000D01*
X15545000Y-10180000D02*
X15505000Y-10220000D01*
X15630000Y-8930000D02*
X15670000Y-8970000D01*
X15670000Y-8930000D02*
X15630000Y-8970000D01*
X15630000Y-9730000D02*
X15670000Y-9770000D01*
X15670000Y-9730000D02*
X15630000Y-9770000D01*
X16080000Y-8930000D02*
X16120000Y-8970000D01*
X16120000Y-8930000D02*
X16080000Y-8970000D01*
X16105000Y-9380000D02*
X16145000Y-9420000D01*
X16145000Y-9380000D02*
X16105000Y-9420000D01*
X17205000Y-8755000D02*
X17245000Y-8795000D01*
X17245000Y-8755000D02*
X17205000Y-8795000D01*
X17205000Y-10230000D02*
X17245000Y-10270000D01*
X17245000Y-10230000D02*
X17205000Y-10270000D01*
D13*
X13461000Y-8883000D02*
G75*
G03*
X13461000Y-8883000I-50000J0D01*
G01*
X13461000Y-9137000D02*
G75*
G03*
X13461000Y-9137000I-50000J0D01*
G01*
X13461000Y-9391000D02*
G75*
G03*
X13461000Y-9391000I-50000J0D01*
G01*
X13461000Y-9645000D02*
G75*
G03*
X13461000Y-9645000I-50000J0D01*
G01*
X13461000Y-9899000D02*
G75*
G03*
X13461000Y-9899000I-50000J0D01*
G01*
X13461000Y-10153000D02*
G75*
G03*
X13461000Y-10153000I-50000J0D01*
G01*
X13715000Y-8883000D02*
G75*
G03*
X13715000Y-8883000I-50000J0D01*
G01*
X13715000Y-9137000D02*
G75*
G03*
X13715000Y-9137000I-50000J0D01*
G01*
X13715000Y-9391000D02*
G75*
G03*
X13715000Y-9391000I-50000J0D01*
G01*
X13715000Y-9645000D02*
G75*
G03*
X13715000Y-9645000I-50000J0D01*
G01*
X13715000Y-9899000D02*
G75*
G03*
X13715000Y-9899000I-50000J0D01*
G01*
X13715000Y-10153000D02*
G75*
G03*
X13715000Y-10153000I-50000J0D01*
G01*
X16437500Y-8883000D02*
G75*
G03*
X16437500Y-8883000I-50000J0D01*
G01*
X16437500Y-9137000D02*
G75*
G03*
X16437500Y-9137000I-50000J0D01*
G01*
X16437500Y-9391000D02*
G75*
G03*
X16437500Y-9391000I-50000J0D01*
G01*
X16437500Y-9645000D02*
G75*
G03*
X16437500Y-9645000I-50000J0D01*
G01*
X16437500Y-9899000D02*
G75*
G03*
X16437500Y-9899000I-50000J0D01*
G01*
X16437500Y-10153000D02*
G75*
G03*
X16437500Y-10153000I-50000J0D01*
G01*
X16691500Y-8883000D02*
G75*
G03*
X16691500Y-8883000I-50000J0D01*
G01*
X16691500Y-9137000D02*
G75*
G03*
X16691500Y-9137000I-50000J0D01*
G01*
X16691500Y-9391000D02*
G75*
G03*
X16691500Y-9391000I-50000J0D01*
G01*
X16691500Y-9645000D02*
G75*
G03*
X16691500Y-9645000I-50000J0D01*
G01*
X16691500Y-9899000D02*
G75*
G03*
X16691500Y-9899000I-50000J0D01*
G01*
X16691500Y-10153000D02*
G75*
G03*
X16691500Y-10153000I-50000J0D01*
G01*
D11*
X13252619Y-10765476D02*
X13252619Y-10565476D01*
X13300238Y-10565476D01*
X13328809Y-10575000D01*
X13347857Y-10594048D01*
X13357381Y-10613095D01*
X13366905Y-10651190D01*
X13366905Y-10679762D01*
X13357381Y-10717857D01*
X13347857Y-10736905D01*
X13328809Y-10755952D01*
X13300238Y-10765476D01*
X13252619Y-10765476D01*
X13452619Y-10765476D02*
X13452619Y-10632143D01*
X13452619Y-10670238D02*
X13462143Y-10651190D01*
X13471667Y-10641667D01*
X13490714Y-10632143D01*
X13509762Y-10632143D01*
X13576428Y-10765476D02*
X13576428Y-10632143D01*
X13576428Y-10565476D02*
X13566905Y-10575000D01*
X13576428Y-10584524D01*
X13585952Y-10575000D01*
X13576428Y-10565476D01*
X13576428Y-10584524D01*
X13700238Y-10765476D02*
X13681190Y-10755952D01*
X13671667Y-10736905D01*
X13671667Y-10565476D01*
X13805000Y-10765476D02*
X13785952Y-10755952D01*
X13776428Y-10736905D01*
X13776428Y-10565476D01*
X14033571Y-10765476D02*
X14033571Y-10565476D01*
X14100238Y-10708333D01*
X14166905Y-10565476D01*
X14166905Y-10765476D01*
X14347857Y-10765476D02*
X14347857Y-10660714D01*
X14338333Y-10641667D01*
X14319286Y-10632143D01*
X14281190Y-10632143D01*
X14262143Y-10641667D01*
X14347857Y-10755952D02*
X14328809Y-10765476D01*
X14281190Y-10765476D01*
X14262143Y-10755952D01*
X14252619Y-10736905D01*
X14252619Y-10717857D01*
X14262143Y-10698810D01*
X14281190Y-10689286D01*
X14328809Y-10689286D01*
X14347857Y-10679762D01*
X14443095Y-10632143D02*
X14443095Y-10832143D01*
X14443095Y-10641667D02*
X14462143Y-10632143D01*
X14500238Y-10632143D01*
X14519286Y-10641667D01*
X14528809Y-10651190D01*
X14538333Y-10670238D01*
X14538333Y-10727381D01*
X14528809Y-10746429D01*
X14519286Y-10755952D01*
X14500238Y-10765476D01*
X14462143Y-10765476D01*
X14443095Y-10755952D01*
X14624048Y-10746429D02*
X14633571Y-10755952D01*
X14624048Y-10765476D01*
X14614524Y-10755952D01*
X14624048Y-10746429D01*
X14624048Y-10765476D01*
X14624048Y-10641667D02*
X14633571Y-10651190D01*
X14624048Y-10660714D01*
X14614524Y-10651190D01*
X14624048Y-10641667D01*
X14624048Y-10660714D01*
D12*
X12955000Y-11075000D02*
X12995000Y-11115000D01*
X12995000Y-11075000D02*
X12955000Y-11115000D01*
D11*
X13290714Y-10985476D02*
X13309762Y-10985476D01*
X13328809Y-10995000D01*
X13338333Y-11004524D01*
X13347857Y-11023571D01*
X13357381Y-11061667D01*
X13357381Y-11109286D01*
X13347857Y-11147381D01*
X13338333Y-11166429D01*
X13328809Y-11175952D01*
X13309762Y-11185476D01*
X13290714Y-11185476D01*
X13271667Y-11175952D01*
X13262143Y-11166429D01*
X13252619Y-11147381D01*
X13243095Y-11109286D01*
X13243095Y-11061667D01*
X13252619Y-11023571D01*
X13262143Y-11004524D01*
X13271667Y-10995000D01*
X13290714Y-10985476D01*
X13443095Y-11166429D02*
X13452619Y-11175952D01*
X13443095Y-11185476D01*
X13433571Y-11175952D01*
X13443095Y-11166429D01*
X13443095Y-11185476D01*
X13624048Y-11052143D02*
X13624048Y-11185476D01*
X13576428Y-10975952D02*
X13528809Y-11118810D01*
X13652619Y-11118810D01*
X13766905Y-10985476D02*
X13785952Y-10985476D01*
X13805000Y-10995000D01*
X13814524Y-11004524D01*
X13824048Y-11023571D01*
X13833571Y-11061667D01*
X13833571Y-11109286D01*
X13824048Y-11147381D01*
X13814524Y-11166429D01*
X13805000Y-11175952D01*
X13785952Y-11185476D01*
X13766905Y-11185476D01*
X13747857Y-11175952D01*
X13738333Y-11166429D01*
X13728809Y-11147381D01*
X13719286Y-11109286D01*
X13719286Y-11061667D01*
X13728809Y-11023571D01*
X13738333Y-11004524D01*
X13747857Y-10995000D01*
X13766905Y-10985476D01*
X13957381Y-10985476D02*
X13976428Y-10985476D01*
X13995476Y-10995000D01*
X14005000Y-11004524D01*
X14014524Y-11023571D01*
X14024048Y-11061667D01*
X14024048Y-11109286D01*
X14014524Y-11147381D01*
X14005000Y-11166429D01*
X13995476Y-11175952D01*
X13976428Y-11185476D01*
X13957381Y-11185476D01*
X13938333Y-11175952D01*
X13928809Y-11166429D01*
X13919286Y-11147381D01*
X13909762Y-11109286D01*
X13909762Y-11061667D01*
X13919286Y-11023571D01*
X13928809Y-11004524D01*
X13938333Y-10995000D01*
X13957381Y-10985476D01*
X14109762Y-11185476D02*
X14109762Y-11052143D01*
X14109762Y-11071190D02*
X14119286Y-11061667D01*
X14138333Y-11052143D01*
X14166905Y-11052143D01*
X14185952Y-11061667D01*
X14195476Y-11080714D01*
X14195476Y-11185476D01*
X14195476Y-11080714D02*
X14205000Y-11061667D01*
X14224048Y-11052143D01*
X14252619Y-11052143D01*
X14271667Y-11061667D01*
X14281190Y-11080714D01*
X14281190Y-11185476D01*
X14376428Y-11185476D02*
X14376428Y-11052143D01*
X14376428Y-11071190D02*
X14385952Y-11061667D01*
X14405000Y-11052143D01*
X14433571Y-11052143D01*
X14452619Y-11061667D01*
X14462143Y-11080714D01*
X14462143Y-11185476D01*
X14462143Y-11080714D02*
X14471667Y-11061667D01*
X14490714Y-11052143D01*
X14519286Y-11052143D01*
X14538333Y-11061667D01*
X14547857Y-11080714D01*
X14547857Y-11185476D01*
X14938333Y-10975952D02*
X14766905Y-11233095D01*
X15195476Y-10985476D02*
X15214524Y-10985476D01*
X15233571Y-10995000D01*
X15243095Y-11004524D01*
X15252619Y-11023571D01*
X15262143Y-11061667D01*
X15262143Y-11109286D01*
X15252619Y-11147381D01*
X15243095Y-11166429D01*
X15233571Y-11175952D01*
X15214524Y-11185476D01*
X15195476Y-11185476D01*
X15176428Y-11175952D01*
X15166905Y-11166429D01*
X15157381Y-11147381D01*
X15147857Y-11109286D01*
X15147857Y-11061667D01*
X15157381Y-11023571D01*
X15166905Y-11004524D01*
X15176428Y-10995000D01*
X15195476Y-10985476D01*
X15347857Y-11166429D02*
X15357381Y-11175952D01*
X15347857Y-11185476D01*
X15338333Y-11175952D01*
X15347857Y-11166429D01*
X15347857Y-11185476D01*
X15481190Y-10985476D02*
X15500238Y-10985476D01*
X15519286Y-10995000D01*
X15528809Y-11004524D01*
X15538333Y-11023571D01*
X15547857Y-11061667D01*
X15547857Y-11109286D01*
X15538333Y-11147381D01*
X15528809Y-11166429D01*
X15519286Y-11175952D01*
X15500238Y-11185476D01*
X15481190Y-11185476D01*
X15462143Y-11175952D01*
X15452619Y-11166429D01*
X15443095Y-11147381D01*
X15433571Y-11109286D01*
X15433571Y-11061667D01*
X15443095Y-11023571D01*
X15452619Y-11004524D01*
X15462143Y-10995000D01*
X15481190Y-10985476D01*
X15738333Y-11185476D02*
X15624048Y-11185476D01*
X15681190Y-11185476D02*
X15681190Y-10985476D01*
X15662143Y-11014048D01*
X15643095Y-11033095D01*
X15624048Y-11042619D01*
X15919286Y-10985476D02*
X15824048Y-10985476D01*
X15814524Y-11080714D01*
X15824048Y-11071190D01*
X15843095Y-11061667D01*
X15890714Y-11061667D01*
X15909762Y-11071190D01*
X15919286Y-11080714D01*
X15928809Y-11099762D01*
X15928809Y-11147381D01*
X15919286Y-11166429D01*
X15909762Y-11175952D01*
X15890714Y-11185476D01*
X15843095Y-11185476D01*
X15824048Y-11175952D01*
X15814524Y-11166429D01*
X15995476Y-10985476D02*
X16128809Y-10985476D01*
X16043095Y-11185476D01*
X16195476Y-10985476D02*
X16195476Y-11023571D01*
X16271667Y-10985476D02*
X16271667Y-11023571D01*
X16566905Y-11261667D02*
X16557381Y-11252143D01*
X16538333Y-11223571D01*
X16528809Y-11204524D01*
X16519286Y-11175952D01*
X16509762Y-11128333D01*
X16509762Y-11090238D01*
X16519286Y-11042619D01*
X16528809Y-11014048D01*
X16538333Y-10995000D01*
X16557381Y-10966429D01*
X16566905Y-10956905D01*
X16747857Y-11185476D02*
X16633571Y-11185476D01*
X16690714Y-11185476D02*
X16690714Y-10985476D01*
X16671667Y-11014048D01*
X16652619Y-11033095D01*
X16633571Y-11042619D01*
X16843095Y-11185476D02*
X16881190Y-11185476D01*
X16900238Y-11175952D01*
X16909762Y-11166429D01*
X16928810Y-11137857D01*
X16938333Y-11099762D01*
X16938333Y-11023571D01*
X16928810Y-11004524D01*
X16919286Y-10995000D01*
X16900238Y-10985476D01*
X16862143Y-10985476D01*
X16843095Y-10995000D01*
X16833571Y-11004524D01*
X16824048Y-11023571D01*
X16824048Y-11071190D01*
X16833571Y-11090238D01*
X16843095Y-11099762D01*
X16862143Y-11109286D01*
X16900238Y-11109286D01*
X16919286Y-11099762D01*
X16928810Y-11090238D01*
X16938333Y-11071190D01*
X17176429Y-11185476D02*
X17176429Y-10985476D01*
X17262143Y-11185476D02*
X17262143Y-11080714D01*
X17252619Y-11061667D01*
X17233571Y-11052143D01*
X17205000Y-11052143D01*
X17185952Y-11061667D01*
X17176429Y-11071190D01*
X17385952Y-11185476D02*
X17366905Y-11175952D01*
X17357381Y-11166429D01*
X17347857Y-11147381D01*
X17347857Y-11090238D01*
X17357381Y-11071190D01*
X17366905Y-11061667D01*
X17385952Y-11052143D01*
X17414524Y-11052143D01*
X17433571Y-11061667D01*
X17443095Y-11071190D01*
X17452619Y-11090238D01*
X17452619Y-11147381D01*
X17443095Y-11166429D01*
X17433571Y-11175952D01*
X17414524Y-11185476D01*
X17385952Y-11185476D01*
X17566905Y-11185476D02*
X17547857Y-11175952D01*
X17538333Y-11156905D01*
X17538333Y-10985476D01*
X17719286Y-11175952D02*
X17700238Y-11185476D01*
X17662143Y-11185476D01*
X17643095Y-11175952D01*
X17633571Y-11156905D01*
X17633571Y-11080714D01*
X17643095Y-11061667D01*
X17662143Y-11052143D01*
X17700238Y-11052143D01*
X17719286Y-11061667D01*
X17728810Y-11080714D01*
X17728810Y-11099762D01*
X17633571Y-11118810D01*
X17805000Y-11175952D02*
X17824048Y-11185476D01*
X17862143Y-11185476D01*
X17881190Y-11175952D01*
X17890714Y-11156905D01*
X17890714Y-11147381D01*
X17881190Y-11128333D01*
X17862143Y-11118810D01*
X17833571Y-11118810D01*
X17814524Y-11109286D01*
X17805000Y-11090238D01*
X17805000Y-11080714D01*
X17814524Y-11061667D01*
X17833571Y-11052143D01*
X17862143Y-11052143D01*
X17881190Y-11061667D01*
X17957381Y-11261667D02*
X17966905Y-11252143D01*
X17985952Y-11223571D01*
X17995476Y-11204524D01*
X18005000Y-11175952D01*
X18014524Y-11128333D01*
X18014524Y-11090238D01*
X18005000Y-11042619D01*
X17995476Y-11014048D01*
X17985952Y-10995000D01*
X17966905Y-10966429D01*
X17957381Y-10956905D01*
D13*
X12995000Y-11359000D02*
G75*
G03*
X12995000Y-11359000I-50000J0D01*
G01*
D11*
X13357381Y-11449476D02*
X13243095Y-11449476D01*
X13300238Y-11449476D02*
X13300238Y-11249476D01*
X13281190Y-11278048D01*
X13262143Y-11297095D01*
X13243095Y-11306619D01*
X13443095Y-11430428D02*
X13452619Y-11439952D01*
X13443095Y-11449476D01*
X13433571Y-11439952D01*
X13443095Y-11430428D01*
X13443095Y-11449476D01*
X13576428Y-11249476D02*
X13595476Y-11249476D01*
X13614524Y-11259000D01*
X13624048Y-11268524D01*
X13633571Y-11287571D01*
X13643095Y-11325667D01*
X13643095Y-11373286D01*
X13633571Y-11411381D01*
X13624048Y-11430428D01*
X13614524Y-11439952D01*
X13595476Y-11449476D01*
X13576428Y-11449476D01*
X13557381Y-11439952D01*
X13547857Y-11430428D01*
X13538333Y-11411381D01*
X13528809Y-11373286D01*
X13528809Y-11325667D01*
X13538333Y-11287571D01*
X13547857Y-11268524D01*
X13557381Y-11259000D01*
X13576428Y-11249476D01*
X13766905Y-11249476D02*
X13785952Y-11249476D01*
X13805000Y-11259000D01*
X13814524Y-11268524D01*
X13824048Y-11287571D01*
X13833571Y-11325667D01*
X13833571Y-11373286D01*
X13824048Y-11411381D01*
X13814524Y-11430428D01*
X13805000Y-11439952D01*
X13785952Y-11449476D01*
X13766905Y-11449476D01*
X13747857Y-11439952D01*
X13738333Y-11430428D01*
X13728809Y-11411381D01*
X13719286Y-11373286D01*
X13719286Y-11325667D01*
X13728809Y-11287571D01*
X13738333Y-11268524D01*
X13747857Y-11259000D01*
X13766905Y-11249476D01*
X13957381Y-11249476D02*
X13976428Y-11249476D01*
X13995476Y-11259000D01*
X14005000Y-11268524D01*
X14014524Y-11287571D01*
X14024048Y-11325667D01*
X14024048Y-11373286D01*
X14014524Y-11411381D01*
X14005000Y-11430428D01*
X13995476Y-11439952D01*
X13976428Y-11449476D01*
X13957381Y-11449476D01*
X13938333Y-11439952D01*
X13928809Y-11430428D01*
X13919286Y-11411381D01*
X13909762Y-11373286D01*
X13909762Y-11325667D01*
X13919286Y-11287571D01*
X13928809Y-11268524D01*
X13938333Y-11259000D01*
X13957381Y-11249476D01*
X14109762Y-11449476D02*
X14109762Y-11316143D01*
X14109762Y-11335190D02*
X14119286Y-11325667D01*
X14138333Y-11316143D01*
X14166905Y-11316143D01*
X14185952Y-11325667D01*
X14195476Y-11344714D01*
X14195476Y-11449476D01*
X14195476Y-11344714D02*
X14205000Y-11325667D01*
X14224048Y-11316143D01*
X14252619Y-11316143D01*
X14271667Y-11325667D01*
X14281190Y-11344714D01*
X14281190Y-11449476D01*
X14376428Y-11449476D02*
X14376428Y-11316143D01*
X14376428Y-11335190D02*
X14385952Y-11325667D01*
X14405000Y-11316143D01*
X14433571Y-11316143D01*
X14452619Y-11325667D01*
X14462143Y-11344714D01*
X14462143Y-11449476D01*
X14462143Y-11344714D02*
X14471667Y-11325667D01*
X14490714Y-11316143D01*
X14519286Y-11316143D01*
X14538333Y-11325667D01*
X14547857Y-11344714D01*
X14547857Y-11449476D01*
X14938333Y-11239952D02*
X14766905Y-11497095D01*
X15195476Y-11249476D02*
X15214524Y-11249476D01*
X15233571Y-11259000D01*
X15243095Y-11268524D01*
X15252619Y-11287571D01*
X15262143Y-11325667D01*
X15262143Y-11373286D01*
X15252619Y-11411381D01*
X15243095Y-11430428D01*
X15233571Y-11439952D01*
X15214524Y-11449476D01*
X15195476Y-11449476D01*
X15176428Y-11439952D01*
X15166905Y-11430428D01*
X15157381Y-11411381D01*
X15147857Y-11373286D01*
X15147857Y-11325667D01*
X15157381Y-11287571D01*
X15166905Y-11268524D01*
X15176428Y-11259000D01*
X15195476Y-11249476D01*
X15347857Y-11430428D02*
X15357381Y-11439952D01*
X15347857Y-11449476D01*
X15338333Y-11439952D01*
X15347857Y-11430428D01*
X15347857Y-11449476D01*
X15481190Y-11249476D02*
X15500238Y-11249476D01*
X15519286Y-11259000D01*
X15528809Y-11268524D01*
X15538333Y-11287571D01*
X15547857Y-11325667D01*
X15547857Y-11373286D01*
X15538333Y-11411381D01*
X15528809Y-11430428D01*
X15519286Y-11439952D01*
X15500238Y-11449476D01*
X15481190Y-11449476D01*
X15462143Y-11439952D01*
X15452619Y-11430428D01*
X15443095Y-11411381D01*
X15433571Y-11373286D01*
X15433571Y-11325667D01*
X15443095Y-11287571D01*
X15452619Y-11268524D01*
X15462143Y-11259000D01*
X15481190Y-11249476D01*
X15614524Y-11249476D02*
X15738333Y-11249476D01*
X15671667Y-11325667D01*
X15700238Y-11325667D01*
X15719286Y-11335190D01*
X15728809Y-11344714D01*
X15738333Y-11363762D01*
X15738333Y-11411381D01*
X15728809Y-11430428D01*
X15719286Y-11439952D01*
X15700238Y-11449476D01*
X15643095Y-11449476D01*
X15624048Y-11439952D01*
X15614524Y-11430428D01*
X15833571Y-11449476D02*
X15871667Y-11449476D01*
X15890714Y-11439952D01*
X15900238Y-11430428D01*
X15919286Y-11401857D01*
X15928809Y-11363762D01*
X15928809Y-11287571D01*
X15919286Y-11268524D01*
X15909762Y-11259000D01*
X15890714Y-11249476D01*
X15852619Y-11249476D01*
X15833571Y-11259000D01*
X15824048Y-11268524D01*
X15814524Y-11287571D01*
X15814524Y-11335190D01*
X15824048Y-11354238D01*
X15833571Y-11363762D01*
X15852619Y-11373286D01*
X15890714Y-11373286D01*
X15909762Y-11363762D01*
X15919286Y-11354238D01*
X15928809Y-11335190D01*
X16100238Y-11316143D02*
X16100238Y-11449476D01*
X16052619Y-11239952D02*
X16005000Y-11382809D01*
X16128809Y-11382809D01*
X16195476Y-11249476D02*
X16195476Y-11287571D01*
X16271667Y-11249476D02*
X16271667Y-11287571D01*
X16566905Y-11525667D02*
X16557381Y-11516143D01*
X16538333Y-11487571D01*
X16528809Y-11468524D01*
X16519286Y-11439952D01*
X16509762Y-11392333D01*
X16509762Y-11354238D01*
X16519286Y-11306619D01*
X16528809Y-11278048D01*
X16538333Y-11259000D01*
X16557381Y-11230428D01*
X16566905Y-11220905D01*
X16633571Y-11268524D02*
X16643095Y-11259000D01*
X16662143Y-11249476D01*
X16709762Y-11249476D01*
X16728809Y-11259000D01*
X16738333Y-11268524D01*
X16747857Y-11287571D01*
X16747857Y-11306619D01*
X16738333Y-11335190D01*
X16624048Y-11449476D01*
X16747857Y-11449476D01*
X16919286Y-11316143D02*
X16919286Y-11449476D01*
X16871667Y-11239952D02*
X16824048Y-11382809D01*
X16947857Y-11382809D01*
X17176429Y-11449476D02*
X17176429Y-11249476D01*
X17262143Y-11449476D02*
X17262143Y-11344714D01*
X17252619Y-11325667D01*
X17233571Y-11316143D01*
X17205000Y-11316143D01*
X17185952Y-11325667D01*
X17176429Y-11335190D01*
X17385952Y-11449476D02*
X17366905Y-11439952D01*
X17357381Y-11430428D01*
X17347857Y-11411381D01*
X17347857Y-11354238D01*
X17357381Y-11335190D01*
X17366905Y-11325667D01*
X17385952Y-11316143D01*
X17414524Y-11316143D01*
X17433571Y-11325667D01*
X17443095Y-11335190D01*
X17452619Y-11354238D01*
X17452619Y-11411381D01*
X17443095Y-11430428D01*
X17433571Y-11439952D01*
X17414524Y-11449476D01*
X17385952Y-11449476D01*
X17566905Y-11449476D02*
X17547857Y-11439952D01*
X17538333Y-11420905D01*
X17538333Y-11249476D01*
X17719286Y-11439952D02*
X17700238Y-11449476D01*
X17662143Y-11449476D01*
X17643095Y-11439952D01*
X17633571Y-11420905D01*
X17633571Y-11344714D01*
X17643095Y-11325667D01*
X17662143Y-11316143D01*
X17700238Y-11316143D01*
X17719286Y-11325667D01*
X17728810Y-11344714D01*
X17728810Y-11363762D01*
X17633571Y-11382809D01*
X17805000Y-11439952D02*
X17824048Y-11449476D01*
X17862143Y-11449476D01*
X17881190Y-11439952D01*
X17890714Y-11420905D01*
X17890714Y-11411381D01*
X17881190Y-11392333D01*
X17862143Y-11382809D01*
X17833571Y-11382809D01*
X17814524Y-11373286D01*
X17805000Y-11354238D01*
X17805000Y-11344714D01*
X17814524Y-11325667D01*
X17833571Y-11316143D01*
X17862143Y-11316143D01*
X17881190Y-11325667D01*
X17957381Y-11525667D02*
X17966905Y-11516143D01*
X17985952Y-11487571D01*
X17995476Y-11468524D01*
X18005000Y-11439952D01*
X18014524Y-11392333D01*
X18014524Y-11354238D01*
X18005000Y-11306619D01*
X17995476Y-11278048D01*
X17985952Y-11259000D01*
X17966905Y-11230428D01*
X17957381Y-11220905D01*
M02*
