M48
; DRILL file {KiCad (6.0.5)} date Sun Jun 23 18:04:04 2024
; FORMAT={-:-/ absolute / metric / decimal}
; #@! TF.CreationDate,2024-06-23T18:04:04+02:00
; #@! TF.GenerationSoftware,Kicad,Pcbnew,(6.0.5)
; #@! TF.FileFunction,Plated,1,2,PTH
FMAT,2
METRIC
; #@! TA.AperFunction,Plated,PTH,ViaDrill
T1C0.400
; #@! TA.AperFunction,Plated,PTH,ComponentDrill
T2C1.000
%
G90
G05
T1
X139.0Y-87.75
X147.0Y-102.0
X149.5Y-102.0
X151.25Y-91.5
X151.25Y-92.75
X151.5Y-90.25
X151.5Y-94.0
X151.5Y-99.5
X151.5Y-100.75
X151.75Y-98.25
X151.75Y-102.0
X152.25Y-95.25
X155.25Y-102.0
X156.5Y-89.5
X156.5Y-97.5
X161.0Y-89.5
X161.25Y-94.0
X172.25Y-87.75
X172.25Y-102.5
T2
X134.11Y-88.83
X134.11Y-91.37
X134.11Y-93.91
X134.11Y-96.45
X134.11Y-98.99
X134.11Y-101.53
X136.65Y-88.83
X136.65Y-91.37
X136.65Y-93.91
X136.65Y-96.45
X136.65Y-98.99
X136.65Y-101.53
X163.875Y-88.83
X163.875Y-91.37
X163.875Y-93.91
X163.875Y-96.45
X163.875Y-98.99
X163.875Y-101.53
X166.415Y-88.83
X166.415Y-91.37
X166.415Y-93.91
X166.415Y-96.45
X166.415Y-98.99
X166.415Y-101.53
T0
M30
