G75*
%MOIN*%
%OFA0B0*%
%FSLAX24Y24*%
%IPPOS*%
%LPD*%
%AMOC8*
5,1,8,0,0,1.08239X$1,22.5*
%
%ADD10OC8,0.0554*%
%ADD11C,0.1266*%
%ADD12OC8,0.0600*%
%ADD13C,0.0560*%
%ADD14C,0.0396*%
%ADD15C,0.0240*%
%ADD16C,0.0160*%
%ADD17C,0.0320*%
D10*
X021919Y002761D03*
X022904Y002761D03*
X022904Y003588D03*
X022904Y004612D03*
X022904Y005439D03*
X021919Y005439D03*
D11*
X024085Y006757D03*
X024400Y004100D03*
X024085Y001443D03*
D12*
X005500Y001600D03*
X004500Y001600D03*
X004500Y002600D03*
X005500Y002600D03*
X005500Y003600D03*
X004500Y003600D03*
X004500Y004600D03*
X005500Y004600D03*
X005500Y005600D03*
X004500Y005600D03*
X004500Y006600D03*
X005500Y006600D03*
D13*
X014970Y006100D02*
X015530Y006100D01*
X015530Y005100D02*
X014970Y005100D01*
D14*
X012388Y005277D03*
X012388Y004588D03*
X012388Y003309D03*
X011108Y002915D03*
X014750Y001600D03*
X017750Y001600D03*
X020750Y001600D03*
X019081Y002915D03*
X016128Y003013D03*
X017750Y004600D03*
X012388Y006557D03*
D15*
X012388Y005277D02*
X012880Y005277D01*
X014057Y004100D01*
X017250Y004100D01*
X018435Y002915D01*
X019081Y002915D01*
X016128Y003013D02*
X012683Y003013D01*
X012388Y003309D01*
X017750Y004600D02*
X018589Y005439D01*
X021919Y005439D01*
X022427Y005080D02*
X022896Y004612D01*
X022904Y004612D01*
X022427Y005923D02*
X022250Y006100D01*
X016750Y006100D01*
X015750Y005100D01*
X015250Y005100D01*
D16*
X003250Y007600D02*
X003250Y000600D01*
X010797Y000600D01*
X008117Y003280D01*
X005944Y003280D01*
X005724Y003060D01*
X005719Y003060D01*
X005980Y002799D01*
X005980Y002620D01*
X005520Y002620D01*
X005520Y002580D01*
X005980Y002580D01*
X005980Y002401D01*
X005719Y002140D01*
X005724Y002140D01*
X006040Y001824D01*
X006040Y001376D01*
X005724Y001060D01*
X005276Y001060D01*
X005000Y001336D01*
X004724Y001060D01*
X004276Y001060D01*
X003960Y001376D01*
X003960Y001824D01*
X004276Y002140D01*
X004281Y002140D01*
X004020Y002401D01*
X004020Y002580D01*
X004480Y002580D01*
X004480Y002620D01*
X004020Y002620D01*
X004020Y002799D01*
X004281Y003060D01*
X004276Y003060D01*
X003960Y003376D01*
X003960Y003824D01*
X004236Y004100D01*
X003960Y004376D01*
X003960Y004824D01*
X004236Y005100D01*
X003960Y005376D01*
X003960Y005824D01*
X004236Y006100D01*
X003960Y006376D01*
X003960Y006824D01*
X004276Y007140D01*
X004724Y007140D01*
X005000Y006864D01*
X005276Y007140D01*
X005724Y007140D01*
X006040Y006824D01*
X006040Y006420D01*
X011799Y006420D01*
X011950Y006571D01*
X011950Y006644D01*
X012016Y006805D01*
X012140Y006928D01*
X012301Y006995D01*
X012475Y006995D01*
X012636Y006928D01*
X012759Y006805D01*
X012826Y006644D01*
X012826Y006470D01*
X012759Y006309D01*
X012636Y006185D01*
X012475Y006119D01*
X012402Y006119D01*
X012112Y005829D01*
X011995Y005780D01*
X011649Y005780D01*
X011983Y005445D01*
X012016Y005525D01*
X011904Y005525D01*
X012016Y005525D02*
X012140Y005649D01*
X012301Y005715D01*
X012475Y005715D01*
X012636Y005649D01*
X012647Y005637D01*
X012952Y005637D01*
X013084Y005582D01*
X013185Y005481D01*
X014206Y004460D01*
X017322Y004460D01*
X017336Y004454D01*
X017312Y004513D01*
X017312Y004687D01*
X017379Y004848D01*
X017502Y004971D01*
X017663Y005038D01*
X017679Y005038D01*
X018381Y005740D01*
X016899Y005740D01*
X016055Y004896D01*
X015975Y004816D01*
X015971Y004805D01*
X015825Y004659D01*
X015633Y004580D01*
X014867Y004580D01*
X014675Y004659D01*
X014529Y004805D01*
X014450Y004997D01*
X014450Y005203D01*
X014529Y005395D01*
X014675Y005541D01*
X014818Y005600D01*
X014675Y005659D01*
X014529Y005805D01*
X014450Y005997D01*
X014450Y006203D01*
X014529Y006395D01*
X014675Y006541D01*
X014867Y006620D01*
X015633Y006620D01*
X015825Y006541D01*
X015971Y006395D01*
X016050Y006203D01*
X016050Y005997D01*
X015988Y005847D01*
X016546Y006405D01*
X016678Y006460D01*
X022322Y006460D01*
X022454Y006405D01*
X022555Y006304D01*
X022732Y006127D01*
X022787Y005994D01*
X022787Y005896D01*
X022895Y005896D01*
X022895Y005447D01*
X022912Y005447D01*
X023361Y005447D01*
X023361Y005628D01*
X023093Y005896D01*
X022912Y005896D01*
X022912Y005447D01*
X022912Y005430D01*
X023361Y005430D01*
X023361Y005249D01*
X023179Y005068D01*
X023421Y004826D01*
X023421Y004398D01*
X023123Y004100D01*
X023421Y003802D01*
X023421Y003374D01*
X023222Y003175D01*
X023421Y002976D01*
X023421Y002547D01*
X023118Y002244D01*
X022689Y002244D01*
X022411Y002522D01*
X022134Y002244D01*
X021705Y002244D01*
X021402Y002547D01*
X021402Y002976D01*
X021705Y003279D01*
X022134Y003279D01*
X022411Y003001D01*
X022586Y003175D01*
X022386Y003374D01*
X022386Y003802D01*
X022684Y004100D01*
X022386Y004398D01*
X022386Y004612D01*
X022122Y004876D01*
X022103Y004921D01*
X021705Y004921D01*
X021548Y005079D01*
X018738Y005079D01*
X018188Y004529D01*
X018188Y004513D01*
X018121Y004352D01*
X017998Y004229D01*
X017837Y004162D01*
X017697Y004162D01*
X018584Y003275D01*
X018821Y003275D01*
X018833Y003286D01*
X018994Y003353D01*
X019168Y003353D01*
X019329Y003286D01*
X019452Y003163D01*
X019519Y003002D01*
X019519Y002828D01*
X019452Y002667D01*
X019329Y002544D01*
X019168Y002477D01*
X018994Y002477D01*
X018833Y002544D01*
X018821Y002555D01*
X018363Y002555D01*
X018231Y002610D01*
X017101Y003740D01*
X013985Y003740D01*
X013853Y003795D01*
X012731Y004917D01*
X012678Y004917D01*
X012759Y004836D01*
X012826Y004675D01*
X012826Y004501D01*
X012759Y004340D01*
X012636Y004217D01*
X012475Y004150D01*
X012301Y004150D01*
X012140Y004217D01*
X012016Y004340D01*
X011950Y004501D01*
X011950Y004574D01*
X011243Y005280D01*
X009196Y005280D01*
X011123Y003353D01*
X011195Y003353D01*
X011356Y003286D01*
X011480Y003163D01*
X011546Y003002D01*
X011546Y002828D01*
X011480Y002667D01*
X011356Y002544D01*
X011195Y002477D01*
X011021Y002477D01*
X010860Y002544D01*
X010737Y002667D01*
X010670Y002828D01*
X010670Y002901D01*
X008791Y004780D01*
X008523Y004780D01*
X011383Y001920D01*
X014450Y001920D01*
X014502Y001971D01*
X014663Y002038D01*
X014837Y002038D01*
X014998Y001971D01*
X015121Y001848D01*
X015188Y001687D01*
X015188Y001513D01*
X015150Y001420D01*
X017117Y001420D01*
X017312Y001614D01*
X017312Y001687D01*
X017379Y001848D01*
X017502Y001971D01*
X017663Y002038D01*
X017837Y002038D01*
X017998Y001971D01*
X018121Y001848D01*
X018188Y001687D01*
X018188Y001513D01*
X018121Y001352D01*
X017998Y001229D01*
X017837Y001162D01*
X017764Y001162D01*
X017523Y000920D01*
X019617Y000920D01*
X020312Y001614D01*
X020312Y001687D01*
X020379Y001848D01*
X020502Y001971D01*
X020663Y002038D01*
X020837Y002038D01*
X020998Y001971D01*
X021121Y001848D01*
X021188Y001687D01*
X021188Y001513D01*
X021121Y001352D01*
X020998Y001229D01*
X020837Y001162D01*
X020764Y001162D01*
X020203Y000600D01*
X025750Y000600D01*
X025750Y007600D01*
X003250Y007600D01*
X003250Y007586D02*
X025750Y007586D01*
X025750Y007427D02*
X024548Y007427D01*
X024537Y007435D02*
X024445Y007488D01*
X024347Y007529D01*
X024244Y007557D01*
X024165Y007567D01*
X024165Y006837D01*
X024894Y006837D01*
X024884Y006916D01*
X024856Y007019D01*
X024815Y007118D01*
X024762Y007210D01*
X024697Y007295D01*
X024622Y007370D01*
X024537Y007435D01*
X024165Y007427D02*
X024005Y007427D01*
X024005Y007567D02*
X023926Y007557D01*
X023823Y007529D01*
X023724Y007488D01*
X023632Y007435D01*
X023547Y007370D01*
X023472Y007295D01*
X023407Y007210D01*
X023354Y007118D01*
X023313Y007019D01*
X023285Y006916D01*
X023275Y006837D01*
X024005Y006837D01*
X024005Y006677D01*
X024165Y006677D01*
X024165Y006837D01*
X024005Y006837D01*
X024005Y007567D01*
X023622Y007427D02*
X003250Y007427D01*
X003250Y007269D02*
X023452Y007269D01*
X023351Y007110D02*
X005754Y007110D01*
X005912Y006952D02*
X012196Y006952D01*
X012011Y006793D02*
X006040Y006793D01*
X006040Y006635D02*
X011950Y006635D01*
X011855Y006476D02*
X006040Y006476D01*
X004750Y006100D02*
X011931Y006100D01*
X012388Y006557D01*
X012826Y006635D02*
X023281Y006635D01*
X023285Y006599D02*
X023275Y006677D01*
X024005Y006677D01*
X024005Y005948D01*
X023926Y005958D01*
X023823Y005986D01*
X023724Y006027D01*
X023632Y006080D01*
X023547Y006145D01*
X023472Y006220D01*
X023407Y006305D01*
X023354Y006397D01*
X023313Y006496D01*
X023285Y006599D01*
X023321Y006476D02*
X015889Y006476D01*
X016003Y006318D02*
X016458Y006318D01*
X016300Y006159D02*
X016050Y006159D01*
X016050Y006001D02*
X016141Y006001D01*
X016843Y005684D02*
X018324Y005684D01*
X018166Y005525D02*
X016684Y005525D01*
X016526Y005367D02*
X018007Y005367D01*
X017849Y005208D02*
X016367Y005208D01*
X016209Y005050D02*
X017690Y005050D01*
X017421Y004891D02*
X016050Y004891D01*
X015898Y004733D02*
X017331Y004733D01*
X017312Y004574D02*
X014092Y004574D01*
X013934Y004733D02*
X014602Y004733D01*
X014494Y004891D02*
X013775Y004891D01*
X013617Y005050D02*
X014450Y005050D01*
X014452Y005208D02*
X013458Y005208D01*
X013300Y005367D02*
X014518Y005367D01*
X014660Y005525D02*
X013141Y005525D01*
X012552Y005684D02*
X014651Y005684D01*
X014514Y005842D02*
X012126Y005842D01*
X012224Y005684D02*
X011745Y005684D01*
X011376Y005600D02*
X012388Y004588D01*
X012826Y004574D02*
X013074Y004574D01*
X013232Y004416D02*
X012790Y004416D01*
X012676Y004257D02*
X013391Y004257D01*
X013549Y004099D02*
X010377Y004099D01*
X010219Y004257D02*
X012099Y004257D01*
X011985Y004416D02*
X010060Y004416D01*
X009902Y004574D02*
X011949Y004574D01*
X011791Y004733D02*
X009743Y004733D01*
X009585Y004891D02*
X011632Y004891D01*
X011474Y005050D02*
X009426Y005050D01*
X009268Y005208D02*
X011315Y005208D01*
X011376Y005600D02*
X005500Y005600D01*
X004750Y006100D02*
X004500Y005850D01*
X004500Y005600D01*
X003960Y005525D02*
X003250Y005525D01*
X003250Y005367D02*
X003970Y005367D01*
X004128Y005208D02*
X003250Y005208D01*
X003250Y005050D02*
X004186Y005050D01*
X004027Y004891D02*
X003250Y004891D01*
X003250Y004733D02*
X003960Y004733D01*
X003960Y004574D02*
X003250Y004574D01*
X003250Y004416D02*
X003960Y004416D01*
X004079Y004257D02*
X003250Y004257D01*
X003250Y004099D02*
X004235Y004099D01*
X004076Y003940D02*
X003250Y003940D01*
X003250Y003782D02*
X003960Y003782D01*
X003960Y003623D02*
X003250Y003623D01*
X003250Y003465D02*
X003960Y003465D01*
X004030Y003306D02*
X003250Y003306D01*
X003250Y003148D02*
X004189Y003148D01*
X004210Y002989D02*
X003250Y002989D01*
X003250Y002831D02*
X004052Y002831D01*
X004020Y002672D02*
X003250Y002672D01*
X003250Y002514D02*
X004020Y002514D01*
X004520Y002580D02*
X004520Y002620D01*
X004980Y002620D01*
X004980Y002799D01*
X004719Y003060D01*
X004724Y003060D01*
X005000Y003336D01*
X005276Y003060D01*
X005281Y003060D01*
X005020Y002799D01*
X005020Y002620D01*
X005480Y002620D01*
X005480Y002580D01*
X005020Y002580D01*
X005020Y002401D01*
X005281Y002140D01*
X005276Y002140D01*
X005000Y001864D01*
X004724Y002140D01*
X004719Y002140D01*
X004980Y002401D01*
X004980Y002580D01*
X004520Y002580D01*
X004980Y002514D02*
X005020Y002514D01*
X005020Y002672D02*
X004980Y002672D01*
X004948Y002831D02*
X005052Y002831D01*
X005210Y002989D02*
X004790Y002989D01*
X004811Y003148D02*
X005189Y003148D01*
X005030Y003306D02*
X004970Y003306D01*
X005811Y003148D02*
X008250Y003148D01*
X008408Y002989D02*
X005790Y002989D01*
X005948Y002831D02*
X008567Y002831D01*
X008725Y002672D02*
X005980Y002672D01*
X005980Y002514D02*
X008884Y002514D01*
X009042Y002355D02*
X005934Y002355D01*
X005775Y002197D02*
X009201Y002197D01*
X009359Y002038D02*
X005826Y002038D01*
X005984Y001880D02*
X009518Y001880D01*
X009676Y001721D02*
X006040Y001721D01*
X006040Y001563D02*
X009835Y001563D01*
X009993Y001404D02*
X006040Y001404D01*
X005909Y001246D02*
X010152Y001246D01*
X010310Y001087D02*
X005751Y001087D01*
X005249Y001087D02*
X004751Y001087D01*
X004909Y001246D02*
X005091Y001246D01*
X004249Y001087D02*
X003250Y001087D01*
X003250Y000929D02*
X010469Y000929D01*
X010627Y000770D02*
X003250Y000770D01*
X003250Y000612D02*
X010786Y000612D01*
X011250Y000600D02*
X019750Y000600D01*
X020750Y001600D01*
X021143Y001404D02*
X024005Y001404D01*
X024005Y001363D02*
X023275Y001363D01*
X023285Y001284D01*
X023313Y001181D01*
X023354Y001082D01*
X023407Y000990D01*
X023472Y000905D01*
X023547Y000830D01*
X023632Y000765D01*
X023724Y000712D01*
X023823Y000671D01*
X023926Y000643D01*
X024005Y000633D01*
X024005Y001363D01*
X024005Y001523D01*
X024005Y002252D01*
X023926Y002242D01*
X023823Y002214D01*
X023724Y002173D01*
X023632Y002120D01*
X023547Y002055D01*
X023472Y001980D01*
X023407Y001895D01*
X023354Y001803D01*
X023313Y001704D01*
X023285Y001601D01*
X023275Y001523D01*
X024005Y001523D01*
X024165Y001523D01*
X024165Y002252D01*
X024244Y002242D01*
X024347Y002214D01*
X024445Y002173D01*
X024537Y002120D01*
X024622Y002055D01*
X024697Y001980D01*
X024762Y001895D01*
X024815Y001803D01*
X024856Y001704D01*
X024884Y001601D01*
X024894Y001523D01*
X024165Y001523D01*
X024165Y001363D01*
X024894Y001363D01*
X024884Y001284D01*
X024856Y001181D01*
X024815Y001082D01*
X024762Y000990D01*
X024697Y000905D01*
X024622Y000830D01*
X024537Y000765D01*
X024445Y000712D01*
X024347Y000671D01*
X024244Y000643D01*
X024165Y000633D01*
X024165Y001363D01*
X024005Y001363D01*
X024005Y001246D02*
X024165Y001246D01*
X024165Y001404D02*
X025750Y001404D01*
X025750Y001246D02*
X024874Y001246D01*
X024817Y001087D02*
X025750Y001087D01*
X025750Y000929D02*
X024715Y000929D01*
X024544Y000770D02*
X025750Y000770D01*
X025750Y000612D02*
X020214Y000612D01*
X020373Y000770D02*
X023625Y000770D01*
X024005Y000770D02*
X024165Y000770D01*
X024165Y000929D02*
X024005Y000929D01*
X024005Y001087D02*
X024165Y001087D01*
X023454Y000929D02*
X020531Y000929D01*
X020690Y001087D02*
X023352Y001087D01*
X023296Y001246D02*
X021015Y001246D01*
X020101Y001404D02*
X018143Y001404D01*
X018188Y001563D02*
X020260Y001563D01*
X020326Y001721D02*
X018174Y001721D01*
X018090Y001880D02*
X020410Y001880D01*
X020663Y002038D02*
X017837Y002038D01*
X017663Y002038D02*
X014837Y002038D01*
X014663Y002038D02*
X011265Y002038D01*
X011106Y002197D02*
X023780Y002197D01*
X024005Y002197D02*
X024165Y002197D01*
X024389Y002197D02*
X025750Y002197D01*
X025750Y002355D02*
X023229Y002355D01*
X023387Y002514D02*
X025750Y002514D01*
X025750Y002672D02*
X023421Y002672D01*
X023421Y002831D02*
X025750Y002831D01*
X025750Y002989D02*
X023407Y002989D01*
X023249Y003148D02*
X025750Y003148D01*
X025750Y003306D02*
X024578Y003306D01*
X024559Y003301D02*
X024662Y003328D01*
X024760Y003369D01*
X024852Y003423D01*
X024937Y003487D01*
X025012Y003563D01*
X025077Y003647D01*
X025130Y003740D01*
X025171Y003838D01*
X025199Y003941D01*
X025209Y004020D01*
X024480Y004020D01*
X024480Y004180D01*
X025209Y004180D01*
X025199Y004259D01*
X025171Y004362D01*
X025130Y004460D01*
X025077Y004553D01*
X025012Y004637D01*
X024937Y004713D01*
X024852Y004777D01*
X024760Y004831D01*
X024662Y004872D01*
X024559Y004899D01*
X024480Y004910D01*
X024480Y004180D01*
X024320Y004180D01*
X024320Y004910D01*
X024241Y004899D01*
X024138Y004872D01*
X024039Y004831D01*
X023947Y004777D01*
X023862Y004713D01*
X023787Y004637D01*
X023722Y004553D01*
X023669Y004460D01*
X023628Y004362D01*
X023600Y004259D01*
X023590Y004180D01*
X024320Y004180D01*
X024320Y004020D01*
X024480Y004020D01*
X024480Y003290D01*
X024559Y003301D01*
X024480Y003306D02*
X024320Y003306D01*
X024320Y003290D02*
X024320Y004020D01*
X023590Y004020D01*
X023600Y003941D01*
X023628Y003838D01*
X023669Y003740D01*
X023722Y003647D01*
X023787Y003563D01*
X023862Y003487D01*
X023947Y003423D01*
X024039Y003369D01*
X024138Y003328D01*
X024241Y003301D01*
X024320Y003290D01*
X024221Y003306D02*
X023353Y003306D01*
X023421Y003465D02*
X023892Y003465D01*
X024320Y003465D02*
X024480Y003465D01*
X024480Y003623D02*
X024320Y003623D01*
X024320Y003782D02*
X024480Y003782D01*
X024480Y003940D02*
X024320Y003940D01*
X024320Y004099D02*
X023125Y004099D01*
X023280Y004257D02*
X023600Y004257D01*
X023650Y004416D02*
X023421Y004416D01*
X023421Y004574D02*
X023738Y004574D01*
X023888Y004733D02*
X023421Y004733D01*
X023356Y004891D02*
X024210Y004891D01*
X024320Y004891D02*
X024480Y004891D01*
X024589Y004891D02*
X025750Y004891D01*
X025750Y004733D02*
X024911Y004733D01*
X025061Y004574D02*
X025750Y004574D01*
X025750Y004416D02*
X025149Y004416D01*
X025199Y004257D02*
X025750Y004257D01*
X025750Y004099D02*
X024480Y004099D01*
X024480Y004257D02*
X024320Y004257D01*
X024320Y004416D02*
X024480Y004416D01*
X024480Y004574D02*
X024320Y004574D01*
X024320Y004733D02*
X024480Y004733D01*
X025750Y005050D02*
X023197Y005050D01*
X023319Y005208D02*
X025750Y005208D01*
X025750Y005367D02*
X023361Y005367D01*
X023361Y005525D02*
X025750Y005525D01*
X025750Y005684D02*
X023305Y005684D01*
X023147Y005842D02*
X025750Y005842D01*
X025750Y006001D02*
X024382Y006001D01*
X024347Y005986D02*
X024445Y006027D01*
X024537Y006080D01*
X024622Y006145D01*
X024697Y006220D01*
X024762Y006305D01*
X024815Y006397D01*
X024856Y006496D01*
X024884Y006599D01*
X024894Y006677D01*
X024165Y006677D01*
X024165Y005948D01*
X024244Y005958D01*
X024347Y005986D01*
X024165Y006001D02*
X024005Y006001D01*
X023787Y006001D02*
X022785Y006001D01*
X022700Y006159D02*
X023533Y006159D01*
X023400Y006318D02*
X022542Y006318D01*
X022427Y005923D02*
X022427Y005080D01*
X022116Y004891D02*
X018550Y004891D01*
X018392Y004733D02*
X022266Y004733D01*
X022386Y004574D02*
X018233Y004574D01*
X018148Y004416D02*
X022386Y004416D01*
X022527Y004257D02*
X018027Y004257D01*
X017761Y004099D02*
X022682Y004099D01*
X022524Y003940D02*
X017919Y003940D01*
X018078Y003782D02*
X022386Y003782D01*
X022386Y003623D02*
X018236Y003623D01*
X018395Y003465D02*
X022386Y003465D01*
X022454Y003306D02*
X019281Y003306D01*
X019459Y003148D02*
X021574Y003148D01*
X021416Y002989D02*
X019519Y002989D01*
X019519Y002831D02*
X021402Y002831D01*
X021402Y002672D02*
X019454Y002672D01*
X019256Y002514D02*
X021436Y002514D01*
X021594Y002355D02*
X010948Y002355D01*
X010933Y002514D02*
X010789Y002514D01*
X010735Y002672D02*
X010631Y002672D01*
X010670Y002831D02*
X010472Y002831D01*
X010582Y002989D02*
X010314Y002989D01*
X010423Y003148D02*
X010155Y003148D01*
X010265Y003306D02*
X009997Y003306D01*
X010106Y003465D02*
X009838Y003465D01*
X009948Y003623D02*
X009680Y003623D01*
X009789Y003782D02*
X009521Y003782D01*
X009631Y003940D02*
X009363Y003940D01*
X009472Y004099D02*
X009204Y004099D01*
X009314Y004257D02*
X009046Y004257D01*
X009155Y004416D02*
X008887Y004416D01*
X008997Y004574D02*
X008729Y004574D01*
X008838Y004733D02*
X008570Y004733D01*
X008250Y004600D02*
X011250Y001600D01*
X014750Y001600D01*
X015188Y001563D02*
X017260Y001563D01*
X017326Y001721D02*
X015174Y001721D01*
X015090Y001880D02*
X017410Y001880D01*
X017750Y001600D02*
X017250Y001100D01*
X011250Y001100D01*
X008250Y004100D01*
X004750Y004100D01*
X004500Y003850D01*
X004500Y003600D01*
X005500Y003600D02*
X008250Y003600D01*
X011250Y000600D01*
X005225Y002197D02*
X004775Y002197D01*
X004826Y002038D02*
X005174Y002038D01*
X005016Y001880D02*
X004984Y001880D01*
X004174Y002038D02*
X003250Y002038D01*
X003250Y001880D02*
X004016Y001880D01*
X003960Y001721D02*
X003250Y001721D01*
X003250Y001563D02*
X003960Y001563D01*
X003960Y001404D02*
X003250Y001404D01*
X003250Y001246D02*
X004091Y001246D01*
X004225Y002197D02*
X003250Y002197D01*
X003250Y002355D02*
X004066Y002355D01*
X004934Y002355D02*
X005066Y002355D01*
X010536Y003940D02*
X013708Y003940D01*
X013885Y003782D02*
X010694Y003782D01*
X010853Y003623D02*
X012083Y003623D01*
X012140Y003680D02*
X012016Y003557D01*
X011950Y003396D01*
X011950Y003222D01*
X012016Y003060D01*
X012140Y002937D01*
X012301Y002871D01*
X012317Y002871D01*
X012378Y002809D01*
X012479Y002708D01*
X012611Y002653D01*
X015868Y002653D01*
X015880Y002642D01*
X016041Y002575D01*
X016215Y002575D01*
X016376Y002642D01*
X016499Y002765D01*
X016566Y002926D01*
X016566Y003101D01*
X016499Y003262D01*
X016376Y003385D01*
X016215Y003451D01*
X016041Y003451D01*
X015880Y003385D01*
X015868Y003373D01*
X012832Y003373D01*
X012826Y003380D01*
X012826Y003396D01*
X012759Y003557D01*
X012636Y003680D01*
X012475Y003747D01*
X012301Y003747D01*
X012140Y003680D01*
X012693Y003623D02*
X017218Y003623D01*
X017376Y003465D02*
X012797Y003465D01*
X011978Y003465D02*
X011011Y003465D01*
X011309Y003306D02*
X011950Y003306D01*
X011980Y003148D02*
X011486Y003148D01*
X011546Y002989D02*
X012088Y002989D01*
X012357Y002831D02*
X011546Y002831D01*
X011482Y002672D02*
X012567Y002672D01*
X012378Y002809D02*
X012378Y002809D01*
X011284Y002514D02*
X018905Y002514D01*
X018169Y002672D02*
X016406Y002672D01*
X016526Y002831D02*
X018010Y002831D01*
X017852Y002989D02*
X016566Y002989D01*
X016547Y003148D02*
X017693Y003148D01*
X017535Y003306D02*
X016455Y003306D01*
X018553Y003306D02*
X018880Y003306D01*
X022265Y003148D02*
X022558Y003148D01*
X023421Y003623D02*
X023741Y003623D01*
X023651Y003782D02*
X023421Y003782D01*
X023283Y003940D02*
X023601Y003940D01*
X025058Y003623D02*
X025750Y003623D01*
X025750Y003465D02*
X024907Y003465D01*
X025148Y003782D02*
X025750Y003782D01*
X025750Y003940D02*
X025198Y003940D01*
X021577Y005050D02*
X018709Y005050D01*
X014450Y006001D02*
X012284Y006001D01*
X012573Y006159D02*
X014450Y006159D01*
X014497Y006318D02*
X012763Y006318D01*
X012826Y006476D02*
X014611Y006476D01*
X012764Y006793D02*
X024005Y006793D01*
X024165Y006793D02*
X025750Y006793D01*
X025750Y006635D02*
X024889Y006635D01*
X024848Y006476D02*
X025750Y006476D01*
X025750Y006318D02*
X024769Y006318D01*
X024636Y006159D02*
X025750Y006159D01*
X024165Y006159D02*
X024005Y006159D01*
X024005Y006318D02*
X024165Y006318D01*
X024165Y006476D02*
X024005Y006476D01*
X024005Y006635D02*
X024165Y006635D01*
X024165Y006952D02*
X024005Y006952D01*
X024005Y007110D02*
X024165Y007110D01*
X024165Y007269D02*
X024005Y007269D01*
X024717Y007269D02*
X025750Y007269D01*
X025750Y007110D02*
X024819Y007110D01*
X024874Y006952D02*
X025750Y006952D01*
X023295Y006952D02*
X012579Y006952D01*
X008923Y005100D02*
X011108Y002915D01*
X008250Y004600D02*
X005500Y004600D01*
X004750Y005100D02*
X004500Y004850D01*
X004500Y004600D01*
X004750Y005100D02*
X008923Y005100D01*
X012705Y004891D02*
X012757Y004891D01*
X012802Y004733D02*
X012915Y004733D01*
X005088Y006952D02*
X004912Y006952D01*
X004754Y007110D02*
X005246Y007110D01*
X004246Y007110D02*
X003250Y007110D01*
X003250Y006952D02*
X004088Y006952D01*
X003960Y006793D02*
X003250Y006793D01*
X003250Y006635D02*
X003960Y006635D01*
X003960Y006476D02*
X003250Y006476D01*
X003250Y006318D02*
X004019Y006318D01*
X004177Y006159D02*
X003250Y006159D01*
X003250Y006001D02*
X004137Y006001D01*
X003978Y005842D02*
X003250Y005842D01*
X003250Y005684D02*
X003960Y005684D01*
X018015Y001246D02*
X019943Y001246D01*
X019784Y001087D02*
X017690Y001087D01*
X017531Y000929D02*
X019626Y000929D01*
X021188Y001563D02*
X023280Y001563D01*
X023320Y001721D02*
X021174Y001721D01*
X021090Y001880D02*
X023398Y001880D01*
X023530Y002038D02*
X020837Y002038D01*
X022244Y002355D02*
X022579Y002355D01*
X022420Y002514D02*
X022403Y002514D01*
X024005Y002038D02*
X024165Y002038D01*
X024165Y001880D02*
X024005Y001880D01*
X024005Y001721D02*
X024165Y001721D01*
X024165Y001563D02*
X024005Y001563D01*
X024849Y001721D02*
X025750Y001721D01*
X025750Y001563D02*
X024889Y001563D01*
X024771Y001880D02*
X025750Y001880D01*
X025750Y002038D02*
X024639Y002038D01*
X022912Y005525D02*
X022895Y005525D01*
X022895Y005684D02*
X022912Y005684D01*
X022895Y005842D02*
X022912Y005842D01*
D17*
X022904Y005439D02*
X024061Y005439D01*
X024400Y005100D01*
X024400Y006443D01*
X024085Y006757D01*
X024400Y005100D02*
X024400Y004100D01*
X024400Y001757D01*
X024085Y001443D01*
M02*
