%
M48
M72
T01C0.0236
T02C0.0354
T03C0.0360
T04C0.0400
T05C0.0866
%
T01
X11108Y2915
X12388Y3309
X16128Y3013
X19081Y2915
X17750Y1600
X14750Y1600
X20750Y1600
X12388Y4588
X12388Y5277
X12388Y6557
X17750Y4600
T02
X21919Y5439
X22904Y5439
X22904Y4612
X22904Y3588
X22904Y2761
X21919Y2761
T03
X15250Y5100
X15250Y6100
T04
X4500Y1600
X5500Y1600
X5500Y2600
X4500Y2600
X4500Y3600
X5500Y3600
X5500Y4600
X4500Y4600
X4500Y5600
X5500Y5600
X5500Y6600
X4500Y6600
T05
X24085Y6757
X24400Y4100
X24085Y1443
M30
