G75*
%MOIN*%
%OFA0B0*%
%FSLAX24Y24*%
%IPPOS*%
%LPD*%
%AMOC8*
5,1,8,0,0,1.08239X$1,22.5*
%
%ADD10R,0.0474X0.0631*%
%ADD11OC8,0.0634*%
%ADD12C,0.1346*%
%ADD13OC8,0.0680*%
%ADD14R,0.0592X0.0671*%
%ADD15R,0.0671X0.0592*%
%ADD16R,0.0789X0.2049*%
%ADD17R,0.0749X0.0789*%
%ADD18R,0.0867X0.0671*%
%ADD19R,0.0710X0.0592*%
%ADD20C,0.0640*%
%ADD21R,0.0395X0.0631*%
%ADD22R,0.0394X0.0630*%
%ADD23C,0.0669*%
%ADD24C,0.0476*%
D10*
X013376Y003667D03*
X014124Y003667D03*
X016376Y003667D03*
X017124Y003667D03*
X019376Y003667D03*
X020124Y003667D03*
X019750Y004533D03*
X016750Y004533D03*
X013750Y004533D03*
D11*
X021919Y005439D03*
X022904Y005439D03*
X022904Y004612D03*
X022904Y003588D03*
X022904Y002761D03*
X021919Y002761D03*
D12*
X024400Y004100D03*
X024085Y001443D03*
X024085Y006757D03*
D13*
X004500Y001600D03*
X005500Y001600D03*
X005500Y002600D03*
X004500Y002600D03*
X004500Y003600D03*
X005500Y003600D03*
X005500Y004600D03*
X004500Y004600D03*
X004500Y005600D03*
X005500Y005600D03*
X005500Y006600D03*
X004500Y006600D03*
D14*
X013376Y006100D03*
X014124Y006100D03*
X016376Y006100D03*
X017124Y006100D03*
X018376Y006100D03*
X019124Y006100D03*
X019376Y002100D03*
X020124Y002100D03*
X017124Y002100D03*
X016376Y002100D03*
X014124Y002100D03*
X013376Y002100D03*
D15*
X011750Y001726D03*
X011750Y002474D03*
X015250Y003226D03*
X015250Y003974D03*
X018250Y003974D03*
X018250Y003226D03*
X011750Y003726D03*
X011750Y004474D03*
X011750Y005726D03*
X011750Y006474D03*
X020250Y006474D03*
X020250Y005726D03*
D16*
X008419Y005600D03*
X007081Y005600D03*
D17*
X010000Y005157D03*
X010000Y003543D03*
D18*
X010000Y002441D03*
X010000Y001259D03*
D19*
X006750Y001706D03*
X006750Y002494D03*
D20*
X014970Y005100D02*
X015530Y005100D01*
X015530Y006100D02*
X014970Y006100D01*
D21*
X008840Y001820D03*
X007660Y001820D03*
D22*
X008250Y001820D03*
D23*
X008348Y002541D02*
X008142Y002541D01*
X008142Y003397D01*
X008348Y003397D01*
X008348Y002541D01*
X008348Y002942D02*
X008142Y002942D01*
D24*
X011108Y002915D03*
X012388Y003309D03*
X016128Y003013D03*
X019081Y002915D03*
X017750Y001600D03*
X014750Y001600D03*
X020750Y001600D03*
X012388Y004588D03*
X012388Y005277D03*
X012388Y006557D03*
X017750Y004600D03*
M02*
