G75*
%MOIN*%
%OFA0B0*%
%FSLAX24Y24*%
%IPPOS*%
%LPD*%
%AMOC8*
5,1,8,0,0,1.08239X$1,22.5*
%
%ADD10R,0.0394X0.0551*%
%ADD11R,0.0512X0.0591*%
%ADD12R,0.0591X0.0512*%
%ADD13R,0.0709X0.1969*%
%ADD14R,0.0669X0.0709*%
%ADD15R,0.0787X0.0591*%
%ADD16R,0.0630X0.0512*%
%ADD17R,0.0315X0.0551*%
%ADD18C,0.0512*%
D10*
X013376Y003667D03*
X014124Y003667D03*
X016376Y003667D03*
X017124Y003667D03*
X019376Y003667D03*
X020124Y003667D03*
X019750Y004533D03*
X016750Y004533D03*
X013750Y004533D03*
D11*
X013376Y006100D03*
X014124Y006100D03*
X016376Y006100D03*
X017124Y006100D03*
X018376Y006100D03*
X019124Y006100D03*
X019376Y002100D03*
X020124Y002100D03*
X017124Y002100D03*
X016376Y002100D03*
X014124Y002100D03*
X013376Y002100D03*
D12*
X011750Y001726D03*
X011750Y002474D03*
X015250Y003226D03*
X015250Y003974D03*
X018250Y003974D03*
X018250Y003226D03*
X011750Y003726D03*
X011750Y004474D03*
X011750Y005726D03*
X011750Y006474D03*
X020250Y006474D03*
X020250Y005726D03*
D13*
X008419Y005600D03*
X007081Y005600D03*
D14*
X010000Y005157D03*
X010000Y003543D03*
D15*
X010000Y002441D03*
X010000Y001259D03*
D16*
X006750Y001706D03*
X006750Y002494D03*
D17*
X007660Y001820D03*
X008250Y001820D03*
X008840Y001820D03*
D18*
X008358Y002551D02*
X008152Y002551D01*
X008152Y003407D01*
X008358Y003407D01*
X008358Y002551D01*
X008358Y002703D02*
X008152Y002703D01*
X008152Y003213D02*
X008358Y003213D01*
M02*
