%TF.GenerationSoftware,KiCad,Pcbnew,(6.0.5)*%
%TF.CreationDate,2024-12-30T18:11:12+01:00*%
%TF.ProjectId,basys3_to_lb,62617379-7333-45f7-946f-5f6c622e6b69,rev?*%
%TF.SameCoordinates,Original*%
%TF.FileFunction,Paste,Top*%
%TF.FilePolarity,Positive*%
%FSLAX46Y46*%
G04 Gerber Fmt 4.6, Leading zero omitted, Abs format (unit mm)*
G04 Created by KiCad (PCBNEW (6.0.5)) date 2024-12-30 18:11:12*
%MOMM*%
%LPD*%
G01*
G04 APERTURE LIST*
G04 Aperture macros list*
%AMRoundRect*
0 Rectangle with rounded corners*
0 $1 Rounding radius*
0 $2 $3 $4 $5 $6 $7 $8 $9 X,Y pos of 4 corners*
0 Add a 4 corners polygon primitive as box body*
4,1,4,$2,$3,$4,$5,$6,$7,$8,$9,$2,$3,0*
0 Add four circle primitives for the rounded corners*
1,1,$1+$1,$2,$3*
1,1,$1+$1,$4,$5*
1,1,$1+$1,$6,$7*
1,1,$1+$1,$8,$9*
0 Add four rect primitives between the rounded corners*
20,1,$1+$1,$2,$3,$4,$5,0*
20,1,$1+$1,$4,$5,$6,$7,0*
20,1,$1+$1,$6,$7,$8,$9,0*
20,1,$1+$1,$8,$9,$2,$3,0*%
G04 Aperture macros list end*
%ADD10RoundRect,0.250000X0.262500X0.450000X-0.262500X0.450000X-0.262500X-0.450000X0.262500X-0.450000X0*%
%ADD11RoundRect,0.250000X0.250000X0.475000X-0.250000X0.475000X-0.250000X-0.475000X0.250000X-0.475000X0*%
%ADD12RoundRect,0.250000X0.475000X-0.250000X0.475000X0.250000X-0.475000X0.250000X-0.475000X-0.250000X0*%
%ADD13R,0.600000X1.450000*%
%ADD14R,0.300000X1.450000*%
%ADD15RoundRect,0.250000X-0.262500X-0.450000X0.262500X-0.450000X0.262500X0.450000X-0.262500X0.450000X0*%
%ADD16RoundRect,0.250000X-0.475000X0.250000X-0.475000X-0.250000X0.475000X-0.250000X0.475000X0.250000X0*%
%ADD17R,0.650000X1.050000*%
%ADD18RoundRect,0.150000X-0.725000X-0.150000X0.725000X-0.150000X0.725000X0.150000X-0.725000X0.150000X0*%
%ADD19RoundRect,0.250000X-0.450000X0.262500X-0.450000X-0.262500X0.450000X-0.262500X0.450000X0.262500X0*%
%ADD20RoundRect,0.243750X-0.243750X-0.456250X0.243750X-0.456250X0.243750X0.456250X-0.243750X0.456250X0*%
%ADD21RoundRect,0.150000X0.150000X-0.512500X0.150000X0.512500X-0.150000X0.512500X-0.150000X-0.512500X0*%
%ADD22RoundRect,0.250000X0.450000X-0.262500X0.450000X0.262500X-0.450000X0.262500X-0.450000X-0.262500X0*%
%ADD23RoundRect,0.250000X-0.250000X-0.475000X0.250000X-0.475000X0.250000X0.475000X-0.250000X0.475000X0*%
G04 APERTURE END LIST*
D10*
%TO.C,R4*%
X130452500Y-83058000D03*
X128627500Y-83058000D03*
%TD*%
D11*
%TO.C,C4*%
X126426000Y-64516000D03*
X124526000Y-64516000D03*
%TD*%
D12*
%TO.C,C1*%
X153670000Y-65466000D03*
X153670000Y-63566000D03*
%TD*%
D13*
%TO.C,J1*%
X150570000Y-67545000D03*
X149770000Y-67545000D03*
D14*
X148570000Y-67545000D03*
X147570000Y-67545000D03*
X147070000Y-67545000D03*
X146070000Y-67545000D03*
D13*
X144870000Y-67545000D03*
X144070000Y-67545000D03*
X144070000Y-67545000D03*
X144870000Y-67545000D03*
D14*
X145570000Y-67545000D03*
X146570000Y-67545000D03*
X148070000Y-67545000D03*
X149070000Y-67545000D03*
D13*
X149770000Y-67545000D03*
X150570000Y-67545000D03*
%TD*%
D15*
%TO.C,R5*%
X123801500Y-68834000D03*
X125626500Y-68834000D03*
%TD*%
D16*
%TO.C,C3*%
X136906000Y-65598000D03*
X136906000Y-67498000D03*
%TD*%
D17*
%TO.C,SW1*%
X128465000Y-76919000D03*
X128465000Y-81069000D03*
X130615000Y-76919000D03*
X130615000Y-81069000D03*
%TD*%
D18*
%TO.C,U2*%
X129505000Y-65913000D03*
X129505000Y-67183000D03*
X129505000Y-68453000D03*
X129505000Y-69723000D03*
X129505000Y-70993000D03*
X129505000Y-72263000D03*
X129505000Y-73533000D03*
X129505000Y-74803000D03*
X134655000Y-74803000D03*
X134655000Y-73533000D03*
X134655000Y-72263000D03*
X134655000Y-70993000D03*
X134655000Y-69723000D03*
X134655000Y-68453000D03*
X134655000Y-67183000D03*
X134655000Y-65913000D03*
%TD*%
D19*
%TO.C,R3*%
X160020000Y-65889500D03*
X160020000Y-67714500D03*
%TD*%
D20*
%TO.C,D1*%
X123776500Y-66802000D03*
X125651500Y-66802000D03*
%TD*%
D21*
%TO.C,U1*%
X155768000Y-65907500D03*
X156718000Y-65907500D03*
X157668000Y-65907500D03*
X157668000Y-63632500D03*
X155768000Y-63632500D03*
%TD*%
D22*
%TO.C,R6*%
X137414000Y-71016500D03*
X137414000Y-69191500D03*
%TD*%
D12*
%TO.C,C5*%
X149860000Y-125410000D03*
X149860000Y-123510000D03*
%TD*%
D23*
%TO.C,C2*%
X154752000Y-68072000D03*
X156652000Y-68072000D03*
%TD*%
D11*
%TO.C,C6*%
X133030000Y-95250000D03*
X131130000Y-95250000D03*
%TD*%
D19*
%TO.C,R2*%
X145542000Y-71223500D03*
X145542000Y-73048500D03*
%TD*%
%TO.C,R1*%
X148590000Y-71223500D03*
X148590000Y-73048500D03*
%TD*%
M02*
